<svg width="165" height="49" viewBox="0 0 165 49" fill="none" xmlns="http://www.w3.org/2000/svg">
<path d="M140.808 0H164.767V32.7891C164.767 41.226 157.818 48.0779 149.261 48.0779H147.787C139.231 48.0779 132.282 41.226 132.282 32.7891V8.40753C132.282 3.76707 136.102 0 140.808 0Z" fill="#E9B500"/>
<path d="M142.315 1.84729H164.767V33.3522C164.767 41.479 158.042 48.0779 149.761 48.0779C141.48 48.0779 134.755 41.479 134.755 33.3522V9.26243C134.755 5.17002 138.141 1.84729 142.312 1.84729H142.315Z" fill="#FDD549"/>
<path d="M155.799 33.0765C155.851 35.1651 155.705 37.1292 154.944 39.0054C154.849 39.2519 154.735 39.4934 154.603 39.7228C154.315 40.2083 153.929 40.3718 153.472 40.2352C153.032 40.1034 152.838 39.8326 152.88 39.2543C152.987 37.8172 152.895 36.3801 152.833 34.9479C152.753 33.1399 152.587 31.3344 152.082 29.5801C151.811 28.6432 151.381 27.7868 150.707 27.0646C149.882 26.1667 148.932 26.0252 147.885 26.662C147.465 26.9182 147.09 27.25 146.689 27.5306C146.334 27.7819 145.978 28.043 145.603 28.2675C143.708 29.3996 142.381 28.0503 142.112 26.6864C141.943 25.8422 141.985 24.9907 142.105 24.1538C142.376 22.2531 142.642 20.35 143.216 18.5079C143.383 17.9296 143.634 17.3782 143.959 16.8683C144.531 16.0094 145.339 15.58 146.386 15.5532C148.062 15.5068 149.621 16.0558 151.219 16.4267C153.365 16.9293 155.272 17.9247 157.132 19.0349C157.278 19.1203 157.418 19.2203 157.544 19.3301C158.283 19.9889 158.159 20.999 157.266 21.4406C156.694 21.7237 156.065 21.8774 155.424 21.8945C154.802 21.914 154.364 21.6432 154.056 21.1357C153.982 21.0332 153.924 20.9209 153.885 20.8014C153.671 19.8571 152.935 19.4204 152.129 19.0666C150.615 18.4054 149.054 17.9345 147.373 17.9272C146.595 17.9272 145.986 18.2395 145.561 18.8495C144.628 20.1743 144.501 21.6114 145.101 23.0973C145.349 23.7122 145.705 23.8049 146.272 23.4438C146.95 23.0119 147.569 22.4947 148.3 22.1384C149.166 21.7188 150.058 21.4992 151.015 21.7578C151.724 21.9481 152.281 22.3776 152.761 22.907C154.066 24.349 154.832 26.0545 155.282 27.9112C155.687 29.6045 155.861 31.3417 155.804 33.0789L155.799 33.0765Z" fill="#052357"/>
<path d="M140.737 11.9567C140.712 10.3268 141.841 9.63876 143.107 9.64364C144.303 9.64852 145.394 10.3341 145.392 11.9567C145.392 13.4182 144.539 14.2575 143.037 14.2575C141.535 14.2575 140.737 13.4182 140.737 11.9567Z" fill="#052357"/>
<path d="M3.05838 26.9827C1.23816 25.545 0.231859 23.5032 0.0335593 20.8601C-0.164741 18.217 0.515991 15.33 2.06983 12.2047L6.34069 14.4906C5.32847 16.4859 4.79868 18.1938 4.75133 19.6112C4.70397 21.0285 5.11241 22.0625 5.9796 22.719C6.8468 23.3725 8.13131 23.6164 9.83018 23.4509L10.5612 23.3638C11.8161 23.2418 12.7188 23.0994 13.2694 22.9426C13.8199 22.7829 14.1839 22.5534 14.3615 22.2513C14.5391 21.9493 14.6308 21.4642 14.6338 20.7991C14.5746 18.0834 14.5065 15.3764 14.4266 12.6782L19.1888 12.4894C19.2657 15.208 19.3338 17.9237 19.393 20.6393C19.4226 22.3094 19.1532 23.6803 18.5909 24.7521C18.0256 25.8209 17.1554 26.6574 15.9804 27.2616C14.8054 27.8657 13.2605 28.2956 11.3485 28.5541L10.2534 28.6848C7.27595 28.9897 4.87563 28.4234 3.05838 26.9885V26.9827ZM6.96814 8.77744H11.4935V13.2184H6.96814V8.77744Z" fill="#0B409C"/>
<path d="M26.4045 20.7235C25.3123 20.102 24.4481 19.2539 23.8147 18.1821C23.1784 17.1104 22.8617 15.9515 22.8617 14.7054V1.79502L28.13 0.508331V14.7054C28.13 15.1934 28.3075 15.6116 28.6657 15.9602C29.0238 16.3087 29.4589 16.4859 29.9768 16.4859L30.9002 19.0854L29.9768 21.6559C28.6864 21.6559 27.4966 21.3451 26.4045 20.7206V20.7235Z" fill="#0B409C"/>
<path d="M29.8881 21.6588L29.0239 19.0884L29.9177 16.4888H37.6573C37.974 16.4888 38.2729 16.4104 38.5512 16.2565C38.8294 16.0996 39.0513 15.8876 39.22 15.6146C39.3887 15.3416 39.4716 15.0395 39.4716 14.7084V9.18698H44.7399V14.8246C44.7399 15.2922 44.9027 15.6872 45.2312 16.0067C45.5597 16.3262 45.9504 16.4888 46.4062 16.4888C46.862 16.4888 47.2852 16.3291 47.6108 16.0067C47.9364 15.6843 48.1021 15.2922 48.1021 14.8246V9.18698H53.3704V14.8246C53.3704 15.2922 53.5332 15.6872 53.8617 16.0067C54.1902 16.3262 54.5898 16.4888 55.0663 16.4888C55.5428 16.4888 55.9157 16.3291 56.2413 16.0067C56.5698 15.6843 56.7326 15.2922 56.7326 14.8246V9.12889L62.0009 7.87125V14.8246C62.0009 16.0706 61.6871 17.215 61.0627 18.2577C60.4382 19.3004 59.5887 20.1282 58.5173 20.741C57.4459 21.3539 56.2946 21.6617 55.0633 21.6617C54.2494 21.6617 53.4799 21.5252 52.7577 21.2522C52.0326 20.9792 51.3637 20.619 50.7481 20.1717C50.1532 20.6394 49.4843 21.0053 48.7384 21.2667C47.9956 21.531 47.2142 21.6617 46.4032 21.6617C45.5923 21.6617 44.8612 21.5194 44.0976 21.2377C43.334 20.9559 42.6533 20.5813 42.0584 20.1136C41.4221 20.6016 40.7325 20.9792 39.9896 21.2522C39.2467 21.5252 38.4653 21.6617 37.6514 21.6617H29.8822L29.8881 21.6588Z" fill="#0B409C"/>
<path d="M61.918 25.2226L64.8954 23.2649V9.15496L70.1637 7.83923V26.0097L64.8362 29.5154L61.918 25.2226Z" fill="#0B409C"/>
<path d="M75.2247 15.2312L78.4686 13.0993L86.3266 17.0146C86.226 17.0524 86.1579 17.0872 86.1194 17.1162C86.0809 17.1453 86.0099 17.1801 85.9122 17.2179C86.2289 16.6138 86.4538 16.0793 86.5811 15.6117C86.7084 15.1441 86.7291 14.7317 86.6403 14.3715C86.5515 14.0114 86.3177 13.7238 85.9418 13.5089C85.5038 13.2765 85.0894 13.2707 84.6928 13.4944C84.2962 13.718 83.9292 14.1624 83.5918 14.8246L82.1327 17.5984L78.143 15.2603L80.197 11.316C80.6735 10.4011 81.3217 9.68077 82.1475 9.15506C82.9703 8.62935 83.8641 8.34761 84.826 8.30695C85.7879 8.26919 86.7261 8.48122 87.6377 8.94884C88.7091 9.49488 89.529 10.3459 90.0943 11.5048C90.6596 12.6637 90.9082 13.9446 90.8372 15.3474C90.7661 16.7503 90.3843 18.0834 89.6918 19.3498C89.0761 20.4593 88.2178 21.2087 87.1168 21.5979C86.0158 21.9871 84.8882 21.8999 83.7368 21.3336L79.9869 19.4631L80.5818 30.2416L75.8196 30.4159L75.2247 15.2254V15.2312Z" fill="#0B409C"/>
<path d="M97.757 20.7235C96.6649 20.102 95.8006 19.2539 95.1673 18.1821C94.5309 17.1104 94.2142 15.9515 94.2142 14.7054V1.79502L99.4825 0.508331V14.7054C99.4825 15.1934 99.6601 15.6116 100.018 15.9602C100.376 16.3087 100.811 16.4859 101.329 16.4859L102.253 19.0854L101.329 21.6559C100.039 21.6559 98.8491 21.3451 97.757 20.7206V20.7235Z" fill="#0B409C"/>
<path d="M107.61 28.4641H99.2162V24.5489H107.61V28.4641ZM101.27 21.6589L100.376 19.0884L101.3 16.4889H102.789C103.304 16.4889 103.742 16.3147 104.1 15.9632C104.458 15.6118 104.635 15.1935 104.635 14.7085V9.09993L109.874 7.84229V14.7085C109.874 15.1964 110.052 15.6147 110.41 15.9632C110.768 16.3147 111.203 16.4889 111.718 16.4889L112.671 19.0884L111.718 21.6589C110.883 21.6589 110.081 21.5166 109.306 21.2349C108.53 20.9531 107.847 20.5668 107.252 20.0818C106.615 20.5697 105.923 20.9531 105.168 21.2349C104.413 21.5166 103.62 21.6589 102.786 21.6589H101.267H101.27Z" fill="#0B409C"/>
<path d="M110.765 19.0884L111.718 16.4889H115.202C115.539 16.4889 115.853 16.4105 116.14 16.2566C116.427 16.0997 116.652 15.8877 116.809 15.6147C116.968 15.3417 117.045 15.0396 117.045 14.7085V9.09993L122.314 7.84229V14.7085C122.314 15.9545 121.997 17.1134 121.361 18.1851C120.724 19.2569 119.863 20.105 118.771 20.7266C117.679 21.351 116.489 21.6618 115.199 21.6618H111.715L110.762 19.0913L110.765 19.0884ZM121.837 24.5808V30.0732L117.818 31.3889V28.4961H113.503V24.5808H121.837Z" fill="#0B409C"/>
<path d="M3.43425 38.2462C3.95812 38.8039 4.35768 39.2454 4.63589 39.5707C4.9141 39.896 5.13016 40.2242 5.29294 40.5524C5.45573 40.8806 5.5386 41.2146 5.5386 41.5544C5.5386 41.9611 5.42613 42.3299 5.20415 42.6698C4.98218 43.0096 4.68029 43.271 4.30736 43.4627C3.93444 43.6544 3.53192 43.7473 3.0998 43.7473C2.66769 43.7473 2.25333 43.6515 1.88041 43.4627C1.50748 43.2739 1.20559 43.0096 0.983616 42.6698C0.761639 42.3299 0.64917 41.9611 0.64917 41.5544C0.64917 41.1914 0.729082 40.8457 0.888906 40.5146C1.04873 40.1835 1.24111 39.8815 1.46901 39.6026C1.6969 39.3238 2.01359 38.9782 2.41907 38.5628L2.74168 38.2201L3.33658 38.8271L2.9755 39.2076C2.58778 39.6055 2.30068 39.9163 2.11126 40.1458C1.92184 40.3723 1.76498 40.6047 1.64067 40.8428C1.51636 41.0781 1.45421 41.3163 1.45421 41.5515C1.45421 41.932 1.60811 42.2428 1.91296 42.4897C2.21781 42.7337 2.61737 42.8586 3.10572 42.8586C3.59407 42.8586 3.9818 42.7366 4.28664 42.4897C4.59149 42.2457 4.7454 41.932 4.7454 41.5515C4.7454 41.3308 4.68029 41.1042 4.55302 40.8661C4.42279 40.6308 4.24225 40.3781 4.01139 40.1138C3.78054 39.8495 3.42241 39.4545 2.93998 38.9288C2.792 38.769 2.65881 38.6238 2.5345 38.4931C2.41019 38.3624 2.26517 38.2085 2.10238 38.0313L2.69728 37.4359L3.44609 38.2462H3.43425Z" fill="#B7B7B7"/>
<path d="M9.45425 45.7455C9.8035 45.5945 10.0492 45.3621 10.1912 45.0543C10.3333 44.7464 10.4043 44.3456 10.4043 43.8576V41.3743C10.4043 40.7992 10.2741 40.3519 10.0107 40.0266C9.74726 39.7013 9.36842 39.5387 8.86823 39.5387C8.40356 39.5387 8.03656 39.7042 7.77018 40.0382C7.50381 40.3722 7.37062 40.8166 7.37062 41.3743C7.37062 41.8739 7.49493 42.2282 7.74354 42.446C7.99216 42.661 8.371 42.7684 8.88007 42.7684H11.9256L11.9907 43.2244L11.9256 43.6543H8.88007C8.19046 43.6543 7.63404 43.4568 7.20784 43.0589C6.78164 42.661 6.56854 42.1004 6.56854 41.3743C6.56854 40.8689 6.66621 40.4071 6.85859 39.9947C7.05097 39.5822 7.32327 39.2569 7.67251 39.0187C8.02176 38.7835 8.41836 38.6644 8.86527 38.6644C9.33882 38.6644 9.75022 38.7777 10.1054 39.0071C10.4606 39.2366 10.7299 39.5532 10.9193 39.9627C11.1087 40.3722 11.2034 40.8428 11.2034 41.3743V43.8576C11.2034 44.4647 11.0969 44.9904 10.8867 45.4347C10.6766 45.8791 10.3333 46.2277 9.85973 46.4804C9.38618 46.7331 8.77056 46.8608 8.01288 46.8608H6.73429V45.975H8.01288C8.62258 45.975 9.10205 45.8995 9.45129 45.7455H9.45425Z" fill="#B7B7B7"/>
<path d="M14.6871 42.812C14.4888 43.0937 14.2283 43.3058 13.9057 43.4452C13.5831 43.5846 13.2398 43.6543 12.8787 43.6543H11.7955V42.7684H12.8787C13.3523 42.7684 13.7104 42.6755 13.9501 42.4896C14.1899 42.3037 14.3112 42.0075 14.3112 41.6037L14.9831 41.7432C14.9831 42.173 14.8854 42.5303 14.6871 42.812ZM13.3197 45.4899H13.9768V46.5907H12.6479V45.4899H13.3197ZM15.1133 39.8146V41.7025C15.1133 42.0917 15.2198 42.3647 15.4359 42.5245C15.652 42.6842 15.9361 42.7655 16.2883 42.7655H16.7027L16.7678 43.2215L16.7027 43.6514H16.2883C16.013 43.6514 15.723 43.5846 15.4181 43.4481C15.1133 43.3145 14.8528 43.0908 14.6368 42.783C14.4207 42.4751 14.3142 42.0801 14.3142 41.5979V39.8117H15.1133V39.8146Z" fill="#B7B7B7"/>
<path d="M16.5724 42.7685H17.9664C18.4133 42.7685 18.733 42.6668 18.9224 42.4635C19.1118 42.2602 19.2006 41.9988 19.1947 41.6793C19.1858 41.4353 19.1414 41.0955 19.0585 40.6598C18.9757 40.2241 18.8898 39.7914 18.7951 39.3615L19.5706 39.1582C19.6742 39.5881 19.7689 40.0412 19.8547 40.5146C19.9405 40.988 19.9879 41.3685 19.9968 41.6531C20.0056 41.9813 19.9376 42.3008 19.7955 42.6087C19.6534 42.9166 19.4285 43.1693 19.1177 43.361C18.807 43.5556 18.4252 43.6514 17.9694 43.6514H16.5753V42.7656L16.5724 42.7685ZM18.6501 36.4977H19.3072V37.5985H17.9782V36.4977H18.6501Z" fill="#B7B7B7"/>
<path d="M21.5565 35.4347H22.3556L22.3675 43.6543H21.5684L21.5565 35.4347Z" fill="#B7B7B7"/>
<path d="M26.8336 43.3494C26.4903 43.146 26.2299 42.8701 26.0582 42.5187C25.8865 42.1672 25.8214 41.7955 25.8658 41.3975C25.9013 41.0606 26.0375 40.381 26.2802 39.3586L27.0408 39.5474L26.9905 39.7885C26.7833 40.6424 26.6679 41.2029 26.6413 41.4731C26.5969 41.8623 26.7005 42.173 26.9461 42.4112C27.1918 42.6465 27.5499 42.7656 28.0234 42.7656H32.2321C32.6702 42.7656 33.0105 42.6668 33.2532 42.4664C33.493 42.2689 33.6084 42.0133 33.5966 41.6996C33.5847 41.3859 33.4427 41.0693 33.1763 40.7498L30.9032 37.9761L31.1489 36.9363L35.7453 34.9612L36.0679 35.7716L31.7556 37.6333L33.7445 40.1283C34.1234 40.6104 34.3128 41.1274 34.3128 41.6793C34.3128 42.2311 34.1293 42.6988 33.7564 43.0792C33.3864 43.4597 32.8833 43.6485 32.2469 43.6485H28.0264C27.5795 43.6485 27.1829 43.5469 26.8396 43.3435L26.8336 43.3494ZM37.16 43.2099L37.1097 43.6543H36.9026C36.4468 43.6543 36.0502 43.5643 35.7157 43.3871C35.3813 43.2099 35.0557 42.9485 34.742 42.6029C34.4282 42.2573 33.9784 41.7112 33.3923 40.9677L33.1585 40.6627L33.7386 40.1312L34.0612 40.5378C34.5525 41.171 34.9343 41.6357 35.2096 41.932C35.4849 42.2282 35.7483 42.4403 35.9969 42.571C36.2455 42.7017 36.5474 42.7685 36.8996 42.7685H37.1068L37.1571 43.2128L37.16 43.2099Z" fill="#B7B7B7"/>
<path d="M36.9796 42.7684H37.3406C37.5656 42.7684 37.7491 42.7132 37.8971 42.6029C38.0421 42.4925 38.1427 42.3415 38.193 42.1469L38.6074 40.6888C38.7879 40.0556 39.0661 39.559 39.445 39.2017C39.8238 38.8416 40.2796 38.6644 40.8124 38.6644C41.2415 38.6644 41.6204 38.7864 41.9489 39.0333C42.2745 39.2772 42.529 39.6084 42.7095 40.0266C42.8901 40.4448 42.9818 40.895 42.9818 41.3743C42.9818 41.9755 42.896 42.4635 42.7243 42.8439C42.5527 43.2244 42.3307 43.5004 42.0584 43.6746C41.7861 43.8489 41.502 43.9331 41.2001 43.9331C40.8716 43.9331 40.543 43.8692 40.2115 43.7356C39.8801 43.6049 39.3444 43.3551 38.6044 42.9834L38.27 42.8178L38.6311 42.0336C38.7347 42.083 38.8323 42.1353 38.927 42.1846C39.6314 42.5303 40.1257 42.7597 40.4039 42.8759C40.6821 42.9892 40.9485 43.0473 41.1971 43.0473C41.5079 43.0473 41.7476 42.9282 41.9193 42.6871C42.091 42.446 42.1768 42.0104 42.1768 41.3772C42.1768 40.8195 42.0584 40.3751 41.8216 40.0469C41.5849 39.7187 41.2474 39.5532 40.8094 39.5532C40.4661 39.5532 40.1731 39.6664 39.9333 39.8959C39.6936 40.1254 39.5071 40.4652 39.3769 40.9212L38.9626 42.3763C38.8945 42.629 38.7791 42.8527 38.6133 43.0473C38.4505 43.2419 38.2552 43.3929 38.0332 43.4975C37.8083 43.602 37.5774 43.6543 37.3347 43.6543H36.9736V42.7684H36.9796Z" fill="#B7B7B7"/>
<path d="M45.4236 43.3697C45.1128 43.1809 44.8908 42.9108 44.7517 42.5594C44.6156 42.2079 44.5446 41.7664 44.5446 41.2349L44.5327 35.4347H45.3318L45.3437 41.2349C45.3437 41.6648 45.3792 41.9843 45.4532 42.1905C45.5272 42.3967 45.6544 42.5448 45.8409 42.6349C46.0274 42.7249 46.3115 42.7685 46.6992 42.7685H46.8679L46.933 43.2245L46.8679 43.6543H46.6992C46.1576 43.6543 45.7314 43.5585 45.4206 43.3697H45.4236Z" fill="#B7B7B7"/>
<path d="M46.8354 45.5423H48.043V46.5444H46.353V45.5423H46.8384H46.8354ZM49.8957 42.8121C49.6945 43.0939 49.434 43.3059 49.1144 43.4453C48.7947 43.5847 48.4573 43.6544 48.0933 43.6544H46.7377V42.7686H48.0933C48.5579 42.7686 48.9102 42.6756 49.1528 42.4897C49.3926 42.3038 49.5139 42.0076 49.5139 41.6039L50.1976 41.7433C50.1976 42.1731 50.097 42.5304 49.8957 42.8121ZM48.8184 45.5423H49.6442V46.5444H47.966V45.5423H48.8184ZM50.316 39.8176V41.7055C50.316 42.0947 50.4226 42.3677 50.6386 42.5275C50.8547 42.6872 51.1388 42.7686 51.491 42.7686H52.1481L52.1984 43.2246L52.1481 43.6544H51.491C51.2158 43.6544 50.9257 43.5876 50.6209 43.4511C50.316 43.3175 50.0556 43.0939 49.8395 42.786C49.6234 42.4781 49.5169 42.0831 49.5169 41.601V39.8147H50.316V39.8176Z" fill="#B7B7B7"/>
<path d="M51.5798 45.5307V45.0369H53.2579V46.039H51.5798V45.5307ZM52.0178 42.7685H53.7611C54.2761 42.7685 54.6371 42.6698 54.8443 42.4694C55.0515 42.2718 55.1492 42.0075 55.1403 41.6764C55.1314 41.4325 55.087 41.0926 55.0041 40.657C54.9213 40.2213 54.8354 39.7885 54.7407 39.3586L55.5162 39.1553C55.6198 39.5852 55.7145 40.0383 55.8003 40.5117C55.8861 40.9852 55.9335 41.3656 55.9424 41.6503C55.9513 41.9872 55.8832 42.3096 55.7352 42.6117C55.5872 42.9137 55.3504 43.1635 55.0189 43.3581C54.6875 43.5527 54.2672 43.6486 53.7611 43.6486H52.0178V42.7627V42.7685ZM52.6127 47.0701V46.5705H53.8528V47.5725H52.6127V47.073V47.0701ZM53.1928 45.5307V45.0369H54.871V46.039H53.1928V45.5307Z" fill="#B7B7B7"/>
<path d="M60.6335 46.3468C60.1481 46.0128 59.7811 45.5742 59.5355 45.0282C59.2898 44.4821 59.1685 43.8983 59.1685 43.2739C59.1685 42.8614 59.2336 42.42 59.3608 41.9552C59.4911 41.4905 59.6479 41.0636 59.8373 40.6744L60.5358 41.0287C60.3731 41.3569 60.2369 41.7258 60.1304 42.1295C60.0238 42.5361 59.9705 42.9137 59.9705 43.2681C59.9705 43.7822 60.0593 44.2411 60.2339 44.6419C60.4115 45.0427 60.6779 45.3622 61.0419 45.5975C61.403 45.8327 61.8588 45.9518 62.4093 45.9518H63.0427C63.6376 45.9518 64.1052 45.8792 64.4486 45.7369C64.7919 45.5917 65.0405 45.3709 65.1915 45.0659C65.3424 44.761 65.4164 44.3573 65.4164 43.849L65.4045 35.426H66.2037L66.2155 43.849C66.2155 44.8045 65.958 45.5394 65.446 46.0593C64.934 46.5792 64.1319 46.8377 63.0397 46.8377H62.4064C61.7108 46.8377 61.1189 46.6721 60.6306 46.3381L60.6335 46.3468Z" fill="#B7B7B7"/>
<path d="M68.6572 43.3697C68.3465 43.1809 68.1245 42.9108 67.9854 42.5594C67.8492 42.2079 67.7782 41.7664 67.7782 41.2349L67.7664 35.4347H68.5655L68.5773 41.2349C68.5773 41.6648 68.6128 41.9843 68.6868 42.1905C68.7608 42.3967 68.8881 42.5448 69.0745 42.6349C69.261 42.7249 69.5451 42.7685 69.9329 42.7685H70.1016L70.1667 43.2245L70.1016 43.6543H69.9329C69.3912 43.6543 68.965 43.5585 68.6543 43.3697H68.6572Z" fill="#B7B7B7"/>
<path d="M69.9743 42.7684H70.8001C71.2559 42.7684 71.5903 42.6754 71.8064 42.4895C72.0224 42.3037 72.129 42.0074 72.129 41.6037V39.7913H72.9281V41.7053C72.9281 42.0858 73.0317 42.3559 73.2389 42.5157C73.446 42.6754 73.7213 42.7597 74.0646 42.7684C74.5027 42.7597 74.8282 42.6638 75.0384 42.4837C75.2485 42.3037 75.355 42.0074 75.355 41.6037V39.7913H76.1542V41.7053C76.1542 42.0858 76.2607 42.3559 76.4709 42.5157C76.681 42.6754 76.9592 42.7597 77.3025 42.7684C77.7317 42.7597 78.0395 42.6551 78.226 42.4518C78.4095 42.2485 78.4953 41.9929 78.4775 41.6792C78.4687 41.4352 78.4243 41.0954 78.3414 40.6597C78.2585 40.2241 78.1727 39.7913 78.078 39.3614L78.8653 39.1581C78.96 39.588 79.0488 40.0411 79.1375 40.5145C79.2263 40.9879 79.2707 41.3684 79.2796 41.6531C79.2974 41.9813 79.2352 42.2979 79.0932 42.6028C78.9511 42.9078 78.7291 43.1576 78.4272 43.358C78.1253 43.5555 77.7524 43.6543 77.3055 43.6543C77.0214 43.6543 76.7343 43.5874 76.4472 43.4509C76.1601 43.3173 75.9203 43.1082 75.7309 42.8294C75.5415 43.0995 75.3047 43.3057 75.0206 43.4451C74.7365 43.5845 74.4168 43.6543 74.0646 43.6543C73.7894 43.6543 73.4993 43.5816 73.2004 43.4393C72.9015 43.297 72.6617 43.0937 72.4901 42.8323C72.3006 43.1111 72.0609 43.3173 71.7679 43.4538C71.4749 43.5904 71.1523 43.6572 70.8001 43.6572H69.9743V42.7713V42.7684Z" fill="#B7B7B7"/>
<path d="M82.4939 39.8176V43.454C82.4939 44.1888 82.3666 44.8104 82.1121 45.3158C81.8576 45.8241 81.4846 46.2046 80.9904 46.4631C80.4961 46.7216 79.8953 46.8494 79.1909 46.8494H78.377V45.9635H79.1909C79.7769 45.9635 80.2504 45.8763 80.6175 45.705C80.9845 45.5307 81.2538 45.2606 81.4314 44.8946C81.609 44.5287 81.6948 44.0465 81.6948 43.4569V39.8205H82.4939V39.8176Z" fill="#B7B7B7"/>
<path d="M84.0803 35.4347H84.8794L84.8912 43.6543H84.0921L84.0803 35.4347Z" fill="#B7B7B7"/>
<path d="M92.8469 41.0723C92.8025 41.4092 92.696 41.7258 92.5243 42.0221C92.3171 42.3764 92.0448 42.6523 91.7045 42.8528C91.3641 43.0503 91.0001 43.1519 90.6064 43.1519C90.2128 43.1519 89.8369 43.0474 89.4758 42.8353C89.1414 42.6407 88.872 42.3706 88.6767 42.025C88.4784 41.6793 88.3778 41.3076 88.3748 40.9097C88.3689 40.5117 88.4725 40.14 88.6767 39.7943C88.8128 39.5591 88.9816 39.3558 89.1799 39.1873C89.3782 39.0188 89.6919 38.8271 90.121 38.618C90.5502 38.406 91.1865 38.133 92.03 37.7961L92.3408 38.6325C91.6364 38.8591 91.08 39.0682 90.6745 39.2599C90.269 39.4487 89.979 39.6201 89.7955 39.774C89.6149 39.925 89.4729 40.0877 89.3693 40.2562C89.1621 40.5931 89.1088 40.9358 89.2065 41.2814C89.3042 41.6271 89.5232 41.8972 89.8576 42.0918C90.1832 42.2864 90.5443 42.3387 90.935 42.2515C91.3256 42.1615 91.6394 41.9582 91.8702 41.6358C92.0241 41.415 92.1188 41.1856 92.1484 40.9445C92.178 40.7034 92.1484 40.3549 92.0508 39.8989L92.8262 39.8118C92.8765 40.3171 92.8824 40.7412 92.838 41.0781L92.8469 41.0723ZM93.208 41.2989C93.3382 41.8304 93.5928 42.208 93.9746 42.4316C94.3564 42.6553 94.7944 42.7685 95.2857 42.7685H95.5432L95.5935 43.2129L95.5432 43.6573H95.2857C94.6671 43.6573 94.0841 43.4917 93.5365 43.1635C92.989 42.8353 92.622 42.2893 92.4326 41.5283C92.0892 40.1022 91.743 38.6732 91.3996 37.2471L92.1751 37.0438L93.208 41.2989Z" fill="#B7B7B7"/>
<path d="M95.4128 42.7685H96.8069C97.2538 42.7685 97.5734 42.6668 97.7628 42.4635C97.9523 42.2602 98.0411 41.9988 98.0351 41.6793C98.0263 41.4353 97.9819 41.0955 97.899 40.6598C97.8161 40.2241 97.7303 39.7914 97.6356 39.3615L98.411 39.1582C98.5146 39.5881 98.6093 40.0412 98.6952 40.5146C98.781 40.988 98.8283 41.3685 98.8372 41.6531C98.8461 41.9813 98.778 42.3008 98.636 42.6087C98.4939 42.9166 98.269 43.1693 97.9582 43.361C97.6474 43.5556 97.2656 43.6514 96.8098 43.6514H95.4158V42.7656L95.4128 42.7685ZM97.4906 36.4977H98.1476V37.5985H96.8187V36.4977H97.4906Z" fill="#B7B7B7"/>
<path d="M101.288 43.3697C100.977 43.1809 100.755 42.9108 100.616 42.5594C100.48 42.2079 100.409 41.7664 100.409 41.2349L100.397 35.4347H101.196L101.208 41.2349C101.208 41.6648 101.244 41.9843 101.318 42.1905C101.391 42.3967 101.519 42.5448 101.705 42.6349C101.892 42.7249 102.176 42.7685 102.564 42.7685H102.732L102.797 43.2245L102.732 43.6543H102.564C102.022 43.6543 101.596 43.5585 101.285 43.3697H101.288Z" fill="#B7B7B7"/>
<path d="M102.605 42.7684H102.966C103.191 42.7684 103.375 42.7132 103.523 42.6029C103.668 42.4925 103.768 42.3415 103.819 42.1469L104.233 40.6888C104.413 40.0556 104.692 39.559 105.07 39.2017C105.449 38.8416 105.905 38.6644 106.438 38.6644C106.867 38.6644 107.246 38.7864 107.574 39.0333C107.9 39.2772 108.154 39.6084 108.335 40.0266C108.516 40.4448 108.607 40.895 108.607 41.3743C108.607 41.9755 108.521 42.4635 108.35 42.8439C108.178 43.2244 107.956 43.5004 107.684 43.6746C107.412 43.8489 107.127 43.9331 106.826 43.9331C106.497 43.9331 106.169 43.8692 105.837 43.7356C105.506 43.6049 104.97 43.3551 104.23 42.9834L103.895 42.8178L104.257 42.0336C104.36 42.083 104.458 42.1353 104.553 42.1846C105.257 42.5303 105.751 42.7597 106.029 42.8759C106.308 42.9892 106.574 43.0473 106.823 43.0473C107.133 43.0473 107.373 42.9282 107.545 42.6871C107.716 42.446 107.802 42.0104 107.802 41.3772C107.802 40.8195 107.684 40.3751 107.447 40.0469C107.21 39.7187 106.873 39.5532 106.435 39.5532C106.092 39.5532 105.799 39.6664 105.559 39.8959C105.319 40.1254 105.133 40.4652 105.002 40.9212L104.588 42.3763C104.52 42.629 104.405 42.8527 104.239 43.0473C104.076 43.2419 103.881 43.3929 103.659 43.4975C103.434 43.602 103.203 43.6543 102.96 43.6543H102.599V42.7684H102.605Z" fill="#B7B7B7"/>
<path d="M111.046 43.3697C110.735 43.1809 110.513 42.9108 110.374 42.5594C110.238 42.2079 110.167 41.7664 110.167 41.2349L110.155 35.4347H110.954L110.966 41.2349C110.966 41.6648 111.002 41.9843 111.076 42.1905C111.15 42.3967 111.277 42.5448 111.463 42.6349C111.65 42.7249 111.934 42.7685 112.322 42.7685H112.49L112.556 43.2245L112.49 43.6543H112.322C111.78 43.6543 111.354 43.5585 111.043 43.3697H111.046Z" fill="#B7B7B7"/>
<path d="M112.363 42.7684H113.189C113.645 42.7684 113.979 42.6754 114.195 42.4895C114.411 42.3037 114.518 42.0074 114.518 41.6037V39.7913H115.317V41.7053C115.317 42.0858 115.421 42.3559 115.628 42.5157C115.835 42.6754 116.11 42.7597 116.453 42.7684C116.891 42.7597 117.217 42.6638 117.427 42.4837C117.637 42.3037 117.744 42.0074 117.744 41.6037V39.7913H118.543V41.7053C118.543 42.0858 118.65 42.3559 118.86 42.5157C119.07 42.6754 119.348 42.7597 119.691 42.7684C120.121 42.7597 120.428 42.6551 120.615 42.4518C120.798 42.2485 120.884 41.9929 120.866 41.6792C120.858 41.4352 120.813 41.0954 120.73 40.6597C120.647 40.2241 120.562 39.7913 120.467 39.3614L121.254 39.1581C121.349 39.588 121.438 40.0411 121.526 40.5145C121.615 40.9879 121.66 41.3684 121.668 41.6531C121.686 41.9813 121.624 42.2979 121.482 42.6028C121.34 42.9078 121.118 43.1576 120.816 43.358C120.514 43.5555 120.141 43.6543 119.694 43.6543C119.41 43.6543 119.123 43.5874 118.836 43.4509C118.549 43.3173 118.309 43.1082 118.12 42.8294C117.93 43.0995 117.694 43.3057 117.409 43.4451C117.125 43.5845 116.806 43.6543 116.453 43.6543C116.178 43.6543 115.888 43.5816 115.589 43.4393C115.29 43.297 115.051 43.0937 114.879 42.8323C114.689 43.1111 114.45 43.3173 114.157 43.4538C113.864 43.5904 113.541 43.6572 113.189 43.6572H112.363V42.7713V42.7684Z" fill="#B7B7B7"/>
</svg>
