<svg viewBox="0 0 1024 1024" xmlns="http://www.w3.org/2000/svg"><path d="M768 128c0-23.552-19.115-42.667-42.667-42.667-23.552 0-42.666 19.115-42.666 42.667v64c0 23.552 19.114 42.667 42.666 42.667C748.885 234.667 768 215.552 768 192v-64zm-640 42.667h469.333c23.552 0 42.667 19.114 42.667 42.666V384h42.667v-42.667c0-23.552 19.114-42.666 42.666-42.666 23.552 0 42.667 19.114 42.667 42.666V384h3.925c30.38 0 58.41 16.128 73.728 42.325l81.408 139.563c7.596 13.013 11.607 27.86 11.607 42.965v201.814H851.2c1.408 6.912 2.133 14.037 2.133 21.333 0 58.923-47.744 106.667-106.666 106.667C687.744 938.667 640 890.923 640 832c0-7.296.725-14.42 2.133-21.333H381.867C383.275 817.58 384 824.704 384 832c0 58.923-47.744 106.667-106.667 106.667-58.922 0-106.666-47.744-106.666-106.667 0-7.296.725-14.42 2.133-21.333H85.333V213.333c0-23.552 19.115-42.666 42.667-42.666zM554.667 640h-384v85.333h384zM320 298.667v64h-64V448h64v64h85.333v-64h64v-85.333h-64v-64zM640 640v85.333h213.333V640zm131.925-170.667H640v85.334h181.717zm132.907-247.168l-45.27 45.27c-16.64 16.64-43.647 16.64-60.33 0-16.64-16.683-16.64-43.69 0-60.33l45.27-45.27c16.64-16.683 43.69-16.683 60.33 0 16.683 16.64 16.683 43.69 0 60.33zM938.667 384c23.552 0 42.666-19.115 42.666-42.667 0-23.552-19.114-42.666-42.666-42.666h-64c-23.552 0-42.667 19.114-42.667 42.666C832 364.885 851.115 384 874.667 384h64z"/></svg>