<svg viewBox="0 0 1024 1024" xmlns="http://www.w3.org/2000/svg"><path d="M511.53 170.667h427.137L896 341.333V768c23.552 0 42.667 19.115 42.667 42.667 0 23.552-19.115 42.666-42.667 42.666H128c-23.552 0-42.667-19.114-42.667-42.666C85.333 787.115 104.448 768 128 768V341.333L85.333 170.667h192.47C309.376 144.043 350.165 128 394.667 128c44.5 0 85.29 16.043 116.864 42.667zm61.654 170.666c-15.104 84.907-89.3 149.334-178.517 149.334-89.216 0-163.414-64.427-178.518-149.334h-2.817V768H512V512h213.333v256h85.334V341.333zm-146.517-128h-64v64h-64v64h64v64h64v-64h64v-64h-64z"/></svg>