<svg viewBox="0 0 1024 1024" xmlns="http://www.w3.org/2000/svg"><path d="M85.333 512c0-235.648 191.02-426.667 426.667-426.667 235.648 0 426.667 191.02 426.667 426.667 0 235.648-191.02 426.667-426.667 426.667-235.648 0-426.667-191.02-426.667-426.667zM512 170.667C323.5 170.667 170.667 323.5 170.667 512c0 188.5 152.832 341.333 341.333 341.333 188.5 0 341.333-152.832 341.333-341.333 0-188.5-152.832-341.333-341.333-341.333zm179.67 446.848c31.573 27.392 30.08 68.224 14.25 93.78-15.488 25.09-49.75 44.16-87.424 30.72l-42.667-15.188c-18.05-6.443-29.867-9.046-38.187-10.24-8.406-1.195-15.02-1.238-25.643-1.238-10.624 0-17.237.042-25.643 1.237-8.32 1.194-20.138 3.797-38.186 10.24l-42.666 15.19c-37.675 13.44-71.936-5.633-87.424-30.72-15.787-25.558-17.323-66.39 14.25-93.782 34.86-30.208 97.963-75.82 179.67-75.82s144.81 45.612 179.67 75.82zm-257.45 46.42c37.716-12.586 57.77-12.586 77.78-12.586 20.01 0 40.064 0 77.78 12.586 2.433.81 4.95 1.664 7.553 2.603L640 681.77c9.77 3.457 17.58-9.087 9.77-15.87-1.066-.897-2.09-1.793-3.157-2.69-10.965-9.3-23.765-19.07-38.144-27.86-.982-.598-1.963-1.195-2.902-1.75-26.54-15.7-58.197-27.904-93.568-27.904-35.37 0-67.03 12.203-93.568 27.904-.98.555-1.92 1.152-2.9 1.75-14.38 8.79-27.18 18.56-38.145 27.86q-1.58 1.323-3.158 2.69c-7.81 6.783 0 19.327 9.77 15.87l42.667-15.23c2.602-.94 5.12-1.793 7.552-2.604zM291.924 373.334c54.614 0 106.326 24.576 154.454 69.632l43.775-46.677c-56.235-52.693-122.88-86.955-198.23-86.955v64zm440.15 0c-54.614 0-106.368 24.576-154.454 69.632l-43.775-46.677c56.235-52.693 122.88-86.955 198.23-86.955v64zM373.333 518.4c35.328 0 64-28.672 64-64s-28.672-64-64-64-64 28.672-64 64 28.672 64 64 64zm277.334 0c35.328 0 64-28.672 64-64s-28.672-64-64-64-64 28.672-64 64 28.672 64 64 64z"/></svg>