<svg viewBox="0 0 1024 1024" xmlns="http://www.w3.org/2000/svg"><path d="M267.776 332.373c16.256 17.067 43.264 17.707 60.33 1.45 17.067-16.255 17.707-43.263 1.45-60.33l-85.332-89.6c-16.256-17.066-43.264-17.706-60.33-1.45-17.067 16.256-17.707 43.264-1.45 60.33l85.332 89.6zM98.56 272.043c-17.067 16.256-17.707 43.264-1.45 60.33L237.695 480H561.62c7.68-16.683 21.12-30.165 37.804-37.803-5.632-15.274-6.272-31.957-1.92-47.53h-323.2L158.89 273.493c-16.255-17.066-43.263-17.706-60.33-1.45zM561.62 544c7.68 16.683 21.12 30.165 37.804 37.803-5.632 15.274-6.272 31.957-1.92 47.53h-323.2L158.89 750.507c-16.255 17.066-43.263 17.706-60.33 1.45s-17.707-43.264-1.45-60.33L237.695 544H561.62zm113.964 12.16c-1.58-3.243-2.944-6.613-4.14-10.027h-39.977c-1.963 0-3.883-.17-5.718-.47-2.134-.383-4.225-.938-6.187-1.663-12.97-4.82-22.23-17.323-22.23-32s9.26-27.18 22.23-32c2.005-.725 4.053-1.28 6.186-1.664 1.834-.3 3.754-.47 5.717-.47h39.978c1.195-3.413 2.56-6.783 4.14-10.026l-28.246-28.245c-1.41-1.366-2.647-2.86-3.713-4.395-8.576-12.075-8.406-28.46.597-40.32.94-1.237 1.963-2.432 3.115-3.54 13.31-13.356 34.943-13.356 48.255 0l28.245 28.244c3.243-1.58 6.613-2.944 10.027-4.14v-39.977c0-18.86 15.274-34.134 34.133-34.134 18.86 0 34.133 15.275 34.133 34.134v39.978c3.414 1.195 6.742 2.56 10.027 4.14l28.245-28.246c13.312-13.356 34.944-13.356 48.256 0 13.356 13.31 13.356 34.9 0 48.255l-28.244 28.245c1.536 3.243 2.944 6.613 4.14 10.027h39.977c18.86 0 34.134 15.274 34.134 34.133 0 18.86-15.275 34.133-34.134 34.133h-39.978c-1.195 3.414-2.603 6.784-4.14 10.027l28.246 28.245c13.356 13.312 13.356 34.944 0 48.256-13.31 13.356-34.943 13.356-48.255 0l-28.245-28.244c-3.243 1.58-6.613 2.944-10.027 4.14v39.977c0 18.86-15.274 34.134-34.133 34.134-18.86 0-34.133-15.275-34.133-34.134v-39.978c-3.414-1.195-6.784-2.56-10.027-4.14l-28.245 28.246c-13.312 13.356-34.944 13.356-48.256 0-1.153-1.108-2.177-2.303-3.116-3.54-9.003-11.86-9.173-28.245-.597-40.32 1.066-1.536 2.304-3.03 3.712-4.395zm139.52-41.6c0-25.94-20.992-46.933-46.933-46.933-25.94 0-46.933 20.992-46.933 46.933 0 25.9 20.992 46.933 46.934 46.933 25.942 0 46.934-21.034 46.934-46.933zM267.776 691.627c16.256-17.067 43.264-17.707 60.33-1.45 17.067 16.255 17.707 43.263 1.45 60.33l-85.332 89.6c-16.256 17.066-43.264 17.706-60.33 1.45-17.067-16.256-17.707-43.264-1.45-60.33l85.332-89.6z"/></svg>