<svg viewBox="0 0 1024 1024" xmlns="http://www.w3.org/2000/svg"><path d="M853.12 142.464c-40.107-26.837-94.336-15.232-120.107 25.643l-23.594 37.46c-4.396-6.1-9.303-11.903-14.72-17.364-30.593-30.72-81.75-24.875-104.705 11.946l-86.57 138.965c-5.76 9.258-9.686 19.498-11.65 30.25L476.63 452.95c-26.582 7.935-57.174 18.687-86.017 30.847-35.968 15.19-76.032 35.37-99.498 58.667l-88.704 84.608H128v86.06h74.41c22.017 0 43.18-8.492 59.137-23.68l89.386-85.335.384-.384c10.41-10.41 36.438-25.386 72.534-40.618 34.262-14.422 71.382-26.624 98.134-33.494 18.133-4.65 31.445-19.455 34.688-37.417l19.5-107.478 71.124-114.176c3.456 10.367 3.84 21.717.725 32.554l-20.18 32.085c-12.672 20.095-6.656 46.677 13.355 59.35 20.01 12.713 46.506 6.697 59.178-13.4l105.174-167.08 4.693 3.113-35.285 212.352-148.992 99.627c-23.552 15.787-43.776 36.053-59.478 59.69l-43.22 65.025c-1.068 1.62-1.964 2.9-2.817 4.053-4.992 6.613-19.072 24.875-37.077 44.46-18.602 20.223-38.698 38.953-55.637 49.065-20.608 12.288-56.79 23.638-94.506 32.512-36.31 8.534-68.95 13.654-79.232 15.19-1.494.213-3.072.384-4.864.554-9.727.94-37.717 3.5-64.81 5.89-13.568 1.194-26.837 2.303-37.42 3.114-5.29.427-9.812.725-13.31.94-1.75.127-3.158.212-4.225.255-.81.04-1.237.04-1.365.04V896c8.832 0 37.93-2.432 63.744-4.693 27.35-2.39 55.552-4.992 65.323-5.93 3.072-.257 6.144-.64 9.472-1.11 11.433-1.707 46.676-7.21 86.27-16.512 38.145-9.003 85.803-22.656 118.785-42.326 27.99-16.726 54.912-43.05 74.88-64.77 20.565-22.356 36.48-43.007 42.41-50.857 2.134-2.86 4.054-5.632 5.76-8.192l43.222-65.066c9.43-14.165 21.546-26.325 35.67-35.755l148.99-99.67c19.713-13.184 33.153-34.005 37.036-57.43l35.285-212.35c5.547-33.41-8.96-66.945-37.035-85.76l-4.693-3.116z"/></svg>