<svg viewBox="0 0 1024 1024" xmlns="http://www.w3.org/2000/svg"><path d="M512 298.667c58.923 0 106.667-47.744 106.667-106.667S570.923 85.333 512 85.333 405.333 133.077 405.333 192 453.077 298.667 512 298.667zm-201.9 42.666c14.72-25.514 42.327-42.666 73.9-42.666 31.573 0 59.18 17.152 73.9 42.666h267.433C748.885 341.333 768 360.448 768 384c0 23.552-19.115 42.667-42.667 42.667h-51.54c5.716 13.056 8.874 27.477 8.874 42.666 0 34.902-16.768 65.878-42.667 85.334v67.797l94.976 236.587c9.088 22.742.128 48.683-21.077 60.93-21.207 12.244-48.172 7.04-63.276-12.204l-139.392-177.58-21.205 27.052c-3.926 31.787-25.344 58.155-54.315 69.205l-63.83 81.323c-15.146 19.243-42.11 24.448-63.317 12.203-21.205-12.247-30.165-38.188-21.034-60.93l35.713-89.002c-2.134-7.424-3.243-15.275-3.243-23.38 0-31.404 16.94-58.796 42.197-73.644L384 618.667V469.333c-31.573 0-59.18-17.152-73.9-42.666h-11.433C275.115 426.667 256 407.552 256 384c0-23.552 19.115-42.667 42.667-42.667zm265.9 192c35.328 0 64-28.672 64-64s-28.672-64-64-64-64 28.672-64 64 28.672 64 64 64zm-170.667 256c23.552 0 42.667-19.114 42.667-42.666C448 723.115 428.885 704 405.333 704c-23.552 0-42.666 19.115-42.666 42.667 0 23.552 19.114 42.666 42.666 42.666zM384 426.667c23.552 0 42.667-19.115 42.667-42.667 0-23.552-19.115-42.667-42.667-42.667-23.552 0-42.667 19.115-42.667 42.667 0 23.552 19.115 42.667 42.667 42.667z"/></svg>