<svg viewBox="0 0 1024 1024" xmlns="http://www.w3.org/2000/svg"><path d="M512 341.333c70.7 0 128-57.3 128-128 0-70.698-57.3-128-128-128s-128 57.302-128 128c0 70.7 57.3 128 128 128zm128 309.334v-53.334H384v53.334s6.74 7.85 18.048 18.517c15.872 14.933 40.79 35.328 68.608 46.976 1.024.427 2.005.853 3.03 1.237 12.415 4.864 25.386 7.936 38.314 7.936 16.256 0 32.47-4.82 47.66-11.99 29.737-14.036 55.423-37.12 69.332-51.028C635.99 655.36 640 650.667 640 650.667zM384 466.22c-41.173-2.903-85.504-8.45-136.704-19.116-23.083-4.82-37.888-27.392-33.067-50.475 4.82-23.083 27.39-37.89 50.474-33.067C362.496 383.957 432.17 384 512 384c79.83 0 149.504-.043 247.296-20.437 23.083-4.822 45.653 9.984 50.475 33.066 4.822 23.082-9.983 45.653-33.066 50.474-51.2 10.667-95.53 16.213-136.704 19.115v88.447H384V466.22zm-40.49 421.93c-21.718-65.195-7.937-127.745 31.957-185.43 6.4 5.888 13.91 12.416 22.357 18.944 12.46 9.728 28.715 20.95 47.488 29.91-28.032 40.575-31.915 76.373-20.82 109.61 7.423 22.357-4.652 46.507-27.01 53.973-22.357 7.424-46.506-4.65-53.973-27.008zm244.95-141.57c31.273 42.668 35.924 80.044 24.404 114.604-7.467 22.357 4.608 46.507 26.965 53.973 22.357 7.424 46.55-4.65 53.973-27.008 22.698-68.054 6.656-133.206-37.334-192.982-7.68 7.552-18.05 16.98-30.294 26.496-10.24 7.98-23.04 16.98-37.717 24.917z"/></svg>