<svg viewBox="0 0 1024 1024" xmlns="http://www.w3.org/2000/svg"><path d="M597.333 362.667c0-82.475 66.86-149.334 149.334-149.334S896 280.193 896 362.667 829.14 512 746.667 512c-82.475 0-149.334-66.86-149.334-149.333zm149.334-64c-35.328 0-64 28.672-64 64s28.672 64 64 64 64-28.672 64-64-28.672-64-64-64zM229.76 610.645l18.304-16.896c42.795-39.425 108.672-39.425 151.424 0 48 44.245 48 119.978 0 164.223l-43.69 40.278C331.647 820.566 300.244 832 268.8 832h-72.79c-61.14 0-110.677-49.536-110.677-110.677 0-61.142 49.536-110.678 110.678-110.678zm39.04 136.022c10.923 0 21.42-4.01 29.14-11.136l43.692-40.277c11.35-10.453 11.35-28.33 0-38.784-10.07-9.302-25.643-9.302-35.712 0l-42.837 39.51H196.01c-13.994 0-25.343 11.348-25.343 25.343 0 13.994 11.35 25.344 25.344 25.344zM685.013 548.14c36.907 24.575 55.98 46.72 70.7 64.767l1.578 1.92c11.606 14.208 17.707 21.717 28.203 28.544 2.262.513 4.78.683 8.832.726 3.286 0 6.955-.085 12.16-.256h.427l2.005-.085c6.272-.17 13.91-.384 23.083-.384 57.344 0 106.667 47.787 106.667 106.667 0 25.9-7.936 52.95-27.222 73.942-19.84 21.63-47.83 32.724-79.445 32.724H725.333c-33.536 0-58.368-15.53-74.026-29.867-28.758 13.142-74.07 26.496-139.307 26.496h-42.667V523.05l34.304-6.87h.128l.128-.04.384-.087 1.195-.213c.94-.17 2.176-.384 3.755-.597 3.114-.512 7.424-1.11 12.714-1.622 10.54-1.108 25.217-2.047 42.284-1.407 33.365 1.195 79.616 8.49 120.79 35.926zm163.542 218.153c2.048-2.26 4.778-7.21 4.778-16.256 0-11.05-10.41-21.333-21.333-21.333-7.893 0-14.507.17-20.523.34l-2.048.087c-5.12.13-10.497.3-15.49.3-12.67-.086-25.044-1.28-39.892-6.443l-3.883-1.366-3.54-2.047C719.658 704 704.596 685.355 692.48 670.42l-2.86-3.54c-11.945-14.635-24.873-29.696-51.967-47.744-22.826-15.232-51.242-20.736-76.544-21.675-2.22-.04-4.353-.127-6.443-.127V765.44c53.376-6.784 76.757-24.747 78.506-26.155 23.168-19.797 54.486-9.173 66.048 12.46 0 0 .855 1.62 2.56 3.967 1.708 2.432 4.012 5.29 6.828 7.893 5.675 5.29 11.05 7.766 16.725 7.766H832c11.05 0 15.06-3.413 16.555-5.077z"/></svg>