<svg viewBox="0 0 1024 1024" xmlns="http://www.w3.org/2000/svg"><path d="M512 341.333c-70.7 0-128-57.3-128-128 0-70.698 57.3-128 128-128s128 57.302 128 128c0 70.7-57.3 128-128 128zM512 256c23.552 0 42.667-19.115 42.667-42.667 0-23.552-19.115-42.666-42.667-42.666-23.552 0-42.667 19.114-42.667 42.666C469.333 236.885 488.448 256 512 256zm136.363 84.65l50.133-55.125c9.472-10.453 26.837-3.712 26.837 10.368v429.44c0 34.39-8.15 66.86-22.57 95.66-1.963 7.764-6.016 14.72-11.563 20.138-38.016 58.71-104.064 97.537-179.2 97.537-117.803 0-213.333-95.53-213.333-213.334v-429.44c0-14.08 17.365-20.82 26.837-10.368l50.133 55.126c2.73 2.987 5.504 5.89 8.363 8.662 71.21 68.907 184.79 68.907 256 0 2.86-2.773 5.632-5.675 8.363-8.66zM384 481.41v243.925c0 70.7 57.3 128 128 128 43.776 0 82.432-21.973 105.472-55.51-3.413-20.223-14.464-47.36-34.347-80.426-23.552-39.296-56.234-81.664-91.648-122.624-36.437-42.112-74.88-81.62-107.477-113.365zM640 647.68V454.1c-40.875 22.06-86.272 32.77-131.54 32.215 15.785 16.81 31.828 34.474 47.53 52.608 30.08 34.773 59.52 71.893 84.01 108.757z"/></svg>