<svg viewBox="0 0 1024 1024" xmlns="http://www.w3.org/2000/svg"><path d="M714.667 277.333c53.034 0 96-42.965 96-96 0-53.034-42.966-96-96-96-53.035 0-96 42.966-96 96 0 53.035 42.965 96 96 96zm-54.614 32.3c-4.906-19.713-22.826-32.726-42.325-32.3-42.837.043-118.74 4.65-169.728 106.667-64 128-64 213.333-42.667 256 21.035 42.112 42.752 64.043 64 75.264V896c0 23.552 19.115 42.667 42.667 42.667 23.552 0 42.667-19.115 42.667-42.667V724.267c.085-112.683 16.725-241.58 49.834-285.014l12.8 51.2c4.993 19.926 19.244 36.267 38.316 43.862l96.512 38.613c21.888 8.79 46.72-1.877 55.467-23.765 8.79-21.846-1.878-46.678-23.766-55.424l-86.4-34.604-37.377-149.504zm86.614 368.212c0-5.46 2.005-8.618 5.29-11.22 4.096-3.244 10.283-5.292 16.043-5.292s11.947 2.048 16.043 5.29c3.285 2.604 5.29 5.76 5.29 11.222v228.822c0 17.664 14.336 32 32 32s32-14.336 32-32V677.845c0-26.88-12.458-47.957-29.738-61.525-16.427-12.928-36.907-18.987-55.595-18.987-18.688 0-39.168 6.06-55.595 18.987-17.28 13.568-29.738 34.645-29.738 61.525 0 17.707 14.336 32 32 32s32-14.293 32-32zM174.89 186.795c8.747-15.36 28.29-20.694 43.65-11.904L360.49 256c25.9 14.805 23.85 52.78-3.455 64.725l-29.61 12.928 61.055 32.81c15.573 8.406 21.42 27.777 13.013 43.35-8.362 15.574-27.776 21.42-43.306 13.056l-111.275-59.862c-26.667-14.336-25.088-53.077 2.645-65.195l31.275-13.653-94.037-53.717c-15.36-8.747-20.694-28.288-11.904-43.648zm35.542 251.477c-17.152-4.267-34.517 6.144-38.827 23.296-4.266 17.152 6.144 34.517 23.296 38.827l41.303 10.325-14.123 21.163c-13.91 20.864-2.987 49.237 21.376 55.296l79.445 19.88c17.153 4.268 34.52-6.143 38.828-23.295 4.267-17.152-6.144-34.517-23.296-38.826l-41.3-10.284 14.12-21.205c13.91-20.863 2.945-49.194-21.375-55.295l-79.445-19.883z"/></svg>