<svg viewBox="0 0 1024 1024" xmlns="http://www.w3.org/2000/svg"><path d="M85.333 512c0-235.648 191.02-426.667 426.667-426.667 235.648 0 426.667 191.02 426.667 426.667 0 235.648-191.02 426.667-426.667 426.667-235.648 0-426.667-191.02-426.667-426.667zM512 170.667C323.5 170.667 170.667 323.5 170.667 512c0 188.5 152.832 341.333 341.333 341.333 188.5 0 341.333-152.832 341.333-341.333 0-188.5-152.832-341.333-341.333-341.333zm-107.22 379.69C433.15 529.664 469.503 512 512 512c42.496 0 78.848 17.664 107.22 38.357 28.375 20.736 51.457 46.464 68.225 67.5 18.518 23.167 12.97 51.455-.98 68.01-13.74 16.298-39.852 26.453-65.537 13.61l-42.667-21.333c-18.772-9.344-31.145-13.227-39.977-14.976-8.79-1.75-15.702-1.835-26.283-1.835-10.58 0-17.493.086-26.283 1.835-8.832 1.75-21.205 5.632-39.978 14.976l-42.668 21.333c-25.685 12.843-51.797 2.688-65.536-13.61-13.952-16.555-19.5-44.843-.98-68.01 16.767-21.036 39.85-46.764 68.223-67.5zm-91.692-112.682C322.005 462.38 345.6 480 373.333 480c35.328 0 64-28.672 64-64 0-15.36-5.418-29.483-14.464-40.533l-109.782 62.208zM714.668 416c0 35.328-28.673 64-64 64-35.33 0-64-28.672-64-64s28.67-64 64-64c35.327 0 64 28.672 64 64zM607.615 97.493c20.14-11.776 45.14-11.605 65.152.427l64.47 38.656c42.026 25.26 41.3 86.4-1.366 110.592l-569.26 322.56c-46.847 26.54-103.55-13.1-94.676-66.176l12.33-74.027c3.115-18.773 14.465-35.157 30.89-44.757zM639.7 177.58L166.785 453.42l-3.328 20.01 498.517-282.497z"/></svg>