<svg viewBox="0 0 1024 1024" xmlns="http://www.w3.org/2000/svg"><path d="M375.04 394.667c15.53 16.682 32.94 30.464 52.096 43.136l-3.2 1.792c-23.04 12.63-49.45 27.178-76.245 45.78-21.247-17.194-41.6-37.46-59.605-62.378C241.11 358.017 213.333 266.88 213.333 128h85.334c0 27.392 1.152 52.18 3.328 74.667H555.18c-24.663 16.384-45.313 38.314-60.16 64H311.98c5.588 24.79 12.713 45.866 20.905 64H471.98c-1.75 10.41-2.647 21.077-2.647 32 0 10.922.896 21.59 2.646 32h-96.94zm188.587 234.666c-15.53-16.682-32.94-30.464-52.096-43.178l3.2-1.75c23.04-12.63 49.494-27.136 76.246-45.78 21.248 17.15 41.6 37.46 59.605 62.378 46.977 64.98 74.753 156.16 74.753 294.997H640c0-27.392-1.195-52.14-3.328-74.667H301.995c-2.176 22.528-3.328 47.275-3.328 74.667h-85.334c0-138.837 27.776-230.016 74.752-294.997 45.654-63.147 106.24-96.47 158.166-125.014l2.518-1.366c14.677-8.107 28.715-15.83 41.984-23.765 13.44 25.983 32.683 48.51 55.98 65.833-18.52 11.606-36.865 21.718-54.316 31.318l-2.517 1.366c-45.143 24.832-83.8 46.55-114.86 79.957zm-230.742 64c-8.192 18.134-15.317 39.21-20.906 64h314.708c-5.59-24.79-12.715-45.866-20.907-64zm306.048-521.386c7.34-.854 14.806-1.28 22.4-1.28 21.888 0 42.923 3.67 62.55 10.41.938-16.853 1.45-34.56 1.45-53.077H640c0 15.445-.384 30.08-1.067 43.947zM661.333 512C578.86 512 512 445.14 512 362.667c0-82.475 66.86-149.334 149.333-149.334 82.475 0 149.334 66.86 149.334 149.334 0 25.728-6.486 49.92-17.963 71.04L883.5 524.5l-60.332 60.332-90.795-90.795C711.253 505.515 687.06 512 661.333 512zm0-85.333c35.328 0 64-28.672 64-64s-28.672-64-64-64-64 28.672-64 64 28.672 64 64 64z"/></svg>