<svg viewBox="0 0 1024 1024" xmlns="http://www.w3.org/2000/svg"><path d="M616.704 224.213c-17.11-5.504-29.525-21.59-29.525-40.576 0-23.552 19.028-42.58 42.452-42.58 18.987 0 35.03 12.415 40.49 29.61L712.705 128l46.592 46.72 14.976-15.06c16.597-16.64 43.52-16.64 60.117 0l30.037 30.12c16.554 16.6 16.554 43.564 0 60.204l-15.02 15.06L896 311.765l-43.435 43.52c18.39 4.695 31.958 21.377 31.958 41.26 0 23.51-19.03 42.58-42.496 42.58-19.798 0-36.48-13.61-41.13-32l-91.01 91.223c-42.154 42.24-106.11 49.322-155.562 21.205L404.48 669.74c13.013 14.975 20.864 34.516 20.864 55.935 0 47.018-38.016 85.162-84.95 85.162-1.237 0-2.43-.042-3.67-.085 2.39 6.7 3.67 13.867 3.67 21.376 0 35.285-28.543 63.872-63.7 63.872-27.777 0-51.414-17.792-60.118-42.667-1.195.043-2.39.086-3.627.086-46.89 0-84.95-38.145-84.95-85.164 0-47.06 38.06-85.163 84.95-85.163 17.493 0 33.75 5.29 47.274 14.336 11.605-33.153 43.136-56.96 80.17-56.96 1.025 0 2.05.042 3.115.085L508.287 475.35c-31.36-50.177-25.26-117.12 18.304-160.77zm159.147 87.552l-63.146-63.317-126.037 126.336c-17.45 17.493-17.45 45.824 0 63.317 17.408 17.495 45.696 17.495 63.146 0zm-562.9 477.782c11.733 0 21.247-9.558 21.247-21.29 0-11.777-9.514-21.292-21.248-21.292-11.734 0-21.25 9.515-21.25 21.29 0 11.734 9.516 21.292 21.25 21.292zm148.693-63.872c0-11.776-9.515-21.334-21.248-21.334-11.734 0-21.248 9.56-21.248 21.335 0 11.733 9.514 21.29 21.248 21.29 11.733 0 21.248-9.557 21.248-21.29z"/></svg>