<svg viewBox="0 0 1024 1024" xmlns="http://www.w3.org/2000/svg"><path d="M170.667 128c42.666 0 42.666-.043 42.666-.043v.17l.043 1.28c0 1.238.085 3.158.213 5.676.255 5.12.767 12.586 1.79 21.717 2.135 18.432 6.316 42.667 14.423 67.03 16 47.957 43.008 85.887 89.685 95.445 9.643-4.736 20.01-8.278 30.933-10.454l4.95-1.023c103.382-20.65 209.878-20.65 313.26 0l4.95 1.024c11.433 2.263 22.27 6.06 32.34 11.18 44.032-.94 71.083-34.133 88.107-87.595 8.15-25.685 12.373-51.968 14.55-72.234 1.066-10.026 1.578-18.346 1.834-24.02.13-2.86.214-5.035.214-6.4l.043-1.494v-.3s0 .044 42.666.044c42.667 0 42.667.085 42.667.085v1.024c0 .597-.043 1.407-.043 2.43-.042 2.05-.128 4.908-.298 8.492-.3 7.125-.983 17.152-2.22 29.14-2.517 23.724-7.637 56.108-18.133 89.09-15.318 48.17-46.38 108.543-106.582 134.357 2.816 8.404 4.78 17.193 5.803 26.28l3.328 30.21c8.66 77.95-28.117 153.94-94.635 195.498l-20.99 13.14c-30.635 19.16-52.01 50.092-59.094 85.505l-23.765 118.87c-6.442 32.085-34.645 55.21-67.37 55.21s-60.928-23.125-67.37-55.21l-23.766-118.87c-7.083-35.413-28.46-66.346-59.093-85.504l-20.99-13.142c-66.52-41.557-103.297-117.547-94.636-195.5l3.328-30.207c1.237-10.92 3.84-21.417 7.637-31.316-60.417-29.824-92.118-88.32-108.246-136.747-10.54-31.658-15.7-62.08-18.26-84.31-1.28-11.178-1.92-20.522-2.263-27.22-.17-3.328-.255-6.016-.297-7.894 0-.98-.043-1.75-.043-2.304V128.043s0-.043 42.667-.043zm201.43 263.51l-4.95.98c-17.58 3.5-30.848 18.006-32.854 35.84l-3.328 30.21c-.426 3.625-.64 7.21-.725 10.793h363.52c-.085-3.584-.3-7.168-.725-10.794l-3.328-30.21c-2.006-17.834-15.275-32.34-32.854-35.84l-4.95-.98c-92.33-18.475-187.476-18.475-279.807 0zm-7.98 163.157c6.486 6.613 13.782 12.544 21.888 17.578l20.992 13.142c50.56 31.616 85.846 82.688 97.536 141.14l7.467 37.25 7.467-37.25c11.69-58.452 46.976-109.524 97.536-141.14l20.992-13.142c8.106-5.034 15.402-10.965 21.888-17.578z"/></svg>