<svg viewBox="0 0 1024 1024" xmlns="http://www.w3.org/2000/svg"><path d="M609.707 544c18.005 0 32.597-14.336 32.597-32s-14.592-32-32.597-32c-18.006 0-32.555 14.336-32.555 32s14.55 32 32.555 32zm130.346-32c0 17.664-14.592 32-32.597 32-17.963 0-32.555-14.336-32.555-32s14.593-32 32.556-32c18.005 0 32.597 14.336 32.597 32zM316.5 544c17.964 0 32.556-14.336 32.556-32s-14.592-32-32.555-32c-18.004 0-32.596 14.336-32.596 32s14.592 32 32.597 32zm130.305-32c0 17.664-14.592 32-32.597 32-17.963 0-32.555-14.336-32.555-32s14.592-32 32.555-32c18.005 0 32.597 14.336 32.597 32zm65.152 32c18.006 0 32.598-14.336 32.598-32s-14.592-32-32.598-32c-17.962 0-32.554 14.336-32.554 32s14.592 32 32.554 32zM371.243 711.85c16.34 16.94 15.786 43.99-1.195 60.374l-27.52 26.58c-16.98 16.385-43.947 15.916-60.288-1.023-16.3-16.937-15.787-43.988 1.237-60.372l27.478-26.54c16.98-16.425 43.99-15.956 60.288.983zm123.392 60.374c16.98-16.384 17.536-43.435 1.194-60.373-16.3-16.938-43.307-17.407-60.29-.98l-27.476 26.538c-16.98 16.384-17.536 43.435-1.237 60.373 16.34 16.94 43.306 17.41 60.288 1.025l27.52-26.58zm125.78-60.373c16.342 16.94 15.788 43.99-1.194 60.374l-27.52 26.58c-16.98 16.385-43.945 15.916-60.287-1.023-16.298-16.937-15.786-43.988 1.195-60.372l27.52-26.54c16.98-16.425 43.99-15.956 60.288.983zm123.393 60.374c16.98-16.384 17.536-43.435 1.195-60.373-16.3-16.938-43.307-17.407-60.288-.98l-27.52 26.538C640.213 753.792 639.7 780.843 656 797.78c16.34 16.94 43.307 17.41 60.288 1.025l27.52-26.58zM371.243 588.97c16.34 16.94 15.786 43.99-1.195 60.374l-27.52 26.58c-16.98 16.385-43.947 15.916-60.288-1.023-16.3-16.937-15.787-43.988 1.237-60.372l27.478-26.54c16.98-16.425 43.99-15.956 60.288.983zm123.392 60.374c16.98-16.384 17.536-43.435 1.194-60.373-16.3-16.938-43.307-17.407-60.29-.98l-27.476 26.538c-16.98 16.384-17.536 43.435-1.237 60.373 16.34 16.94 43.306 17.41 60.288 1.025l27.52-26.58zm125.78-60.373c16.342 16.94 15.788 43.99-1.194 60.374l-27.52 26.58c-16.98 16.385-43.945 15.916-60.287-1.023-16.298-16.937-15.786-43.988 1.195-60.372l27.52-26.54c16.98-16.425 43.99-15.956 60.288.983zm123.393 60.374c16.98-16.384 17.536-43.435 1.195-60.373-16.3-16.938-43.307-17.407-60.288-.98l-27.52 26.538C640.213 630.912 639.7 657.963 656 674.9c16.34 16.94 43.307 17.41 60.288 1.025l27.52-26.58zm-372.565-300.16c16.34 16.94 15.786 43.99-1.195 60.373l-27.52 26.582c-16.98 16.383-43.947 15.913-60.288-1.025-16.3-16.94-15.787-43.99 1.237-60.374l27.478-26.537c16.98-16.427 43.99-15.958 60.288.98zm123.392 60.373c16.98-16.384 17.536-43.434 1.194-60.373-16.3-16.94-43.307-17.408-60.29-.98l-27.476 26.537c-16.98 16.385-17.536 43.436-1.237 60.375 16.34 16.938 43.306 17.408 60.288 1.024l27.52-26.583zm125.78-60.373c16.342 16.94 15.788 43.99-1.194 60.373L591.7 436.14c-16.98 16.383-43.945 15.913-60.287-1.025-16.298-16.94-15.786-43.99 1.195-60.374l27.52-26.537c16.98-16.427 43.99-15.958 60.288.98zm123.393 60.373c16.98-16.384 17.536-43.434 1.195-60.373-16.3-16.94-43.307-17.408-60.288-.98l-27.52 26.537c-16.982 16.385-17.494 43.436-1.195 60.375 16.34 16.938 43.307 17.408 60.288 1.024l27.52-26.583zM371.243 226.304c16.34 16.94 15.786 43.99-1.195 60.373l-27.52 26.582c-16.98 16.383-43.947 15.913-60.288-1.025-16.3-16.94-15.787-43.99 1.237-60.374l27.478-26.537c16.98-16.427 43.99-15.958 60.288.98zm123.392 60.373c16.98-16.384 17.536-43.434 1.194-60.373-16.3-16.94-43.307-17.408-60.29-.98l-27.476 26.537c-16.98 16.385-17.536 43.436-1.237 60.375 16.34 16.938 43.306 17.408 60.288 1.024l27.52-26.583zm125.78-60.373c16.342 16.94 15.788 43.99-1.194 60.373L591.7 313.26c-16.98 16.383-43.945 15.913-60.287-1.025-16.298-16.94-15.786-43.99 1.195-60.374l27.52-26.537c16.98-16.427 43.99-15.958 60.288.98zm123.393 60.373c16.98-16.384 17.536-43.434 1.195-60.373-16.3-16.94-43.307-17.408-60.288-.98l-27.52 26.537c-16.982 16.385-17.494 43.436-1.195 60.375 16.34 16.938 43.307 17.408 60.288 1.024l27.52-26.583zM256.768 85.333H770.26c47.148 0 85.335 38.187 85.335 85.334v682.666c0 47.147-38.187 85.334-85.334 85.334H256.77c-47.104 0-85.333-38.187-85.333-85.334V170.667c0-47.147 38.23-85.334 85.333-85.334zm0 85.334v682.666H770.26V170.667z"/></svg>