<svg viewBox="0 0 1024 1024" xmlns="http://www.w3.org/2000/svg"><path d="M384 279.467h73.344c34.347 0 63.19 27.136 63.19 61.866 0 16.683-6.657 31.66-17.41 42.667 10.753 11.008 17.41 25.984 17.41 42.667 0 34.73-28.843 61.866-63.19 61.866H384c-5.077 0-9.984-2.005-13.568-5.632-3.627-3.583-5.632-8.49-5.632-13.567V298.667c0-10.582 8.62-19.2 19.2-19.2zm98.133 61.866c0-12.416-10.538-23.466-24.79-23.466H403.2V364.8h54.144c14.25 0 24.79-11.05 24.79-23.467zm-24.79 61.867H403.2v46.933h54.144c14.25 0 24.79-11.05 24.79-23.466s-10.54-23.467-24.79-23.467zM544 384c0-11.776 9.557-21.333 21.333-21.333h21.334v-21.334c0-11.776 9.557-21.333 21.333-21.333 11.776 0 21.333 9.557 21.333 21.333v21.334h21.334c11.776 0 21.333 9.557 21.333 21.333 0 11.776-9.557 21.333-21.333 21.333h-21.334v21.334c0 11.776-9.557 21.333-21.333 21.333-11.776 0-21.333-9.557-21.333-21.333v-21.334h-21.334C553.557 405.333 544 395.776 544 384zm266.667-163.67v505.643c0 46.763-38.187 84.694-85.334 84.694H640v42.666h-85.333v85.334h-85.334v-85.334H384v-42.666h-85.333c-47.147 0-85.334-37.93-85.334-84.694V220.33c0-46.762 38.187-84.693 85.334-84.693h128l24.15-24.66c33.492-34.177 88.874-34.177 122.367 0l24.15 24.66h128c47.146 0 85.333 37.93 85.333 84.694zm-213.334.64c-22.954 0-44.885-9.215-60.97-25.6l-24.15-24.66c-.042 0-.128-.043-.213-.043h-.213l-24.15 24.704c-16.085 16.385-38.016 25.6-60.97 25.6h-128v359.98c13.78-.043 27.093.042 39.978.127h1.494c32.212.214 61.097.427 88.447-.896 55.04-2.56 100.18-11.092 142.933-35.2 59.69-33.705 113.877-25.983 153.813-7.465V220.97zM298.667 725.334h426.666v-84.48l-.597-.597c-6.656-6.656-16.085-14.763-27.52-21.29-21.59-12.374-49.11-19.243-83.755.34C554.37 652.63 494.21 662.53 432.598 665.43c-29.653 1.407-60.5 1.194-91.733.98h-2.773c-12.97-.085-26.07-.17-39.423-.127z"/></svg>