<svg viewBox="0 0 1024 1024" xmlns="http://www.w3.org/2000/svg"><path d="M430.848 623.7c-7.296-22.4-31.36-34.687-53.76-27.39-22.4 7.295-34.688 31.36-27.392 53.76 11.136 34.303 32.81 64.17 61.995 85.333C440.833 756.608 475.948 768 512 768c23.552 0 42.667-19.115 42.667-42.667 0-23.552-19.115-42.666-42.667-42.666-18.005 0-35.584-5.718-50.176-16.3-14.55-10.58-25.43-25.514-30.976-42.666zM512 111.83l29.483 27.99.17.17.683.64c.555.554 1.323 1.28 2.347 2.303 2.005 1.963 4.906 4.822 8.576 8.534 7.337 7.338 17.705 18.005 30.08 31.445 24.745 26.795 57.812 64.768 90.964 109.525 64.555 87.21 136.363 208.982 136.363 326.443C810.667 775.38 673.323 896 512 896c-161.323 0-298.667-120.62-298.667-277.12 0-117.46 71.808-239.232 136.363-326.443 33.152-44.757 66.22-82.73 90.965-109.525 12.375-13.44 22.743-24.107 30.08-31.445 3.67-3.712 6.572-6.57 8.577-8.534 1.024-1.024 1.792-1.75 2.347-2.304l.683-.64zm-8.66 128.98c-23.255 25.174-54.188 60.758-85.036 102.443C354.86 428.885 298.667 531.2 298.667 618.88c0 102.485 91.904 191.787 213.333 191.787 121.43 0 213.333-89.302 213.333-191.787 0-87.68-56.192-189.995-119.637-275.627-30.848-41.685-61.78-77.27-85.035-102.442-3.028-3.285-5.93-6.4-8.66-9.3-2.73 2.9-5.632 6.015-8.66 9.3z"/></svg>