<svg viewBox="0 0 1024 1024" xmlns="http://www.w3.org/2000/svg"><path d="M467.712 290.56l55.808 135.552c.17.3.256.597.384.896l18.475 44.885c4.48 10.88-.684 23.34-11.607 27.82-10.88 4.522-23.338-.684-27.818-11.606l-13.27-32.086h-83.413l-13.227 32.087c-4.48 10.922-16.938 16.128-27.818 11.605-10.923-4.48-16.128-16.94-11.606-27.82l18.476-44.884c.085-.3.213-.597.34-.896L428.29 290.56c3.285-8.02 11.05-13.227 19.712-13.227 8.66 0 16.427 5.206 19.712 13.227zm4.437 122.795L448 354.688l-24.15 58.667zM548.436 384c0-11.776 9.558-21.333 21.334-21.333h23.297v-21.334c0-11.776 9.557-21.333 21.333-21.333 11.776 0 21.333 9.557 21.333 21.333v21.334h19.37c11.777 0 21.334 9.557 21.334 21.333 0 11.776-9.557 21.333-21.333 21.333h-19.37v21.334c0 11.776-9.558 21.333-21.334 21.333s-21.333-9.557-21.333-21.333v-21.334H569.77c-11.775 0-21.333-9.557-21.333-21.333zm262.23-163.67v505.643c0 46.763-38.187 84.694-85.334 84.694H640v42.666h-85.333v85.334h-85.334v-85.334H384v-42.666h-85.333c-47.147 0-85.334-37.93-85.334-84.694V220.33c0-46.762 38.187-84.693 85.334-84.693h128l24.15-24.66c33.492-34.177 88.874-34.177 122.367 0l24.15 24.66h128c47.146 0 85.333 37.93 85.333 84.694zm-213.334.64c-22.954 0-44.885-9.215-60.97-25.6l-24.15-24.66c-.042 0-.128-.043-.213-.043h-.213l-24.15 24.704c-16.085 16.385-38.016 25.6-60.97 25.6h-128v359.98c13.78-.043 27.093.042 39.978.127h1.494c32.212.214 61.097.427 88.447-.896 55.04-2.56 100.18-11.092 142.933-35.2 59.69-33.705 113.877-25.983 153.813-7.465V220.97zM298.667 725.334h426.666v-84.48l-.597-.597c-6.656-6.656-16.085-14.763-27.52-21.29-21.59-12.374-49.11-19.243-83.755.34C554.37 652.63 494.21 662.53 432.598 665.43c-29.653 1.407-60.5 1.194-91.733.98h-2.773c-12.97-.085-26.07-.17-39.423-.127z"/></svg>