<svg viewBox="0 0 1024 1024" xmlns="http://www.w3.org/2000/svg"><path d="M597.333 220.97c-22.954 0-44.885-9.215-60.97-25.6l-24.15-24.66c-.042 0-.128-.043-.213-.043h-.213l-24.15 24.704c-16.085 16.385-38.016 25.6-60.97 25.6h-128v359.98c13.78-.043 27.093.042 39.978.127h1.494c32.212.214 61.097.427 88.447-.896 55.04-2.56 100.18-11.092 142.933-35.2 59.69-33.705 113.877-25.983 153.813-7.465v-46.848h85.334v235.306c0 46.763-38.187 84.694-85.334 84.694H640v42.666h-85.333v85.334h-85.334v-85.334H384v-42.666h-85.333c-47.147 0-85.334-37.93-85.334-84.694V220.33c0-46.762 38.187-84.693 85.334-84.693h128l24.15-24.66c33.492-34.177 88.874-34.177 122.367 0l24.15 24.66h128c47.146 0 85.333 37.93 85.333 84.694v57.003h-85.334V220.97zm128 419.883l-.597-.597c-6.656-6.656-16.085-14.763-27.52-21.29-21.59-12.374-49.11-19.243-83.755.34C554.37 652.63 494.21 662.53 432.598 665.43c-29.653 1.407-60.5 1.194-91.733.98h-2.773c-12.97-.085-26.07-.17-39.423-.127v59.05h426.666zm-304-361.386c8.064 0 15.232 5.034 18.006 12.586l43.86 119.595c.128.256.213.555.3.81l14.505 39.595c3.67 9.942-1.45 20.992-11.392 24.62-9.94 3.668-20.992-1.452-24.66-11.393l-10.028-27.435H390.74l-10.068 27.435c-3.627 9.94-14.677 15.06-24.62 11.392-9.94-3.627-15.06-14.677-11.433-24.62l14.548-39.593c.085-.257.17-.556.3-.812l43.817-119.595c2.774-7.552 9.984-12.586 18.048-12.586zm16.512 120.02l-16.512-45.055-16.512 45.056zM544 279.468h66.645c32.726 0 59.222 26.496 59.222 59.22 0 15.404-5.888 29.44-15.574 39.98 9.686 10.538 15.574 24.576 15.574 40.02 0 32.684-26.496 59.18-59.222 59.18H544c-5.077 0-9.984-2.006-13.568-5.632-3.627-3.584-5.632-8.49-5.632-13.568v-160c0-10.582 8.62-19.2 19.2-19.2zm87.467 59.22c0-11.52-9.302-20.82-20.822-20.82H563.2v41.6h47.445c11.52 0 20.822-9.302 20.822-20.78zm-20.822 59.18H563.2v41.6h47.445c11.52 0 20.822-9.302 20.822-20.78 0-11.52-9.302-20.82-20.822-20.82zM704 384c0-11.776 9.557-21.333 21.333-21.333h21.334v-21.334c0-11.776 9.557-21.333 21.333-21.333 11.776 0 21.333 9.557 21.333 21.333v21.334h21.334c11.776 0 21.333 9.557 21.333 21.333 0 11.776-9.557 21.333-21.333 21.333h-21.334v21.334c0 11.776-9.557 21.333-21.333 21.333-11.776 0-21.333-9.557-21.333-21.333v-21.334h-21.334C713.557 405.333 704 395.776 704 384z"/></svg>