<svg viewBox="0 0 1024 1024" xmlns="http://www.w3.org/2000/svg"><path d="M597.333 220.97c-22.954 0-44.885-9.215-60.97-25.6l-24.15-24.66s-.128-.043-.213-.043h-.213l-24.15 24.704c-16.085 16.385-38.016 25.6-60.97 25.6h-128v359.98c13.78-.043 27.093.042 39.978.127h1.494c32.212.214 61.097.427 88.447-.896 55.04-2.56 100.18-11.092 142.933-35.2 59.69-33.705 113.877-25.983 153.813-7.465v-46.848h85.334v235.306c0 46.763-38.187 84.694-85.334 84.694H640v42.666h-85.333v85.334h-85.334v-85.334H384v-42.666h-85.333c-47.147 0-85.334-37.93-85.334-84.694V220.33c0-46.762 38.187-84.693 85.334-84.693h128l24.15-24.66c33.492-34.177 88.874-34.177 122.367 0l24.15 24.66h128c47.146 0 85.333 37.93 85.333 84.694v57.003h-85.334V220.97zm128 419.883l-.597-.597c-6.656-6.656-16.085-14.763-27.52-21.29-21.59-12.374-49.11-19.243-83.755.34C554.37 652.63 494.21 662.53 432.598 665.43c-29.653 1.407-60.5 1.194-91.733.98h-2.773c-12.97-.085-26.07-.17-39.423-.127v59.05h426.666zM362.667 298.667c0-11.776 9.557-21.334 21.333-21.334h66.645c33.878 0 61.355 27.478 61.355 61.355 0 22.74-12.416 42.624-30.848 53.205l28.587 57.216c5.29 10.538 1.023 23.38-9.516 28.63-10.54 5.29-23.38 1.023-28.63-9.516L437.462 400h-32.127v58.667c0 11.776-9.557 21.333-21.333 21.333-11.776 0-21.333-9.557-21.333-21.333zm42.666 58.666h45.312c10.326 0 18.688-8.362 18.688-18.645 0-10.325-8.362-18.688-18.688-18.688h-45.312zM576 298.667c0-11.776-9.557-21.334-21.333-21.334-11.776 0-21.334 9.558-21.334 21.334v160c0 11.776 9.558 21.333 21.334 21.333S576 470.443 576 458.667V400h64v58.667c0 11.776 9.557 21.333 21.333 21.333 11.776 0 21.334-9.557 21.334-21.333v-160c0-11.776-9.558-21.334-21.334-21.334S640 286.89 640 298.667v58.666h-64v-58.666zM704 384c0-11.776 9.557-21.333 21.333-21.333h21.334v-21.334c0-11.776 9.557-21.333 21.333-21.333 11.776 0 21.333 9.557 21.333 21.333v21.334h21.334c11.776 0 21.333 9.557 21.333 21.333 0 11.776-9.557 21.333-21.333 21.333h-21.334v21.334c0 11.776-9.557 21.333-21.333 21.333-11.776 0-21.333-9.557-21.333-21.333v-21.334h-21.334C713.557 405.333 704 395.776 704 384z"/></svg>