<svg viewBox="0 0 1024 1024" xmlns="http://www.w3.org/2000/svg"><path d="M682.667 547.37c-49.707-17.578-85.334-64.98-85.334-120.703V256c0-70.7 57.302-128 128-128 70.7 0 128 57.3 128 128v170.667c0 55.722-35.626 103.125-85.333 120.704V686.21c.043 40.533.085 103.51-29.483 156.032-33.706 59.904-98.688 96.427-205.184 96.427-103.552 0-166.1-28.97-201.002-71.638-33.663-41.13-33.663-85.89-33.663-98.69V768c0-2.432.213-4.82.597-7.125C224.384 743.38 170.667 695.893 170.667 640V298.667c0-36.907 19.072-63.446 35.072-78.592 15.87-15.02 34.217-24.576 49.79-30.806 31.702-12.673 69.59-18.603 107.137-18.603 37.546 0 75.434 5.93 107.093 18.602 15.616 6.23 33.963 15.786 49.835 30.805 16 15.146 35.072 41.685 35.072 78.592V640c0 65.877-74.667 120.15-170.667 127.232V768c0 8.96.3 27.82 14.336 44.97 13.1 16 46.55 40.363 134.997 40.363 85.504 0 116.523-27.477 130.816-52.906 17.578-31.232 18.517-72.747 18.517-117.76zM469.333 640V408.235c-25.557 10.154-55.168 15.957-85.333 17.792v255.53c28.672-3.03 51.84-11.86 67.115-22.058 9.258-6.188 14.165-11.82 16.426-15.404 1.068-1.707 1.495-2.816 1.665-3.328.128-.47.128-.683.128-.768zM768 256c0-23.552-19.115-42.667-42.667-42.667-23.552 0-42.666 19.115-42.666 42.667v170.667c0 23.552 19.114 42.666 42.666 42.666 23.552 0 42.667-19.114 42.667-42.666zm-316.885 23.168C432.213 266.58 401.195 256 362.667 256c-38.528 0-69.547 10.58-88.448 23.168-9.26 6.187-14.167 11.82-16.428 15.403-1.067 1.707-1.493 2.817-1.664 3.33-.128.468-.128.68-.128.767 0 18.645 29.952 34.517 71.637 40.32 10.966 1.536 22.742 2.346 35.03 2.346s24.064-.81 35.03-2.346c41.684-5.803 71.636-21.675 71.636-40.32 0-.086 0-.3-.128-.768-.17-.513-.597-1.623-1.664-3.33-2.26-3.583-7.167-9.215-16.425-15.402z"/></svg>