<svg viewBox="0 0 1024 1024" xmlns="http://www.w3.org/2000/svg"><path d="M323.54 323.243c-7.08 7.893-6.697 13.397-4.948 17.62 2.645 6.486 11.605 16.684 31.403 24.62 19.242 7.68 43.605 11.008 67.882 8.576 24.49-2.476 44.33-10.327 56.448-19.8 11.862-9.3 12.672-16.68 12.203-19.967-.555-4.31-4.78-13.61-21.12-22.784l30.933-55.723c26.625 14.976 48.855 38.784 53.08 69.93 4.308 32.256-12.16 60.16-36.183 78.934-23.808 18.603-55.893 29.57-89.045 32.897-33.323 3.37-68.01-.896-97.62-12.758-29.015-11.606-55.04-31.446-66.604-59.52-12.46-30.294-4.48-61.355 16.384-84.694 11.605-12.97 26.54-23.083 42.837-30.55l26.24 58.113c-10.155 4.65-17.366 10.025-21.89 15.103zM288.77 673.11c-2.09.682-5.12 2.047-8.79 4.565l-29.695-39.894c8.704-5.972 18.645-10.836 29.184-13.183 19.413-4.352 40.277.427 52.522 17.92 10.666 15.318 10.75 34.86 6.783 51.712-4.138 17.578-13.312 35.327-25.43 50.39-11.988 14.847-27.39 27.732-44.33 34.644-16.938 6.87-38.656 8.576-55.552-4.907-15.87-12.714-19.24-32.554-17.492-49.365l51.968 3.413c-.256 2.603-.17 4.608.043 6.016.468-.127 1.023-.34 1.62-.553 6.1-2.475 14.55-8.62 22.57-18.56 7.894-9.814 13.355-20.907 15.66-30.55 1.11-4.736 1.28-8.405 1.023-10.965 0-.213-.042-.47-.085-.683zm388.18-332.33c0 72.575-43.817 127.87-93.396 161.108-45.1 30.25-101.675 47.872-161.28 51.157 34.773 40.747 38.443 92.502 31.787 132.14-7.127 42.623-27.564 84.735-56.92 120.362-30.847 37.418-70.57 66.645-113.492 80.98-41.6 13.868-99.968 17.068-147.37-22.442-47.36-39.552-55.083-97.834-49.28-141.568 6.015-45.098 27.178-89.856 58.026-127.232 20.01-24.32 43.35-44.714 68.48-59.946 5.12-3.116 10.325-6.017 15.66-8.748 5.887-2.987 12.287-5.845 19.028-8.49-9.6-4.907-18.816-10.326-27.605-16.214-49.536-33.237-93.398-88.533-93.398-161.11 0-72.575 43.86-127.83 93.397-161.11C270.763 146.05 335.147 128 402.09 128c66.902 0 131.33 18.048 181.462 51.67 49.58 33.28 93.397 88.533 93.397 161.11zM402.092 213.12c-105.13 0-190.293 57.173-190.293 127.66 0 70.527 85.163 127.7 190.294 127.7 105.09 0 190.294-57.173 190.294-127.7 0-70.487-85.205-127.66-190.293-127.66zM257.196 608.213c-16.555 10.07-32.768 24.022-47.062 41.387-44.63 54.187-53.546 120.875-19.882 148.95 33.665 28.074 97.11 6.87 141.74-47.318 42.41-51.5 52.565-114.22 24.618-144.47-1.493-1.578-3.072-3.07-4.736-4.48-20.693-17.28-52.693-15.914-84.608.3-3.37 1.706-6.74 3.583-10.07 5.63zm476.586 56.32c-3.625-.597-6.4-.554-8.233-.298l.17.554c.726 2.005 2.176 4.693 4.694 7.893 5.078 6.4 13.142 12.8 22.57 17.365 9.56 4.65 18.092 6.23 23.553 5.93.555-.042 1.024-.085 1.45-.17-.34-1.11-.98-2.645-2.132-4.565l37.974-21.163c7.253 12.032 11.733 28.203 4.267 43.477-7.935 16.214-24.917 22.7-40.106 23.595-15.19.853-31.36-3.328-45.653-10.24-14.463-6.997-27.647-17.11-36.99-28.885-8.96-11.264-15.788-26.027-13.143-41.387 2.987-17.58 17.024-28.63 33.195-32.3 8.79-2.004 18.005-1.876 26.667-.51l-8.28 40.703zm-163.54 37.59c-13.056-39.638-13.184-91.904 22.955-135.723 36.18-43.82 90.07-56.747 134.186-54.784 44.588 2.005 88.705 18.645 125.313 45.312 23.723 17.28 43.52 38.144 58.112 61.14 2.987 4.695 5.76 9.473 8.32 14.38 22.656 43.392 33.28 108.63-11.477 162.9-3.456 4.183-7.125 8.15-11.05 11.905-37.974 36.438-88.49 45.654-129.92 42.454-42.113-3.328-83.627-19.5-118.486-44.886-36.608-26.665-64.768-62.633-77.952-102.697zm265.515-40.875c-8.875-13.995-21.42-27.435-37.078-38.827-49.024-35.668-110.293-38.4-136.96-6.143-26.624 32.3-8.49 87.382 40.49 123.05 46.55 33.878 104.193 38.06 132.652 10.71 1.535-1.45 2.943-2.986 4.265-4.608 16.384-19.84 15.83-48.342 1.58-75.606-1.494-2.86-3.116-5.717-4.95-8.576zm-132.182-295.34c7.68-26.58 28.8-43.348 51.2-51.24 22.443-7.895 48.683-8.15 73.9-.77 25.258 7.382 47.274 21.76 61.994 40.577 14.677 18.73 23.594 44.33 15.914 70.87-7.68 26.58-28.84 43.348-51.24 51.242-22.444 7.936-48.684 8.15-73.9.768-25.26-7.382-47.232-21.76-61.995-40.576-14.677-18.732-23.594-44.29-15.872-70.87zm95.574 50.177c13.994 4.096 26.624 3.286 35.242.256 8.66-3.07 10.794-7.167 11.263-8.83.47-1.622.896-6.273-4.82-13.526-5.633-7.21-15.873-14.677-29.868-18.773-13.994-4.095-26.624-3.327-35.2-.298-8.704 3.072-10.837 7.21-11.306 8.832-.47 1.62-.855 6.272 4.82 13.525 5.675 7.21 15.872 14.677 29.867 18.815z"/></svg>