<svg viewBox="0 0 1024 1024" xmlns="http://www.w3.org/2000/svg"><path d="M618.667 192c0 58.923-47.744 106.667-106.667 106.667S405.333 250.923 405.333 192 453.077 85.333 512 85.333 618.667 133.077 618.667 192zM171.904 331.093c5.675-22.87 28.8-36.82 51.67-31.19 113.535 28.118 200.277 41.473 286.59 41.43 86.36-.042 174.38-13.568 290.52-41.472 22.91-5.503 45.95 8.577 51.455 31.49 5.503 22.91-8.577 45.95-31.49 51.455-66.26 15.958-125.098 27.69-180.65 34.987v178.005l21.205 297.174c1.707 23.51-16 43.905-39.51 45.57-23.508 1.705-43.903-16-45.61-39.51L560.64 682.666h-97.28L447.872 899.03c-1.664 23.51-22.06 41.215-45.568 39.51-23.51-1.665-41.216-22.06-39.51-45.57L384 595.798V418.26c-55.893-7.21-114.73-19.113-180.907-35.497-22.87-5.675-36.82-28.8-31.19-51.67z"/></svg>