<svg viewBox="0 0 1024 1024" xmlns="http://www.w3.org/2000/svg"><path d="M512 362.667c53.035 0 96-42.966 96-96 0-53.035-42.965-96-96-96s-96 42.965-96 96c0 53.034 42.965 96 96 96zm-194.26 4.522c-21.08-10.54-46.68-2.006-57.217 19.07-10.54 21.08-2.006 46.68 19.072 57.217 19.328 9.686 56.192 23.51 104.405 33.707v329.26c0 25.897 20.992 46.89 46.89 46.89 22.358 0 41.6-15.787 45.995-37.718L512 640l35.115 175.616c4.394 21.93 23.637 37.717 45.994 37.717 25.898 0 46.89-20.992 46.89-46.89v-329.26c48.213-10.196 85.077-24.02 104.405-33.706 21.078-10.538 29.61-36.138 19.072-57.216-10.538-21.076-36.138-29.61-57.216-19.07-22.74 11.35-98.73 38.143-194.26 38.143-95.53 0-171.52-26.794-194.26-38.144z"/></svg>