<svg viewBox="0 0 1024 1024" xmlns="http://www.w3.org/2000/svg"><path d="M725.333 142.507C929.408 260.31 999.34 521.26 881.493 725.333 763.69 929.408 502.74 999.34 298.667 881.493 94.592 763.69 24.66 502.74 142.507 298.667 260.31 94.592 521.26 24.66 725.333 142.507zM216.405 341.333c-94.25 163.243-38.314 372.01 124.928 466.262 163.243 94.25 372.01 38.314 466.262-124.928 94.293-163.243 38.314-372.01-124.928-466.262-163.243-94.25-372.01-38.314-466.262 124.928zM369.237 642.9c16.726-16.64 43.734-16.553 60.374.13 7.083 7.125 19.243 13.78 35.798 18.56 16.128 4.693 33.237 6.613 46.592 6.613 13.355 0 30.464-1.92 46.592-6.614 16.555-4.78 28.715-11.435 35.797-18.56 16.64-16.683 43.647-16.77 60.373-.13 16.682 16.6 16.768 43.607.128 60.332-21.077 21.163-48.34 33.365-72.618 40.363-24.704 7.125-49.835 9.898-70.272 9.898-20.437 0-45.568-2.773-70.272-9.898-24.277-6.998-51.54-19.2-72.62-40.363-16.596-16.725-16.553-43.733.13-60.33zm-64.17-211.37c6.272 10.923 27.818 33.41 57.6 33.41 29.78 0 51.328-22.487 57.6-33.41l55.466 31.915c-12.672 22.06-51.84 65.494-113.066 65.494-61.227 0-100.395-43.436-113.067-65.495l55.467-31.914zm298.666 0c6.272 10.923 27.82 33.41 57.6 33.41 29.782 0 51.328-22.487 57.6-33.41l55.467 31.915c-12.672 22.06-51.84 65.494-113.067 65.494-61.226 0-100.394-43.436-113.066-65.495l55.466-31.914z"/></svg>