<svg viewBox="0 0 1024 1024" xmlns="http://www.w3.org/2000/svg"><path d="M938.667 512c0 235.648-191.02 426.667-426.667 426.667-235.648 0-426.667-191.02-426.667-426.667 0-235.648 191.02-426.667 426.667-426.667 235.648 0 426.667 191.02 426.667 426.667zM781.653 721.323C826.58 663.51 853.333 590.89 853.333 512c0-188.5-152.832-341.333-341.333-341.333-78.89 0-151.51 26.752-209.323 71.68zm-60.33 60.33L242.347 302.677C197.42 360.49 170.667 433.11 170.667 512c0 188.5 152.832 341.333 341.333 341.333 78.89 0 151.51-26.752 209.323-71.68z"/></svg>