<svg viewBox="0 0 1024 1024" xmlns="http://www.w3.org/2000/svg"><path d="M523.435 824.02L576 874.668l52.565-50.262 1.45-1.365C816 644.267 938.668 526.336 938.668 381.653c0-118.144-87.766-210.986-199.467-210.986-34.304 0-67.883 9.173-97.707 25.472-25.045 13.652-47.445 32.297-65.493 54.697-18.048-22.4-40.448-41.045-65.493-54.698-29.824-16.3-63.403-25.473-97.707-25.473-111.7 0-199.467 92.842-199.467 210.986 0 30.123 5.334 59.094 15.403 87.68H85.333v85.334h320l37.846-50.432 84.265 147.456L639.19 512h107.477v-85.333H598.144L539.22 500.31l-86.4-151.21-90.153 120.233h-41.26c-15.914-31.744-22.74-59.99-22.74-87.68C298.667 306.048 352.683 256 412.8 256c35.413 0 72.192 17.877 96.725 48.34L576 386.945l66.475-82.603C667.008 273.878 703.787 256 739.2 256c60.117 0 114.133 50.048 114.133 125.653 0 46.038-18.816 93.654-67.2 156.246-48.256 62.505-118.23 130.303-209.92 218.495-44.928-43.05-84.608-81.28-119.082-116.395H340.054c49.45 55.552 111.53 115.115 182.912 183.595l.47.426z"/></svg>