<svg viewBox="0 0 1024 1024" xmlns="http://www.w3.org/2000/svg"><path d="M640.683 648.363c35.54 0 64.34-28.8 64.34-64.342 0-35.54-28.8-64.34-64.34-64.34-35.542 0-64.342 28.8-64.342 64.34 0 35.543 28.8 64.343 64.343 64.343zm0-225.195c88.832 0 160.853 72.02 160.853 160.853 0 88.833-72.02 160.855-160.853 160.855-88.832 0-160.854-72.022-160.854-160.854 0-88.83 72.02-160.852 160.853-160.852zM544.17 584.02c0 53.335 43.222 96.513 96.513 96.513 53.29 0 96.512-43.178 96.512-96.512 0-53.29-43.222-96.51-96.512-96.51s-96.512 43.22-96.512 96.51zm-72.79-358.825c-138.58 1.578-249.64 115.2-248.105 253.824.213 17.748 14.805 32 32.554 31.785 17.75-.213 32-14.762 31.786-32.512-.427-39.68 11.52-76.544 32.256-107.008l50.09 50.09c12.587 12.588 32.94 12.588 45.526 0 12.544-12.543 12.544-32.938 0-45.482l-50.816-50.816c30.208-21.973 67.285-35.072 107.477-35.54 17.75-.214 32-14.764 31.786-32.513-.213-17.792-14.763-32.043-32.555-31.83zM252.97 632.66c0-40.36 32.726-73.087 73.09-73.087 40.36 0 73.087 32.726 73.087 73.088v45.27c0 40.363-32.726 73.09-73.088 73.09-40.364 0-73.09-32.727-73.09-73.09zm81.835 0c0-4.82-3.925-8.745-8.746-8.745-4.823 0-8.748 3.925-8.748 8.746v45.27c0 4.822 3.925 8.747 8.747 8.747 4.82 0 8.745-3.925 8.745-8.746zM512 85.334c235.648 0 426.667 191.02 426.667 426.667 0 235.648-191.02 426.667-426.667 426.667-235.648 0-426.667-191.02-426.667-426.667 0-235.648 191.02-426.667 426.667-426.667zM149.675 512c0 200.107 162.218 362.325 362.325 362.325S874.325 712.107 874.325 512 712.107 149.675 512 149.675 149.675 311.893 149.675 512z"/></svg>