<svg viewBox="0 0 1024 1024" xmlns="http://www.w3.org/2000/svg"><path d="M331.648 101.717l-87.296 251.05c-57.728 165.89-39.98 348.716 48.512 500.396l21.504 36.864-73.728 43.008-21.504-36.864c-101.035-173.226-121.3-381.994-55.38-571.434l87.295-251.05 80.598 28.03zm360.704 0l87.34 251.05c57.684 165.89 39.935 348.716-48.556 500.396l-21.504 36.864 73.728 43.008 21.504-36.864c101.035-173.226 121.3-381.994 55.424-571.434l-87.34-251.05-80.596 28.03zM554.667 896V678.997L691.5 542.165l-60.332-60.33L512 601.003 392.832 481.835l-60.33 60.33 136.83 136.832V896h85.335zM496.34 128h31.32c70.44 0 106.495 84.395 57.812 135.296l-29.184 30.507 85.504 89.43-46.25 44.244L512 340.097l-83.54 87.38-46.252-44.245 85.504-89.43-29.184-30.506C389.845 212.396 425.898 128 496.34 128zm42.88 91.05c9.73-10.154 2.52-27.05-11.56-27.05h-31.32c-14.08 0-21.29 16.896-11.56 27.05L512 247.51z"/></svg>