<svg viewBox="0 0 1024 1024" xmlns="http://www.w3.org/2000/svg"><path d="M85.333 85.333v768c0 47.147 38.187 85.334 85.334 85.334h768v-85.334h-768v-42.666h50.304c41.217 0 84.48-.768 127.915-6.443 46.294-6.1 114.134-17.963 164.438-41.13 118.57-54.614 191.573-117.035 259.712-235.82 27.562-48.127 43.136-94.89 51.285-139.434l49.365 54.485 63.232-57.3L801.152 235.22l-171.82 106.54 44.972 72.533 65.877-40.832c-6.655 35.927-19.24 73.09-41.215 111.36-58.666 102.4-117.76 153.09-221.312 200.748-37.674 17.365-94.378 28.075-139.818 34.005-37.675 4.95-76.288 5.76-116.864 5.76h-50.303v-640H85.333zM554.667 192H448V85.333h-85.333V192H256v85.333h106.667V384H448V277.333h106.667V192z"/></svg>