<svg viewBox="0 0 1024 1024" xmlns="http://www.w3.org/2000/svg"><path d="M85.333 85.333v768c0 47.147 38.187 85.334 85.334 85.334h768v-85.334h-768v-42.666h50.304c41.217 0 84.48-.768 127.915-6.443 46.294-6.1 114.134-17.963 164.438-41.13 118.57-54.614 191.573-117.035 259.712-235.82 27.562-48.127 43.136-94.89 51.285-139.434l49.365 54.485 63.232-57.3L801.11 235.22 629.29 341.76l45.014 72.533 65.877-40.874c-6.655 35.967-19.24 73.13-41.215 111.4-58.666 102.4-117.76 153.09-221.312 200.748-37.674 17.365-94.378 28.075-139.818 34.005-37.675 4.95-76.288 5.76-116.864 5.76h-50.303v-640H85.333zm188.075 238.934h-.34c0-17.707-.044-24.918-.513-29.184-.256-2.304-.342-2.518-2.646-7.04l-.086-.214C260.95 269.74 256 249.6 256 228.436c0-80.298 70.06-143.104 153.6-143.104 83.5 0 153.6 62.806 153.6 143.104 0 21.206-4.95 41.344-13.824 59.435l-.128.213c-2.304 4.523-2.347 4.694-2.603 6.998-.47 4.266-.512 11.477-.512 29.184h-.17v11.86l.213.044v10.71c0 10.837-10.624 18.347-20.565 22.656-4.99 2.133-9.3 5.76-12.543 10.41-3.243 4.65-5.248 10.198-5.803 16.043-1.707 17.79-4.907 30.72-22.827 30.677l-16.34-.043v-.085H351.103v.084l-16.34.043c-17.92.042-21.12-12.886-22.828-30.678-.555-5.846-2.517-11.393-5.76-16.043-3.243-4.65-7.595-8.278-12.544-10.41-9.94-4.31-20.565-11.82-20.565-22.657v-10.71l.34-.085zm82.86-89.6c-17.665 0-32 14.336-32 32s14.335 32 32 32c17.663 0 32-14.336 32-32s-14.337-32-32-32zm106.665 0c-17.664 0-32 14.336-32 32s14.336 32 32 32 32-14.336 32-32-14.336-32-32-32z"/></svg>