<svg viewBox="0 0 1024 1024" xmlns="http://www.w3.org/2000/svg"><path d="M85.333 85.333v768c0 47.147 38.187 85.334 85.334 85.334h768v-85.334h-768v-42.666h50.304c41.217 0 84.48-.768 127.915-6.443 46.294-6.1 114.134-17.963 164.438-41.13 118.57-54.614 191.573-117.035 259.712-235.82 27.562-48.127 43.136-94.89 51.285-139.434l49.365 54.485 63.232-57.3L801.11 235.22 629.29 341.76l45.014 72.533 65.877-40.874c-6.655 35.967-19.24 73.13-41.215 111.4-58.666 102.4-117.76 153.09-221.312 200.748-37.674 17.365-94.378 28.075-139.818 34.005-37.675 4.95-76.288 5.76-116.864 5.76h-50.303v-640H85.333zm341.334 0c18.858 0 34.133 15.275 34.133 34.134v39.978c3.413 1.195 6.74 2.56 10.027 4.14l28.245-28.29c13.312-13.31 34.944-13.31 48.256 0 13.355 13.356 13.355 34.945 0 48.3l-28.245 28.245c1.578 3.243 2.944 6.613 4.138 10.027h39.98c18.86 0 34.133 15.274 34.133 34.133 0 18.86-15.274 34.133-34.133 34.133h-39.98c-1.193 3.414-2.56 6.784-4.137 10.027l28.245 28.245c13.355 13.312 13.355 34.944 0 48.256-13.312 13.356-34.944 13.356-48.256 0l-28.245-28.244c-3.243 1.58-6.614 2.944-10.027 4.14v39.977c0 18.86-15.275 34.134-34.133 34.134-18.86 0-34.134-15.275-34.134-34.134v-39.978c-3.413-1.195-6.784-2.56-10.026-4.14l-28.246 28.246c-13.31 13.356-34.943 13.356-48.255 0-13.354-13.31-13.354-34.943 0-48.255l28.246-28.245c-1.578-3.243-2.943-6.613-4.138-10.027h-39.98C271.276 290.133 256 274.86 256 256c0-18.86 15.275-34.133 34.133-34.133h39.98c1.194-3.414 2.602-6.784 4.138-10.027l-28.245-28.245c-13.354-13.355-13.354-34.944 0-48.3 13.312-13.31 34.944-13.31 48.256 0l28.247 28.29c3.242-1.58 6.613-2.945 10.026-4.14v-39.978c0-18.86 15.275-34.134 34.134-34.134zM473.77 258.56c0-25.94-20.99-46.933-46.933-46.933-25.898 0-46.933 20.992-46.933 46.933 0 25.9 21.035 46.933 46.933 46.933 25.942 0 46.934-21.034 46.934-46.933z"/></svg>