<svg viewBox="0 0 1024 1024" xmlns="http://www.w3.org/2000/svg"><path d="M85.333 853.333v-768h85.334v495.403l92.97-92.97c10.838 26.922 32.342 48.426 59.264 59.263L170.668 699.263v154.07h768v85.333h-768c-47.147 0-85.334-38.187-85.334-85.334zM750.38 517.248C761.514 534.1 768 554.283 768 576c0 58.923-47.744 106.667-106.667 106.667-58.197 0-105.514-46.592-106.666-104.49L434.645 526.72c21.334-19.5 34.688-47.53 34.688-78.72v-2.133l120.022 51.413c18.944-17.365 44.245-27.947 71.978-27.947 6.827 0 13.526.64 19.968 1.878l61.655-92.458c15.573 23.552 40.277 40.62 69.077 46.037zM682.666 576c0-11.776-9.558-21.333-21.334-21.333S640 564.224 640 576c0 11.776 9.557 21.333 21.333 21.333 11.776 0 21.334-9.557 21.334-21.333zM469.333 445.867V448c0 58.923-47.744 106.667-106.666 106.667C303.744 554.667 256 506.923 256 448s47.744-106.667 106.667-106.667c58.197 0 105.514 46.592 106.666 104.534zM384 448c0-11.776-9.557-21.333-21.333-21.333-11.776 0-21.334 9.557-21.334 21.333 0 11.776 9.558 21.333 21.334 21.333S384 459.776 384 448zm448-21.333c-58.923 0-106.667-47.744-106.667-106.667S773.077 213.333 832 213.333 938.667 261.077 938.667 320 890.923 426.667 832 426.667zm0-85.334c11.776 0 21.333-9.557 21.333-21.333 0-11.776-9.557-21.333-21.333-21.333-11.776 0-21.333 9.557-21.333 21.333 0 11.776 9.557 21.333 21.333 21.333z"/></svg>