<svg viewBox="0 0 1024 1024" xmlns="http://www.w3.org/2000/svg"><path d="M512 938.667c-235.648 0-426.667-191.02-426.667-426.667 0-235.648 191.02-426.667 426.667-426.667 235.648 0 426.667 191.02 426.667 426.667 0 235.648-191.02 426.667-426.667 426.667zm0-85.334c188.5 0 341.333-152.832 341.333-341.333 0-43.99-8.32-85.973-23.466-124.587L245.247 724.95C307.798 803.2 404.054 853.332 512 853.332zm-42.667-356.31v-323.71C300.97 194.302 170.667 337.92 170.667 512c0 49.963 10.71 97.408 29.994 140.16zm85.334-49.236L788.992 312.49c-54.144-75.007-137.984-127.19-234.325-139.178z"/></svg>