<svg viewBox="0 0 1024 1024" xmlns="http://www.w3.org/2000/svg"><path d="M85.333 85.333v768c0 47.147 38.187 85.334 85.334 85.334h768v-85.334h-768V347.99c39.21 5.717 88.96 19.242 128.47 45.695 27.647 18.56 50.986 46.89 70.826 77.184 9.77 14.933 18.304 29.653 25.94 43.22 1.366 2.475 2.774 4.95 4.14 7.425 5.888 10.453 11.733 20.906 16.81 28.8 43.563 68.01 125.995 132.352 230.784 132.352h142.336l-48.34 58.026 65.535 54.614L936.576 640 807.168 484.693l-65.536 54.614 48.34 58.026H647.638c-68.437 0-126.677-42.71-158.933-93.056-3.584-5.59-7.765-13.056-13.483-23.21-1.535-2.774-3.2-5.718-4.99-8.875-7.937-14.037-17.537-30.763-28.886-48.085-22.443-34.22-53.248-73.472-94.72-101.29-56.875-38.102-125.355-54.913-175.957-60.844V85.333H85.333zm520.875 238.934h-.34c0-17.707-.044-24.918-.513-29.184-.256-2.304-.3-2.518-2.603-7.04l-.128-.214c-8.875-18.09-13.824-38.23-13.824-59.393 0-80.298 70.1-143.104 153.6-143.104S896 148.14 896 228.437c0 21.206-4.95 41.344-13.824 59.435l-.128.213c-2.304 4.523-2.347 4.694-2.603 6.998-.47 4.266-.512 11.477-.512 29.184h-.17v11.86l.213.044v10.71c0 10.837-10.624 18.347-20.565 22.656-4.99 2.133-9.3 5.76-12.543 10.41-3.243 4.65-5.248 10.198-5.803 16.043-1.664 17.79-4.907 30.72-22.827 30.677l-16.34-.043v-.085H683.903v.084l-16.34.043c-17.92.042-21.12-12.886-22.828-30.678-.512-5.846-2.517-11.393-5.76-16.043-3.243-4.65-7.595-8.278-12.544-10.41-9.94-4.31-20.565-11.82-20.565-22.657v-10.71l.34-.085zm82.86-89.6c-17.665 0-32 14.336-32 32s14.335 32 32 32c17.663 0 32-14.336 32-32s-14.337-32-32-32zm106.665 0c-17.664 0-32 14.336-32 32s14.336 32 32 32 32-14.336 32-32-14.336-32-32-32z"/></svg>