<svg viewBox="0 0 1024 1024" xmlns="http://www.w3.org/2000/svg"><path d="M85.333 85.333v768c0 47.147 38.187 85.334 85.334 85.334h768v-85.334h-768V683.477c31.36.64 69.93-.554 117.59-13.184 32.895-8.704 63.146-26.794 86.91-41.002 3.97-2.39 7.81-4.693 11.393-6.783 28.245-16.47 47.872-25.174 67.157-25.174 27.18 0 46.208 9.77 72.064 25.984 2.39 1.45 4.823 3.03 7.34 4.65 24.32 15.446 56.533 35.926 99.883 43.18 57.898 9.642 84.18 11.008 157.226 11.178l-48.598 58.368 65.536 54.614L936.576 640 807.168 484.693l-65.536 54.614 48.043 57.685c-70.614-.17-91.478-1.493-142.678-10.027-25.472-4.266-43.605-15.658-69.376-31.872l-6.57-4.096C542.55 533.12 506.156 512 453.718 512c-44.416 0-81.75 20.224-110.165 36.82-4.95 2.86-9.643 5.633-14.123 8.32h-.043c-24.192 14.337-42.667 25.26-62.976 30.68-39.167 10.324-67.157 10.92-95.743 10.196V85.333H85.333zm188.075 238.934h-.34c0-17.707-.044-24.918-.513-29.184-.256-2.304-.342-2.518-2.646-7.04l-.086-.214C260.95 269.74 256 249.6 256 228.436c0-80.298 70.06-143.104 153.6-143.104 83.5 0 153.6 62.806 153.6 143.104 0 21.206-4.95 41.344-13.824 59.435l-.128.213c-2.304 4.523-2.347 4.694-2.603 6.998-.47 4.266-.512 11.477-.512 29.184h-.17v11.86l.213.044v10.71c0 10.837-10.624 18.347-20.565 22.656-4.99 2.133-9.3 5.76-12.543 10.41-3.243 4.65-5.248 10.198-5.803 16.043-1.707 17.79-4.907 30.72-22.827 30.677l-16.34-.043v-.085H351.103v.084l-16.34.043c-17.92.042-21.12-12.886-22.828-30.678-.555-5.846-2.517-11.393-5.76-16.043-3.243-4.65-7.595-8.278-12.544-10.41-9.94-4.31-20.565-11.82-20.565-22.657v-10.71l.34-.085zm82.86-89.6c-17.665 0-32 14.336-32 32s14.335 32 32 32c17.663 0 32-14.336 32-32s-14.337-32-32-32zm106.665 0c-17.664 0-32 14.336-32 32s14.336 32 32 32 32-14.336 32-32-14.336-32-32-32z"/></svg>