<svg viewBox="0 0 1024 1024" xmlns="http://www.w3.org/2000/svg"><path d="M85.333 85.333v768c0 47.147 38.187 85.334 85.334 85.334h768v-85.334h-768V347.99c39.21 5.717 88.96 19.242 128.47 45.695 27.647 18.56 50.986 46.89 70.826 77.184 9.77 14.933 18.304 29.653 25.94 43.22 1.366 2.475 2.774 4.95 4.14 7.425 5.888 10.453 11.733 20.906 16.81 28.8 43.563 68.01 125.995 132.352 230.784 132.352h142.336l-48.34 58.026 65.535 54.614L936.576 640 807.168 484.693l-65.536 54.614 48.34 58.026H647.638c-68.437 0-126.677-42.71-158.933-93.056-3.584-5.59-7.765-13.056-13.483-23.21-1.535-2.774-3.2-5.718-4.99-8.875-7.937-14.037-17.537-30.763-28.886-48.085-22.443-34.22-53.248-73.472-94.72-101.29-56.875-38.102-125.355-54.913-175.957-60.844V85.333H85.333zm674.134 34.134v39.978c3.413 1.195 6.74 2.56 10.026 4.14l28.246-28.29c13.31-13.31 34.943-13.31 48.255 0 13.354 13.356 13.354 34.945 0 48.3L817.75 211.84c1.535 3.243 2.943 6.613 4.138 10.027h39.98C880.724 221.867 896 237.14 896 256c0 18.86-15.275 34.133-34.133 34.133h-39.98c-1.194 3.414-2.602 6.784-4.138 10.027l28.245 28.245c13.354 13.312 13.354 34.944 0 48.256-13.312 13.356-34.944 13.356-48.256 0l-28.247-28.244c-3.242 1.58-6.613 2.944-10.026 4.14v39.977c0 18.86-15.275 34.134-34.134 34.134-18.858 0-34.133-15.275-34.133-34.134v-39.978c-3.413-1.195-6.784-2.56-10.027-4.14l-28.245 28.246c-13.312 13.356-34.944 13.356-48.256 0-13.355-13.31-13.355-34.943 0-48.255l28.245-28.245c-1.578-3.243-2.944-6.613-4.138-10.027H588.8c-18.86 0-34.133-15.274-34.133-34.133 0-18.86 15.274-34.133 34.133-34.133h39.98c1.193-3.414 2.56-6.784 4.137-10.027l-28.245-28.245c-13.355-13.355-13.355-34.944 0-48.3 13.312-13.31 34.944-13.31 48.256 0l28.245 28.29c3.243-1.58 6.614-2.945 10.027-4.14v-39.978c0-18.86 15.275-34.134 34.133-34.134 18.86 0 34.134 15.275 34.134 34.134zm-33.963 186.026c25.94 0 46.933-21.034 46.933-46.933 0-25.94-20.992-46.933-46.933-46.933-25.94 0-46.933 20.992-46.933 46.933 0 25.9 20.993 46.933 46.934 46.933z"/></svg>