<svg viewBox="0 0 1024 1024" xmlns="http://www.w3.org/2000/svg"><path d="M85.333 85.333v768c0 47.147 38.187 85.334 85.334 85.334h768v-85.334h-768V683.477c31.36.64 69.93-.554 117.59-13.184 32.895-8.704 63.146-26.794 86.91-41.002 3.97-2.39 7.81-4.693 11.393-6.783 28.245-16.47 47.872-25.174 67.157-25.174 27.18 0 46.208 9.77 72.064 25.984 2.39 1.45 4.823 3.03 7.34 4.65 24.32 15.446 56.533 35.926 99.883 43.18 57.898 9.642 84.18 11.008 157.226 11.178l-48.598 58.368 65.536 54.614L936.576 640 807.168 484.693l-65.536 54.614 48.043 57.685c-70.614-.17-91.478-1.493-142.678-10.027-25.472-4.266-43.605-15.658-69.376-31.872l-6.57-4.096C542.55 533.12 506.156 512 453.718 512c-44.416 0-81.75 20.224-110.165 36.82-4.907 2.86-9.6 5.633-14.08 8.28l-.085.04c-24.192 14.337-42.667 25.26-62.976 30.68-39.167 10.324-67.157 10.92-95.743 10.196V85.333H85.333zm341.334 0c18.858 0 34.133 15.275 34.133 34.134v39.978c3.413 1.195 6.74 2.56 10.027 4.14l28.245-28.29c13.312-13.31 34.944-13.31 48.256 0 13.355 13.356 13.355 34.945 0 48.3l-28.245 28.245c1.578 3.243 2.944 6.613 4.138 10.027h39.98c18.86 0 34.133 15.274 34.133 34.133 0 18.86-15.274 34.133-34.133 34.133h-39.98c-1.193 3.414-2.56 6.784-4.137 10.027l28.245 28.245c13.355 13.312 13.355 34.944 0 48.256-13.312 13.356-34.944 13.356-48.256 0l-28.245-28.244c-3.243 1.58-6.614 2.944-10.027 4.14v39.977c0 18.86-15.275 34.134-34.133 34.134-18.86 0-34.134-15.275-34.134-34.134v-39.978c-3.413-1.195-6.784-2.56-10.026-4.14l-28.246 28.246c-13.31 13.356-34.943 13.356-48.255 0-13.354-13.31-13.354-34.943 0-48.255l28.246-28.245c-1.578-3.243-2.943-6.613-4.138-10.027h-39.98C271.276 290.133 256 274.86 256 256c0-18.86 15.275-34.133 34.133-34.133h39.98c1.194-3.414 2.602-6.784 4.138-10.027l-28.245-28.245c-13.354-13.355-13.354-34.944 0-48.3 13.312-13.31 34.944-13.31 48.256 0l28.247 28.29c3.242-1.58 6.613-2.945 10.026-4.14v-39.978c0-18.86 15.275-34.134 34.134-34.134zM473.77 258.56c0-25.94-20.99-46.933-46.933-46.933-25.898 0-46.933 20.992-46.933 46.933 0 25.9 21.035 46.933 46.933 46.933 25.942 0 46.934-21.034 46.934-46.933z"/></svg>