<svg viewBox="0 0 1024 1024" xmlns="http://www.w3.org/2000/svg"><path d="M85.333 85.333v768c0 47.147 38.187 85.334 85.334 85.334h768v-85.334h-768V347.99c39.21 5.717 88.96 19.242 128.47 45.695 27.647 18.56 50.986 46.89 70.826 77.184 9.77 14.933 18.304 29.653 25.94 43.22 1.366 2.475 2.774 4.95 4.14 7.425 5.888 10.453 11.733 20.906 16.81 28.8 43.563 68.01 125.995 132.352 230.784 132.352h142.336l-48.34 58.026 65.535 54.614L936.576 640 807.168 484.693l-65.536 54.614 48.34 58.026H647.638c-68.437 0-126.677-42.71-158.933-93.056-3.584-5.59-7.765-13.056-13.483-23.21-1.535-2.774-3.2-5.718-4.99-8.875-7.937-14.037-17.537-30.763-28.886-48.085-22.443-34.22-53.248-73.472-94.72-101.29-56.875-38.102-125.355-54.913-175.957-60.844V85.333H85.333zm704 106.667H896v85.333H789.333V384H704V277.333H597.333V192H704V85.333h85.333V192z"/></svg>