<svg viewBox="0 0 1024 1024" xmlns="http://www.w3.org/2000/svg"><path d="M597.333 170.667C597.333 217.813 559.147 256 512 256s-85.333-38.187-85.333-85.333c0-47.147 38.186-85.334 85.333-85.334s85.333 38.187 85.333 85.334zM384 508.715c-32.81-10.496-54.443-44.416-47.275-80.384l22.187-110.975c2.176-10.88 11.733-18.688 22.827-18.688h257.663c12.757 0 23.722 9.002 26.24 21.504l19.968 99.798c7.425 37.163-13.14 72.405-45.61 86.06v432.64h-85.333v-256h-85.334v256H384v-384h170.667V512H384zm42.667-82.048h170.666V384H426.667zM240.17 291.627c-2.9 3.584-5.503 9.728-5.503 17.706 0 7.98 2.602 14.123 5.504 17.707 2.817 3.54 4.865 3.627 5.163 3.627 17.664 0 32 14.336 32 32s-14.336 32-32 32c-.298 0-2.346.085-5.162 3.626-2.9 3.584-5.503 9.728-5.503 17.707 0 7.98 2.602 14.123 5.504 17.707 2.817 3.54 4.865 3.626 5.163 3.626 17.664 0 32 14.336 32 32s-14.336 32-32 32c-.298 0-2.346.086-5.162 3.627-2.9 3.584-5.503 9.728-5.503 17.707 0 7.978 2.602 14.122 5.504 17.706 2.817 3.542 4.865 3.627 5.163 3.627 17.664 0 32 14.336 32 32s-14.336 32-32 32c-.298 0-2.346.085-5.162 3.627-2.9 3.584-5.503 9.728-5.503 17.706 0 7.98 2.602 14.123 5.504 17.707 2.817 3.54 4.865 3.627 5.163 3.627 17.664 0 32 14.336 32 32s-14.336 32-32 32c-47.53 0-74.666-45.227-74.666-85.334 0-18.304 5.674-37.674 16.34-53.333-10.666-15.66-16.34-35.03-16.34-53.333 0-18.304 5.674-37.675 16.34-53.334-10.666-15.658-16.34-35.03-16.34-53.333 0-18.304 5.674-37.675 16.34-53.333-10.666-15.66-16.34-35.03-16.34-53.334 0-40.106 27.136-85.333 74.666-85.333 17.664 0 32 14.336 32 32s-14.336 32-32 32c-.298 0-2.346.085-5.162 3.627zm543.702 0c2.86 3.584 5.46 9.728 5.46 17.706 0 7.98-2.6 14.123-5.46 17.707-2.86 3.54-4.864 3.627-5.205 3.627-17.664 0-32 14.336-32 32s14.336 32 32 32c.34 0 2.346.085 5.205 3.626 2.86 3.584 5.46 9.728 5.46 17.707 0 7.98-2.6 14.123-5.46 17.707-2.86 3.54-4.864 3.626-5.205 3.626-17.664 0-32 14.336-32 32s14.336 32 32 32c.34 0 2.346.086 5.205 3.627 2.86 3.584 5.46 9.728 5.46 17.707 0 7.978-2.6 14.122-5.46 17.706-2.86 3.542-4.864 3.627-5.205 3.627-17.664 0-32 14.336-32 32s14.336 32 32 32c.34 0 2.346.085 5.205 3.627 2.86 3.584 5.46 9.728 5.46 17.706 0 7.98-2.6 14.123-5.46 17.707-2.86 3.54-4.864 3.627-5.205 3.627-17.664 0-32 14.336-32 32s14.336 32 32 32c47.53 0 74.666-45.227 74.666-85.334 0-18.304-5.674-37.674-16.34-53.333 10.666-15.66 16.34-35.03 16.34-53.333 0-18.304-5.674-37.675-16.34-53.334 10.666-15.658 16.34-35.03 16.34-53.333 0-18.304-5.674-37.675-16.34-53.333 10.666-15.66 16.34-35.03 16.34-53.334 0-40.106-27.136-85.333-74.666-85.333-17.664 0-32 14.336-32 32s14.336 32 32 32c.34 0 2.346.085 5.205 3.627z"/></svg>