<svg viewBox="0 0 1024 1024" xmlns="http://www.w3.org/2000/svg"><path d="M384 384v-85.333h85.333V384h85.334v85.333h-85.334v85.334H384v-85.334h-85.333V384H384zm-85.333 298.667h426.666v-85.334H298.667v85.334zm426.666 128H298.667v-85.334h426.666v85.334zm-94.805-640H768c47.147 0 85.333 38.186 85.333 85.333v597.333c0 47.147-38.186 85.334-85.333 85.334H256c-47.147 0-85.333-38.187-85.333-85.334V256c0-47.147 38.186-85.333 85.333-85.333h134.485c17.707-49.75 64.768-85.334 120.022-85.334 55.296 0 102.357 35.584 120.02 85.334zM256 256v597.333h512V256zm254.507-32.043c31.146 0 31.872-31.146 31.872-31.146 0-33.365-31.873-33.365-31.873-33.365-31.872 0-31.872 31.147-31.872 31.147 0 32.64 31.872 33.365 31.872 33.365z"/></svg>