<svg viewBox="0 0 1024 1024" xmlns="http://www.w3.org/2000/svg"><path d="M204.63 492.885c-17.92-37.632-29.483-75.22-32.897-112.384-.597-6.655-.98-13.268-1.066-19.88-.043-3.585 0-7.17.128-10.753 1.962-55.85 30.762-116.267 71.466-144.384 7.04-4.907 14.252-9.26 21.505-13.056l229.248 212.906V487.552h-5.333m-283.05 5.333h60.245v-5.333m-60.246 5.333l4.82-2.304c-.47-1.023-.98-2.047-1.45-3.028m-3.37 5.333v-5.333H208m56.875 0h5.333V473.9c0-31.447 25.472-56.92 56.917-56.92h37.93c31.404 0 56.876 25.473 56.876 56.92v13.652h5.334m-162.39 0V473.9c0-34.39 27.862-62.252 62.25-62.252h37.932c34.347 0 62.208 27.86 62.208 62.25v13.654m0 0v5.333h60.416v-5.333m0 0V400h62.251c7.51 0 13.61-6.1 13.61-13.653v-37.93c0-7.51-6.1-13.654-13.61-13.654h-62.25v-86.7L475.264 233.3c-46.592-55.38-132.18-75.39-208.213-36.564m0 0L176 360.533c.085 6.486.427 12.97 1.024 19.456 3.285 35.413 14.08 71.38 30.976 107.562m59.05-290.816c-7.338 3.797-14.634 8.15-21.76 13.1-39.04 27.007-67.242 85.673-69.162 140.2l90.923-153.3zm-144.213 151.51c-3.626 109.27 55.68 215.637 133.93 310.1 78.38 94.593 176.47 178.134 251.777 241.75l3.413 2.86 3.456-2.86c75.69-62.89 173.91-146.603 252.246-241.45 78.207-94.763 137.385-201.515 133.503-310.443-2.347-67.542-36.31-143.66-92.118-182.23-89.386-62.208-197.12-53.888-269.525 2.56-9.9 7.68-19.115 16.256-27.52 25.686-8.448-9.43-17.664-18.007-27.563-25.687-72.405-56.362-180.138-64.426-269.482-2.56-55.808 38.57-89.77 114.688-92.118 182.272zm255.83 182.57v5.333H487.68v32.085h-13.61c-34.39 0-62.25 27.86-62.25 62.25v37.93c0 34.39 27.86 62.252 62.25 62.252h13.61v81.493c-63.275-54.74-132.352-118.443-189.824-187.82-24.192-29.225-45.696-58.665-63.616-88.19h79.232V473.898c0-7.51 6.1-13.655 13.653-13.655h37.93c7.51 0 13.612 6.144 13.612 13.654v56.916zM624 492.886v-5.334h-87.723v-38.955h13.654c34.347 0 62.21-27.86 62.21-62.25v-37.93c0-34.39-27.863-62.252-62.21-62.252h-13.653v-38.1l12.416-14.764c46.507-55.21 131.584-75.433 207.275-37.16 7.637 3.924 15.275 8.532 22.74 13.695v.042c39.04 26.966 67.244 85.718 69.164 140.246.17 5.546.17 11.136-.043 16.725-1.153 32.043-8.747 64.683-21.675 97.62-3.03 7.68-6.358 15.36-9.942 23.084H689.195v62.251c0 7.51-6.102 13.61-13.654 13.61h-37.93c-7.51 0-13.61-6.1-13.61-13.61v-56.918zM530.944 616.83h5.333V536.15h39.126v13.653c0 34.346 27.86 62.25 62.208 62.25h37.93c34.39 0 62.252-27.904 62.252-62.25V536.15h52.352c-17.92 29.61-39.424 59.178-63.616 88.49-57.515 69.675-126.848 133.632-190.25 188.117V682.07h-62.209c-7.553 0-13.654-6.102-13.654-13.654v-37.93c0-7.553 6.1-13.654 13.653-13.654h56.874zm-413.44-268.757v-.043q4.31-124.16 94.38-186.453 144.127-99.756 275.84 2.73 13.012 10.154 24.276 22.058 11.22-11.947 24.235-22.06 132.01-102.825 275.84-2.73 90.07 62.294 94.42 186.454 5.12 144.597-134.74 313.984Q687.53 763.99 518.827 904.192l-6.87 5.717-6.826-5.76Q333.27 759.082 252.673 661.76q-139.904-168.917-135.168-313.6V348.075zm10.667.256v.086q-4.65 140.715 132.737 306.56Q340.907 751.53 512 896q167.98-139.563 251.52-240.768 137.3-166.272 132.31-306.816-4.14-118.827-89.814-178.048-137.43-95.66-263.21 2.347-14.593 11.35-26.838 25.088L512 202.24l-4.01-4.437q-12.203-13.696-26.795-25.046-125.568-97.706-263.21-2.39-85.676 59.222-89.814 177.964zm71.638 146.817q-28.373-59.52-33.408-114.176-.94-10.24-1.067-20.31-.042-5.503.128-10.964 3.5-100.053 73.772-148.608 10.71-7.467 22.06-13.397l3.327-1.75 4.18 3.884 12.33-6.4-.597 1.024q117.462-51.243 198.827 45.397l13.653 16.256v83.33h56.875q7.893 0 13.44 5.59 5.547 5.545 5.547 13.396v37.93q0 18.987-18.944 18.987h-51.583v87.552h-5.334v5.334H421.93v-5.335h-5.333V473.9q0-21.377-15.104-36.48-15.104-15.105-36.437-15.105h-37.93q-51.585 0-51.585 51.584v18.985h-5.332v5.334h-65.58v-5.335zm418.86-2.262h-87.724v-49.62h18.987q23.553 0 40.193-16.64 16.682-16.684 16.682-40.278v-37.93q0-23.553-16.682-40.236-16.64-16.68-40.192-16.68h-18.986v-45.356l13.696-16.3q86.485-102.783 213.76-38.44 11.86 6.1 23.168 13.95l.17.13q68.054 47.06 71.467 144.425v.127q.3 8.448-.042 16.982-1.707 47.615-22.06 99.412-4.564 11.563-10.026 23.34l-1.45 3.113h-125.1v56.918q0 7.85-5.546 13.397-5.588 5.547-13.44 5.547h-37.93q-18.943 0-18.943-18.944v-56.918zm10.665 56.918q0 8.277 8.278 8.277h37.93q8.32 0 8.32-8.277V482.22H812.8q4.523-9.943 8.363-19.67 19.712-50.134 21.333-95.915.3-8.235.043-16.342v-.085q-3.244-91.86-66.69-135.808v-.043l-.213-.128q-10.794-7.553-22.058-13.313-119.724-60.544-200.79 35.798l-11.18 13.312v30.805h8.32q27.947 0 47.745 19.797 19.797 19.797 19.797 47.786v37.93q0 67.585-67.54 67.585h-8.32v28.29h87.72v67.583zM432.597 482.22h49.75v-79.532L268.885 204.416 181.375 361.9q.172 8.745.982 17.62 4.48 49.024 29.056 102.7h48.128v-8.32q0-67.585 67.585-67.585h37.93q27.948 0 47.745 19.797 19.797 19.797 19.797 47.787v8.32zm98.347 129.28v-80.684h49.792v18.987q0 23.552 16.683 40.234 16.64 16.64 40.19 16.64h37.93q56.92 0 56.92-56.874v-18.987h67.156l-4.907 8.107q-26.198 43.22-64.086 89.13-70.4 85.29-190.848 188.758l-8.832 7.553v-136.96H474.07q-7.85 0-13.44-5.547-5.547-5.59-5.547-13.44v-37.93q0-7.85 5.546-13.44 5.59-5.547 13.44-5.547h56.874zM384 530.815h109.013v42.752H474.07q-56.918 0-56.918 56.917v37.93q0 23.596 16.683 40.236 16.64 16.683 40.234 16.683h18.943v98.518l-8.832-7.637q-121.3-105.045-190.42-188.5-37.93-45.74-64.085-88.79l-4.95-8.107h83.414V473.9q0-18.945 18.985-18.945h37.93q7.852 0 13.398 5.546Q384 466.05 384 473.9v56.916zM373.333 473.9q0-8.28-8.277-8.28h-37.93q-3.457 0-5.89 2.39-2.43 2.433-2.43 5.89v67.583h-75.01q24.32 38.57 58.156 79.445 66.048 79.7 180.395 179.54V736h-8.278q-27.99 0-47.787-19.797-19.798-19.798-19.798-47.787v-37.93q0-27.99 19.798-47.787 19.797-19.8 47.786-19.8h8.277v-21.417H373.333V473.9zM474.07 622.164q-8.32 0-8.32 8.32v37.93q0 8.32 8.32 8.32h67.54V801.11q113.537-98.433 180.822-179.84 33.835-41.003 58.155-79.787h-37.462v8.32q0 67.54-67.584 67.54h-37.93q-67.54 0-67.54-67.54v-8.32h-28.46v80.682h-67.54zm-196.822-424.49l212.14 196.992h60.543q8.278 0 8.278-8.32v-37.93q0-3.457-2.432-5.89-2.432-2.43-5.845-2.43h-67.583v-90.07l-11.18-13.312q-78.676-93.526-193.92-39.04zm-93.995 129.877l68.65-115.755q-1.79 1.195-3.583 2.432-55.552 38.442-65.067 113.322z"/></svg>