<svg viewBox="0 0 1024 1024" xmlns="http://www.w3.org/2000/svg"><path d="M881.58 138.667h3.753v3.797C891.99 149.974 896 159.83 896 170.667v682.666c0 10.838-4.01 20.694-10.667 28.246v3.753h-3.754C874.026 891.99 864.17 896 853.332 896H170.667c-10.838 0-20.694-4.01-28.203-10.667h-3.797v-3.754C132.01 874.026 128 864.17 128 853.332V170.667c0-10.838 4.01-20.694 10.667-28.203v-3.797h3.797C149.974 132.01 159.83 128 170.667 128h682.666c10.838 0 20.694 4.01 28.246 10.667zm-70.913 74.666H544V320h-85.333v42.667H544V480h53.333v-32c0-29.44 23.894-53.333 53.334-53.333h64c25.77 0 47.274 18.26 52.266 42.58.683 3.5 1.067 7.084 1.067 10.753v32h42.667zm0 330.667H704v-85.333h-42.667V544H544v53.333h32c25.77 0 47.275 18.304 52.267 42.582.682 3.498 1.066 7.082 1.066 10.752v64C629.333 744.107 605.44 768 576 768h-32v42.667h266.667zM480 480v-53.333h-32c-27.605 0-50.347-20.992-53.077-47.872-.17-1.792-.256-3.627-.256-5.462v-64c0-22.1 13.44-41.045 32.554-49.152 6.4-2.687 13.4-4.18 20.78-4.18h32v-42.667H213.333V480H320v85.333h42.667V480zm-53.333 96c0 29.44-23.894 53.333-53.334 53.333h-64C279.893 629.333 256 605.44 256 576v-32h-42.667v266.667H480V704h85.333v-42.667H480V544h-53.333z"/></svg>