<svg viewBox="0 0 1024 1024" xmlns="http://www.w3.org/2000/svg"><path d="M632.917 96.128c18.176 6.144 39.424 16.3 57.344 31.872 13.44-5.205 27.65-8.96 42.37-11.093 79.36-11.478 175.786 29.738 189.31 123.35 12.716 87.807-57.556 152.106-131.796 169.215l-38.357 119.893c12.458 28.715 15.317 40.192 22.954 70.358 3.2 12.672 7.212 28.586 13.1 50.517 12.587 46.592 18.176 97.792 20.693 136.277 1.28 19.5 1.835 36.182 2.048 48.043.087 5.973.13 10.71.13 14.037 0 1.664-.043 2.987-.043 3.883v1.535l-.683 42.668-85.333-1.366.683-42.624V851.755c0-.683.043-1.75.043-3.2 0-2.816-.043-7.083-.128-12.46-.213-10.794-.683-26.11-1.835-43.946-2.39-36.182-7.51-80.982-17.92-119.68-6.912-25.6-11.264-42.753-14.42-55.297-6.486-25.642-8.15-32.384-17.196-53.077l-144.98-64.768L392.83 397.61c-14.805 4.865-30.123 8.363-45.184 10.54-36.565 5.29-73.813 3.285-105.344-7.083-27.35-9.003-71.85-32.47-79.317-83.968-7.424-51.457 28.586-86.615 52.266-103 27.307-18.9 62.464-31.36 98.987-36.65 1.152-.17 2.347-.298 3.5-.47 15.657-22.356 37.503-39.38 58.24-51.54 32.724-19.243 73.13-32.768 116.265-39.04 49.92-7.21 99.67-4.096 140.672 9.728zm92.416 87.595c-14.208 3.925-27.093 10.154-38.058 18.005-3.627 2.603-7.083 5.42-10.283 8.363-2.133 1.963-11.605-2.26-12.032-5.12-.597-4.138-1.792-8.063-3.584-11.818-4.18-8.832-11.563-16.683-21.46-23.253-29.527-19.713-81.495-28.417-138.497-20.14-72.28 10.453-129.11 44.715-139.82 81.237-1.237 4.267-5.035 7.595-9.515 7.638-9.216.042-18.816.725-28.672 2.176-57.77 8.363-101.248 38.4-97.066 67.115 4.138 28.715 54.357 45.227 112.128 36.864 38.4-5.547 70.528-20.694 86.485-38.7 2.26-2.56 5.717-3.882 9.088-3.2 26.07 5.29 57.088 6.102 89.728 1.366 40.747-5.888 76.587-19.37 102.016-36.523 4.01-2.688 22.955 7.168 23.637 11.947 6.74 46.592 59.007 77.568 116.778 69.205 57.77-8.362 99.157-52.906 92.416-99.456-6.74-46.593-59.05-77.57-116.82-69.206-5.463.81-10.796 1.92-15.96 3.328zM663.125 393.77c-3.413 22.273-12.63 43.01-26.368 60.29l43.307 19.37 20.95-65.366c-13.142-3.37-25.942-8.107-37.89-14.293zM499.627 370.9l55.808 41.772c14.55-7.21 23.808-22.016 23.808-38.272v-16.597c-14.934 4.224-30.464 7.51-46.294 9.813-11.18 1.62-22.358 2.688-33.323 3.285zM768 853.334c42.58.683 42.667.683 42.667.683L768 853.333zM277.333 618.667c0 23.552-19.114 42.666-42.666 42.666-23.552 0-42.667-19.114-42.667-42.666C192 595.115 211.115 576 234.667 576c23.552 0 42.666 19.115 42.666 42.667zM384 533.333c23.552 0 42.667-19.114 42.667-42.666C426.667 467.115 407.552 448 384 448c-23.552 0-42.667 19.115-42.667 42.667 0 23.552 19.115 42.666 42.667 42.666zm213.333 85.334c0 23.552 19.115 42.666 42.667 42.666 23.552 0 42.667-19.114 42.667-42.666C682.667 595.115 663.552 576 640 576c-23.552 0-42.667 19.115-42.667 42.667zm-320 106.666c0-23.552-19.114-42.666-42.666-42.666-23.552 0-42.667 19.114-42.667 42.666v85.334C192 857.813 230.187 896 277.333 896h85.334c23.552 0 42.666-19.115 42.666-42.667 0-23.552-19.114-42.666-42.666-42.666h-85.334v-85.334zM384 554.667c23.552 0 42.667 19.114 42.667 42.666v85.334H512c23.552 0 42.667 19.114 42.667 42.666C554.667 748.885 535.552 768 512 768h-85.333c-47.147 0-85.334-38.187-85.334-85.333v-85.334c0-23.552 19.115-42.666 42.667-42.666zm213.333 170.666c0-23.552 19.115-42.666 42.667-42.666 23.552 0 42.667 19.114 42.667 42.666v85.334c0 47.146-38.187 85.333-85.334 85.333H512c-23.552 0-42.667-19.115-42.667-42.667 0-23.552 19.115-42.666 42.667-42.666h85.333v-85.334z"/></svg>