<svg viewBox="0 0 1024 1024" xmlns="http://www.w3.org/2000/svg"><path d="M85.333 512c0-235.648 191.02-426.667 426.667-426.667 235.648 0 426.667 191.02 426.667 426.667 0 235.648-191.02 426.667-426.667 426.667-235.648 0-426.667-191.02-426.667-426.667zM512 170.667C323.5 170.667 170.667 323.5 170.667 512c0 188.5 152.832 341.333 341.333 341.333 188.5 0 341.333-152.832 341.333-341.333 0-188.5-152.832-341.333-341.333-341.333zm-72.96 572.16c22.315 7.552 46.55-4.438 54.1-26.752 12.247-36.182 48.47-59.35 77.313-67.072 28.886-7.723 71.85-5.803 100.566 19.413 17.705 15.573 44.628 13.824 60.2-3.883 15.575-17.706 13.825-44.672-3.88-60.202-57.687-50.687-133.89-49.834-178.945-37.76-45.1 12.075-111.488 49.45-136.107 122.155-7.552 22.358 4.437 46.55 26.752 54.102zM373.333 480c35.328 0 64-28.672 64-64s-28.672-64-64-64-64 28.672-64 64 28.672 64 64 64zm277.334 0c35.328 0 64-28.672 64-64s-28.672-64-64-64-64 28.672-64 64 28.672 64 64 64z"/></svg>