<svg viewBox="0 0 1024 1024" xmlns="http://www.w3.org/2000/svg"><path d="M533.333 85.333c70.742 0 143.02 25.344 188.288 45.824 27.35 12.374 39.255 39.254 35.67 64.256-.47 25.984-6.485 51.584-17.578 75.435-11.563 24.832-28.416 47.147-49.365 65.75-20.95 18.602-45.61 33.194-72.49 43.093-3.116 1.153-6.273 2.262-9.43 3.286 65.962 6.7 130.176 35.37 180.736 85.93l30.165 30.166-437.46 437.46-60.332-60.33 125.78-125.823c-8.02-11.436-14.12-24.15-18.175-37.676-6.1-20.437-7.423-42.07-4.65-63.53 2.817-21.42 9.686-42.497 19.883-62.21 10.198-19.71 23.638-37.972 39.51-53.844 15.872-15.872 34.133-29.355 53.845-39.51 19.712-10.197 40.79-17.066 62.208-19.882 9.045-1.195 18.133-1.62 27.093-1.28-69.547-16.384-145.707 2.56-199.937 56.79l-226.26 226.26-60.332-60.33 226.263-226.26c37.888-37.89 83.37-63.447 131.54-76.716-16.895-2.432-33.535-6.613-49.492-12.5-26.922-9.9-51.54-24.492-72.49-43.095-20.95-18.602-37.803-40.917-49.365-65.75-11.094-23.764-17.067-49.28-17.58-75.22-3.71-25.046 8.193-52.096 35.67-64.512 45.227-20.48 117.547-45.782 188.288-45.782zm137.9 176.896c-40.62 13.994-89.644 25.77-137.9 25.77-48.298 0-97.28-11.776-137.898-25.77 6.485 9.514 14.293 18.474 23.38 26.538 14.72 13.1 32.385 23.637 52.097 30.89 19.712 7.254 40.917 11.01 62.42 11.01 21.505 0 42.71-3.756 62.423-11.01 19.712-7.253 37.376-17.79 52.096-30.89 9.09-8.064 16.897-17.024 23.382-26.54zm-160.64 424.874L637.866 559.83c-7.51-2.09-16.598-2.817-26.88-1.494-10.795 1.408-22.4 5.035-34.09 11.05-11.65 6.06-22.828 14.21-32.684 24.065-9.856 9.857-18.005 21.035-24.02 32.683-6.06 11.648-9.686 23.296-11.094 34.09-1.324 10.284-.6 19.372 1.492 26.88zm22.74-484.437c30.934 0 64.043-6.742 94.294-16-30.25-9.26-63.36-16-94.294-16-30.976 0-64.085 6.74-94.336 16 30.25 9.258 63.36 16 94.336 16z"/></svg>