<svg viewBox="0 0 1024 1024" xmlns="http://www.w3.org/2000/svg"><path d="M449.28 662.613c11.392-11.392 16.128-24.874 18.22-36.224 1.833-10.24 1.833-20.737 1.833-28.075v-.982c0-8.66.086-13.653.81-17.62.3-1.665.64-2.476.77-2.732l-.3.3-45.226-45.227c-11.392 11.392-16.128 24.875-18.22 36.224-1.834 10.24-1.834 20.736-1.834 28.075v.98c0 5.633-5.59 9.303-10.71 6.956-2.73-1.195-5.63-2.517-8.788-3.968-2.134-1.024-4.48-2.048-6.87-3.157-12.5-5.718-28.8-12.886-44.757-16-15.872-3.072-39.68-3.627-58.155 14.89-15.7 15.66-16.34 36.14-14.378 49.792 2.005 14.208 7.637 28.374 13.696 40.448 12.118 24.278 30.123 48.427 43.35 61.654l45.227-45.227c-8.107-8.107-22.102-26.58-31.318-45.013-2.518-5.035 2.133-9.942 7.295-7.766 3.798 1.58 7.98 3.415 12.544 5.463 1.706.81 3.583 1.664 5.46 2.517 10.54 4.864 23.21 10.71 34.433 14.165 6.826 2.134 15.573 4.182 24.832 3.926 9.898-.34 22.144-3.413 32.085-13.397zm267.008-257.237c-15.787 27.392-40.107 45.696-64.683 51.712-.256 3.968-.597 8.02-1.11 12.16-.255 2.048-.34 4.267-.468 6.57-.342 7.126-.726 15.49-5.29 23.595-5.206 9.344-7.425 11.69-17.068 21.334l-42.667-42.667-2.262-2.987v-1.92c1.196-9.813 1.75-24.448 2.05-39.168-18.518-25.898-18.73-67.072 2.175-103.296 26.54-45.91 76.97-66.433 112.683-45.782 35.712 20.608 43.18 74.54 16.64 120.448zM512 938.666C276.352 938.667 85.333 747.65 85.333 512S276.353 85.333 512 85.333c235.648 0 426.667 191.02 426.667 426.667 0 235.648-191.02 426.667-426.667 426.667zm0-85.333c79.02 0 151.808-26.837 209.664-71.936l-479.06-479.06C197.546 360.19 170.666 432.98 170.666 512c0 188.5 152.832 341.333 341.333 341.333zM303.02 242.09l478.89 478.89c44.757-57.77 71.423-130.26 71.423-208.98 0-188.5-152.832-341.333-341.333-341.333-78.72 0-151.21 26.666-208.98 71.424z"/></svg>