<svg viewBox="0 0 1024 1024" xmlns="http://www.w3.org/2000/svg"><path d="M435.755 443.05c-13.952 11.99-26.582 28.673-34.944 45.355-10.538 21.078-36.138 29.61-57.215 19.072-21.078-10.538-29.61-36.138-19.072-57.216 12.97-25.94 32.34-51.967 55.722-71.977 22.87-19.627 53.718-36.95 89.088-36.95C492.885 341.333 512 360.448 512 384c0 23.552-19.115 42.667-42.667 42.667-7.296 0-19.114 4.01-33.578 16.384zm417.578 113.025v.725c48.683 9.9 85.334 52.907 85.334 104.533C938.667 720.256 890.923 768 832 768H192c-58.923 0-106.667-47.744-106.667-106.667 0-50.602 35.2-92.97 82.475-103.893-1.067-187.05 150.57-344.107 342.784-344.107 189.27 0 342.74 153.472 342.74 342.742zm-600.192-1.408H512V640H192c-11.776 0-21.333 9.557-21.333 21.333 0 11.776 9.557 21.334 21.333 21.334h640c11.776 0 21.333-9.558 21.333-21.334S843.776 640 832 640H682.667v-85.333H768c-.768-141.526-115.712-256-257.408-256-143.53 0-256.94 116.608-257.45 256z"/></svg>