<svg viewBox="0 0 1024 1024" xmlns="http://www.w3.org/2000/svg"><path d="M544.17 598.74c17.835-1.492 36.31-14.335 47.062-34.73 15.147-28.714 9.3-61.567-13.013-73.343-22.36-11.776-52.737 1.962-67.884 30.677-10.197 19.37-10.88 40.62-3.37 56.02-.47.855-.897 1.708-1.28 2.647l-11.82 29.953-39.125 8.277c-16.724 3.54-29.737 16.725-33.065 33.493l-5.29 26.795c-2.262 11.563 5.247 22.784 16.81 25.088 11.562 2.26 22.784-5.248 25.045-16.81l5.29-26.795 39.17-8.277c13.993-2.944 25.6-12.757 30.847-26.07l10.624-26.922zm138.54 126.55c-38.913 51.84-100.907 85.377-170.71 85.377-117.845 0-213.333-95.53-213.333-213.334 0-69.845 33.536-131.797 85.376-170.71l2.517-2.56.384.385C422.1 399.018 465.28 384 512 384c117.803 0 213.333 95.53 213.333 213.333 0 46.72-15.018 89.9-40.49 125.056l.384.383zm-88.62-3.2l-39.423-39.423 45.226-45.27 38.87 38.87c14.293-22.87 22.57-49.963 22.57-78.934C661.333 514.86 594.475 448 512 448c-29.013 0-56.064 8.277-78.976 22.57l44.075 44.033-45.27 45.226-44.587-44.587c-15.53 23.552-24.576 51.754-24.576 82.09 0 82.475 66.858 149.334 149.333 149.334 30.293 0 58.54-9.046 82.09-24.576zM640 170.668V256h85.333c70.7 0 128 57.3 128 128v469.333c0 47.147-38.23 85.334-85.333 85.334H256c-47.147 0-85.333-38.187-85.333-85.334V384c0-70.7 57.3-128 128-128H384v-85.333c-23.552 0-42.667-19.115-42.667-42.667 0-23.552 19.115-42.667 42.667-42.667h256c23.552 0 42.667 19.115 42.667 42.667 0 23.552-19.115 42.667-42.667 42.667zm-85.333 0h-85.334v170.666H298.667C275.115 341.333 256 360.448 256 384v469.333h512V384c0-23.552-19.115-42.667-42.667-42.667H554.667z"/></svg>