<svg viewBox="0 0 1024 1024" xmlns="http://www.w3.org/2000/svg"><path d="M384 469.333c11.776 0 21.333-9.557 21.333-21.333 0-11.776-9.557-21.333-21.333-21.333-11.776 0-21.333 9.557-21.333 21.333 0 11.776 9.557 21.333 21.333 21.333zM405.333 576c0 11.776-9.557 21.333-21.333 21.333-11.776 0-21.333-9.557-21.333-21.333 0-11.776 9.557-21.333 21.333-21.333 11.776 0 21.333 9.557 21.333 21.333zm64-106.667c11.776 0 21.334-9.557 21.334-21.333 0-11.776-9.558-21.333-21.334-21.333S448 436.224 448 448c0 11.776 9.557 21.333 21.333 21.333zM490.667 576c0 11.776-9.558 21.333-21.334 21.333S448 587.776 448 576c0-11.776 9.557-21.333 21.333-21.333 11.776 0 21.334 9.557 21.334 21.333zm64-106.667c11.776 0 21.333-9.557 21.333-21.333 0-11.776-9.557-21.333-21.333-21.333-11.776 0-21.334 9.557-21.334 21.333 0 11.776 9.558 21.333 21.334 21.333zM661.333 448c0 11.776-9.557 21.333-21.333 21.333-11.776 0-21.333-9.557-21.333-21.333 0-11.776 9.557-21.333 21.333-21.333 11.776 0 21.333 9.557 21.333 21.333zM554.667 597.333c11.776 0 21.333-9.557 21.333-21.333 0-11.776-9.557-21.333-21.333-21.333-11.776 0-21.334 9.557-21.334 21.333 0 11.776 9.558 21.333 21.334 21.333zM661.333 576c0 11.776-9.557 21.333-21.333 21.333-11.776 0-21.333-9.557-21.333-21.333 0-11.776 9.557-21.333 21.333-21.333 11.776 0 21.333 9.557 21.333 21.333zM512 533.333c11.776 0 21.333-9.557 21.333-21.333 0-11.776-9.557-21.333-21.333-21.333-11.776 0-21.333 9.557-21.333 21.333 0 11.776 9.557 21.333 21.333 21.333zM533.333 640c0 11.776-9.557 21.333-21.333 21.333-11.776 0-21.333-9.557-21.333-21.333 0-11.776 9.557-21.333 21.333-21.333 11.776 0 21.333 9.557 21.333 21.333zM512 405.333c11.776 0 21.333-9.557 21.333-21.333 0-11.776-9.557-21.333-21.333-21.333-11.776 0-21.333 9.557-21.333 21.333 0 11.776 9.557 21.333 21.333 21.333zM618.667 512c0 11.776-9.558 21.333-21.334 21.333S576 523.776 576 512c0-11.776 9.557-21.333 21.333-21.333 11.776 0 21.334 9.557 21.334 21.333zm-21.334 149.333c11.776 0 21.334-9.557 21.334-21.333 0-11.776-9.558-21.333-21.334-21.333S576 628.224 576 640c0 11.776 9.557 21.333 21.333 21.333zM618.667 384c0 11.776-9.558 21.333-21.334 21.333S576 395.776 576 384c0-11.776 9.557-21.333 21.333-21.333 11.776 0 21.334 9.557 21.334 21.333zm-192 149.333c11.776 0 21.333-9.557 21.333-21.333 0-11.776-9.557-21.333-21.333-21.333-11.776 0-21.334 9.557-21.334 21.333 0 11.776 9.558 21.333 21.334 21.333zM448 640c0 11.776-9.557 21.333-21.333 21.333-11.776 0-21.334-9.557-21.334-21.333 0-11.776 9.558-21.333 21.334-21.333S448 628.224 448 640zm-21.333-234.667c11.776 0 21.333-9.557 21.333-21.333 0-11.776-9.557-21.333-21.333-21.333-11.776 0-21.334 9.557-21.334 21.333 0 11.776 9.558 21.333 21.334 21.333zm-64-149.333h298.666C720.256 256 768 303.744 768 362.667v298.666C768 720.256 720.256 768 661.333 768H362.667C303.744 768 256 720.256 256 661.333V362.667C256 303.744 303.744 256 362.667 256zm0 85.333c-11.776 0-21.334 9.558-21.334 21.334v298.666c0 11.776 9.558 21.334 21.334 21.334h298.666c11.776 0 21.334-9.558 21.334-21.334V362.667c0-11.776-9.558-21.334-21.334-21.334zm-85.334-256h469.334c106.026 0 192 85.974 192 192v469.334c0 106.026-85.974 192-192 192H277.333c-106.026 0-192-85.974-192-192V277.333c0-106.026 85.974-192 192-192zm0 85.334c-58.922 0-106.666 47.744-106.666 106.666v469.334c0 58.922 47.744 106.666 106.666 106.666h469.334c58.922 0 106.666-47.744 106.666-106.666V277.333c0-58.922-47.744-106.666-106.666-106.666z"/></svg>