<svg viewBox="0 0 1024 1024" xmlns="http://www.w3.org/2000/svg"><path d="M301.483 85.333h-88.15c-23.552 0-42.666 19.115-42.666 42.667 0 23.552 19.114 42.667 42.666 42.667h45.483l42.667-85.334zm5.034 85.334h37.632l42.666-85.334h-37.632l-42.667 85.334zm162.816 0H391.85l42.667-85.334h34.816c15.53 0 30.123 4.14 42.667 11.435 12.544-7.296 27.136-11.435 42.667-11.435h34.816l42.666 85.334h-77.483V328.15l-85.334-42.667V170.667zm85.334 205.184v37.633l-85.334-42.667v-37.632l85.334 42.667zm-85.334 42.667v37.632l85.334 42.666v-37.632l-85.334-42.667zm0 271.446V503.85l85.334 42.667v143.446C604.373 707.54 640 754.943 640 810.667c0 70.698-57.3 128-128 128s-128-57.302-128-128c0-55.723 35.627-103.126 85.333-120.704zM512 768c-23.552 0-42.667 19.115-42.667 42.667 0 23.552 19.115 42.666 42.667 42.666 23.552 0 42.667-19.114 42.667-42.666C554.667 787.115 535.552 768 512 768zm298.667-597.333h-45.483l-42.667-85.334h88.15c23.552 0 42.666 19.115 42.666 42.667 0 23.552-19.114 42.667-42.666 42.667zm-130.816 0h37.633l-42.667-85.334h-37.632l42.667 85.334z"/></svg>