<svg viewBox="0 0 1024 1024" xmlns="http://www.w3.org/2000/svg"><path d="M170.667 476.885c0 60.843 33.11 102.272 70.784 130.56 18.774 14.08 37.803 24.107 52.225 30.592l.085.043 2.005.896c30.763 13.696 50.603 44.245 50.603 77.952v93.74c0 23.55-19.115 42.665-42.667 42.665-23.593 0-42.665-19.114-42.665-42.666v-93.74l-2.176-.98-.13-.043-.085-.043c-18.474-8.32-43.306-21.332-68.394-40.148-50.26-37.717-104.917-101.675-104.917-198.827 0-188.074 166.57-306.218 341.334-306.218 94.634 0 162.218 47.616 204.5 92.416 21.164 22.442 36.652 44.714 46.85 61.397 5.12 8.405 9.002 15.488 11.647 20.608 1.323 2.56 2.347 4.65 3.072 6.187l.128.256.768 1.707.256.47.085.256v.042c.726 1.58 1.366 3.243 1.878 4.907l70.273 228.395c3.968 12.928 1.578 27.008-6.486 37.888-8.02 10.88-20.778 17.322-34.304 17.322H662.57v115.456c0 23.552-19.07 42.667-42.666 42.667h-97.877v10.027c0 23.552-19.072 42.666-42.667 42.666-23.552 0-42.667-19.114-42.667-42.666V800.64c0-47.147 38.23-85.333 85.334-85.333h55.21v-72.79c0-47.146 38.23-85.333 85.334-85.333h4.993L615.168 386.9c-.3-.64-.725-1.407-1.195-2.345l-.853-1.75-.085-.17.725 1.493.043.085c-1.792-3.498-4.65-8.79-8.62-15.232-7.892-12.927-19.882-30.164-36.052-47.273C536.748 287.36 490.07 256 426.668 256c-142.08 0-256 93.184-256 220.885zm320 205.782c23.552 0 42.666-19.115 42.666-42.667 0-23.552-19.114-42.667-42.666-42.667C467.115 597.333 448 616.448 448 640c0 23.552 19.115 42.667 42.667 42.667zm-85.334-85.334c0 23.552-19.114 42.667-42.666 42.667C339.115 640 320 620.885 320 597.333c0-23.552 19.115-42.666 42.667-42.666 23.552 0 42.666 19.114 42.666 42.666zM746.667 768c23.552 0 42.666-19.115 42.666-42.667 0-23.552-19.114-42.666-42.666-42.666-23.552 0-42.667 19.114-42.667 42.666C704 748.885 723.115 768 746.667 768zM896 640c0 23.552-19.115 42.667-42.667 42.667-23.552 0-42.666-19.115-42.666-42.667 0-23.552 19.114-42.667 42.666-42.667C876.885 597.333 896 616.448 896 640zm-85.333-85.333c23.552 0 42.666-19.115 42.666-42.667 0-23.552-19.114-42.667-42.666-42.667C787.115 469.333 768 488.448 768 512c0 23.552 19.115 42.667 42.667 42.667zm128 213.333c0 23.552-19.115 42.667-42.667 42.667-23.552 0-42.667-19.115-42.667-42.667 0-23.552 19.115-42.667 42.667-42.667 23.552 0 42.667 19.115 42.667 42.667zM896 426.667c23.552 0 42.667-19.115 42.667-42.667 0-23.552-19.115-42.667-42.667-42.667-23.552 0-42.667 19.115-42.667 42.667 0 23.552 19.115 42.667 42.667 42.667z"/></svg>