<svg viewBox="0 0 1024 1024" xmlns="http://www.w3.org/2000/svg"><path d="M512 170.667C323.5 170.667 170.667 323.5 170.667 512c0 188.5 152.832 341.333 341.333 341.333 26.368 0 52.053-2.986 76.672-8.66l68.608 68.607c-45.355 16.427-94.25 25.387-145.28 25.387-235.648 0-426.667-191.02-426.667-426.667 0-235.648 191.02-426.667 426.667-426.667 235.648 0 426.667 191.02 426.667 426.667 0 58.155-11.648 113.58-32.683 164.096L823.98 650.71c18.857-42.37 29.353-89.302 29.353-138.71 0-188.5-152.832-341.333-341.333-341.333zM334.037 348.373c7.894-15.83 27.136-22.23 42.923-14.336l51.712 25.856c54.997 27.52 54.997 106.07 0 133.547l-51.712 25.856c-15.787 7.893-35.03 1.493-42.923-14.293-7.893-15.83-1.493-35.03 14.336-42.966l51.67-25.813c7.85-3.925 7.85-15.147 0-19.072l-51.67-25.856c-15.83-7.893-22.23-27.136-14.336-42.923zm398.592 0c-7.894-15.83-27.137-22.23-42.923-14.336l-51.67 25.856c-55.04 27.52-55.04 106.07 0 133.547l51.67 25.856c15.786 7.893 35.03 1.493 42.922-14.293 7.893-15.83 1.493-35.03-14.337-42.966l-51.67-25.813c-7.85-3.925-7.85-15.147 0-19.072l51.67-25.856c15.83-7.893 22.23-27.136 14.336-42.923zM533.332 544c64.81 0 117.334 52.523 117.334 117.333s-52.523 117.334-117.334 117.334c-64.81 0-117.333-52.523-117.333-117.334C416 596.523 468.523 544 533.333 544zM480 661.333c0 29.44 23.893 53.334 53.333 53.334 29.44 0 53.334-23.894 53.334-53.334 0-29.44-23.894-53.333-53.334-53.333-29.44 0-53.333 23.893-53.333 53.333zm234.283 57.216c7.51-22.358 31.658-34.39 54.016-26.923l77.225 25.813c22.358 7.467 34.39 31.66 26.923 54.016-7.467 22.315-31.616 34.39-53.973 26.923l-77.227-25.815c-22.357-7.51-34.432-31.658-26.965-54.016zm186.24 63.914c6.87-22.57 30.72-35.285 53.248-28.416l13.526 4.14c22.57 6.868 35.243 30.72 28.416 53.247-6.87 22.528-30.72 35.242-53.248 28.373l-13.525-4.096c-22.572-6.87-35.287-30.72-28.417-53.248zm-232.704 21.12c16.895-16.384 43.903-15.957 60.33.94L754.73 832c16.385 16.896 15.958 43.947-.938 60.33-16.94 16.385-43.947 15.958-60.33-.98l-26.625-27.435c-16.384-16.94-15.957-43.947.982-60.33zm99.71 102.955c16.94-16.428 43.947-16 60.33.937l19.97 20.608c16.383 16.896 15.957 43.904-.982 60.33-16.896 16.385-43.904 15.958-60.33-.98L766.59 966.87c-16.427-16.94-15.957-43.947.94-60.33z"/></svg>