<svg viewBox="0 0 1024 1024" xmlns="http://www.w3.org/2000/svg"><path d="M567.893 317.696c1.152-10.837 10.368-19.03 21.29-19.03h148.012c10.965 0 20.138 8.193 21.333 19.03l9.3 85.333c1.41 12.63-8.532 23.637-21.29 23.637H579.884c-12.758 0-22.7-11.008-21.334-23.638l9.343-85.334zM437.503 188.97c1.537-10.495 10.582-18.303 21.25-18.303h408.916c10.666 0 19.67 7.808 21.205 18.304l49.578 341.334c1.835 12.843-8.192 24.363-21.248 24.363H706.09v298.666H426.37V736.896H169.94V512h-20.18c-47.83 0-78.933-50.048-57.557-92.63l63.957-127.23c23.723-47.148 91.392-47.148 115.072 0l63.957 127.23c21.375 42.582-9.73 92.63-57.558 92.63h-21.888v139.563H512.17V768h108.16V554.667H409.174c-13.056 0-23.082-11.52-21.205-24.363zm45.953 280.363h359.467L811.947 256H514.432zm-265.9-93.226c-1.62-3.158-6.1-3.158-7.68 0l-22.313 44.373c-1.45 2.86.64 6.187 3.84 6.187h44.586c3.2 0 5.29-3.328 3.84-6.187z"/></svg>