<svg viewBox="0 0 1024 1024" xmlns="http://www.w3.org/2000/svg"><path d="M717.27 328.235c.938 2.218 1.75 4.522 2.303 6.87L762.71 515.2h102.826c23.552 0 42.667 19.072 42.667 42.667V896H822.87V600.533H781.31l2.603 12.8c10.794 52.907-29.654 102.4-83.627 102.4h-16.81v98.22c0 23.55-19.073 42.666-42.667 42.666H534.53V896h-85.333v-82.048c0-23.552 19.114-42.667 42.666-42.667h106.284v-55.552H584.79c-62.635 0-103.937-65.237-77.1-121.856l14.806-31.274c-51.2-13.398-114.09-32.854-175.06-57.6-56.108-22.784-114.86-51.712-160.855-86.955-2.43 13.824-3.71 28.245-3.71 43.22 0 71.852 33.45 119.084 68.18 149.59 17.622 15.446 35.33 26.37 48.64 33.366 6.614 3.5 11.99 5.973 15.574 7.467 1.792.77 3.115 1.323 3.883 1.622l.81.3c16.982 6.015 28.33 22.143 28.33 40.19V896h-85.332V721.323c-.982-.512-2.006-1.024-3.072-1.58-17.707-9.343-41.344-23.85-65.11-44.756-48-42.155-97.237-111.147-97.237-213.718 0-50.774 11.093-97.75 31.06-139.52 22.316-46.593 55.383-85.974 95.32-116.737C285.738 157.397 347.05 128 436.01 128c100.054 0 171.18 52.395 215.467 101.163 22.23 24.49 38.443 48.81 49.11 67.03 5.376 9.13 9.43 16.852 12.16 22.4 1.408 2.772 2.474 5.034 3.2 6.698.384.81.682 1.494.896 1.963l.298.64zM436.01 213.333c-65.28 0-108.757 19.798-160 59.264-22.527 17.366-41.77 38.06-56.83 61.568 35.028 32.768 93.055 64.427 160.383 91.776 63.53 25.772 129.792 45.612 180.138 58.07l29.74-62.762c.256-.597.555-1.152.853-1.75l39.723-74.88c-.94-1.663-1.92-3.413-2.987-5.205-8.534-14.506-21.42-33.792-38.742-52.864-34.86-38.4-84.78-73.217-152.277-73.217zM700.29 630.4l-12.928-63.317-24.363-101.803L584.79 630.4z"/></svg>