<svg viewBox="0 0 1024 1024" xmlns="http://www.w3.org/2000/svg"><path d="M566.016 141.14l1.024.556 155.307 91.52.725.3 1.664.68c15.488 6.273 28.33 17.153 37.035 30.764H768c70.7 0 128 57.3 128 128v44.672c0 70.7-57.3 128-128 128h-19.584c-22.357 36.053-57.9 58.325-91.904 74.07-21.46 9.855-44.373 18.09-66.09 25.557-5.078 1.748-10.113 3.455-15.02 5.12-7.04 2.43-13.95 4.735-20.735 7.124V896h-85.334V676.565c-8.064-3.03-16.384-6.058-24.96-9.216l-8.704-3.2c-21.035-7.68-43.563-16.13-64.81-26.07-33.452-15.66-69.548-37.547-92.844-72.448H256c-70.7 0-128-57.3-128-128V393.26c0-70.87 57.557-128.215 128.427-128l5.59.04c8.746-13.78 21.63-24.788 37.247-31.103l1.664-.682.725-.3 155.307-91.52 1.024-.554c33.835-17.535 74.197-17.535 108.032 0zm-96.683 444.503v-85.078c-25.514-14.72-42.666-42.325-42.666-73.898 0-47.147 38.186-85.334 85.333-85.334s85.333 38.187 85.333 85.334c0 31.573-17.152 59.178-42.666 73.898v86.742c2.688-.94 5.376-1.835 8.02-2.73 21.42-7.382 40.79-14.422 58.07-22.358 35.158-16.257 53.547-32.812 60.8-53.42 4.438-12.63 7.382-29.056 7.382-50.944V311.723c-1.793-.768-4.055-1.75-6.145-2.86l-1.024-.51-155.86-91.862c-8.747-4.223-19.073-4.223-27.82 0l-155.86 91.862-1.025.512c-2.09 1.11-4.352 2.09-6.144 2.86v146.132c0 21.205 3.287 37.12 8.15 49.408 7.81 19.712 27.52 36.523 63.83 53.504 17.536 8.235 36.992 15.573 57.984 23.296zm341.334-148.01V392.96c0-21.42-15.787-39.168-36.395-42.197v107.093c0 7.552-.256 14.933-.81 22.1 20.99-2.687 37.205-20.607 37.205-42.324zm-597.334-44.374v44.372c0 21.76 16.256 39.68 37.29 42.325-.596-7.168-.895-14.55-.895-22.1V351.06c-20.565 3.03-36.395 20.78-36.395 42.2z"/></svg>