<svg viewBox="0 0 1024 1024" xmlns="http://www.w3.org/2000/svg"><path d="M216.405 341.333c94.25-163.285 303.02-219.22 466.262-124.928 109.91 63.446 171.178 178.816 170.71 297.26 16 28.03 27.69 50.346 35.07 67.028 13.142 29.696 20.438 57.856 21.804 84.523 74.454-192.683-.426-416.213-184.917-522.752C521.26 24.66 260.31 94.592 142.507 298.667 24.66 502.74 94.592 763.647 298.667 881.493c176.597 101.974 395.818 63.318 528-81.237-10.667 3.5-21.93 5.205-33.878 5.205-26.24 0-49.41-8.404-69.547-25.257C616.79 864 465.835 879.488 341.333 807.595c-163.242-94.25-219.178-303.02-124.928-466.262zm576.384 407.21c21.333 0 39.594-7.295 54.783-21.887 15.19-14.592 22.784-32.128 22.784-52.608 0-16.768-4.82-34.645-14.506-53.59-9.727-18.943-30.72-50.773-63.06-95.487-32.3 44.715-53.334 76.545-63.02 95.49-9.685 18.943-14.55 36.82-14.55 53.588 0 20.48 7.596 38.016 22.785 52.608 15.19 14.592 33.45 21.888 54.784 21.888zm-417.11-2.218c19.627 13.1 46.123 7.766 59.18-11.818 17.45-26.198 51.753-37.334 77.14-37.334s59.69 11.136 77.14 37.334c13.057 19.584 39.553 24.917 59.18 11.818 19.584-13.056 24.875-39.552 11.82-59.178C621.31 628.864 554.196 611.84 512 611.84c-42.197 0-109.27 17.024-148.14 75.307-13.055 19.626-7.764 46.122 11.82 59.178zm19.584-339.328c-1.28 6.57-5.504 18.944-13.568 30.422-7.85 11.177-17.92 19.625-30.677 23.04-12.76 3.412-25.73 1.15-38.145-4.61-12.672-5.93-22.528-14.506-26.923-19.583l-48.256 42.07c9.77 11.178 26.667 25.514 48.17 35.54 21.803 10.112 50.475 16.768 81.707 8.406 31.232-8.363 52.736-28.46 66.518-48.128 13.654-19.414 21.12-40.278 23.98-54.87l-62.806-12.288zm233.472 0c1.28 6.57 5.504 18.944 13.568 30.422 7.85 11.177 17.963 19.625 30.677 23.04 12.76 3.412 25.73 1.15 38.145-4.61 12.672-5.93 22.528-14.506 26.923-19.583l48.256 42.07c-9.77 11.178-26.667 25.514-48.17 35.54-21.803 10.112-50.475 16.768-81.707 8.406-31.232-8.363-52.736-28.46-66.518-48.128-13.654-19.414-21.12-40.278-23.98-54.87l62.806-12.288z"/></svg>