<svg viewBox="0 0 1024 1024" xmlns="http://www.w3.org/2000/svg"><path d="M550.7 213.333c-102.487 0-187.265 67.926-210.775 157.74l-82.517-21.59C290.9 221.355 410.198 128 550.698 128c165.803 0 302.635 130.39 302.635 294.187 0 62.42-16.17 109.738-42.752 146.944-25.855 36.225-59.56 59.862-88.36 78.25-7.04 4.48-13.57 8.535-19.713 12.375-21.12 13.14-37.206 23.168-50.304 35.712-13.91 13.354-21.675 27.35-21.675 50.09C630.528 829.952 560.17 896 476.416 896s-154.07-66.048-154.07-150.443h85.334c0 34.646 29.44 65.11 68.736 65.11 39.34 0 68.78-30.464 68.78-65.11 0-49.536 20.01-84.864 47.913-111.616 20.223-19.412 46.335-35.583 68.522-49.32 5.12-3.2 10.07-6.23 14.677-9.175 26.88-17.152 48.895-33.62 64.81-55.893 15.19-21.29 26.88-50.816 26.88-97.365 0-114.048-95.957-208.854-217.3-208.854zm1.96 128c-18.388 0-35.24 5.376-49.15 14.422l-46.55-71.51C484.437 266.368 517.42 256 552.66 256c94.04 0 172.673 74.07 172.673 168.405 0 39.85-11.818 70.102-31.232 93.526l-65.663-54.527C634.283 456.405 640 445.78 640 424.405c0-44.544-37.76-83.072-87.34-83.072zM276.225 554.667L170.667 449.11l65.11-65.11 105.556 105.557L446.89 384 512 449.11 406.443 554.666 512 660.224l-65.11 65.11-105.557-105.558-105.557 105.557-65.11-65.11z"/></svg>