<svg viewBox="0 0 1024 1024" xmlns="http://www.w3.org/2000/svg"><path d="M469.333 405.333c0 35.328-28.63 64-64 64-35.328 0-64-28.672-64-64s28.672-64 64-64c35.37 0 64 28.672 64 64zm149.334 64c35.37 0 64-28.672 64-64s-28.63-64-64-64c-35.328 0-64 28.672-64 64s28.672 64 64 64zm192-128c0 17.152-2.006 32.726-4.907 46.336-.768 3.626-1.58 7.423-2.432 11.434l-.085.3c-7.382 34.26-17.45 81.023-17.45 112.596v1.792c0 34.347-27.862 62.208-62.252 62.208h-8.873c-29.44 0-53.334 23.893-53.334 53.333 0 29.44-23.893 53.334-53.333 53.334H416c-29.44 0-53.333-23.894-53.333-53.334 0-29.44-23.894-53.333-53.334-53.333h-8.874c-34.39 0-62.252-27.86-62.252-62.208V469.42c0-14.08-3.797-27.777-9.045-40.79-10.966-27.265-15.83-56.662-15.83-87.297 0-141.397 133.718-256 298.667-256 164.95 0 298.667 114.603 298.667 256zm-230.955 256c13.44-56.96 62.037-100.352 121.6-106.026 2.944-38.358 12.715-83.243 18.645-110.55.854-4.01 1.664-7.637 2.347-10.794 1.792-8.576 3.03-18.176 3.03-28.63 0-82.39-82.69-170.666-213.334-170.666-130.645 0-213.333 88.277-213.333 170.666 0 21.632 3.413 39.936 9.642 55.382 7.423 18.39 15.23 43.52 15.23 72.704v21.972c59.18 6.016 107.35 49.28 120.748 105.94zM201.6 766.38l155.093 44.287L201.6 854.955l23.467 82.09L512 855.04l286.933 82.005 23.467-82.09-155.093-44.288L822.4 766.38l-23.467-82.092L512 766.293l-286.933-82.005-23.467 82.09z"/></svg>