<svg viewBox="0 0 1024 1024" xmlns="http://www.w3.org/2000/svg"><path d="M171.52 682.667h-.853c0-44.203-.086-62.25-1.28-72.918-.683-5.803-.81-6.273-6.57-17.622l-.13-.256-.17-.3C140.373 546.39 128 496.043 128 443.093c0-200.745 175.19-357.76 384-357.76s384 157.015 384 357.76c0 52.993-12.416 103.34-34.56 148.567l-.17.297-.13.3c-5.716 11.22-5.887 11.69-6.527 17.492-1.194 10.666-1.28 28.714-1.28 72.917h-.384v29.653l.47.085v26.838c0 27.093-26.54 45.824-51.415 56.576-12.416 5.375-23.253 14.377-31.36 26.068-8.064 11.648-13.056 25.515-14.464 40.064-4.223 44.544-12.33 76.8-57.044 76.715l-40.875-.043v-.3H365.825v.3l-40.96.043c-44.715.085-52.736-32.17-56.96-76.715-1.408-14.55-6.4-28.416-14.464-40.064-8.107-11.69-18.944-20.693-31.36-26.07-24.875-10.75-51.413-29.482-51.413-56.575v-26.838l.853-.128zm41.813-239.574c0 39.382 9.13 76.8 25.686 110.635l.084.213c6.656 13.015 12.63 24.79 15.06 46.167.044.298.087.597.087.896 1.665 4.565 2.603 9.472 2.603 14.634v96.94c39.21 7.508 68.523 20.138 84.566 43.306 16.084 23.21 24.276 58.154 24.404 97.11H658.26c.13-38.956 8.32-73.9 24.407-97.11 16.085-23.21 45.525-35.883 84.95-43.392v-96.853c0-4.437.682-8.746 1.92-12.8.084-.896.212-1.792.298-2.688 2.432-21.42 8.405-33.153 15.018-46.166l.086-.17c16.553-33.878 25.727-71.297 25.727-110.72 0-147.33-130.432-272.427-298.667-272.427-168.235 0-298.667 125.098-298.667 272.426zm320 143.574c0-58.41 41.814-117.334 106.667-117.334 64.853 0 106.667 58.923 106.667 117.334C746.667 645.077 704.853 704 640 704c-64.853 0-106.667-58.923-106.667-117.333zm93.824-25.046c-4.693 5.505-8.49 14.21-8.49 25.047s3.797 19.54 8.49 25.045c4.608 5.376 9.302 6.955 12.843 6.955 3.54 0 8.235-1.58 12.843-6.955 4.693-5.504 8.49-14.208 8.49-25.045 0-10.838-3.797-19.542-8.49-25.046-4.608-5.375-9.302-6.953-12.843-6.953-3.54 0-8.235 1.578-12.843 6.954zm-349.824 25.047c0-58.41 41.814-117.334 106.667-117.334 64.853 0 106.667 58.923 106.667 117.334C490.667 645.077 448.853 704 384 704c-64.853 0-106.667-58.923-106.667-117.333zm93.824-25.046c-4.736 5.505-8.49 14.21-8.49 25.047s3.754 19.54 8.49 25.045c4.608 5.376 9.302 6.955 12.843 6.955 3.54 0 8.235-1.58 12.843-6.955 4.736-5.504 8.49-14.208 8.49-25.045 0-10.838-3.754-19.542-8.49-25.046-4.608-5.375-9.302-6.953-12.843-6.953-3.54 0-8.235 1.578-12.843 6.954zM448 773.89c0 19.072 14.336 36.78 34.005 36.78 12.97 0 22.742-7.17 29.014-17.537.468-.725 1.492-.725 1.96 0 6.273 10.37 16.044 17.537 29.015 17.537 19.67 0 34.005-17.707 34.005-36.78 0-40.83-64-69.887-64-69.887s-43.093 18.39-58.58 48.512c-1.11 2.176-2.05 4.395-2.86 6.656-1.62 4.693-2.56 9.6-2.56 14.72z"/></svg>