<svg viewBox="0 0 1024 1024" xmlns="http://www.w3.org/2000/svg"><path d="M511.787 896l-97.11-91.52-3.797-3.584c-75.776-71.125-144.725-135.85-194.048-198.272C165.717 537.94 128 466.432 128 381.14 128 241.58 235.35 128 374.144 128c49.75 0 97.493 27.18 137.856 53.333C552.363 155.18 600.107 128 649.856 128 788.65 128 896 241.58 896 381.14c0 85.292-37.717 156.76-88.832 221.484-49.11 62.25-117.717 126.763-193.152 197.717l-4.907 4.652zM512 777.984l39.296-36.736.768-.768c78.677-73.984 143.36-134.87 188.544-192.043 45.227-57.3 70.06-109.952 70.06-167.296 0-93.268-70.7-166.484-160.812-166.484-27.136 0-53.717 6.955-77.483 19.37-20.864 10.88-39.594 25.942-54.528 44.118L512 288l-5.845-9.856c-14.934-18.176-33.664-33.237-54.528-44.117-23.766-12.416-50.347-19.37-77.483-19.37-90.112 0-160.81 73.215-160.81 166.484 0 57.345 24.83 109.996 70.058 167.255 45.312 57.344 110.293 118.357 189.355 192.554zm44.757-483.456L398.763 495.232c-4.438 5.632-.427 13.867 6.74 13.867h91.692l-30.123 150.228L625.11 458.624c4.394-5.632.426-13.867-6.742-13.867h-91.733l30.122-150.23z"/></svg>