<svg viewBox="0 0 1024 1024" xmlns="http://www.w3.org/2000/svg"><path d="M512 277.333s-85.333 85.334-85.333 149.334C426.667 469.333 448 512 512 512s85.333-42.667 85.333-85.333c0-53.12-59.648-120.022-79.19-141.995-4.01-4.523-6.356-7.125-6.143-7.34zm0 448c-23.552 0-42.667 19.115-42.667 42.667 0 23.552 19.115 42.667 42.667 42.667 23.552 0 42.667-19.115 42.667-42.667 0-23.552-19.115-42.667-42.667-42.667zm-213.333-640h426.666c47.147 0 85.334 38.187 85.334 85.334v554.666c0 47.147-38.187 85.334-85.334 85.334h-42.666v128H341.333v-128h-42.666c-47.147 0-85.334-38.187-85.334-85.334V170.667c0-47.147 38.187-85.334 85.334-85.334zm426.666 512v-384H298.667v384zm-298.666 256h170.666V682.667H426.667zM256 799.233c-12.97-7.468-23.765-18.262-31.232-31.233-7.296-12.544-11.435-27.136-11.435-42.667V170.667c0-47.147 38.187-85.334 85.334-85.334h426.666c47.147 0 85.334 38.187 85.334 85.334v554.666c0 15.53-4.14 30.123-11.435 42.667-7.467 12.97-18.26 23.765-31.232 31.232-12.544 7.296-27.136 11.435-42.667 11.435h-42.666v128H341.333v-128h-42.666c-15.53 0-30.123-4.14-42.667-11.435zm469.333-201.9v-384H298.667v384zm-128 256V682.667H426.667v170.666zM512 512c-17.152 0-31.232-3.072-42.667-8.363-24.234-11.264-36.522-32.554-40.832-56.106-1.236-6.826-1.833-13.866-1.833-20.863 0-13.61 3.84-28.16 9.94-42.667 8.15-19.456 20.268-38.827 32.428-55.595.085-.128.213-.256.298-.384C490.667 298.668 512 277.334 512 277.334c-.213.214 2.09 2.816 6.06 7.254l.084.085c7.85 8.832 22.187 24.917 36.523 44.46C566.827 345.727 579.03 364.8 587.22 384c6.188 14.464 10.113 29.013 10.113 42.667 0 6.656-.512 13.312-1.62 19.84-4.14 23.936-16.47 45.738-41.046 57.13C543.232 508.927 529.152 512 512 512zm0 213.333c23.552 0 42.667 19.115 42.667 42.667 0 23.552-19.115 42.667-42.667 42.667-23.552 0-42.667-19.115-42.667-42.667 0-23.552 19.115-42.667 42.667-42.667z"/></svg>