<svg viewBox="0 0 1024 1024" xmlns="http://www.w3.org/2000/svg"><path d="M533.333 602.667h128c23.552 0 42.667 19.114 42.667 42.666C704 668.928 684.885 688 661.333 688H490.667v32H576c23.552 0 42.667 19.115 42.667 42.667 0 23.552-19.115 42.666-42.667 42.666H341.333c-141.397 0-256-114.602-256-256 0-85.205 49.963-158.762 122.198-192.938 3.073-2.518 6.53-4.65 10.326-6.272l298.667-128c21.674-9.26 46.762.768 56.02 22.4 9.302 21.674-.724 46.762-22.4 56.02l-53.375 22.87c-.94.683-1.92 1.28-2.944 1.835-12.672 6.315-15.36 16.81-13.1 24.49 2.092 6.998 10.625 18.09 34.945 18.262H896c23.552 0 42.667 19.115 42.667 42.667 0 23.594-19.115 42.666-42.667 42.666h-2.432c1.58-3.328 2.432-6.912 2.432-10.666 0-17.664-19.115-32-42.667-32-23.552 0-42.666 14.336-42.666 32 0 3.754.853 7.338 2.432 10.666H533.332v32h149.334c23.552 0 42.666 19.115 42.666 42.667 0 23.595-19.114 42.667-42.666 42.667H533.333v32zm320-95.062l-7.552 7.51-.04.085-.13.128-.51.512c-.428.427-1.025 1.067-1.793 1.877-1.536 1.622-3.712 3.968-6.315 6.912-5.163 5.887-12.117 14.25-19.03 24.106-13.525 19.115-28.63 45.995-28.63 71.98 0 34.6 29.057 61.95 64 61.95 34.945 0 64-27.35 64-61.95 0-25.985-15.103-52.865-28.628-71.98-6.912-9.856-13.867-18.22-19.03-24.107-2.602-2.945-4.778-5.29-6.314-6.913-.768-.81-1.365-1.45-1.792-1.877l-.512-.512-.128-.128-.043-.085-7.552-7.51z"/></svg>