<svg viewBox="0 0 1024 1024" xmlns="http://www.w3.org/2000/svg"><path d="M683.947 256h-513.11v168.02h16.3l86.314-137.556 75.265 149.333 30.848-49.152h154.07c-6.486 19.286-10.028 39.894-10.028 61.355 0 8.15.512 16.128 1.494 23.98h-98.177l-86.315 137.556L265.3 460.203l-30.804 49.152h-63.66V640h513.11v-2.645C694.4 639.105 705.11 640 716.033 640c18.517 0 36.48-2.603 53.46-7.51v92.843H470.145V768h85.547c23.595 0 42.753 19.115 42.753 42.667 0 23.552-19.158 42.666-42.752 42.666H299.137c-23.637 0-42.752-19.114-42.752-42.666 0-23.552 19.115-42.667 42.752-42.667h85.504v-42.667H85.333V170.667h684.16v92.842c-16.98-4.907-34.944-7.51-53.46-7.51-10.924 0-21.633.896-32.086 2.645V256zM847.7 519.04l90.967 90.795-60.46 60.33L787.2 579.37c-21.163 11.478-45.397 17.963-71.168 17.963-82.645 0-149.675-66.858-149.675-149.333s67.03-149.333 149.675-149.333c82.645 0 149.632 66.858 149.632 149.333 0 25.728-6.485 49.92-17.963 71.04zM716.033 512c35.413 0 64.128-28.672 64.128-64s-28.715-64-64.128-64-64.17 28.672-64.17 64 28.757 64 64.17 64z"/></svg>