<svg viewBox="0 0 1024 1024" xmlns="http://www.w3.org/2000/svg"><path d="M800 320c53.035 0 96-42.965 96-96s-42.965-96-96-96-96 42.965-96 96 42.965 96 96 96zM624.34 604.885l-59.305-69.59 17.194-26.964c2.943-4.607 6.74-8.618 11.178-11.818l32.384-23.125-3.37 27.136c-4.182 33.493 11.818 66.304 40.79 83.67l82.815 49.706c20.224 12.16 46.42 5.588 58.58-14.636 12.118-20.18 5.548-46.38-14.634-58.496l-82.858-49.75 17.92-144.51c.81-3.756 1.28-7.553 1.408-11.35l.256-2.177c1.236-9.77-.983-19.2-5.676-27.05-3.243-7.637-8.02-14.805-14.25-21.034-39.467-39.467-103.425-39.467-142.89 0L439.978 428.8c-4.055 4.053-7.596 8.405-10.668 12.97-14.592 21.462-15.403 40.918-15.445 51.457 0 1.152.085 2.26.256 3.413 7.978 50.39 37.504 94.805 80.853 121.643l61.1 37.802 62.804 201.472c2.347 23.467 23.253 40.576 46.72 38.23 23.424-2.347 40.533-23.254 38.187-46.678L640.98 647.594c-1.577-15.488-7.295-30.25-16.64-42.71zM298.668 895.872c-3.542.085-7.083.128-10.667.128-88.363 0-160-23.893-160-53.333 0-29.44 71.637-53.334 160-53.334 62.72 0 117.035 12.032 143.232 29.568C460.075 832.598 480 861.953 480 896H298.667v-.128zm173.013-227.37c19.584 13.055 24.875 39.55 11.82 59.178l-21.335 32c-13.056 19.584-39.552 24.875-59.178 11.82-19.584-13.057-24.875-39.553-11.82-59.18l21.334-32c13.057-19.584 39.553-24.875 59.18-11.82zm-72.448-49.238c12.16-20.18 5.59-46.38-14.635-58.496-20.18-12.16-46.378-5.59-58.496 14.635l-64 106.666c-12.16 20.18-5.588 46.378 14.636 58.538 20.18 12.117 46.38 5.547 58.496-14.635l64-106.71z"/></svg>