<svg viewBox="0 0 1024 1024" xmlns="http://www.w3.org/2000/svg"><path d="M496.597 105.643c58.966-36.864 135.552-28.16 184.747 21.034l43.99 43.99L649.13 384h33.537C729.813 384 768 422.187 768 469.333v384c0 47.147-38.187 85.334-85.333 85.334H341.333c-47.146 0-85.333-38.187-85.333-85.334v-384C256 422.187 294.187 384 341.333 384h38.912l-81.578-277.333 89.856 29.952c2.858.937 5.717 1.748 8.618 2.388 21.676 4.78 44.545.94 63.617-10.965zM469.205 384h89.344l68.266-191.19-5.803-5.802c-21.077-21.077-53.93-24.832-79.19-9.003l-35.84 22.4c-25.343 15.83-54.058 24.534-83.2 25.77zm-42.538 213.333v128h170.666v-128z"/></svg>