<svg viewBox="0 0 1024 1024" xmlns="http://www.w3.org/2000/svg"><path d="M85.333 512c0-235.648 191.02-426.667 426.667-426.667 235.648 0 426.667 191.02 426.667 426.667 0 235.648-191.02 426.667-426.667 426.667-235.648 0-426.667-191.02-426.667-426.667zM512 170.667C323.5 170.667 170.667 323.5 170.667 512c0 188.5 152.832 341.333 341.333 341.333 188.5 0 341.333-152.832 341.333-341.333 0-188.5-152.832-341.333-341.333-341.333zm107.904 573.696c-34.304 9.002-75.733 12.97-107.904 12.97-32.17 0-73.6-3.968-107.904-12.97-16.94-4.438-34.347-10.667-48.256-19.67-13.27-8.576-30.208-24.533-30.208-49.408 0-45.226 21.077-87.338 56.448-117.546 35.2-30.04 81.963-46.252 129.92-46.252 47.957 0 94.72 16.213 129.92 46.25 35.37 30.21 56.448 72.32 56.448 117.547 0 24.875-16.94 40.832-30.208 49.408-13.91 9.003-31.317 15.232-48.256 19.67zm14.336-73.984c-1.408-23.04-12.8-45.996-33.877-63.96-22.7-19.37-54.4-30.932-88.363-30.932s-65.664 11.563-88.405 30.933c-21.035 17.964-32.427 40.92-33.835 63.96.3.212.597.425.896.64 5.632 3.625 15.53 7.72 29.653 11.433 27.818 7.296 63.573 10.88 91.69 10.88 28.117 0 63.872-3.584 91.69-10.88 14.123-3.712 24.022-7.808 29.654-11.434.3-.215.597-.428.896-.64zm-246.656-1.75l.256.255c-.128-.17-.256-.256-.256-.256zm248.832 0s-.128.085-.256.255c.213-.17.256-.256.256-.256zM372.352 349.994l-42.368-42.368-45.227 45.27 42.368 42.367-42.368 42.325 45.227 45.27 42.368-42.37 42.368 42.37 45.227-45.27-42.326-42.326 42.37-42.368-45.27-45.27-42.368 42.37zm288 0l42.368-42.368 45.227 45.27-42.368 42.367 42.367 42.325-45.27 45.27-42.325-42.37-42.368 42.37-45.27-45.27 42.37-42.326-42.37-42.368 45.27-45.27 42.368 42.37z"/></svg>