<svg viewBox="0 0 1024 1024" xmlns="http://www.w3.org/2000/svg"><path d="M563.627 629.333c-15.53-16.682-32.94-30.464-52.096-43.178l3.2-1.75c23.04-12.63 49.494-27.136 76.246-45.78 21.248 17.15 41.6 37.46 59.605 62.378 46.977 64.98 74.753 156.16 74.753 294.997H640c0-27.392-1.195-52.14-3.328-74.667H301.995c-2.176 22.528-3.328 47.275-3.328 74.667h-85.334c0-138.837 27.776-230.016 74.752-294.997 45.654-63.147 106.24-96.47 158.166-125.014l2.518-1.366c45.14-24.832 83.797-46.55 114.86-79.957H375.04c15.53 16.682 32.94 30.464 52.096 43.178l-3.2 1.75c-23.04 12.63-49.45 27.136-76.245 45.78-21.247-17.15-41.6-37.46-59.605-62.378C241.11 358.017 213.333 266.88 213.333 128h85.334c0 27.392 1.152 52.18 3.328 74.667h334.677C638.805 180.18 640 155.392 640 128h85.333c0 138.88-27.776 230.016-74.752 294.997-45.652 63.147-106.24 96.47-158.164 125.014l-2.517 1.366c-45.143 24.832-83.8 46.55-114.86 79.957zm42.154 64H332.886c-8.192 18.134-15.317 39.21-20.906 64h314.708c-5.59-24.79-12.715-45.866-20.907-64zM332.886 330.667H605.78c8.193-18.134 15.32-39.21 20.908-64h-314.71c5.59 24.79 12.715 45.866 20.907 64z"/></svg>