<svg viewBox="0 0 1024 1024" xmlns="http://www.w3.org/2000/svg"><path d="M512 469.333c94.25 0 170.667-76.416 170.667-170.666S606.25 128 512 128c-94.25 0-170.667 76.416-170.667 170.667 0 94.25 76.416 170.666 170.667 170.666zM331.82 512c12.884 0 25.6 2.987 37.12 8.747l4.735 2.39c41.472 20.735 87.21 31.53 133.59 31.53h9.47c46.38 0 92.118-10.795 133.59-31.53l4.736-2.39c11.52-5.76 24.236-8.747 37.12-8.747C804.737 512 896 603.264 896 715.82V896H128V715.82C128 603.263 219.264 512 331.82 512zm-41.9 92.97c-44.757 16.94-76.587 60.16-76.587 110.85v94.847h597.334V715.82c0-58.028-41.686-106.284-96.726-116.48 2.817 14.804 3.372 29.268 2.476 42.836l-.597 8.49h11.39c12.587 0 24.065 7.297 29.355 18.73l29.483 63.148c10.027 21.504-5.675 46.123-29.397 46.123H710.4v-59.734c0-2.346-1.92-4.266-4.267-4.266h-44.8c-2.346 0-4.266 1.92-4.266 4.266v59.734h-48.384c-23.723 0-39.424-24.62-29.398-46.123l29.483-63.147c5.29-11.434 16.768-18.73 29.355-18.73h13.568l.854-12.8c.512-7.382.3-14.89-.768-22.4-43.093 16.17-88.79 24.533-135.04 24.533h-9.472c-52.693 0-104.704-10.837-152.875-31.744-2.603 11.392-2.902 22.87-1.75 33.963.597 5.76 1.58 11.263 2.816 16.468 26.41 7.893 45.61 32.384 45.61 61.312 0 35.328-28.67 64-64 64-35.327 0-64-28.672-64-64 0-18.347 7.723-34.944 20.14-46.592-1.878-7.808-3.33-16-4.225-24.533-1.45-13.782-1.407-28.63.94-43.904z"/></svg>