<svg viewBox="0 0 1024 1024" xmlns="http://www.w3.org/2000/svg"><path d="M388.907 613.077l78.55-83.456L384 451.03l58.496-62.123 83.456 78.592 78.592-83.5 62.123 58.496-78.592 83.5 83.498 78.548-58.496 62.165-83.498-78.593-78.55 83.456-62.123-58.496zM256 170.667c0-47.147 38.187-85.334 85.333-85.334h345.9l91.562 99.926L896 325.887v399.445c0 47.147-38.187 85.334-85.333 85.334H341.333c-47.146 0-85.333-38.187-85.333-85.334zm369.792 0h-284.46v554.666h469.335V384h-99.542c-47.146 0-85.333-38.187-85.333-85.333zm85.333 67.03v60.97h51.115l-47.7-57.26zm-497.792-3.03v42.666H128v-42.666h85.333zm490.667 704H320c-43.776 0-90.88-19.37-126.933-51.243C156.245 854.827 128 806.444 128 746.667V277.333h85.333v469.334c0 31.19 14.422 57.472 36.267 76.842 22.613 20.01 50.176 29.823 70.4 29.823h383.957l.043 85.334zm-.043-85.334h42.71v85.334H704l-.043-85.334z"/></svg>