<svg viewBox="0 0 1024 1024" xmlns="http://www.w3.org/2000/svg"><path d="M661.632 85.333c20.395 0 37.035 16.512 37.035 36.992v295.98c0 33.108-39.936 49.364-63.19 26.196l-41.557-41.513-141.184 140.885c-14.464 14.42-37.845 14.42-52.31 0L240.214 383.957c-14.506-14.464-14.506-37.93 0-52.394L381.27 190.805l-42.37-42.282c-23.465-23.382-6.697-63.19 26.156-63.19zm-216.02 79.275c14.505 14.464 14.505 37.93 0 52.395L304.554 357.76 426.58 479.53 567.766 338.69c14.422-14.42 37.846-14.42 52.31 0l14.592 14.55V149.332H430.293zm177.96 315.52l160.215 159.915c14.506 14.464 14.506 37.93 0 52.394L642.73 833.195l42.37 42.282c23.465 23.382 6.697 63.19-26.156 63.19H362.368c-20.395 0-37.035-16.512-37.035-37.035V605.696c0-33.11 39.936-49.365 63.19-26.197l41.557 41.513 141.184-140.885c14.464-14.42 37.845-14.42 52.31 0zM456.236 685.312c-14.422 14.42-37.846 14.42-52.31 0l-14.592-14.55v203.905h204.374l-15.318-15.275c-14.507-14.464-14.507-37.93 0-52.395L719.444 666.24 597.42 544.47z"/></svg>