<svg viewBox="0 0 1024 1024" xmlns="http://www.w3.org/2000/svg"><path d="M368.043 301.952L512 373.932l143.957-71.98C645.76 281.728 640 258.86 640 234.667c0-82.475 66.86-149.334 149.333-149.334 82.475 0 149.334 66.86 149.334 149.334S871.807 384 789.333 384c-24.192 0-47.06-5.76-67.285-15.957L650.068 512l71.98 143.957C742.272 645.76 765.14 640 789.333 640c82.475 0 149.334 66.86 149.334 149.333 0 82.475-66.86 149.334-149.334 149.334S640 871.807 640 789.333c0-24.192 5.76-47.06 15.957-67.285L512 650.068l-143.957 71.98C378.24 742.272 384 765.14 384 789.333c0 82.475-66.86 149.334-149.333 149.334-82.475 0-149.334-66.86-149.334-149.334S152.193 640 234.667 640c24.192 0 47.06 5.76 67.285 15.957L373.932 512l-71.98-143.957C281.728 378.24 258.86 384 234.667 384c-82.475 0-149.334-66.86-149.334-149.333 0-82.475 66.86-149.334 149.334-149.334S384 152.193 384 234.667c0 24.192-5.76 47.06-15.957 67.285zm192.042 215.893c-.512-3.882-.512-7.808 0-11.69.64-4.566 2.006-9.046 4.14-13.227l33.108-66.26-66.26 33.108c-4.182 2.133-8.662 3.5-13.228 4.14-3.882.51-7.808.51-11.69 0-4.566-.64-9.046-2.007-13.227-4.14l-66.26-33.11 33.108 66.262c2.133 4.18 3.5 8.66 4.14 13.227.51 3.882.51 7.808 0 11.69-.64 4.523-2.007 9.003-4.14 13.227l-33.11 66.26 66.262-33.108c4.18-2.133 8.66-3.5 13.227-4.14 3.882-.51 7.808-.51 11.69 0 4.566.64 9.046 2.007 13.227 4.14l66.26 33.11-33.108-66.262c-2.133-4.224-3.5-8.704-4.14-13.227zM263.765 732.33c-8.746-4.48-18.602-6.997-29.098-6.997-35.328 0-64 28.672-64 64s28.672 64 64 64 64-28.672 64-64c0-10.496-2.518-20.394-6.998-29.098l-38.145 19.072c1.58 2.986 2.475 6.4 2.475 10.026 0 11.776-9.557 21.334-21.333 21.334-11.776 0-21.334-9.558-21.334-21.334S222.89 768 234.667 768c3.626 0 7.04.896 10.026 2.475zm468.566 27.905c-4.48 8.704-6.997 18.602-6.997 29.098 0 35.328 28.672 64 64 64s64-28.672 64-64-28.672-64-64-64c-10.496 0-20.352 2.518-29.098 6.998l19.072 38.145c2.986-1.58 6.4-2.475 10.026-2.475 11.776 0 21.334 9.557 21.334 21.333 0 11.776-9.558 21.334-21.334 21.334S768 801.11 768 789.333c0-3.626.896-7.04 2.475-10.026zm-440.66-496.47c4.48-8.746 6.997-18.602 6.997-29.098 0-35.328-28.672-64-64-64s-64 28.672-64 64 28.672 64 64 64c10.496 0 20.352-2.518 29.098-6.998l-19.072-38.145c-2.986 1.58-6.4 2.475-10.026 2.475-11.776 0-21.334-9.557-21.334-21.333 0-11.776 9.558-21.334 21.334-21.334S256 222.89 256 234.667c0 3.626-.896 7.04-2.475 10.026zm468.565 27.904c8.704 4.48 18.602 6.997 29.098 6.997 35.328 0 64-28.672 64-64s-28.672-64-64-64-64 28.672-64 64c0 10.496 2.518 20.352 6.998 29.098l38.145-19.072c-1.58-2.986-2.475-6.4-2.475-10.026 0-11.776 9.557-21.334 21.333-21.334 11.776 0 21.334 9.558 21.334 21.334S801.11 256 789.333 256c-3.626 0-7.04-.896-10.026-2.475z"/></svg>