<svg viewBox="0 0 1024 1024" xmlns="http://www.w3.org/2000/svg"><path d="M512 170.667c-121.216 0-220.8 78.634-248.32 181.674l-82.475-22.015C219.18 188.16 354.005 85.333 512 85.333c186.325 0 341.333 143.66 341.333 325.632 0 69.42-18.39 121.686-48.213 162.56-29.013 39.808-66.9 65.92-99.84 86.486-7.85 4.907-15.232 9.43-22.23 13.654-24.447 14.89-43.605 26.58-59.135 41.216-16.982 15.915-26.582 32.94-26.582 59.86 0 92.673-78.592 163.927-170.666 163.927C334.635 938.667 256 867.413 256 774.74h85.333c0 41.26 36.01 78.593 85.334 78.593C475.99 853.333 512 816 512 774.74c0-54.4 22.4-92.84 53.42-122.025 22.74-21.376 51.967-39.083 77.44-54.528 5.972-3.627 11.775-7.126 17.193-10.54 31.062-19.412 57.174-38.442 76.16-64.426C754.39 498.348 768 464.13 768 410.966c0-130.56-112.427-240.298-256-240.298zM380.416 290.645c62.72-53.12 151.552-55.893 255.573-9.642 21.546 9.557 31.23 34.773 21.674 56.32-9.6 21.546-34.773 31.232-56.32 21.674-87.98-39.082-137.813-26.922-165.76-3.242-3.84 3.242-7.51 6.912-11.008 10.965 36.608-4.224 69.376.47 97.365 13.867 47.32 22.698 72.32 66.26 78.04 110.976 11.135 86.954-50.305 191.104-173.313 191.104-70.7 0-128-57.302-128-128V512c0-86.272 22.4-171.093 81.75-221.355zm6.7 172.416C385.065 478.166 384 494.508 384 512v42.667c0 23.552 19.115 42.666 42.667 42.666 63.83 0 94.293-51.03 88.66-94.976-2.644-20.736-13.14-36.608-30.292-44.8-16.896-8.15-47.787-12.373-97.92 5.504z"/></svg>