<svg viewBox="0 0 1024 1024" xmlns="http://www.w3.org/2000/svg"><path d="M458.667 298.667c0-17.664-14.336-32-32-32s-32 14.336-32 32v77.397L358.7 412.032c-12.503 12.5-12.503 32.768 0 45.27 12.5 12.5 32.767 12.5 45.268 0l22.7-22.7 22.697 22.7c12.502 12.5 32.768 12.5 45.27 0 12.5-12.502 12.5-32.77 0-45.27l-35.968-35.968v-77.397zm-174.123 38.485c5.504-10.54 16.427-17.152 28.33-17.152h28.46c8.49 0 16.64 3.37 22.613 9.387 6.016 5.973 9.386 14.122 9.386 22.613v9.685c0 17.664-14.336 32-32 32-4.352 0-8.49-.853-12.288-2.432-21.845 46.336-32.34 85.376-38.1 140.502.938-.17 1.876-.384 2.772-.64 4.438-1.195 9.302-3.328 15.616-8.534V497.41c0-17.664 14.336-32 32-32s32 14.336 32 32v38.784c0 8.107-3.072 15.915-8.576 21.803-16.98 18.176-34.005 29.397-54.272 34.9-17.493 4.737-35.754 4.566-52.266 4.396l-2.52-.042c-8.788-.043-17.193-3.755-23.167-10.24-5.973-6.443-9.045-15.06-8.448-23.893 6.23-93.312 20.096-148.95 60.46-225.963zm284.245 0C563.242 326.612 552.362 320 540.46 320H512c-8.49 0-16.64 3.37-22.613 9.387C483.37 335.36 480 343.51 480 352v9.685c0 17.664 14.336 32 32 32 4.352 0 8.49-.853 12.288-2.432 21.845 46.336 32.34 85.376 38.1 140.502-.937-.17-1.876-.384-2.772-.64-4.437-1.195-9.3-3.328-15.616-8.534V497.41c0-17.664-14.336-32-32-32s-32 14.336-32 32v38.784c0 8.107 3.072 15.915 8.576 21.803 16.94 18.176 34.005 29.397 54.272 34.9 17.493 4.737 35.755 4.566 52.267 4.396l2.517-.042c8.79-.043 17.152-3.755 23.168-10.24 5.973-6.443 9.045-15.06 8.448-23.893-6.23-93.312-20.096-148.95-60.46-225.963zM128 128h597.333C748.885 128 768 147.115 768 170.667v426.666h61.056c9.728 0 17.664 0 24.277-.042V341.334c0-6.357-2.816-18.432-10.026-28.032-5.888-7.764-15.02-14.633-32.64-14.633v-85.334c46.378 0 79.914 21.035 100.693 48.512 19.456 25.728 27.307 56.32 27.307 79.488V619.477c.042 3.627.213 15.104-3.414 25.558-2.645 7.51-7.21 15.232-14.506 21.717-6.912 6.1-14.294 9.387-20.14 11.22-10.41 3.33-22.058 4.012-31.316 4.353-10.197.342-23.38.342-39.38.342H768c0 23.552-19.115 42.666-42.667 42.666h-256v85.334H768V896H85.333v-85.333H384v-85.334H128c-23.552 0-42.667-19.114-42.667-42.666v-512C85.333 147.115 104.448 128 128 128zm554.667 85.333h-512V640h512z"/></svg>