<svg viewBox="0 0 1024 1024" xmlns="http://www.w3.org/2000/svg"><path d="M280.533 384h530.134L921.3 709.504c16.257 45.483-8.404 95.36-54.4 110.08l-120.233 33.75L768 768l72.96-29.74-63.7-177.92-73.687 233.345c-11.22 35.5-44.16 59.648-81.365 59.648h-436.01c-57.643 0-98.73-56.02-81.366-111.018l94.336-298.667c11.22-35.5 44.117-59.648 81.365-59.648zM479.7 491.947c-22.868-5.718-46.036 8.192-51.753 31.06l-13.312 53.164-52.182.214c-23.552.128-42.58 19.328-42.453 42.88.128 23.552 19.285 42.58 42.88 42.453l30.42-.128-8.02 32.085c-5.717 22.87 8.192 45.994 31.02 51.712 22.868 5.717 46.036-8.15 51.753-31.02l13.27-53.034h52.01c23.552 0 42.667-19.114 42.667-42.666C576 595.115 556.885 576 533.333 576h-30.677l8.064-32.3c5.717-22.868-8.192-46.036-31.02-51.753zm74.967-321.28h256v170.666h-256V170.667zm192 0h64V384h-64V170.667z"/></svg>