<svg viewBox="0 0 1024 1024" xmlns="http://www.w3.org/2000/svg"><path d="M336.512 681.643c13.227-1.238 26.496 1.493 38.144 7.808 11.69 6.358 21.205 16 27.392 27.734 6.187 11.776 8.747 25.088 7.38 38.272-1.407 13.227-6.655 25.685-15.145 35.925-8.49 10.2-19.84 17.665-32.555 21.42-12.715 3.797-26.283 3.712-38.955-.256-12.672-3.925-23.893-11.52-32.256-21.845-8.362-10.327-13.482-22.87-14.677-36.097l50.09-4.608c.342 3.285 1.622 6.442 3.713 9.045 2.048 2.56 4.864 4.48 8.064 5.46 3.157.983 6.528.983 9.728.044 3.157-.94 6.016-2.816 8.106-5.376 2.135-2.517 3.457-5.675 3.8-8.96.34-3.285-.3-6.613-1.836-9.557-1.536-2.943-3.925-5.375-6.827-6.954-2.944-1.58-6.272-2.26-9.557-1.963l-4.608-50.09zm70.016-25.13c-6.272-11.99-14.592-23.084-23.68-30.21-8.96-7.082-22.187-12.074-36.864-14.975-14.38-2.86-27.264-3.115-32.98-2.773-17.75 1.066-33.025-12.46-34.092-30.208-1.024-17.75 12.5-33.024 30.25-34.09 10.966-.64 29.355-.086 49.323 3.882 19.755 3.88 44.075 11.647 64.214 27.52 18.388 14.463 31.913 33.79 40.916 51.028 8.66 16.555 15.19 35.157 16.043 49.877 1.065 17.75-12.46 33.024-30.21 34.09-17.75 1.068-33.023-12.5-34.09-30.25 0-.042-.085-.768-.384-2.26-.34-1.452-.853-3.372-1.62-5.676-1.495-4.61-3.8-10.113-6.828-15.958zM235.136 709.76c13.14 13.1 34.39 13.1 47.488 0 13.1-13.1 13.1-34.39 0-47.488-13.1-13.1-34.347-13.1-47.488 0-13.1 13.1-13.1 34.39 0 47.488zm519.808-390.485c5.675-16.726 6.272-34.816 1.707-51.926l-56.19 15.06c1.577 5.974 1.407 12.33-.6 18.177-2.004 5.888-5.673 11.008-10.58 14.805-4.907 3.755-10.837 5.973-17.024 6.4-6.187.384-12.373-1.024-17.707-4.14-5.377-3.113-9.686-7.72-12.46-13.268-2.73-5.547-3.754-11.82-2.943-17.963.81-6.143 3.413-11.903 7.51-16.553 4.095-4.65 9.428-7.98 15.444-9.6l-15.06-56.192c-17.11 4.608-32.47 14.122-44.117 27.434-11.69 13.31-19.158 29.78-21.462 47.317-2.303 17.578.64 35.413 8.492 51.285 7.808 15.872 20.18 29.056 35.5 37.93 15.316 8.833 32.937 12.93 50.6 11.777 17.665-1.153 34.56-7.51 48.64-18.305 14.04-10.752 24.577-25.472 30.252-42.24zm19.67 130.304c15.146-12.716 12.373-35.585-3.115-47.873-15.447-12.288-37.804-9.046-54.487 1.536-7.722 4.906-16.042 8.832-24.79 11.648-20.266 6.486-41.94 6.827-62.378.982-20.394-5.845-38.613-17.62-52.352-33.835-5.973-7.04-10.965-14.762-14.89-22.997-8.576-17.792-25.814-32.384-45.44-30.165-19.627 2.26-34.09 20.18-27.99 38.997 7.168 22.06 18.56 42.58 33.707 60.46 22.87 27.007 53.248 46.633 87.296 56.36 34.005 9.73 70.187 9.175 103.893-1.62 22.27-7.168 42.837-18.56 60.543-33.493zm85.418 94.036L543.616 860.032c-104.832 104.832-274.816 104.832-379.648 0-104.832-104.832-104.832-274.816 0-379.648l316.416-316.416c104.832-104.832 274.816-104.832 379.648 0 104.832 104.832 104.832 274.816 0 379.648zM541.1 224.726L398.72 367.103 656.896 625.28l142.38-142.38c71.295-71.295 71.295-186.88 0-258.175-71.297-71.296-186.88-71.296-258.177 0zm-58.2 574.55l110.72-110.72-258.175-258.177-110.72 110.72c-71.296 71.295-71.296 186.88 0 258.175 71.296 71.296 186.88 71.296 258.176 0z"/></svg>