<svg viewBox="0 0 1024 1024" xmlns="http://www.w3.org/2000/svg"><path d="M170.667 512c0-188.5 152.832-341.333 341.333-341.333 188.5 0 341.333 152.832 341.333 341.333 0 33.408-4.82 65.707-13.738 96.213 9.514 1.45 18.688 3.5 27.434 6.23 19.967 6.23 37.034 15.744 51.114 28.63 13.312-41.302 20.523-85.334 20.523-131.073 0-235.648-191.02-426.667-426.667-426.667-235.648 0-426.667 191.02-426.667 426.667 0 235.648 191.02 426.667 426.667 426.667 37.845 0 74.58-4.95 109.483-14.166-7.424-11.903-14.08-25.172-19.926-39.85-4.096-10.325-8.618-23.594-13.61-39.807-24.406 5.546-49.835 8.49-75.947 8.49-188.5 0-341.333-152.832-341.333-341.333zm560.128 413.696c14.592.768 26.752-3.67 36.48-13.355 9.685-9.727 14.165-21.844 13.44-36.436-.768-14.592-6.528-27.307-17.323-38.1-8.79-8.833-20.395-16-34.773-21.59-14.38-5.547-40.663-12.758-78.892-21.633 8.79 38.273 15.957 64.556 21.504 78.935 5.547 14.378 12.715 25.984 21.547 34.816 10.75 10.795 23.465 16.598 38.015 17.366zm187.562-141.653c-7.722 17.194-21.12 28.842-40.234 34.986-19.072 6.143-38.187 4.95-57.302-3.627-15.615-7.04-30.505-18.39-44.67-34.134-14.166-15.745-36.225-45.995-66.22-90.753 53.377-7.338 90.625-10.965 111.787-10.837 21.163.085 39.552 3.627 55.21 10.667 19.116 8.576 32.726 22.016 40.833 40.362 8.107 18.346 8.277 36.138.597 53.333zM376.96 334.037c-15.787-7.893-35.03-1.493-42.923 14.336-7.893 15.787-1.493 35.03 14.336 42.923l51.67 25.856c7.85 3.925 7.85 15.147 0 19.072l-51.67 25.813c-15.83 7.936-22.23 27.136-14.336 42.966 7.894 15.786 27.136 22.186 42.923 14.293l51.712-25.856c54.997-27.477 54.997-106.027 0-133.547l-51.712-25.856zm312.747 0c15.786-7.893 35.03-1.493 42.922 14.336 7.893 15.787 1.493 35.03-14.337 42.923l-51.67 25.856c-7.85 3.925-7.85 15.147 0 19.072l51.67 25.813c15.83 7.936 22.23 27.136 14.336 42.966-7.894 15.786-27.137 22.186-42.923 14.293l-51.67-25.856c-55.04-27.477-55.04-106.027 0-133.547l51.67-25.856zM416 661.333C416 596.523 468.523 544 533.333 544s117.334 52.523 117.334 117.333-52.523 117.334-117.334 117.334c-64.81 0-117.333-52.523-117.333-117.334zM533.333 608C503.893 608 480 631.893 480 661.333c0 29.44 23.893 53.334 53.333 53.334 29.44 0 53.334-23.894 53.334-53.334 0-29.44-23.894-53.333-53.334-53.333z"/></svg>