<svg viewBox="0 0 1024 1024" xmlns="http://www.w3.org/2000/svg"><path d="M89.643 493.312c82.517-169.3 224.17-279.98 422.357-279.98 198.187 0 339.84 110.68 422.357 279.98l8.79 18.005-8.278 18.262c-41.003 90.537-96.94 161.45-168.918 209.535-72.064 48.128-157.397 71.552-253.952 71.552s-181.888-23.424-253.995-71.552C186.07 691.03 130.133 620.117 89.13 529.58l-8.277-18.263zM512 341.332c-94.25 0-170.667 76.417-170.667 170.668 0 94.25 76.416 170.667 170.667 170.667 94.25 0 170.667-76.416 170.667-170.667 0-94.25-76.416-170.667-170.667-170.667zM426.667 512c0-47.147 38.186-85.333 85.333-85.333 47.104 0 85.333 38.186 85.333 85.333s-38.23 85.333-85.333 85.333c-47.147 0-85.333-38.186-85.333-85.333zm-251.136.683C210.09 582.4 253.697 633.6 305.45 668.16c2.475 1.664 4.993 3.285 7.553 4.864C277.333 629.034 256 573.014 256 512c0-56.875 18.56-109.44 49.963-151.936-52.736 36.437-96.214 88.15-130.432 152.62zm542.507-152.62C749.44 402.56 768 455.126 768 512c0 61.013-21.333 117.035-57.003 161.024 2.56-1.58 5.078-3.2 7.552-4.864 51.71-34.56 95.36-85.76 129.92-155.477-34.22-64.47-77.697-116.182-130.433-152.62z"/></svg>