<svg viewBox="0 0 1024 1024" xmlns="http://www.w3.org/2000/svg"><path d="M309.333 469.333c23.552 0 42.667-19.114 42.667-42.666C352 403.115 332.885 384 309.333 384c-23.552 0-42.666 19.115-42.666 42.667 0 23.552 19.114 42.666 42.666 42.666zm469.334-42.666c0 23.552-19.115 42.666-42.667 42.666-23.552 0-42.667-19.114-42.667-42.666C693.333 403.115 712.448 384 736 384c23.552 0 42.667 19.115 42.667 42.667zM128 277.333h311.467c23.552 0 42.666 19.115 42.666 42.667v64h59.734v-64c0-23.552 19.114-42.667 42.666-42.667H896c23.552 0 42.667 19.115 42.667 42.667v213.333C938.667 556.885 919.552 576 896 576H584.533c-23.552 0-42.666-19.115-42.666-42.667v-64h-59.734v64c0 23.552-19.114 42.667-42.666 42.667H128c-23.552 0-42.667-19.115-42.667-42.667V320c0-23.552 19.115-42.667 42.667-42.667zm42.667 85.334v128H396.8v-128zm456.533 128h226.133v-128H627.2zm-314.24-256c56.02-40.278 124.757-64 199.04-64 74.283 0 143.02 23.722 199.04 64h125.227C757.973 143.275 641.75 85.333 512 85.333c-129.75 0-246.016 57.942-324.267 149.334H312.96zm-125.312 384H98.773c47.36 184.02 214.4 320 413.227 320 198.827 0 365.867-135.98 413.227-320h-88.875c-44.8 136.277-173.1 234.666-324.352 234.666-151.253 0-279.552-98.39-324.352-234.666zm181.59 24.234c16.725-16.64 43.733-16.553 60.373.13 7.083 7.125 19.243 13.78 35.798 18.56 16.128 4.693 33.237 6.57 46.592 6.57 13.355 0 30.464-1.877 46.592-6.57 16.555-4.78 28.715-11.435 35.797-18.56 16.64-16.683 43.647-16.77 60.373-.13 16.682 16.6 16.768 43.607.128 60.332-21.077 21.163-48.34 33.365-72.618 40.363-24.704 7.125-49.835 9.898-70.272 9.898-20.437 0-45.568-2.773-70.272-9.898-24.277-6.998-51.54-19.2-72.62-40.363-16.596-16.725-16.553-43.733.13-60.33z"/></svg>