<svg viewBox="0 0 1024 1024" xmlns="http://www.w3.org/2000/svg"><path d="M128 170.667C128 147.115 147.115 128 170.667 128h362.666C556.885 128 576 147.115 576 170.667V384c0 23.552-19.115 42.667-42.667 42.667H170.667C147.115 426.667 128 407.552 128 384zm234.667 160c0 17.664 14.336 32 32 32s32-14.336 32-32-14.336-32-32-32-32 14.336-32 32zm0-106.667c0 17.664 14.336 32 32 32s32-14.336 32-32-14.336-32-32-32-32 14.336-32 32zm-53.334 138.667c17.664 0 32-14.336 32-32s-14.336-32-32-32-32 14.336-32 32 14.336 32 32 32zm-117.333-32c0 17.664 14.336 32 32 32s32-14.336 32-32-14.336-32-32-32-32 14.336-32 32zM192 224c0 17.664 14.336 32 32 32s32-14.336 32-32-14.336-32-32-32-32 14.336-32 32zm117.333 32c17.664 0 32-14.336 32-32s-14.336-32-32-32-32 14.336-32 32 14.336 32 32 32zM480 362.667c17.664 0 32-14.336 32-32s-14.336-32-32-32-32 14.336-32 32 14.336 32 32 32zM480 256c17.664 0 32-14.336 32-32s-14.336-32-32-32-32 14.336-32 32 14.336 32 32 32zm245.333 29.61c17.664 0 32 14.337 32 32v38.827c49.238 13.91 85.334 59.18 85.334 112.896V832h10.666c17.664 0 32 14.336 32 32s-14.336 32-32 32h-256c-17.664 0-32-14.336-32-32s14.336-32 32-32H608V469.333c0-53.717 36.096-98.986 85.333-112.896V317.61c0-17.663 14.336-32 32-32zM672 469.334V832h106.667V469.333c0-29.44-23.894-53.333-53.334-53.333-29.44 0-53.333 23.893-53.333 53.333zm-512.213 46.294c-17.11 4.608-27.222 22.144-22.656 39.21 4.566 17.067 22.145 27.222 39.21 22.614l122.327-32.767v308.65c0 17.664 14.336 32 32 32s32-14.336 32-32v-308.65l122.325 32.768c17.11 4.61 34.645-5.546 39.21-22.613 4.566-17.066-5.546-34.602-22.613-39.21l-92.758-24.832c-33.877-9.088-68.693 10.837-78.165 44.5-9.472-33.663-44.288-53.588-78.166-44.5l-92.713 24.832z"/></svg>