<svg viewBox="0 0 1024 1024" xmlns="http://www.w3.org/2000/svg"><path d="M213.333 373.333c0-164.95 133.718-298.666 298.667-298.666 164.95 0 298.667 133.717 298.667 298.666 0 150.443-111.275 274.944-256 295.638v77.697h96c23.552 0 42.666 19.114 42.666 42.666 0 23.552-19.114 42.667-42.666 42.667h-96v74.667c0 23.552-19.115 42.666-42.667 42.666-23.552 0-42.667-19.114-42.667-42.666V832h-96c-23.552 0-42.666-19.115-42.666-42.667 0-23.552 19.114-42.666 42.666-42.666h96V668.97c-144.725-20.693-256-145.194-256-295.637zM512 160c-117.803 0-213.333 95.53-213.333 213.333S394.197 586.667 512 586.667s213.333-95.53 213.333-213.334C725.333 255.53 629.803 160 512 160z"/></svg>