<svg viewBox="0 0 1024 1024" xmlns="http://www.w3.org/2000/svg"><path d="M810.667 421.29v48.043h64v85.334h-64v64h-85.334v-64h-64v-85.334h64V421.29c-73.6-18.943-128-85.76-128-165.29 0-94.25 76.416-170.667 170.667-170.667 94.25 0 170.667 76.416 170.667 170.667 0 79.53-54.4 146.347-128 165.29zM768 341.334c47.147 0 85.333-38.186 85.333-85.333S815.147 170.667 768 170.667 682.667 208.853 682.667 256s38.186 85.333 85.333 85.333zM320 192c0-35.328 28.672-64 64-64s64 28.672 64 64v33.75c62.55 25.3 106.667 86.613 106.667 158.25v384H576c35.328 0 64 28.672 64 64s-28.672 64-64 64H192c-35.328 0-64-28.672-64-64s28.672-64 64-64h21.333V384c0-71.637 44.118-132.95 106.667-158.25zm149.333 576V384c0-47.147-38.186-85.333-85.333-85.333S298.667 336.853 298.667 384v384z"/></svg>