<svg viewBox="0 0 1024 1024" xmlns="http://www.w3.org/2000/svg"><path d="M851.797 307.413c5.035-10.666 7.51-19.584 8.363-26.58 1.664-13.654-2.56-18.86-7.083-22.102-6.826-4.863-22.528-10.24-50.09-6.442-24.918 3.413-56.278 14.037-91.648 34.9 4.735 25.9 2.047 52.225-2.988 75.308-9.13 41.984-28.46 84.95-43.52 118.06l-1.664 3.71c-7.168 15.745-13.14 28.886-17.536 40.065-4.224 10.838-5.29 15.873-5.547 17.11-.085.3-.085.384-.085.256v.256c0 32.683 0 93.525-2.73 149.12-1.323 27.776-3.414 55.296-6.742 77.78-1.62 11.137-3.712 22.188-6.528 31.83-2.26 7.766-6.912 21.89-17.493 32.726-14.422 14.72-33.878 21.803-54.528 17.835-16-3.03-28.204-12.118-33.964-16.555-2.048-1.58-4.18-3.285-6.016-4.78-1.835 1.495-3.968 3.2-6.016 4.78-5.76 4.437-17.963 13.525-33.963 16.555-20.65 3.968-40.105-3.115-54.527-17.835-10.58-10.837-15.232-24.96-17.493-32.725-2.816-9.643-4.907-20.694-6.528-31.83-3.328-22.485-5.42-50.005-6.74-77.78C384 635.476 384 574.634 384 541.952v-.257c0 .128 0 .043-.085-.256-.256-1.237-1.323-6.272-5.547-17.11-4.395-11.22-10.368-24.32-17.536-40.063l-1.664-3.712c-15.06-33.11-34.39-76.075-43.52-118.06-4.95-22.74-7.637-48.64-3.2-74.154-36.14-21.63-68.224-32.596-93.568-36.052-27.563-3.797-43.264 1.58-50.09 6.443-4.523 3.243-8.79 8.45-7.126 22.102.853 6.997 3.37 15.915 8.405 26.58-17.195 3.415-34.518 11.308-49.622 26.37-8.32 8.362-14.464 17.407-18.86 26.71-13.44-23.553-21.844-46.807-24.617-69.335-4.99-41.002 9.43-78.42 42.24-101.888 30.507-21.803 70.785-27.094 111.275-21.547 38.443 5.29 80.81 20.736 124.246 46.464 35.33-29.74 88.747-42.54 157.27-42.54 67.968 0 121.045 12.588 156.373 41.814 43.008-25.3 84.95-40.49 123.008-45.737 40.492-5.547 80.77-.256 111.276 21.546 32.81 23.466 47.232 60.885 42.24 101.887-2.773 22.528-11.18 45.782-24.62 69.334-4.393-9.3-10.537-18.346-18.857-26.71-15.105-15.06-32.428-22.953-49.623-26.367zm-446.805-23.338c-8.79 10.282-12.97 28.032-5.973 60.33 6.868 31.66 22.185 66.432 37.844 100.864l1.92 4.266c6.827 15.02 13.78 30.25 19.03 43.733 5.205 13.354 11.52 31.36 11.52 48.426 0 32.853 0 91.86 2.602 145.195 1.152 23.638 2.816 45.355 5.035 62.806 7.85-4.82 20.01-10.624 35.03-10.624s27.18 5.803 35.03 10.624c2.218-17.45 3.882-39.168 5.034-62.805 2.603-53.333 2.603-112.34 2.603-145.194 0-17.067 6.314-35.072 11.52-48.427 5.248-13.483 12.202-28.715 19.03-43.734l1.92-4.267c15.658-34.433 30.975-69.206 37.844-100.865 7-32.298 2.817-50.048-6.015-60.33C609.323 272.853 582.74 256.98 512 256.98c-70.74 0-97.323 15.873-107.008 27.095zm136.192 495.488c-.043.085-.128.213-.128.213-.043.128-.085.17-.085.17s.086-.085.214-.383zM864.94 395.776c5.12 23.936-9.516 59.435-38.956 88.875-37.504 37.462-84.78 50.987-105.6 30.166-20.82-20.82-7.34-68.096 30.165-105.6 27.39-27.392 59.99-41.984 83.71-39.723 1.068.086 2.177.214 3.2.384 7.383 1.238 13.783 4.267 18.69 9.174 4.48 4.48 7.38 10.155 8.79 16.726zm-677.335-26.283c-1.066.086-2.176.214-3.2.384-7.38 1.238-13.78 4.267-18.688 9.174-4.48 4.48-7.38 10.155-8.79 16.726-5.12 23.98 9.516 59.435 38.956 88.875 37.504 37.462 84.778 50.987 105.6 30.166 20.82-20.82 7.296-68.096-30.166-105.6-27.392-27.392-59.99-41.984-83.712-39.723z"/></svg>