<svg viewBox="0 0 1024 1024" xmlns="http://www.w3.org/2000/svg"><path d="M784.853 408.107c0 60.416-49.62 109.44-110.848 109.44-61.184 0-110.805-49.024-110.805-109.44 0-60.46 49.62-109.44 110.805-109.44 61.227 0 110.848 48.98 110.848 109.44zM512 938.667c-235.648 0-426.667-191.02-426.667-426.667 0-235.648 191.02-426.667 426.667-426.667 235.648 0 426.667 191.02 426.667 426.667 0 235.648-191.02 426.667-426.667 426.667zm0-85.334c188.5 0 341.333-152.832 341.333-341.333 0-188.5-152.832-341.333-341.333-341.333-37.205 0-73.003 5.93-106.496 16.938 8.277 19.328 19.243 46.763 30.208 79.616 11.563 34.775-8.66 61.228-26.624 76.588-17.963 15.403-42.752 28.203-63.36 38.656l-5.163 2.603c-20.266 10.282-36.736 18.602-48.042 27.008-2.944 2.176-4.907 3.925-6.187 5.205.94 2.26 1.75 3.54 2.22 4.18.68.172 1.96.385 4.18.64.427.087.98.13 1.62.172 5.08.512 16.684 1.62 27.18 6.528 14.507 6.7 25.003 18.603 31.872 34.86 5.973 14.25 17.707 41.087 30.464 70.015 3.413 4.01 6.315 8.533 8.533 13.568l48.598 109.952c30.592-3.798 53.034-15.062 68.522-27.904l-1.28.214c-26.752 3.883-52.437-11.82-60.8-37.163L411.82 484.524c-9.516-28.758 6.4-59.648 35.497-68.992 29.1-9.386 60.374 6.315 69.846 35.03l21.12 63.915 43.562-6.4c24.918-3.627 49.195 9.77 59.094 32.64 11.86 27.477 9.684 57.344 2.132 82.133-7.85 25.685-22.827 50.944-43.605 72.875-42.41 44.63-109.782 76.202-197.035 71.893-21.035-1.067-39.637-13.74-48.043-32.768l-43.435-98.26-24.96 8.148c-29.056 9.387-60.374-6.272-69.888-34.987-9.515-28.715 6.314-59.606 35.413-69.035l57.387-18.56c-6.016-13.824-11.094-25.6-14.464-33.622-.342-.81-.64-1.408-.896-1.877h-.043c-1.408-.213-2.517-.34-4.352-.555-1.024-.084-2.22-.212-3.797-.425-7.34-.854-20.95-2.603-34.006-11.947-13.355-9.557-21.93-23.85-27.563-41.216-5.42-16.597-2.22-32.3 5.12-44.928 6.656-11.477 16.512-20.31 25.514-26.965 16-11.82 37.505-22.7 56.236-32.172l6.1-3.072c22.017-11.18 39.596-20.65 50.69-30.165 4.82-4.138 6.74-6.87 7.423-8.106-10.198-30.507-20.353-55.98-28.033-73.9-105.045 58.2-176.17 170.2-176.17 298.796 0 188.5 152.832 341.333 341.333 341.333zM288.896 421.93l.128.13s-.043-.087-.128-.13z"/></svg>