<svg viewBox="0 0 1024 1024" xmlns="http://www.w3.org/2000/svg"><path d="M848.896 657.323c12.203 19.285 19.072 40.362 23.125 63.402 7.425 42.795-1.79 76.203-15.103 106.283-14.336 32.427-37.205 60.075-66.218 79.787-28.972 19.712-62.807 30.634-97.75 31.744-34.475 1.108-65.665-5.548-100.14-24.96-16.213-9.09-30.165-18.775-42.794-31.36-12.63-12.503-22.443-26.497-31.787-42.497-8.747-14.976-16.77-30.38-21.974-47.787-5.376-18.005-7.21-36.224-5.973-56.832 1.536-25.045 6.784-48.34 18.133-70.016 11.35-21.632 27.435-39.04 47.06-54.23 1.665-1.322 3.415-2.474 5.207-3.455l3.456-403.115c.383-48.853 29.61-100.992 84.905-113.75 12.075-2.773 26.283-5.205 40.15-5.205 13.653 0 27.605 2.347 39.51 5.078 55.807 12.758 85.034 65.58 85.034 114.774V618.58c13.78 11.095 25.64 23.64 35.156 38.743zM643.5 636.075c-.172 21.76-16.47 39.552-37.207 41.728l-.554.426c-12.63 9.77-19.67 18.39-24.108 26.794-4.395 8.363-7.467 19.157-8.448 35.285-.725 11.946.384 19.882 2.517 26.922 2.263 7.637 6.316 16.17 13.91 29.227 7.04 12.116 12.63 19.455 18.39 25.172 5.675 5.632 12.97 11.093 24.917 17.835 20.992 11.776 37.334 15.104 57.43 14.464 19.626-.64 38.357-6.783 54.272-17.578 15.913-10.837 28.585-26.07 36.607-44.16 9.045-20.523 12.586-36.14 9.002-56.66-2.646-15.19-6.443-24.92-11.137-32.385-4.736-7.467-11.818-15.02-24.277-23.723-5.76-4.053-10.155-9.26-13.184-15.104-6.784-7.51-10.923-17.58-10.923-28.63H643.5zm45.695-466.048c-5.163 0-12.63.98-21.803 3.114-9.515 2.177-20.053 13.015-20.224 31.873l-2.944 346.027h86.485V505.6h-29.654c-17.195 0-31.147-14.25-31.147-31.787 0-17.536 13.95-31.744 31.146-31.744h29.653v-44.843h-29.654c-17.237 0-31.147-14.208-31.147-31.744s13.91-31.744 31.146-31.744h29.653v-47.32h-29.654c-17.195 0-31.147-14.207-31.147-31.743 0-17.536 13.95-31.744 31.146-31.744h29.653v-17.75c0-19.028-10.667-29.994-20.182-32.17-9.003-2.048-16.3-2.986-21.333-2.986zm-378.155 150.4c-7.04-14.336-21.42-23.424-37.12-23.424-15.744 0-30.123 9.088-37.163 23.424l-83.03 169.344c-6.442 13.1-5.76 28.715 1.793 41.174 7.595 12.5 20.95 20.096 35.328 20.096h41.557v169.344c0 23.38 18.56 42.325 41.515 42.325 22.912 0 41.515-18.945 41.515-42.326V551.04h41.514c14.42 0 27.775-7.595 35.327-20.096 7.595-12.46 8.278-28.075 1.835-41.173L311.04 320.428z"/></svg>