<svg viewBox="0 0 1024 1024" xmlns="http://www.w3.org/2000/svg"><path d="M696.277 187.648c-4.48 10.07-8.362 20.01-11.69 29.78-50.646-29.695-109.61-46.76-172.587-46.76-159.19 0-292.95 109.012-330.71 256.425-39.423 3.286-73.77 24.406-94.933 55.296C101.547 260.564 286.293 85.332 512 85.332c75.648 0 146.73 19.712 208.34 54.23-10.24 18.986-18.26 34.986-24.063 48.085zM711.21 410.58c4.822 5.335 9.814 10.24 14.934 14.636-2.176 1.152-4.437 2.304-6.74 3.37-21.804 10.113-50.476 16.77-81.708 8.406-31.19-8.363-52.736-28.46-66.517-48.128-13.612-19.413-21.12-40.277-23.98-54.87l62.805-12.287c1.28 6.57 5.504 18.944 13.568 30.378 7.85 11.222 17.963 19.67 30.72 23.083 10.496 2.816 21.206 1.75 31.616-1.92 6.442 13.312 14.89 25.77 25.3 37.333zM512 938.668c-186.624 0-345.26-119.808-403.2-286.72 22.4 19.157 51.456 30.72 83.2 30.72 7.893 0 15.616-.726 23.125-2.09C273.835 783.743 384.81 853.332 512 853.332c188.5 0 341.333-152.832 341.333-341.333 0-20.693-1.834-41.003-5.376-60.672 23.168-6.87 43.862-20.437 62.166-40.747 4.48-4.99 8.576-10.11 12.33-15.444 10.582 37.163 16.214 76.33 16.214 116.864 0 235.648-191.02 426.667-426.667 426.667zm-97.963-616.96c-1.28 6.57-5.504 18.944-13.525 30.378-7.893 11.222-17.963 19.67-30.72 23.083-12.757 3.413-25.728 1.152-38.144-4.608-12.672-5.93-22.528-14.507-26.923-19.584l-48.256 42.07c9.77 11.178 26.666 25.514 48.213 35.54 21.76 10.113 50.474 16.77 81.664 8.406 31.232-8.363 52.736-28.46 66.56-48.128 13.61-19.413 21.077-40.277 23.936-54.87l-62.806-12.287zm-30.25 254.08c34.005-34.006 80.128-53.12 128.213-53.12 48.085 0 94.208 19.114 128.213 53.12 34.006 34.005 53.12 80.128 53.12 128.213v32H330.667v-32c0-11.18 1.024-22.23 3.03-33.024l-98.945-42.453C222.165 635.82 207.572 640 192 640c-47.147 0-85.333-38.187-85.333-85.333 0-47.147 38.186-85.334 85.333-85.334 46.89 0 84.95 37.846 85.333 84.608l91.222 39.127c4.693-6.06 9.77-11.82 15.232-17.28zM510.635 672h114.26c-5.418-19.115-15.658-36.693-29.908-50.987-22.016-21.973-51.883-34.346-82.987-34.346-30.42 0-59.648 11.818-81.493 32.938l55.637 23.85c12.63 5.42 21.29 16.172 24.49 28.545zm300.032-288c-23.467 0-43.563-8.363-60.288-25.088-16.684-16.683-25.047-36.78-25.047-60.245 0-19.2 5.334-39.638 16-61.355C752 215.637 775.125 179.2 810.667 128c35.54 51.2 58.666 87.637 69.333 109.312 10.667 21.717 16 42.155 16 61.355 0 23.466-8.363 43.562-25.045 60.245C854.23 375.637 834.133 384 810.667 384z"/></svg>