<svg viewBox="0 0 1024 1024" xmlns="http://www.w3.org/2000/svg"><path d="M553.557 170.71c13.91 2.73 27.563 6.87 40.747 12.33 26.07 10.837 49.792 26.752 69.76 46.763 19.968 20.053 35.797 43.818 46.592 69.973 5.46 13.227 9.6 26.923 12.33 40.875.77 3.926 1.963 7.766 3.5 11.35 7.423 17.365 23.253 30.336 42.367 30.336 23.083 0 42.112-18.86 38.87-41.813-.726-5.376-1.622-10.752-2.688-16.086-.683-3.37-1.366-6.74-2.176-10.112-3.67-15.872-8.663-31.488-14.935-46.634-15.018-36.35-36.992-69.375-64.725-97.194-27.733-27.82-60.672-49.877-96.896-64.94-15.104-6.27-30.677-11.263-46.507-14.975-3.37-.767-6.698-1.492-10.07-2.175-5.332-1.066-10.666-1.962-16.042-2.73-22.87-3.2-41.685 15.872-41.685 39.04 0 19.157 12.928 35.03 30.208 42.453 3.627 1.58 7.424 2.773 11.35 3.54zM512 211.156c-94.25 0-170.667 76.587-170.667 171.136v171.222c0 7.808-.042 16-.128 24.234-.085 13.013-.17 26.11-.042 37.845.213 19.242.98 39.21 3.968 55.85 4.14 23.296 26.326 38.742 49.494 34.603 23.21-4.18 38.656-26.41 34.475-49.664-1.58-9.045-2.39-22.87-2.604-41.728-.128-11.264-.043-22.74.043-34.944.084-8.32.127-17.024.127-26.197V382.293c0-47.274 38.186-85.546 85.333-85.546 47.104 0 85.333 38.314 85.333 85.59v213.972c0 23.637 19.115 42.794 42.667 42.794 23.552 0 42.667-19.157 42.667-42.795V382.335c0-94.55-76.416-171.18-170.667-171.18zm0 128.384c23.552 0 42.667 19.16 42.667 42.796v213.93c0 15.787 4.18 38.4 16.298 55.723C581.333 666.88 600.02 681.9 640 681.9c23.552 0 42.667 19.156 42.667 42.793 0 23.638-19.115 42.795-42.667 42.795-66.688 0-112-27.776-138.965-66.39-25.216-36.18-31.702-77.78-31.702-104.79V382.337c0-23.637 19.115-42.795 42.667-42.795zM351.7 238.55c-2.644 2.986-5.588 5.63-8.788 7.978-15.19 11.093-35.413 14.165-51.84 4.395-19.84-11.82-26.624-37.803-12.203-55.85 3.413-4.268 6.91-8.406 10.538-12.46 2.26-2.56 4.608-5.12 6.997-7.594 11.264-11.777 23.467-22.657 36.566-32.47 13.1-9.814 26.923-18.56 41.345-26.07 3.072-1.58 6.144-3.115 9.258-4.608 4.864-2.347 9.856-4.523 14.848-6.613 21.377-8.79 44.29 5.033 50.007 27.476 4.736 18.56-3.883 37.12-18.816 48.64-3.07 2.39-6.485 4.48-10.07 6.23-12.8 6.1-25.044 13.525-36.436 22.1-11.435 8.534-21.93 18.22-31.403 28.843zm-53.033 100.99c0-23.636-19.115-42.793-42.667-42.793-23.552 0-42.667 19.157-42.667 42.794v299.564c0 43.18 9.302 86.187 27.648 125.91 28.716 62.122 77.74 112.51 138.967 142.762C441.173 938.07 510.89 946.39 577.45 931.37c45.953-10.325 88.45-31.36 124.33-60.97.94-.768 1.88-1.536 2.775-2.304 4.31-3.67 8.533-7.424 12.672-11.35 17.066-16.17 13.824-43.306-4.608-57.983-15.19-12.075-35.884-11.82-52.737-2.816-2.006 1.024-3.926 2.218-5.803 3.498-1.536 1.067-2.987 2.176-4.395 3.37-26.07 22.06-57.216 37.676-90.88 45.27-47.616 10.71-97.45 4.78-141.226-16.853-43.777-21.675-78.85-57.685-99.33-102.1-14.506-31.404-19.583-68.652-19.583-99.84.085-1.836.085-3.713 0-5.548V339.54zm512 128.385c0-23.637-19.115-42.794-42.667-42.794-23.552 0-42.667 19.158-42.667 42.795v256.768c0 23.638 19.115 42.795 42.667 42.795 23.552 0 42.667-19.157 42.667-42.795V467.925z"/></svg>