<svg viewBox="0 0 1024 1024" xmlns="http://www.w3.org/2000/svg"><path d="M618.453 174.464c.256-2.176 2.048-3.797 4.224-3.797h242.048c2.347 0 4.267 1.92 4.267 4.266V547.84c0 15.573 4.352 30.848 12.117 44.33 99.114 173.014 73.514 256.897-102.4 260.993-9.13.213-18.347-1.323-27.05-4.224l-102.487-34.135c-13.013-4.31-26.71-6.528-40.448-6.528h-53.93c-19.414 0-38.57 4.395-56.022 12.886l-39.594 19.285c-17.452 8.49-36.61 12.885-56.023 12.885h-90.965c-12.16 0-24.192-2.602-35.285-7.637l-14.38-6.528c-2.26-1.024-4.82-1.024-7.04 0l-14.42 6.528c-11.05 5.035-23.083 7.637-35.286 7.637h-45.31c-41.515 0-75.137-33.62-75.137-75.136 0-8.277 6.742-15.018 15.02-15.018h50.175c29.227 0 59.99-13.996 89.984-27.692 18.26-8.363 36.31-16.555 53.504-21.376 7.04-1.963 14.677-4.267 22.87-7.253 92.63-33.836 252.8-116.652 262.655-180.31zM798.38 598.272c-.215-17.664-14.72-31.83-32.385-31.616-17.664.256-31.83 14.763-31.574 32.427.257 21.59.172 35.797-4.48 47.274-3.37 8.363-10.452 18.432-34.303 25.77-16.896 5.164-26.41 23.084-21.248 39.98 5.205 16.896 23.082 26.368 39.978 21.205 39.424-12.117 63.275-34.133 74.923-63.02 9.77-24.276 9.43-50.687 9.13-68.905v-.043z"/></svg>