<svg viewBox="0 0 1024 1024" xmlns="http://www.w3.org/2000/svg"><path d="M618.667 128h42.666v296.533c12.16-12.16 25.515-23.253 39.936-33.11 8.405-5.76 16.64-10.88 24.79-15.402 26.836-29.993 33.663-62.08 29.396-83.497-2.26-11.52-7.51-20.01-14.592-25.728C733.824 261.12 722.347 256 704 256v-85.333c34.987 0 66.176 10.112 90.496 29.738 24.235 19.627 38.955 46.592 44.715 75.606 4.31 21.803 3.585 44.715-1.706 67.37 18.133-1.577 37.376-2.047 58.496-2.047v85.334c-54.827 0-86.656 3.456-118.144 18.56-.597.554-1.195 1.152-1.792 1.706l-.555-.554c-8.534 4.223-17.11 9.343-26.113 15.53-53.29 36.394-88.064 99.03-88.064 182.357V896H576V465.877c-16.085-21.12-31.53-32.47-43.18-36.906-7.21-2.73-12.372-2.645-16.17-1.706-1.75.427-3.84 1.195-6.23 2.603C511.446 435.67 512 441.685 512 448c0 22.955-2.39 87.125-64.17 122.368-10.283 5.888-18.433 15.787-24.15 27.99-5.93 12.586-7.68 24.15-7.68 28.67v82.305c0 79.488-64.47 144-144 144s-144-64.47-144-144v-83.285c0-13.056.043-44.288 14.037-84.352 14.038-40.15 41.387-87.296 93.184-134.613 57.303-52.352 121.047-72.022 174.977-64.086 17.664 2.603 34.987 8.576 50.22 17.622 10.836-7.468 22.783-13.015 35.754-16.215 22.827-5.632 45.74-3.242 66.86 4.78 4.394 1.663 8.703 3.583 12.97 5.674V128zM397.78 427.392c-23.807-3.5-62.76 4.096-105 42.71-41.56 37.93-60.887 73.13-70.188 99.754-9.26 26.496-9.26 46.38-9.26 56.064v83.413C213.333 741.717 239.617 768 272 768s58.667-26.283 58.667-58.667V627.03c0-18.22 5.034-42.113 15.786-65.025 10.966-23.296 29.526-48.853 59.05-65.706 17.836-10.2 21.164-28.588 21.164-48.3 0-4.14-3.5-16.853-28.886-20.608z"/></svg>