<svg viewBox="0 0 1024 1024" xmlns="http://www.w3.org/2000/svg"><path d="M512 256c82.475 0 149.333 66.86 149.333 149.333 0 82.475-66.858 149.334-149.333 149.334s-149.333-66.86-149.333-149.334S429.525 256 512 256zm-64 149.333c0 35.328 28.672 64 64 64s64-28.672 64-64-28.672-64-64-64-64 28.672-64 64zm64-320c178.005 0 320 148.608 320 329.046 0 93.396-51.797 187.263-109.44 268.2-39.424 55.297-85.76 109.996-126.165 157.612-18.774 22.187-36.31 42.795-51.2 61.27L512 942.59l-33.195-41.13c-14.89-18.475-32.426-39.126-51.2-61.27-40.405-47.616-86.784-102.315-126.165-157.61C243.797 601.64 192 507.775 192 414.378c0-180.44 141.995-329.047 320-329.047zM277.333 414.38c0 64.81 37.376 139.69 93.61 218.665 37.42 52.523 79.148 101.718 118.273 147.84 7.723 9.046 15.317 18.048 22.784 26.88 7.467-8.832 15.06-17.834 22.784-26.88 39.125-46.122 80.853-95.317 118.272-147.84 56.277-78.976 93.61-153.856 93.61-218.666 0-135.895-106.367-243.713-234.666-243.713-128.34 0-234.667 107.818-234.667 243.712z"/></svg>