<svg viewBox="0 0 1024 1024" xmlns="http://www.w3.org/2000/svg"><path d="M512 362.667c53.035 0 96-42.966 96-96 0-53.035-42.965-96-96-96s-96 42.965-96 96c0 53.034 42.965 96 96 96zm192 320l-71.38-203.99c51.796-10.282 91.476-25.045 111.785-35.2 21.078-10.538 29.61-36.138 19.072-57.216-10.538-21.076-36.138-29.61-57.216-19.07-22.74 11.35-98.73 38.143-194.26 38.143-95.53 0-171.52-26.794-194.26-38.144-21.08-10.54-46.68-2.006-57.217 19.07-10.54 21.08-2.006 46.68 19.072 57.217 20.31 10.155 59.99 24.918 111.786 35.2L320 682.667S446.805 704 512 704s192-21.333 192-21.333zM384 736l106.667 10.667-13.782 68.95c-4.394 21.93-23.637 37.716-45.994 37.716-25.898 0-46.89-20.992-46.89-46.89V736zm256 0l-106.667 10.667 13.782 68.95c4.394 21.93 23.637 37.716 45.994 37.716 25.898 0 46.89-20.992 46.89-46.89V736z"/></svg>