<svg viewBox="0 0 1024 1024" xmlns="http://www.w3.org/2000/svg"><path d="M170.795 768.213c-2.347-2.645-4.65-5.504-6.827-8.533-5.675-7.936-12.544-18.603-19.755-31.232-10.922-18.56-20.522-38.016-28.586-58.24-10.582-25.472-19.542-53.205-23.894-80.256-9.685-60.16-6.314-101.46-4.608-122.795l.043-.597c.384-4.864 1.195-9.6 2.304-14.208C118.485 244.95 296.62 85.332 512 85.332c68.82 0 133.803 16.3 191.36 45.228.512.213 1.024.47 1.536.683 23.424 10.71 47.488 26.538 70.016 44.672C874.582 254.037 938.667 375.552 938.667 512c0 40.576-5.675 79.872-16.256 117.077-4.18 16.512-10.197 37.29-26.88 71.68-18.773 38.784-32.554 57.088-44.373 72.747l-1.62 2.176c-4.225 5.632-9.09 10.624-14.422 14.976C756.865 881.28 641.11 938.666 512 938.666c-139.477 0-263.34-66.943-341.205-170.453zm671.274-257.11c3.84 0 7.594.257 11.263.726-.042-47.318-9.685-92.33-27.093-133.29-9.045 5.716-19.328 9.897-30.677 11.988l-158.25 29.397c-42.71 7.936-84.78-16.682-98.774-57.813l-27.436-80.683c-13.525-39.68 3.072-83.37 39.51-104.15l6.442-3.67c-14.763-1.962-29.78-2.943-45.056-2.943-143.317 0-265.984 88.32-316.587 213.46h139.99c40.96 0 76.714 27.777 86.826 67.457l21.247 83.285c14.422 56.66-28.373 111.743-86.826 111.743h-4.31l-31.273 90.198c-5.334 15.36-14.678 28.374-26.454 38.358 59.05 48.81 134.784 78.165 217.387 78.165 77.995 0 149.888-26.154 207.36-70.186-3.5-3.67-6.656-7.638-9.472-11.947l-43.093-65.664c-15.872-5.205-39.723-12.672-50.262-26.112-.298-.384-.597-.768-.896-1.11-15.146-19.327-19.242-24.575-5.504-72.96l6.4-27.86c4.267-18.73 5.163-35.542 20.78-55.723 13.695-11.007 37.588-10.837 56.49-10.71 2.048.044 4.053.044 5.973.044zM238.08 715.692l53.504-154.41h70.57l-23.423-91.82H173.27c-1.707 13.953-2.603 28.12-2.603 42.54 0 45.056 8.746 88.107 24.618 127.488 6.87 16.3 14.592 31.66 21.888 44.587 6.358 10.922 13.355 21.504 20.907 31.616zm430.55-507.05c-.427 0-.81.085-1.153.3l-74.624 42.495c-.896.512-1.322 1.578-.98 2.517l27.434 80.683c.34.98 1.365 1.62 2.39 1.408l158.25-29.398c1.578-.298 2.26-2.09 1.322-3.37-15.574-20.566-36.865-42.24-59.222-60.33-16.64-13.014-34.517-24.534-53.42-34.305zm111.7 514.347c26.966-34.22 47.49-73.728 59.82-116.736l.853-3.413c.47-1.92.98-3.882 1.493-5.888.043-.257-.17-.513-.427-.513H699.732l-.042.043-6.357 27.904v.043l.086.042 22.015.042c.128 0 .256.043.34.17z"/></svg>