<svg viewBox="0 0 1024 1024" xmlns="http://www.w3.org/2000/svg"><path d="M303.787 425.387c12.5-12.502 32.768-12.502 45.226 0L371.67 448c12.5 12.5 12.5 32.768 0 45.27-12.502 12.5-32.77 12.5-45.27 0l-22.613-22.657c-12.502-12.5-12.502-32.725 0-45.226zM326.4 532.053c12.5-12.5 32.768-12.5 45.27 0 12.5 12.502 12.5 32.726 0 45.227l-22.657 22.656c-12.5 12.5-32.725 12.5-45.226 0-12.502-12.5-12.502-32.768 0-45.27l22.613-22.613zm10.624-274.133c-1.45-1.11-4.053-1.92-12.885-1.92-23.553 0-42.668-19.115-42.668-42.667 0-23.552 19.115-42.666 42.667-42.666h.937c9.472-.043 38.06-.128 63.66 19.413 19.71 14.976 32.51 37.163 38.57 65.92 35.072.34 63.36 28.885 63.36 64v384c0 35.328-28.672 64-64 64-4.992 0-9.942-.128-14.848-.427-.257 1.707-.428 3.286-.6 4.736 14.38 6.826 24.28 21.46 24.193 38.357-.085 23.51-19.328 42.538-42.965 42.538-18.987 0-36.992-7.38-49.707-22.442-11.433-13.568-15.487-29.568-16.81-42.368-1.28-12.8-.213-26.454 2.433-39.936-5.29-2.22-10.496-4.61-15.574-7.127-3.798 3.328-8.705 5.334-14.123 5.334-11.776 0-21.334-9.558-21.334-21.334 0-1.706.17-3.37.555-4.95-2.475-1.834-4.95-3.668-7.424-5.546-10.88.982-19.328 5.675-26.283 12.246-8.575 8.02-13.61 17.834-15.145 22.528-7.552 22.315-31.744 34.347-54.06 26.838-22.356-7.51-34.346-31.7-26.836-54.06 6.527-19.412 25.727-54.27 61.012-75.348-3.797-6.1-7.34-12.33-10.58-18.73-2.092.64-4.31 1.023-6.572 1.023-11.776 0-21.333-9.557-21.333-21.333 0-8.363 4.778-15.573 11.776-19.072-2.262-7.083-4.182-14.25-5.76-21.59-4.523-1.11-6.656-.64-7.083-.51-2.22.468-5.376 2.004-13.312 8.96-17.75 15.615-44.8 13.993-60.416-3.543-15.616-17.578-13.91-44.458 3.84-60.032 9.045-7.978 26.197-22.698 51.243-28.33 7.082-1.622 14.25-2.39 21.504-2.347.937-7.98 2.26-15.83 3.924-23.552-9.173-2.39-15.957-10.71-15.957-20.65 0-11.777 9.557-21.334 21.333-21.334 2.475 0 4.82.427 7.04 1.195 2.39-5.93 4.95-11.776 7.765-17.494-1.536-1.833-2.944-3.796-4.18-5.93-6.358-10.922-15.404-16.64-25.772-19.71-11.306-3.287-22.442-2.732-27.434-1.708-23.127 4.693-45.825-10.155-50.647-33.195-4.778-22.997 10.07-45.482 33.195-50.176 17.237-3.497 42.71-4.137 68.864 3.543 19.84 5.802 40.832 16.725 58.283 35.285 6.656-6.4 13.61-12.416 20.864-18.09-1.964-3.2-3.073-6.998-3.073-11.05 0-11.777 9.557-21.335 21.333-21.335 7.21 0 13.61 3.584 17.493 9.13 11.947-6.442 24.49-11.988 37.504-16.468-.554-2.006-1.11-3.67-1.664-5.078-2.09-5.29-4.01-6.74-4.31-6.997zM256 512c0 87.04 65.152 158.848 149.333 169.344V342.656C321.153 353.152 256 424.96 256 512zm464.213-86.613c-12.5-12.502-32.725-12.502-45.226 0L652.33 448c-12.5 12.5-12.5 32.768 0 45.27 12.502 12.5 32.77 12.5 45.27 0l22.613-22.657c12.502-12.5 12.502-32.725 0-45.226zM697.6 532.053c-12.5-12.5-32.768-12.5-45.27 0-12.5 12.502-12.5 32.726 0 45.227l22.657 22.656c12.5 12.5 32.725 12.5 45.226 0 12.502-12.5 12.502-32.768 0-45.27L697.6 532.054zm149.76-75.22c4.14.895 6.23.468 6.827.34 2.517-.554 5.888-2.304 13.525-8.96 17.75-15.616 44.757-13.994 60.416 3.542 15.616 17.578 13.91 44.458-3.84 60.032-9.344 8.234-26.624 22.784-51.755 28.373-6.87 1.536-13.91 2.304-20.992 2.304-.937 7.936-2.26 15.744-3.88 23.467 9.385 2.22 16.34 10.667 16.34 20.737 0 11.776-9.557 21.333-21.333 21.333-2.603 0-5.12-.47-7.424-1.323-2.39 5.974-4.992 11.862-7.808 17.622 1.536 1.833 2.944 3.796 4.18 5.93 6.358 10.922 15.404 16.64 25.772 19.71 11.306 3.287 22.442 2.732 27.434 1.708 23.127-4.693 45.825 10.155 50.604 33.195 4.82 22.997-10.027 45.482-33.195 50.176-17.195 3.497-42.667 4.137-68.822-3.543-19.797-5.802-40.832-16.725-58.283-35.285-6.528 6.315-13.397 12.288-20.565 17.877 2.005 3.242 3.2 7.125 3.2 11.263 0 11.776-9.557 21.334-21.333 21.334-7.296 0-13.74-3.67-17.622-9.26-12.032 6.486-24.66 12.076-37.802 16.598.554 2.006 1.11 3.67 1.664 5.078 2.09 5.29 4.01 6.74 4.31 6.997 1.45 1.11 4.052 1.92 12.884 1.92 23.553 0 42.668 19.115 42.668 42.667 0 23.552-19.115 42.666-42.667 42.666h-.937c-9.472.043-38.06.128-63.66-19.413-19.71-14.976-32.51-37.163-38.57-65.92-35.072-.34-63.36-28.885-63.36-64V320c0-35.328 28.672-64 64-64 4.992 0 9.942.128 14.848.427.257-1.707.428-3.286.6-4.736-14.38-6.826-24.28-21.46-24.193-38.357.085-23.51 19.328-42.538 42.965-42.538 18.987 0 36.992 7.38 49.707 22.442 11.433 13.568 15.487 29.61 16.81 42.368 1.28 12.8.213 26.41-2.433 39.936 5.376 2.263 10.667 4.652 15.872 7.255 3.754-3.414 8.79-5.462 14.25-5.462 11.776 0 21.333 9.558 21.333 21.334 0 1.792-.213 3.54-.64 5.205 2.39 1.75 4.736 3.5 7.083 5.29 10.88-.98 19.328-5.674 26.283-12.245 8.575-8.064 13.61-17.834 15.145-22.528 7.552-22.315 31.744-34.347 54.06-26.838 22.356 7.51 34.346 31.7 26.836 54.06-6.527 19.412-25.727 54.27-61.012 75.348 3.84 6.144 7.38 12.416 10.667 18.86 2.176-.77 4.48-1.153 6.912-1.153 11.776 0 21.333 9.557 21.333 21.333 0 8.49-4.95 15.83-12.117 19.243 2.218 7.082 4.138 14.25 5.717 21.59zM768 512c0-87.04-65.152-158.848-149.333-169.344v338.688C702.847 670.848 768 599.04 768 512z"/></svg>