<svg viewBox="0 0 1024 1024" xmlns="http://www.w3.org/2000/svg"><path d="M307.712 458.112c3.797-11.392 12.075-29.1 23.595-43.264 11.946-14.677 22.74-20.18 31.36-20.18 8.618 0 19.413 5.503 31.36 20.18 11.52 14.165 19.797 31.872 23.594 43.264l60.716-20.224c-5.632-17.024-17.28-42.027-34.645-63.403-16.98-20.864-44.16-43.818-81.023-43.818-36.864 0-64.043 22.954-81.024 43.818-17.408 21.376-28.97 46.38-34.688 63.403l60.757 20.224zm298.624 0c3.84-11.392 12.117-29.1 23.637-43.264 11.947-14.677 22.742-20.18 31.36-20.18 8.62 0 19.414 5.503 31.36 20.18 11.52 14.165 19.798 31.872 23.595 43.264l60.757-20.224c-5.717-17.024-17.322-42.027-34.73-63.403-16.94-20.864-44.118-43.818-80.982-43.818s-64.042 22.954-81.024 43.818c-17.366 21.376-29.014 46.38-34.646 63.403l60.672 20.224zM736 544v32c0 59.392-23.595 116.395-65.62 158.38C628.394 776.404 571.39 800 512 800c-59.392 0-116.395-23.595-158.38-65.62C311.596 692.394 288 635.39 288 576v-32zm-380.757 64c6.23 30.507 21.29 58.795 43.605 81.152C428.885 719.147 469.548 736 512 736c42.453 0 83.115-16.853 113.152-46.848 22.315-22.357 37.376-50.645 43.605-81.152zM512 85.333c235.648 0 426.667 191.02 426.667 426.667 0 235.648-191.02 426.667-426.667 426.667-235.648 0-426.667-191.02-426.667-426.667 0-235.648 191.02-426.667 426.667-426.667zM170.667 512c0 188.5 152.832 341.333 341.333 341.333 188.5 0 341.333-152.832 341.333-341.333 0-188.5-152.832-341.333-341.333-341.333-188.5 0-341.333 152.832-341.333 341.333z"/></svg>