<svg viewBox="0 0 1024 1024" xmlns="http://www.w3.org/2000/svg"><path d="M512 597.333c47.147 0 85.333-38.186 85.333-85.333S559.147 426.667 512 426.667 426.667 464.853 426.667 512s38.186 85.333 85.333 85.333zM628.395 444.8c-11.776-20.437-28.758-37.376-49.152-49.195l82.09-142.25c25.13 14.506 47.915 32.512 67.67 53.418 15.957 16.896 29.952 35.627 41.642 55.894 11.734 20.266 20.95 41.77 27.563 64 8.235 27.562 12.46 56.32 12.46 85.333H646.4c0-23.595-6.187-46.763-18.005-67.2zM377.6 511.957c0-23.552 6.23-46.72 18.005-67.157 11.776-20.437 28.758-37.42 49.195-49.195l-82.133-142.25c-25.13 14.506-47.915 32.512-67.67 53.418-15.957 16.896-29.952 35.627-41.642 55.894-11.734 20.266-20.95 41.77-27.563 64-8.235 27.562-12.46 56.32-12.46 85.333l164.268-.043zM512 646.4c23.595 0 46.763-6.187 67.157-17.963l82.176 142.208c-25.13 14.507-52.138 25.216-80.128 31.915-22.57 5.376-45.78 8.107-69.205 8.107-23.424 0-46.635-2.73-69.205-8.107-27.99-6.7-54.998-17.408-80.128-31.915l82.133-142.25c20.437 11.818 43.605 18.005 67.2 18.005zm0 292.267c-235.648 0-426.667-191.02-426.667-426.667 0-235.648 191.02-426.667 426.667-426.667 235.648 0 426.667 191.02 426.667 426.667 0 235.648-191.02 426.667-426.667 426.667zm0-85.334c188.5 0 341.333-152.832 341.333-341.333 0-188.5-152.832-341.333-341.333-341.333-188.5 0-341.333 152.832-341.333 341.333 0 188.5 152.832 341.333 341.333 341.333z"/></svg>