<svg viewBox="0 0 1024 1024" xmlns="http://www.w3.org/2000/svg"><path d="M527.744 97.237c-11.093-13.78-31.232-15.914-44.97-4.778-13.782 11.092-15.915 31.23-4.822 44.97l19.67 24.362-28.843 4.267c-9.217 1.364-19.97 6.57-26.497 17.492-7.34 12.33-6.614 28.245 2.9 40.02l51.073 63.19c11.093 13.782 31.232 15.915 45.013 4.78 13.738-11.094 15.87-31.233 4.778-44.97l-19.67-24.364 28.843-4.267c9.217-1.364 19.97-6.57 26.497-17.492 7.34-12.33 6.614-28.245-2.9-40.02l-51.073-63.19zm69.59 308.096c0 47.147-38.187 85.334-85.334 85.334-47.104 0-85.333-38.187-85.333-85.334 0-47.146 38.23-85.333 85.333-85.333 47.147 0 85.333 38.187 85.333 85.333zm-241.025-39.936c22.058 8.278 33.237 32.854 24.96 54.912l-38.017 101.46 55.083-9.173c5.29-.896 10.58-.768 15.53.256l5.42.555c4.906.47 9.642 1.792 14.08 3.883l42.026 19.97c23.168 11.007 50.048 11.007 73.216 0l42.027-19.97c4.437-2.09 9.216-3.413 14.08-3.882l5.418-.555c4.95-1.024 10.24-1.152 15.574-.256l55.04 9.174-38.016-101.46c-8.277-22.06 2.902-46.635 24.96-54.913 22.06-8.277 46.635 2.902 54.913 24.96L784 554.112c12.715 33.835-16 68.693-51.627 62.763L640 601.472v101.035l64 42.666c15.66 10.41 23.552 29.184 20.096 47.702l-20.82 110.976c-4.353 23.17-26.625 38.443-49.793 34.09-23.168-4.35-38.443-26.665-34.09-49.79l16.127-86.06L576 789.334c-42.41-6.528-85.59-6.528-128 0l-59.52 12.758 16.128 86.06c4.352 23.125-10.923 45.44-34.09 49.79-23.126 4.353-45.44-10.92-49.793-34.09l-20.82-110.975c-3.457-18.518 4.436-37.29 20.095-47.702l64-42.666V601.472l-92.373 15.403C256 622.805 227.285 587.947 240 554.112l61.397-163.755c8.278-22.058 32.854-33.237 54.912-24.96zM263.764 98.86c11.307-13.57 31.488-15.447 45.1-4.14l68.01 56.576c10.837 9.003 14.89 22.784 12.117 35.328-2.688 12.032-10.965 21.035-20.864 25.557l-31.403 14.423 33.963 28.245c13.568 11.307 15.445 31.445 4.14 45.056-11.308 13.568-31.49 15.445-45.057 4.14l-68.053-56.535c-10.837-9.046-14.89-22.827-12.074-35.37 2.645-12.033 10.922-21.036 20.82-25.56l31.404-14.42-33.92-28.245c-13.61-11.264-15.446-31.446-4.182-45.056zm451.414-4.14c13.567-11.307 33.748-9.43 45.055 4.14 11.306 13.61 9.43 33.79-4.14 45.055l-33.962 28.245 31.403 14.42c9.9 4.524 18.176 13.527 20.82 25.56 2.817 12.543-1.236 26.324-12.073 35.37l-68.054 56.533c-13.57 11.306-33.75 9.43-45.057-4.14-11.306-13.61-9.43-33.748 4.14-45.055l33.962-28.245-31.403-14.422c-9.9-4.52-18.176-13.524-20.864-25.556-2.773-12.544 1.28-26.325 12.117-35.328L715.18 94.72z"/></svg>