<svg viewBox="0 0 1024 1024" xmlns="http://www.w3.org/2000/svg"><path d="M554.667 554.667v170.666h-85.334V554.667H298.667v-85.334h170.666V298.667h85.334v170.666h170.666v85.334H554.667zM511.872 64h1.237c.426.043.895.043 1.407.043.982.085 2.134.128 3.456.256 2.646.255 5.974.68 9.9 1.45 7.85 1.45 18.26 4.138 31.103 8.96 25.728 9.642 61.227 27.775 106.624 61.823 33.707 25.26 88.62 40.107 140.715 47.958 25.088 3.755 47.744 5.633 64.128 6.57 8.192.47 14.72.727 19.157.812 2.22.085 3.883.085 4.992.128h44.075v320c0 70.656-28.928 134.016-68.267 187.605-39.38 53.547-90.88 99.755-140.8 137.174-50.09 37.588-99.968 67.37-137.13 87.68-18.646 10.153-34.262 18.047-45.27 23.423-5.504 2.688-9.856 4.736-12.885 6.186-1.536.682-2.73 1.237-3.584 1.62l-.98.427-.17.086C524.116 958.677 518.1 960 512 960c-5.547 0-11.22-1.067-16.64-3.37l-.94-.427-.17-.086-.98-.426c-.854-.383-2.05-.938-3.585-1.62-3.03-1.45-7.38-3.5-12.885-6.187-11.008-5.376-26.624-13.27-45.27-23.424-37.162-20.31-87.04-50.092-137.13-87.68-49.92-37.42-101.42-83.628-140.8-137.175-39.34-53.59-68.267-116.95-68.267-187.605V192h44.074c1.11-.043 2.774-.043 4.993-.128 4.437-.085 10.965-.34 19.157-.81 16.384-.94 39.04-2.817 64.128-6.57 52.096-7.852 107.008-22.7 140.715-47.96 45.355-34.047 80.896-52.18 106.624-61.823 12.843-4.822 23.253-7.51 31.104-8.96 3.925-.77 7.253-1.195 9.9-1.45 1.32-.13 2.473-.172 3.455-.257.512 0 .98 0 1.408-.043h.982zM170.667 512c0 46.677 19.072 92.672 51.712 137.088s77.14 84.864 123.22 119.467c45.91 34.39 92.032 61.994 126.848 81.024 16.128 8.788 29.696 15.7 39.552 20.52 9.856-4.82 23.424-11.732 39.552-20.52 34.816-19.03 80.94-46.636 126.848-81.025 46.08-34.603 90.58-75.05 123.22-119.467 32.64-44.416 51.713-90.41 51.713-137.088V275.456c-16.682-1.195-37.248-3.243-59.648-6.613-54.57-8.15-127.658-25.302-179.285-64.043-39.936-29.952-68.437-43.82-85.376-50.176-8.49-3.2-14.08-4.48-16.896-5.035h-.256c-2.816.554-8.405 1.834-16.896 5.034-16.94 6.357-45.44 20.224-85.376 50.176-51.627 38.74-124.715 55.893-179.285 64.043-22.4 3.37-42.966 5.418-59.648 6.613z"/></svg>