<svg viewBox="0 0 1024 1024" xmlns="http://www.w3.org/2000/svg"><path d="M682.667 298.667c0 94.25-76.416 170.666-170.667 170.666-94.25 0-170.667-76.416-170.667-170.666S417.75 128 512 128c94.25 0 170.667 76.416 170.667 170.667zm-32 490.666v-42.666H608v-64h42.667V640h64v42.667h42.666v64h-42.666v42.666h-64zM128 715.82C128 603.263 219.264 512 331.82 512c12.884 0 25.6 2.987 37.12 8.747l4.735 2.39c41.472 20.735 87.21 31.53 133.59 31.53h9.47c46.38 0 92.118-10.795 133.59-31.53l4.736-2.39c11.52-5.76 24.236-8.747 37.12-8.747C804.737 512 896 603.264 896 715.82V896H128zm203.264-118.487c-65.195.3-117.93 53.248-117.93 118.486v94.847h597.333V715.82c0-65.24-52.736-118.188-117.93-118.487l-4.268 2.134C635.18 626.133 576.383 640 516.735 640h-9.472c-59.648 0-118.443-13.867-171.733-40.533z"/></svg>