<svg viewBox="0 0 1024 1024" xmlns="http://www.w3.org/2000/svg"><path d="M512 901.248l-19.755-10.112-.64-.34c-.554-.257-1.322-.684-2.26-1.196-1.964-1.024-4.694-2.475-8.15-4.437-6.912-3.84-16.768-9.515-28.758-16.854-23.936-14.72-56.66-36.395-92.16-64.427-70.144-55.382-154.58-138.326-199.85-244.31l-.214-.426-.17-.427C149.547 532.608 128 465.75 128 406.06c0-69.505 21.675-137.388 59.733-188.887C225.92 165.547 282.923 128 352 128c26.54 0 51.2 9.387 71.595 20.437 20.693 11.264 39.85 25.9 56.106 40.107 11.99 10.496 22.913 21.248 32.3 31.06 9.387-9.812 20.31-20.564 32.3-31.06 16.255-14.208 35.412-28.843 56.105-40.107C620.8 137.387 645.46 128 672 128c69.077 0 126.08 37.547 164.267 89.173C874.325 268.673 896 336.555 896 406.06c0 73.428-19.712 130.473-33.28 155.56-45.483 105.004-129.28 187.265-198.997 242.263-35.5 28.032-68.224 49.706-92.16 64.426-11.99 7.338-21.846 13.013-28.758 16.853-3.456 1.962-6.186 3.413-8.15 4.437-.938.512-1.706.94-2.26 1.195l-.64.34-.214.13-.04.042zm-255.66-633.3c-26.41 35.668-43.007 85.503-43.007 138.11 0 43.606 16.896 98.305 25.728 120.406 37.207 86.784 108.8 158.933 174.124 210.475 32.3 25.513 62.208 45.268 83.925 58.665 5.546 3.37 10.538 6.358 14.89 8.918 4.352-2.56 9.344-5.547 14.89-8.918 21.718-13.397 51.627-33.152 83.926-58.666 65.408-51.628 137.13-123.948 174.293-210.903l.98-2.26 1.238-2.134c5.717-10.027 23.34-53.675 23.34-115.584 0-52.61-16.6-102.444-43.01-138.113-26.282-35.542-59.946-54.614-95.658-54.614-6.87 0-17.152 2.646-30.805 10.07-13.312 7.253-27.264 17.62-40.704 29.354-26.88 23.552-47.914 49.195-53.418 56.107-17.963 22.613-52.18 22.613-70.144 0-5.504-6.912-26.54-32.555-53.42-56.107-13.44-11.733-27.39-22.1-40.703-29.354-13.653-7.424-23.936-10.07-30.805-10.07-35.712 0-69.376 19.072-95.66 54.614z"/></svg>