<svg viewBox="0 0 1024 1024" xmlns="http://www.w3.org/2000/svg"><path d="M244.18 293.803l-12.03 30.08c19.327 2.944 36.82 7.85 51.626 15.658 14.933 7.895 28.032 19.244 37.035 34.817 8.833 15.446 11.99 32.086 11.99 48.043 0 23.552-19.115 42.667-42.667 42.667-23.552 0-42.666-19.115-42.666-42.667 0-3.456-.47-4.992-.64-5.46-.3-.3-1.11-.983-2.944-1.964-8.576-4.523-28.032-9.216-67.328-9.6-32.3-.34-55.68-33.11-43.18-64.384l39.724-99.328c4.01-9.94 11.988-19.84 24.32-25.344 22.228-9.856 48.468-9.3 70.655-5.46 23.552 4.095 48.853 12.97 72.704 26.068 47.017 25.77 95.316 72.192 106.623 140.075 3.882 23.21-11.82 45.226-35.072 49.066-23.21 3.882-45.226-11.82-49.066-35.073-5.59-33.408-30.464-61.14-63.53-79.274-16.13-8.875-32.555-14.38-46.25-16.768-3.585-.64-6.657-.982-9.303-1.152zM596.82 342.4c-39.977 26.112-60.33 55.637-64.767 73.344-5.76 22.87-28.928 36.736-51.797 30.976-22.87-5.76-36.693-28.928-30.976-51.797 11.69-46.294 51.03-91.435 100.907-123.99 51.328-33.493 119.338-57.6 196.48-57.6H848.64c26.155 0 47.36 21.206 47.36 47.36v119.34c0 22.527-16.555 44.116-41.9 46.932-14.633 1.58-32.383.81-47.87.17h-.043c-.683-.042-1.323-.084-2.006-.084-17.45-.767-35.455-1.535-54.313-.81-37.675 1.45-74.795 8.747-106.752 31.104-19.286 13.525-45.867 8.832-59.392-10.453-13.526-19.327-8.832-45.91 10.496-59.434 50.857-35.627 106.623-44.757 152.36-46.507 22.53-.854 43.564.042 60.545.81h.726c.982.043 1.92.085 2.817.128v-43.22h-64c-59.392 0-111.318 18.6-149.846 43.732zM461.57 195.67l13.056 44.117c5.205 17.578-.3 36.565-14.123 48.64l-48.425 42.368c-17.707 15.488-44.672 13.696-60.203-4.054-15.488-17.705-13.696-44.67 4.053-60.2l29.91-26.156-16.982-57.344c-7.38-24.832 6.827-50.944 31.66-58.325L524.16 88.107c24.875-7.34 50.987 6.826 58.325 31.7l19.072 64.3 76.502 32.64c21.673 9.258 31.785 34.304 22.527 55.978-9.26 21.675-34.304 31.787-55.98 22.528l-93.183-39.722c-12.843-5.503-22.613-16.426-26.58-29.866l-13.27-44.8zM854.1 498.815c1.495 73.26-21.972 159.275-46.42 220.928-27.947 70.315-83.243 124.46-137.9 160.597-53.545 35.33-114.004 58.327-157.78 58.327-43.86 0-92.416-20.95-133.547-46.38-42.325-26.196-83.413-61.183-112.853-97.322-30.464-37.376-73.045-118.357-89.045-197.12-8.022-39.51-10.41-83.498 3.114-122.752 14.506-41.984 46.08-74.837 96.51-89.43 64.855-18.73 129.836-16.51 184.236-5.076 37.205 7.808 71.296 20.31 98.304 34.944 60.97-53.845 106.368-74.197 160.085-74.197 6.187 0 12.203.342 18.048.982 9.216-.64 18.73-.982 28.587-.982 19.456 0 35.883 13.056 41.003 30.848 6.784 6.06 12.885 12.972 18.304 20.695 21.59 30.72 28.586 69.504 29.354 105.94zm-411.22-34.73c-43.82-9.174-94.336-10.497-143.02 3.583-23.465 6.783-34.004 19.242-39.508 35.242-6.485 18.773-6.74 45.44-.17 77.952 13.226 65.195 49.834 133.547 71.55 160.17 22.743 27.905 56.32 56.875 91.607 78.678 36.48 22.57 68.52 33.62 88.66 33.62 20.224 0 64.085-13.353 110.72-44.2 45.483-30.04 86.187-71.895 105.643-120.876 22.4-56.49 41.6-130.475 40.405-187.69-.597-28.8-6.272-47.873-13.824-58.667-4.18-5.89-10.07-11.223-21.035-13.74-71.425 7.21-106.027 39.083-123.905 73.984-19.584 38.23-22.656 87.253-16.768 131.243l91.69 9.856-9.087 84.864-84.864-9.13-9.088 84.863-84.864-9.13L510.25 671.7c.257-2.687.77-5.247 1.494-7.764-1.75-9.3-3.2-19.115-4.267-29.312-13.27-.256-32.938 3.37-49.962 19.5l-5.376 5.076-23.34 62.38-79.915-29.953 22.272-59.435-50.218-16.98 27.348-80.855 87.765 29.696c.683.256 1.366.47 2.048.768 24.492-11.903 49.153-15.743 69.975-15.444 2.517-19.072 6.826-38.23 13.44-56.917-18.134-10.327-45.355-21.377-78.635-28.375z"/></svg>