<svg viewBox="0 0 1024 1024" xmlns="http://www.w3.org/2000/svg"><path d="M566.23 237.824c3.285-13.74 15.274-23.68 29.397-24.448 14.122-.768 27.093 7.893 31.83 21.205L714.964 480c31.19-.043 50.944-5.803 71.894-21.504 6.143-7.595 13.567-14.165 21.93-19.285l1.877-1.877v.768c12.544-7.295 27.136-11.433 42.666-11.433 47.147 0 85.334 38.186 85.334 85.333s-38.187 85.333-85.334 85.333c-15.53 0-30.122-4.138-42.666-11.434v.767l-1.878-1.878c-7.937-4.865-14.977-10.923-20.907-18.006-19.414-14.08-37.632-18.9-64.64-19.67h-29.74c-13.524 0-25.6-8.49-30.122-21.247l-60.073-168.534-103.21 428.8c-3.33 13.824-15.36 23.808-29.526 24.49-14.165.726-27.135-8.02-31.83-21.418l-120.49-345.13-32.47 82.73c-4.777 12.246-16.64 27.862-29.78 27.862H85.333v-64h148.864L290.22 340.31c4.863-12.46 17.023-20.566 30.377-20.31 13.398.256 25.216 8.832 29.61 21.46l113.11 323.927L566.23 237.824z"/></svg>