<svg viewBox="0 0 1024 1024" xmlns="http://www.w3.org/2000/svg"><path d="M299.008 267.947C272.598 303.617 256 353.45 256 406.06c0 19.24 3.285 40.617 7.723 60.457h-87.04c-3.627-19.754-6.016-40.49-6.016-60.458 0-69.505 21.674-137.388 59.733-188.887C268.587 165.547 325.59 128 394.667 128c26.538 0 51.2 9.387 71.594 20.437 20.695 11.264 39.852 25.9 56.108 40.107 11.99 10.496 22.912 21.248 32.3 31.06 9.385-9.812 20.308-20.564 32.297-31.06 16.256-14.208 35.414-28.843 56.107-40.107C663.467 137.387 688.128 128 714.667 128c69.077 0 126.08 37.547 164.266 89.173 38.06 51.5 59.734 119.382 59.734 188.886 0 73.428-19.712 130.473-33.28 155.56-45.483 105.004-129.28 187.265-198.998 242.263-35.5 28.032-68.225 49.706-92.16 64.426-11.99 7.338-21.846 13.013-28.758 16.853-3.456 1.92-6.187 3.413-8.15 4.437-.938.512-1.706.94-2.26 1.195l-.64.34-.214.13-.043.042-19.498 9.94-19.456-9.94-.085-.043-.213-.128-.64-.34c-.555-.257-1.323-.684-2.26-1.196-1.964-1.024-4.695-2.517-8.15-4.437-6.913-3.84-16.77-9.515-28.758-16.854-23.936-14.72-56.66-36.395-92.16-64.427-52.31-41.302-112.597-97.963-158.677-168.064h106.24c32.64 39.124 69.888 73.13 105.344 101.12 32.3 25.513 62.21 45.31 83.926 58.665 5.547 3.37 10.54 6.358 14.89 8.918 4.353-2.56 9.345-5.547 14.89-8.918 21.72-13.354 51.628-33.152 83.927-58.666 65.408-51.628 137.13-123.948 174.293-210.903l.98-2.26 1.24-2.134c5.716-10.027 23.337-53.675 23.337-115.584 0-52.61-16.597-102.444-43.008-138.113-26.282-35.542-59.946-54.614-95.658-54.614-6.87 0-17.152 2.646-30.806 10.07-13.31 7.253-27.263 17.62-40.703 29.354-26.88 23.552-47.914 49.195-53.418 56.107-17.964 22.613-52.183 22.613-70.145 0-5.504-6.912-26.54-32.555-53.42-56.107-13.44-11.733-27.39-22.1-40.703-29.354-13.653-7.424-23.936-10.07-30.805-10.07-35.712 0-69.376 19.072-95.66 54.614zM186.41 509.184h152.107L434.347 352l65.834 161.92 31.66-46.72h150.827v83.968H577.493l-96.34 142.165-62.166-152.96-32.17 52.78H85.332v-83.97H186.41z"/></svg>