<svg viewBox="0 0 1024 1024" xmlns="http://www.w3.org/2000/svg"><path d="M682.667 896H85.333v-85.333h597.334V896zm128-682.667H85.333V128h725.334v85.333zM724.224 436.01c-3.968 71.17-18.816 143.915-48.128 203.094C640.94 710.187 580.864 768 490.666 768h-290.73c-33.536 0-71.04-21.077-79.19-62.592-12.03-61.483-.298-141.525 66.73-209.536 65.836-66.816 180.183-117.12 363.48-133.035l.34-.042 299.008-21.334 6.06 85.08zm-85.888 6.145l-80.3 5.717c-172.585 15.06-263.85 61.27-309.8 107.904-42.327 42.965-50.263 90.283-44.844 126.89h287.275c46.336 0 82.26-27.52 108.97-81.407 21.504-43.48 34.347-99.97 38.7-159.105zM898.9 384l41.388-110.293-79.915-29.995L807.765 384l52.608 140.245 79.915-29.952L898.9 384zM512 298.667C512 275.115 492.885 256 469.333 256c-23.552 0-42.666 19.115-42.666 42.667v256H213.333c-23.552 0-42.666 19.114-42.666 42.666 0 23.552 19.114 42.667 42.666 42.667h213.334C473.813 640 512 601.813 512 554.667v-256z"/></svg>