<svg viewBox="0 0 1024 1024" xmlns="http://www.w3.org/2000/svg"><path d="M810.667 213.333H85.333V128h725.334v85.333zM682.667 896H85.333v-85.333h597.334V896zm257.62-622.293L898.902 384l41.388 110.293-79.915 29.952-35.797-95.402-100.352 7.168c-3.968 71.17-18.816 143.915-48.128 203.094C640.896 710.187 580.864 768 490.666 768H199.894c-33.493 0-71.04-21.077-79.146-62.592-12.032-61.483-.3-141.525 66.688-209.536 49.493-50.22 126.336-91.05 239.232-115.03v-82.175c0-23.552 19.114-42.667 42.666-42.667C492.885 256 512 275.115 512 298.667v68.18c12.63-1.535 25.6-2.858 38.955-4.01l.34-.042 271.702-19.414 37.376-99.668zM426.625 597.333v-128s-53.333 11.648-85.333 25.6c-40.32 17.58-106.623 59.734-136.533 102.4z"/></svg>