<svg viewBox="0 0 1024 1024" xmlns="http://www.w3.org/2000/svg"><path d="M512 128c-84.395 0-166.87 25.003-237.056 71.893-23.34 15.616-44.97 33.408-64.64 53.078-39.424 39.425-70.955 86.4-92.5 138.41-21.548 52.012-32.47 107.52-32.47 163.287 0 27.818 2.73 55.68 8.19 83.242 16.47 82.773 57.09 158.762 116.78 218.453l30.165 30.165 103.295-103.296-60.33-60.33-41.088 41.045c-32.342-41.686-54.742-90.496-65.11-142.678-1.578-7.98-2.9-15.958-3.882-23.937H256V512h-82.645c3.797-30.08 11.562-59.648 23.296-87.936 11.734-28.33 27.137-54.74 45.697-78.677L268.5 371.5l21.335 21.332 60.33-60.33-47.445-47.49c6.357-4.905 12.928-9.64 19.627-14.164 44.245-29.525 94.592-48.256 146.986-54.827v61.313h85.334V216.02c52.394 6.572 102.74 25.303 146.986 54.828 6.7 4.523 13.27 9.26 19.627 14.165L673.835 332.5l60.33 60.332 47.488-47.445c18.56 23.936 33.963 50.346 45.696 78.677 11.733 28.288 19.54 57.856 23.295 87.936H768v85.333h82.645c-.98 7.98-2.304 15.958-3.882 23.936-10.368 52.18-32.768 100.99-65.11 142.677L740.565 722.9l-60.33 60.332L783.53 886.528l30.166-30.165c59.69-59.69 100.31-135.68 116.78-218.454 5.46-27.563 8.19-55.425 8.19-83.243 0-55.766-10.922-111.275-32.47-163.286-21.545-52.01-53.076-98.985-92.5-138.41-19.67-19.67-41.3-37.46-64.64-53.077C678.87 153.003 596.396 128 512 128zm30.165 396.5c-16.64-16.68-43.69-16.68-60.33 0-16.683 16.64-16.683 43.692 0 60.332l128 128c16.64 16.683 43.69 16.683 60.33 0 16.683-16.64 16.683-43.69 0-60.33l-128-128z"/></svg>