<svg viewBox="0 0 1024 1024" xmlns="http://www.w3.org/2000/svg"><path d="M426.667 341.333C426.667 294.187 464.853 256 512 256s85.333 38.187 85.333 85.333c0 47.147-38.186 85.334-85.333 85.334s-85.333-38.187-85.333-85.334zM819.2 896H204.8c-42.41 0-76.8-36.864-76.8-82.347V370.517c0-28.586 13.824-55.125 36.523-70.1l307.2-160.172c24.704-16.34 55.85-16.34 80.554 0l307.2 160.17c22.7 14.977 36.523 41.516 36.523 70.102v443.136C896 859.136 861.61 896 819.2 896zm0-525.483L512 210.347l-307.2 160.17v443.136h186.496c-6.528-43.818-12.63-88.32-12.63-88.32H320c-11.776 0-21.376-9.6-20.95-21.333 4.993-133.248 58.41-234.667 212.95-234.667S719.957 570.753 724.95 704c.426 11.733-9.174 21.333-20.95 21.333h-58.667s-6.1 44.502-12.63 88.32H819.2zM549.76 791.04c2.944-19.883 5.717-39.253 7.723-53.632 1.024-7.168 1.834-13.14 2.432-17.28l.896-6.4c5.12-37.42 34.05-66.432 70.23-72.533-5.717-22.614-13.824-39.51-23.34-51.5-13.95-17.578-38.91-35.028-95.7-35.028-56.79 0-81.75 17.45-95.7 35.03-9.516 11.988-17.623 28.884-23.34 51.498 36.18 6.1 65.11 35.114 70.272 72.576l.853 6.4c.598 4.14 1.408 10.027 2.432 17.195 2.006 14.38 4.736 33.707 7.68 53.547.982 6.613 1.963 13.27 2.944 19.755h69.72c.98-6.486 1.96-13.056 2.9-19.627z"/></svg>