<svg viewBox="0 0 1024 1024" xmlns="http://www.w3.org/2000/svg"><path d="M810.667 512c0 164.95-133.718 298.667-298.667 298.667-164.95 0-298.667-133.718-298.667-298.667 0-164.95 133.718-298.667 298.667-298.667 164.95 0 298.667 133.718 298.667 298.667zm-85.334 0c0-117.803-95.53-213.333-213.333-213.333S298.667 394.197 298.667 512 394.197 725.333 512 725.333 725.333 629.803 725.333 512zm213.334 0c0 235.648-191.02 426.667-426.667 426.667-235.648 0-426.667-191.02-426.667-426.667 0-235.648 191.02-426.667 426.667-426.667 235.648 0 426.667 191.02 426.667 426.667zm-85.334 0c0-188.5-152.832-341.333-341.333-341.333-188.5 0-341.333 152.832-341.333 341.333 0 188.5 152.832 341.333 341.333 341.333 188.5 0 341.333-152.832 341.333-341.333z"/></svg>