<svg viewBox="0 0 1024 1024" xmlns="http://www.w3.org/2000/svg"><path d="M924.33 454.87c17.622 15.786 19.2 42.965 3.542 60.714-15.616 17.75-42.624 19.37-60.203 3.584l-14.337-12.843v367.83c0 35.626-28.672 64.512-64 64.512H234.667c-35.328 0-64-28.886-64-64.512v-367.83l-14.336 12.843c-17.578 15.787-44.543 14.165-60.202-3.584-15.66-17.75-14.08-44.928 3.54-60.715L512 85.332zM768 429.866l-256-229.42-256 229.42V852.65h512zM341.333 541.14c0-61.567 38.272-118.655 90.667-118.655 34.475 0 60.5 22.998 77.312 56.363 1.11 2.176 4.267 2.176 5.376 0 16.81-33.365 42.837-56.363 77.312-56.363 52.395 0 90.667 57.088 90.667 118.656C682.667 672.94 512 766.593 512 766.593s-114.944-59.264-156.16-156.5c-2.987-7-5.547-14.167-7.68-21.505-4.352-15.062-6.827-30.89-6.827-47.446z"/></svg>