<svg viewBox="0 0 1024 1024" xmlns="http://www.w3.org/2000/svg"><path d="M251.264 170.667c0-47.147 38.23-85.334 85.333-85.334H673.45c47.147 0 85.334 38.187 85.334 85.334v158.42h94.55c47.146 0 85.333 38.188 85.333 85.334v396.503c0 47.104-38.187 85.333-85.334 85.333H170.667c-47.147 0-85.334-38.23-85.334-85.333V414.42c0-47.145 38.187-85.332 85.334-85.332h80.597zm507.52 640.256h94.55V414.42h-94.55zm-507.52 0V414.42h-80.597v396.503zM576.98 614.827H431.318v201.3H576.98zm-30.164-393.174h-85.333v64.512H396.97V371.5h64.513v64.51h85.333V371.5h64.512v-85.335h-64.512z"/></svg>