<svg viewBox="0 0 1024 1024" xmlns="http://www.w3.org/2000/svg"><path d="M554.667 286.123V221.61h-85.334v64.513H404.82v85.333h64.513v64.427h85.334v-64.427h64.512v-85.333h-64.513zM170.667 896c-47.147 0-85.334-38.187-85.334-85.29V414.335c0-47.147 38.187-85.333 85.334-85.333h87.594v-158.38c0-47.103 38.188-85.29 85.335-85.29h336.81c47.147 0 85.334 38.187 85.334 85.29v158.38h87.593c47.104 0 85.334 38.186 85.334 85.333V810.71c0 47.103-38.23 85.29-85.334 85.29zm232.02-85.333v-232.49h218.625v232.49h59.093v-640h-336.81v640zm-144.426-396.33h-87.593v396.33l2.26.042h85.334zm507.48 396.372h87.593V414.335H765.74zm-290.092-.897h72.66V662.187h-72.66z"/></svg>