<svg viewBox="0 0 1024 1024" xmlns="http://www.w3.org/2000/svg"><path d="M426.667 298.667h-85.334v426.666h85.334V554.667h170.666v170.666h85.334V298.667h-85.334v170.666H426.667V298.667zm512 213.333c0 235.648-191.02 426.667-426.667 426.667-235.648 0-426.667-191.02-426.667-426.667 0-235.648 191.02-426.667 426.667-426.667 235.648 0 426.667 191.02 426.667 426.667zm-85.334 0c0-188.5-152.832-341.333-341.333-341.333-188.5 0-341.333 152.832-341.333 341.333 0 188.5 152.832 341.333 341.333 341.333 188.5 0 341.333-152.832 341.333-341.333z"/></svg>