<svg viewBox="0 0 1024 1024" xmlns="http://www.w3.org/2000/svg"><path d="M853.333 597.632H896c23.552 0 42.667 19.115 42.667 42.667 0 23.593-19.115 42.665-42.667 42.665h-42.667C853.248 800.725 757.76 896.128 640 896.128H387.157c-117.76 0-213.248-95.403-213.333-213.163H128c-23.552 0-42.667-19.072-42.667-42.666 0-23.553 19.115-42.668 42.667-42.668h45.824v-.043h679.51zM768 682.965H259.157c.086 70.614 57.344 127.83 128 127.83H640c70.656 0 127.915-57.216 128-127.83zm-216.49-497.92l-18.09 26.368c-18.647 27.222-20.14 49.28-17.324 65.58 3.03 17.407 11.563 30.932 17.237 39.167.3.427.598.853.94 1.323 6.783 9.77 20.778 29.866 25.855 58.41 5.504 30.976.043 67.968-25.77 110.38L517.76 513.62l-54.7-33.236 16.64-27.35c18.817-30.975 19.84-52.31 17.41-65.962-2.603-14.55-9.686-24.832-16.257-34.304l-.128-.17c-7.253-10.497-22.186-33.323-27.648-64.64-5.674-32.47-.682-71.51 27.563-112.726l18.09-26.368zm-204.417 66.432l-18.09 26.368c-13.014 18.987-13.74 33.707-11.904 44.118 2.004 11.562 7.72 20.736 11.817 26.71.256.34.512.682.768 1.066 5.206 7.508 16.683 23.977 20.864 47.36 4.522 25.6-.17 55.55-20.566 89.172l-16.64 27.35-54.7-33.238 16.64-27.35c13.484-22.186 13.697-36.48 12.247-44.757-1.663-9.3-6.186-15.914-11.22-23.168-5.718-8.278-17.835-26.71-22.273-52.14-4.608-26.623-.426-58.325 22.187-91.306l18.133-26.41zm408.62 0l-18.092 26.368c-13.012 18.987-13.737 33.707-11.945 44.118 2.048 11.562 7.722 20.736 11.86 26.71.214.34.47.682.726 1.066 5.25 7.508 16.727 23.977 20.865 47.36 4.566 25.6-.128 55.55-20.565 89.172l-16.597 27.35-54.7-33.238 16.598-27.35c13.484-22.186 13.74-36.48 12.247-44.757-1.664-9.3-6.144-15.914-11.18-23.168-5.716-8.278-17.834-26.71-22.27-52.14-4.652-26.623-.428-58.325 22.186-91.306l18.09-26.41z"/></svg>