<svg viewBox="0 0 1024 1024" xmlns="http://www.w3.org/2000/svg"><path d="M592.853 663.595c10.496 21.077 1.963 46.677-19.114 57.216l-42.668 21.334c-13.227 6.613-28.928 5.93-41.515-1.835-12.544-7.81-20.224-21.505-20.224-36.31V554.667c-15.658 0-30.677-8.662-38.144-23.595-10.54-21.077-2.006-46.677 19.07-57.216l42.668-21.333c13.227-6.614 28.928-5.93 41.515 1.834 12.586 7.808 20.224 21.504 20.224 36.31V640c15.658 0 30.677 8.66 38.186 23.595zM512 405.333c35.328 0 64-28.672 64-64s-28.672-64-64-64-64 28.672-64 64 28.672 64 64 64zm0 533.334c-235.648 0-426.667-191.02-426.667-426.667 0-235.648 191.02-426.667 426.667-426.667 235.648 0 426.667 191.02 426.667 426.667 0 235.648-191.02 426.667-426.667 426.667zm0-85.334c188.5 0 341.333-152.832 341.333-341.333 0-188.5-152.832-341.333-341.333-341.333-188.5 0-341.333 152.832-341.333 341.333 0 188.5 152.832 341.333 341.333 341.333z"/></svg>