<svg viewBox="0 0 1024 1024" xmlns="http://www.w3.org/2000/svg"><path d="M431.872 152.533h37.333c62.806 0 113.664 50.902 113.664 113.664v287.02c0 62.762-50.86 113.663-113.665 113.663h-16c-5.248 17.62-21.59 30.464-40.917 30.464h-7.637v23.38c.854 11.436 3.798 22.743 8.662 33.367 5.93 12.843 14.592 24.534 25.515 34.347 10.922 9.814 23.893 17.622 38.144 22.955 14.294 5.333 29.57 8.064 45.014 8.064 15.445 0 30.72-2.73 45.013-8.064 14.25-5.333 27.222-13.14 38.144-22.955 10.924-9.813 19.585-21.504 25.473-34.346 4.907-10.623 7.85-21.887 8.704-33.365V469.333c0-16.81 3.286-33.45 9.728-48.98 6.443-15.532 15.872-29.654 27.776-41.516 11.863-11.904 25.985-21.333 41.516-27.776 15.53-6.4 32.17-9.727 48.98-9.727 16.812 0 33.452 3.328 48.983 9.728 15.53 6.444 29.652 15.873 41.513 27.777 11.904 11.862 21.334 25.984 27.776 41.515 6.4 15.53 9.727 32.17 9.727 48.98V512h-85.333v-42.667h.043c0-5.632-1.11-11.178-3.243-16.34-2.133-5.206-5.29-9.9-9.26-13.868-3.967-3.968-8.66-7.125-13.865-9.258-5.164-2.134-10.753-3.243-16.343-3.243-5.632 0-11.178 1.11-16.34 3.243-5.206 2.133-9.9 5.29-13.868 9.258-3.97 3.968-7.126 8.662-9.26 13.867-2.133 5.163-3.242 10.71-3.242 16.34h.043v256h-.426c-1.408 19.927-6.485 39.553-15.02 58.07-10.153 22.145-25.087 42.24-43.903 59.18-18.815 16.938-41.172 30.378-65.748 39.55-24.62 9.132-50.944 13.868-77.568 13.868-26.624 0-52.992-4.736-77.568-13.867-24.576-9.173-46.933-22.613-65.75-39.552-18.815-16.937-33.75-37.033-43.946-59.177-8.49-18.518-13.568-38.144-14.976-58.07h-.427v-27.99H298.58c-19.327 0-35.668-12.842-40.873-30.463h-16.043C178.9 666.88 128 615.98 128 553.216v-287.02c0-62.76 50.9-113.663 113.664-113.663h37.333C300.33 137.26 326.57 128 355.457 128c28.842 0 55.082 9.26 76.415 24.533zm-35.413 85.334c-8.193-14.678-23.468-24.534-41.004-24.534-17.536 0-32.853 9.856-41.045 24.534h-72.746c-15.66 0-28.33 12.714-28.33 28.33v187.307c4.31-.256 9.13-.64 14.463-1.28 25.984-3.115 63.958-11.563 109.056-33.365 61.74-29.868 116.48-24.193 155.563-10.2 1.75.64 3.456 1.28 5.12 1.92V266.198c0-15.616-12.672-28.33-28.33-28.33zM496.64 507.52l.085.043.086.128.13.086-.087-.043c-.128-.128-.554-.47-1.152-.98-1.236-1.025-3.412-2.69-6.313-4.694-5.93-4.012-14.72-9.09-25.77-13.057-21.334-7.638-51.84-11.606-89.6 6.656-54.4 26.324-101.676 37.16-136.065 41.3-9.173 1.067-17.408 1.707-24.62 2.005v14.25c0 15.66 12.673 28.332 28.332 28.332h227.54c15.66 0 28.332-12.672 28.332-28.33v-46.72c-.94.98-.896.98-.896 1.023zm356.01 47.147s-18.773 20.053-34.73 46.805c-11.86 19.84-22.187 43.392-22.187 65.237 0 32.383 25.472 58.623 56.918 58.623 31.403 0 56.875-26.24 56.875-58.624 0-21.846-10.325-45.398-22.144-65.238-16-26.752-34.73-46.805-34.73-46.805z"/></svg>