<svg viewBox="0 0 1024 1024" xmlns="http://www.w3.org/2000/svg"><path d="M360.363 224.555l82.944 116.778H768c70.7 0 128 57.302 128 128 0 37.93-16.47 71.98-42.667 95.403v117.93H896V768h-54.1c7.295 12.544 11.433 27.136 11.433 42.667C853.333 857.813 815.147 896 768 896s-85.333-38.187-85.333-85.333c0-15.53 4.138-30.123 11.434-42.667H329.9c7.295 12.544 11.433 27.136 11.433 42.667C341.333 857.813 303.147 896 256 896s-85.333-38.187-85.333-85.333c0-15.53 4.138-30.123 11.434-42.667H128v-85.333h42.667V399.573l-19.03-26.794c-40.917-57.6-27.392-137.516 30.25-178.476 57.6-40.917 137.516-27.392 178.476 30.25zM221.227 323.37L355.2 512H768c23.552 0 42.667-19.115 42.667-42.667 0-23.552-19.115-42.666-42.667-42.666H399.275L290.773 273.963c-13.653-19.2-40.277-23.723-59.477-10.07-19.2 13.654-23.723 40.278-10.07 59.478zM768 597.334H311.125L256 519.723v162.944h512z"/></svg>