<svg viewBox="0 0 1024 1024" xmlns="http://www.w3.org/2000/svg"><path d="M425.387 170.667c0-23.552-19.072-42.667-42.667-42.667-23.552 0-42.667 19.115-42.667 42.667v46.037h-43.05c-93.355 0-169.003 75.648-169.003 168.96 0 50.517 22.144 95.83 57.26 126.805C150.143 543.7 128 589.27 128 640v6.485c0 94.25 76.416 170.667 170.667 170.667h42.666v36.18C341.333 876.886 360.448 896 384 896c23.552 0 42.667-19.115 42.667-42.667v-36.18c0-47.105-38.187-85.334-85.334-85.334h-42.666c-47.147 0-85.334-38.188-85.334-85.335V640c0-47.147 38.187-85.333 85.334-85.333h128c23.552 0 42.666-19.115 42.666-42.667 0-23.552-19.114-42.667-42.666-42.667H297.003c-46.208 0-83.67-37.46-83.67-83.67 0-46.164 37.462-83.626 83.67-83.626h43.05c47.147 0 85.334-38.186 85.334-85.333v-46.037zM512 128c23.552 0 42.667 19.115 42.667 42.667V256c0 38.1-12.502 73.3-33.622 101.717 57.728 27.392 97.622 86.187 97.622 154.283 0 69.845-41.942 129.877-102.016 156.288 23.04 29.14 36.822 65.963 36.78 106.027l-.086 78.848c-.043 23.552-19.157 42.624-42.752 42.624-23.552-.043-42.624-19.158-42.58-42.752l.084-78.848c.043-47.19-38.23-85.462-85.46-85.42l-40.876.044c-23.552.043-42.667-19.03-42.71-42.623v-.384c-.255-1.92-.383-3.84-.383-5.803 0-23.552 19.114-42.667 42.666-42.667H448c47.147 0 85.333-38.186 85.333-85.333S495.147 426.667 448 426.667H341.333c-23.552 0-42.666-19.115-42.666-42.667 0-23.552 19.114-42.667 42.666-42.667H384c47.147 0 85.333-38.186 85.333-85.333v-85.333C469.333 147.115 488.448 128 512 128zm111.915 66.26c-15.275 8.876-20.48 28.46-11.563 43.735 8.875 15.274 28.46 20.437 43.733 11.562l60.33-35.114 10.668 68.138c4.394 28.204 35.754 43.137 60.416 28.76l90.025-52.396c15.275-8.875 20.48-28.46 11.563-43.733-8.875-15.274-28.46-20.48-43.733-11.562l-60.33 35.115-10.668-68.14c-4.394-28.202-35.754-43.135-60.416-28.8l-90.025 52.438zm48.34 251.01c-2.26-17.537 10.113-33.58 27.65-35.84l99.37-12.8c28.074-3.627 51.114 21.93 44.63 49.493l-15.916 67.285 65.75-8.49c17.492-2.262 33.535 10.11 35.796 27.647 2.26 17.536-10.112 33.58-27.605 35.84l-99.37 12.8c-28.075 3.627-51.157-21.93-44.63-49.493l15.873-67.285-65.707 8.49c-17.536 2.262-33.58-10.112-35.84-27.648zm3.414 190.634c-17.195-3.925-34.347 6.87-38.273 24.107-3.925 17.238 6.87 34.39 24.064 38.315l80.855 18.39-40.875 54.912c-17.493 23.466-5.077 57.216 23.51 63.7l115.925 26.412c17.237 3.924 34.39-6.87 38.314-24.108 3.925-17.237-6.87-34.39-24.107-38.272l-80.81-18.432 40.874-54.912c17.493-23.467 5.034-57.216-23.51-63.7L675.67 635.903z"/></svg>