<svg viewBox="0 0 1024 1024" xmlns="http://www.w3.org/2000/svg"><path d="M362.667 170.667v682.666C362.667 876.885 343.552 896 320 896H192c-23.552 0-42.667-19.115-42.667-42.667V170.667C149.333 147.115 168.448 128 192 128h128c23.552 0 42.667 19.115 42.667 42.667zm-128 42.666v597.334h42.666V213.333zm170.666 241.28v398.72C405.333 876.885 424.448 896 448 896h128c23.552 0 42.667-19.115 42.667-42.667V565.29c-1.792 0-3.542.043-5.334.043-27.99 0-54.87-4.565-80-13.056v258.39h-42.666V533.333c-34.22-19.242-63.488-46.293-85.334-78.72zm208 46.72c-28.63 0-55.765-6.442-80-17.962-8.576-4.053-16.768-8.79-24.533-14.037-30.507-20.65-54.57-50.048-68.565-84.65-8.747-21.59-13.568-45.27-13.568-70.016C426.667 211.584 510.25 128 613.333 128 716.416 128 800 211.584 800 314.667c0 36.096-10.24 69.802-27.99 98.346L883.5 524.5l-60.332 60.332L711.68 473.344c-27.136 16.853-58.923 26.965-93.013 27.904-1.792.043-3.542.085-5.334.085zm0-85.333c1.323 0 2.646-.043 3.968-.085 54.145-2.09 97.367-46.635 97.367-101.248 0-55.98-45.355-101.334-101.334-101.334-55.978 0-101.333 45.355-101.333 101.334 0 26.837 10.41 51.2 27.435 69.333 18.474 19.712 44.757 32 73.898 32zM704 640h128c23.552 0 42.667 19.115 42.667 42.667v170.666C874.667 876.885 855.552 896 832 896H704c-23.552 0-42.667-19.115-42.667-42.667V682.667C661.333 659.115 680.448 640 704 640zm42.667 170.667h42.666v-85.334h-42.666z"/></svg>