<svg viewBox="0 0 1024 1024" xmlns="http://www.w3.org/2000/svg"><path d="M612.224 122.325h70.443c70.698 0 128 57.302 128 128v432.342c0 55.936-35.883 103.51-85.93 120.917.383 2.304.596 4.693.596 7.083 0 23.552-19.114 42.666-42.666 42.666H640v85.334h-85.333v-85.334h-75.094c0 23.552-19.114 42.667-42.666 42.667h-10.24C403.115 896 384 876.885 384 853.333h-42.667c-23.552 0-42.666-19.114-42.666-42.666 0-2.39.213-4.78.597-7.083-50.048-17.408-85.93-64.98-85.93-120.917V250.325c0-70.698 57.3-128 128-128h70.442C438.57 99.54 473.344 85.333 512 85.333c38.656 0 73.43 14.208 100.224 36.992zm113.11 368.81v-240.81c0-23.594-19.115-42.666-42.667-42.666H573.61c-12.287-22.103-35.285-36.993-61.61-36.993-26.325 0-49.323 14.89-61.61 36.992H341.332c-23.552 0-42.666 19.07-42.666 42.665v303.83c7.168-.427 15.274-1.11 24.234-2.176 41.09-4.95 100.48-18.22 170.455-52.225 86.698-42.112 162.816-34.006 217.088-14.464 5.162 1.835 10.154 3.798 14.89 5.846zm-42.667 234.198c23.552 0 42.666-19.114 42.666-42.666v-94.763c-.128-.085-.213-.128-.34-.213-10.028-6.826-24.833-15.402-43.436-22.1-36.394-13.142-88.277-19.5-150.912 10.922-79.36 38.528-147.968 54.23-197.546 60.203-12.8 1.536-24.32 2.39-34.433 2.858v43.094c0 23.552 19.114 42.666 42.666 42.666z"/></svg>