<svg viewBox="0 0 1024 1024" xmlns="http://www.w3.org/2000/svg"><path d="M170.667 165.376c0-21.376 15.914-39.38 37.077-42.027l219.563-27.435c44.97-5.632 84.693 29.44 84.693 74.752 0-45.312 39.723-80.384 84.693-74.752l219.563 27.434c21.163 2.645 37.077 20.65 37.077 42.026 0 25.472-22.314 45.184-47.573 42.027L554.667 176v513.963C604.373 707.54 640 754.943 640 810.667c0 70.698-57.3 128-128 128s-128-57.302-128-128c0-55.723 35.627-103.126 85.333-120.704V176L218.24 207.403c-25.26 3.157-47.573-16.555-47.573-42.027zm384 645.29c0-23.55-19.115-42.666-42.667-42.666-23.552 0-42.667 19.115-42.667 42.667 0 23.552 19.115 42.666 42.667 42.666 23.552 0 42.667-19.114 42.667-42.666z"/></svg>