<svg viewBox="0 0 1024 1024" xmlns="http://www.w3.org/2000/svg"><path d="M597.333 213.333c0 47.147-38.186 85.334-85.333 85.334s-85.333-38.187-85.333-85.334C426.667 166.187 464.853 128 512 128s85.333 38.187 85.333 85.333zm-53.333 320v117.334h224c29.44 0 53.333 23.893 53.333 53.333v72.576c19.115 11.05 32 31.744 32 55.424 0 35.328-28.672 64-64 64s-64-28.672-64-64c0-23.68 12.886-44.373 32-55.424v-61.91H544v61.91c19.115 11.05 32 31.744 32 55.424 0 35.328-28.672 64-64 64s-64-28.672-64-64c0-23.68 12.885-44.373 32-55.424v-61.91H266.667v61.91c19.114 11.05 32 31.744 32 55.424 0 35.328-28.672 64-64 64s-64-28.672-64-64c0-23.68 12.885-44.373 32-55.424V704c0-29.44 23.893-53.333 53.333-53.333h224V533.333h64zm-32-192c-56.96 0-170.667 28.758-170.667 75.862v56.874h341.334v-56.875c0-47.104-113.707-75.862-170.667-75.862z"/></svg>