<svg viewBox="0 0 1024 1024" xmlns="http://www.w3.org/2000/svg"><path d="M477.867 85.333v222.294l-28.46 10.026c-13.31 4.736-22.74 17.408-22.74 32.214 0 18.858 15.274 34.133 34.133 34.133 8.747 0 16.683-3.243 22.74-8.66L512 349.866l28.46 25.472c6.057 5.417 13.993 8.66 22.74 8.66 18.86 0 34.133-15.275 34.133-34.133 0-14.806-9.43-27.478-22.74-32.214l-28.46-10.026V85.333h85.334v61.61C785.024 197.206 896 341.59 896 512c0 170.24-110.763 314.496-264.02 364.885l-.513-1.62v63.402h-85.334V716.373l28.46-10.026c13.31-4.736 22.74-17.408 22.74-32.214 0-18.858-15.274-34.133-34.133-34.133-8.747 0-16.683 3.243-22.74 8.66L512 674.134l-28.46-25.472c-6.057-5.417-13.993-8.66-22.74-8.66-18.86 0-34.133 15.275-34.133 34.133 0 14.806 9.43 27.478 22.74 32.214l28.46 10.026v222.294h-85.334v-61.61C238.976 826.794 128 682.41 128 512c0-170.41 110.976-314.795 264.533-365.056v-61.61zm-85.334 700.502V772.18c-30.933-21.588-51.2-57.385-51.2-98.047 0-65.962 53.504-119.466 119.467-119.466 18.304 0 35.67 4.138 51.2 11.52 15.53-7.382 32.896-11.52 51.2-11.52 65.963 0 119.467 53.504 119.467 119.466 0 40.662-20.267 76.46-51.2 98.048v13.655C736.98 739.712 810.667 634.41 810.667 512c0-122.453-73.686-227.755-179.2-273.835v13.654c30.933 21.588 51.2 57.428 51.2 98.047 0 65.962-53.504 119.466-119.467 119.466-18.304 0-35.67-4.138-51.2-11.52-15.53 7.382-32.896 11.52-51.2 11.52-65.963 0-119.467-53.504-119.467-119.466 0-40.62 20.267-76.46 51.2-98.048v-13.655c-105.514 46.08-179.2 151.382-179.2 273.835 0 122.453 73.686 227.755 179.2 273.835z"/></svg>