<svg viewBox="0 0 1024 1024" xmlns="http://www.w3.org/2000/svg"><path d="M801.75 159.744c23.21-3.968 45.27 11.648 49.237 34.86 3.925 23.252-11.69 45.268-34.902 49.236l-.98.17 123.562 267.777v9.344c0 92.118-79.446 161.537-170.667 161.537-91.22 0-170.667-69.42-170.667-161.536v-9.343L712.875 261.42l-74.155 12.628c-6.74 47.744-39.808 87.04-84.053 102.656v433.963h298.666V896H170.667v-85.333h298.666V376.704c-30.72-10.837-56.064-33.11-70.954-61.696l-85.335 14.55 113.622 246.23v9.343c0 92.118-79.446 161.537-170.667 161.537-91.22 0-170.667-69.42-170.667-161.536v-9.343l103.894-225.152-9.643 1.664c-23.21 3.967-45.27-11.692-49.237-34.903-3.926-23.253 11.69-45.27 34.9-49.237l221.313-37.675C398.38 171.99 450.048 128 512 128c46.677 0 87.552 25.003 109.91 62.38zM768 345.6l-61.312 132.864h122.624zM194.688 542.464h122.624L256 409.6zM512 298.667c23.552 0 42.667-19.115 42.667-42.667 0-23.552-19.115-42.667-42.667-42.667-23.552 0-42.667 19.115-42.667 42.667 0 23.552 19.115 42.667 42.667 42.667zM256 661.333c30.635 0 55.723-13.824 70.57-33.536H185.43c14.847 19.712 39.935 33.536 70.57 33.536zm441.43-97.536c14.847 19.712 39.935 33.536 70.57 33.536 30.635 0 55.723-13.824 70.57-33.536z"/></svg>