<svg viewBox="0 0 1024 1024" xmlns="http://www.w3.org/2000/svg"><path d="M392.235 451.755c-2.176 6.442-4.14 12.288-5.888 17.62 10.538.044 19.712.172 27.477.513 11.947.512 26.368 1.58 38.955 6.485 7.21 2.816 15.145 7.34 22.015 14.763 6.954 7.51 10.794 15.787 12.885 23.125 3.072 10.796 3.03 22.913 2.987 29.27v267.095c0 23.55-19.115 42.708-42.667 42.708-23.595 0-42.667-19.114-42.667-42.666V554.965c-8.618-.256-19.456-.298-33.578-.298l-.17 5.546c-.342 11.99-.726 26.198-1.537 37.547-1.11 15.232-3.755 42.837-16.98 68.18-7.468 14.38-19.585 30.465-38.7 42.583-19.37 12.288-40.277 16.81-59.18 16.81-50.985 0-83.668-34.005-97.833-51.456-16.982-20.906-29.867-45.866-39.34-68.266-18.388-43.434-32.682-98.773-32.682-140.16 0-39.594 12.886-104.063 38.614-160 22.826-49.706 76.074-134.783 176.384-134.783 24.065 0 51.97 5.546 76.843 23.85 25.302 18.688 38.315 43.82 44.33 66.09 10.497 38.913 2.69 80.13-3.54 106.24-6.742 28.46-16.81 58.37-24.832 82.262zM286.208 560.853c.555-22.23 1.237-46.762 5.59-70.186 3.285-17.707 11.306-41.6 19.967-67.328C337.195 347.775 368.043 256 300.33 256c-90.75 0-129.663 157.1-129.663 209.45 0 28.118 11.818 76.29 29.482 114.945C215.04 611.285 236.074 640 255.19 640c28.287 0 29.823-36.224 30.975-79.02zm351.403-91.477c-1.75-5.333-3.67-11.18-5.845-17.62l-.896-2.647c-8.022-23.894-18.09-53.803-24.833-82.262-6.23-26.112-14.037-67.328-3.54-106.24 6.015-22.272 19.028-47.403 44.33-66.09 24.874-18.305 52.778-23.85 76.842-23.85 100.31 0 153.557 85.076 176.383 134.783 25.728 55.937 38.614 120.406 38.614 160 0 45.74-19.968 103.638-42.752 146.774-12.075 22.87-27.99 47.53-47.958 67.797-18.048 18.263-51.626 45.313-98.346 45.313-30.847 0-57.43-14.592-74.41-36.352-13.696-17.492-18.39-35.924-20.31-45.31-3.925-18.987-3.67-40.32-3.54-53.078.042-4.608.085-9.088.17-13.44.128-7.85.213-15.317.213-22.485-13.866 0-24.576.042-33.066.298v255.702c0 23.552-19.115 42.666-42.667 42.666-23.552 0-42.667-19.157-42.667-42.71V543.532c-.042-6.357-.085-18.474 2.987-29.27 2.09-7.337 5.888-15.615 12.885-23.124 6.87-7.424 14.806-11.947 22.016-14.763 12.545-4.906 27.01-5.973 38.956-6.485 7.765-.34 16.94-.47 27.435-.512zm94.593 21.29c3.413 18.39 4.565 37.462 4.82 55.553 0 8.148-.042 25.897-.17 33.32-.597 34.86-1.024 60.46 12.758 60.46 21.846 0 44.16-22.74 62.465-52.82 3.626-5.932 7.04-12.16 10.325-18.52 18.517-36.265 30.933-77.908 30.933-103.21C853.333 413.1 814.42 256 723.67 256c-67.713 0-36.865 91.776-11.435 167.34 8.66 25.727 16.682 49.62 19.968 67.327z"/></svg>