<svg viewBox="0 0 1024 1024" xmlns="http://www.w3.org/2000/svg"><path d="M327.34 249.045c-34.945-50.474-64.812-107.264-64.812-163.712h85.333c0 28.886 16.428 67.158 49.623 115.158 32.384 46.72 75.605 95.702 119.893 145.622l2.773 3.157c42.367 47.743 85.973 96.895 116.565 142.08 15.7 23.21 29.312 47.317 37.546 71.338 1.495 4.352 2.817 8.79 3.97 13.312h4.437c23.552 0 42.666 19.115 42.666 42.667 0 23.552-19.114 42.666-42.666 42.666h-12.075C641.452 730.283 573.397 795.776 496 829.14c-34.9 15.063-73.216 24.15-112 23.852v85.675h-85.333V835.925c-29.654-12.373-58.326-31.914-84.608-60.245l62.548-58.027c53.888 58.027 121.6 60.758 185.6 33.152 66.773-28.8 119.68-87.21 134.272-134.912 1.195-3.968 1.792-11.69-2.987-25.6-4.736-13.952-13.824-30.933-27.477-51.114-27.435-40.535-67.925-86.188-112.384-136.364l-.085-.085c-43.52-49.023-90.368-101.93-126.208-153.685zm445.31 573.44c-13.098 18.774-25.983 42.838-25.983 64.896 0 28.332 23.893 51.287 53.333 51.287 29.44 0 53.333-22.955 53.333-51.286 0-22.057-12.885-46.12-25.984-64.895-13.57-19.413-27.35-33.152-27.35-33.152s-13.78 13.74-27.35 33.152zm-47.317-80.98c0-13.228 7.723-27.692 15.616-38.956 8.106-11.65 16.383-19.883 16.383-19.883s8.278 8.234 16.384 19.882c7.894 11.263 15.616 25.727 15.616 38.954 0 16.98-14.336 30.763-32 30.763s-32-13.782-32-30.763z"/></svg>