<svg viewBox="0 0 1024 1024" xmlns="http://www.w3.org/2000/svg"><path d="M490.667 384C573.14 384 640 317.14 640 234.667c0-82.475-66.86-149.334-149.333-149.334-82.475 0-149.334 66.86-149.334 149.334S408.193 384 490.667 384zm157.27 22.74c27.52-5.887 55.68 6.913 69.332 31.532l106.666 192c11.648 20.95 10.624 46.635-2.688 66.56l-127.66 191.53c-3.668 5.633-8.105 10.497-13.097 14.55-15.06 12.288-34.943 17.024-53.76 13.056-6.91-1.45-13.695-4.096-20.053-7.98-6.357-3.88-11.776-8.703-16.256-14.164-12.287-15.02-17.023-34.944-13.055-53.76 1.366-6.315 3.67-12.5 6.998-18.304l6.1-11.05 17.196-26.54c22.612-34.858 6.527-81.663-32.727-95.274l-105.6-36.608v-54.955c0-23.552-19.114-42.666-42.666-42.666-23.552 0-42.667 19.114-42.667 42.666v85.334c0 18.176 11.52 34.346 28.672 40.32l56.49 19.584-67.71 54.145 31.145 36.31c22.998 26.836 19.883 67.242-6.954 90.24-26.838 22.996-67.243 19.882-90.24-6.956l-128-149.334c-17.408-20.31-20.352-49.323-7.34-72.704l106.668-192c8.96-16.17 24.45-27.648 42.54-31.53zM640 682.668c47.147 0 85.333-38.187 85.333-85.334C725.333 550.187 687.147 512 640 512c-47.104 0-85.333 38.187-85.333 85.333 0 47.147 38.23 85.334 85.333 85.334z"/></svg>