<svg viewBox="0 0 1024 1024" xmlns="http://www.w3.org/2000/svg"><path d="M532.18 95.7l-85.46 341.89c-4.693 17.75-5.888 27.733-5.803 35.157.128 6.442 1.195 12.928 4.31 23.424l104.96 210.09c9.514 19.116 3.456 42.327-14.208 54.36l-117.505 79.913H329.94c1.41 4.523 2.903 8.747 4.48 12.502.044.085.087.213.13.298h91.99c.34-.042 1.492-.128 3.668-.47 2.987-.51 6.912-1.236 11.733-2.303 6.145-1.323 12.63-2.816 19.84-4.48 4.567-1.024 9.43-2.176 14.636-3.328 23.253-5.29 56.704-12.544 81.536-10.624 18.304 1.408 38.485 8.107 52.14 12.63.852.298 1.663.554 2.473.81 7.936 2.645 14.25 4.693 19.712 6.144 4.48 1.195 6.784 1.493 7.51 1.58.042 0 .17 0 .256-.044.725-.128 1.664-.427 2.773-.853.683-.256 1.323-.555 1.92-.896-.085-.13-.17-.257-.213-.428-8.49-16.94-17.835-28.97-27.69-40.32-1.964-2.22-4.182-4.693-6.614-7.38-8.364-9.303-18.86-20.95-26.924-33.025-4.693-7.04-7.168-15.232-7.168-23.68 0-36.78 4.65-67.5 8.32-91.606 1.237-8.105 2.347-15.444 3.157-22.015 3.115-26.07 3.2-49.834-9.173-85.845-4.864-14.123-14.08-32.896-23.04-49.45-4.31-7.98-8.277-14.934-11.18-19.883-1.45-2.475-2.6-4.438-3.37-5.76l-.895-1.494-.214-.34-.042-.044c-8.96-14.72-8.19-33.366 1.878-47.275 13.525-18.646 26.283-36.096 38.357-52.566C675.67 239.316 725.42 171.22 747.775 75.604l83.116 19.456c-26.58 113.537-87.68 196.908-181.034 324.31-7.424 10.155-15.06 20.61-22.955 31.36 1.153 2.05 2.348 4.225 3.543 6.443 9.344 17.28 21.418 41.174 28.714 62.294 17.408 50.645 17.494 87.765 13.184 123.733-1.32 10.71-2.772 20.437-4.223 29.952-2.858 18.816-5.59 36.736-6.4 59.605 2.432 2.86 5.163 5.888 8.406 9.515 3.114 3.456 6.74 7.51 11.008 12.416 12.587 14.38 26.838 32.512 39.723 58.24 8.576 17.195 12.33 35.627 9.216 54.1-3.03 18.305-12.16 32.727-22.57 43.137-19.2 19.2-46.295 28.502-67.5 28.502-10.923 0-21.547-2.347-29.568-4.48-8.363-2.22-17.11-5.078-24.533-7.552l-.087-.043c-17.194-5.675-27.605-8.875-34.432-9.387-9.428-.725-29.31 2.688-56.148 8.747-4.224.98-8.62 2.005-13.1 3.03-7.764 1.79-15.615 3.626-22.356 5.034-9.6 2.048-22.528 4.65-33.11 4.65H320c-22.23 0-37.547-12.5-45.91-22.015-8.405-9.557-14.165-20.778-18.133-30.165-8.15-19.03-13.354-41.002-16.426-56.405-8.15-40.832 24.15-74.88 62.038-74.88h90.624l64.98-44.16-91.433-183.083-1.025-3.285c-4.95-15.957-8.832-31.915-9.13-50.645-.257-18.304 2.9-36.694 8.532-57.984l85.29-341.035z"/></svg>