<svg viewBox="0 0 1024 1024" xmlns="http://www.w3.org/2000/svg"><path d="M512.17 85.333c6.827 0 13.227 3.243 17.238 8.79.34.426 11.52 15.786 22.74 35.37 5.59 9.77 11.393 20.992 15.873 32.214 4.353 10.794 8.193 23.424 8.193 35.456 0 12.032-3.84 24.66-8.192 35.456-4.48 11.22-10.28 22.44-15.87 32.212-1.45 2.56-2.945 5.035-4.353 7.424 7.467-4.01 17.45-9.13 28.502-14.293 11.988-5.547 25.6-11.222 39.04-15.574 13.097-4.267 27.56-7.723 40.745-7.723 13.184 0 27.606 3.456 40.747 7.722 13.44 4.35 27.05 10.026 38.997 15.573 12.03 5.59 22.698 11.136 30.378 15.274 3.84 2.09 6.955 3.798 9.13 5.035 1.11.64 1.963 1.11 2.518 1.45l.683.427.212.085.043.042c6.528 3.84 10.538 10.838 10.538 18.39 0 7.552-4.01 14.55-10.496 18.39l-.085.042-.213.127-.684.384c-.555.342-1.408.81-2.517 1.45-2.177 1.24-5.292 2.945-9.132 5.036-7.68 4.14-18.347 9.685-30.38 15.275-11.945 5.547-25.556 11.222-38.996 15.574-13.14 4.267-27.563 7.723-40.747 7.723-13.184 0-27.648-3.456-40.746-7.723-13.44-4.352-27.052-10.027-39.04-15.573-7.852-3.67-15.19-7.295-21.463-10.538v97.835h128.086c23.594 0 42.71 19.114 42.71 42.666 0 23.552-19.116 42.667-42.71 42.667v256c0 94.25-76.46 170.667-170.752 170.667-94.335 0-170.794-76.416-170.794-170.667V512c-23.552 0-42.667-19.115-42.667-42.667 0-23.552 19.114-42.666 42.666-42.666H469.46V328.66c-6.313 3.287-13.737 7-21.76 10.71-11.988 5.547-25.6 11.222-39.04 15.574-13.097 4.267-27.56 7.723-40.745 7.723-13.184 0-27.606-3.456-40.747-7.723-13.44-4.352-27.05-10.027-38.997-15.573-12.03-5.59-22.74-11.135-30.378-15.274-3.84-2.09-6.955-3.797-9.13-5.035-1.11-.64-1.92-1.108-2.518-1.45l-.683-.426-.212-.085-.043-.044c-6.528-3.84-10.538-10.837-10.538-18.39 0-7.55 4.01-14.55 10.496-18.39l.085-.04.213-.087.684-.427c.597-.342 1.408-.81 2.517-1.45 2.177-1.238 5.292-2.945 9.132-5.036 7.637-4.138 18.347-9.685 30.38-15.274 11.945-5.547 25.556-11.222 38.996-15.574 13.14-4.267 27.563-7.723 40.747-7.723 13.184 0 27.648 3.456 40.746 7.722 13.44 4.35 27.052 10.026 39.04 15.573 11.308 5.248 21.42 10.496 28.972 14.55-1.493-2.476-2.987-5.036-4.48-7.68-5.59-9.772-11.435-20.993-15.915-32.214-4.31-10.796-8.15-23.425-8.15-35.457s3.84-24.662 8.15-35.456c4.48-11.222 10.326-22.443 15.915-32.214 11.18-19.584 22.4-34.944 22.7-35.37 4.01-5.547 10.452-8.79 17.28-8.79zM426.753 512v128h170.795V512zm170.795 213.333H426.752V768c0 47.147 38.272 85.333 85.42 85.333 47.145 0 85.375-38.186 85.375-85.333z"/></svg>