<svg viewBox="0 0 1024 1024" xmlns="http://www.w3.org/2000/svg"><path d="M151.04 318.55c82.475-146.305 243.755-161.025 381.227-140.118 121.557 18.475 138.282 18.475 166.1 18.432h3.244c14.38 0 50.69-2.475 91.563-8.15 41.558-5.76 83.712 8.022 112.427 37.93 30.38 31.66 42.923 79.32 24.405 125.612-11.264 28.075-27.22 59.563-48.213 87.936-20.31 27.435-50.048 58.368-90.923 75.776-21.035 8.96-42.41 15.104-57.77 19.5-2.39.68-4.652 1.364-6.743 1.96-14.55 4.268-24.66 7.64-33.408 11.735-.598.725-1.323 1.62-2.177 2.73-2.73 3.5-5.717 7.68-9.984 13.696l-.854 1.237c-3.797 5.376-8.49 11.99-13.568 18.73-21.845 29.056-59.435 72.576-124.672 89.942-16.512 4.393-30.933 8.916-44.373 13.48v164.353H410.58V717.696c-9.13 2.176-18.6 3.925-28.287 4.95-4.778.51-9.173.853-13.098 1.11-2.048 3.84-4.31 8.575-7.083 14.463l-2.133 4.564c-4.183 9.003-9.772 20.95-15.66 31.7-10.155 18.52-44.203 78.85-117.46 78.85-71.212 0-107.01-55.98-119.98-83.2-15.147-31.873-22.06-68.822-21.504-100.14.043-38.997 2.987-100.778 11.733-163.754 8.405-60.5 23.637-134.016 53.93-187.69zm346.283 280.703c6.912-2.048 14.122-4.138 21.717-6.144 45.1-11.99 69.29-46.21 89.813-75.222 12.715-17.963 24.022-33.92 38.016-41.344 20.863-11.136 41.727-17.152 62.59-23.168 15.66-4.523 31.276-9.045 46.935-15.7 42.026-17.88 74.368-70.444 92.885-116.695 11.008-27.476-14.293-51.88-43.99-47.743-43.135 5.974-83.797 8.96-103.68 8.96-22.87 0-38.613 0-78.677-4.778-17.408.596-27.69 4.82-33.92 8.96-6.87 4.564-12.288 11.305-16.597 21.12-9.472 21.716-10.027 50.132-10.027 76.5h-86.742v-2.133c0-23.98-.043-68.736 17.067-107.99 2.005-4.608 4.266-9.216 6.826-13.78-119.38-14.55-220.67 7.636-272.68 99.84-43.82 77.738-54.743 239.658-54.743 310.91C171.22 709.718 190.38 768 226.86 768c25.897 0 39.55-29.227 53.93-60.117 5.973-12.715 12.03-25.686 19.114-37.035 19.243-30.72 30.89-31.104 52.95-31.83 5.845-.17 12.415-.383 20.095-1.194 11.99-1.28 24.15-4.48 37.63-8.917v-64.683c-41.556 9.685-74.025 4.523-96.425-6.485-13.483-6.615-24.534-16.087-30.038-26.84-2.432-4.863-5.802-14.12-1.75-24.148 5.078-12.5 17.11-16.085 25.217-16.085h114.26c8.364-19.883 21.42-35.712 39.51-46.848 28.16-17.324 60.97-17.196 76.97-17.153h2.39V512c-9.087 0-15.914.085-22.23.94-6.1.81-9.385 2.132-11.177 3.24-.512.257-9.984 5.08-9.984 38.487z"/></svg>