<svg viewBox="0 0 1024 1024" xmlns="http://www.w3.org/2000/svg"><path d="M532.395 280.79c80.085-.043 156.032-13.014 258.688-30.507 18.645-3.2 38.144-6.528 58.752-9.942 23.594-3.924 56.533-2.217 76.416 26.284 16.94 24.192 13.057 53.376 8.49 71.893-10.068 40.576-39.337 91.05-73.64 137.26-35.073 47.23-79.19 95.188-123.607 130.388-22.186 17.58-45.653 32.94-69.034 43.222-11.436 4.992-23.81 9.216-36.695 11.562-1.28 1.493-2.39 2.645-3.157 3.413-10.325 10.325-29.74 23.765-52.65 37.077-24.107 13.952-55.297 29.568-91.393 43.52-71.552 27.69-165.632 50.005-262.272 36.224-61.354-8.79-98.773-47.66-118.016-95.275-18.26-45.1-21.034-99.115-17.75-148.267 3.33-49.963 13.228-99.414 23.937-138.027 5.333-19.328 11.05-36.565 16.512-50.22 2.688-6.825 5.547-13.268 8.49-18.9 2.39-4.608 6.7-12.288 13.057-18.645 6.87-6.87 14.677-10.922 19.84-13.226 5.717-2.603 11.818-4.65 17.706-6.315 11.775-3.37 25.813-6.102 40.79-8.406 30.036-4.565 67.583-7.808 106.025-9.387 38.528-1.62 78.976-1.664 114.902.342 24.79 1.407 49.365 3.84 70.23 8.063 4.266-1.323 9.044-2.176 14.378-2.134zm-62.422 81.365c-8.192-.854-17.194-1.536-26.965-2.09-32.64-1.836-70.187-1.836-106.54-.3-36.436 1.536-70.697 4.523-96.767 8.49-13.14 2.006-23.295 4.14-30.207 6.102-.213.043-.384.128-.554.17-.812 1.793-1.708 3.926-2.69 6.444-4.053 10.155-8.83 24.32-13.567 41.43-9.472 34.22-18.134 77.867-21.035 120.917-2.9 43.862.512 82.902 11.733 110.635 10.2 25.26 25.473 39.083 50.988 42.752 76.97 11.008 155.563-6.656 219.435-31.317 27.093-10.496 50.9-21.974 70.058-32.512-3.625-3.2-7.21-6.7-10.75-10.582-18.817-20.522-33.323-48.042-40.918-85.333-6.4-24.49-9.387-49.792-10.24-73.472-1.323-36.82 2.26-72.875 8.02-101.333zm379.264-35.2c-14.506 2.432-28.63 4.864-42.453 7.21-90.197 15.446-166.144 28.46-243.072 31.318-14.89 74.325-14.25 122.026-8.235 152.618 2.603 9.217 5.76 17.708 9.558 25.175 10.154 19.968 23.38 30.848 41.94 34.176 3.585.64 12.204.342 27.222-6.23 14.507-6.356 31.616-17.108 50.304-31.913 37.292-29.61 76.375-71.723 108.076-114.39 28.63-38.613 48.34-73.856 56.66-97.962zM532.224 286.25l.17-5.46h-.17zm45.013 377.174l-.042-.043c.554.3.64.3.042.044zM868.992 324.01s-.128-.042-.384-.042c.256.043.384.043.384.043zm-657.024 44.417l-.128.256c.085-.128.128-.214.128-.256z"/></svg>