<svg viewBox="0 0 1024 1024" xmlns="http://www.w3.org/2000/svg"><path d="M469.333 85.333h85.334v69.974c15.872 4.608 30.592 11.776 43.264 21.29 20.438 15.36 37.12 38.23 41.13 66.347l27.863 22.613c24.15 19.627 62.293 39.083 97.152 54.272 16.896 7.38 32.128 13.397 43.093 17.535 5.504 2.048 9.9 3.627 12.843 4.694 1.494.553 2.646.937 3.37 1.193l.812.3.213.042 28.928 9.856v473.515l19.072 9.558c21.078 10.538 29.61 36.138 19.072 57.216-10.538 21.076-36.138 29.61-57.216 19.113L768 879.7V413.74c-10.752-4.183-23.808-9.473-38.06-15.66-36.01-15.744-83.2-38.955-116.863-66.304l-5.504-4.48c-3.072 2.9-6.314 5.59-9.642 8.107-23.51 17.62-54.015 27.264-85.93 27.264-31.915 0-62.42-9.643-85.93-27.264-3.33-2.518-6.57-5.206-9.643-8.107l-5.504 4.48c-33.664 27.35-80.854 50.56-116.864 66.304-14.252 6.187-27.308 11.477-38.06 15.66V879.7l-66.26 33.153c-21.08 10.496-46.68 1.963-57.217-19.114-10.54-21.08-2.006-46.68 19.072-57.217l19.072-9.558V353.45l28.928-9.855.213-.043.81-.3c.726-.255 1.878-.64 3.33-1.193 2.985-1.068 7.38-2.647 12.884-4.695 10.965-4.138 26.197-10.154 43.093-17.536 34.816-15.19 73.003-34.646 97.152-54.273l27.862-22.613c4.01-28.117 20.692-50.987 41.13-66.347 12.67-9.514 27.39-16.682 43.263-21.29zm0 170.667c0 1.237.555 5.59 7.936 11.136 7.38 5.504 19.498 10.197 34.73 10.197 15.232 0 27.35-4.693 34.73-10.197 7.382-5.547 7.937-9.9 7.937-11.136 0-1.237-.555-5.59-7.936-11.136-7.38-5.504-19.498-10.197-34.73-10.197-15.232 0-27.35 4.693-34.73 10.197-7.382 5.547-7.937 9.9-7.937 11.136zm-64 554.667V896H320V554.667h85.333v170.666h320V896H640v-85.333H405.333zm21.334-149.334c0-23.552 19.114-42.666 42.666-42.666H640c23.552 0 42.667 19.114 42.667 42.666C682.667 684.885 663.552 704 640 704H469.333c-23.552 0-42.666-19.115-42.666-42.667z"/></svg>