<svg viewBox="0 0 1024 1024" xmlns="http://www.w3.org/2000/svg"><path d="M512 544c64.81 0 117.333 52.523 117.333 117.333S576.81 778.667 512 778.667c-64.81 0-117.333-52.523-117.333-117.334C394.667 596.523 447.19 544 512 544zm-53.333 117.333c0 29.44 23.893 53.334 53.333 53.334 29.44 0 53.333-23.894 53.333-53.334C565.333 631.893 541.44 608 512 608c-29.44 0-53.333 23.893-53.333 53.333zM85.333 512c0-235.648 191.02-426.667 426.667-426.667 235.648 0 426.667 191.02 426.667 426.667 0 114.944-45.44 219.264-119.382 295.98 35.072 13.14 55.382 28.713 55.382 45.353 0 47.147-162.39 85.334-362.667 85.334s-362.667-38.187-362.667-85.334c0-16.64 20.31-32.213 55.382-45.354C130.773 731.263 85.333 626.943 85.333 512zm85.334 0c0 69.205 20.608 133.632 56.02 187.435-1.79-15.66-2.687-30.934-2.687-46.123 0-61.14 14.635-118.87 41.557-193.536-11.904-7.98-21.418-16.725-27.86-24.107l48.255-42.027c4.395 5.034 14.25 13.653 26.923 19.54 12.416 5.76 25.386 8.065 38.144 4.652 12.756-3.456 22.825-11.904 30.676-23.083 8.064-11.477 12.288-23.85 13.568-30.42l62.805 12.287c-2.86 14.59-10.326 35.455-23.98 54.868-13.78 19.712-35.327 39.765-66.517 48.128-14.805 3.968-29.013 4.565-42.24 3.03C299.69 554.068 288 603.22 288 653.31c0 39.083 7.125 80.128 22.315 134.1 56.49 41.43 126.25 65.92 201.685 65.92s145.195-24.49 201.685-65.92C728.875 733.44 736 692.396 736 653.313c0-50.09-11.69-99.243-37.333-170.667-13.227 1.536-27.435.94-42.24-3.03-31.232-8.362-52.736-28.415-66.518-48.127-13.654-19.413-21.12-40.277-23.98-54.87l62.806-12.287c1.28 6.57 5.504 18.945 13.568 30.422 7.85 11.18 17.92 19.627 30.677 23.083 12.76 3.413 25.73 1.11 38.145-4.65 12.672-5.89 22.528-14.508 26.923-19.542l48.256 42.026c-6.443 7.38-15.957 16.127-27.86 24.106C785.363 534.443 800 592.17 800 653.312c0 15.19-.896 30.464-2.688 46.123 35.413-53.803 56.02-118.23 56.02-187.435 0-188.5-152.83-341.333-341.332-341.333-188.5 0-341.333 152.832-341.333 341.333z"/></svg>