<svg viewBox="0 0 1024 1024" xmlns="http://www.w3.org/2000/svg"><path d="M619.52 386.816c-87.296 25.387-184.747 25.387-272.085.043-37.334 40.873-71.98 90.58-96.81 141.737-26.924 55.424-39.34 106.454-37.036 146.816 2.09 36.608 15.83 65.11 48.17 87.51 36.224 25.088 103.723 47.7 222.763 47.7 51.413 0 93.098-4.308 126.762-11.263l75.35 67.54c-51.584 18.476-118.016 29.057-202.112 29.057-511.19 0-374.656-383.146-191.403-575.957l-78.25-115.2c11.05-7.253 27.647-16.555 48.597-26.155 8.79-4.053 18.304-8.15 28.544-12.16C343.297 146.305 411.436 128 484.524 128c69.418 0 134.016 16.512 183.936 35.5 2.388.895 4.735 1.79 7.04 2.687 34.56 13.696 61.44 28.245 76.97 38.613L673.663 320c71.34 72.917 136.277 177.365 157.952 277.333h-87.893c-6.315-22.656-15.574-46.677-27.734-71.466-25.003-51.03-59.69-99.968-96.47-139.05zm41.813-175.787C636.97 204.714 568.79 192 491.18 192h-3.2c-76.29.34-143.575 12.8-167.98 19.03 38.144 33.365 87.467 24.19 133.632 15.658 12.885-2.39 25.472-4.736 37.547-6.1 60.457-6.828 125.44-11.052 170.153-9.56zm-84.01 98.687l36.096-52.778c-37.72 6.527-77.655 15.828-117.036 27.263-38.315 11.05-79.104 12.672-118.272 9.002l11.18 16.47c60.884 14.464 127.103 14.464 188.03.042zm92.97 485.248l42.71-47.658 38.058 34.133V640.043h64V781.44l38.06-34.133 42.71 47.658-112.77 101.078-112.767-101.078zM458.667 768v-22.357C426.24 740.736 399.66 718.08 389.035 688c-5.888-16.683 2.816-34.944 19.498-40.832 16.64-5.888 34.944 2.816 40.832 19.5 1.75 4.948 5.035 9.13 9.302 11.945v-44.97C416.384 627.243 384 590.72 384 546.645c0-44.032 32.384-80.554 74.667-86.954v-22.357h64v22.358c32.426 4.907 59.008 27.563 69.632 57.643 5.93 16.683-2.817 34.944-19.5 40.832-16.64 5.888-34.944-2.816-40.832-19.498-1.75-4.95-5.035-9.13-9.3-11.947v44.97c42.28 6.4 74.665 42.923 74.665 86.998 0 44.032-32.384 80.555-74.666 86.955V768zM448 546.645c0 8.32 4.224 15.66 10.667 19.968V526.72C452.224 531.03 448 538.368 448 546.645zm85.333 112.043c0-8.32-4.224-15.66-10.666-19.968v39.893c6.442-4.31 10.666-11.648 10.666-19.925z"/></svg>