<svg viewBox="0 0 1024 1024" xmlns="http://www.w3.org/2000/svg"><path d="M183.168 183.168c16.64-16.64 43.69-16.64 60.33 0l97.025 97.024c110.72-42.837 233.514-42.667 344.15.47 100.65 39.253 184.96 111.658 238.975 205.27l13.44 23.295c.98 1.706.98 3.797 0 5.504l-13.44 23.34c-39.125 67.797-94.165 124.458-159.744 165.503l82.987 82.987c16.683 16.683 16.683 43.69 0 60.373-16.64 16.64-43.647 16.64-60.33 0L683.435 743.808c-110.72 42.837-233.472 42.667-344.107-.47-100.65-39.295-184.96-111.7-238.976-205.27l-13.44-23.337c-.98-1.706-.98-3.797 0-5.503l13.44-23.296c39.125-67.797 94.123-124.458 159.744-165.503L183.168 243.5c-16.683-16.64-16.683-43.65 0-60.332zm485.46 425.13c6.785-10.07 12.545-20.778 17.196-32.042 9.173-22.1 13.867-45.824 13.867-69.717 0-23.937-4.693-47.66-13.866-69.76-9.13-22.103-22.57-42.2-39.51-59.137-14.037-14.038-30.25-25.643-48-34.432-62.72-14.25-128.127-12.757-190.335 4.438L456.83 396.5c2.048-.98 4.096-1.876 6.187-2.772 15.53-6.4 32.17-9.728 48.98-9.728 16.81 0 33.45 3.328 48.98 9.728 2.092.896 4.14 1.792 6.188 2.773-7.723 7.724-12.5 18.39-12.5 30.167 0 23.552 19.113 42.666 42.665 42.666 11.776 0 22.443-4.778 30.166-12.5.98 2.047 1.876 4.095 2.772 6.186 6.4 15.53 9.728 32.17 9.728 48.98 0 16.81-3.328 33.45-9.728 48.98-.896 2.092-1.792 4.14-2.773 6.188zm-110.932 77.398l-2.347 2.347c20.437-2.262 40.703-6.187 60.63-11.69L322.39 382.72c-14.294 7.98-28.075 16.81-41.217 26.453zM184.406 512c44.373 68.736 109.397 121.984 185.94 151.808 20.737 8.107 41.985 14.336 63.53 18.773L218.284 466.988c-12.288 14.122-23.638 29.14-33.878 45.013zm567.04 96.3c34.39-26.796 64.255-59.308 88.15-96.3-22.4-34.73-50.092-65.493-81.836-91.264 9.813 27.477 14.848 56.533 14.848 85.803 0 33.492-6.613 66.644-19.413 97.62-.598 1.365-1.152 2.773-1.75 4.14z"/></svg>