<svg viewBox="0 0 1024 1024" xmlns="http://www.w3.org/2000/svg"><path d="M554.667 213.333c0-23.552-19.115-42.666-42.667-42.666-23.552 0-42.667 19.114-42.667 42.666v195.67l-94.165 94.165c-16.683 16.64-16.683 43.69 0 60.33 16.64 16.683 43.69 16.683 60.33 0L512 487l76.5 76.5c16.64 16.683 43.692 16.683 60.332 0 16.683-16.64 16.683-43.69 0-60.33l-94.165-94.165v-195.67zm-213.334 164.78V384c0 23.552 19.115 42.667 42.667 42.667 23.552 0 42.667-19.115 42.667-42.667v-5.888c0-64.213-57.216-113.365-120.747-103.637-39.125 6.016-71.552 33.536-83.797 71.168L100.608 718.25c-25.6 78.507 43.947 155.094 124.587 137.174l117.93-26.197c48.726-10.838 83.414-54.016 83.542-103.894v-64c0-23.552-19.115-42.666-42.667-42.666-23.552 0-42.667 19.114-42.667 42.666v64.086c-.128 9.855-7.04 18.345-16.682 20.52l-117.973 26.2c-16.128 3.583-30.037-11.735-24.917-27.436l121.472-372.608c2.304-7.04 8.32-12.16 15.616-13.27 11.82-1.79 22.485 7.34 22.485 19.286zm339.542 451.114c-48.726-10.838-83.456-54.016-83.542-103.894v-64c0-23.552 19.115-42.666 42.667-42.666 23.552 0 42.667 19.114 42.667 42.666v64.086c.128 9.855 7.04 18.345 16.725 20.52l117.93 26.2c16.13 3.583 30.038-11.735 24.918-27.436L720.768 372.096c-2.304-7.04-8.32-12.16-15.616-13.27-11.82-1.79-22.485 7.34-22.485 19.286V384c0 23.552-19.115 42.667-42.667 42.667-23.552 0-42.667-19.115-42.667-42.667v-5.888c0-64.213 57.216-113.365 120.704-103.637 39.168 6.016 71.595 33.536 83.84 71.168L923.392 718.25c25.6 78.507-43.947 155.094-124.544 137.174l-117.973-26.197z"/></svg>