<svg viewBox="0 0 1024 1024" xmlns="http://www.w3.org/2000/svg"><path d="M426.667 149.333c0-35.328 28.672-64 64-64s64 28.672 64 64v33.75c62.55 25.3 106.666 86.613 106.666 158.25v469.334H704c35.328 0 64 28.672 64 64s-28.672 64-64 64H277.333c-35.328 0-64-28.672-64-64s28.672-64 64-64H320V341.333c0-71.637 44.117-132.95 106.667-158.25zm-21.334 661.334H576V341.333C576 294.187 537.813 256 490.667 256c-47.147 0-85.334 38.187-85.334 85.333zm149.334-627.584c.81.298 1.62.64 2.432.98 61.268 25.942 104.233 86.572 104.233 157.27v469.334H704c35.328 0 64 28.672 64 64s-28.672 64-64 64H277.333c-35.328 0-64-28.672-64-64s28.672-64 64-64H320V341.333c0-71.637 44.117-132.95 106.667-158.25v-33.75c0-35.328 28.672-64 64-64s64 28.672 64 64zM408.96 316.587c-2.347 7.85-3.627 16.128-3.627 24.746v469.334H576V341.333C576 294.187 537.813 256 490.667 256c-38.528 0-71.083 25.515-81.707 60.587z"/></svg>