<svg viewBox="0 0 1024 1024" xmlns="http://www.w3.org/2000/svg"><path d="M586.667 160H864v256c0 23.552-19.115 42.667-42.667 42.667-23.552 0-42.666-19.115-42.666-42.667V306.56l-124.46 126.25c85.76 116.822 75.82 281.985-29.823 387.627-116.65 116.65-305.75 116.65-422.4 0-116.65-116.65-116.65-305.75 0-422.357 107.136-107.136 275.37-115.883 392.448-26.24L719.19 245.333H586.666c-23.552 0-42.667-19.114-42.667-42.666C544 179.115 563.115 160 586.667 160zM262.315 760.107c83.328 83.285 218.41 83.285 301.696 0 83.33-83.328 83.33-218.41 0-301.696-83.285-83.327-218.367-83.327-301.695 0-83.286 83.286-83.286 218.37 0 301.697z"/></svg>