<svg viewBox="0 0 1024 1024" xmlns="http://www.w3.org/2000/svg"><path d="M309.333 298.667c47.104 0 85.334-38.187 85.334-85.334 0-47.146-38.23-85.333-85.334-85.333C262.187 128 224 166.187 224 213.333c0 47.147 38.187 85.334 85.333 85.334zm75.05 217.728l3.67-62.72 17.963 98.005c4.267 23.21 26.496 38.528 49.664 34.304 23.168-4.267 38.528-26.496 34.26-49.664l-22.91-125.056c-6.7-36.65-36.31-64.256-72.406-69.163l.043-.767H224l.043.768c-36.096 4.908-65.707 32.513-72.406 69.164L128.683 536.32c-4.224 23.168 11.093 45.397 34.304 49.664 23.168 4.224 45.397-11.093 49.664-34.304l17.963-98.005 3.67 62.72c.256 4.138-.128 8.32-1.067 12.373l-51.883 217.9s34.86 21.332 128 21.332c93.142 0 128-21.333 128-21.333l-51.882-217.9c-.98-4.052-1.322-8.234-1.066-12.372zM202.668 859.307v-60.63l2.346.64c19.542 5.12 48.043 9.984 87.34 11.094l-17.836 59.435C269.867 885.375 255.573 896 239.36 896c-20.267 0-36.693-16.427-36.693-36.693zm123.648-48.896l17.834 59.435C348.8 885.375 363.092 896 379.306 896 399.573 896 416 879.573 416 859.307v-60.63l-2.347.64c-19.584 5.12-48.042 9.984-87.338 11.094zm463.018-597.077c0 47.147-38.186 85.334-85.333 85.334s-85.333-38.187-85.333-85.334C618.667 166.187 656.853 128 704 128s85.333 38.187 85.333 85.333zM512 426.667c0-47.147 38.187-85.334 85.333-85.334h213.334c47.146 0 85.333 38.187 85.333 85.334V576c0 23.552-19.115 42.667-42.667 42.667-23.552 0-42.666-19.115-42.666-42.667V426.667H800v429.696C800 878.25 782.25 896 760.363 896c-20.907 0-38.23-16.213-39.552-37.077L706.73 640h-5.46l-14.08 218.923C685.823 879.787 668.543 896 647.636 896 625.75 896 608 878.25 608 856.363V426.667h-10.667V576c0 23.552-19.114 42.667-42.666 42.667C531.115 618.667 512 599.552 512 576V426.667z"/></svg>