<svg viewBox="0 0 1024 1024" xmlns="http://www.w3.org/2000/svg"><path d="M512 298.667c58.923 0 106.667-47.744 106.667-106.667S570.923 85.333 512 85.333 405.333 133.077 405.333 192 453.077 298.667 512 298.667zM370.73 419.115c-5.59 9.984-11.39 27.477-16.255 51.626-9.558 47.32-13.142 106.88-13.142 147.927 0 23.552-19.114 42.666-42.666 42.666-23.552 0-42.667-19.114-42.667-42.666 0-44.288 3.755-109.995 14.848-164.822 5.42-26.88 13.27-54.698 25.387-76.373 10.794-19.37 33.962-48.256 72.49-44.885 41.43.085 58.198 2.39 75.05 4.778l.385.043c13.568 1.92 27.69 3.925 67.84 3.925 40.15 0 54.272-2.005 67.84-3.925l.384-.043c16.853-2.39 33.62-4.693 75.05-4.778 38.53-3.37 61.654 25.514 72.49 44.885 12.12 21.675 19.97 49.493 25.388 76.373C764.245 508.672 768 574.38 768 618.667c0 23.552-19.115 42.666-42.667 42.666-23.552 0-42.666-19.114-42.666-42.666 0-41.046-3.584-100.608-13.142-147.926-4.864-24.148-10.666-41.64-16.256-51.625-.214-.427-.47-.81-.683-1.195-4.566 0-8.747.085-12.587.17v177.707l21.248 297.174c1.664 23.51-16.043 43.905-39.552 45.57-23.51 1.705-43.904-16-45.61-39.51L560.64 682.666h-97.28L447.915 899.03c-1.707 23.51-22.102 41.215-45.61 39.51-23.51-1.665-41.217-22.06-39.51-45.57L384 595.798V418.09c-3.84-.085-8.02-.17-12.587-.17-.213.384-.47.768-.682 1.195zm3.457-5.206s-.17.127-.47.51c.3-.297.47-.51.47-.51zm275.626 0s.17.213.47.51c-.3-.383-.47-.51-.47-.51z"/></svg>