<svg viewBox="0 0 1024 1024" xmlns="http://www.w3.org/2000/svg"><path d="M85.333 512c0-235.648 191.02-426.667 426.667-426.667 235.648 0 426.667 191.02 426.667 426.667 0 235.648-191.02 426.667-426.667 426.667-235.648 0-426.667-191.02-426.667-426.667zM512 170.667C323.5 170.667 170.667 323.5 170.667 512c0 188.5 152.832 341.333 341.333 341.333 188.5 0 341.333-152.832 341.333-341.333 0-188.5-152.832-341.333-341.333-341.333zM307.712 458.112c3.797-11.392 12.075-29.1 23.595-43.264 11.946-14.677 22.74-20.18 31.36-20.18 8.618 0 19.413 5.503 31.36 20.18 11.52 14.165 19.797 31.872 23.594 43.264l60.716-20.224c-5.632-17.024-17.28-42.027-34.645-63.403-16.98-20.864-44.16-43.818-81.023-43.818-36.864 0-64.043 22.954-81.024 43.818-17.408 21.376-28.97 46.38-34.688 63.403l60.757 20.224zm298.624 0c3.84-11.392 12.117-29.1 23.637-43.264 11.947-14.677 22.742-20.18 31.36-20.18 8.62 0 19.414 5.503 31.36 20.18 11.52 14.165 19.798 31.872 23.595 43.264l60.757-20.224c-5.717-17.024-17.322-42.027-34.73-63.403-16.94-20.864-44.118-43.818-80.982-43.818s-64.042 22.954-81.024 43.818c-17.366 21.376-29.014 46.38-34.646 63.403l60.672 20.224zm-541.312 44.63c5.12-22.998 27.904-37.505 50.9-32.385l163.16 36.267 125.695-17.408c21.76-6.784 70.697-19.883 107.22-19.883 36.523 0 85.46 13.1 107.22 19.883l125.697 17.408 163.158-36.267c22.997-5.12 45.78 9.387 50.9 32.384 5.12 23-9.386 45.783-32.383 50.903l-137.26 30.506v226.517c0 23.552-19.113 42.666-42.665 42.666S704 834.22 704 810.667V587.093l-98.22-13.61c-3.753-.512-7.295-1.366-10.623-2.39-20.18-6.4-59.86-16.426-83.157-16.426-23.296 0-62.976 10.026-83.157 16.426-3.328 1.024-6.87 1.878-10.624 2.39L320 587.093v223.574c0 23.552-19.115 42.666-42.667 42.666-23.552 0-42.666-19.114-42.666-42.666V584.15l-137.26-30.507c-22.996-5.12-37.503-27.904-32.383-50.902zM373.334 640c0-17.664 14.335-32 32-32h213.333c17.664 0 32 14.336 32 32s-14.336 32-32 32H405.333c-17.664 0-32-14.336-32-32zm32 64c-17.665 0-32 14.336-32 32s14.335 32 32 32h213.333c17.664 0 32-14.336 32-32s-14.336-32-32-32H405.333z"/></svg>