<svg viewBox="0 0 1024 1024" xmlns="http://www.w3.org/2000/svg"><path d="M512 522.667c42.453 0 83.115 16.853 113.152 46.848C655.147 599.552 672 640.213 672 682.667v32H352v-32c0-42.454 16.853-83.115 46.848-113.152 30.037-29.995 70.7-46.848 113.152-46.848zm-67.883 92.117c-10.197 10.24-17.877 22.528-22.613 35.883h180.992c-4.736-13.355-12.416-25.643-22.613-35.883-18.006-18.005-42.41-28.117-67.883-28.117-25.472 0-49.877 10.112-67.883 28.117zM334.293 334.037c-15.786-7.893-35.03-1.493-42.922 14.336-7.893 15.787-1.493 35.03 14.337 42.923l51.67 25.856c7.85 3.925 7.85 15.147 0 19.072l-51.67 25.813c-15.83 7.936-22.23 27.136-14.336 42.966 7.894 15.786 27.137 22.186 42.923 14.293l51.712-25.856c54.998-27.477 54.998-106.027 0-133.547l-51.712-25.856zm355.414 0c15.786-7.893 35.03-1.493 42.922 14.336 7.893 15.787 1.493 35.03-14.337 42.923l-51.67 25.856c-7.85 3.925-7.85 15.147 0 19.072l51.67 25.813c15.83 7.936 22.23 27.136 14.336 42.966-7.894 15.786-27.137 22.186-42.923 14.293l-51.67-25.856c-55.04-27.477-55.04-106.027 0-133.547l51.67-25.856zM640 298.667c0 23.552-19.115 42.666-42.667 42.666-23.552 0-42.666-19.114-42.666-42.666 0-23.552 19.114-42.667 42.666-42.667C620.885 256 640 275.115 640 298.667zM512 85.333c235.648 0 426.667 191.02 426.667 426.667 0 235.648-191.02 426.667-426.667 426.667-235.648 0-426.667-191.02-426.667-426.667 0-235.648 191.02-426.667 426.667-426.667zm-85.248 96.043C439.637 191.146 448 206.592 448 224c0 29.44-23.893 53.333-53.333 53.333-29.44 0-53.334-23.893-53.334-53.333 0-2.73.214-5.42.598-8.02C239.574 274.9 170.668 385.407 170.668 512c0 35.285 5.333 69.29 15.274 101.29 9.687-9.855 23.17-15.957 38.06-15.957 29.44 0 53.333 23.894 53.333 53.334 0 27.562-20.95 50.26-47.786 53.034 46.25 68.012 116.437 118.444 198.4 139.223 4.65-18.518 21.418-32.256 41.386-32.256 23.552 0 42.667 19.114 42.667 42.666 119.637 0 224.94-61.568 285.867-154.752C780.16 689.92 768 671.7 768 650.668c0-29.44 23.893-53.334 53.333-53.334 7.168 0 13.952 1.408 20.182 3.968 7.722-28.457 11.818-58.41 11.818-89.3 0-188.5-152.832-341.333-341.333-341.333-29.44 0-57.984 3.712-85.248 10.71z"/></svg>