<svg viewBox="0 0 1024 1024" xmlns="http://www.w3.org/2000/svg"><path d="M239.83 156.33c26.837-45.397 93.994-40.703 114.218 7.98l107.69 259.114c18.262 43.947-16.127 91.733-63.573 88.405l-250.368-17.494c-47.445-3.328-74.837-55.424-50.645-96.384zm-51.627 255.275l181.46 12.672-78.036-187.818zm484.18-186.154c-22.783-6.1-46.164 7.425-52.266 30.166-6.1 22.784 7.424 46.165 30.166 52.267l82.432 22.1c22.74 6.102 46.165-7.423 52.266-30.207 6.103-22.74-7.423-46.123-30.164-52.224l-82.432-22.1zM704 85.334c106.027 0 192 85.974 192 192 0 106.027-85.973 192-192 192s-192-85.973-192-192c0-106.026 85.973-192 192-192zm-106.667 192C597.333 336.256 645.077 384 704 384s106.667-47.744 106.667-106.667c0-58.922-47.744-106.666-106.667-106.666S597.333 218.41 597.333 277.333zM266.155 824.96c-30.208-83.072 12.586-174.89 95.658-205.1l260.608-94.847c83.03-30.208 174.85 12.587 205.057 95.616 30.208 83.07-12.586 174.847-95.616 205.098l-260.607 94.848c-83.03 30.208-174.848-12.587-205.098-95.616zm294.74-186.752l51.073 140.33 90.71-33.023c38.74-14.08 58.71-56.918 44.63-95.702-14.124-38.74-56.96-58.71-95.703-44.63zm-80.17 29.184l-89.728 32.683c-38.784 14.08-58.752 56.917-44.63 95.7 14.08 38.742 56.918 58.71 95.702 44.63l89.727-32.682z"/></svg>