<svg viewBox="0 0 1024 1024" xmlns="http://www.w3.org/2000/svg"><path d="M564.437 304.768c26.71 18.816 42.41 49.92 43.478 81.792 1.706 48.81-24.448 88.917-52.438 119.51-21.802 23.807-48.298 45.567-70.016 63.402-6.057 4.95-11.69 9.6-16.81 13.91l-20.82 17.578-20.694-17.75c-5.547-4.778-11.86-9.983-18.603-15.573-21.162-17.536-46.805-38.698-67.797-61.61-28.032-30.507-54.272-70.486-52.65-119.424v-.043c1.066-31.872 16.767-63.02 43.477-81.792 26.24-18.475 55.594-19.925 80.725-12.5 9.9 2.9 19.285 7.21 27.947 12.5 2.645 1.62 5.248 3.328 7.765 5.12 2.475-1.792 5.077-3.5 7.723-5.12 8.66-5.29 18.048-9.643 27.99-12.544 25.13-7.467 54.484-6.016 80.724 12.544zm-62.592 48.81c-10.538 3.115-21.418 10.667-29.184 20.054L448 403.456l-24.66-29.824c-7.767-9.387-18.604-16.896-29.185-20.01-9.814-2.902-18.176-1.835-25.728 3.455-9.344 6.57-15.958 18.56-16.384 31.616-.768 23.85 11.86 47.958 35.84 74.07 17.75 19.328 38.23 36.266 58.58 53.162l1.665 1.323c20.864-17.11 42.027-34.603 60.117-54.357 23.98-26.24 36.566-50.39 35.712-74.11-.426-13.1-6.997-25.09-16.384-31.703l-.085-.042c-7.51-5.334-15.83-6.358-25.643-3.456zM672 576c17.664 0 32-14.336 32-32s-14.336-32-32-32-32 14.336-32 32 14.336 32 32 32zm-12.63-408.064c49.323 19.883 92.715 51.5 125.995 92.075l.896 1.11.855 1.195c31.104 43.648 48.512 95.19 49.834 148.352v.085c.34 14.08.213 25.9.085 36.224-.342 27.392-.555 44.373 8.49 65.92.896.896 1.835 1.877 2.86 2.944 5.375 5.59 12.586 13.653 19.71 23.253 6.998 9.43 14.72 21.504 20.268 35.158 5.418 13.44 9.94 31.446 6.357 51.158-3.925 21.42-16.213 36.736-28.032 46.848-11.648 9.94-24.79 16.555-35.54 20.95-2.945 1.237-5.847 2.303-8.663 3.285-5.973 41.43-23.466 74.027-50.773 97.238-32.64 27.733-73.515 37.163-108.587 39.424-32.98 2.133-65.024-1.75-89.258-6.187-.81 1.536-1.792 3.2-2.816 4.907-5.12 8.363-13.013 18.517-24.83 28.288-24.023 19.883-60.63 35.243-114.22 35.54-30.42 2.007-66.176-6.527-96.256-19.796-29.653-13.056-64.3-35.456-80.725-68.95l-4.396-8.874V686.635C183.296 631.467 128 554.795 128 453.973c0-87.168 36.395-170.282 100.437-231.253 63.915-60.843 150.23-94.72 239.83-94.72 65.92-.085 131.114 13.525 191.104 39.936zm-107.434 566.1l1.75.513c1.45.426 3.67 1.11 6.613 1.877 5.844 1.62 14.377 3.754 24.617 5.76 20.907 4.096 47.318 7.466 72.704 5.802 25.815-1.665 45.783-8.193 58.796-19.286 11.435-9.685 23.04-27.605 23.04-65.62V626.43l36.053-5.504h.042l.128-.043c.213-.042.64-.085 1.195-.213 1.194-.213 3.072-.597 5.376-1.152 4.737-1.152 10.753-2.9 16.598-5.29 5.077-2.09 8.79-4.14 11.18-5.89-.215-.553-.47-1.28-.77-2.047-1.877-4.65-5.247-10.325-9.727-16.384-4.394-5.93-9.087-11.18-12.757-15.02-1.792-1.877-3.242-3.327-4.224-4.223l-.683-.64-.342-.342-.128-.128-6.186-5.546-3.626-7.55c-21.504-44.588-20.736-86.316-20.053-120.492v-.299c.13-8.107.3-15.745.13-22.913-.897-35.37-12.332-69.973-33.196-99.754-23.98-28.843-55.424-51.67-91.563-66.176l-.68-.256-.684-.298c-49.152-21.717-102.827-32.98-157.227-32.94h-.043c-68.267 0-133.334 25.857-180.992 71.212-47.616 45.312-73.942 106.283-73.942 169.43 0 71.51 41.77 130.09 105.515 177.706l17.11 12.8v130.9c5.93 6.487 17.11 14.892 34.26 22.444 22.145 9.813 44.29 13.696 56.833 12.715l1.665-.172h1.706c37.505 0 54.53-10.283 61.4-15.957 1.748-1.45 3.113-2.815 4.137-4.01v-74.752l55.894 18.347z"/></svg>