<svg viewBox="0 0 1024 1024" xmlns="http://www.w3.org/2000/svg"><path d="M496.47 78.25l30.378 52.61 41.9-24.193c20.393-11.776 46.505-4.78 58.28 15.616l189.996 329.045-77.056 44.5 31.147 54.017-73.9 42.667-31.188-54.016-70.7 40.832-111.7-193.408c-103.638 13.952-184.96 103.38-184.96 211.413 0 118.144 94.89 213.334 211.242 213.334 53.887 0 104.533-24.406 143.445-62.976 6.74-6.698 12.757-14.165 18.218-22.357H554.667V640h298.666v85.333h-85.248c-12.8 29.056-29.824 58.368-54.656 82.944-17.025 16.896-36.182 32.17-57.09 45.056h154.327v85.334H213.333v-85.334h143.702c-86.187-52.31-143.702-147.54-143.702-256 0-139.562 96.512-256.64 225.238-289.493l-33.237-57.557c-11.776-20.395-4.778-46.507 15.616-58.283l32-18.475-30.38-52.65zm130.09 384.513l73.9-42.667L574.463 201.9l-73.9 42.665z"/></svg>