<svg viewBox="0 0 1024 1024" xmlns="http://www.w3.org/2000/svg"><path d="M381.867 768c1.408 6.912 2.133 14.037 2.133 21.333C384 848.256 336.256 896 277.333 896c-58.922 0-106.666-47.744-106.666-106.667 0-7.296.725-14.42 2.133-21.333H85.333V170.667C85.333 147.115 104.448 128 128 128h512c23.552 0 42.667 19.115 42.667 42.667v170.666H784.3c32.297 0 61.865 18.262 76.33 47.19l69.034 138.07c5.93 11.818 9.003 24.916 9.003 38.143V768H851.2c1.408 6.912 2.133 14.037 2.133 21.333C853.333 848.256 805.59 896 746.667 896 687.744 896 640 848.256 640 789.333c0-7.296.725-14.42 2.133-21.333H381.867zm215.466-256V213.333H170.667V512zM170.667 682.667h426.666v-85.334H170.667zm170.666-213.334v-64h-64V320h64v-64h85.334v64h64v85.333h-64v64zm341.334 213.334h170.666v-85.334H682.667zm0-170.667h144.298L784.3 426.667H682.666zM277.333 768C265.557 768 256 777.557 256 789.333c0 11.776 9.557 21.334 21.333 21.334 11.776 0 21.334-9.558 21.334-21.334S289.11 768 277.333 768zm469.334 0c-11.776 0-21.334 9.557-21.334 21.333 0 11.776 9.558 21.334 21.334 21.334S768 801.11 768 789.333 758.443 768 746.667 768z"/></svg>