<svg viewBox="0 0 1024 1024" xmlns="http://www.w3.org/2000/svg"><path d="M554.667 768c0 23.552-19.115 42.667-42.667 42.667-23.552 0-42.667-19.115-42.667-42.667 0-23.552 19.115-42.667 42.667-42.667 23.552 0 42.667 19.115 42.667 42.667zM384 234.667c0-11.776 9.557-21.334 21.333-21.334h213.334c11.776 0 21.333 9.558 21.333 21.334v426.666c0 11.776-9.557 21.334-21.333 21.334H405.333c-11.776 0-21.333-9.558-21.333-21.334zM501.077 533.42l11.222 10.495 11.22-10.41.213-.214c22.486-21.077 40.918-38.357 53.803-54.613 12.928-16.298 20.01-31.232 20.01-47.53-.042-26.496-20.223-47.275-45.994-47.232-14.55 0-28.587 6.997-37.717 18.048l-1.664 2.005-1.663-2.005c-9.13-11.05-23.168-18.006-37.718-18.006-25.77.043-45.953 20.822-45.91 47.318 0 16.298 7.125 31.232 20.053 47.488 12.97 16.298 31.53 33.62 54.144 54.656zM362.667 85.332h298.666C720.256 85.333 768 133.077 768 192v640c0 58.923-47.744 106.667-106.667 106.667H362.667C303.744 938.667 256 890.923 256 832V192c0-58.923 47.744-106.667 106.667-106.667zm0 85.334c-11.776 0-21.334 9.557-21.334 21.333v640c0 11.776 9.558 21.333 21.334 21.333h298.666c11.776 0 21.334-9.557 21.334-21.333V192c0-11.776-9.558-21.333-21.334-21.333z"/></svg>