<svg viewBox="0 0 1024 1024" xmlns="http://www.w3.org/2000/svg"><path d="M128 128h512c23.552 0 42.667 19.115 42.667 42.667v170.666H784.3c32.297 0 61.865 18.262 76.33 47.19l69.034 138.07c5.93 11.818 9.003 24.916 9.003 38.143V768H851.2c1.408 6.912 2.133 14.037 2.133 21.333C853.333 848.256 805.59 896 746.667 896 687.744 896 640 848.256 640 789.333c0-7.296.725-14.42 2.133-21.333H381.867c1.408 6.912 2.133 14.037 2.133 21.333C384 848.256 336.256 896 277.333 896c-58.922 0-106.666-47.744-106.666-106.667 0-7.296.725-14.42 2.133-21.333H85.333V170.667C85.333 147.115 104.448 128 128 128zm469.333 554.667v-85.334H170.667v85.334zM341.333 320h-64v85.333h64v64h85.334v-64h64V320h-64v-64h-85.334zm512 362.667v-85.334H682.667v85.334h170.666zM826.965 512L784.3 426.667H682.666V512z"/></svg>