<svg viewBox="0 0 1024 1024" xmlns="http://www.w3.org/2000/svg"><path d="M533.333 291.797c9.9 4.736 18.39 12.928 23.467 24.62l8.192 18.858c1.365 3.072 2.688 6.186 3.925 9.3l92.416-57.727v-83.755L776.02 111.36c9.175-7.38 22.615-5.888 29.953 3.328 7.382 9.173 5.888 22.613-3.328 29.952L704 223.573v86.912L583.04 386.09c9.472 33.963 14.293 69.163 14.293 104.577v54.997c0 2.39-.042 4.78-.17 7.168l154.24 123.35-40.96 94.634 88.064 41.94c10.624 5.036 15.146 17.75 10.07 28.417-5.036 10.624-17.75 15.147-28.417 10.07l-125.227-59.606 44.33-102.485-110.932-88.79c-4.48 13.185-10.495 25.77-18.09 37.59l74.112 59.264-44.63 111.53 58.582 97.622c6.06 10.112 2.773 23.21-7.34 29.27-10.068 6.058-23.21 2.773-29.268-7.34l-69.42-115.71 40.705-101.804-46.505-37.205c-16.982 23.337-51.968 23.337-68.95 0l-46.506 37.204 40.703 101.803-69.42 115.712c-6.058 10.11-19.156 13.396-29.268 7.337-10.112-6.058-13.398-19.157-7.34-29.27l58.582-97.62-44.63-111.53 74.113-59.265-3.627-5.42c-6.485-9.77-11.733-20.265-15.573-31.273L324.736 689.15l44.373 102.485-125.27 59.606c-10.624 5.077-23.38.554-28.416-10.07-5.077-10.666-.555-23.38 10.07-28.416l88.063-41.94-40.96-94.636 154.07-123.22v-41.728c0-41.984 5.418-83.67 16-124.075L320 310.485v-86.912l-98.645-78.933c-9.216-7.34-10.71-20.78-3.328-29.952 7.338-9.216 20.778-10.71 29.952-3.328l114.687 91.733v83.755l93.14 58.197c3.457-9.642 7.297-19.2 11.393-28.63 5.077-11.69 13.568-19.882 23.467-24.618V85.333h42.666v206.464zM418.73 410.07c5.035 4.053 7.937 10.154 7.937 16.597 0 38.698-37.334 130.517-167.638 149.12-62.678 8.96-105.857.213-134.145-18.176-28.5-18.56-39.552-45.61-39.552-66.943 0-10.07 7.04-18.73 16.854-20.864l298.666-64c6.315-1.366 12.886.213 17.878 4.266zm-285.653 96.767c3.072 5.035 7.85 10.326 15.104 15.02 16.513 10.75 48 19.796 104.79 11.69 76.16-10.88 109.91-50.09 123.307-78.848zm464.256-80.17c0-6.443 2.902-12.544 7.936-16.598 4.99-4.054 11.562-5.633 17.877-4.267l298.666 64c9.814 2.133 16.854 10.794 16.854 20.864 0 21.333-11.05 48.384-39.552 66.944-28.288 18.39-71.467 27.137-134.144 18.177-130.303-18.603-167.637-110.422-167.637-149.12zm278.486 95.19c7.252-4.694 12.03-9.985 15.103-15.02l-243.2-52.138c13.397 28.756 47.146 67.967 123.306 78.847 56.79 8.106 88.277-.94 104.79-11.69z"/></svg>