<svg viewBox="0 0 1024 1024" xmlns="http://www.w3.org/2000/svg"><path d="M85.333 522.965C149.333 392.192 298.667 174.38 512 287.53c213.333-113.15 362.667 104.662 426.667 235.435-64 104.62-238.934 287.702-426.667 287.702-187.733 0-362.667-183.083-426.667-287.702zm643.243-142.122c-27.563-21.718-54.656-34.347-81.195-38.187-25.47-3.712-56.575-.3-95.4 20.267-25.004 13.27-54.956 13.27-79.96 0-38.825-20.566-69.93-23.98-95.4-20.267-26.54 3.84-53.633 16.47-81.196 38.187-31.02 24.405-58.923 57.3-82.73 92.074 1.62-.896 3.242-1.75 4.82-2.56 19.883-10.07 45.825-17.877 74.37-23.978 57.77-12.417 135.55-19.713 220.116-19.713 84.565 0 162.347 7.296 220.117 19.712 28.544 6.1 54.486 13.908 74.368 23.977 1.58.81 3.2 1.664 4.822 2.56-23.808-34.773-51.712-67.67-82.73-92.074zm16.555 236.5c-4.266 1.025-8.618 2.006-13.013 2.945C674.347 632.704 596.565 640 512 640s-162.347-7.296-220.117-19.712c-4.395-.94-8.747-1.92-13.014-2.944 8.405 7.34 17.066 14.507 25.983 21.504C372.736 691.968 445.1 725.333 512 725.333c66.9 0 139.264-33.365 207.147-86.485 8.917-6.997 17.578-14.165 25.984-21.504zm-435.37-80.468c50.304 10.794 121.856 17.792 202.24 17.792 80.384 0 151.936-6.998 202.24-17.792 5.42-1.152 10.496-2.347 15.19-3.542-4.694-1.194-9.77-2.39-15.19-3.54C663.936 518.996 592.384 512 512 512c-80.384 0-151.936 6.997-202.24 17.792-5.42 1.152-10.496 2.347-15.19 3.54 4.694 1.196 9.77 2.39 15.19 3.543z"/></svg>