<svg viewBox="0 0 1024 1024" xmlns="http://www.w3.org/2000/svg"><path d="M87.595 225.024c0-30.037 24.32-54.357 54.357-54.357h740.096c30.037 0 54.4 24.32 54.4 54.357v53.76h-85.333v-22.827H172.928v22.827H87.595v-53.76zm0 181.675h85.333v22.527c0 13.994.853 27.818 2.475 41.386C335.66 484.31 464.256 608.81 484.523 766.976c9.045.725 18.218 1.067 27.477 1.067 9.26 0 18.432-.342 27.477-1.067C559.744 608.81 688.34 484.31 848.597 470.613c1.622-13.568 2.518-27.392 2.518-41.386V406.7h85.333v22.527c0 234.24-190.037 424.106-424.448 424.106-234.41 0-424.405-189.866-424.405-424.106zm306.39 340.265c-24.022-93.653-99.67-166.656-194.817-186.794 36.14 86.145 106.88 154.155 194.816 186.795zm236.074 0c87.935-32.64 158.633-100.65 194.772-186.794-95.104 20.14-170.795 93.142-194.773 186.795zm95.273-404.224c0-23.55 19.115-42.623 42.667-42.623h128c23.552 0 42.667 19.072 42.667 42.624 0 23.553-19.115 42.625-42.667 42.625H768c-23.552 0-42.667-19.072-42.667-42.624zM128 300.118c-23.552 0-42.667 19.072-42.667 42.624 0 23.553 19.115 42.625 42.667 42.625h128c23.552 0 42.667-19.072 42.667-42.624 0-23.55-19.115-42.623-42.667-42.623H128z"/></svg>