<svg viewBox="0 0 1024 1024" xmlns="http://www.w3.org/2000/svg"><path d="M395.264 406.997c-1.28 6.57-5.504 18.944-13.568 30.422-7.85 11.177-17.92 19.625-30.677 23.04-12.76 3.412-25.73 1.15-38.145-4.61-12.672-5.93-22.528-14.506-26.923-19.583l-48.256 42.07c9.77 11.178 26.667 25.514 48.17 35.54 21.803 10.112 50.475 16.768 81.707 8.406 31.232-8.363 52.736-28.46 66.518-48.128 13.654-19.414 21.12-40.278 23.98-54.87l-62.806-12.288zm170.667 12.288c2.86 14.592 10.326 35.456 23.98 54.87 13.78 19.67 35.285 39.765 66.517 48.128 31.232 8.362 59.904 1.706 81.706-8.406 21.504-10.026 38.4-24.362 48.17-35.54l-48.255-42.07c-4.395 5.077-14.25 13.653-26.923 19.584-12.416 5.76-25.386 8.022-38.144 4.61-12.713-3.415-22.825-11.863-30.676-23.04-8.064-11.48-12.288-23.852-13.568-30.423l-62.805 12.288zM393.73 607.7c-13.61-11.263-33.792-9.343-45.056 4.31-11.264 13.61-9.344 33.793 4.267 45.014l16.468 13.61c5.163 4.267 5.163 12.16 0 16.47l-16.47 13.568c-13.61 11.264-15.53 31.445-4.266 45.056 11.264 13.61 31.445 15.53 45.056 4.267l16.427-13.61c9.045-7.425 15.786-16.47 20.31-26.284h163.07c4.524 9.815 11.265 18.86 20.31 26.284l16.427 13.61c13.61 11.265 33.792 9.345 45.056-4.266 11.264-13.61 9.344-33.792-4.267-45.056l-16.468-13.568c-5.12-4.31-5.12-12.203 0-16.47l16.47-13.61c13.61-11.22 15.53-31.403 4.266-45.013-11.264-13.653-31.445-15.573-45.056-4.31l-16.427 13.612c-8.533 7.04-15.06 15.53-19.584 24.79H429.74c-4.524-9.26-11.052-17.75-19.585-24.79l-16.427-13.61zm331.605-465.193C929.408 260.31 999.34 521.26 881.493 725.333 763.69 929.408 502.74 999.34 298.667 881.493 94.592 763.69 24.66 502.74 142.507 298.667 260.31 94.592 521.26 24.704 725.333 142.507zM216.405 341.333c-94.25 163.243-38.314 372.01 124.928 466.262 163.243 94.293 372.01 38.314 466.262-124.928 94.293-163.243 38.314-372.01-124.928-466.262-163.243-94.25-372.01-38.314-466.262 124.928z"/></svg>