<svg viewBox="0 0 1024 1024" xmlns="http://www.w3.org/2000/svg"><path d="M682.667 554.667c23.552 0 42.666-19.115 42.666-42.667 0-23.552-19.114-42.667-42.666-42.667H341.333c-23.552 0-42.666 19.115-42.666 42.667 0 23.552 19.114 42.667 42.666 42.667h341.334zM512 85.333c235.648 0 426.667 191.02 426.667 426.667 0 235.648-191.02 426.667-426.667 426.667-235.648 0-426.667-191.02-426.667-426.667 0-235.648 191.02-426.667 426.667-426.667zM170.667 512c0 188.5 152.832 341.333 341.333 341.333 188.5 0 341.333-152.832 341.333-341.333 0-188.5-152.832-341.333-341.333-341.333-188.5 0-341.333 152.832-341.333 341.333z"/></svg>