<svg viewBox="0 0 1024 1024" xmlns="http://www.w3.org/2000/svg"><path d="M85.333 512c0-235.648 191.02-426.667 426.667-426.667 235.648 0 426.667 191.02 426.667 426.667 0 235.648-191.02 426.667-426.667 426.667-235.648 0-426.667-191.02-426.667-426.667zM512 170.667C323.5 170.667 170.667 323.5 170.667 512c0 188.5 152.832 341.333 341.333 341.333 188.5 0 341.333-152.832 341.333-341.333 0-188.5-152.832-341.333-341.333-341.333zm-195.115 479.83c0-58.88 47.744-106.582 106.582-106.582h176.47c58.836 0 106.538 47.7 106.538 106.58 0 58.838-47.702 106.54-106.54 106.54H423.468c-58.838 0-106.582-47.702-106.582-106.54zM384 609.492c0 11.776 9.557 21.334 21.333 21.334h213.334c11.776 0 21.333-9.558 21.333-21.334s-9.557-21.333-21.333-21.333H405.333c-11.776 0-21.333 9.557-21.333 21.333zm21.333 60.672c-11.776 0-21.333 9.515-21.333 21.29 0 11.82 9.557 21.334 21.333 21.334h213.334c11.776 0 21.333-9.515 21.333-21.334 0-11.776-9.557-21.29-21.333-21.29zm-32-190.165c35.328 0 64-28.672 64-64s-28.672-64-64-64-64 28.672-64 64 28.672 64 64 64zm277.334 0c35.328 0 64-28.672 64-64s-28.672-64-64-64-64 28.672-64 64 28.672 64 64 64z"/></svg>