<svg viewBox="0 0 1024 1024" xmlns="http://www.w3.org/2000/svg"><path d="M512 170.667c-175.7 0-320 115.584-320 277.333 0 77.824 42.54 130.56 89.6 165.845 13.056 9.814 26.197 18.048 38.4 24.79v-41.302c0-17.834 4.523-32.554 8.192-42.794.17-.513.384-1.11.64-1.75-.34-.086-.64-.214-.98-.3-44.93-14.975-73.857-46.975-84.012-85.546-9.728-36.95-1.28-76.203 19.712-106.54 12.032-17.407 26.54-28.287 42.965-34.516 11.222-4.224 24.022-6.06 30.55-6.997 1.194-.17 2.176-.298 2.9-.426 6.742-1.11 9.942-2.133 13.014-3.968 3.073-1.835 8.92-6.23 16.855-18.176 16.17-24.235 38.698-40.32 67.84-40.32 20.18 0 39.296 8.704 49.066 13.184.94.427 1.836.81 2.604 1.152 12.715 5.675 17.58 6.997 20.992 6.997h.085c.77.043 5.036.214 14.08-8.832 12.12-12.116 26.71-21.673 43.777-25.855 17.408-4.266 34.347-2.218 49.195 4.01 27.86 11.65 46.592 36.737 58.027 59.606 12.03 24.023 19.497 52.524 20.777 80.47 1.28 27.478-3.37 58.838-20.778 84.95-32.257 48.34-86.188 61.14-122.625 64.17-19.158 1.622-36.438.81-48.854-.383-6.27-.555-11.433-1.28-15.145-1.835-1.835-.3-3.328-.512-4.438-.725l-1.408-.256-.427-.085-.17-.042h-.086s-.043 0 8.32-41.856l-8.363 41.856c-23.125-4.65-38.1-27.136-33.493-50.22 4.65-23.082 27.05-38.058 50.134-33.492l.384.086c.47.085 1.323.213 2.432.384 2.304.34 5.803.81 10.24 1.237 8.917.854 20.95 1.366 33.792.3 27.563-2.305 48.3-10.838 58.71-26.497 3.925-5.888 7.295-17.195 6.527-33.707-.726-16.085-5.206-32.896-11.862-46.208-3.285-6.57-6.7-11.477-9.728-14.805-1.024-1.152-1.877-1.963-2.603-2.603-.597.47-1.237 1.067-2.005 1.835-22.57 22.57-47.616 33.835-74.496 33.835-23.424 0-43.52-8.96-54.955-14.038-.255-.086-.468-.214-.724-.3-6.57-2.943-10.667-4.65-13.184-5.63-.17.297-.427.64-.64.98-13.397 20.053-27.947 34.475-44.288 44.203-16.427 9.728-31.744 12.97-42.71 14.805-4.437.725-7.51 1.195-9.77 1.536-4.31.64-5.59.81-7.424 1.536-.3.085-.34.128-.34.17-.087.043-1.025.77-2.52 2.987-8.063 11.648-10.28 25.43-7.423 36.31 2.475 9.258 9.387 19.925 28.46 26.282 17.663 5.887 36.095 14.122 48.852 28.586 16.17 18.347 17.322 39.168 14.165 54.955-1.323 6.742-3.456 12.8-5.035 16.982-1.067 2.9-1.707 4.565-2.26 5.973-.64 1.622-1.153 2.944-2.05 5.462-2.346 6.442-3.157 10.368-3.157 13.866v256c0 23.552-19.114 42.667-42.666 42.667C339.115 896 320 876.885 320 853.333v-119.85c-2.603-1.11-5.333-2.304-8.192-3.584-22.016-9.9-51.584-25.388-81.408-47.745C170.795 637.44 106.667 562.175 106.667 448 106.667 225.75 303.7 85.333 512 85.333c111.616 0 191.403 56.15 241.664 109.355 25.173 26.667 43.605 53.205 55.765 73.045 6.058 9.984 10.666 18.39 13.78 24.448 1.58 3.03 2.774 5.505 3.627 7.255.427.896.768 1.62.982 2.176l.34.683.085.214.043.085c0 .043.043.085-38.955 17.408l38.998-17.323c.683 1.536 1.28 3.158 1.793 4.78l85.333 277.332c3.968 12.927 1.58 27.007-6.485 37.887-8.02 10.88-20.778 17.323-34.303 17.323h-85.334v149.333c0 23.552-19.114 42.667-42.666 42.667h-128v21.333C618.667 876.885 599.552 896 576 896c-23.552 0-42.667-19.115-42.667-42.667v-64c0-23.552 19.115-42.666 42.667-42.666h128V597.333c0-23.552 19.115-42.666 42.667-42.666h70.23L749.44 335.445c-.512-1.024-1.195-2.432-2.048-4.138-2.304-4.438-5.888-11.05-10.795-19.072-9.856-16.128-24.79-37.59-44.928-58.923-40.406-42.795-99.286-82.645-179.67-82.645z"/></svg>