<svg viewBox="0 0 1024 1024" xmlns="http://www.w3.org/2000/svg"><path d="M394.667 413.867c0 17.664-14.336 32-32 32s-32-14.336-32-32 14.336-32 32-32 32 14.336 32 32zm-64 226.133c0-5.888 4.778-10.667 10.666-10.667h341.334c5.888 0 10.666 4.78 10.666 10.667 0 5.888-4.778 10.667-10.666 10.667H341.333c-5.888 0-10.666-4.78-10.666-10.667zm362.666-226.133c0 17.664-14.336 32-32 32s-32-14.336-32-32 14.336-32 32-32 32 14.336 32 32zm-576 98.133c0-217.984 176.683-394.667 394.667-394.667 217.984 0 394.667 176.683 394.667 394.667 0 217.984-176.683 394.667-394.667 394.667-217.984 0-394.667-176.683-394.667-394.667zM512 138.667c-206.165 0-373.333 167.168-373.333 373.333 0 206.165 167.168 373.333 373.333 373.333 206.165 0 373.333-167.168 373.333-373.333 0-206.165-167.168-373.333-373.333-373.333zM85.333 512q0-176.725 124.97-301.696Q335.276 85.334 512 85.334q176.725 0 301.696 124.97Q938.666 335.274 938.666 512q0 176.725-124.97 301.696Q688.726 938.666 512 938.666q-176.725 0-301.696-124.97Q85.334 688.726 85.334 512zM512 170.667q-141.397 0-241.365 99.968Q170.667 370.603 170.667 512t99.968 241.365Q370.603 853.333 512 853.333t241.365-99.968Q853.333 653.397 853.333 512t-99.968-241.365Q653.397 170.667 512 170.667zM298.667 640q0-42.667 42.666-42.667h341.334q42.666 0 42.666 42.667t-42.666 42.667H341.333q-42.666 0-42.666-42.667zm128-226.133q0 64-64 64t-64-64q0-64 64-64t64 64zm298.666 0q0 64-64 64t-64-64q0-64 64-64t64 64z"/></svg>