<svg viewBox="0 0 1024 1024" xmlns="http://www.w3.org/2000/svg"><path d="M361.728 361.728c16.64-16.683 43.648-16.683 60.33 0l91.905 91.86 91.86-91.86c16.684-16.683 43.692-16.683 60.332 0 16.682 16.64 16.682 43.648 0 60.33l-91.862 91.905 91.862 91.86c16.682 16.684 16.682 43.692 0 60.332-16.64 16.682-43.648 16.682-60.33 0l-91.862-91.862-91.904 91.862c-16.64 16.682-43.692 16.682-60.332 0-16.683-16.64-16.683-43.648 0-60.33l91.86-91.862-91.86-91.904c-16.683-16.684-16.683-43.692 0-60.332zM512 85.333c235.648 0 426.667 191.02 426.667 426.667 0 235.648-191.02 426.667-426.667 426.667-235.648 0-426.667-191.02-426.667-426.667 0-235.648 191.02-426.667 426.667-426.667zM170.667 512c0 188.5 152.832 341.333 341.333 341.333 188.5 0 341.333-152.832 341.333-341.333 0-188.5-152.832-341.333-341.333-341.333-188.5 0-341.333 152.832-341.333 341.333z"/></svg>