<svg viewBox="0 0 1024 1024" xmlns="http://www.w3.org/2000/svg"><path d="M638.89 90.41c20.737 11.18 28.502 37.078 17.323 57.814l-126.89 235.69c-39.808 73.9-100.566 151.17-167.168 204.46-27.478 22.015-56.62 49.62-73.643 78.335-16.427 27.647-18.176 49.365-5.973 69.717 13.31 22.144 34.985 37.93 60.073 43.733 25.387-26.368 57.942-46.592 95.66-57.26 76.03-21.46 154.026 1.11 206.804 52.353L585.6 836.48c-31.787-30.89-78.55-44.33-124.117-31.445-4.864 1.365-9.558 2.986-14.123 4.864 13.397 6.27 26.496 13.61 38.57 22.015 31.147 21.674 64.683 57.258 64.683 106.752H465.28c0-7.894-5.717-21.12-28.117-36.736-21.248-14.805-49.494-25.685-73.26-30.42l-35.156-7.04c-49.835-9.985-93.227-40.534-119.382-84.14-34.176-57.002-19.882-114.005 5.76-157.183 25.003-42.112 63.83-77.483 93.696-101.376 56.364-45.098 110.167-112.938 145.367-178.303l126.933-235.69c11.136-20.737 37.035-28.502 57.77-17.366zm86.443 662.486c0-32.512-12.032-62.08-32-84.65l64-56.49c33.152 37.588 53.334 87.04 53.334 141.14 0 79.02-42.966 147.925-106.624 184.747l-42.752-73.856c38.4-22.187 64.043-63.574 64.043-110.89z"/></svg>