<svg viewBox="0 0 1024 1024" xmlns="http://www.w3.org/2000/svg"><path d="M85.333 512c0-235.648 191.02-426.667 426.667-426.667 235.648 0 426.667 191.02 426.667 426.667 0 235.648-191.02 426.667-426.667 426.667-235.648 0-426.667-191.02-426.667-426.667zM512 170.667C323.5 170.667 170.667 323.5 170.667 512c0 188.5 152.832 341.333 341.333 341.333 188.5 0 341.333-152.832 341.333-341.333 0-188.5-152.832-341.333-341.333-341.333zm-111.488 181.46c8.02-11.476 12.245-23.85 13.525-30.42l62.806 12.288c-2.86 14.592-10.326 35.456-23.936 54.87-13.824 19.668-35.328 39.764-66.56 48.127-31.19 8.363-59.904 1.75-81.664-8.405-21.547-10.027-38.443-24.32-48.214-35.542l48.255-42.07c4.395 5.078 14.25 13.654 26.923 19.585 12.416 5.76 25.387 8.02 38.144 4.608 12.757-3.413 22.827-11.86 30.72-23.04zm4.267 198.23C433.15 529.664 469.503 512 512 512c42.496 0 78.848 17.664 107.22 38.357 28.375 20.736 51.457 46.464 68.225 67.5 18.518 23.167 12.97 51.455-.98 68.01-13.74 16.298-39.852 26.453-65.537 13.61l-42.667-21.333c-18.772-9.344-31.145-13.227-39.977-14.976-8.79-1.75-15.702-1.835-26.283-1.835-10.58 0-17.493.086-26.283 1.835-8.832 1.75-21.205 5.632-39.978 14.976l-42.668 21.333c-25.685 12.843-51.797 2.688-65.536-13.61-13.952-16.555-19.5-44.843-.98-68.01 16.767-21.036 39.85-46.764 68.223-67.5zm205.225-228.65c1.28 6.57 5.504 18.944 13.568 30.42 7.85 11.18 17.963 19.628 30.72 23.04 12.715 3.414 25.686 1.153 38.102-4.607 12.714-5.93 22.528-14.507 26.965-19.584l48.213 42.07c-9.77 11.22-26.666 25.514-48.17 35.54-21.803 10.155-50.475 16.77-81.707 8.406-31.19-8.363-52.736-28.46-66.517-48.128-13.612-19.413-21.12-40.277-23.98-54.87l62.805-12.287z"/></svg>