<svg viewBox="0 0 1024 1024" xmlns="http://www.w3.org/2000/svg"><path d="M240.98 100.14c15.83-9.43 34.348-14.807 54.103-14.807 19.754 0 38.23 5.376 54.1 14.806 31.19-16.13 69.633-16.513 102.273 2.43 51.03 29.57 68.48 95.062 39.04 146.305l-21.333 37.12c-1.024 1.792-2.134 3.54-3.243 5.29 28.8 26.966 45.056 67.072 39.21 110.422-7.38 54.656-21.29 148.95-38.27 218.282-24.108 98.517-76.46 235.99-86.657 262.527-28.843 74.88-134.23 74.88-163.072 0-10.197-26.538-62.55-164.01-86.655-262.528-16.982-69.334-30.89-163.627-38.272-218.283-5.547-41.13 8.832-79.36 34.9-106.24-2.175-2.987-4.223-6.187-6.143-9.472l-21.333-37.12c-29.44-51.243-11.947-116.736 39.04-146.304 32.64-18.943 71.125-18.56 102.314-2.43zm-22.356 242.303c-25.515 0-45.27 22.357-41.856 47.744 1.536 11.306 3.328 24.15 5.333 37.93H256c23.552 0 42.667 19.2 42.667 42.838 0 23.68-19.115 42.88-42.667 42.88h-60.203c5.29 30.08 11.222 59.946 17.536 85.674 9.942 40.618 25.26 89.002 40.15 132.778 4.864 14.25 9.642 27.99 14.208 40.79 12.715 35.67 23.595 64.298 28.374 76.757l.683 1.75c.682 1.834 3.157 1.834 3.84 0l.682-1.75c4.778-12.46 15.658-41.088 28.373-76.758 4.565-12.8 9.344-26.538 14.208-40.79 5.206-15.274 10.454-31.146 15.53-47.06h-60.713c-23.552 0-42.667-19.2-42.667-42.88 0-23.638 19.115-42.838 42.667-42.838H384c15.787-64.385 29.184-154.667 36.565-209.323 3.414-25.387-16.34-47.744-41.856-47.744zm76.46-85.718c3.327 0 6.228-.682 8.83-1.877L336.172 240l33.238 12.544c9.515 3.584 20.608-.256 25.856-9.387l21.333-37.12c5.888-10.24 2.39-23.338-7.808-29.27-6.443-3.754-14.038-3.796-20.523-.468l-41.856 21.673-40.575-24.02c-3.072-1.836-6.656-2.902-10.752-2.902-4.096 0-7.68 1.067-10.752 2.902l-40.575 24.02L201.9 176.3c-6.487-3.33-14.08-3.287-20.567.468-10.197 5.93-13.696 19.03-7.808 29.27l21.334 37.12c5.247 9.13 16.34 12.97 25.897 9.386L253.952 240l32.3 14.848c2.6 1.195 5.503 1.877 8.83 1.877zm378.75 505.216c-6.826-22.612 5.89-46.548 28.417-53.46l.598-.17c.597-.214 1.58-.555 2.86-.982 2.56-.896 6.143-2.26 10.196-3.968 8.917-3.797 16.47-7.936 20.437-11.307 3.97-3.328 9.345-10.07 14.593-18.218 2.39-3.712 4.31-7.04 5.675-9.387.64-1.195 1.11-2.09 1.45-2.688l.3-.555c10.666-21.12 36.35-29.482 57.343-18.773 20.993 10.71 29.4 36.48 18.732 57.6l-.085.085-.043.17-.213.428-.725 1.322c-.554 1.067-1.365 2.56-2.39 4.352-2.004 3.583-4.863 8.533-8.404 14.037-6.613 10.197-17.535 25.6-31.402 37.29-13.867 11.69-30.848 19.84-42.027 24.576-6.015 2.56-11.348 4.523-15.188 5.888-1.92.684-3.54 1.24-4.693 1.623l-1.452.426-.47.17-.127.043-.127.042c-22.528 6.87-46.38-5.888-53.248-28.544zm90.41-337.663l-.51 1.195c-.47 1.11-1.153 2.816-2.006 5.035-1.75 4.437-4.096 10.752-6.443 18.09-4.95 15.53-8.618 31.872-8.618 43.82 0 9.556 2.346 21.887 5.845 34.43 33.92-10.11 74.71-9.684 114.133 14.124 72.107 43.65 72.022 123.307 72.022 150.7v1.28c0 118.954-100.566 206.506-213.334 206.506S512 811.904 512 692.95v-1.28c0-27.393-.085-107.05 72.02-150.7 26.84-16.213 54.273-21.59 79.788-20.18-1.493-9.26-2.475-18.902-2.475-28.374 0-25.472 6.998-52.01 12.672-69.93 3.03-9.473 6.016-17.537 8.278-23.34 1.152-2.9 2.09-5.247 2.816-6.91.34-.812.64-1.495.81-2.007l.298-.598.085-.17.043-.13c9.557-21.63 34.773-31.4 56.32-21.8 21.504 9.6 31.232 34.9 21.675 56.532zm89.09 268.672c0-29.995-2.646-61.526-30.763-78.55-33.834-20.48-68.778 1.11-97.237 27.947-28.458-26.838-63.402-48.427-97.237-27.947-28.117 17.024-30.763 48.555-30.763 78.55 0 66.73 57.302 120.79 128 120.79 70.7 0 128-54.06 128-120.79zM784.17 493.91s0-60.587 30.166-90.88c30.165-30.294 90.496-30.294 90.496-30.294s0 60.587-30.165 90.88C844.5 493.91 784.17 493.91 784.17 493.91z"/></svg>