<svg viewBox="0 0 1024 1024" xmlns="http://www.w3.org/2000/svg"><path d="M853.333 192c0 58.923-47.744 106.667-106.666 106.667C687.744 298.667 640 250.923 640 192S687.744 85.333 746.667 85.333c58.922 0 106.666 47.744 106.666 106.667zM768 192c0-11.776-9.557-21.333-21.333-21.333-11.776 0-21.334 9.557-21.334 21.333 0 11.776 9.558 21.333 21.334 21.333S768 203.776 768 192zM443.307 341.333H768c70.7 0 128 57.302 128 128 0 37.93-16.47 71.98-42.667 95.403v117.93H896V768h-54.1c7.295 12.544 11.433 27.136 11.433 42.667C853.333 857.813 815.147 896 768 896s-85.333-38.187-85.333-85.333c0-15.53 4.138-30.123 11.434-42.667H329.9c7.295 12.544 11.433 27.136 11.433 42.667C341.333 857.813 303.147 896 256 896s-85.333-38.187-85.333-85.333c0-15.53 4.138-30.123 11.434-42.667H128v-85.333h42.667V399.573l-19.03-26.794c-40.917-57.6-27.392-137.516 30.25-178.476 57.6-40.917 137.516-27.392 178.476 30.25zM355.2 512H768c23.552 0 42.667-19.115 42.667-42.667 0-23.552-19.115-42.666-42.667-42.666H399.275L290.773 273.963c-13.653-19.2-40.277-23.723-59.477-10.07-19.2 13.654-23.723 40.278-10.07 59.478zm-44.075 85.333L256 519.723v162.944h512v-85.334z"/></svg>