<svg viewBox="0 0 1024 1024" xmlns="http://www.w3.org/2000/svg"><path d="M307.712 458.112c3.797-11.392 12.075-29.1 23.595-43.264 11.946-14.677 22.74-20.18 31.36-20.18 8.618 0 19.413 5.503 31.36 20.18 11.52 14.165 19.797 31.872 23.594 43.264l60.716-20.224c-5.632-17.024-17.28-42.027-34.645-63.403-16.98-20.864-44.16-43.818-81.023-43.818-36.864 0-64.043 22.954-81.024 43.818-17.408 21.376-28.97 46.38-34.688 63.403l60.757 20.224zm298.624 0c3.84-11.392 12.117-29.1 23.637-43.264 11.947-14.677 22.742-20.18 31.36-20.18 8.62 0 19.414 5.503 31.36 20.18 11.52 14.165 19.798 31.872 23.595 43.264l60.757-20.224c-5.717-17.024-17.322-42.027-34.73-63.403-16.94-20.864-44.118-43.818-80.982-43.818s-64.042 22.954-81.024 43.818c-17.366 21.376-29.014 46.38-34.646 63.403l60.672 20.224zm-229.504 115.54c-13.056-19.583-39.552-24.873-59.18-11.817-19.583 13.056-24.873 39.552-11.817 59.178 53.376 80.043 146.56 104.32 206.165 104.32 59.605 0 152.79-24.277 206.165-104.32 13.056-19.626 7.766-46.122-11.818-59.178-19.627-13.056-46.123-7.766-59.18 11.818C615.212 621.61 554.796 640 512 640s-103.21-18.39-135.168-66.347zM85.332 512c0-235.648 191.02-426.667 426.668-426.667S938.667 276.353 938.667 512c0 235.648-191.02 426.667-426.667 426.667-235.648 0-426.667-191.02-426.667-426.667zM512 170.667C323.5 170.667 170.667 323.5 170.667 512c0 188.5 152.832 341.333 341.333 341.333 188.5 0 341.333-152.832 341.333-341.333 0-188.5-152.832-341.333-341.333-341.333z"/></svg>