<svg viewBox="0 0 1024 1024" xmlns="http://www.w3.org/2000/svg"><path d="M691.03 532.523c-23.083 4.608-45.57-10.368-50.22-33.494-7.253-36.267-26.837-52.353-52.48-61.526-18.645-6.656-39.637-9.216-61.055-10.197L640 746.667S519.808 768 426.667 768c-93.142 0-213.334-21.333-213.334-21.333l42.71-121.003c-50.475-23.98-85.376-75.392-85.376-134.997 0-82.475 66.858-149.334 149.333-149.334H512v.086c29.952.468 68.95 2.857 105.003 15.743 49.024 17.493 93.44 54.74 107.52 125.14 4.608 23.084-10.368 45.57-33.494 50.22zM533.332 192c0 58.923-47.744 106.667-106.666 106.667C367.744 298.667 320 250.923 320 192S367.744 85.333 426.667 85.333c58.922 0 106.666 47.744 106.666 106.667zm192 422.4c0 17.664-14.336 32-32 32s-32-14.336-32-32c0-30.293 13.61-54.144 32.896-69.717 18.517-14.934 41.77-22.016 63.103-22.016 21.334 0 44.587 7.082 63.104 22.016 19.286 15.573 32.896 39.424 32.896 69.717V896c0 17.664-14.336 32-32 32s-32-14.336-32-32V614.4c0-9.515-3.712-15.573-9.088-19.883-6.186-4.992-14.933-7.85-22.912-7.85-7.978 0-16.725 2.858-22.912 7.85-5.375 4.31-9.087 10.368-9.087 19.883zm-256 206.933l85.334-10.666V896c0 23.552-19.115 42.667-42.667 42.667-23.552 0-42.667-19.115-42.667-42.667zM298.667 896v-85.333L384 821.333V896c0 23.552-19.115 42.667-42.667 42.667-23.552 0-42.666-19.115-42.666-42.667zm27.605-469.333H320c-35.328 0-64 28.672-64 64 0 22.357 11.435 42.026 28.8 53.46z"/></svg>