<svg viewBox="0 0 1024 1024" xmlns="http://www.w3.org/2000/svg"><path d="M554.667 192c0 58.923-47.744 106.667-106.667 106.667S341.333 250.923 341.333 192 389.077 85.333 448 85.333 554.667 133.077 554.667 192zM691.03 532.523c-23.083 4.608-45.57-10.368-50.22-33.494-7.253-36.267-26.837-52.353-52.48-61.526-4.01-1.408-8.106-2.645-12.33-3.712v459.18c0 25.257-20.437 45.695-45.696 45.695-22.74 0-42.027-16.726-45.227-39.254L454.1 682.667h-12.2l-30.977 216.746c-3.2 22.528-22.486 39.254-45.227 39.254-25.216 0-45.696-20.438-45.696-45.696V640c-82.475 0-149.333-66.86-149.333-149.333 0-82.475 66.858-149.334 149.333-149.334h192v.086c29.952.468 68.95 2.857 105.003 15.743 49.024 17.493 93.44 54.74 107.52 125.14 4.608 23.084-10.368 45.57-33.494 50.22zM320 426.667c-35.328 0-64 28.672-64 64s28.672 64 64 64zM725.333 614.4c0-9.515 3.712-15.573 9.088-19.883 6.188-4.992 14.935-7.85 22.913-7.85 7.98 0 16.726 2.858 22.912 7.85 5.376 4.31 9.088 10.368 9.088 19.883V896c0 17.664 14.336 32 32 32s32-14.336 32-32V614.4c0-30.293-13.61-54.144-32.896-69.717-18.517-14.934-41.77-22.016-63.104-22.016-21.333 0-44.586 7.082-63.104 22.016-19.286 15.573-32.897 39.424-32.897 69.717 0 17.664 14.336 32 32 32s32-14.336 32-32z"/></svg>