<svg viewBox="0 0 1024 1024" xmlns="http://www.w3.org/2000/svg"><path d="M558.123 108.373c45.27 0 132.394 20.395 175.83 82.176 35.668 50.73 40.66 94.762 29.78 155.69-4.693 26.41-11.818 48.47-22.186 68.01 18.73 1.793 38.058 6.443 59.22 14.08 58.198 21.035 93.825 47.36 119.937 103.68 31.744 68.48 13.397 141.057-16.768 193.323 0 0-6.1-105.216-49.75-147.626-71.978-69.888-203.477-64.128-256 21.333-51.03 83.072-4.99 197.888 85.334 234.667 64.3 26.154 175.147-29.952 175.147-29.952-22.614 39.168-83.84 104.448-159.062 111.19-61.78 5.503-102.4-12.16-149.717-52.054-15.317-12.885-27.86-25.77-38.144-39.253-10.24 13.483-22.784 26.368-38.1 39.254-47.36 39.894-87.937 57.558-149.76 52.054-75.18-6.74-136.45-72.02-159.063-111.19 0 0 110.892 56.107 175.148 29.953 90.325-36.78 136.405-151.595 85.333-234.667-52.48-85.46-184.02-91.22-256-21.333-43.647 42.41-49.748 147.626-49.748 147.626C89.387 673.067 71.04 600.49 102.784 532.01c26.112-56.32 61.74-82.645 119.936-103.68 21.973-7.935 41.984-12.67 61.355-14.25-10.326-19.5-17.408-41.515-22.102-67.84-10.88-60.928-5.888-104.96 29.782-155.69 43.434-61.782 115.498-82.177 175.83-82.177 0 0-88.065 57.9-102.956 116.907-24.577 97.28 46.165 208.3 146.474 211.03 97.45 2.645 173.867-94.635 160.555-191.233-9.473-68.736-113.537-136.704-113.537-136.704zm121.984 458.41l83.84 15.916.384.127c-5.46 28.8-15.786 56.192-30.293 81.066-3.456 5.974-7.21 11.82-11.136 17.494-16.468 23.637-36.948 44.544-60.756 61.61l-.085.043-49.964-69.675c35.5-25.472 59.86-63.658 68.01-106.58zM449.792 376.918l-31.616-79.274-.128-.384c27.22-10.88 55.85-16.855 84.65-18.007 6.913-.298 13.825-.298 20.737 0 28.8 1.195 57.43 7.254 84.608 18.134l.042.042-31.872 79.615c-40.576-16.298-85.845-16.298-126.42-.128zm-36.65 296.62l-49.878 69.247c-23.765-17.11-44.245-38.06-60.672-61.74-3.968-5.673-7.68-11.52-11.136-17.492-14.464-24.917-24.747-52.31-30.165-81.11l-.042-.085 84.31-15.83c8.063 42.924 32.34 81.11 67.797 106.668zM555.52 535.04c0-23.552-19.115-42.667-42.667-42.667-23.552 0-42.666 19.115-42.666 42.667 0 23.552 19.114 42.667 42.666 42.667 23.552 0 42.667-19.115 42.667-42.667z"/></svg>