<svg viewBox="0 0 1024 1024" xmlns="http://www.w3.org/2000/svg"><path d="M298.667 263.296C348.373 280.876 384 328.276 384 384v467.2c0 48.3-39.168 87.467-87.467 87.467h-81.066c-48.3 0-87.467-39.168-87.467-87.467V384c0-55.723 35.627-103.125 85.333-120.704v-92.63h-42.666V85.334h170.666v85.334h-42.666zM213.333 512v339.2c0 1.195.94 2.133 2.134 2.133h81.066c1.195 0 2.134-.938 2.134-2.133V512zm85.334-85.333V384c0-23.552-19.115-42.667-42.667-42.667-23.552 0-42.667 19.115-42.667 42.667v42.667zm341.333 256c-48.81 0-82.432-22.486-102.784-52.608C518.06 601.684 512 568.66 512 546.132v-68.266c0-22.528 6.06-55.552 25.216-83.926 20.352-30.12 53.973-52.607 102.784-52.607 48.81 0 82.432 22.486 102.784 52.608C761.94 422.316 768 455.34 768 477.868v68.266c0 22.528-6.06 55.552-25.216 83.926-20.352 30.12-53.973 52.607-102.784 52.607zm-64-136.534c0 11.606 3.54 29.782 13.184 44.075C597.632 602.752 612.01 614.4 640 614.4c27.99 0 42.368-11.648 50.816-24.192C700.46 575.915 704 557.738 704 546.133v-68.266c0-11.606-3.54-29.782-13.184-44.075C682.368 421.248 667.99 409.6 640 409.6c-27.99 0-42.368 11.648-50.816 24.192C579.54 448.085 576 466.262 576 477.867zm288 40.534c0-5.206-1.536-8.875-2.773-10.667H845.44c-.64.896-1.408 2.39-2.005 4.65-4.523 17.067-22.06 27.265-39.126 22.742-17.11-4.523-27.265-22.06-22.742-39.125 6.485-24.576 27.22-52.267 61.1-52.267H864c21.163 0 37.888 11.52 48.213 25.3C922.54 551.084 928 568.62 928 586.668c0 19.03-6.1 37.674-17.707 51.84l-34.26 44.16H896c17.664 0 32 14.336 32 32s-14.336 32-32 32h-85.333c-12.203 0-23.382-6.955-28.758-17.92-5.334-10.966-4.01-24.064 3.455-33.707l74.667-96.17c.256-.342.512-.64.768-.94 1.195-1.45 3.2-5.29 3.2-11.263z"/></svg>