<svg viewBox="0 0 1024 1024" xmlns="http://www.w3.org/2000/svg"><path d="M874.667 573.696c23.552 0 42.666 18.987 42.666 42.453 0 23.85-8.66 60.67-27.093 95.36-18.773 35.37-50.517 73.813-100.565 92.927-21.974 8.406-46.678-2.56-55.126-24.448-8.45-21.89 2.56-46.465 24.575-54.87 24.62-9.387 43.008-29.397 55.68-53.29C827.86 647.252 832 623.956 832 616.15c0-23.467 19.115-42.454 42.667-42.454zM836.31 507.52l-.897-2.133c-6.87-16.043-14.08-25.13-20.608-30.208-5.802-4.524-13.354-7.64-25.472-7.64-6.442 0-18.09 3.8-32.768 15.916-14.037 11.605-26.41 27.35-34.005 41.984-16.683 32.3-63.06 32.256-79.787.085-7.466-14.42-20.053-30.122-34.432-41.813-15.06-12.245-27.092-16.17-33.663-16.17-14.336 0-29.056 7.21-41.6 23.55C520.363 507.65 512 531.373 512 556.843c0 13.91 2.176 27.393 6.1 40.45 1.964 6.4 4.31 12.713 7.084 18.985C553.43 679.893 616.62 729.13 655.616 754.39c35.2 22.783 43.904 80 1.237 107.69-30.293 19.712-62.165 36.907-86.144 49.024-12.075 6.1-22.273 11.05-29.526 14.42-3.627 1.708-6.528 3.073-8.533 3.97l-2.346 1.066-.683.3-.17.084-17.45 7.723-19.456-8.704-.085-.043-.215-.128-.725-.34c-.597-.3-1.45-.77-2.517-1.324-2.134-1.152-5.206-2.773-9.088-4.95-7.723-4.266-18.688-10.58-32.128-18.773-26.795-16.384-63.446-40.533-103.168-71.722-78.636-61.824-172.844-154.027-223.276-271.488-7.253-16.982-13.653-34.518-18.944-52.608-10.837-36.95-17.067-76.118-17.067-117.206 0-76.8 24.064-151.68 66.134-208.34 42.24-56.79 104.874-97.707 180.522-97.707 76.074 0 136.49 33.28 180.01 88.32 43.52-55.04 103.936-88.32 180.01-88.32 75.65 0 138.283 40.918 180.523 97.75 42.07 56.618 66.134 131.54 66.134 208.298 0 22.444-4.608 52.353-8.62 74.37-2.132 11.477-4.266 21.802-5.972 29.397-.854 3.712-1.664 7.04-2.347 9.642-.3 1.15-.768 2.9-1.365 4.65v.043c-.214.597-.982 3.03-2.347 5.76l-.043.085c-.34.725-2.944 6.23-8.234 11.477-2.263 2.22-11.308 10.923-26.497 12.246-19.84 1.707-32.94-9.898-38.656-18.005-2.006-2.858-3.883-5.973-4.95-7.765-.64-1.024-1.152-1.92-1.536-2.56l-.425-.81-.17-.257zm-651.99-22.7c4.267 14.636 9.472 28.972 15.53 42.967 42.283 98.56 123.777 180.18 197.675 238.208 36.523 28.714 70.358 51.03 94.934 66.048 8.148 4.992 15.273 9.173 21.076 12.5 5.333-2.56 11.563-5.63 18.475-9.13 15.02-7.594 32.854-17.066 51.03-27.733-43.82-31.957-104.15-85.547-135.893-157.14-4.096-9.217-7.723-18.817-10.752-28.76-6.144-20.393-9.728-42.068-9.728-64.937 0-42.923 13.824-85.035 38.613-117.29 24.917-32.513 62.848-56.96 109.397-56.96 34.262 0 65.024 16.938 87.68 35.327 7.04 5.76 13.782 11.99 20.096 18.603 6.144-6.528 12.715-12.672 19.542-18.347 22.4-18.517 52.906-35.584 87.338-35.584 23.34 0 44.843 5.333 63.744 16.128.17-2.645.256-5.12.256-7.34 0-59.988-18.986-116.863-49.408-157.823-30.293-40.79-69.674-63.274-111.914-63.274-60.415 0-147.797 39.253-180.01 106.154 0 0-56.277-106.154-170.667-106.154-64 0-170.666 56.02-170.666 221.098 0 32.428 4.906 63.575 13.653 93.44z"/></svg>