<svg viewBox="0 0 1024 1024" xmlns="http://www.w3.org/2000/svg"><path d="M491.22 128c-42.068 0-126.463 8.277-165.375 24.363-38.87 16.085-74.197 39.637-103.978 69.376-29.74 29.695-53.376 64.98-69.462 103.807C136.277 364.373 128 405.973 128 448s8.277 83.627 24.405 122.453c16.086 38.827 39.723 74.112 69.462 103.808 29.78 29.74 65.11 53.292 103.978 69.377 23.552 9.728 63.83 16.64 101.29 20.523V896h85.462V746.667c0-31.02-22.1-56.875-51.456-62.763-3.967-1.45-8.19-2.432-12.585-2.773-32.81-2.73-71.296-8.02-90.198-15.83-28.586-11.817-54.57-29.14-76.416-50.985-21.887-21.846-39.252-47.787-51.07-76.288-11.862-28.544-17.92-59.136-17.92-90.027 0-30.89 6.058-61.483 17.92-90.027 11.818-28.5 29.183-54.442 51.07-76.288 21.847-21.845 47.83-39.168 76.417-50.986 28.587-11.82 101.93-17.92 132.864-17.92V128zm329.73 98.603c19.37-1.45 41.3 4.693 56.703 24.704 13.227 17.152 17.366 39.552 18.176 57.813.895 19.925-1.793 42.325-8.278 64.98-12.928 45.356-42.197 95.703-94.848 130.732-32.128 21.42-68.992 31.66-101.547 37.675-20.394 3.797-43.178 6.442-62.122 8.66-7.467.854-14.336 1.665-20.224 2.433-7.253 11.563-15.53 22.23-24.874 31.53 1.877.555 3.67 1.11 5.42 1.537 31.103 7.936 51.455 43.648 51.455 74.666V896h-85.46V704c0-38.827-42.753-64-101.29-64v-.085c-1.28.042-2.604.085-3.884.085-46.848.256-92.203-16.427-127.573-47.02-35.37-30.633-58.41-73-64.683-119.295-6.272-46.293 4.65-93.27 30.635-132.138 25.984-38.827 65.28-66.902 110.55-78.976 34.218-9.173 70.143-8.66 103.764 1.067l13.61 3.798c36.864 10.496 63.872 18.176 86.613 20.864 47.574 5.63 78.464-1.11 103.766-7.425 3.2-.81 5.417-1.707 6.91-2.518 7.98-4.437 16.3-9.728 25.857-15.744l3.712-2.346c10.452-6.614 22.57-14.166 34.43-20.182 11.222-5.674 26.54-12.288 43.18-13.482zM675.583 458.58c27.904-5.16 51.584-12.67 69.717-24.745 32.855-21.846 51.628-53.632 60.076-83.115 3.328-11.776 4.864-22.485 5.12-31.36-6.315 3.54-13.397 7.893-21.504 13.013l-3.627 2.304c-9.258 5.846-19.797 12.502-29.994 18.22-9.43 5.204-18.986 8.575-27.86 10.794-27.137 6.742-64.214 14.89-116.78 11.05-7.423-.383-16-.852-22.826-1.407-8.277-.682-18.987-1.834-27.136-2.773-8.235-.98-16.384-2.603-24.32-4.907-12.928-3.754-32.597-9.728-39.765-13.27-23.424-11.52-50.262-14.122-75.52-7.38-25.216 6.74-47.104 22.4-61.526 43.946-14.464 21.59-20.48 47.615-17.024 73.3 3.5 25.643 16.256 49.195 35.926 66.22 19.71 17.023 44.97 26.325 71.124 26.197 26.155-.128 51.328-9.77 70.827-27.008 9.09-8.023 17.28-21.25 23.425-33.025 7.765-14.976 22.314-25.942 39.168-26.966l51.498-3.115c13.185-1.536 26.455-3.243 41.004-5.974z"/></svg>