<svg viewBox="0 0 1024 1024" xmlns="http://www.w3.org/2000/svg"><path d="M851.157 129.408c25.472-1.536 46.123 19.285 46.123 44.757 0 25.472-20.65 45.995-46.123 47.744-73.088 4.99-145.024 21.802-212.95 49.962-82.132 34.005-156.756 83.883-219.604 146.73-62.848 62.85-112.726 137.515-146.774 219.65-28.118 67.88-44.97 139.817-49.963 212.948-1.707 25.43-22.23 46.123-47.702 46.123-25.514 0-46.293-20.694-44.8-46.123 5.12-85.29 24.406-169.173 57.174-248.277 38.697-93.355 95.36-178.134 166.783-249.6C424.747 281.9 509.568 225.237 602.88 186.58c79.104-32.767 163.03-52.052 248.277-57.172zm-250.965 726.1l.085-.383c3.5-24.917 10.155-49.322 19.84-72.66 15.062-36.396 37.163-69.462 65.024-97.324 27.863-27.86 60.93-49.96 97.367-65.023 23.338-9.685 47.744-16.34 72.618-19.882l.384-.043c3.03-.47 5.93-1.152 8.746-2.09 18.816-6.273 33.067-22.955 33.067-43.137 0-23.38-19.03-42.58-42.24-39.978-3.968.426-7.894.896-11.862 1.493-2.56.34-5.16.725-7.764 1.152-29.227 4.78-57.856 12.885-85.333 24.277-46.678 19.327-89.088 47.658-124.8 83.413-35.712 35.712-64.043 78.122-83.37 124.757-11.393 27.52-19.542 56.15-24.278 85.376-.427 2.603-.81 5.163-1.195 7.765-.555 3.927-1.067 7.895-1.493 11.863-2.56 23.21 16.597 42.197 39.978 42.197 20.224 0 36.864-14.208 43.136-33.024.94-2.816 1.665-5.76 2.092-8.747zm240.896-457.47c18.603-2.09 37.376-3.158 56.192-3.158v-64.128c-21.205 0-42.368 1.195-63.403 3.584l7.21 63.7zm-135.98 35.07c17.41-7.21 35.16-13.396 53.164-18.6l-17.75-61.612c-20.31 5.845-40.32 12.843-59.946 20.992-19.584 8.107-38.7 17.323-57.216 27.563l31.02 56.107c16.425-9.088 33.364-17.237 50.73-24.448zm-162.9 108.844c13.312-13.312 27.307-25.813 41.984-37.504l-39.98-50.133c-16.51 13.184-32.34 27.306-47.316 42.325-15.02 15.02-29.14 30.805-42.325 47.36l50.09 39.98c11.692-14.68 24.236-28.716 37.548-42.028zM433.323 704.896c7.21-17.408 15.402-34.347 24.448-50.73l-56.106-31.02c-10.24 18.518-19.413 37.59-27.563 57.217-8.105 19.584-15.103 39.594-20.948 59.946l61.61 17.75c5.163-18.05 11.393-35.8 18.56-53.164zm-38.187 192.17c0-18.815 1.024-37.59 3.157-56.234l-63.744-7.168c-2.347 20.992-3.542 42.155-3.542 63.403h64.128z"/></svg>