<svg viewBox="0 0 1024 1024" xmlns="http://www.w3.org/2000/svg"><path d="M298.667 74.667c23.552 0 42.666 19.114 42.666 42.666v789.334c0 23.552-19.114 42.666-42.666 42.666-23.552 0-42.667-19.114-42.667-42.666V117.333c0-23.552 19.115-42.666 42.667-42.666zm426.666 0c23.552 0 42.667 19.114 42.667 42.666v789.334c0 23.552-19.115 42.666-42.667 42.666-23.552 0-42.666-19.114-42.666-42.666V117.333c0-23.552 19.114-42.666 42.666-42.666zM554.667 213.333c0-23.552-19.115-42.666-42.667-42.666-23.552 0-42.667 19.114-42.667 42.666V320c0 23.552 19.115 42.667 42.667 42.667 23.552 0 42.667-19.115 42.667-42.667V213.333zM512 650.667c23.552 0 42.667 19.114 42.667 42.666V800c0 23.552-19.115 42.667-42.667 42.667-23.552 0-42.667-19.115-42.667-42.667V693.333c0-23.552 19.115-42.666 42.667-42.666zm42.667-192C554.667 435.115 535.552 416 512 416c-23.552 0-42.667 19.115-42.667 42.667v106.666C469.333 588.885 488.448 608 512 608c23.552 0 42.667-19.115 42.667-42.667V458.667z"/></svg>