<svg viewBox="0 0 1024 1024" xmlns="http://www.w3.org/2000/svg"><path d="M512 938.667c-235.648 0-426.667-191.02-426.667-426.667 0-235.648 191.02-426.667 426.667-426.667 235.648 0 426.667 191.02 426.667 426.667 0 235.648-191.02 426.667-426.667 426.667zm42.667-765.355v321.024l226.986 226.987C826.58 663.51 853.333 590.89 853.333 512c0-174.08-130.304-317.696-298.666-338.688zm-312.32 548.01l226.986-226.986V173.312C300.97 194.304 170.667 337.92 170.667 512c0 78.89 26.752 151.51 71.68 209.323zM469.333 850.69v-235.69L302.677 781.652c47.232 36.694 104.32 61.27 166.656 69.035zm251.99-69.035L554.667 614.997v235.69c62.336-7.764 119.424-32.34 166.656-69.034z"/></svg>