<svg viewBox="0 0 1024 1024" xmlns="http://www.w3.org/2000/svg"><path d="M215.765 113.877c-53.12 151.168-85.46 273.366-87.637 397.355-2.22 124.63 26.027 247.595 88.363 400.853l79.02-32.17c-59.606-146.646-84.01-257.75-82.05-367.147 1.92-110.08 30.593-221.91 82.817-370.645l-80.512-28.246zm592.512 0c53.078 151.168 85.376 273.366 87.595 397.355 2.22 124.63-26.027 247.595-88.363 400.853l-79.02-32.17c59.606-146.646 84.01-257.75 82.05-367.147-1.92-110.08-30.593-221.91-82.817-370.645l80.554-28.246zm-253.61 676.14V896h-85.334V790.016C437.717 774.316 416 741.676 416 704v-36.437c-49.237-13.91-85.333-59.18-85.333-112.896V512h64v42.667c0 17.45 8.362 32.938 21.333 42.666v-128h64V704c0 17.664 14.336 32 32 32s32-14.336 32-32V469.333h64v128c12.97-9.728 21.333-25.216 21.333-42.666V512h64v42.667c0 53.717-36.096 98.986-85.333 112.896V704c0 37.675-21.717 70.315-53.333 86.016z"/></svg>