<svg viewBox="0 0 1024 1024" xmlns="http://www.w3.org/2000/svg"><path d="M384 213.333h426.667c23.552 0 43.008 19.243 39.21 42.496-4.053 24.575-11.605 48.725-22.528 71.807-17.153 36.224-42.283 69.163-73.985 96.896-10.325 9.003-21.29 17.45-32.768 25.216 3.03 5.845 4.736 12.543 4.736 19.583 0 79.53-54.4 146.347-128 165.29v-91.39c19.414-11.222 33.963-29.868 39.85-52.054-26.58 9.172-54.27 15.36-82.516 18.473V640h-85.334V509.653c-30.165-3.328-59.733-10.154-87.936-20.394-41.43-15.02-79.06-36.993-110.762-64.727-31.702-27.733-56.832-60.672-73.984-96.896-10.922-23.082-18.474-47.232-22.527-71.808-3.798-23.254 15.658-42.497 39.21-42.497h85.334c0-30.976 10.58-80.17 53.077-108.63C396.5 74.71 457.856 79.916 531.37 117.334c20.993 10.71 29.355 36.395 18.646 57.387-10.71 20.992-36.395 29.355-57.387 18.645-63.02-32.085-86.998-22.058-93.44-17.75-8.705 5.846-15.19 20.396-15.19 37.718zM326.827 360.32c23.38 20.437 51.712 37.163 83.626 48.725 31.872 11.563 66.347 17.622 101.376 17.622h.34c35.03 0 69.505-6.06 101.377-17.622 31.914-11.562 60.245-28.288 83.626-48.725 20.992-18.39 37.504-39.34 49.28-61.653H277.547c11.776 22.314 28.288 43.264 49.28 61.653zm-28.16 493.013h170.666c0-9.045 2.902-17.792 8.064-24.96 3.584-4.992 8.278-9.258 13.91-12.373 2.56-1.408 5.29-2.56 8.15-3.456l93.14-31.06c2.816-.94 4.736-3.585 4.736-6.572 0-3.797-3.114-6.912-6.912-6.912H405.334c-58.922 0-106.666-47.744-106.666-106.667 0-58.922 47.744-106.666 106.666-106.666h21.334V640h-21.334C393.557 640 384 649.557 384 661.333c0 11.776 9.557 21.334 21.333 21.334H590.42c50.945 0 92.247 41.3 92.247 92.245 0 32.427-16.94 61.867-43.648 78.42h86.313v85.335H298.667v-85.334z"/></svg>