<svg viewBox="0 0 1024 1024" xmlns="http://www.w3.org/2000/svg"><path d="M691.5 392.832c16.68-16.64 16.68-43.69 0-60.33-16.64-16.683-43.692-16.683-60.332 0L332.5 631.167c-16.68 16.64-16.68 43.69 0 60.33 16.64 16.683 43.692 16.683 60.332 0L691.5 392.833zM938.666 512c0 235.648-191.02 426.667-426.667 426.667-235.648 0-426.667-191.02-426.667-426.667 0-235.648 191.02-426.667 426.667-426.667 235.648 0 426.667 191.02 426.667 426.667zm-85.334 0c0-188.5-152.832-341.333-341.333-341.333-188.5 0-341.333 152.832-341.333 341.333 0 188.5 152.832 341.333 341.333 341.333 188.5 0 341.333-152.832 341.333-341.333z"/></svg>