<svg viewBox="0 0 1024 1024" xmlns="http://www.w3.org/2000/svg"><path d="M385.28 299.947c12.5-12.502 12.5-32.726 0-45.227-12.5-12.5-32.725-12.5-45.227 0l-85.333 85.333c-12.5 12.502-12.5 32.726 0 45.227 12.5 12.5 32.725 12.5 45.227 0l85.333-85.333zM554.667 320c0 129.62-105.046 234.667-234.667 234.667C190.38 554.667 85.333 449.62 85.333 320 85.333 190.38 190.38 85.333 320 85.333c129.62 0 234.667 105.046 234.667 234.667zm-85.334 0c0-82.475-66.858-149.333-149.333-149.333S170.667 237.525 170.667 320 237.525 469.333 320 469.333 469.333 402.475 469.333 320zm254.72 449.28c12.502 12.5 32.726 12.5 45.227 0 12.5-12.5 12.5-32.725 0-45.227l-85.333-85.333c-12.502-12.5-32.726-12.5-45.227 0-12.5 12.5-12.5 32.725 0 45.227l85.333 85.333zM938.667 704c0 129.62-105.046 234.667-234.667 234.667-129.62 0-234.667-105.046-234.667-234.667 0-129.62 105.046-234.667 234.667-234.667 129.62 0 234.667 105.046 234.667 234.667zm-85.334 0c0-82.475-66.858-149.333-149.333-149.333S554.667 621.525 554.667 704 621.525 853.333 704 853.333 853.333 786.475 853.333 704z"/></svg>