<svg viewBox="0 0 1024 1024" xmlns="http://www.w3.org/2000/svg"><path d="M542.165 309.333c17.664 0 32-14.336 32-32s-14.336-32-32-32h-60.33c-17.664 0-32 14.336-32 32s14.336 32 32 32h60.33zm161.835-32c0 106.027-85.973 192-192 192s-192-85.973-192-192c0-106.026 85.973-192 192-192s192 85.974 192 192zm-85.333 0c0-58.922-47.744-106.666-106.667-106.666S405.333 218.41 405.333 277.333C405.333 336.256 453.077 384 512 384s106.667-47.744 106.667-106.667zM321.28 747.947c12.5-12.502 12.5-32.726 0-45.227-12.5-12.5-32.725-12.5-45.227 0l-42.666 42.667c-12.502 12.5-12.502 32.725 0 45.226 12.5 12.502 32.725 12.502 45.226 0l42.667-42.666zm148.053-1.28c0 106.026-85.973 192-192 192-106.026 0-192-85.974-192-192 0-106.027 85.974-192 192-192 106.027 0 192 85.973 192 192zm-85.333 0C384 687.744 336.256 640 277.333 640c-58.922 0-106.666 47.744-106.666 106.667 0 58.922 47.744 106.666 106.666 106.666C336.256 853.333 384 805.59 384 746.667zm318.72-41.387c12.5 12.5 32.725 12.5 45.227 0 12.5-12.5 12.5-32.725 0-45.227l-42.667-42.666c-12.5-12.502-32.725-12.502-45.227 0-12.5 12.5-12.5 32.725 0 45.226l42.667 42.667zM896 661.333c0 106.027-85.973 192-192 192s-192-85.973-192-192c0-106.026 85.973-192 192-192s192 85.974 192 192zm-85.333 0c0-58.922-47.744-106.666-106.667-106.666S597.333 602.41 597.333 661.333C597.333 720.256 645.077 768 704 768s106.667-47.744 106.667-106.667z"/></svg>