<svg viewBox="0 0 1024 1024" xmlns="http://www.w3.org/2000/svg"><path d="M321.28 747.947c12.5-12.502 12.5-32.726 0-45.227-12.5-12.5-32.725-12.5-45.227 0l-42.666 42.667c-12.502 12.5-12.502 32.725 0 45.226 12.5 12.502 32.725 12.502 45.226 0l42.667-42.666zm148.053-1.28c0 106.026-85.973 192-192 192-106.026 0-192-85.974-192-192 0-106.027 85.974-192 192-192 106.027 0 192 85.973 192 192zm-85.333 0C384 687.744 336.256 640 277.333 640c-58.922 0-106.666 47.744-106.666 106.667 0 58.922 47.744 106.666 106.666 106.666C336.256 853.333 384 805.59 384 746.667zm-65.28-382.72c12.5 12.5 32.725 12.5 45.227 0 12.5-12.502 12.5-32.726 0-45.227l-42.667-42.667c-12.5-12.5-32.725-12.5-45.227 0-12.5 12.502-12.5 32.726 0 45.227l42.667 42.667zM512 320c0 106.027-85.973 192-192 192s-192-85.973-192-192 85.973-192 192-192 192 85.973 192 192zm-85.333 0c0-58.923-47.744-106.667-106.667-106.667S213.333 261.077 213.333 320 261.077 426.667 320 426.667 426.667 378.923 426.667 320zm363.946-41.387c12.502-12.5 12.502-32.725 0-45.226-12.5-12.502-32.725-12.502-45.226 0l-42.667 42.666c-12.5 12.502-12.5 32.726 0 45.227 12.5 12.5 32.725 12.5 45.227 0l42.666-42.667zm148.054-1.28c0 106.027-85.974 192-192 192-106.027 0-192-85.973-192-192 0-106.026 85.973-192 192-192 106.026 0 192 85.974 192 192zm-85.334 0c0-58.922-47.744-106.666-106.666-106.666C687.744 170.667 640 218.41 640 277.333 640 336.256 687.744 384 746.667 384c58.922 0 106.666-47.744 106.666-106.667zM716.5 714.667c-17.663 0-32 14.336-32 32s14.337 32 32 32h60.332c17.664 0 32-14.336 32-32s-14.336-32-32-32h-60.33zm222.167 32c0 106.026-85.974 192-192 192-106.027 0-192-85.974-192-192 0-106.027 85.973-192 192-192 106.026 0 192 85.973 192 192zm-85.334 0C853.333 687.744 805.59 640 746.667 640 687.744 640 640 687.744 640 746.667c0 58.922 47.744 106.666 106.667 106.666 58.922 0 106.666-47.744 106.666-106.666z"/></svg>