<svg viewBox="0 0 1024 1024" xmlns="http://www.w3.org/2000/svg"><path d="M554.667 213.333c0-23.552-19.115-42.666-42.667-42.666-23.552 0-42.667 19.114-42.667 42.666v195.67l-94.165 94.165c-16.683 16.64-16.683 43.69 0 60.33 16.64 16.683 43.69 16.683 60.33 0L512 487l76.5 76.5c16.64 16.683 43.692 16.683 60.332 0 16.683-16.64 16.683-43.69 0-60.33l-94.165-94.165v-195.67zm-256 85.334c-13.782 0-26.71 6.656-34.73 17.877-58.412 81.792-98.817 153.3-126.764 230.827-27.86 77.398-42.496 158.806-51.67 259.457-1.066 11.86 2.86 23.68 10.88 32.512 8.022 8.83 19.414 13.908 31.36 13.993l4.225.043c52.31.34 98.944.64 142.677-8.064 46.976-9.344 89.387-28.672 135.723-65.11 10.283-8.106 16.3-20.437 16.3-33.535v-85.334c0-23.552-19.116-42.666-42.668-42.666s-42.667 19.114-42.667 42.666v63.872c-29.738 20.694-55.68 30.89-83.328 36.395-24.106 4.82-50.048 6.187-82.688 6.485 8.832-74.538 21.76-135.082 42.155-191.786 13.995-38.828 31.7-76.545 54.7-116.183 7.252 5.76 16.468 9.216 26.495 9.216 23.552 0 42.666-19.114 42.666-42.666 0-16.726-9.6-31.19-23.637-38.187l3.115-4.48h26.24c7.382 12.757 21.163 21.333 36.95 21.333 23.552 0 42.667-19.114 42.667-42.666v-21.334c0-11.306-4.48-22.186-12.502-30.165-7.978-8.02-18.858-12.5-30.165-12.5h-85.333zm426.666 0c13.782 0 26.71 6.656 34.73 17.877 58.412 81.792 98.86 153.3 126.764 230.827 27.86 77.398 42.538 158.806 51.67 259.457 1.066 11.86-2.86 23.68-10.88 32.512-8.065 8.83-19.414 13.908-31.36 13.993l-4.225.043c-52.31.34-98.944.64-142.677-8.064-46.976-9.344-89.387-28.672-135.723-65.11-10.283-8.106-16.3-20.437-16.3-33.535v-85.334c0-23.552 19.116-42.666 42.668-42.666s42.667 19.114 42.667 42.666v63.872c29.738 20.694 55.68 30.89 83.328 36.395 24.106 4.82 50.048 6.187 82.688 6.485-8.832-74.538-21.76-135.082-42.155-191.786-13.995-38.828-31.7-76.545-54.7-116.183-7.252 5.76-16.468 9.216-26.495 9.216-23.552 0-42.666-19.114-42.666-42.666 0-16.726 9.6-31.19 23.594-38.187l-3.07-4.48h-26.24c-7.382 12.757-21.163 21.333-36.95 21.333-23.552 0-42.667-19.114-42.667-42.666v-21.334c0-11.306 4.48-22.186 12.502-30.165 7.978-8.02 18.858-12.5 30.165-12.5h85.333zm-426.666 384c0 23.552-19.115 42.666-42.667 42.666-23.552 0-42.667-19.114-42.667-42.666C213.333 659.115 232.448 640 256 640c23.552 0 42.667 19.115 42.667 42.667zm0-85.334c23.552 0 42.666-19.114 42.666-42.666 0-23.552-19.114-42.667-42.666-42.667C275.115 512 256 531.115 256 554.667c0 23.552 19.115 42.666 42.667 42.666zm469.333 128c-23.552 0-42.667-19.114-42.667-42.666C725.333 659.115 744.448 640 768 640c23.552 0 42.667 19.115 42.667 42.667 0 23.552-19.115 42.666-42.667 42.666zm-85.333-170.666c0 23.552 19.114 42.666 42.666 42.666 23.552 0 42.667-19.114 42.667-42.666C768 531.115 748.885 512 725.333 512c-23.552 0-42.666 19.115-42.666 42.667z"/></svg>