<svg viewBox="0 0 1024 1024" xmlns="http://www.w3.org/2000/svg"><path d="M392.235 752.768l60.33-60.373-60.33-60.33 60.33-60.332 60.374 60.33 60.33-60.33 60.33 60.33-60.33 60.332 60.33 60.373-60.33 60.33-60.33-60.33-60.375 60.33-60.33-60.33zM640 256c70.7 0 128 57.3 128 128v469.333c0 47.147-38.187 85.334-85.333 85.334H341.333c-47.146 0-85.333-38.187-85.333-85.334V384c0-70.7 57.3-128 128-128v-85.333c-23.552 0-42.667-19.115-42.667-42.667 0-23.552 19.115-42.667 42.667-42.667h256c23.552 0 42.667 19.115 42.667 42.667 0 23.552-19.115 42.667-42.667 42.667zM341.333 512v341.333h341.334V512zm128-341.333v170.666H384c-23.552 0-42.667 19.115-42.667 42.667v42.667h341.334V384c0-23.552-19.115-42.667-42.667-42.667h-85.333V170.667z"/></svg>