<svg viewBox="0 0 1024 1024" xmlns="http://www.w3.org/2000/svg"><path d="M512 85.333c70.7 0 128 57.302 128 128 0 4.14-.213 8.278-.597 12.33l105.13 70.06c19.286-11.69 41.942-18.39 66.134-18.39 70.698 0 128 57.302 128 128 0 56.534-36.65 104.49-87.467 121.43l-36.565 182.912C844.672 733.1 864 769.62 864 810.667c0 70.698-57.3 128-128 128-47.403 0-88.747-25.728-110.89-64H398.89c-22.143 38.272-63.53 64-110.89 64-70.7 0-128-57.302-128-128 0-41.046 19.328-77.568 49.365-100.992l-36.608-182.912c-50.816-16.94-87.424-64.896-87.424-121.43 0-70.698 57.302-128 128-128 24.192 0 46.848 6.7 66.134 18.39l105.13-70.06c-.384-4.052-.597-8.19-.597-12.33 0-70.698 57.3-128 128-128zM690.176 362.07l-87.51-58.37c-23.21 23.255-55.253 37.633-90.666 37.633s-67.5-14.378-90.667-37.632l-87.51 58.327c4.865 13.525 7.51 28.117 7.51 43.306 0 54.443-34.005 100.95-81.92 119.467l31.574 157.91c62.08 1.407 113.237 47.018 123.22 106.623h195.585c9.984-59.605 61.14-105.216 123.22-106.624l31.575-157.91c-47.915-18.517-81.92-65.024-81.92-119.467 0-15.19 2.645-29.78 7.51-43.264zM736 768c-23.552 0-42.667 19.115-42.667 42.667 0 23.552 19.115 42.666 42.667 42.666 23.552 0 42.667-19.114 42.667-42.666C778.667 787.115 759.552 768 736 768zm32-362.667C768 428.885 787.115 448 810.667 448c23.552 0 42.666-19.115 42.666-42.667 0-23.552-19.114-42.666-42.666-42.666-23.552 0-42.667 19.114-42.667 42.666zm-298.667-192C469.333 236.885 488.448 256 512 256c23.552 0 42.667-19.115 42.667-42.667 0-23.552-19.115-42.666-42.667-42.666-23.552 0-42.667 19.114-42.667 42.666zm-224 597.334c0 23.552 19.115 42.666 42.667 42.666 23.552 0 42.667-19.114 42.667-42.666C330.667 787.115 311.552 768 288 768c-23.552 0-42.667 19.115-42.667 42.667zm-32-448c-23.552 0-42.666 19.114-42.666 42.666 0 23.552 19.114 42.667 42.666 42.667C236.885 448 256 428.885 256 405.333c0-23.552-19.115-42.666-42.667-42.666z"/></svg>