<svg viewBox="0 0 1024 1024" xmlns="http://www.w3.org/2000/svg"><path d="M512 296.747c23.552 0 42.667 19.072 42.667 42.666v129.92H684.63c23.55 0 42.666 19.115 42.666 42.667 0 23.595-19.115 42.667-42.667 42.667H554.666V684.63c0 23.55-19.115 42.666-42.667 42.666-23.552 0-42.667-19.115-42.667-42.667V554.666H339.37c-23.55 0-42.666-19.072-42.666-42.667 0-23.552 19.115-42.667 42.667-42.667h129.963v-129.92c0-23.594 19.115-42.666 42.667-42.666zm0-211.414c235.648 0 426.667 191.02 426.667 426.667 0 235.648-191.02 426.667-426.667 426.667-235.648 0-426.667-191.02-426.667-426.667 0-235.648 191.02-426.667 426.667-426.667zM170.667 512c0 188.5 152.832 341.333 341.333 341.333 188.5 0 341.333-152.832 341.333-341.333 0-188.5-152.832-341.333-341.333-341.333-188.5 0-341.333 152.832-341.333 341.333z"/></svg>