<svg viewBox="0 0 1024 1024" xmlns="http://www.w3.org/2000/svg"><path d="M512 228.01l298.667 85.334v52.053c70.698 0 128 57.302 128 128V537.3c0 70.7-57.302 128-128 128-.128 20.225-10.027 39.127-26.54 50.817-163.07 115.414-381.183 115.414-544.255 0-16.512-11.69-26.41-30.592-26.54-50.816-70.697 0-128-57.3-128-128v-43.903c0-70.698 57.303-128 128-128v-52.053zm29.952 420.865v-267.05h-59.904v267.05zm159.66-63.616c0-25.943-21.036-46.977-46.977-46.977-25.942 0-46.976 21.034-46.976 46.976 0 25.94 21.033 47.017 46.975 47.017 25.94 0 46.976-21.077 46.976-47.018zm109.055-134.53V579.97c23.552 0 42.666-19.115 42.666-42.667v-43.903c0-23.552-19.114-42.666-42.666-42.666zM213.333 579.97V450.73c-23.552 0-42.666 19.115-42.666 42.667V537.3c0 23.553 19.114 42.668 42.666 42.668zm597.334-266.624v52.053c70.698 0 128 57.302 128 128V537.3c0 70.7-57.302 128-128 128-.128 20.225-10.027 39.127-26.54 50.817-163.07 115.414-381.183 115.414-544.255 0-16.512-11.69-26.41-30.592-26.54-50.816-70.697 0-128-57.3-128-128v-43.903c0-70.698 57.303-128 128-128v-52.053L512 228.01zm-413.952 36.352l-98.048 28.032V652.97c30.805 20.48 63.872 36.054 98.048 46.763zm145.237 299.18V381.823h-59.904v267.05zm183.38-271.148l-98.047-28.032v106.07c8.832-1.835 17.963-2.817 27.35-2.817 25.984 0 50.26 7.466 70.698 20.437zm-98.047 245.76c7.68 5.504 17.152 8.79 27.35 8.79 25.94 0 46.976-21.078 46.976-47.02 0-25.94-21.034-46.975-46.975-46.975-10.198 0-19.67 3.242-27.35 8.79-11.904 8.49-19.626 22.442-19.626 38.186 0 15.743 7.72 29.695 19.625 38.228zM213.333 450.73c-23.552 0-42.666 19.115-42.666 42.667V537.3c0 23.553 19.114 42.668 42.666 42.668v-43.904c15.53 0 29.142-8.32 36.608-20.736-7.465-12.416-21.076-20.693-36.607-20.693zM810.667 579.97c1.493 0 2.944-.085 4.352-.213 21.545-2.22 38.313-20.352 38.313-42.454v-43.903c0-23.552-19.114-42.666-42.666-42.666v43.905c-15.53 0-29.142 8.277-36.608 20.693 7.465 12.416 21.076 20.736 36.607 20.736z"/></svg>