<svg viewBox="0 0 1024 1024" xmlns="http://www.w3.org/2000/svg"><path d="M170.667 676.95c-1.45-.854-2.902-1.793-4.267-2.817l-10.155-7.594c-59.648-44.76-83.37-123.052-58.538-193.367l26.368-74.794c48.17-136.45 177.194-227.713 321.877-227.713H587.18c151.423 0 284.756 99.754 327.465 245.034l18.56 63.02c20.096 68.352-4.352 141.995-61.354 184.704l-14.25 10.71c-1.408 1.023-2.816 1.962-4.267 2.815v23.68c0 84.35-68.394 152.703-152.704 152.703h-3.37c-66.604 0-127.617-37.205-158.08-96.426l-.812-1.664c-10.88-21.078-41.13-20.694-51.413.682-28.715 59.563-89.003 97.408-155.136 97.408h-7.596c-84.82 0-153.557-68.778-153.557-153.6zm33.877-250.155l-26.368 74.794c-8.02 22.655-5.93 47.018 4.565 67.413C212.01 486.1 291.073 426.667 384 426.667h256c93.91 0 173.653 60.672 202.112 144.98 12.46-20.223 16.17-45.14 9.216-68.82l-18.56-63.062C800.725 330.837 700.758 256 587.178 256H445.953c-108.544 0-205.27 68.437-241.408 170.795zm222.123 63.872c0 11.776 9.557 21.333 21.333 21.333h128c11.776 0 21.333-9.557 21.333-21.333 0-11.776-9.557-21.334-21.333-21.334H448c-11.776 0-21.333 9.558-21.333 21.334z"/></svg>