<svg viewBox="0 0 1024 1024" xmlns="http://www.w3.org/2000/svg"><path d="M640 426.667v64H384v-64h256zm0 192v-64H384v64h256zM512 256l298.667 85.333c70.698 0 128 57.302 128 128v85.334c0 70.698-57.302 128-128 128h-1.792c-6.016 28.672-26.496 52.778-54.827 62.89l-26.795 9.558c-139.178 49.706-291.328 49.706-430.506 0l-26.795-9.558c-28.33-10.112-48.81-34.218-54.827-62.89h-1.792c-70.698 0-128-57.302-128-128v-85.334c0-70.698 57.302-128 128-128zm213.333 149.717L512 344.747l-213.333 60.97v259.5l26.794 9.556c120.62 43.05 252.46 43.05 373.08 0l26.793-9.557zm85.334 191.616c23.552 0 42.666-19.114 42.666-42.666v-85.334c0-23.552-19.114-42.666-42.666-42.666zM213.333 426.667c-23.552 0-42.666 19.114-42.666 42.666v85.334c0 23.552 19.114 42.666 42.666 42.666z"/></svg>