<svg viewBox="0 0 1024 1024" xmlns="http://www.w3.org/2000/svg"><path d="M541.952 381.74v267.007h-59.904V381.74h59.904zm93.74 250.41c25.94 0 46.975-21.035 46.975-47.02 0-25.94-21.035-46.975-46.976-46.975-25.983 0-47.018 21.034-47.018 46.976 0 25.985 21.035 47.02 47.02 47.02zM512 227.924l298.667 85.334v52.01c70.698 0 128 57.3 128 128v43.903c0 70.7-57.302 128-128 128-.17 20.224-10.07 39.168-26.624 50.86-163.03 115.242-381.184 115.284-544.17 0-16.513-11.692-26.412-30.636-26.54-50.86-70.698 0-128-57.3-128-128V493.27c0-70.7 57.302-128 128-128v-52.01zM725.333 377.6L512 316.672 298.667 377.6v275.285c129.152 85.675 297.43 85.675 426.666-.042zm85.334 202.24c23.552 0 42.666-19.115 42.666-42.667V493.27c0-23.553-19.114-42.667-42.666-42.667zM213.333 450.603c-23.552 0-42.666 19.114-42.666 42.666v43.903c0 23.552 19.114 42.667 42.666 42.667z"/></svg>