<svg viewBox="0 0 1024 1024" xmlns="http://www.w3.org/2000/svg"><path d="M742.485 331.733l66.518 232.534c3.712 12.885 1.11 26.71-6.912 37.418-8.063 10.71-20.693 16.982-34.09 16.982h-42.667v128C625.195 746.667 544 665.472 544 565.333V330.667h181.333c5.76 0 11.478.34 17.067 1.024l-34.56-65.023h17.493c111.915 0 213.334 90.752 213.334 202.666v341.334H725.333v-64h149.334V469.333c0-64-55.638-137.557-132.182-137.6zm-59.818 478.934c4.352 0 8.49-.64 12.458-1.835C573.867 793.942 480 690.602 480 565.332v-10.665H108.5c14.295 36.266 33.41 66.944 52.097 91.434 18.475 24.236 36.907 42.924 50.816 55.68 2.475 2.263 4.78 4.31 6.955 6.188v145.365c0 23.552 19.072 42.667 42.667 42.667h208.298C492.885 896 512 876.885 512 853.333v-42.666h170.667zM480 490.667H90.325c-3.2-17.878-4.992-36.736-4.992-56.448 0-37.42 6.57-72.065 18.518-103.553H480v160zm227.755-224c-11.136-14.592-25.942-31.616-44.672-48.64C613.547 173.013 536.063 128 426.667 128c-114.347 0-225.494 50.688-288.47 138.667h569.558z"/></svg>