<svg viewBox="0 0 1024 1024" xmlns="http://www.w3.org/2000/svg"><path d="M786.987 580.82c-13.056 83.927-79.275 150.273-163.2 163.457L640 938.667H384l16.98-203.862c-59.988-24.234-102.313-83.03-102.313-151.68V234.667c0-23.552 19.114-42.667 42.666-42.667C364.885 192 384 211.115 384 234.667v170.666h21.333V192c0-23.552 19.115-42.667 42.667-42.667 23.552 0 42.667 19.115 42.667 42.667v213.333H512v-256c0-23.552 19.115-42.666 42.667-42.666 23.552 0 42.666 19.114 42.666 42.666v256h21.334V128c0-23.552 19.114-42.667 42.666-42.667C684.885 85.333 704 104.448 704 128v256.47c.085 23.807 5.035 36.735 9.728 43.263 4.267 5.974 9.173 8.022 14.208 8.32 5.76.342 12.288-1.664 17.365-5.12 4.225-2.9 5.335-5.205 5.59-5.802l.086-.085v.214h.043l19.37-55.34c7.807-22.272 32.127-33.963 54.357-26.197 22.272 7.808 33.962 32.128 26.197 54.357l-63.957 182.74zM256 597.334V256h-85.333v341.333c0 65.067 26.07 116.395 50.816 150.443 8.234 11.307 21.248 20.95 31.83 28.757 5.375 4.01 10.154 7.552 13.354 10.624v.17L256 896h85.333L352 757.333l-27.563-23.338-.256-.214c-.297-.255-.895-.724-1.748-1.407-1.707-1.45-4.31-3.712-7.595-6.826-6.528-6.315-15.445-15.744-24.32-27.99C272.597 672.94 256 638.933 256 597.333z"/></svg>