<svg viewBox="0 0 1024 1024" xmlns="http://www.w3.org/2000/svg"><path d="M630.528 439.637L523.86 396.97c-7.593-3.07-16.127-3.07-23.72 0l-106.71 42.667c-16.385 6.528-24.363 25.174-17.793 41.558 6.528 16.426 25.174 24.405 41.6 17.834L512 461.14l94.805 37.89c16.384 6.57 35.03-1.41 41.558-17.835 6.57-16.384-1.408-35.03-17.835-41.558zm180.14-126.378v52.01c70.697 0 128 57.3 128 128v43.903c0 70.7-57.303 128-128 128-.172 20.224-10.07 39.168-26.625 50.86-163.03 115.242-381.184 115.284-544.17 0-16.513-11.692-26.412-30.636-26.54-50.86-70.698 0-128-57.3-128-128V493.27c0-70.7 57.302-128 128-128v-52.01l204.288-58.37c23.383-25.557 57.004-41.557 94.38-41.557s70.997 16 94.38 41.558zm-250.88 17.023l-16.3-17.75c-7.936-8.66-19.03-13.866-31.488-13.866-12.46 0-23.552 5.205-31.488 13.866l-16.3 17.75L298.668 377.6v275.285c129.152 85.675 297.43 85.675 426.666-.042V377.6zm250.88 249.557c23.55 0 42.665-19.115 42.665-42.667V493.27c0-23.553-19.114-42.667-42.666-42.667zM213.332 450.603c-23.552 0-42.666 19.114-42.666 42.666v43.903c0 23.552 19.114 42.667 42.666 42.667z"/></svg>