<svg viewBox="0 0 1024 1024" xmlns="http://www.w3.org/2000/svg"><path d="M213.333 341.333L512 256l298.667 85.333c70.698 0 128 57.302 128 128v85.334c0 70.698-57.302 128-128 128h-1.792c-6.016 28.672-26.496 52.778-54.827 62.89l-26.795 9.558c-139.178 49.706-291.328 49.706-430.506 0l-26.795-9.558c-28.33-10.112-48.81-34.218-54.827-62.89h-1.792c-70.698 0-128-57.302-128-128v-85.334c0-70.698 57.302-128 128-128zM384 426.667v64h256v-64zM384 576v64h256v-64zm426.667 21.333c23.552 0 42.666-19.114 42.666-42.666v-85.334c0-23.552-19.114-42.666-42.666-42.666zM213.333 426.667c-23.552 0-42.666 19.114-42.666 42.666v85.334c0 23.552 19.114 42.666 42.666 42.666zm597.334-85.334c70.698 0 128 57.302 128 128v85.334c0 70.698-57.302 128-128 128h-1.792c-6.016 28.672-26.496 52.778-54.827 62.89l-26.795 9.558c-139.178 49.706-291.328 49.706-430.506 0l-26.795-9.558c-28.33-10.112-48.81-34.218-54.827-62.89h-1.792c-70.698 0-128-57.302-128-128v-85.334c0-70.698 57.302-128 128-128L512 256zM640 426.667H384v64h256zM384 640h256v-64H384zm469.333-170.667c0-23.552-19.114-42.666-42.666-42.666v170.666c23.552 0 42.666-19.114 42.666-42.666zm-682.666 85.334c0 23.552 19.114 42.666 42.666 42.666V426.667c-23.552 0-42.666 19.114-42.666 42.666z"/></svg>