<svg viewBox="0 0 1024 1024" xmlns="http://www.w3.org/2000/svg"><path d="M303.83 183.168l-60.33 60.33-60.332-60.33 60.33-60.33c24.022-24.022 56.577-37.505 90.497-37.505h391.338v85.334H554.667v128h42.666c23.552 0 42.667 19.114 42.667 42.666V384h42.667c70.698 0 128 57.3 128 128v426.667H213.333V512c0-70.7 57.302-128 128-128H384v-42.667c0-23.552 19.115-42.666 42.667-42.666h42.666v-128H333.995c-11.307 0-22.144 4.48-30.166 12.5zm165.503 414.165H384v85.334h85.333V768h85.334v-85.333H640v-85.334h-85.333V512h-85.334zm-216.448-483.03c22.784-18.644 51.414-28.97 81.11-28.97h391.338v85.334H554.667v128h42.666c23.552 0 42.667 19.114 42.667 42.666V384h42.667c70.698 0 128 57.3 128 128v426.667H213.333V512c0-70.7 57.302-128 128-128H384v-42.667c0-23.552 19.115-42.666 42.667-42.666h42.666v-128H333.995c-11.307 0-22.144 4.48-30.166 12.5L243.5 243.5l-60.332-60.332 60.33-60.33c3.03-3.03 6.145-5.846 9.387-8.534zM384 597.334v85.334h85.333V768h85.334v-85.333H640v-85.334h-85.333V512h-85.334v85.333zm0 256V768h-85.333v85.333zM640 768v85.333h85.333V768zM469.333 426.667h85.334V384h-85.334zM640 469.333V512h85.333c0-23.552-19.114-42.667-42.666-42.667zm-256 0h-42.667c-23.552 0-42.666 19.115-42.666 42.667H384z"/></svg>