<svg viewBox="0 0 1024 1024" xmlns="http://www.w3.org/2000/svg"><path d="M597.333 234.667H426.667v42.666c0 35.328 28.63 64 64 64h42.666c35.328 0 64-28.672 64-64v-42.666zM469.333 512v-85.333h85.334V512h128v85.333H341.333V512h128zM512 85.333c117.803 0 213.333 95.53 213.333 213.334v16.853c49.878 24.02 86.656 71.723 94.934 129.664l22.528 157.568c11.178 78.464-42.454 149.46-117.462 162.944v44.97c0 70.7-57.3 128-128 128-32.81 0-62.677-12.33-85.333-32.597-22.656 20.266-52.565 32.597-85.333 32.597-70.7 0-128-57.302-128-128v-44.97c-75.008-13.484-128.683-84.48-117.462-162.945l22.528-157.568c8.278-57.94 45.056-105.643 94.934-129.664v-16.853c0-117.803 95.488-213.334 213.333-213.334zM265.685 614.827c-3.797 26.58 10.54 51.072 32.982 61.952 7.765 3.753 16.554 5.887 25.856 5.887 27.008 0 49.834-18.006 57.088-42.667H384v170.667c0 23.552 19.115 42.666 42.667 42.666 23.552 0 42.666-19.114 42.666-42.666V640h85.334v170.667c0 23.552 19.114 42.666 42.666 42.666 23.552 0 42.667-19.114 42.667-42.666V640h2.39c7.253 24.66 30.037 42.667 57.045 42.667 9.344 0 18.09-2.134 25.898-5.888 22.443-10.88 36.78-35.372 32.982-61.953L735.787 457.26C729.77 415.23 693.76 384 651.307 384H640v-85.333c0-70.7-57.3-128-128-128s-128 57.3-128 128V384h-11.35c-42.453 0-78.463 31.232-84.437 73.26z"/></svg>