<svg viewBox="0 0 1024 1024" xmlns="http://www.w3.org/2000/svg"><path d="M702.976 256H736c111.915 0 202.667 90.752 202.667 202.667v352H725.333c-141.397 0-256-114.603-256-256h-268.16c7.766 14.89 16.427 28.33 25.216 40.32 14.207 19.37 28.458 34.346 38.997 44.416 5.29 4.992 9.557 8.704 12.416 11.093 1.45 1.195 2.517 2.048 3.114 2.56l.64.47c10.752 8.063 17.11 20.693 17.11 34.175v165.633C298.667 876.885 279.552 896 256 896c-23.552 0-42.667-19.115-42.667-42.667V707.5c-2.09-1.92-4.352-4.012-6.74-6.273-13.44-12.758-31.19-31.53-48.982-55.766-35.455-48.255-72.277-120.32-72.277-211.24C85.333 245.844 252.245 128 426.667 128c115.754 0 193.706 44.587 242.517 90.71 13.483 12.757 24.66 25.514 33.792 37.29zm-46.42 85.333h-101.89v213.334c0 94.25 76.417 170.666 170.667 170.666h128V458.667c0-61.526-47.317-111.958-107.562-116.95l63.275 222.635c3.67 12.843 1.067 26.667-6.997 37.376-8.064 10.667-20.65 16.94-34.048 16.94h-42.667V640c0 23.552-19.114 42.667-42.666 42.667C659.115 682.667 640 663.552 640 640v-64c0-23.552 19.115-42.667 42.667-42.667h28.842L657.492 343.34c-.256-.556-.554-1.24-.938-2.007zm-463.617 0c-14.337 27.82-22.273 59.136-22.273 92.886 0 12.116.896 23.807 2.517 35.113h296.15v-128zM272.47 256h307.07c-35.2-23.467-84.564-42.667-152.873-42.667-57.984 0-111.36 15.53-154.198 42.667zm324.863 544C620.885 800 640 819.115 640 842.667v10.666C640 876.885 620.885 896 597.333 896c-23.552 0-42.666-19.115-42.666-42.667v-10.666c0-23.552 19.114-42.667 42.666-42.667z"/></svg>