<svg viewBox="0 0 1024 1024" xmlns="http://www.w3.org/2000/svg"><path d="M561.835 793.003l-.086-.086c-9.515-10.837-17.793-22.87-24.577-36.01l-.853-1.664c-10.837-21.078-41.13-20.694-51.456.682-28.757 59.563-89.13 97.408-155.307 97.408h-7.637c-84.907 0-153.77-68.778-153.77-153.6V640c0-117.803 95.615-213.333 213.63-213.333h256.343c117.973 0 213.632 95.53 213.632 213.333v60.63c0 84.35-68.48 152.703-152.918 152.703h-3.413c-51.797 0-100.267-22.485-133.59-60.33zm204.458-92.374V640c0-70.7-57.386-128-128.17-128H381.78c-70.783 0-128.17 57.3-128.17 128v59.733c0 37.718 30.593 68.267 68.31 68.267h7.637c33.366 0 63.83-19.115 78.336-49.152 40.96-84.78 161.323-86.357 204.416-2.645l.853 1.664C629.035 748.63 660.78 768 695.423 768h3.414c37.248 0 67.456-30.165 67.456-67.37zM443.82 256c-108.673 0-205.57 68.437-241.708 170.795L175.66 501.59c-12.417 35.157-.556 74.282 29.31 96.64l10.155 7.637c18.902 14.122 22.7 40.874 8.576 59.733-14.164 18.86-40.96 22.656-59.817 8.533l-10.198-7.594c-59.733-44.76-83.456-123.052-58.58-193.367l26.41-74.794c48.213-136.45 177.408-227.713 322.304-227.713h141.396c151.637 0 285.14 99.754 327.936 245.034l18.56 63.02c20.14 68.352-4.352 141.995-61.397 184.704l-14.294 10.71c-18.9 14.122-45.652 10.325-59.817-8.534-14.166-18.86-10.326-45.61 8.533-59.733l14.293-10.71c28.543-21.376 40.79-58.154 30.72-92.33l-18.603-63.062C799.06 330.837 698.965 256 585.217 256z"/></svg>