<svg viewBox="0 0 1024 1024" xmlns="http://www.w3.org/2000/svg"><path d="M606.38 254.89l204.287 58.37v52.01c70.698 0 128 57.3 128 128v43.903c0 70.7-57.302 128-128 128-.17 20.224-10.07 39.168-26.624 50.86-163.03 115.242-381.184 115.284-544.17 0-16.513-11.692-26.412-30.636-26.54-50.86-70.698 0-128-57.3-128-128V493.27c0-70.7 57.302-128 128-128v-52.01l204.288-58.37c23.383-25.557 57.004-41.557 94.38-41.557s70.997 16 94.38 41.558zm-82.52 99.414c-7.593-3.072-16.127-3.072-23.72 0L393.43 396.97c-16.385 6.53-24.363 25.174-17.793 41.558 6.528 16.427 25.174 24.405 41.6 17.835L512 418.475l94.805 37.888c16.384 6.57 34.987-1.408 41.558-17.835 6.57-16.384-1.408-35.03-17.835-41.557zM810.668 579.84c23.552 0 42.666-19.115 42.666-42.667V493.27c0-23.553-19.114-42.667-42.666-42.667zM213.333 450.603c-23.552 0-42.666 19.114-42.666 42.666v43.903c0 23.552 19.114 42.667 42.666 42.667z"/></svg>