<svg viewBox="0 0 1024 1024" xmlns="http://www.w3.org/2000/svg"><path d="M469.333 512v85.333H384v85.334h85.333V768h85.334v-85.333H640v-85.334h-85.333V512h-85.334zM351.7 170.667c-22.655 0-44.33 9.002-60.372 25.002l-47.83 47.83-60.33-60.332 47.83-47.83c32-32.042 75.434-50.005 120.703-50.005h373.633v85.334H554.667v128h42.666c47.147 0 85.334 38.186 85.334 85.333 70.698 0 128 57.3 128 128v426.667H213.333V512c0-70.7 57.302-128 128-128 0-47.147 38.23-85.333 85.334-85.333h42.666v-128zm-53.033 682.666h426.666V512c0-23.552-19.114-42.667-42.666-42.667h-85.334V384H426.667v85.333h-85.334c-23.552 0-42.666 19.115-42.666 42.667z"/></svg>