<svg viewBox="0 0 1024 1024" xmlns="http://www.w3.org/2000/svg"><path d="M704 896s-72.02 42.667-192 42.667S320 896 320 896V638.677c-84.18-10.496-149.333-82.304-149.333-169.344V256c0-92.46 73.557-167.765 165.333-170.58 1.792-.044 3.54-.087 5.333-.087h80c0 47.147 40.576 85.334 90.667 85.334 50.09 0 90.667-38.187 90.667-85.334h80c1.792 0 3.54.043 5.333.086 91.776 2.815 165.333 78.12 165.333 170.58v213.333c0 87.04-65.152 158.848-149.333 169.344zm64-426.667V256c0-47.147-38.187-85.333-85.333-85.333H664.66C633.43 222.933 574.678 256 512 256c-62.677 0-121.43-33.067-152.66-85.333h-18.007C294.187 170.667 256 208.853 256 256v213.333c0 39.723 27.22 73.216 64 82.646V341.332h85.333v128h213.334v-128H704V551.98c36.78-9.43 64-42.924 64-82.647zm-362.667 85.334v283.946c25.6 7.552 61.782 14.72 106.667 14.72 44.885 0 81.067-7.168 106.667-14.72V554.667z"/></svg>