<svg viewBox="0 0 1024 1024" xmlns="http://www.w3.org/2000/svg"><path d="M384 213.333c0-70.698 57.3-128 128-128s128 57.302 128 128v85.334h8.96c43.477 0 80 32.682 84.82 75.904l26.753 240.982c4.01 35.797-24.064 67.115-60.074 67.115-6.188 0-12.16-.94-17.793-2.646V896c0 23.552-19.115 42.667-42.667 42.667h-42.667c-23.552 0-42.666-19.115-42.666-42.667V682.667h-85.334V896c0 23.552-19.114 42.667-42.666 42.667H384c-23.552 0-42.667-19.115-42.667-42.667V680.02c-5.632 1.708-11.605 2.647-17.792 2.647-36.01 0-64.04-31.318-60.073-67.115l26.752-240.98c4.82-43.223 41.343-75.905 84.82-75.905H384zM490.667 512H384v42.667h256V512H533.333V384h-42.666zm106.666-341.333H426.667V192c0 35.328 28.672 64 64 64h42.666c35.328 0 64-28.672 64-64z"/></svg>