<svg viewBox="0 0 1024 1024" xmlns="http://www.w3.org/2000/svg"><path d="M249.557 346.624C178.304 295.424 128 219.69 128 128h85.333c0 57.643 31.19 109.91 86.06 149.376C354.474 316.97 430.847 341.333 512 341.333c81.152 0 157.568-24.362 212.608-63.957 54.87-39.467 86.06-91.733 86.06-149.376H896c0 91.69-50.304 167.424-121.557 218.624-3.926 2.816-7.894 5.59-11.947 8.235 5.077 2.09 10.07 4.48 14.933 7.167 97.62 54.485 112.213 150.87 112.17 240.47-.043 78.335-32.17 159.743-71.85 220.8-20.054 30.804-43.137 58.282-67.2 78.506-22.7 19.157-52.182 36.864-84.225 36.864-30.208 0-56.874-8.022-79.744-26.155-21.46-17.024-36.393-40.49-48.724-65.11-5.93-11.818-8.448-26.538-9.9-37.717-1.705-12.842-2.815-28.074-3.497-44.5-1.452-32.94-1.452-73.558-.684-115.244 1.45-79.53 5.59-165.332 7.936-213.8l.3-6.913c.04-.982.127-1.963.212-2.987-6.74.3-13.483.427-20.224.427-6.528 0-13.013-.128-19.5-.384.087.938.13 1.877.172 2.858l.34 7c2.305 48.51 6.4 134.228 7.81 213.716.767 41.685.767 82.304-.64 115.285-.683 16.428-1.793 31.617-3.457 44.46-1.45 11.18-3.925 25.856-9.77 37.59-12.16 24.575-26.88 48.085-48.128 65.15-22.656 18.22-49.195 26.327-79.232 26.327-32.043 0-61.312-17.92-83.712-37.035-23.766-20.267-46.592-47.744-66.347-78.55-39.168-61.098-70.827-142.378-70.87-220.586-.042-89.387 14.25-185.77 110.806-240.34 4.267-2.433 8.704-4.61 13.184-6.53-4.437-2.9-8.832-5.887-13.1-9.002zm486.272 89.9c-11.35-6.316-30.038-9.985-54.53-9.857-22.697.085-45.95 3.413-64.04 6.87l-.343 6.527c-2.304 48.597-6.4 133.248-7.808 211.413-.77 41.046-.726 79.66.597 109.995.64 15.232 1.62 27.69 2.858 37.035.81 6.357 1.58 9.642 1.878 10.88.085.384.128.597.128.597 10.113 19.968 18.134 30.165 25.046 35.627 5.632 4.48 12.8 7.723 26.71 7.723 1.75 0 11.775-2.048 29.27-16.768 16.127-13.61 33.96-34.176 50.6-59.776 33.665-51.798 58.028-117.206 58.07-174.337.043-84.053-14.42-135.765-68.437-165.93zm-391.17-9.857c-24.02-.086-42.196 3.54-53.204 9.77-53.12 30.038-67.5 81.75-67.456 166.016.043 57.26 24.107 122.752 57.344 174.55 16.47 25.642 34.005 46.165 49.92 59.733 7.936 6.784 14.763 11.22 20.14 13.824 2.644 1.28 4.692 2.005 6.143 2.39 1.408.383 2.048.383 2.048.383 13.482 0 20.352-3.157 25.77-7.552 6.784-5.417 14.763-15.615 24.747-35.668 0 0 0-.17.085-.555.3-1.237 1.067-4.608 1.92-11.008 1.195-9.345 2.176-21.846 2.816-37.078 1.28-30.38 1.323-69.035.598-110.08-1.407-78.208-5.46-162.773-7.765-211.328l-.298-6.613c-17.835-3.455-40.576-6.698-62.806-6.783z"/></svg>