<svg viewBox="0 0 1024 1024" xmlns="http://www.w3.org/2000/svg"><path d="M332.8 358.4c0-73.728 73.26-145.067 179.2-145.067 105.94 0 179.2 71.34 179.2 145.067 0 70.997-72.405 143.787-193.28 145.067-24.66.256-45.653 20.224-45.653 46.08V640c0 23.552 19.114 42.667 42.666 42.667 23.552 0 42.667-19.115 42.667-42.667v-53.76c131.712-15.915 238.933-105.088 238.933-227.84C776.533 224.768 651.136 128 512 128c-139.136 0-264.533 96.768-264.533 230.4 0 23.552 19.114 42.667 42.666 42.667 23.552 0 42.667-19.115 42.667-42.667zM576 810.667C576 857.813 537.813 896 490.667 896c-47.147 0-85.334-38.187-85.334-85.333 0-47.147 38.187-85.334 85.334-85.334 47.146 0 85.333 38.187 85.333 85.334z"/></svg>