<svg viewBox="0 0 1024 1024" xmlns="http://www.w3.org/2000/svg"><path d="M507.947 533.333c-26.54 0-38.614 17.238-38.614 27.734 0 17.664-14.336 32-32 32s-32-14.336-32-32c0-55.467 51.158-91.734 102.614-91.734 51.413 0 102.57 36.267 102.57 91.734 0 45.61-34.645 76.97-76.032 87.68v1.92c0 17.664-14.336 32-32 32s-32-14.336-32-32V622.08c0-18.688 15.147-33.067 32.896-33.28 32.343-.384 43.137-18.9 43.137-27.733 0-10.496-12.074-27.734-38.57-27.734zM533.333 736c0 17.664-14.336 32-32 32s-32-14.336-32-32 14.336-32 32-32 32 14.336 32 32zM848.98 896H173.356c-31.147 0-51.798-32.256-38.742-60.544l328.15-711.21c15.104-32.64 61.312-33.153 77.098-.854l347.48 711.21C901.204 862.977 880.554 896 848.98 896zM240 810.667h540.672L502.612 241.58z"/></svg>