<svg viewBox="0 0 1024 1024" xmlns="http://www.w3.org/2000/svg"><path d="M554.667 725.333C554.667 748.885 535.552 768 512 768c-23.552 0-42.667-19.115-42.667-42.667 0-23.552 19.115-42.666 42.667-42.666 23.552 0 42.667 19.114 42.667 42.666zm-128-307.2c0-36.01 37.162-76.8 98.517-76.8 61.397 0 98.517 40.79 98.517 76.8 0 33.58-35.668 75.904-107.305 76.8-24.15.3-44.715 19.84-44.715 45.227v57.173c0 23.552 19.072 42.667 42.667 42.667 23.552 0 42.666-19.115 42.666-42.667v-20.906c83.072-15.147 152.022-74.283 152.022-158.294 0-95.957-89.26-162.133-183.85-162.133-94.593 0-183.852 66.176-183.852 162.133 0 23.552 19.115 42.667 42.667 42.667 23.552 0 42.667-19.115 42.667-42.667zM512 938.667c-235.648 0-426.667-191.02-426.667-426.667 0-235.648 191.02-426.667 426.667-426.667 235.648 0 426.667 191.02 426.667 426.667 0 235.648-191.02 426.667-426.667 426.667zm0-85.334c188.5 0 341.333-152.832 341.333-341.333 0-188.5-152.832-341.333-341.333-341.333-188.5 0-341.333 152.832-341.333 341.333 0 188.5 152.832 341.333 341.333 341.333z"/></svg>