<svg viewBox="0 0 1024 1024" xmlns="http://www.w3.org/2000/svg"><path d="M727.168 791.637l-3.072 4.438-.256-.17c-17.92 22.484-35.243 42.11-50.816 56.447C612.82 907.947 531.797 938.667 448 938.667s-164.82-30.72-225.024-86.315C162.603 796.672 128 720.342 128 640V362.667C128 303.744 175.744 256 234.667 256c7.893 0 15.573.853 22.997 2.475 8.917-49.92 52.523-87.808 105.003-87.808 7.893 0 15.573.853 22.997 2.474 8.917-49.92 52.523-87.807 105.003-87.807s96.085 37.888 105.002 87.808c7.423-1.62 15.103-2.473 22.997-2.473 58.922 0 106.666 47.744 106.666 106.666v152.96c36.054-27.093 86.784-29.312 125.696-2.09 48.383 33.92 60.16 100.65 26.282 149.077L802.39 684.245l1.11.768c-24.236 36.352-50.817 74.24-76.332 106.624zM362.668 256c-11.777 0-21.335 9.557-21.335 21.333v277.334H256v-192c0-11.776-9.557-21.334-21.333-21.334-11.776 0-21.334 9.558-21.334 21.334V640c0 55.424 23.808 109.355 67.5 149.675C324.65 830.08 384.724 853.333 448 853.333c63.275 0 123.392-23.253 167.168-63.658 12.416-11.478 27.22-28.374 43.392-48.81l148.82-212.566c6.87-9.772 4.48-23.297-5.332-30.167-9.728-6.826-23.125-4.565-30.037 5.12l-27.903 38.912C711.595 587.563 640 564.523 640 508.715V277.333c0-11.776-9.557-21.333-21.333-21.333-11.776 0-21.334 9.557-21.334 21.333V512H512V192c0-11.776-9.557-21.333-21.333-21.333-11.776 0-21.334 9.557-21.334 21.333v320H384V277.333c0-11.776-9.557-21.333-21.333-21.333z"/></svg>