<svg viewBox="0 0 1024 1024" xmlns="http://www.w3.org/2000/svg"><path d="M575.915 154.496c50.474-29.525 111.658-39.637 164.522-2.73 42.155 29.183 68.182 78.762 69.974 130.474 5.25 147.84-140.842 265.9-256.255 359.168-14.89 12.075-29.27 23.68-42.752 34.9-14.976-12.67-31.104-25.812-47.83-39.423C349.355 543.83 207.616 428.373 212.395 282.24c1.834-51.712 27.818-101.29 69.973-130.475 52.992-36.736 114.26-26.624 164.78 2.944 24.703 14.463 46.76 33.578 64.084 54.1l.128.17h.085l.17-.17c17.324-20.607 39.51-39.807 64.3-54.314zm-33.366 313.43v72.533c36.053-29.697 71.082-60.247 102.27-93.783 55.468-59.69 81.92-112.128 80.172-161.365v-.085c-.896-25.9-14.25-49.92-33.152-63.02l-.213-.127c-12.843-8.96-27.776-11.35-49.024-4.395-23.21 7.595-47.958 25.26-65.792 46.507-34.175 40.62-96.64 40.66-130.815 0-17.792-21.205-42.454-38.784-65.707-46.38-21.333-6.953-36.395-4.564-49.28 4.396h-.043c-18.9 13.1-32.213 37.077-33.152 62.933-1.578 49.58 25.003 101.76 80.427 161.196 30.805 33.024 64.98 62.848 100.224 92.032v-86.016c-2.304-.3-4.736-.64-7.21-1.024-8.065-1.237-17.025-2.987-25.387-5.547-8.022-2.43-17.024-6.1-23.85-11.817-6.828-5.76-11.948-13.995-15.745-21.462-3.968-7.807-7.253-16.383-9.9-24.105-2.6-7.808-4.65-15.062-6.057-20.352-.683-2.646-1.195-4.822-1.58-6.358l-.426-1.792-.086-.512-.043-.127v-.085c-.852-3.883-.212-7.85 1.623-11.18 2.9-5.29 8.576-8.532 14.677-8.32l.043.044h.682l1.835.128c1.58.085 3.797.213 6.528.427 5.46.47 12.928 1.237 21.035 2.474 8.064 1.24 17.024 2.988 25.386 5.548 8.02 2.475 17.023 6.1 23.85 11.82 6.827 5.76 11.947 13.993 15.744 21.503 3.584 7.083 6.656 14.763 9.13 21.93.77-1.663 1.537-3.284 2.347-4.863 3.8-7.466 8.92-15.744 15.745-21.46 6.827-5.76 15.83-9.388 23.85-11.82 8.32-2.56 17.324-4.352 25.388-5.59 8.106-1.236 15.573-2.004 20.992-2.43 2.73-.214 4.992-.385 6.57-.47l1.835-.086.512-.04H606.123c6.4-.257 12.33 3.284 15.104 9.044 1.664 3.413 2.005 7.253 1.152 10.795l-.087.34-.426 1.835c-.342 1.536-.896 3.712-1.58 6.357-1.364 5.29-3.412 12.544-6.058 20.31-2.603 7.722-5.93 16.298-9.857 24.106-3.84 7.467-8.96 15.744-15.786 21.46-6.827 5.76-15.787 9.388-23.808 11.82-7.297 2.26-15.02 3.883-22.23 5.077zM219.434 819.668s-17.92-17.665-28.246-29.995l-3.585-4.31c-29.653-35.285-54.74-65.237-58.538-103.296-1.707-17.238-.982-41.558-.427-53.93.256-5.207 1.536-10.327 3.627-15.105l58.666-131.5c2.774-6.228 7.382-11.476 13.142-15.06 16.682-10.41 38.698-4.523 47.957 12.842l1.536 2.86c4.95 9.258 5.76 20.18 2.22 30.036l-24.705 69.334-1.58 3.37-.042.043-.04.128-.215.47c-.17.383-.426.895-.682 1.578-.598 1.365-1.366 3.37-2.304 5.93-1.88 5.12-4.31 12.587-6.7 22.273-4.864 19.412-9.6 47.657-9.6 83.668v10.923h21.803V699.01c0-34.048 4.522-60.544 8.96-78.336.47-1.92.938-3.712 1.408-5.376 1.195-4.437 5.25-7.38 9.814-7.38 13.91 0 26.58 7.337 32.81 18.943 2.05 3.796 15.66 31.444 15.66 31.444l31.743 64.555c5.376 10.964 8.448 25 8.32 37.247-.085 11.605-2.09 20.992-7.38 31.317-5.12 10.027-12.716 22.272-21.59 28.885-1.366 1.023-2.688 2.047-3.926 3.07-4.607 3.756-8.575 6.956-14.42 6.956h-55.125c-7.68 0-18.56-10.667-18.56-10.667zm10.41-234.625c-.213-.085-.34-.128-.34-.128l.34.128zm105.643 300.032v-32.085h-131.03v32.085c0 6.016 4.865 10.923 10.923 10.923h109.185c6.016 0 10.923-4.907 10.923-10.923zm469.12-65.408s17.92-17.665 28.245-29.995l3.584-4.31c29.61-35.285 54.742-65.237 58.496-103.296 1.707-17.238.982-41.558.427-53.93-.213-5.207-1.493-10.327-3.627-15.105l-58.666-131.5c-2.774-6.228-7.34-11.476-13.1-15.06-16.724-10.41-38.698-4.523-48 12.842l-1.492 2.86c-4.992 9.258-5.803 20.18-2.262 30.036l24.747 69.334 1.58 3.37s-.13.043-.343.128l.342-.128v.043l.084.128.213.47c.17.383.384.895.683 1.578.555 1.365 1.365 3.37 2.26 5.93 1.88 5.12 4.31 12.587 6.743 22.273 4.82 19.412 9.6 47.657 9.6 83.668v10.923h-21.846V699.01c0-34.048-4.522-60.544-8.96-78.336-.47-1.92-.938-3.712-1.408-5.376-1.195-4.437-5.25-7.38-9.814-7.38-13.867 0-26.58 7.337-32.768 18.943-2.048 3.796-15.66 31.444-15.66 31.444l-31.743 64.555c-5.418 10.964-8.448 25-8.362 37.247.085 11.605 2.09 20.992 7.38 31.317 5.164 10.027 12.716 22.272 21.59 28.885 1.408 1.023 2.688 2.047 3.926 3.07 4.65 3.756 8.617 6.956 14.463 6.956h55.125c7.637 0 18.56-10.667 18.56-10.667zm-116.053 65.407v-32.085h131.03v32.085c0 6.016-4.908 10.923-10.924 10.923H699.478c-6.016 0-10.922-4.907-10.922-10.923z"/></svg>