<svg viewBox="0 0 1024 1024" xmlns="http://www.w3.org/2000/svg"><path d="M435.968 622.507c4.437-38.656 37.12-67.84 76.032-67.84 38.87 0 71.595 29.184 75.99 67.84l1.535 13.44C593.707 672.213 565.333 704 528.81 704h-33.663c-36.48 0-64.854-31.787-60.715-68.053l1.536-13.44zM593.792 85.333c158.208 0 278.528 142.038 252.5 298.07l-11.647 69.845c0 .213-.042.47-.085.683L812.672 585.3l44.032 25.43c40.832 23.553 54.827 75.734 31.232 116.566L789.76 897.323c-23.552 40.79-75.733 54.784-116.565 31.232l-72.32-41.77c-14.25-8.236-25.26-19.926-32.512-33.452H455.595c-7.254 13.526-18.22 25.216-32.47 33.45l-72.362 41.772c-40.832 23.552-93.014 9.557-116.566-31.232L136.02 727.296c-23.55-40.832-9.556-93.013 31.233-116.565l44.075-25.43-33.664-201.897C151.68 227.37 272 85.333 430.208 85.333zm0 85.334H430.208c-105.472 0-185.685 94.677-168.363 198.74l11.648 69.846c9.77 58.667 87.382 73.43 118.016 22.4l29.013-48.384c41.43-69.078 141.482-69.078 182.954 0l29.014 48.383c30.55 50.902 107.82 36.352 117.93-21.973l11.692-70.272c17.365-104.064-62.848-198.74-168.32-198.74zm86.656 407.338c-45.184-1.706-89.94-23.552-118.656-68.48l-.427-.64-2.048-3.328-29.013-48.384c-8.32-13.824-28.33-13.824-36.608 0l-29.013 48.384c-.683 1.11-1.366 2.22-2.09 3.328l-.385.64c-28.715 44.928-73.515 66.774-118.7 68.48L454.36 768h115.285zM209.92 684.63l98.176 170.026 72.363-41.77-98.177-170.027zm531.797-41.77L643.54 812.884l72.32 41.77 98.177-170.026z"/></svg>