<svg viewBox="0 0 1024 1024" xmlns="http://www.w3.org/2000/svg"><path d="M784.683 586.24c-12.374 8.405-23.126 19.67-31.104 33.493L645.46 806.997c-8.447 14.678-12.884 30.55-13.61 46.336h-239.7c-.726-15.786-5.163-31.658-13.61-46.336L270.42 619.733c-7.977-13.824-18.73-25.088-31.103-33.493l-42.07-189.355c-35.54-159.872 86.102-311.552 249.9-311.552h129.706c163.798 0 285.44 151.68 249.9 311.552zm-207.83-415.573H447.147c-109.184 0-190.294 101.12-166.614 207.7l12.118 54.486c11.777 53.035 80.086 68.182 113.195 25.13l38.528-50.047c34.134-44.416 101.12-44.416 135.254 0l38.528 50.048c33.11 43.05 101.418 27.904 113.194-25.13l12.117-54.486c23.68-106.58-57.43-207.7-166.614-207.7zM417.237 618.155l-5.59 50.304c-3.37 30.335 20.353 56.873 50.902 56.873h98.9c30.55 0 54.273-26.538 50.902-56.874l-5.59-50.305c-5.375-48.3-46.165-84.822-94.762-84.822s-89.387 36.523-94.763 84.822zm279.936 218.71c-2.517 4.436-4.18 9.13-5.034 13.866-3.073 17.153 4.692 35.2 20.65 44.417l47.402 27.35c20.395 11.818 46.507 4.82 58.283-15.617l108.117-187.264c11.776-20.395 4.78-46.507-15.616-58.283l-47.36-27.35c-20.437-11.775-46.507-4.778-58.283 15.617l-108.16 187.264zM331.86 850.73c-.852-4.735-2.516-9.43-5.033-13.866L218.667 649.6c-11.776-20.395-37.846-27.392-58.283-15.616l-47.36 27.35c-20.395 11.775-27.392 37.887-15.616 58.282L205.525 906.88c11.776 20.437 37.888 27.435 58.283 15.616l47.36-27.35c16-9.215 23.765-27.263 20.693-44.415z"/></svg>