<svg viewBox="0 0 1024 1024" xmlns="http://www.w3.org/2000/svg"><path d="M459.05 85.333h119.894c50.944 0 88.192 28.672 105.9 66.774l53.588 71.21.043.043c52.352 68.864 52.352 164.907.042 233.813l-.213.3-103.552 133.12 175.915 225.492-136.704 122.582-157.1-199.467-156.586 198.784-146.944-110.848 185.77-236.757L295.34 459.306l-.215-.256c-52.224-68.863-52.18-164.863.128-233.685l53.76-71.38.043.212c18.005-40.106 57.088-69.205 109.995-68.864zM326.486 301.227c-13.226 39.296-6.87 83.797 19.03 118.1L559.02 689.025 681.94 845.14l41.217-36.948-143.402-183.765-105.088-132.31L332.245 308.95c-2.005-2.518-3.925-5.078-5.76-7.723zm71.21-12.63l118.4 152.278L634.668 288.34l-4.608-2.772c-16-9.77-34.732-15.488-53.08-15.488H456.918c-19.114 0-38.144 5.12-53.888 15.147zm60.972-138.538c-35.798-.3-56.79 24.916-56.79 56.233 0 2.646.17 5.376.598 8.107 17.75-6.144 36.31-9.045 54.442-9.045H576.98c18.988 0 37.505 3.584 54.7 9.77 6.485-31.83-16.17-65.066-52.736-65.066h-119.98zm248.576 149.204c-1.835 2.603-3.755 5.163-5.76 7.68L584.66 457.216l36.652 46.123 66.773-85.804c26.027-34.347 32.384-78.89 19.158-118.272zM412.33 677.46L304.3 815.105l44.628 33.664L448.17 722.73z"/></svg>