<svg viewBox="0 0 1024 1024" xmlns="http://www.w3.org/2000/svg"><path d="M87.85 821.46c-8.063 14.21 2.22 31.873 18.56 31.873h726.7c16.34 0 26.623-17.664 18.517-31.872l-96.81-170.452c-6.657.768-13.44 1.152-20.268 1.152-33.366 0-64.598-9.088-91.393-24.917L723.115 768h-506.71L469.76 322.09l84.907 149.42c.17-40.662 13.824-78.08 36.693-108.118l-103.04-181.42c-8.192-14.377-28.928-14.377-37.12 0L87.85 821.463zm527.147-416.553c23.51-41.686 68.267-69.803 119.552-69.803 75.775 0 137.173 61.397 137.173 137.173 0 23.638-5.974 45.867-16.47 65.28l83.414 83.414-55.424 55.467-83.414-83.413c-19.414 10.496-41.643 16.47-65.28 16.47-1.11 0-2.262 0-3.37-.043-45.27-1.066-85.164-24.106-109.356-58.88-15.445-22.186-24.49-49.194-24.49-78.293zM734.55 531.115c32.47 0 58.794-26.368 58.794-58.838s-26.325-58.794-58.795-58.794-58.838 26.325-58.838 58.794c0 32.47 26.368 58.838 58.837 58.838zm-137.217-58.838c0-24.49 6.4-47.445 17.664-67.37l-17.664 67.37zm-160 253.014v-63.957h64v63.958h-64zm32-255.957c-17.664 0-32 14.336-32 32V608c0 17.664 14.336 32 32 32s32-14.336 32-32V501.333c0-17.664-14.336-32-32-32z"/></svg>