<svg viewBox="0 0 1024 1024" xmlns="http://www.w3.org/2000/svg"><path d="M85.333 85.333h85.334v213.334H256C256 275.115 275.115 256 298.667 256H384v-85.333h-85.333C275.115 170.667 256 151.552 256 128c0-23.552 19.115-42.667 42.667-42.667h256c23.552 0 42.666 19.115 42.666 42.667 0 23.552-19.114 42.667-42.666 42.667h-85.334V256h85.334c23.552 0 42.666 19.115 42.666 42.667h85.334c141.397 0 256 114.602 256 256v128h-256v-85.334c0-23.552-19.115-42.666-42.667-42.666h-42.667c0 23.552-19.114 42.666-42.666 42.666h-256c-23.552 0-42.667-19.114-42.667-42.666h-85.333v384H85.333zm512 298.667v85.333H640c70.7 0 128 57.302 128 128h85.333v-42.666c0-94.25-76.416-170.667-170.666-170.667zM512 341.333H341.333V512H512zM256 384h-85.333v85.333H256zm554.667 321.536l31.146 33.28.043.085.085.087.215.17.554.64 1.194 1.323.597.683c1.452 1.664 3.457 3.968 5.804 6.826 4.693 5.717 10.965 13.823 17.323 23.51C879.06 789.46 896 819.5 896 852.052c0 46.592-36.992 86.614-85.333 86.614-48.342 0-85.334-40.022-85.334-86.614 0-32.554 16.94-62.592 28.374-79.914 6.357-9.687 12.63-17.793 17.322-23.51 2.346-2.86 4.35-5.163 5.802-6.827.768-.854 1.365-1.536 1.792-2.006l.555-.64.212-.17.085-.086 31.19-33.364z"/></svg>