<svg viewBox="0 0 1024 1024" xmlns="http://www.w3.org/2000/svg"><path d="M650.667 277.333c53.034 0 96-42.965 96-96 0-53.034-42.966-96-96-96-53.035 0-96 42.966-96 96 0 53.035 42.965 96 96 96zm-122.326-.042c-63.828-8.96-209.577 16.94-269.61 177.067-8.277 22.06 2.902 46.635 24.96 54.912 22.06 8.277 46.635-2.902 54.913-24.96 24.917-66.347 69.802-98.817 109.824-113.28L398.55 499.284c-.854 2.134-1.494 4.267-1.963 6.4-3.968 12.843-1.878 27.35 6.997 38.827l151.98 196.565 9.855 157.568c1.45 23.51 21.716 41.387 45.225 39.936 23.552-1.45 41.43-21.716 39.936-45.225L639.105 709.59l-89.3-115.5 58.58-113.535 3.968 5.717c22.912 33.28 66.005 45.952 103.296 30.336l90.197-37.803c21.718-9.088 31.958-34.09 22.827-55.85-9.088-21.718-34.09-31.958-55.808-22.827l-90.24 37.803-68.523-99.626c-15.188-26.197-39.55-47.403-70.868-58.07-4.95-1.663-9.94-2.645-14.89-2.943zM360.49 701.868l35.33-104.62 62.676 81.068-17.152 50.816c-12.416 36.737-48 60.502-86.7 57.857l-122.88-8.406c-23.508-1.62-41.257-21.972-39.68-45.48 1.623-23.51 21.975-41.26 45.484-39.68l122.923 8.447z"/></svg>