<svg viewBox="0 0 1024 1024" xmlns="http://www.w3.org/2000/svg"><path d="M618.368 341.333h217.43c31.146 0 57.642 22.742 62.378 53.504l13.44 87.766c5.632 36.48-9.43 73.088-39.04 95.104-6.016 4.437-12.46 8.192-19.243 11.178V896H512V704H384v192H170.667V588.885c-6.784-2.986-13.227-6.74-19.243-11.178-29.61-22.016-44.672-58.624-39.04-95.104l13.44-87.766c4.736-30.762 31.232-53.504 62.38-53.504h68.095c5.545-95.19 84.48-170.666 181.033-170.666 96.555 0 175.488 75.477 181.035 170.666zM469.333 256h-64v64h-64v64h64v64h64v-64h64v-64h-64zm85.334 234.283v6.23l8.704 4.308c14.89 7.34 31.233 11.18 47.83 11.18 17.408 0 34.475-4.224 49.792-12.203l.213-73.13h-58.58c-11.137 24.618-27.606 46.293-47.958 63.616zM813.14 512c3.073 0 6.06-.98 8.535-2.816 4.266-3.157 6.4-8.405 5.59-13.653l-10.54-68.863H746.54l-.215 69.802 16.81 8.234c9.73 4.82 20.438 7.296 31.276 7.296zm-541.097-85.333h-64.768l-10.582 68.864c-.768 5.25 1.366 10.497 5.632 13.654 2.475 1.835 5.462 2.816 8.534 2.816h18.6c10.88 0 21.633-2.517 31.36-7.34l16.513-8.148V437.42c-1.877-3.543-3.67-7.127-5.29-10.753z"/></svg>