<svg viewBox="0 0 1024 1024" xmlns="http://www.w3.org/2000/svg"><path d="M128 810.667C128 787.115 147.115 768 170.667 768h682.666C876.885 768 896 787.115 896 810.667c0 23.552-19.115 42.666-42.667 42.666H170.667c-23.552 0-42.667-19.114-42.667-42.666zm640-597.334h128v85.334H768v-85.334zm-640 0h298.667v85.334H128v-85.334zM469.333 512h213.334v341.333H469.333V512zm-42.666-213.333h-256v554.666h682.666V298.667H768V768H256V426.667h170.667v-128zM469.333 256h256v85.333h-256V256zm85.334 170.667v-256H640v256h-85.333z"/></svg>