<svg viewBox="0 0 1024 1024" xmlns="http://www.w3.org/2000/svg"><path d="M554.667 341.333v85.334H640v-85.334h85.333V256H640v-85.333h-85.333V256h-85.334v85.333h85.334zm213.333-128h128v85.334H768v-85.334zM128 810.667C128 787.115 147.115 768 170.667 768V341.333h256v85.334H256V768h170.667V512h256v256H768V341.333h85.333V768C876.885 768 896 787.115 896 810.667c0 23.552-19.115 42.666-42.667 42.666H170.667c-23.552 0-42.667-19.114-42.667-42.666zM597.333 768V597.333H512V768zM426.667 213.333H128v85.334h298.667v-85.334z"/></svg>