<svg viewBox="0 0 1024 1024" xmlns="http://www.w3.org/2000/svg"><path d="M414.037 321.707c-1.28 6.57-5.504 18.944-13.568 30.378-7.85 11.222-17.92 19.67-30.678 23.083-12.757 3.413-25.728 1.152-38.144-4.608-12.672-5.93-22.528-14.55-26.923-19.584l-48.256 42.07c9.77 11.178 26.666 25.514 48.17 35.54 21.803 10.113 50.517 16.77 81.707 8.406 31.232-8.363 52.736-28.46 66.517-48.128 13.653-19.413 21.12-40.277 23.98-54.87l-62.807-12.287zm195.968 0c1.28 6.57 5.504 18.944 13.568 30.378 7.85 11.222 17.963 19.67 30.72 23.083 12.715 3.413 25.686 1.152 38.102-4.608 12.714-5.93 22.528-14.55 26.965-19.584l48.213 42.07c-9.77 11.178-26.666 25.514-48.17 35.54-21.803 10.113-50.475 16.77-81.707 8.406-31.19-8.363-52.736-28.46-66.517-48.128-13.612-19.413-21.12-40.277-23.98-54.87l62.805-12.287zM368.683 539.35C406.7 501.332 458.24 480 512 480c53.76 0 105.3 21.333 143.317 59.35 38.016 38.015 59.35 89.557 59.35 143.317v32H309.333v-32c0-53.76 21.334-105.302 59.35-143.318zM512 544c-36.78 0-72.064 14.592-98.048 40.62-18.347 18.303-30.976 41.257-36.864 66.047h269.824c-5.888-24.79-18.56-47.744-36.864-66.048C584.064 558.59 548.778 544 512 544zm0-458.667c235.648 0 426.667 191.02 426.667 426.667 0 235.648-191.02 426.667-426.667 426.667-235.648 0-426.667-191.02-426.667-426.667 0-235.648 191.02-426.667 426.667-426.667zM170.667 512c0 188.5 152.832 341.333 341.333 341.333 188.5 0 341.333-152.832 341.333-341.333 0-188.5-152.832-341.333-341.333-341.333-188.5 0-341.333 152.832-341.333 341.333z"/></svg>