<svg viewBox="0 0 1024 1024" xmlns="http://www.w3.org/2000/svg"><path d="M544 213.333h64v85.334h53.333v64h64c47.147 0 85.334 38.186 85.334 85.333v405.333c0 47.147-38.187 85.334-85.334 85.334H298.667c-47.147 0-85.334-38.187-85.334-85.334V448c0-47.147 38.187-85.333 85.334-85.333h64v-64H416v-85.334h64V384h64zm-64 277.334c-11.776 0-21.333-9.558-21.333-21.334V448h-160v405.333h426.666V448h-160v21.333c0 11.776-9.557 21.334-21.333 21.334v46.677c55.21 14.208 96 64.34 96 123.99 0 59.647-40.79 109.78-96 123.99v25.343h-64v-25.344c-55.21-14.208-96-64.342-96-123.99 0-59.648 40.79-109.78 96-123.99zm-32 170.666c0 35.328 28.672 64 64 64s64-28.672 64-64-28.672-64-64-64-64 28.672-64 64zm96-576v128h-64V128z"/></svg>