<svg viewBox="0 0 1024 1024" xmlns="http://www.w3.org/2000/svg"><path d="M478.72 303.66c17.237 0 31.19-13.953 31.19-31.148s-13.953-31.104-31.19-31.104c-17.237 0-31.19 13.91-31.19 31.104 0 17.195 13.953 31.147 31.19 31.147zm118.528-31.148c0 17.195-13.952 31.147-31.19 31.147-17.194 0-31.19-13.953-31.19-31.148s13.996-31.104 31.19-31.104c17.238 0 31.19 13.91 31.19 31.104zm16.128 178.86c-4.31 5.375-16.427 18.303-36.864 18.303h-12.5v12.074c37.375.47 74.58 1.237 95.828 2.133 19.157.853 36.096 1.877 49.152 3.072 6.443.554 12.5 1.237 17.664 2.048l.256.042c3.285.512 11.99 1.92 19.712 5.76 43.733 21.846 65.067 58.24 75.18 86.87 5.076 14.293 7.593 27.264 8.873 36.693.598 4.736.94 8.747 1.11 11.69.085 1.45.17 2.69.17 3.627l.043 2.006c0 22.913-18.603 41.515-41.6 41.515-22.827 0-41.387-18.39-41.6-41.173 0-.128 0-.47-.043-1.067-.042-1.152-.213-3.072-.554-5.632-.683-5.162-2.09-12.288-4.822-20.053-.383-1.067-.767-2.22-1.193-3.37-4.95-14.38-11.648-33.75-29.355-35.03-50.688-3.712-105.344-5.632-148.82-6.656v29.952h62.377c22.954 0 41.6 18.603 41.6 41.515 0 22.913-18.646 41.515-41.6 41.515h-62.38V710.4h62.38c22.954 0 41.6 18.56 41.6 41.515 0 22.912-18.646 41.472-41.6 41.472h-62.38v29.056h103.98c32.597 0 57.087 13.184 72.79 25.685 7.764 6.23 13.652 12.46 17.663 17.28 2.005 2.432 3.626 4.523 4.82 6.187.598.853 1.068 1.578 1.494 2.176l.512.77.213.34.085.128.043.085.043.043c12.16 19.456 6.272 45.056-13.226 57.216-19.243 11.99-44.544 6.357-56.875-12.544-.128-.17-.47-.64-1.024-1.28-1.195-1.408-3.115-3.456-5.717-5.547-5.12-4.095-11.86-7.508-20.82-7.508H376.83c-9.003 0-15.7 3.413-20.82 7.51-2.604 2.09-4.567 4.138-5.72 5.546-.553.64-.895 1.11-1.023 1.28-12.33 18.9-37.633 24.533-56.875 12.544-19.5-12.16-25.43-37.76-13.227-57.216l.043-.043.043-.085.086-.128.212-.34.512-.77c.384-.597.896-1.322 1.493-2.175 1.195-1.664 2.774-3.755 4.822-6.187 4.01-4.82 9.855-11.05 17.663-17.28 15.658-12.5 40.15-25.685 72.79-25.685H480.81v-29.056h-62.42c-22.955 0-41.558-18.56-41.558-41.472 0-22.955 18.603-41.515 41.557-41.515h62.42v-33.195h-62.42c-22.955 0-41.558-18.602-41.558-41.514 0-22.91 18.603-41.514 41.557-41.514h62.42v-30.42c-45.95.852-110.463 2.815-169.642 7.124-17.707 1.28-24.405 20.65-29.355 35.03-.426 1.15-.81 2.303-1.194 3.37-2.732 7.765-4.14 14.89-4.823 20.053-.34 2.56-.47 4.48-.554 5.632-.043.598-.043.94-.043 1.067-.213 22.784-18.773 41.173-41.6 41.173-22.997 0-41.6-18.602-41.6-41.514l.043-2.005c0-.938.085-2.176.17-3.626.17-2.945.512-6.956 1.11-11.692 1.28-9.43 3.797-22.4 8.832-36.693 10.154-28.63 31.488-65.024 75.22-86.87 7.724-3.84 16.428-5.248 19.713-5.76l.256-.042c5.163-.81 11.22-1.494 17.664-2.048 13.056-1.195 29.995-2.22 49.152-3.072 25.173-1.067 72.832-1.92 116.65-2.39v-11.818h-8.277c-24.15 0-36.224-17.792-39.125-22.443-3.883-6.187-6.187-12.757-7.38-16.256-1.75-5.163-2.732-8.363-3.585-11.307-1.067-3.585-2.006-6.7-4.054-12.203-5.89-15.744-11.478-21.376-17.11-23.467-21.845-7.936-37.717-22.74-46.763-41.813-8.362-17.622-9.6-36.14-8.832-51.158 1.238-25.003 9.216-51.883 14.08-68.395.768-2.56 1.45-4.864 2.048-6.87 7.04-24.832 15.403-47.36 33.75-69.674 17.322-21.12 39.637-37.63 64.896-48.085 25.3-10.453 52.777-14.55 80-11.86 27.22 2.644 53.375 11.988 76.116 27.135 22.315 14.848 39.68 32.427 54.315 59.733 8.534 15.872 12.715 32.81 15.105 45.27 1.237 6.485 2.09 12.373 2.73 16.98l.512 4.054c.342 2.432.512 3.67.683 4.566-.512-2.86 7.21 25.514 7.98 48.81.81 24.192-4.14 66.944-45.527 88.96-5.717 3.03-12.032 11.222-19.37 28.758-1.494 3.585-2.86 7.04-4.267 10.753l-.512 1.237c-1.493 3.883-3.328 8.576-5.248 12.843-1.75 3.797-4.82 10.197-9.6 16.128zm-.17-142.935c.042-.128.127-.298.213-.512.724-1.92 1.535-5.888 1.32-12.5-.212-6.4-1.28-13.185-2.644-19.542-.683-3.072-1.365-5.888-2.005-8.49l-.213-.726c-.47-1.92-1.322-5.334-1.792-7.936-.554-2.943-1.11-6.954-1.493-10.11l-.3-2.092c-.553-4.096-1.193-8.363-2.047-12.715-1.75-9.173-4.01-16.64-6.698-21.632-7.68-14.335-15.318-21.972-27.136-29.865-11.39-7.595-24.49-12.246-38.1-13.568-13.61-1.323-27.35.682-39.98 5.93-12.63 5.206-23.765 13.483-32.47 24.022-7.68 9.385-12.16 19.156-18.047 39.764-.896 3.115-1.792 6.23-2.688 9.26v.084c-5.034 17.28-9.642 33.152-10.368 47.403-.298 6.017.3 9.302.683 10.71l.384.128c41.387 15.06 58.54 50.987 66.56 72.533.853 2.348 1.835 5.164 2.816 8.065h53.717c.982-2.56 2.134-5.333 3.286-8.192 7.893-18.816 23.424-52.138 57.002-70.016z"/></svg>