<svg viewBox="0 0 1024 1024" xmlns="http://www.w3.org/2000/svg"><path d="M618.667 366.464c-50.09 0-85.334 45.867-85.334 95.36s35.243 95.36 85.334 95.36c50.09 0 85.333-45.867 85.333-95.36s-35.243-95.36-85.333-95.36zM320 461.824c0-49.493 35.243-95.36 85.333-95.36 50.09 0 85.334 45.867 85.334 95.36s-35.243 95.36-85.334 95.36c-50.09 0-85.333-45.867-85.333-95.36zm162.005 222.55c-19.67 0-34.005-17.622-34.005-36.566 0-5.077.94-9.94 2.56-14.592.81-2.26 1.75-4.48 2.86-6.613C468.906 596.65 512 578.39 512 578.39s64 28.842 64 69.418c0 18.944-14.336 36.565-34.005 36.565-12.97 0-22.742-7.125-29.014-17.45-.468-.726-1.492-.726-1.96 0-6.273 10.325-16.044 17.45-29.015 17.45zM768 683.52v120.66c0 61.228-44.46 115.372-107.776 123.48-42.283 5.375-98.048 11.007-148.224 11.007-50.176 0-105.94-5.632-148.224-11.008C300.46 919.55 256 865.407 256 804.18V683.52c-19.456-3.925-34.133-21.035-34.133-41.557 0-10.582.042-20.907.128-30.89.128-21.548.213-41.516-.3-59.265-.34-12.8-1.023-23.04-2.047-30.635-.597-4.522-1.195-6.87-1.408-7.68l-.043-.17c-9.77-17.408-21.12-42.582-30.122-67.84-8.79-24.747-17.408-55.126-17.408-80.214 0-162.902 162.176-279.937 341.333-279.937 179.157 0 341.333 117.035 341.333 279.936 0 24.83-7.082 49.75-15.104 70.613-8.107 20.95-18.22 40.618-27.18 56.405.043 0-.042.256-.17.768-.34 1.408-1.152 4.78-2.133 11.008-1.536 10.027-2.816 23.21-3.84 38.656-2.048 30.805-2.774 67.54-2.774 99.243 0 20.522-14.677 37.632-34.133 41.557zM256 365.27c0 9.77 4.224 28.63 12.544 51.925 7.85 22.058 17.45 42.965 24.49 55.38 7.21 12.374 9.814 27.094 11.18 37.377 1.62 11.904 2.39 25.515 2.815 39.467.47 16.852.426 36.223.34 55.807 36.95 9.344 67.755 23.38 91.307 47.83 19.926 20.65 31.83 45.823 40.107 73.684h148.523c10.88-29.31 25.472-53.29 46.592-72.83 23.337-21.633 51.88-35.115 83.2-46.507.383-23.552 1.193-48.086 2.644-70.187 1.11-16.597 2.56-32.555 4.65-45.995 1.707-11.007 4.694-27.39 11.905-39.85 7.892-13.866 16.084-29.823 22.228-45.78 6.357-16.513 9.472-30.294 9.472-40.32 0-99.5-105.26-195.158-256-195.158s-256 95.66-256 195.157zm85.333 351.402v87.51c0 20.82 14.763 36.99 33.366 39.38 40.96 5.25 92.5 10.326 137.3 10.326 44.8 0 96.34-5.077 137.3-10.325 18.604-2.39 33.367-18.56 33.367-39.382v-77.737c-8.278 11.178-15.83 27.35-22.742 53.418-4.906 18.647-21.845 31.66-41.258 31.66H405.333c-20.224 0-37.717-14.165-41.77-33.835-6.742-32.384-13.782-49.877-22.23-61.013z"/></svg>