<svg viewBox="0 0 1024 1024" xmlns="http://www.w3.org/2000/svg"><path d="M597.333 93.867c-27.562-5.59-56.106-8.534-85.333-8.534-235.648 0-426.667 191.02-426.667 426.667 0 235.648 191.02 426.667 426.667 426.667 235.648 0 426.667-191.02 426.667-426.667 0-44.587-6.827-87.595-19.542-128h-90.58c16 39.51 24.788 82.73 24.788 128 0 188.5-152.832 341.333-341.333 341.333-188.5 0-341.333-152.832-341.333-341.333 0-188.5 152.832-341.333 341.333-341.333 29.483 0 58.07 3.754 85.333 10.752V93.866zM341.46 414.08c.3 6.7-.852 19.712-5.887 32.768-4.95 12.757-12.757 23.38-24.32 29.74-11.562 6.356-24.704 7.252-38.144 4.607-13.74-2.688-25.345-8.704-30.806-12.544l-36.82 52.353c12.16 8.576 32 18.432 55.295 22.997 23.593 4.65 53.033 4.224 81.32-11.35 28.332-15.573 44.417-40.234 53.12-62.634 8.577-22.1 10.88-44.16 10.156-59.008l-63.915 3.072zm132.225-19.883c6.272 13.483 18.518 31.958 36.395 47.574 18.09 15.787 43.82 30.166 76.117 30.806 32.3.683 58.54-12.63 77.312-27.69 18.474-14.85 31.487-32.81 38.27-46.038l-56.873-29.27c-3.072 5.93-10.582 16.64-21.504 25.43-10.667 8.576-22.7 13.867-35.926 13.61-13.184-.298-25.002-6.058-35.328-15.06-10.54-9.217-17.58-20.225-20.395-26.326l-58.07 26.965zM699.392 677.29L338.22 755.798l-6.828-31.274c-10.41-47.915-1.365-97.963 25.13-139.18 26.54-41.258 68.31-70.27 116.225-80.682 47.914-10.41 97.962-1.364 139.178 25.132 41.26 26.54 70.272 68.31 80.683 116.224zm-122.07-93.653c-26.922-17.322-59.69-23.253-90.965-16.426-31.317 6.785-58.666 25.77-75.99 52.737-11.434 17.75-17.876 38.058-18.986 58.794l227.67-49.492c-9.642-18.39-23.935-34.176-41.727-45.61zM682.668 96c-17.664 0-32 14.336-32 32s14.336 32 32 32h93.397L667.307 268.757c-22.827 22.827-6.656 61.91 25.642 61.91h160.383c17.664 0 32-14.336 32-32s-14.336-32-32-32h-93.397L868.693 157.91C891.52 135.082 875.35 96 843.05 96H682.668z"/></svg>