<svg viewBox="0 0 1024 1024" xmlns="http://www.w3.org/2000/svg"><path d="M604.203 224.683c18.09-7.467 37.504-11.35 57.13-11.35v64c-11.22 0-22.314 2.22-32.64 6.486-10.368 4.308-19.754 10.58-27.69 18.516-7.936 7.936-14.208 17.323-18.518 27.69-4.266 10.326-6.485 21.42-6.485 32.64 0 11.222 2.22 22.315 6.485 32.64 4.31 10.37 10.582 19.755 18.518 27.69 7.936 7.937 17.322 14.21 27.69 18.52 10.326 4.265 21.42 6.484 32.64 6.484h64c13.995 0 27.862 2.773 40.832 8.107 12.928 5.376 24.704 13.226 34.603 23.125 9.9 9.9 17.75 21.675 23.125 34.603 5.334 12.97 8.107 26.837 8.107 40.832v42.666h-64v-42.666c0-5.59-1.152-11.136-3.285-16.3-2.134-5.204-5.29-9.898-9.26-13.823-3.924-3.968-8.66-7.125-13.823-9.26-5.163-2.132-10.71-3.24-16.3-3.24l-64-.044c-19.625 0-39.04-3.883-57.13-11.35-18.133-7.51-34.602-18.517-48.47-32.383-13.865-13.867-24.873-30.336-32.383-48.47-7.467-18.09-11.35-37.504-11.35-57.13 0-19.627 3.883-39.04 11.35-57.13 7.51-18.134 18.517-34.604 32.383-48.47 13.867-13.867 30.336-24.875 48.47-32.384zM725.333 320c11.222 0 22.315-2.22 32.64-6.528 10.368-4.267 19.755-10.54 27.69-18.475 7.937-7.936 14.21-17.322 18.476-27.69 4.308-10.326 6.527-21.42 6.527-32.64 0-11.222-2.22-22.315-6.528-32.64-4.268-10.368-10.54-19.755-18.476-27.69-7.936-7.937-17.323-14.21-27.69-18.476-10.326-4.308-21.42-6.527-32.64-6.527v-64c19.626 0 39.04 3.883 57.13 11.35 18.133 7.51 34.603 18.517 48.47 32.384 13.866 13.866 24.874 30.336 32.383 48.47 7.51 18.09 11.35 37.503 11.35 57.13 0 19.626-3.84 39.04-11.35 57.13-7.51 18.134-18.517 34.603-32.384 48.47-1.664 1.664-3.37 3.285-5.12 4.864 18.518 9.9 35.5 22.486 50.347 37.334 19.84 19.84 35.54 43.35 46.25 69.248 10.753 25.856 16.257 53.59 16.257 81.62v64h-64v-64h.128c0-19.625-3.883-39.04-11.392-57.215-7.51-18.09-18.518-34.602-32.384-48.47-13.868-13.866-30.38-24.874-48.513-32.383-16.768-6.955-34.688-10.795-52.864-11.307-1.408.043-2.86.043-4.31.043v-64zM707.67 768L844.5 904.832l60.332-60.33-76.5-76.502H832V661.333h-64v46.336l-42.667-42.667v-3.67h-3.67L179.5 119.168l-60.332 60.33 481.835 481.835H85.333V768H707.67zm166.997 0V661.333h64V768h-64z"/></svg>