<svg viewBox="0 0 1024 1024" xmlns="http://www.w3.org/2000/svg"><path d="M725.333 853.333h-640V746.667h640v106.666zm42.667 0V746.667h64v106.666h-64zm106.667-106.666v106.666h64V746.667h-64zm-270.464-436.65c18.09-7.468 37.504-11.35 57.13-11.35v64c-11.22 0-22.314 2.218-32.64 6.485-10.368 4.31-19.754 10.58-27.69 18.517-7.936 7.935-14.208 17.322-18.518 27.69C578.22 425.685 576 436.78 576 448c0 11.22 2.22 22.315 6.485 32.64 4.31 10.368 10.582 19.755 18.518 27.69 7.936 7.937 17.322 14.21 27.69 18.518 10.326 4.267 21.42 6.485 32.64 6.485h64c13.995 0 27.862 2.774 40.832 8.107 12.928 5.376 24.704 13.227 34.603 23.125 9.9 9.9 17.75 21.675 23.125 34.603C829.227 612.138 832 626.005 832 640v42.667h-64V640c0-5.59-1.152-11.136-3.285-16.3-2.134-5.204-5.29-9.897-9.26-13.823-3.924-3.968-8.66-7.125-13.823-9.258-5.163-2.135-10.71-3.244-16.3-3.244l-64-.043c-19.625 0-39.04-3.882-57.13-11.35-18.133-7.508-34.602-18.516-48.47-32.383-13.865-13.867-24.873-30.336-32.383-48.47C515.882 487.04 512 467.628 512 448c0-19.627 3.883-39.04 11.35-57.13 7.51-18.134 18.517-34.603 32.383-48.47 13.867-13.867 30.336-24.875 48.47-32.384zm121.13 95.316c11.222 0 22.315-2.218 32.64-6.528 10.368-4.266 19.755-10.538 27.69-18.474 7.937-7.935 14.21-17.322 18.476-27.69 4.308-10.325 6.527-21.42 6.527-32.64 0-11.22-2.22-22.315-6.528-32.64-4.268-10.368-10.54-19.755-18.476-27.69-7.936-7.937-17.323-14.21-27.69-18.475-10.326-4.31-21.42-6.528-32.64-6.528v-64c19.626 0 39.04 3.882 57.13 11.35 18.133 7.508 34.603 18.516 48.47 32.383 13.866 13.867 24.874 30.336 32.383 48.47 7.51 18.09 11.35 37.503 11.35 57.13 0 19.627-3.84 39.04-11.35 57.13-7.51 18.134-18.517 34.603-32.384 48.47-1.664 1.664-3.37 3.285-5.12 4.864 18.518 9.9 35.5 22.485 50.347 37.333 19.84 19.84 35.54 43.35 46.25 69.248 10.753 25.856 16.257 53.59 16.257 81.622v64h-64v-64h.128c0-19.627-3.883-39.04-11.392-57.216-7.51-18.09-18.518-34.602-32.384-48.47-13.868-13.865-30.38-24.873-48.513-32.383-16.768-6.954-34.688-10.794-52.864-11.35-1.408.044-2.86.086-4.31.086v-64z"/></svg>