<svg viewBox="0 0 1024 1024" xmlns="http://www.w3.org/2000/svg"><path d="M778.965 129.707c-70.357 11.733-125.525 66.9-137.258 137.258-4.864 29.27 3.328 56.875 19.67 77.867L648.32 362.24c-15.317 20.437-39.34 32.427-64.853 32.427h-35.115c-81.707 0-139.392 80.042-113.536 157.568l4.82 14.506c11.223 33.665-17.748 67.03-52.65 60.673-72.874-13.27-137.983 47.488-129.79 121.13l1.023 9.09c3.07 27.562-15.49 52.906-42.71 58.367l-29.782 5.973c-17.323 3.456-28.587 20.31-25.088 37.632 3.456 17.323 20.31 28.587 37.632 25.088l29.824-5.93c59.733-11.947 100.437-67.627 93.74-128.214l-1.025-9.09c-3.455-31.06 23.98-56.66 54.742-51.07 82.773 15.018 151.38-64.086 124.8-143.915l-4.82-14.464c-12.033-36.095 14.804-73.343 52.82-73.343h35.115c45.653 0 88.66-21.504 116.053-58.027l15.232-20.31c13.227 3.542 27.563 4.395 42.283 1.963 70.357-11.733 125.525-66.9 137.258-137.258 11.264-67.84-47.488-126.592-115.328-115.328zM471.68 141.824c-38.57 6.443-70.06 35.328-80.34 73.045-4.737 17.322-1.58 34.218 6.612 47.87l-19.968 29.91c-6.955 10.41-18.645 16.683-31.19 16.683h-16.127c-47.147 0-85.334 38.187-85.334 85.334 0 11.776-9.557 21.333-21.333 21.333-47.147 0-85.333 38.187-85.333 85.333V512c0 17.664 14.336 32 32 32s32-14.336 32-32v-10.667c0-11.776 9.557-21.333 21.333-21.333 47.147 0 85.333-38.23 85.333-85.333 0-11.776 9.558-21.334 21.334-21.334h16.128c33.962 0 65.62-16.938 84.437-45.184l23.125-34.69c4.438-.212 8.918-.895 13.44-2.132 37.718-10.283 66.603-41.77 73.046-80.34 6.784-40.663-28.502-75.948-69.163-69.164zm302.592 340.693c-40.235 6.7-71.723 38.187-78.42 78.422-1.58 9.343-.812 18.388 1.79 26.623l-56.277 65.664C631.168 665.13 616.235 672 600.575 672c-39.38 0-76.16 19.67-98.004 52.437l-1.79 2.688c-13.527 20.31-20.78 44.203-20.78 68.65v14.892c0 17.664 14.336 32 32 32s32-14.336 32-32v-14.89c0-11.777 3.5-23.34 10.027-33.153l1.792-2.688C565.802 744.96 582.57 736 600.575 736c34.347 0 67.03-15.02 89.387-41.13l57.813-67.414c4.523.34 9.173.17 13.952-.64 40.235-6.7 71.723-38.23 78.42-78.42 6.487-38.743-27.135-72.364-65.876-65.88z"/></svg>