<svg viewBox="0 0 1024 1024" xmlns="http://www.w3.org/2000/svg"><path d="M768 213.333h42.667c23.552 0 42.666 19.115 42.666 42.667 0 23.552-19.114 42.667-42.666 42.667H768v13.354c0 24.79-10.837 48.172-30.42 61.953 18.43 16.768 30.42 39.85 30.42 66.432v28.928h42.667c23.552 0 42.666 19.115 42.666 42.667 0 23.552-19.114 42.667-42.666 42.667H768v13.354c0 24.79-10.837 48.172-30.42 61.953 18.43 16.768 30.42 39.85 30.42 66.432v28.928h42.667c23.552 0 42.666 19.115 42.666 42.667 0 23.552-19.114 42.667-42.666 42.667H768v13.354c0 29.185-15.02 56.407-41.643 68.31-44.373 19.883-121.045 46.337-214.357 46.337s-169.984-26.454-214.357-46.336C271.02 880.428 256 853.206 256 824.02v-13.353h-42.667c-23.552 0-42.666-19.115-42.666-42.667 0-23.552 19.114-42.667 42.666-42.667H256v-28.928c0-26.58 11.99-49.664 30.42-66.432C266.838 616.193 256 592.81 256 568.02v-13.353h-42.667c-23.552 0-42.666-19.115-42.666-42.667 0-23.552 19.114-42.667 42.666-42.667H256v-28.928c0-26.58 11.99-49.664 30.42-66.432C266.838 360.193 256 336.81 256 312.02v-13.353h-42.667c-23.552 0-42.666-19.115-42.666-42.667 0-23.552 19.114-42.667 42.666-42.667H256v-28.928c0-64.298 70.144-108.16 132.31-91.648 38.015 10.07 80.853 17.664 123.69 17.664s85.675-7.593 123.69-17.663C697.857 76.245 768 120.107 768 184.405zm-85.333 483.072v-.042s0-.17-.256-.64c-.47-.81-1.79-2.603-4.735-4.523-6.528-4.395-14.55-5.46-20.096-3.968-42.668 11.307-93.143 20.523-145.58 20.523-52.437 0-102.912-9.216-145.58-20.523-5.545-1.493-13.567-.427-20.095 3.968-2.944 1.92-4.266 3.712-4.736 4.523-.257.47-.257.64-.257.64V818.305c38.272 16.084 98.86 35.028 170.667 35.028 71.808 0 132.395-18.944 170.667-35.03zm-341.334-134.1c38.272 16.084 98.86 35.028 170.667 35.028 71.808 0 132.395-18.944 170.667-35.03v-121.94s0-.17-.256-.64c-.47-.81-1.79-2.603-4.735-4.523-6.528-4.395-14.55-5.46-20.096-3.968-42.668 11.307-93.143 20.523-145.58 20.523-52.437 0-102.912-9.216-145.58-20.523-5.545-1.493-13.567-.427-20.095 3.968-2.944 1.92-4.266 3.712-4.736 4.523-.257.47-.257.64-.257.64zm341.334-377.9v-.042s0-.17-.256-.64c-.47-.81-1.79-2.603-4.735-4.523-6.528-4.395-14.55-5.46-20.096-3.968-42.668 11.307-93.143 20.523-145.58 20.523-52.437 0-102.912-9.216-145.58-20.523-5.545-1.493-13.567-.427-20.095 3.968-2.944 1.92-4.266 3.712-4.736 4.523-.257.47-.257.64-.257.64V306.305c38.272 16.084 98.86 35.028 170.667 35.028 71.808 0 132.395-18.944 170.667-35.03z"/></svg>