<svg viewBox="0 0 1024 1024" xmlns="http://www.w3.org/2000/svg"><path d="M532.31 181.547c-67.243-23.34-129.878-10.155-158.337 4.82-55.296 29.185-74.666 63.36-75.306 92.417-.64 30.592 18.858 73.643 81.11 120.533 4.18 3.115 8.19 6.272 12.116 9.43-31.957 10.496-61.397 22.485-89.216 37.76-57.258-50.347-90.624-108.544-89.3-169.558 1.535-71.21 49.663-128.555 120.83-166.06 48.726-25.685 135.81-41.258 226.05-9.983 92.67 32.17 183.68 111.872 241.364 268.33 70.4 190.763 56.92 321.11 13.143 408.832-43.307 86.698-112.128 123.05-133.547 134.357-11.52 6.058-30.89 11.776-50.603 16.085-21.162 4.608-47.445 8.62-74.965 9.728-27.264 1.11-57.6-.555-85.93-8.576-28.33-8.02-57.686-23.296-77.825-51.584-69.29-97.408-23.68-189.653-3.285-230.784 1.536-3.115 2.9-5.973 4.096-8.49 3.456-7.21 6.784-14.422 9.515-21.803 4.735 1.365 9.77 3.03 15.103 5.077 13.397 5.163 25.258 11.35 33.792 16.3 4.18 2.473 7.38 4.48 9.344 5.76.98.64 1.62 1.108 1.92 1.28l.212.127c5.248 3.754 10.795 6.826 16.512 9.216-3.072 7.594-6.144 14.08-8.66 19.285l-.64 1.323c-1.196 2.603-2.476 5.206-3.713 7.85-20.906 43.52-43.52 90.71-4.65 145.367 5.29 7.466 14.933 14.293 31.53 18.986 16.64 4.694 37.206 6.315 59.222 5.42 21.717-.897 43.05-4.14 60.245-7.852 8.534-1.876 15.787-3.796 21.248-5.503 4.65-1.45 6.998-2.432 7.638-2.688.213-.086.213-.086.128-.043 17.195-9.046 66.006-34.944 96.94-96.982 30.463-61.013 47.87-165.845-16.81-341.162-50.348-136.448-124.503-194.73-189.27-217.216zm-53.718 69.248c14.677-18.475 41.515-21.504 59.947-6.87 31.572 25.088 60.415 61.483 83.583 98.518 23.338 37.29 42.666 78.165 53.888 114.26 34.56 111.532 38.273 208.47 4.65 285.654-9.428 21.632-34.56 31.488-56.19 22.102-21.59-9.43-31.446-34.56-22.06-56.15 22.145-50.817 23.638-124.545-7.935-226.347-8.662-27.904-24.576-62.08-44.715-94.294-20.31-32.47-43.136-60.118-64.3-76.93-18.473-14.676-21.545-41.513-6.868-59.945zm22.57 259.925c22.827-5.803 36.65-29.013 30.85-51.84-5.76-22.87-28.972-36.693-51.8-30.89-69.417 17.578-122.452 34.773-169.556 63.146-47.616 28.63-86.4 66.944-130.645 122.24-14.72 18.39-11.733 45.227 6.657 59.947 18.432 14.72 45.27 11.733 59.99-6.656 32.98-41.216 59.732-68.48 87.338-88.704 1.152-.384 2.346-.854 3.498-1.366 26.966-12.117 61.398-7.338 95.19 5.675 16 6.187 29.952 13.44 39.893 19.243 4.907 2.858 8.747 5.29 11.264 6.954 1.28.81 2.22 1.45 2.73 1.834l.555.384h.043c19.157 13.696 45.74 9.3 59.477-9.77 13.74-19.158 9.387-45.825-9.77-59.563l-.086-.086-.13-.086-.425-.3-1.238-.895c-1.066-.726-2.517-1.707-4.352-2.902-3.626-2.39-8.79-5.632-15.19-9.344-7.21-4.18-16.084-9.045-26.324-13.952 3.926-1.024 7.937-2.048 12.033-3.072z"/></svg>