<svg viewBox="0 0 1024 1024" xmlns="http://www.w3.org/2000/svg"><path d="M213.333 128H256c23.552 0 42.667 19.115 42.667 42.667 0 23.552-19.115 42.666-42.667 42.666h-42.667v213.334c0 66.09 61.995 128 149.334 128 87.338 0 149.333-61.91 149.333-128V213.333h-42.667c-23.552 0-42.666-19.114-42.666-42.666 0-23.552 19.114-42.667 42.666-42.667H512c47.147 0 85.333 38.187 85.333 85.333v213.334c0 100.864-74.624 180.352-170.666 205.184v50.817c0 15.786-8.576 29.568-21.334 36.95v11.732c0 43.818 35.5 79.317 79.318 79.317 43.777 0 79.275-35.5 79.275-79.318v-42.667c0-85.803 69.59-155.35 155.392-155.35 71.168 0 131.2 47.872 149.547 113.195 40.747 15.02 69.803 54.187 69.803 100.14 0 58.92-47.744 106.665-106.667 106.665S725.333 805.59 725.333 746.667c0-39.98 22.016-74.838 54.57-93.1-12.116-20.863-34.73-34.9-60.586-34.9-38.698 0-70.058 31.36-70.058 70.016v42.666c0 90.922-73.687 164.65-164.61 164.65C393.73 896 320 822.272 320 731.35v-11.734c-12.757-7.38-21.333-21.163-21.333-36.95v-50.815C202.624 607.02 128 527.53 128 426.668V213.333C128 166.187 166.187 128 213.333 128zM832 768c11.776 0 21.333-9.557 21.333-21.333 0-11.776-9.557-21.334-21.333-21.334-11.776 0-21.333 9.558-21.333 21.334S820.224 768 832 768z"/></svg>