<svg viewBox="0 0 1024 1024" xmlns="http://www.w3.org/2000/svg"><path d="M480 841.643v97.024h64v-96.94c54.272-3.284 89.813-15.06 115.072-31.103.725.043 1.493.043 2.26.043C684.886 810.667 704 791.552 704 768c0-23.552-19.115-42.667-42.667-42.667-20.693 0-37.973 14.763-41.856 34.347-14.72 7.936-37.632 15.275-75.477 17.963V585.728c54.272-3.285 89.813-15.06 115.072-31.104.725 0 1.493.043 2.26.043C684.886 554.667 704 535.552 704 512c0-23.552-19.115-42.667-42.667-42.667-20.693 0-37.973 14.763-41.856 34.347-14.72 7.936-37.632 15.275-75.477 17.963V329.728c54.272-3.285 89.813-15.06 115.072-31.104.725.043 1.493.043 2.26.043C684.886 298.667 704 279.552 704 256c0-23.552-19.115-42.667-42.667-42.667-20.693 0-37.973 14.763-41.856 34.304-14.72 7.98-37.632 15.318-75.477 17.963V85.333h-64V265.43c-22.528-1.878-39.04-5.675-52.01-10.283-9.09-3.2-16.897-6.912-24.363-11.136-5.163-17.706-21.547-30.677-40.96-30.677C339.115 213.333 320 232.448 320 256c0 23.552 19.115 42.667 42.667 42.667 2.26 0 4.48-.17 6.656-.512 10.666 6.186 22.87 12.245 37.376 17.365 20.095 7.083 43.69 12.075 73.3 14.123V521.43c-22.528-1.878-39.04-5.675-52.01-10.283-9.09-3.2-16.897-6.912-24.363-11.094-5.163-17.75-21.547-30.72-40.96-30.72C339.115 469.333 320 488.448 320 512c0 23.552 19.115 42.667 42.667 42.667 2.26 0 4.48-.17 6.656-.512 10.666 6.186 22.87 12.245 37.376 17.365 20.095 7.083 43.69 12.075 73.3 14.123V777.43c-22.528-1.878-39.04-5.675-52.01-10.283-9.09-3.2-16.897-6.912-24.363-11.094-5.163-17.75-21.547-30.72-40.96-30.72C339.115 725.333 320 744.448 320 768c0 23.552 19.115 42.667 42.667 42.667 2.26 0 4.48-.17 6.656-.512 10.666 6.186 22.87 12.245 37.376 17.365 20.095 7.083 43.69 12.032 73.3 14.123z"/></svg>