<svg viewBox="0 0 1024 1024" xmlns="http://www.w3.org/2000/svg"><path d="M426.667 340.31h47.146c20.14-96.854 105.984-169.643 208.854-169.643C800.47 170.667 896 266.197 896 384v298.667C896 800.47 800.47 896 682.667 896c-49.024 0-94.208-16.555-130.262-44.373-31.402-23.894-54.058-47.66-73.43-68.054-32.042-33.664-55.252-58.026-94.506-58.24h-85.803c-40.704 0-64.427 14.763-79.702 36.608C201.985 786.177 192 824.193 192 874.668c0 23.552-19.115 42.666-42.667 42.666-23.552 0-42.666-19.114-42.666-42.666 0-59.392 11.35-117.376 42.368-161.664C181.248 667.008 231.21 640.81 295.723 640c4.053-.427 8.15-.597 10.965-.725 5.205-.17 11.52-.3 18.432-.342 13.824-.128 30.976-.042 47.957.128 6.827.044 13.568.13 20.054.215 58.838-9.6 96.513-111.104 76.203-212.608-7.168.042-13.994 0-20.053-.043-5.93-.085-11.477-.17-16.043-.34-2.218-.087-5.76-.257-9.472-.64-41.856-.385-77.354-9.6-105.3-30.08-28.886-21.12-44.502-50.476-52.908-80.6-8.192-29.396-10.197-61.78-10.538-92.628-.215-16.043.127-35.115.468-53.717.256-14.38.512-28.46.512-40.62 0-23.552 19.115-42.667 42.667-42.667 23.552 0 42.666 19.115 42.666 42.667 0 16.725-.298 31.232-.554 45.14-.343 16.13-.64 31.404-.428 48.215.3 28.97 2.304 52.31 7.424 70.656 4.907 17.665 11.99 28.033 21.077 34.69 9.43 6.91 26.283 13.61 57.814 13.61zM542.38 592.98c-1.41 4.055-2.903 8.108-4.48 12.033-9.345 23.424-24.492 50.475-46.252 73.003 18.39 14.037 32.853 29.44 44.075 41.387 1.75 1.877 3.456 3.67 5.077 5.333 19.328 20.352 37.845 39.637 63.232 58.965l.256.172.256.213c21.632 16.683 48.597 26.582 78.123 26.582 70.698 0 128-57.302 128-128V560c-8.107-3.328-17.835-6.7-28.246-9.088-28.97-6.7-52.99-4.01-69.588 12.587-47.403 47.4-108.715 44.713-149.077 35.412-7.552-1.75-14.678-3.755-21.376-5.93zm16.937-84.48c7.083 2.69 15.104 5.292 23.595 7.255 28.97 6.698 52.992 4.01 69.59-12.587 47.402-47.403 108.714-44.715 149.077-35.413 3.113.725 6.143 1.493 9.087 2.304V384c0-70.7-57.302-128-128-128-70.7 0-128 57.3-128 128 0 3.755.17 7.467.47 11.136l5.887 68.736-1.28.34c.768 14.935.597 29.74-.427 44.29z"/></svg>