<svg viewBox="0 0 1024 1024" xmlns="http://www.w3.org/2000/svg"><path d="M490.197 318.976l145.238 39.637c14.89 4.054 26.41 15.83 30.165 30.806l39.637 158.42c3.84 15.445-1.194 31.7-13.056 42.24L573.356 695.723c-10.795 9.6-25.686 13.056-39.595 9.258l-145.237-39.593c-14.55-3.968-25.942-15.36-29.91-29.952l-39.637-145.238c-4.01-14.762.17-30.55 11.008-41.386L448.81 329.985c10.838-10.837 26.625-15.02 41.387-11.008zm62.848 212.267l15.02 54.997 48.084-42.752-15.062-60.288zm-110.762-74.07l50.432 13.74 49.365-49.324-50.432-13.74zm28.373 96.17l-49.707-13.567 13.567 49.707 49.664 13.525zM938.666 512c0 235.648-191.018 426.667-426.666 426.667S85.333 747.647 85.333 512c0-235.648 191.02-426.667 426.667-426.667 235.648 0 426.667 191.02 426.667 426.667zm-85.333 0c0-188.5-152.832-341.333-341.333-341.333-80.81 0-155.05 28.074-213.504 75.008l60.117 60.074c16.64 16.682 16.64 43.69 0 60.373-16.682 16.64-43.69 16.64-60.373 0l-59.136-59.18C196.14 364.034 170.667 435.03 170.667 512c0 188.5 152.832 341.333 341.333 341.333 78.89 0 151.51-26.752 209.323-71.68l-68.822-68.82c-16.68-16.684-16.68-43.692 0-60.332 16.64-16.68 43.692-16.68 60.332 0l68.82 68.823c44.93-57.814 71.68-130.432 71.68-209.323z"/></svg>