<svg viewBox="0 0 1024 1024" xmlns="http://www.w3.org/2000/svg"><path d="M512 469.333c94.25 0 170.667-76.416 170.667-170.666S606.25 128 512 128c-94.25 0-170.667 76.416-170.667 170.667 0 94.25 76.416 170.666 170.667 170.666zM213.333 715.82c0-65.24 52.736-118.188 117.93-118.487l4.268 2.134C388.82 626.133 447.617 640 507.265 640h9.472c19.925 0 39.723-1.536 59.264-4.608v-45.184c0-15.403 3.584-30.293 10.027-43.69-22.614 5.375-45.867 8.15-69.29 8.15h-9.473c-46.38 0-92.117-10.796-133.59-31.532l-4.735-2.39c-11.52-5.76-24.236-8.746-37.12-8.746C219.263 512 128 603.264 128 715.82V896h454.528c-4.224-11.18-6.528-23.21-6.528-35.54v-49.793H213.333V715.82zm600.704-38.444c8.875-7.765 9.77-21.205 2.006-30.08-7.766-8.875-21.206-9.77-30.08-2.005l-31.232 27.307-4.18-3.882c-8.62-8.064-22.145-7.552-30.166 1.066-8.02 8.62-7.552 22.103 1.067 30.124l18.177 16.94c8.064 7.508 20.522 7.72 28.8.468l45.61-39.936zm0 85.333c8.875-7.723 9.77-21.206 2.006-30.08-7.766-8.875-21.206-9.77-30.08-2.006L754.73 757.93l-4.18-3.882c-8.62-8.064-22.145-7.552-30.166 1.067-8.02 8.618-7.552 22.1 1.067 30.122l18.177 16.94c8.064 7.508 20.522 7.722 28.8.468l45.61-39.936zM721.067 512c17.664 0 32 14.336 32 32v10.667h34.048V544c0-17.664 14.336-32 32-32s32 14.336 32 32v10.667h23.552c11.776 0 21.333 9.557 21.333 21.333v298.667c0 11.776-9.557 21.333-21.333 21.333H661.333C649.557 896 640 886.443 640 874.667V576c0-11.776 9.557-21.333 21.333-21.333h27.734V544c0-17.664 14.336-32 32-32zM704 618.667V832h128V618.667z"/></svg>