<svg viewBox="0 0 1024 1024" xmlns="http://www.w3.org/2000/svg"><path d="M618.667 192c0 58.923-47.744 106.667-106.667 106.667S405.333 250.923 405.333 192 453.077 85.333 512 85.333 618.667 133.077 618.667 192zM384.853 341.333h254.294c38.613 0 73.002 26.07 82.304 64.427 10.667 43.69 29.57 126.38 35.67 187.35 2.347 23.423-14.763 44.33-38.187 46.677-23.466 2.346-44.373-14.763-46.72-38.23-5.205-51.925-21.46-124.928-32.213-169.642V892.97c0 25.26-20.437 45.697-45.696 45.697-22.74 0-42.027-16.726-45.227-39.254L518.1 682.667h-12.2l-30.977 216.746c-3.2 22.528-22.486 39.254-45.227 39.254-25.216 0-45.696-20.438-45.696-45.696V431.916c-10.752 44.714-27.008 117.717-32.213 169.642-2.347 23.467-23.254 40.576-46.678 38.23-23.467-2.347-40.577-23.254-38.23-46.678 6.1-60.97 25.003-143.66 35.67-187.35 9.343-38.357 43.69-64.427 82.303-64.427zm100.48 74.326l-16.085 18.345-.128.128-.3.384c-.255.3-.64.726-1.065 1.238-.854 1.066-2.09 2.56-3.5 4.394-2.815 3.67-6.612 8.874-10.41 15.06-7.04 11.435-16.512 29.74-16.512 48.81 0 26.028 19.627 50.647 48 50.647 28.374 0 48-24.62 48-50.646 0-19.07-9.43-37.375-16.512-48.81-3.796-6.186-7.593-11.39-10.41-15.06-1.407-1.835-2.645-3.33-3.498-4.395-.427-.512-.768-.94-1.067-1.238l-.298-.384-.128-.128-.044-.085zm277.334-192l-16.043 18.26-.043.085-.127.128-.298.384c-.256.3-.64.726-1.067 1.238-.853 1.066-2.09 2.56-3.5 4.394-2.815 3.67-6.612 8.874-10.41 15.06-7.082 11.435-16.51 29.74-16.51 48.81 0 26.028 19.625 50.647 48 50.647 28.372 0 48-24.62 48-50.646 0-19.07-9.43-37.375-16.513-48.81-3.798-6.186-7.595-11.39-10.41-15.06-1.41-1.835-2.604-3.33-3.5-4.395-.426-.512-.81-.94-1.066-1.238l-.3-.384-.128-.128-.043-.085-16.043-18.26zM688 89.47l-13.1 18.688-.04.043-.044.085-.213.3-.64.937c-.512.768-1.238 1.878-2.09 3.286-1.708 2.73-3.926 6.657-6.23 11.222-4.267 8.704-9.643 21.93-9.643 35.328 0 9.088 2.645 17.963 7.765 24.96 5.078 6.955 13.44 13.013 24.235 13.013s19.157-6.058 24.235-13.013c5.12-6.997 7.765-15.872 7.765-24.96 0-13.397-5.376-26.624-9.643-35.328-2.26-4.565-4.522-8.49-6.23-11.22-.852-1.41-1.578-2.52-2.09-3.287l-.64-.938-.213-.3-.043-.084-.04-.043L688 89.472z"/></svg>