<svg viewBox="0 0 1024 1024" xmlns="http://www.w3.org/2000/svg"><path d="M803.797 341.333c-94.25-163.242-303.018-219.178-466.26-124.928-125.398 72.406-187.478 212.352-166.828 347.35-27.862 46.122-47.53 81.493-58.966 106.07-77.44-193.708-2.86-419.97 183.125-527.318 204.074-117.803 464.98-47.915 582.826 156.16 58.24 100.906 70.613 215.722 43.52 320.298-2.645-7.68-5.76-15.488-9.216-23.338-11.307-25.558-32.64-64.3-63.957-116.224-4.523-47.232-18.987-94.294-44.246-138.07zM283.86 858.41c16.855-18.687 27.393-40.19 31.66-64.554 104.96 71.637 245.93 81.536 363.35 13.74 16.085-9.26 31.146-19.67 45.098-31.063 2.133 2.73 4.395 5.42 6.74 8.064 19.927 22.102 43.265 34.816 70.06 38.102-23.552 22.143-50.048 41.94-79.232 58.793-144.427 83.414-317.312 72.747-447.83-12.928 3.5-3.114 6.87-6.485 10.155-10.154zm130.135-523.22c-1.28 6.57-5.504 18.943-13.526 30.42-7.85 11.222-17.963 19.67-30.72 23.083-12.758 3.414-25.73 1.152-38.102-4.65-12.715-5.888-22.57-14.507-26.965-19.542l-48.256 42.028c9.77 11.22 26.71 25.557 48.213 35.54 21.803 10.156 50.475 16.812 81.664 8.45 31.232-8.363 52.736-28.46 66.56-48.17 13.61-19.415 21.12-40.28 23.936-54.87l-62.805-12.29zm157.14 67.157c-13.61-19.414-21.12-40.278-23.935-54.87l62.805-12.288c1.28 6.57 5.504 18.943 13.526 30.42 7.85 11.222 17.963 19.67 30.72 23.083 12.758 3.414 25.73 1.152 38.102-4.65 12.715-5.888 22.57-14.507 26.965-19.542l48.256 42.028c-9.77 11.22-26.71 25.557-48.213 35.54-21.803 10.156-50.475 16.812-81.664 8.45-31.232-8.363-52.736-28.46-66.56-48.17zm186.668 350.037c15.872 16.47 34.944 24.66 57.216 24.66 22.27 0 41.343-8.19 57.172-24.66C888.064 735.957 896 716.16 896 693.077c0-18.9-5.077-39.04-15.19-60.373-10.11-21.333-32.042-57.216-65.79-107.605-33.75 50.388-55.68 86.27-65.836 107.604-10.112 21.333-15.19 41.472-15.19 60.373 0 23.083 7.937 42.88 23.81 59.307zm-619.478 76.288c15.872 16.427 34.944 24.66 57.216 24.66 22.273 0 41.345-8.233 57.175-24.66 15.872-16.47 23.808-36.224 23.808-59.35 0-18.9-5.078-38.997-15.19-60.373-10.112-21.334-32.042-57.217-65.792-107.606-33.748 50.39-55.68 86.272-65.833 107.605-10.112 21.375-15.19 41.47-15.19 60.373 0 23.125 7.936 42.88 23.808 59.35zM330.54 711.296v-28.63c0-48.127 19.113-94.293 53.16-128.298 34.007-34.048 80.172-53.163 128.3-53.163 48.128 0 94.293 19.115 128.3 53.163 34.047 34.005 53.16 80.17 53.16 128.3v28.628zm302.292-57.3c-5.29-22.188-16.64-42.71-33.024-59.137-23.296-23.255-54.87-36.353-87.808-36.353-32.94 0-64.512 13.098-87.808 36.352-16.384 16.425-27.733 36.948-32.98 59.135z"/></svg>