<svg viewBox="0 0 1024 1024" xmlns="http://www.w3.org/2000/svg"><path d="M512 298.667c58.923 0 106.667-47.744 106.667-106.667S570.923 85.333 512 85.333 405.333 133.077 405.333 192 453.077 298.667 512 298.667zM270.635 753.365l-.043-.085c-36.992-36.992-64.98-82.005-81.792-131.54-16.853-49.623-22.06-102.4-15.232-154.284 6.87-51.925 25.557-101.547 54.613-145.11 29.1-43.52 67.8-79.786 113.153-105.94l-42.666-73.9c-24.875 14.38-48.214 31.19-69.59 50.134-27.306 24.15-51.456 51.797-71.85 82.304-36.352 54.443-59.69 116.48-68.224 181.376-8.576 64.896-2.048 130.86 18.986 192.81 11.775 34.774 27.946 67.713 48.085 98.134 15.744 23.85 33.877 46.123 54.23 66.432l60.33-60.33zm482.816-.085l-.085.085 60.33 60.33c20.353-20.308 38.486-42.58 54.23-66.43 20.14-30.422 36.31-63.36 48.086-98.134 21.035-61.95 27.563-127.914 18.987-192.81-8.533-64.896-31.872-126.933-68.224-181.376-20.394-30.507-44.544-58.155-71.85-82.304-21.376-18.944-44.672-35.755-69.547-50.133l-42.71 73.898c45.355 26.155 84.054 62.422 113.153 105.942 29.097 43.562 47.743 93.184 54.612 145.11 6.827 51.882 1.62 104.66-15.232 154.282-16.81 49.535-44.8 94.548-81.75 131.54zM310.1 341.333c14.72-25.514 42.327-42.666 73.9-42.666 31.573 0 59.18 17.152 73.9 42.666h267.433C748.885 341.333 768 360.448 768 384c0 23.552-19.115 42.667-42.667 42.667h-51.54c5.716 13.056 8.874 27.477 8.874 42.666 0 34.902-16.768 65.878-42.667 85.334v67.797l94.976 236.587c9.088 22.742.128 48.683-21.077 60.93-21.207 12.244-48.172 7.04-63.276-12.204l-139.392-177.58-21.205 27.052c-3.926 31.787-25.344 58.155-54.315 69.205l-63.83 81.323c-15.146 19.243-42.11 24.448-63.317 12.203-21.205-12.247-30.165-38.188-21.034-60.93l35.713-89.002c-2.134-7.424-3.243-15.275-3.243-23.38 0-31.404 16.94-58.796 42.197-73.644L384 618.667V469.333c-31.573 0-59.18-17.152-73.9-42.666h-11.433C275.115 426.667 256 407.552 256 384c0-23.552 19.115-42.667 42.667-42.667zm265.9 192c35.328 0 64-28.672 64-64s-28.672-64-64-64-64 28.672-64 64 28.672 64 64 64zm-170.667 256c23.552 0 42.667-19.114 42.667-42.666C448 723.115 428.885 704 405.333 704c-23.552 0-42.666 19.115-42.666 42.667 0 23.552 19.114 42.666 42.666 42.666zM384 426.667c23.552 0 42.667-19.115 42.667-42.667 0-23.552-19.115-42.667-42.667-42.667-23.552 0-42.667 19.115-42.667 42.667 0 23.552 19.115 42.667 42.667 42.667z"/></svg>