<svg viewBox="0 0 1024 1024" xmlns="http://www.w3.org/2000/svg"><path d="M307.5 158.165L305.663 160l121.003 121.003 97.834-97.835 60.332 60.33-55.168 55.17 287.232 287.23c41.685 41.643 41.685 109.227 0 150.87l-17.45 17.45 76.5 76.502-45.226 45.227-76.5-76.502-17.452 17.45c-41.643 41.686-109.227 41.686-150.87 0l-287.23-287.23-55.17 55.167-60.33-60.33 97.835-97.835L160 305.664l-1.835 1.835c-16.64 16.68-43.69 16.68-60.33 0-16.683-16.64-16.683-43.692 0-60.332L247.168 97.835c16.64-16.683 43.69-16.683 60.33 0 16.683 16.64 16.683 43.69 0 60.33zm161.833 200.832L358.997 469.333l85.888 85.888 44.502-44.5c12.5-12.5 32.725-12.5 45.226 0 12.502 12.5 12.502 32.725 0 45.227l-44.5 44.5 61.44 61.44 44.5-44.5c12.502-12.502 32.726-12.502 45.227 0 12.5 12.5 12.5 32.725 0 45.226l-44.5 44.502 49.45 49.45c8.362 8.32 21.845 8.32 30.207 0l80.128-80.128c8.32-8.362 8.32-21.845 0-30.208zm-224-138.666l-25.002 25.003 121.003 121.003 25.003-25.003z"/></svg>