<svg viewBox="0 0 1024 1024" xmlns="http://www.w3.org/2000/svg"><path d="M746.667 778.667c23.552 0 42.666-19.115 42.666-42.667 0-23.552-19.114-42.667-42.666-42.667C723.115 693.333 704 712.448 704 736c0 23.552 19.115 42.667 42.667 42.667zm32-192c0 29.44-23.894 53.333-53.334 53.333-29.44 0-53.333-23.893-53.333-53.333 0-29.44 23.893-53.334 53.333-53.334 29.44 0 53.334 23.894 53.334 53.334zm-215.51-61.483c3.883 11.69 8.62 18.86 13.184 22.912 3.67 3.285 9.43 6.57 20.993 6.57v21.89c0-102.4 19.03-162.647 48.427-197.292 31.787-37.46 69.42-37.93 82.304-37.93 19.54 0 36.864 7.935 50.005 16.725 13.567 9.044 25.77 20.99 35.67 33.705 32.04 41.174 52.35 91.18 66.943 138.027 9.984 32.043 17.92 65.152 24.79 93.696 3.028 12.587 5.844 24.277 8.532 34.603 9.6 37.12 17.664 75.435 21.76 109.44 3.883 32.3 4.992 66.56-3.797 92.075-9.3 26.838-24.235 48.3-45.74 62.208-21.375 13.867-45.268 17.707-67.625 16.683-42.54-1.92-88.576-22.1-125.568-39.936-39.296-18.944-62.763-55.552-76.16-87.552-13.61-32.47-19.542-66.688-19.542-89.685V640c-31.104 0-57.344-10.07-77.696-28.117-2.688-2.39-5.248-4.907-7.637-7.467-2.39 2.56-4.95 5.077-7.637 7.467C484.01 629.93 457.77 640 426.667 640v81.323c0 22.997-5.93 57.216-19.542 89.685-13.397 32-36.864 68.608-76.16 87.552-36.992 17.835-83.03 38.016-125.568 39.936-22.357 1.024-46.25-2.816-67.626-16.683-21.503-13.91-36.437-35.37-45.695-62.208-8.832-25.514-7.723-59.776-3.84-92.074 4.096-34.005 12.16-72.32 21.76-109.44 2.688-10.325 5.504-22.015 8.533-34.602 6.87-28.544 14.805-61.653 24.79-93.696 14.59-46.848 34.9-96.853 66.943-138.027 9.943-12.714 22.103-24.66 35.67-33.706 13.142-8.79 30.465-16.727 50.006-16.727 12.885 0 50.517.47 82.304 37.93 29.397 34.646 48.427 94.892 48.427 197.292v-21.888c11.562 0 17.322-3.286 20.992-6.57 4.564-4.054 9.3-11.222 13.183-22.913 8.02-24.064 8.49-53.93 8.49-76.16V85.334h85.334v363.69c0 22.23.47 52.096 8.49 76.16zm-294.23-89.472c-24.234 31.147-41.428 71.637-55.04 115.243-9.258 29.824-16.17 58.624-22.74 86.058-3.2 13.312-6.358 26.326-9.6 38.955-9.174 35.285-16.427 70.272-20.01 100.053-3.798 31.49-2.646 51.5.426 60.332 5.333 15.488 11.818 22.016 16.512 25.045 4.82 3.158 11.99 5.29 23.51 4.78 25.215-1.153 58.367-14.252 96.426-32.598 16.086-7.767 30.166-25.473 40.45-50.092 10.11-24.15 13.993-49.024 13.993-62.165V576.555c0-96.598-18.517-135.85-31.317-150.955-10.112-11.904-19.115-11.86-25.003-11.86l-.597.04c-.512.087-3.37.727-8.533 4.14-5.93 3.968-12.502 10.112-18.475 17.792zm467.67-17.792c-5.162-3.413-7.978-4.053-8.533-4.18h-.597c-5.888 0-14.89-.044-25.003 11.86-12.8 15.104-31.317 54.357-31.317 150.955v144.768c0 13.14 3.882 38.016 13.994 62.165 10.284 24.62 24.364 42.325 40.45 50.09 38.058 18.347 71.21 31.446 96.426 32.598 11.52.512 18.688-1.62 23.51-4.78 4.693-3.028 11.178-9.556 16.51-25.044 3.073-8.832 4.183-28.843.428-60.33-3.328-27.69-9.813-59.82-18.048-92.502-5.845 6.06-14.037 9.813-23.083 9.813-17.664 0-32-14.336-32-32s14.336-32 32-32c3.542 0 6.912.555 10.07 1.622-6.144-25.6-12.715-52.352-21.334-80-5.334-17.238-11.265-34.006-18.006-49.878C786.22 507.777 777.6 512 768 512c-17.664 0-32-14.336-32-32 0-16.34 12.288-29.867 28.117-31.787-2.9-4.31-5.93-8.49-9.045-12.5-5.973-7.68-12.544-13.825-18.475-17.793z"/></svg>