<svg viewBox="0 0 1024 1024" xmlns="http://www.w3.org/2000/svg"><path d="M393.6 375.21l86.272 132.865 71.595-46.464-86.315-132.863L393.6 375.21zM198.912 261.76c-12.843-19.755-7.253-46.165 12.5-59.008L381.74 92.202c19.753-12.8 46.164-7.21 59.007 12.545l199.04 306.39c13.27 20.436 22.016 43.52 25.642 67.626l27.775 184.96c3.584 23.936 12.246 46.805 25.344 67.157l39.807 61.227L697.9 831.36l-39.81-61.227c-13.27-20.266-30.634-37.46-51.07-50.474L449.28 619.05c-20.565-13.098-38.06-30.463-51.37-50.9zm136.363 77.653l133.077 204.843 146.773 93.568-25.813-172.075-133.12-204.843zm-56.022-86.23l21.163 32.556 120.917-78.508-21.12-32.555zM719.53 868.566l32.385 49.835c10.922 16.81 33.365 21.59 50.176 10.667 16.81-10.923 21.59-33.366 10.667-50.176l-32.384-49.834-60.842 39.51z"/></svg>