<svg viewBox="0 0 1024 1024" xmlns="http://www.w3.org/2000/svg"><path d="M268.373 421.035c17.664 0 32-14.336 32-32s-14.336-32-32-32-32 14.336-32 32 14.336 32 32 32zm287.147-15.36c0 17.706-14.336 32-32 32s-32-14.294-32-32c0-17.664 14.336-32 32-32s32 14.336 32 32zm223.147 15.36c17.664 0 32-14.336 32-32s-14.336-32-32-32-32 14.336-32 32 14.336 32 32 32zM576 650.667c0 17.664-14.336 32-32 32s-32-14.336-32-32 14.336-32 32-32 32 14.336 32 32zm202.667 32c17.664 0 32-14.336 32-32s-14.336-32-32-32-32 14.336-32 32 14.336 32 32 32zm-478.294-32c0 17.664-14.336 32-32 32s-32-14.336-32-32 14.336-32 32-32 32 14.336 32 32zM170.667 213.333h682.666c47.147 0 85.334 38.187 85.334 85.334v426.666c0 47.147-38.187 85.334-85.334 85.334H170.667c-47.147 0-85.334-38.187-85.334-85.334V298.667c0-47.147 38.187-85.334 85.334-85.334zm233.557 512l-57.9-148.352-175.657-57.087v205.44zM654.08 513.195l-241.92 56.448 57.813 148.18c.982 2.476 1.622 4.993 1.963 7.51h130.26zM387.072 298.667H170.667v153.94l156.5 50.86zm64.085 0c.47 4.138.128 8.448-1.11 12.714L392.364 508.5l246.144-57.428-51.37-143.104c-1.11-3.072-1.708-6.187-1.878-9.3zm200.62 0l56.106 156.245 145.45 61.696v-217.94zm16.298 426.666h185.258v-145.62c-6.272 1.364-13.056.895-19.413-1.793L716.33 528z"/></svg>