<svg viewBox="0 0 1024 1024" xmlns="http://www.w3.org/2000/svg"><path d="M362.667 477.867c35.328 0 64-28.63 64-64 0-35.328-28.672-64-64-64s-64 28.672-64 64c0 35.37 28.672 64 64 64zm362.666-64c0 35.37-28.672 64-64 64s-64-28.63-64-64c0-35.328 28.672-64 64-64s64 28.672 64 64zM384 554.667c-47.147 0-85.333 38.186-85.333 85.333 0 31.573 17.152 59.18 42.666 73.9v-95.233c0-11.776 9.558-21.334 21.334-21.334h298.666c11.776 0 21.334 9.558 21.334 21.334V713.9c25.514-14.72 42.666-42.327 42.666-73.9 0-47.147-38.186-85.333-85.333-85.333H384zM170.667 512c0-188.5 152.832-341.333 341.333-341.333 188.5 0 341.333 152.832 341.333 341.333 0 107.776-49.962 203.904-128 266.453v32.214c0 31.274-9.898 60.458-27.52 85.504C840.363 827.094 938.667 681.046 938.667 512c0-235.648-191.02-426.667-426.667-426.667-235.648 0-426.667 191.02-426.667 426.667 0 169.045 98.304 315.093 240.854 384.17-17.622-25.045-27.52-54.23-27.52-85.503v-32.214c-78.038-62.55-128-158.677-128-266.453zm217.045 317.995C399.02 860.757 437.035 896 512 896s112.98-35.243 124.288-66.005c-38.485 15.06-80.427 23.338-124.288 23.338-43.86 0-85.803-8.277-124.288-23.338zm294.955-232.662v197.334c0 71.978-64 144-170.667 144s-170.667-72.022-170.667-144V597.333c0-23.552 19.115-42.666 42.667-42.666h256c23.552 0 42.667 19.114 42.667 42.666zM512 765.355c-23.552 0-42.667-19.115-42.667-42.667V640h-42.666v154.667c0 18.346 18.986 58.666 85.333 58.666s85.333-40.32 85.333-58.666V640h-42.666v82.688c0 23.552-19.115 42.667-42.667 42.667z"/></svg>