<svg viewBox="0 0 1024 1024" xmlns="http://www.w3.org/2000/svg"><path d="M512 184.363C552.66 149.29 605.696 128 663.723 128 791.98 128 896 232.02 896 360.32v.128c0 154.923-.896 300.33-89.13 438.57C793.002 854.742 742.7 896 682.666 896c-70.7 0-128-57.3-128-128 0-7.34-.94-11.264-1.622-13.013-.426-1.195-.725-1.408-.98-1.622l-.044-.042c-1.748-1.408-10.88-6.656-40.02-6.656s-38.272 5.248-40.02 6.656l-.044.042c-.256.214-.555.427-.98 1.622-.684 1.75-1.623 5.674-1.623 13.013 0 70.7-57.3 128-128 128-60.032 0-110.336-41.26-124.202-96.98C128.897 660.735 128 515.284 128 360.276 128 232.02 232.02 128 360.277 128c58.027 0 111.062 21.29 151.723 56.363zm-151.723 28.97c-81.152 0-146.944 65.792-146.944 146.944 0 160.342 2.816 282.54 79.488 398.592l4.95 7.51 1.494 8.873c3.413 20.096 20.992 35.414 42.07 35.414 23.55 0 42.666-19.115 42.666-42.667 0-28.16 7.253-59.35 34.688-81.323 24.917-19.925 58.453-25.344 93.312-25.344 34.86 0 68.395 5.42 93.312 25.344C632.747 708.65 640 739.84 640 768c0 23.552 19.115 42.667 42.667 42.667 21.077 0 38.656-15.318 42.07-35.414l1.492-8.874 4.95-7.51c76.67-116.054 79.487-238.166 79.487-398.465v-.128c0-14.464-2.09-28.5-6.016-41.728-18.005-60.843-74.282-105.217-140.927-105.217-21.547 0-41.984 4.608-60.374 12.928-13.57 6.103-26.027 14.21-37.035 23.937l53.632 80.512c13.098 19.583 7.765 46.08-11.82 59.135-19.626 13.1-46.122 7.766-59.178-11.818l-64.17-96.3c-.513-.81-1.025-1.578-1.495-2.388l-5.418-7.212c-26.88-35.797-69.504-58.795-117.59-58.795z"/></svg>