<svg viewBox="0 0 1024 1024" xmlns="http://www.w3.org/2000/svg"><path d="M128 128h768v187.093h-85.333v-101.76H213.333v384h184.875v85.334H128V128zm413.184 310.912C578.474 478.38 610.26 512 682.667 512H768c47.147 0 85.333 38.187 85.333 85.333V640c0 31.573-17.152 59.18-42.666 73.9v224.767h-128V597.333c-111.66 0-168.79-61.824-206.507-102.613-5.632-6.06-10.795-11.69-15.66-16.555l60.332-60.33c7.125 7.082 13.824 14.208 20.352 21.077zm269.483-33.58c0 35.33-28.672 64-64 64s-64-28.67-64-64c0-35.327 28.672-64 64-64s64 28.673 64 64z"/></svg>