<svg viewBox="0 0 1024 1024" xmlns="http://www.w3.org/2000/svg"><path d="M744.02 293.675l2.433 12.202 11.82 3.883c37.588 12.33 64.64 47.7 64.64 89.344 0 26.795-11.137 50.9-29.1 68.01l-10.026 9.558 4.65 13.056c3.158 8.875 5.42 18.176 6.656 27.776l1.878 14.55 14.21 3.498c51.796 12.63 90.24 59.392 90.24 115.03 0 39.295-19.16 74.11-48.6 95.658l-7.807 5.675-.853 9.642c-4.864 54.998-52.31 97.707-109.227 97.707-19.54 0-37.93-5.035-53.888-13.824l-9.813-5.42-10.027 5.036c-18.176 9.088-38.656 14.208-60.33 14.208-21.888 0-42.496-5.205-60.715-14.42l-17.408-8.79-10.325 16.554c-20.907 33.664-58.198 56.02-100.65 56.02-55.468 0-102.102-38.185-114.945-89.77l-5.205-20.863-20.822 5.376c-9.514 2.475-19.456 3.798-29.78 3.798-65.41 0-118.4-53.035-118.4-118.443 0-32.554 13.098-61.952 34.303-83.37L170.155 592l-11.563-14.805c-13.74-17.58-21.93-39.68-21.93-63.787 0-57.3 46.463-103.765 103.765-103.765 2.005 0 4.053.042 6.016.17l37.12 2.134-16.854-33.11c-7.17-14.08-11.222-29.994-11.222-46.933 0-55.936 44.245-101.504 99.627-103.68l15.402-.597 4.267-14.806c16.213-56.276 68.096-97.45 129.58-97.45 58.28 0 107.945 36.993 126.76 88.875l5.12 14.123 15.02-.043h.597c45.527 0 83.543 32.384 92.16 75.35zm-15.103 45.354H728.362c-4.907 0-9.515-2.09-12.758-5.718-3.242-3.67-4.736-8.533-4.138-13.397.298-2.475.47-4.992.47-7.595 0-33.195-26.924-60.075-60.076-60.075-8.32 0-16.212 1.664-23.38 4.694-5.035 2.132-10.795 1.705-15.445-1.153-4.694-2.816-7.68-7.766-8.107-13.184-3.883-52.182-47.445-93.27-100.565-93.27-55.51 0-100.566 44.843-100.864 100.267-.044 5.42-2.69 10.496-7.084 13.653-4.437 3.2-10.07 4.054-15.232 2.347-6.87-2.26-14.25-3.5-21.93-3.5-38.57 0-69.846 31.233-69.846 69.804 0 24.533 12.672 46.165 31.957 58.667 4.78 3.073 7.68 8.32 7.766 13.953.086 5.674-2.645 11.008-7.295 14.25-9.77 6.784-17.75 16-23.04 26.752-2.048 4.224-5.76 7.424-10.24 8.79-4.523 1.365-9.344.81-13.44-1.494-10.198-5.887-22.016-9.257-34.688-9.257-38.57 0-69.803 31.274-69.803 69.845 0 28.8 17.45 53.632 42.496 64.256 6.443 2.73 10.54 9.13 10.325 16.085-.17 6.954-4.608 13.14-11.178 15.487-32.555 11.776-55.723 42.966-55.723 79.488 0 46.678 37.845 84.48 84.48 84.48 24.62 0 46.763-10.496 62.208-27.306 5.46-5.932 14.293-7.212 21.163-3.116 6.912 4.096 9.984 12.5 7.38 20.096-2.9 8.533-4.48 17.707-4.48 27.307 0 46.677 37.804 84.48 84.48 84.48 43.18 0 78.85-32.427 83.884-74.283.81-6.613 5.417-12.203 11.817-14.165 6.358-2.007 13.312-.044 17.75 4.948 18.517 20.992 45.525 34.133 75.648 34.133 22.912 0 43.99-7.593 60.928-20.436 6.485-4.95 15.573-4.565 21.632.896l14.25-15.872-14.25 15.872c13.482 12.117 31.53 19.54 51.498 19.54 42.368 0 75.734-33.32 75.734-73.257 0-2.774-.17-5.462-.47-8.107-.81-7.168 2.987-14.08 9.472-17.237 28.33-13.655 47.786-42.668 47.786-76.12 0-46.676-37.803-84.48-84.48-84.48-1.323 0-2.603 0-3.883.087-5.034.213-9.856-1.75-13.226-5.42l-15.702 14.465 15.702-14.464c-3.414-3.712-5.035-8.66-4.395-13.653l-21.163-2.646 21.162 2.645c.512-4.096.768-8.235.768-12.502 0-20.522-6.187-39.552-16.768-55.338-2.816-4.182-3.627-9.387-2.22-14.208 1.41-4.822 4.908-8.79 9.56-10.795l-8.492-19.584 8.49 19.584c21.377-9.26 36.182-30.55 36.182-55.168 0-33.152-26.837-60.032-59.99-60.075h-.085zm-467.2 347.775c0 9.387-7.594 16.982-16.98 16.982-9.345 0-16.94-7.595-16.94-16.982 0-9.386 7.595-16.98 16.94-16.98 9.386 0 16.98 7.594 16.98 16.98zM520.32 270.25c0 9.387-7.595 16.982-16.98 16.982-9.345 0-16.94-7.595-16.94-16.98 0-9.345 7.595-16.94 16.94-16.94 9.385 0 16.98 7.595 16.98 16.94zm95.02 454.87c0 9.344-7.596 16.94-16.94 16.94-9.387 0-16.98-7.596-16.98-16.94 0-9.387 7.593-16.98 16.98-16.98 9.344 0 16.94 7.593 16.94 16.98zm149.588-435.627q79.317 26.07 79.317 109.61 0 49.366-35.712 83.457 5.59 15.7 7.723 32.256Q922.752 540.843 922.71 650.58q0 70.913-57.302 112.855-10.41 117.162-130.475 117.162-34.346 0-64.17-16.47-32.896 16.47-69.888 16.47-37.29 0-70.315-16.725-41.088 66.09-118.784 66.09-109.27 0-135.637-105.94-17.196 4.48-35.116 4.48-139.733 0-139.733-139.777 0-57.557 40.49-98.39-26.452-33.876-26.452-76.927 0-51.84 36.65-88.448 36.61-36.65 88.45-36.65 3.625 0 7.252.213-13.525-26.582-13.525-56.62 0-120.32 120.15-124.97Q386.772 94.037 504.362 94.037q109.525 0 146.816 102.955H651.86q94.508 0 113.068 92.5zm-20.48 145.152q23.21-10.154 23.21-35.54 0-38.7-38.655-38.742h-.64q-17.238.042-28.758-12.928-11.477-12.928-9.3-30.166.298-2.433.298-4.95 0-38.74-38.742-38.74-7.935 0-15.103 3.028-18.09 7.637-34.858-2.603-16.77-10.24-18.22-29.824-5.46-73.513-79.317-73.513-79.104 0-79.53 79.06-.13 19.5-16 30.892-15.83 11.348-34.348 5.247-7.38-2.432-15.232-2.432-20.096 0-34.304 14.165-14.21 14.208-14.21 34.304 0 26.368 22.23 40.747 17.153 11.094 17.494 31.53.34 20.44-16.47 32.087-10.453 7.253-16 18.645-7.338 14.933-23.21 19.797-15.872 4.863-30.293-3.414-11.135-6.4-24.063-6.4-48.47 0-48.47 48.512 0 32.085 29.526 44.63 24.02 10.197 23.296 36.31-.727 26.068-25.26 34.943-41.643 15.105-41.643 59.435 0 63.147 63.147 63.147 27.733 0 46.507-20.437 21.035-22.87 47.787-6.998 26.71 15.915 16.683 45.312-3.37 9.855-3.37 20.437 0 26.154 18.474 44.672 18.517 18.473 44.672 18.473 56.064 0 62.72-55.51 2.944-24.618 26.624-32 23.68-7.38 40.107 11.222 23.765 26.923 59.648 26.966 26.794-.042 48.042-16.17 15.062-11.435 29.526-8.49l3.37-3.713 15.744 14.123.128.128q15.702 14.123 37.248 14.123 22.87 0 38.827-15.615 15.573-15.19 15.573-36.352 0-2.86-.34-5.718-3.073-27.008 21.375-38.826 35.755-17.24 35.755-56.92 0-26.153-18.475-44.67-18.517-18.475-44.672-18.475-1.493 0-2.9.042-5.676.256-10.796-.896l-4.65 4.31-14.465-15.658-8.362-9.045-4.14-.555.428-3.5-2.39-2.56 3.073-2.857 1.494-11.82q0-.212.042-.426.597-4.822.597-9.857 0-23.808-13.142-43.434-10.026-14.892-4.992-32.13 1.664-5.546 4.48-10.07l-2.517-5.8 19.584-8.492.128-.043zM541.653 270.25q0 15.873-11.22 27.094-11.222 11.22-27.094 11.22-38.273 0-38.273-38.313 0-38.27 38.272-38.27 38.313 0 38.313 38.27zM283.05 686.806q0 38.315-38.314 38.315-15.872 0-27.05-11.22-11.222-11.223-11.222-27.095 0-15.872 11.22-27.093 11.223-11.22 27.052-11.22 19.157 0 28.757 9.6 9.558 9.556 9.558 28.713zm353.622 38.315q0 15.83-11.22 27.05-11.223 11.222-27.052 11.222-38.315 0-38.315-38.272 0-15.872 11.222-27.093 11.22-11.222 27.093-11.222 15.83 0 27.05 11.222 11.222 11.22 11.222 27.093zm-396.288-38.315q0 4.352 4.352 4.352 4.395 0 4.395-4.352t-4.394-4.352q-4.352 0-4.352 4.352zm353.62 38.315q0 4.352 4.396 4.352 1.792 0 3.072-1.28t1.28-3.072q0-4.395-4.352-4.395-4.395 0-4.395 4.395zm-95.017-454.87q0 1.835 1.28 3.115 1.28 1.28 3.072 1.28 4.393 0 4.393-4.394 0-1.79-1.28-3.07-1.28-1.28-3.114-1.28-4.353 0-4.353 4.35zM307.37 772.78q.13-.812.3-1.665-.598.512-1.238.98l.725-.17.214.854zm-3.242-367.404q.256-.213.555-.427-.64-.427-1.195-.897l.64 1.323z"/></svg>