<svg viewBox="0 0 1024 1024" xmlns="http://www.w3.org/2000/svg"><path d="M512 256c-23.467 0-43.563-8.363-60.245-25.088-16.726-16.683-25.088-36.78-25.088-60.245 0-23.467 8.362-43.563 25.088-60.288C468.437 93.695 488.533 85.332 512 85.332s43.563 8.363 60.288 25.046c16.683 16.724 25.045 36.82 25.045 60.287 0 23.466-8.362 43.562-25.045 60.245C555.563 247.637 535.468 256 512 256zm-163.2 88.533c14.933-14.933 31.66-26.325 50.133-34.133 18.475-7.808 38.4-11.733 59.734-11.733h106.666c21.334 0 41.26 3.925 59.734 11.733 18.474 7.808 35.2 19.2 50.133 34.133L825.856 495.19l-59.99 59.477L640 428.8 597.333 384l-17.706 35.456c-27.008 53.973-12.63 119.467 34.517 157.184L640 597.333v341.334h-85.333V640h-85.334v298.667H384V597.333l25.856-20.693c47.147-37.717 61.525-103.21 34.517-157.184L426.667 384 384 428.8l-128 128-58.667-60.757L348.8 344.533z"/></svg>