<svg viewBox="0 0 1024 1024" xmlns="http://www.w3.org/2000/svg"><path d="M371.755 172.416l182.912-60.928v128l41.557-13.867 17.45-140.84 219.862 2.345-32.47 320.128c32.214 7.467 58.497 36.224 50.987 73.728L775.04 903.638c-3.67 20.267-21.376 35.03-41.984 35.03H290.944c-20.65 0-38.315-14.763-41.984-35.03L171.947 480.98c-6.827-34.175 14.336-61.097 42.538-71.252L159.317 203.86 347.007 80zM669.44 560.213c-48.085 23.126-104.747 43.69-157.44 43.69s-109.355-20.564-157.44-43.69c-31.104-14.89-60.8-32-86.7-48.17l60.375 342.912h367.53l60.374-342.912c-25.9 16.17-55.596 33.28-86.7 48.17zM469.333 514.09V229.846l-42.666 14.25V499.84c14.933 5.973 29.226 10.795 42.666 14.25zm245.12-76.202l19.5-266.496-49.58-.512-2.304 26.112.597-.17v260.437c11.093-6.444 21.76-13.015 31.786-19.372zm-373.12 19.37v-68.693l-46.122-172.16-37.546 24.79 52.864 197.333c9.77 6.187 20.096 12.5 30.805 18.73zm256 42.582V315.18l-42.666 14.25v184.66c13.44-3.455 27.733-8.277 42.666-14.25z"/></svg>