<svg viewBox="0 0 1024 1024" xmlns="http://www.w3.org/2000/svg"><path d="M128.128 511.232c2.176-123.99 34.517-246.187 87.637-397.355l80.512 28.246C244.053 290.86 215.38 402.688 213.46 512.768c-1.96 109.397 22.444 220.5 82.05 367.147l-79.02 32.17c-62.335-153.258-90.58-276.224-88.362-400.853zm767.744 0c-2.22-123.99-34.517-246.187-87.595-397.355l-80.554 28.246c52.224 148.736 80.896 260.565 82.816 370.645 1.96 109.397-22.444 220.5-82.05 367.147l79.02 32.17c62.335-153.258 90.58-276.224 88.362-400.853zM554.667 640c0-23.552-19.115-42.667-42.667-42.667-23.552 0-42.667 19.115-42.667 42.667v37.504l-125.397-125.44-45.27 45.27L469.334 768v128h85.334V768l170.666-170.667-45.226-45.27-125.44 125.44V640z"/></svg>