<svg viewBox="0 0 1024 1024" xmlns="http://www.w3.org/2000/svg"><path d="M853.333 85.333H170.667v512h298.666V640h-42.666C403.115 640 384 659.115 384 682.667c0 23.552 19.115 42.666 42.667 42.666h42.666V768H170.667v85.333H256c-23.552 0-42.667 19.115-42.667 42.667 0 23.552 19.115 42.667 42.667 42.667 23.552 0 42.667-19.115 42.667-42.667 0-23.552-19.115-42.667-42.667-42.667h512c-23.552 0-42.667 19.115-42.667 42.667 0 23.552 19.115 42.667 42.667 42.667 23.552 0 42.667-19.115 42.667-42.667 0-23.552-19.115-42.667-42.667-42.667h85.333V768H554.667v-42.667h42.666c23.552 0 42.667-19.114 42.667-42.666C640 659.115 620.885 640 597.333 640h-42.666v-42.667h298.666V426.667H768V512H256V384h220.33l51.542-51.54L638.55 487.38l96.98-124.713h117.803v-85.334h-159.53L641.45 344.62 538.796 200.874l-97.792 97.792H256v-128h512v42.666h85.333v-128z"/></svg>