<svg viewBox="0 0 1024 1024" xmlns="http://www.w3.org/2000/svg"><path d="M170.667 128c140.16 0 254.037 71.296 276.522 183.595 8.96 44.885 4.31 82.73-4.65 116.31 50.943 54.228 73.855 117.29 80.724 176.554 28.16-3.073 66.432-1.665 99.072 21.93 36.95 26.71 41.94 70.1 44.288 93.738.47 5.12.853 9.557 1.195 13.525.64 7.595 1.15 13.526 2.175 19.755.853 5.376 1.75 8.235 2.304 9.6 1.705.725 7.08 2.304 19.24.768 17.623-2.133 38.23-10.027 53.72-20.48 11.007-7.424 20.607-21.504 23.72-36.864 2.86-14.336-.255-26.71-9.855-36.31-21.973-22.015-43.648-45.823-59.946-70.87-8.876-13.61-16.77-28.543-22.103-44.585h-47.744V512H800v42.667h-28.032c11.392 16.98 27.648 35.2 47.53 55.125 33.11 33.11 40.662 76.075 33.153 113.45-7.295 36.267-29.14 70.187-59.647 90.795-26.027 17.58-59.35 30.55-91.008 34.432-28.928 3.583-72.192.98-97.92-33.75-11.82-15.957-16.128-34.176-18.347-47.66-1.536-9.556-2.475-20.777-3.285-29.865-.256-3.243-.512-6.187-.768-8.747-2.518-25.643-6.57-30.89-9.344-32.896-7.722-5.59-20.693-8.405-40.15-6.23-3.156.342-6.313.81-9.385 1.366-4.608 37.333-14.422 70.912-25.9 96.81-6.27 14.123-13.567 27.18-21.716 37.675-4.097 5.248-9.09 10.752-15.105 15.488-5.59 4.44-14.848 10.37-27.18 12.204l-3.84.555-3.882-.13h-.64l-1.578-.085c-1.366-.042-3.37-.128-5.846-.256-5.035-.257-12.16-.64-20.822-1.238-17.28-1.195-40.917-3.157-66.048-6.315-24.917-3.157-52.31-7.637-76.8-13.994-12.63-3.286-26.837-7.638-40.107-13.74V896H128V725.333c0-16.64 9.643-31.744 24.747-38.698 13.098-6.102 28.245-5.078 40.32 2.39 7.978-13.782 17.493-25.9 27.477-36.737 12.245-13.27 25.6-24.96 37.333-35.115l3.968-3.413c10.582-9.173 19.712-17.024 27.99-25.3 13.653-13.655 17.664-19.97 20.18-25.43 3.158-6.998 5.12-14.977 10.156-35.627l1.067-4.224c6.016-24.748 15.318-49.75 23.296-71.212 3.456-9.216 6.614-17.792 9.216-25.387 11.093-32.81 16.98-62.036 9.727-98.217-11.648-58.326-76.97-115.03-192.81-115.03H128V128zm104.277 620.843c19.456 5.034 42.795 8.96 66.005 11.904 22.997 2.9 44.927 4.736 61.14 5.802 3.457.255 6.614.47 9.515.64 2.134-3.585 4.65-8.32 7.296-14.294 8.748-19.755 17.025-48.34 20.097-81.152 4.438-46.976-1.962-99.5-29.738-146.816-1.836 5.973-3.585 12.075-5.164 18.517-.512 2.22-1.067 4.438-1.58 6.656-4.137 17.068-8.105 33.537-14.89 48.385-8.575 18.774-20.607 33.45-37.46 50.304-10.667 10.666-22.273 20.693-32.555 29.567l-3.925 3.37c-11.733 10.156-21.802 19.073-30.464 28.46-10.196 11.05-17.833 21.973-22.4 34.517 4.225 1.365 8.92 2.773 14.124 4.14zm407.723-471.51h64v-42.666h-64v42.666zm0 64h64v-42.666h-64v42.666zm64 64h-64v-42.666h64v42.666zM853.333 192v234.667c23.552 0 42.667 19.114 42.667 42.666C896 492.885 876.885 512 853.333 512H576c-23.552 0-42.667-19.115-42.667-42.667 0-23.552 19.072-42.666 42.667-42.666V192c0-17.45 10.624-33.152 26.837-39.595l.128-.085.17-.085.64-.214c.513-.212 1.28-.51 2.177-.852 1.792-.683 4.352-1.62 7.51-2.73 6.314-2.22 15.146-5.163 25.47-8.15C658.86 134.613 687.36 128 714.668 128c23.424 0 52.31 6.827 72.02 12.16 10.582 2.86 19.97 5.717 26.668 7.85 3.413 1.067 6.144 1.963 8.064 2.603l2.26.768.64.215.213.042.086.043c17.193 5.93 28.713 22.144 28.713 40.32zm-192 234.667H768v-203.18c-1.195-.298-2.39-.64-3.584-.98-19.712-5.334-38.827-9.174-49.75-9.174-15.36 0-34.858 4.054-52.266 9.046l-1.067.297zM288 448c17.664 0 32-14.336 32-32s-14.336-32-32-32-32 14.336-32 32 14.336 32 32 32z"/></svg>