<svg viewBox="0 0 1024 1024" xmlns="http://www.w3.org/2000/svg"><path d="M368.128 458.667c0-11.776-9.6-21.334-21.46-21.334-11.905 0-21.505 9.558-21.505 21.334v106.666c0 11.776 9.6 21.334 21.504 21.334 11.86 0 21.46-9.558 21.46-21.334v-32H396.8v32c0 11.776 9.643 21.334 21.504 21.334 11.86 0 21.504-9.558 21.504-21.334V458.667c0-11.776-9.643-21.334-21.504-21.334-11.86 0-21.504 9.558-21.504 21.334v32h-28.672v-32zm82.773 0c0-11.776 9.644-21.334 21.505-21.334h44.8c26.71 0 48.342 21.504 48.342 48 0 26.54-21.632 48-48.342 48H493.91v32c0 11.776-9.643 21.334-21.505 21.334-11.86 0-21.504-9.558-21.504-21.334zm43.01 32h23.295c2.944 0 5.334-2.39 5.334-5.334 0-2.944-2.39-5.333-5.335-5.333H493.91zm160.255 82.858c-3.328 7.98-11.136 13.142-19.84 13.142-8.66 0-16.512-5.163-19.84-13.142L569.728 466.86c-4.565-10.84.597-23.34 11.563-27.863 10.966-4.565 23.553.598 28.118 11.478l24.917 59.392 24.96-59.392c4.566-10.88 17.152-16.043 28.118-11.478 10.922 4.523 16.128 17.024 11.562 27.862l-44.8 106.665zM404.693 128c0-23.552 19.243-42.667 43.008-42.667h128.94c23.765 0 43.008 19.115 43.008 42.667 0 23.552-19.243 42.667-43.008 42.667h-21.46v45.696c82.516 11.733 154.28 56.66 201 120.79l47.575-27.265-10.752-18.475c-11.862-20.437-4.822-46.506 15.744-58.282 20.565-11.818 46.848-4.82 58.71 15.617l64.51 110.848c11.862 20.394 4.822 46.506-15.743 58.282-20.565 11.776-46.848 4.78-58.71-15.616l-10.75-18.473-50.647 29.013c11.008 31.02 16.982 64.427 16.982 99.2 0 32.98-5.377 64.768-15.36 94.42l49.96 28.63 10.753-18.474c11.862-20.437 38.144-27.392 58.71-15.616 20.565 11.776 27.605 37.845 15.744 58.283L868.395 770.09c-11.862 20.395-38.144 27.393-58.71 15.617-20.565-11.776-27.605-37.888-15.744-58.283l10.753-18.475-45.61-26.155c-46.635 66.26-119.638 112.896-203.904 124.842v45.696h21.46c23.765 0 43.008 19.115 43.008 42.667 0 23.552-19.243 42.667-43.008 42.667H447.7c-23.764 0-43.007-19.115-43.007-42.667 0-23.552 19.243-42.667 43.008-42.667h21.463v-45.696c-84.31-11.946-157.398-58.624-203.99-124.97l-45.866 26.282 10.752 18.474c11.86 20.395 4.82 46.507-15.745 58.283-20.566 11.776-46.848 4.778-58.71-15.616L91.093 659.244c-11.86-20.438-4.82-46.507 15.744-58.283 20.566-11.776 46.848-4.82 58.71 15.616L176.3 635.05l50.217-28.8c-9.898-29.61-15.274-61.31-15.274-94.25 0-34.73 5.973-68.053 16.938-99.03l-50.943-29.183-10.752 18.474c-11.86 20.396-38.144 27.393-58.71 15.617-20.564-11.776-27.604-37.888-15.743-58.282l64.47-110.848c11.903-20.438 38.186-27.435 58.75-15.616 20.567 11.777 27.607 37.846 15.745 58.283l-10.752 18.475 47.83 27.392c46.72-64.17 118.485-109.184 201.088-120.917v-45.696H447.7c-23.764 0-43.007-19.115-43.007-42.667zm322.432 384c0-117.803-96.256-213.333-214.954-213.333-118.74 0-214.954 95.53-214.954 213.333S393.43 725.333 512.17 725.333c118.7 0 214.955-95.53 214.955-213.333z"/></svg>