<svg viewBox="0 0 1024 1024" xmlns="http://www.w3.org/2000/svg"><path d="M204.5 183.168c16.64-16.683 43.692-16.683 60.332 0L401.664 320l-60.33 60.33L320 358.998v67.67H149.333v-67.67L128 380.33 67.67 320 204.5 183.168zM542.166 396.5c-16.64-16.68-43.69-16.68-60.33 0L217.003 661.334l60.33 60.33L320 678.998v174.336h128V746.667c0-35.328 28.672-64 64-64 35.37 0 64 28.672 64 64v106.666h128V678.997l42.667 42.667 60.33-60.33L542.165 396.5zm311.168-37.503L896 401.664l60.33-60.33-158.165-158.166c-16.64-16.683-43.69-16.683-60.33 0L579.67 341.333l60.33 60.33 42.667-42.666v110.336h170.666V358.997z"/></svg>