<svg viewBox="0 0 1024 1024" xmlns="http://www.w3.org/2000/svg"><path d="M204.5 183.168c16.64-16.683 43.692-16.683 60.332 0L401.664 320l-57.43 57.43v10.453c0 17.664-14.335 32-32 32-17.663 0-32-14.336-32-32v-68.65l-45.567-45.57-45.568 45.57v68.65c0 17.664-14.337 32-32 32-17.665 0-32-14.336-32-32V377.43L67.67 320 204.5 183.168zm438.4 215.595l-2.9 2.9-60.33-60.33 158.165-158.165c16.64-16.683 43.69-16.683 60.33 0L956.33 341.333 896 401.663l-2.9-2.9v24.02c0 17.665-14.337 32-32 32-17.665 0-32-14.335-32-32v-88.02l-61.1-61.1-61.1 61.1v88.02c0 17.665-14.335 32-32 32-17.663 0-32-14.335-32-32v-24.02zM481.836 396.5c16.64-16.68 43.69-16.68 60.33 0l264.832 264.833-60.33 60.33-21.334-21.332v110.337c0 23.552-19.114 42.666-42.666 42.666-23.552 0-42.667-19.114-42.667-42.666v-192c0-1.195.043-2.347.128-3.5L512 486.998l-128.128 128.17c.085 1.153.128 2.305.128 3.5v192c0 23.552-19.115 42.666-42.667 42.666-23.552 0-42.666-19.114-42.666-42.666V700.33l-21.334 21.334-60.33-60.33L481.835 396.5zM512 640c-35.328 0-64 28.672-64 64v149.333h128V704c0-35.328-28.63-64-64-64z"/></svg>