<svg viewBox="0 0 1024 1024" xmlns="http://www.w3.org/2000/svg"><path d="M471.083 426.624c6.314 22.74 29.866 36.01 52.565 29.696 22.7-6.315 35.968-29.824 29.653-52.565-6.313-22.7-29.823-35.968-52.52-29.654-22.7 6.316-36.012 29.825-29.697 52.524zm150.698 179.03c-22.697 6.314-46.25-6.955-52.564-29.697-6.315-22.698 6.997-46.208 29.696-52.522 22.7-6.315 46.208 6.954 52.523 29.653 6.314 22.74-6.955 46.25-29.654 52.565zm-244.564-29.697c6.315 22.742 29.867 36.01 52.565 29.696 22.7-6.314 35.97-29.824 29.655-52.565-6.315-22.7-29.824-35.968-52.523-29.653-22.7 6.314-36.01 29.824-29.696 52.522zm48.98-480.896l81.88-1.15h.425l.47-.043 87.894-1.238c17.664-.257 32.213 13.866 32.47 31.53.255 17.664-13.867 32.213-31.574 32.47l-56.32.81.81 57.77c55.638 5.334 110.08 26.198 156.246 62.72l38.827-39.253-37.93-37.546c-12.588-12.415-12.673-32.682-.257-45.226 12.416-12.587 32.683-12.672 45.27-.256l60.415 59.776.257.256.3.3 60.372 59.69c12.543 12.415 12.67 32.682.213 45.27-12.416 12.543-32.683 12.67-45.227.212l-37.888-37.46-38.613 38.996c39.168 47.53 61.44 104.363 66.773 162.475l56.49-1.366-1.322-56.32c-.427-17.664 13.568-32.34 31.232-32.768 17.664-.427 32.34 13.567 32.768 31.23l2.048 87.895.043.47v.426l1.92 81.835c.426 17.664-13.568 32.342-31.232 32.768-17.664.384-32.342-13.568-32.726-31.232l-1.195-50.303-59.008 1.408c-6.528 52.78-27.094 104.235-61.867 148.224l39.253 38.826 36.864-37.333c12.46-12.544 32.726-12.672 45.27-.256 12.586 12.458 12.672 32.725.256 45.27l-59.35 59.988-.085.086-.043.043-60.544 61.227c-12.457 12.544-32.68 12.672-45.268.213-12.544-12.416-12.672-32.682-.256-45.226L742.4 781.74l-39.04-38.615c-45.74 37.76-100.14 59.82-155.99 66.134l-.213 54.57 50.304.17c17.665.085 31.96 14.464 31.873 32.128-.085 17.664-14.464 31.957-32.128 31.872l-81.834-.3h-.938l-87.893-.34c-17.665-.085-31.916-14.464-31.873-32.128.085-17.707 14.464-31.957 32.128-31.872l56.362.213.214-53.93c-55.082-5.59-108.927-26.41-154.71-62.592l-38.825 39.254 35.797 35.37c12.544 12.46 12.672 32.683.256 45.27-12.46 12.544-32.725 12.672-45.27.256l-58.197-57.557-.34-.342-.3-.297-62.505-61.824c-12.544-12.46-12.672-32.684-.256-45.27 12.457-12.545 32.724-12.673 45.268-.257l40.064 39.638 38.613-38.997c-38.23-46.336-60.373-101.59-66.39-158.25l-57.258 1.92 1.707 50.304c.597 17.664-13.227 32.47-30.89 33.066-17.665.598-32.47-13.27-33.067-30.933l-2.774-81.792V515.712l-2.986-87.85c-.598-17.665 13.27-32.47 30.933-33.067 17.664-.598 32.47 13.226 33.024 30.89l1.92 56.32 59.52-2.005c5.76-53.035 25.728-104.875 59.947-149.333l-39.167-38.742-33.28 33.664c-12.416 12.586-32.683 12.67-45.227.255-12.587-12.416-12.672-32.682-.256-45.27l51.797-52.35c1.067-1.537 2.262-3.03 3.627-4.396 1.365-1.366 2.816-2.603 4.352-3.67l60.245-60.928c12.417-12.544 32.684-12.672 45.27-.213 12.545 12.415 12.673 32.68.214 45.225l-41.728 42.198 38.315 37.888c45.953-38.87 100.907-61.695 157.44-68.394l-.81-57.6-50.304.725c-17.664.257-32.213-13.865-32.47-31.53-.255-17.663 13.867-32.213 31.53-32.47zm89.644 597.335c17.195.042 31.147 13.696 31.83 30.72 33.62-5.42 66.218-18.902 94.59-40.406-12.116-12.502-12.073-32.427.215-44.843 12.16-12.288 31.872-12.63 44.458-.982 18.902-26.24 31.062-55.765 36.566-86.272-14.764-2.517-26.113-15.232-26.497-30.762-.384-16.725 12.117-30.762 28.458-32.554-4.393-36.82-18.303-72.66-41.77-103.595-12.5 10.668-31.274 10.156-43.178-1.62-11.776-11.69-12.63-30.208-2.432-42.837-28.672-20.694-61.355-33.366-94.89-38.016-1.963 15.573-15.147 27.733-31.275 27.946-16.256.214-29.824-11.69-32.128-27.306-35.03 5.59-68.907 19.882-98.09 42.922 10.196 12.543 9.514 30.975-2.092 42.71-11.22 11.348-28.842 12.543-41.43 3.497-18.388 26.496-30.08 56.192-35.07 86.784 14.548 2.604 25.855 15.063 26.367 30.465.555 16.427-11.392 30.38-27.307 32.726 4.78 35.627 18.518 70.273 41.26 100.225 12.5-11.478 31.956-11.264 44.16.81 12.074 11.99 12.628 31.19 1.578 43.82 28.63 20.564 61.14 33.236 94.55 37.93.34-17.45 14.59-31.446 32.127-31.36z"/></svg>