<svg viewBox="0 0 1024 1024" xmlns="http://www.w3.org/2000/svg"><path d="M458.667 384c41.258 0 74.666 33.408 74.666 74.667 0 41.258-33.408 74.666-74.666 74.666-41.216 0-74.667-33.408-74.667-74.666 0-41.26 33.45-74.667 74.667-74.667zm96 256c0 23.552-19.115 42.667-42.667 42.667-23.552 0-42.667-19.115-42.667-42.667 0-23.552 19.115-42.667 42.667-42.667 23.552 0 42.667 19.115 42.667 42.667zm128-128c0 23.552-19.115 42.667-42.667 42.667-23.552 0-42.667-19.115-42.667-42.667 0-23.552 19.115-42.667 42.667-42.667 23.552 0 42.667 19.115 42.667 42.667zM405.333 128c0-23.552 19.115-42.667 42.667-42.667h128c23.552 0 42.667 19.115 42.667 42.667 0 23.552-19.115 42.667-42.667 42.667h-21.333v45.696c81.92 11.733 153.13 56.66 199.51 120.79l47.23-27.265-10.666-18.475c-11.775-20.437-4.82-46.506 15.617-58.282 20.395-11.775 46.507-4.82 58.283 15.617l64 110.848c11.776 20.394 4.78 46.506-15.616 58.282-20.437 11.776-46.507 4.78-58.283-15.616l-10.665-18.473-50.262 29.013c10.923 31.06 16.854 64.427 16.854 99.2 0 33.024-5.334 64.768-15.232 94.42l49.578 28.63 10.624-18.474c11.776-20.395 37.888-27.392 58.283-15.616 20.437 11.776 27.435 37.888 15.66 58.283l-64 110.848c-11.82 20.438-37.89 27.393-58.327 15.617-20.394-11.776-27.392-37.846-15.616-58.283l10.71-18.475-45.312-26.155c-46.25 66.26-118.742 112.896-202.368 124.842v45.696H576c23.552 0 42.667 19.115 42.667 42.667 0 23.552-19.115 42.667-42.667 42.667H448c-23.552 0-42.667-19.115-42.667-42.667 0-23.552 19.115-42.667 42.667-42.667h21.333v-45.696C385.62 795.69 313.13 749.013 266.88 682.667l-45.525 26.282 10.666 18.474c11.777 20.437 4.78 46.507-15.615 58.283-20.394 11.776-46.506 4.82-58.282-15.616l-64-110.847c-11.776-20.395-4.78-46.507 15.616-58.283 20.393-11.776 46.505-4.78 58.28 15.616l10.668 18.475 49.835-28.757c-9.856-29.653-15.19-61.354-15.19-94.293 0-34.73 5.93-68.053 16.81-99.03l-50.516-29.183-10.667 18.474c-11.776 20.396-37.888 27.393-58.283 15.617C90.24 406.1 83.243 379.99 95.06 359.595l64-110.848c11.777-20.438 37.847-27.392 58.284-15.616 20.395 11.777 27.392 37.846 15.616 58.283l-10.667 18.475 47.446 27.392c46.377-64.17 117.63-109.184 199.593-120.917v-45.696H448c-23.552 0-42.667-19.115-42.667-42.667zm320 384c0-117.803-95.488-213.333-213.333-213.333-117.803 0-213.333 95.53-213.333 213.333S394.197 725.333 512 725.333c117.845 0 213.333-95.53 213.333-213.333z"/></svg>