<svg viewBox="0 0 1024 1024" xmlns="http://www.w3.org/2000/svg"><path d="M544 320c53.035 0 96-42.965 96-96s-42.965-96-96-96-96 42.965-96 96 42.965 96 96 96zM325.675 604.885L274.39 536.49l50.517-50.346c1.962 19.243 10.453 37.547 24.533 51.627l89.728 89.73c16.64 16.68 43.69 16.68 60.33 0 16.683-16.64 16.683-43.692 0-60.332l-89.727-89.728 27.478-113.024c9.515-26.155 3.797-56.576-17.195-77.568-43.264-43.22-113.408-43.22-156.63 0l-115.668 115.67c-27.392 27.39-32.384 69.034-14.336 101.674 25.556 61.61 68.692 114.475 123.988 151.893l20.14 201.515c2.345 23.424 23.252 40.533 46.676 38.187 23.467-2.347 40.576-23.254 38.23-46.678l-20.14-201.515c-1.578-15.488-7.295-30.25-16.64-42.71zM896 842.667C896 872.107 824.363 896 736 896s-160-23.893-160-53.333c0-29.44 71.637-53.334 160-53.334 3.584 0 7.125.043 10.667.128v-.127c0-23.552 19.114-42.666 42.666-42.666 23.552 0 42.667 19.114 42.667 42.666 0 3.584-.427 7.04-1.28 10.368 39.595 9.687 65.28 25.345 65.28 42.967zM725.333 512c0 23.552-19.114 42.667-42.666 42.667C659.115 554.667 640 535.552 640 512c0-23.552 19.115-42.667 42.667-42.667 23.552 0 42.666 19.115 42.666 42.667zm53.334 149.333c17.664 0 32-14.336 32-32s-14.336-32-32-32-32 14.336-32 32 14.336 32 32 32zm-74.667 32c0 17.664-14.336 32-32 32s-32-14.336-32-32 14.336-32 32-32 32 14.336 32 32zm-74.667-266.666c17.664 0 32-14.336 32-32s-14.336-32-32-32-32 14.336-32 32 14.336 32 32 32z"/></svg>