<svg viewBox="0 0 1024 1024" xmlns="http://www.w3.org/2000/svg"><path d="M291.37 348.373c7.894-15.83 27.137-22.23 42.923-14.336l51.712 25.856c54.998 27.52 54.998 106.027 0 133.547l-51.712 25.856c-15.786 7.893-35.03 1.493-42.922-14.336-7.893-15.787-1.493-35.03 14.337-42.923l51.67-25.813c7.85-3.925 7.85-15.147 0-19.115l-51.67-25.814c-15.83-7.893-22.23-27.136-14.336-42.923zm441.26 0c7.893 15.787 1.493 35.03-14.337 42.923l-51.67 25.813c-7.85 3.967-7.85 15.19 0 19.114l51.67 25.813c15.83 7.894 22.23 27.136 14.336 42.923-7.894 15.83-27.137 22.23-42.923 14.336l-51.712-25.856c-54.998-27.52-54.998-106.027 0-133.547l51.712-25.856c15.786-7.893 35.03-1.493 42.922 14.336zM186.07 787.37C123.22 713.046 85.332 616.96 85.332 512c0-235.648 191.02-426.667 426.667-426.667 235.648 0 426.667 191.02 426.667 426.667 0 104.96-37.888 201.045-100.736 275.37 7.937 9.43 14.422 21.633 15.318 37.035 1.62 28.843-17.237 48.086-31.104 58.198-27.733 20.266-74.496 33.536-126.208 42.197-54.016 9.088-118.315 13.867-183.765 13.867-65.45 0-129.79-4.736-183.85-13.824-51.755-8.662-98.517-21.888-126.336-42.112-13.867-10.07-32.768-29.27-31.232-58.07.81-15.487 7.34-27.817 15.317-37.29zM170.666 512c0 87.893 33.194 167.98 87.765 228.48 12.032-5.42 25.515-10.667 40.235-15.02v-53.247c0-49.11 28.074-93.91 72.277-115.242l36.395-17.62c8.447-4.48 16.383-8.278 23.892-11.478 9.43-4.01 18.22-7.125 26.624-9.472 22.87-6.4 40.363-6.4 53.547-6.4H512c19.925 0 43.99.17 80.768 15.872 7.51 3.2 15.445 6.997 23.893 11.477l36.396 17.62c44.203 21.334 72.277 66.134 72.277 115.243v53.248c14.763 4.353 28.203 9.56 40.235 15.02 54.57-60.5 87.765-140.63 87.765-228.48 0-188.5-152.832-341.333-341.333-341.333-188.5 0-341.333 152.832-341.333 341.333zm320 86.4V768c0 17.664-14.336 32-32 32s-32-14.336-32-32V624.81l-18.56 8.96C393.344 640.897 384 655.83 384 672.214V795.86l-35.968 5.76c-27.605 4.396-51.157 14.252-69.42 24.065 15.233 5.078 36.353 10.41 63.788 15.02 48.512 8.148 108.032 12.628 169.728 12.628 61.74 0 121.216-4.522 169.685-12.672 27.35-4.607 48.384-9.897 63.616-14.975-18.305-9.856-41.814-19.67-69.462-24.064L640 795.905v-123.69c0-16.385-9.344-31.318-24.107-38.443l-18.56-8.96v100.523c0 17.664-14.336 32-32 32s-32-14.336-32-32v-126.89l-.17-.043c-6.57-1.024-12.288-1.067-21.163-1.067-8.363 0-14.592.043-21.333 1.067z"/></svg>