<svg viewBox="0 0 1024 1024" xmlns="http://www.w3.org/2000/svg"><path d="M522.667 277.333c53.034 0 96-42.965 96-96 0-53.034-42.966-96-96-96-53.035 0-96 42.966-96 96 0 53.035 42.965 96 96 96zm-174.38 116.78c16.428-56.918 75.35-90.198 132.566-74.88 13.1 3.498 24.448 10.41 33.28 19.54 3.158 2.688 5.93 5.888 8.278 9.515l77.014 121.045h83.243c23.552 0 42.666 19.115 42.666 42.667 0 23.21-18.517 42.07-41.557 42.667h169.557c47.147 0 85.334 38.186 85.334 85.333v298.667h-85.334V640H170.667v298.667H85.333V640c0-47.147 38.187-85.333 85.334-85.333h145.408c-4.523-14.934-5.035-31.53-.17-48.3zm163.97 160.554h40.32L519.508 502.7zm-169.814 128l-9.814 68.48L243.2 870.4c-14.123 18.86-10.325 45.61 8.533 59.733 18.86 14.123 45.61 10.326 59.734-8.533l102.57-136.747 14.592-102.186h-86.187zm89.088 0l98.134 96 60.46 134.144c9.257 21.675 34.345 31.702 56.02 22.4 21.675-9.258 31.7-34.346 22.4-56.02l-67.54-145.323-50.817-51.2H431.53z"/></svg>