<svg viewBox="0 0 1024 1024" xmlns="http://www.w3.org/2000/svg"><path d="M586.667 277.333c52.992 0 96-42.965 96-96 0-53.034-43.008-96-96-96-53.035 0-96 42.966-96 96 0 53.035 42.965 96 96 96zm1.066 245.206L566.06 615.55l111.828 108.416 45.78 160.3c6.487 22.655-6.655 46.292-29.31 52.735-22.657 6.485-46.25-6.614-52.737-29.27l-39.508-138.368-198.315-192.213c-11.434-8.49-18.304-22.443-17.237-37.42l8.363-116.692c-29.61 33.365-58.838 81.323-76.587 143.36-6.443 22.656-30.08 35.755-52.736 29.312-22.656-6.485-35.755-30.08-29.312-52.736 23.296-81.58 63.66-144.768 105.43-188.075 20.863-21.588 42.495-38.74 63.19-50.73 19.71-11.434 42.367-20.437 64.425-20.437 2.176 0 4.267.17 6.358.47 2.817-.043 5.718.042 8.577.298 49.237 4.48 89.3 34.39 109.525 74.924.94 1.323 1.835 2.73 2.645 4.224l52.438 96.64c12.117 22.272 33.45 38.016 58.282 42.965l47.872 9.6c23.125 4.608 38.1 27.094 33.45 50.176-4.608 23.125-27.093 38.1-50.176 33.493l-47.915-9.6c-41.217-8.235-77.61-31.318-102.657-64.384zM347.477 785.236l51.584-154.71 68.097 65.622-38.698 116.053c-5.207 15.616-14.807 29.397-27.65 39.637l-96.853 77.483c-18.39 14.72-45.226 11.733-59.946-6.656-14.72-18.39-11.733-45.27 6.657-59.99l96.81-77.44z"/></svg>