<svg viewBox="0 0 1024 1024" xmlns="http://www.w3.org/2000/svg"><path d="M426.667 170.496c0-47.02 38.186-85.163 85.333-85.163h426.667V298.24h-512zm426.666 0H512v42.58h341.333zM666.667 346.54c20.394-11.777 46.506-4.78 58.282 15.572l10.666 18.432c11.776 20.395 4.78 46.42-15.616 58.197-20.395 11.735-46.507 4.78-58.283-15.615l-10.666-18.432c-11.775-20.352-4.778-46.378 15.617-58.154zm-48 36.863c0-23.51-19.115-42.582-42.667-42.582-23.552 0-42.667 19.073-42.667 42.583v21.29c0 23.552 19.115 42.582 42.667 42.582 23.552 0 42.667-19.03 42.667-42.582v-21.29zm0 127.744c0-23.51-19.115-42.582-42.667-42.582-23.552 0-42.667 19.072-42.667 42.582v21.29c0 23.552 19.115 42.582 42.667 42.582 23.552 0 42.667-19.03 42.667-42.583v-21.29zm170.282-38.4c-11.777-20.352-37.89-27.35-58.283-15.574-20.395 11.776-27.392 37.803-15.616 58.155l10.667 18.432c11.776 20.395 37.888 27.35 58.283 15.616 20.395-11.776 27.392-37.803 15.616-58.197l-10.667-18.433zM480 346.54c-20.395-11.777-46.507-4.78-58.283 15.572l-10.666 18.432c-11.775 20.395-4.778 46.42 15.617 58.197 20.394 11.735 46.506 4.78 58.282-15.615l10.666-18.432c11.776-20.352 4.78-46.378-15.616-58.154zM357.717 472.746c11.776-20.352 37.888-27.35 58.283-15.574 20.395 11.776 27.392 37.803 15.616 58.155L420.95 533.76c-11.777 20.395-37.89 27.35-58.283 15.616-20.395-11.776-27.392-37.803-15.616-58.197l10.667-18.433zM149.333 575.02h85.334c25.045 0 46.72 14.377 57.258 35.284l36.864-22.06c15.487-9.3 33.578-13.44 51.626-11.775L590.08 595.5c12.63 1.108 24.96 4.607 36.31 10.28 31.402 15.703 52.266 46.252 55.765 80.64l112.128-37.29c26.24-8.703 54.912-6.698 79.658 5.675l8.193 4.096c51.798 25.815 69.163 91.095 37.035 139.18-10.54 15.787-25.515 28.075-43.05 35.37l-227.67 94.678c-13.227 5.504-27.563 8.875-42.453 9.515-21.462.853-65.366 2.176-97.92-.854-73.088-6.742-115.798-18.305-182.827-45.57-10.027-4.052-21.035-9.13-31.7-14.292-9.815 22.784-32.47 38.74-58.88 38.74h-85.335c-35.328 0-64-28.585-64-63.87V638.89c0-35.285 28.672-63.87 64-63.87zm448 121.64c0-6.228-3.54-11.903-9.088-14.72-1.834-.895-3.84-1.45-5.888-1.663l-209.664-19.03-74.026 44.332v78.335c2.176 1.152 4.48 2.39 6.87 3.626 16.767 8.748 36.607 18.604 51.882 24.833 60.244 24.49 94.76 33.707 158.505 39.595 26.198 2.432 64.896 1.45 86.528.555 4.267-.17 8.704-1.152 13.142-2.987l227.67-94.677c2.004-.812 3.71-2.22 4.906-4.012 3.627-5.46 1.665-12.843-4.223-15.787l-8.192-4.095c-4.48-2.26-9.728-2.602-14.507-1.024l-161.195 53.633c-8.704 2.902-17.792 4.352-26.965 4.352H448v-85.162h149.333zm-384-14.42v-22.06h-42.666v170.327h42.666z"/></svg>