<svg viewBox="0 0 1024 1024" xmlns="http://www.w3.org/2000/svg"><path d="M808.277 128c48.043 0 86.614 39.68 85.29 87.723l-16.596 597.333C875.69 859.22 837.89 896 791.68 896H232.32c-46.208 0-84.01-36.78-85.29-82.944L130.43 215.723C129.11 167.68 167.68 128 215.722 128zm0 85.333H736.64L706.26 471.51c-1.28 10.922-10.537 19.157-21.545 19.157-1.792 0-3.627-.214-5.376-.683-53.548-13.483-109.612-20.65-167.34-20.65-57.728 0-113.792 7.167-167.34 20.65-1.748.47-3.583.683-5.375.683-11.008 0-20.266-8.235-21.546-19.158l-30.38-258.177h-71.637l16.597 597.334h559.36zm-434.986 0l21.12 179.627c22.742-3.5 45.825-6.016 69.12-7.467l39.425-118.272c5.632-16.767 23.722-25.855 40.49-20.265s25.814 23.722 20.267 40.49l-32.3 96.81c33.28.812 66.05 3.756 98.177 8.705l21.12-179.627z"/></svg>