<svg viewBox="0 0 1024 1024" xmlns="http://www.w3.org/2000/svg"><path d="M128 213.333V128h176.896l36.437 174.805v-4.138h341.334c23.552 0 42.666 19.114 42.666 42.666 0 23.552-19.114 42.667-42.666 42.667H358.23l9.514 45.653c12.245-1.962 24.79-2.986 37.59-2.986 72.874 0 137.983 33.194 181.034 85.333h136.107c47.146 0 85.333 38.187 85.333 85.333v213.334h2.86c23.55 0 42.665 19.114 42.665 42.666 0 23.552-19.114 42.667-42.666 42.667h-24.192c-35.328 0-64-28.672-64-64V597.333h-91.307c5.76 20.352 8.832 41.814 8.832 64C640 790.955 534.955 896 405.333 896c-129.62 0-234.666-105.045-234.666-234.667 0-86.314 46.592-161.75 116.01-202.496L235.52 213.333zm426.667 448c0-82.474-66.86-149.333-149.334-149.333S256 578.86 256 661.333c0 82.475 66.86 149.334 149.333 149.334 82.475 0 149.334-66.86 149.334-149.334z"/></svg>