<svg viewBox="0 0 1024 1024" xmlns="http://www.w3.org/2000/svg"><path d="M674.133 189.867c0 47.146-38.23 85.333-85.333 85.333-47.147 0-85.333-38.187-85.333-85.333 0-47.147 38.186-85.334 85.333-85.334 47.104 0 85.333 38.187 85.333 85.334zm-320 178.56V492.8c9.174-45.184 26.155-98.773 45.056-139.563 6.186-13.354 12.97-26.112 20.18-37.248 6.913-10.625 15.83-22.187 26.966-30.763 11.05-8.49 31.317-18.987 55.51-11.008 14.933 4.948 24.96 15.017 31.743 25 4.693 3.244 8.66 6.615 11.69 9.26 7.51 6.613 15.403 14.677 23.125 23.125 15.488 16.94 32.512 37.888 48.043 57.856 15.66 20.055 30.208 39.724 40.875 54.316 3.328 4.565 6.272 8.62 8.746 12.075l134.954 38.57c22.7 6.487 35.797 30.08 29.312 52.737-6.443 22.656-30.08 35.798-52.736 29.312l-146.005-41.73c-9.174-1.492-16.598-5.033-20.395-6.91-6.315-3.2-12.672-7.254-18.39-11.137-10.623-7.296-22.527-16.597-33.79-25.514-.13 2.217-.343 4.393-.47 6.484-1.025 12.544-2.05 23.21-2.86 30.763-.383 3.754-.725 6.784-.938 8.874l-.085.64v1.153l26.282 26.283 157.61 91.904 69.333 183.04c8.363 22.06-2.73 46.677-24.79 55.04-22.015 8.32-46.634-2.773-54.996-24.79l-53.76-141.866-5.93-.085c-13.612-.13-30.806-.172-50.945 0-11.22 107.263-101.93 190.847-212.14 190.847-117.8 0-213.332-95.53-213.332-213.334 0-65.92 29.867-124.8 76.8-163.925v-138.41l-51.5-51.5 60.332-60.373zm179.2 337.706c0-70.698-57.3-128-128-128-70.698 0-128 57.302-128 128 0 70.656 57.302 128 128 128 70.7 0 128-57.344 128-128zM650.496 452.01s-.256-.17-.725-.34c.513.255.726.34.726.34z"/></svg>