<svg viewBox="0 0 1024 1024" xmlns="http://www.w3.org/2000/svg"><path d="M618.667 192c0 58.923-47.744 106.667-106.667 106.667S405.333 250.923 405.333 192 453.077 85.333 512 85.333 618.667 133.077 618.667 192zM357.76 426.58c-.34.13-1.45.684-3.243 2.263-4.736 4.053-11.35 12.544-18.773 27.733-14.848 30.25-27.392 75.264-37.888 127.787-4.65 23.125-27.136 38.1-50.22 33.493-23.124-4.65-38.1-27.136-33.492-50.22 10.837-54.143 25.088-108.116 44.97-148.65 9.942-20.223 22.657-40.063 39.595-54.698 17.28-14.933 39.765-24.96 66.047-22.74h125.91c3.67 0 7.253.425 10.666 1.32 3.414-.895 6.998-1.32 10.667-1.32h125.91c26.282-2.22 48.767 7.807 66.047 22.74 16.94 14.635 29.654 34.475 39.595 54.7 19.883 40.532 34.133 94.505 44.928 148.65 4.65 23.082-10.325 45.567-33.45 50.218-23.126 4.608-45.57-10.368-50.22-33.493-10.495-52.523-23.04-97.536-37.887-127.787-7.424-15.19-14.038-23.68-18.774-27.733-1.793-1.58-2.902-2.134-3.243-2.262l-2.432.3h-8.534l76.844 322.645c-72.192 23.638-133.12 34.816-194.176 34.73-62.677-.084-127.19-12.074-205.867-36.906l61.015-320.47h-11.563l-2.432-.3zm9.557 402.903l-4.565 63.488c-1.664 23.51 16.043 43.905 39.552 45.57 23.51 1.705 43.904-16 45.568-39.51l3.925-54.53c-27.477-3.113-55.424-8.148-84.48-15.017zm204.97 16.085l3.798 53.46c1.707 23.51 22.102 41.217 45.61 39.51 23.51-1.663 41.217-22.058 39.51-45.567l-4.394-61.695c-28.8 6.784-56.746 11.562-84.522 14.293z"/></svg>