<svg viewBox="0 0 1024 1024" xmlns="http://www.w3.org/2000/svg"><path d="M661.333 477.867c35.328 0 64-28.63 64-64 0-35.328-28.672-64-64-64s-64 28.672-64 64c0 35.37 28.672 64 64 64zm-251.52-75.734c7.126-10.112 10.795-21.077 11.82-26.325l83.754 16.384c-3.115 15.957-11.136 38.23-25.686 58.965-14.804 21.078-38.228 43.136-72.532 52.31-34.26 9.173-65.58 1.834-88.917-9.046-22.997-10.708-41.087-25.983-51.754-38.228l64.34-56.064c3.5 4.053 12.16 11.69 23.383 16.94 10.836 5.033 21.204 6.57 30.89 3.967 9.642-2.603 17.834-9.088 24.703-18.902zM371.5 670.165c11.52-11.52 31.615-19.498 55.167-19.498 23.552 0 43.648 7.978 55.168 19.498 28.117 28.118 67.67 47.19 105.173 56.576 36.18 9.047 80.17 11.393 114.73-5.93 21.078-10.495 29.61-36.138 19.073-57.215-10.538-21.078-36.138-29.61-57.215-19.072-8.107 4.01-28.118 6.357-55.894-.598-26.537-6.613-50.985-19.54-65.535-34.09-31.146-31.147-75.05-44.502-115.498-44.502-40.448 0-84.352 13.355-115.5 44.502-16.682 16.64-16.682 43.69 0 60.33 16.64 16.683 43.692 16.683 60.332 0zM512 85.333c235.648 0 426.667 191.02 426.667 426.667 0 235.648-191.02 426.667-426.667 426.667-235.648 0-426.667-191.02-426.667-426.667 0-235.648 191.02-426.667 426.667-426.667zM170.667 512c0 188.5 152.832 341.333 341.333 341.333 188.5 0 341.333-152.832 341.333-341.333 0-188.5-152.832-341.333-341.333-341.333-188.5 0-341.333 152.832-341.333 341.333z"/></svg>