<svg viewBox="0 0 1024 1024" xmlns="http://www.w3.org/2000/svg"><path d="M597.333 170.667C597.333 217.813 559.147 256 512 256s-85.333-38.187-85.333-85.333c0-47.147 38.186-85.334 85.333-85.334s85.333 38.187 85.333 85.334zM384 725.333V896c0 23.552 19.115 42.667 42.667 42.667 23.552 0 42.666-19.115 42.666-42.667V725.333H384zm170.667 0V896c0 23.552 19.114 42.667 42.666 42.667C620.885 938.667 640 919.552 640 896V725.333h-85.333zm-341.334-384c0-23.552 19.115-42.666 42.667-42.666h512c23.552 0 42.667 19.114 42.667 42.666V640c0 23.552-19.115 42.667-42.667 42.667H256c-23.552 0-42.667-19.115-42.667-42.667zM544 568.49v50.177h202.667v-256H544v38.954c24.448 2.56 48.47 8.15 67.627 17.75 15.83 7.894 22.23 27.137 14.336 42.923-7.894 15.83-27.136 22.23-42.923 14.336-9.344-4.65-22.997-8.406-39.04-10.54v37.505c32.555 4.608 64.213 16.34 92.416 35.114 14.72 9.813 18.688 29.653 8.875 44.373-9.813 14.72-29.653 18.688-44.373 8.874C583.467 580.31 564.053 572.5 544 568.49zm-266.667 50.177H480V568.49c-20.053 4.01-39.467 11.82-56.917 23.467-14.72 9.814-34.56 5.846-44.374-8.874s-5.846-34.56 8.874-44.374c28.203-18.774 59.86-30.507 92.416-35.115V466.09c-16.043 2.134-29.696 5.89-39.04 10.54-15.787 7.893-35.03 1.493-42.923-14.337-7.893-15.786-1.493-35.03 14.336-42.922 19.158-9.6 43.18-15.19 67.627-17.75v-38.953H277.333z"/></svg>