<svg xmlns="http://www.w3.org/2000/svg" width="325" height="254" fill="none" xmlns:v="https://vecta.io/nano"><path d="M237.01 39.76l-3.32-3.31-3.15 3.16-3.16-3.16-3.31 3.31 3.16 3.16-3.16 3.16 3.31 3.31 3.16-3.16 3.15 3.16 3.32-3.31-3.16-3.16 3.16-3.16zM34.7 158.97l-3.32-3.31-3.15 3.16-3.16-3.16-3.31 3.31 3.15 3.16-3.15 3.16 3.31 3.31 3.16-3.16 3.15 3.16 3.32-3.31-3.16-3.16 3.16-3.16zM94.911 17.84l-3.31-3.31-3.15 3.16-3.16-3.16-3.31 3.31 3.15 3.16-3.15 3.16 3.31 3.31 3.16-3.16 3.15 3.16 3.31-3.31-3.15-3.16 3.15-3.16zM303.01 183.26l-3.31-3.32-3.16 3.16-3.15-3.16-3.32 3.32 3.16 3.15-3.16 3.16 3.32 3.31 3.15-3.15 3.16 3.15 3.31-3.31-3.15-3.16 3.15-3.15zM34.699 54.22a4.83 4.83 0 0 1-3.415-8.246 4.83 4.83 0 0 1 8.246 3.415 4.84 4.84 0 0 1-4.83 4.83zm0-7.66a2.83 2.83 0 0 0-2.001 4.831 2.83 2.83 0 0 0 4.831-2.001 2.84 2.84 0 0 0-2.83-2.83zm140.41-36.23a4.83 4.83 0 0 1-2.683-.814c-.794-.531-1.413-1.285-1.779-2.168a4.83 4.83 0 0 1 6.311-6.311 4.83 4.83 0 0 1 2.981 4.462 4.84 4.84 0 0 1-1.417 3.412c-.906.905-2.133 1.415-3.413 1.418zm0-7.66a2.83 2.83 0 0 0-2.614 1.747c-.214.517-.271 1.086-.161 1.635s.378 1.053.774 1.449a2.83 2.83 0 0 0 4.831-2.002c-.002-.75-.301-1.468-.831-1.998s-1.249-.829-1.999-.832zm135.51 75.38a4.84 4.84 0 0 1-4.471-2.988 4.84 4.84 0 0 1 6.323-6.324 4.84 4.84 0 0 1 2.173 1.783c.531.796.815 1.732.815 2.689a4.84 4.84 0 0 1-4.84 4.84zm0-7.67c-.562 0-1.111.167-1.579.479s-.831.757-1.046 1.276a2.84 2.84 0 0 0-.159 1.642 2.83 2.83 0 0 0 .78 1.454 2.84 2.84 0 0 0 4.37-.441 2.84 2.84 0 0 0 .474-1.581c0-.372-.073-.741-.216-1.085a2.83 2.83 0 0 0-1.538-1.532c-.344-.142-.713-.214-1.086-.213zM249 157.82a4.83 4.83 0 0 1-4.479-2.983c-.368-.885-.465-1.859-.278-2.799s.648-1.803 1.325-2.48a4.84 4.84 0 0 1 5.279-1.048c.885.368 1.641.99 2.172 1.787a4.84 4.84 0 0 1 .811 2.693c-.002 1.28-.512 2.507-1.417 3.412A4.84 4.84 0 0 1 249 157.82zm0-7.67c-.562-.002-1.112.163-1.58.474s-.834.753-1.051 1.272a2.84 2.84 0 0 0 2.064 3.879 2.85 2.85 0 0 0 1.642-.16c.519-.215.964-.579 1.276-1.046s.479-1.017.479-1.579a2.84 2.84 0 0 0-2.83-2.84zM82 219c-.958.002-1.895-.28-2.693-.812a4.84 4.84 0 0 1-2.065-4.97c.186-.94.648-1.803 1.325-2.48a4.84 4.84 0 0 1 5.28-1.048c.885.368 1.641.99 2.172 1.787A4.84 4.84 0 0 1 82 219zm0-7.67a2.84 2.84 0 0 0-2.797 3.388 2.84 2.84 0 0 0 2.229 2.237 2.85 2.85 0 0 0 1.642-.16 2.84 2.84 0 0 0 1.755-2.625c.005-.375-.064-.748-.204-1.097a2.85 2.85 0 0 0-.61-.934c-.263-.267-.577-.48-.923-.626A2.83 2.83 0 0 0 82 211.29v.04zm8.881-150a8.99 8.99 0 1 0 0-17.98 8.99 8.99 0 0 0 0 17.98zm4.469 99.01a4.52 4.52 0 1 0 0-9.04 4.52 4.52 0 0 0 0 9.04zm229.151-19.09c0 .894-.265 1.768-.762 2.511a4.52 4.52 0 0 1-2.028 1.665c-.826.342-1.735.432-2.612.257s-1.682-.605-2.314-1.237-1.063-1.437-1.237-2.314-.085-1.786.257-2.612a4.51 4.51 0 0 1 1.665-2.028c.743-.497 1.617-.762 2.511-.762a4.52 4.52 0 0 1 4.52 4.52zM9.271 83.35a4.52 4.52 0 0 1-7.716 3.196 4.52 4.52 0 0 1 3.196-7.716 4.52 4.52 0 0 1 4.52 4.52zm225.789 0c0 .894-.266 1.768-.762 2.511a4.52 4.52 0 0 1-4.64 1.922c-.877-.174-1.682-.605-2.315-1.237s-1.062-1.437-1.237-2.314a4.51 4.51 0 0 1 .258-2.612 4.52 4.52 0 0 1 4.175-2.79 4.52 4.52 0 0 1 3.197 1.324c.847.848 1.324 1.997 1.324 3.196zm-13.94 132.74a6.8 6.8 0 1 0 0-13.6 6.8 6.8 0 0 0 0 13.6z" fill="#159f9b"/><path d="M50.58 153.36v-21.07H9.27v-16.83l47.38-60.82h12.88v60.68H82v17H69.53v21.07l-18.95-.03zm-22.35-38h24.46v-32l-24.46 32zm243.09 38v-21.07H230v-16.83l47.38-60.82h12.88v60.68h12.45v17h-12.45v21.07l-18.94-.03zm-22.34-38h24.46v-32l-24.46 32z" fill="#fff"/><path opacity=".15" d="M230.58 160l.37-.34a1.38 1.38 0 0 0 .319-.431 1.36 1.36 0 0 0 .129-.52 1.38 1.38 0 0 0-.08-.53c-.062-.17-.156-.326-.278-.459l-7.58-8.29a61.69 61.69 0 0 0 13.171-42.959c-1.166-15.467-8.115-29.926-19.464-40.499a61.69 61.69 0 0 0-83.694-.377 61.69 61.69 0 0 0-19.828 40.322c-1.306 15.455 3.258 30.835 12.783 43.076a61.69 61.69 0 0 0 38.614 22.979c15.302 2.532 30.997-.792 43.958-9.311l7.59 8.28a1.35 1.35 0 0 0 .428.318c.163.077.339.121.518.129s.359-.019.528-.08.324-.155.456-.277l.38-.34 56.21 61.42h21.39L230.58 160z" fill="#212121"/><path d="M303.35 239.58L211.77 148 200 159.77l91.59 91.58c.814.814 1.788 1.45 2.86 1.869a8.34 8.34 0 0 0 6.682-.273 8.35 8.35 0 0 0 2.698-2.096 8.33 8.33 0 0 0-.48-11.27z" fill="#424242"/><path d="M191.5 154.08l11.06 11.06a1.45 1.45 0 0 0 2 0l12.54-12.54a1.45 1.45 0 0 0 0-2l-11.02-11.1-14.58 14.58z" fill="#e0e0e0"/><path d="M207.83 141.25l1.41 1.41-11.85 17.31-5.21-5.21 15.65-13.51z" fill="#bdbdbd"/><path opacity=".64" d="M204.99 164.76l11.77-11.77.8.8-9.2 14.34-3.37-3.37z" fill="#212121"/><path d="M156.001 38.88a65.12 65.12 0 0 0-60.163 40.2 65.12 65.12 0 0 0 14.116 70.967c9.107 9.107 20.711 15.309 33.343 17.822a65.12 65.12 0 0 0 66.849-27.69c7.156-10.709 10.975-23.299 10.975-36.179a65.13 65.13 0 0 0-65.12-65.12zm0 116.78c-10.218 0-20.205-3.03-28.701-8.706s-15.117-13.745-19.027-23.185a51.65 51.65 0 0 1-2.939-29.847c1.993-10.021 6.913-19.226 14.138-26.451a51.66 51.66 0 0 1 26.451-14.138c10.021-1.993 20.408-.97 29.847 2.94s17.508 10.531 23.185 19.027 8.706 18.483 8.706 28.701a51.66 51.66 0 0 1-51.66 51.66z" fill="#f5f5f5"/><path opacity=".8" d="M156 155.66c28.531 0 51.66-23.129 51.66-51.66S184.531 52.34 156 52.34 104.34 75.469 104.34 104s23.129 51.66 51.66 51.66z" fill="#1dbab5"/><path d="M121.71 69.71c-7.47 7.47-12 15.1-10 17s9.56-2.56 17-10 12-15.1 10-17-9.53 2.53-17 10z" fill="#fff"/></svg>