<svg width="1296" height="351" viewBox="0 0 1296 351" fill="none" xmlns="http://www.w3.org/2000/svg">
<g clip-path="url(#clip0_10_2)">
<mask id="mask0_10_2" style="mask-type:luminance" maskUnits="userSpaceOnUse" x="0" y="0" width="1296" height="351">
<path d="M32 0H1264C1281.67 0 1296 14.3269 1296 32V319C1296 336.673 1281.67 351 1264 351H32C14.3269 351 0 336.673 0 319V32C0 14.3269 14.3269 0 32 0Z" fill="white"/>
</mask>
<g mask="url(#mask0_10_2)">
<path d="M356.112 379.084L351.997 377.31L356.585 380.059L361.483 382.56L356.112 379.084ZM782.5 93.388L784.274 84.363L784.903 73.875L783.458 84.389L782.5 93.387V93.388ZM780.366 103.409L781.034 100.509L781.412 96.983L780.366 103.409ZM335.975 368.404L331.086 366.436L336.889 369.622L340.696 371.396L335.975 368.404ZM345.609 372.046L339.419 369.708L347.028 374.331L352.44 376.696L345.609 372.043V372.046ZM779.825 115.049C780.786 111.798 781.679 108.366 782.61 105.032L783.966 89.543L781.729 100.607L779.825 115.046V115.049ZM776.367 126.039L778.566 119.055L780.177 107.331L778.655 113.935L776.367 126.036V126.039ZM773.91 133.837L774.469 132.064L774.702 130.881L773.91 133.834V133.837ZM305.697 354.739L304.864 354.426L306.691 355.262L305.697 354.739ZM315.328 358.174L310.749 356.575L316.088 359.383L321.311 361.65L315.328 358.174ZM325.083 361.508L318.999 359.46L326.247 363.669L332.585 366.261L325.086 361.508H325.083ZM334.787 364.624L327.873 362.404L336.345 367.763L343.026 370.287L334.79 364.624H334.787ZM777.268 133.615L780.898 124.331L782.27 108.845L779.255 119.176L777.271 133.615H777.268ZM772.808 144.168L776.216 136.101C776.857 131.925 777.419 127.529 777.989 123.172L775.152 132.185L772.811 144.168H772.808ZM768.288 154.857C769.37 152.418 770.404 149.832 771.472 147.328C772.101 144.387 772.675 141.277 773.245 138.206L770.585 146.154L768.291 154.857H768.288ZM765.01 161.909L766.488 158.738C766.899 157.313 767.292 155.832 767.67 154.363L765.013 161.909H765.01ZM285.64 346.081L284.51 345.729L286.8 346.654L285.64 346.081ZM295.43 349.123L290 347.438L296.374 350.462L300.962 352.191L295.43 349.123ZM304.92 351.851L298.553 350.03L306.091 354.124L312.298 356.353L304.92 351.851ZM314.456 354.458L307.551 352.605L315.721 357.553L322.878 360.042L314.471 354.458H314.456ZM323.983 356.929L316.643 355.029L325.452 360.87L332.86 363.234L323.983 356.929ZM774.315 151.788L778.693 143.692L780.673 126.87L776.905 136.261L774.315 151.797V151.788ZM768.994 161.203L773.286 153.612L775.817 138.833L772.157 147.488L768.991 161.212L768.994 161.203ZM763.6 170.559L767.759 163.39L770.605 151.171L767.174 158.948L763.597 170.567L763.6 170.559ZM758.575 178.702L762.122 172.947L765.016 163.538L762.429 169.057C761.176 172.368 759.857 175.477 758.578 178.711L758.575 178.702ZM754.356 185.542L756.426 182.205L757.546 179.406C756.497 181.522 755.412 183.479 754.359 185.551L754.356 185.542ZM265.53 338.431L263.87 338L267.3 339.223L265.53 338.431ZM275.19 340.858L269.91 339.572L276.07 342.209L281.45 344.009L275.19 340.858ZM284.81 343.137L278.08 341.547L285.97 345.446L292.39 347.441L284.81 343.137ZM294.24 345.206L287.09 343.648L295.78 348.508L302.656 350.482L294.24 345.194V345.206ZM303.616 347.101L296.283 345.652L305.289 351.236L312.638 353.264L303.616 347.089V347.101ZM312.972 348.874L305.402 347.453L314.825 353.837L322.39 355.806L312.972 348.86V348.874ZM771.392 168.859L776.5 161.995C777.218 156.731 777.821 151.162 778.457 145.681L773.966 153.84L771.392 168.847V168.859ZM765.376 176.757L770.464 170.08C771.35 165.436 772.122 160.505 772.935 155.667L768.43 163.648L765.376 176.745V176.757ZM759.325 184.469L764.312 178.152C765.32 174.179 766.245 169.967 767.194 165.823L762.781 173.237L759.325 184.457V184.469ZM753.381 191.708L758.075 185.994C759.186 182.639 760.245 179.116 761.309 175.622L757.061 182.515L753.381 191.696V191.708ZM747.51 198.802L751.746 193.715C752.816 191.214 753.857 188.631 754.9 186.03L751.09 191.885L747.522 198.776L747.51 198.802ZM743.056 203.827L745.326 201.265L747.652 196.996L743.056 203.807V203.827ZM246.02 332.129L243.6 331.653L248.52 333.078L246.02 332.129ZM255.37 333.82L249.86 332.827L256.09 335.191L261.78 336.717L255.37 333.82ZM264.73 335.407L258.23 334.334L265.83 337.778L272.63 339.516L264.73 335.416V335.407ZM274.07 336.885L266.98 335.78L275.5 340.214L282.78 341.958L274.07 336.891V336.885ZM283.4 338.254L275.97 337.181L285.12 342.501L292.55 344.118L283.4 338.254ZM292.62 339.436L285.07 338.484L294.59 344.568L302.183 346.111L292.62 339.436ZM301.807 340.509L294.12 339.622L303.971 346.456L311.731 347.934L301.807 340.494V340.509ZM767.966 185.672L773.756 180.139L776.328 163.45C774.614 165.814 772.87 168.043 771.14 170.349L767.963 185.657L767.966 185.672ZM761.25 192.06L767.052 186.541L770.171 171.62L764.977 178.418C763.78 183.083 762.488 187.502 761.247 192.045L761.25 192.06ZM754.528 198.211L760.248 193.012L763.821 179.952L758.716 186.317L754.525 198.196L754.528 198.211ZM747.818 204.194L753.434 199.169L757.401 187.898L752.376 194.02L747.818 204.194ZM741.134 210.008L746.52 205.353L750.658 196.118L745.929 201.625L741.119 210.008H741.134ZM734.806 215.299L739.574 211.315L743.632 204.221L739.568 208.814L734.791 215.287L734.806 215.299ZM729.396 219.819C730.448 218.965 731.495 218.045 732.547 217.185L734.646 214.33C732.893 216.216 731.128 217.977 729.381 219.819H729.396ZM235.95 328.139L230.09 327.521L236.76 329.59L242.31 330.684L235.95 328.139ZM245.11 328.987L238.39 328.366L246.25 331.47L252.86 332.673L245.12 328.987H245.11ZM254.28 329.744L247.16 329.176L255.63 333.173L262.84 334.408L254.28 329.744ZM263.41 330.415L256.03 329.883L265.02 334.76L272.57 335.972L263.42 330.415H263.41ZM272.53 331.006L264.96 330.521L274.37 336.241L282.05 337.352L272.53 331V331.006ZM281.57 331.473L273.94 331.077L283.71 337.58L291.44 338.567L281.58 331.455L281.57 331.473ZM290.58 331.845L282.91 331.55L292.94 338.777L300.752 339.699L290.58 331.839V331.845ZM764.637 201.587L771.07 197.354C771.974 192.187 772.751 186.668 773.576 181.283C771.628 183.189 769.665 184.986 767.712 186.857L764.637 201.587ZM757.303 206.42L763.745 202.184C764.821 197.534 765.79 192.586 766.798 187.738L760.886 193.355L757.303 206.42ZM749.979 211.052L756.343 207.052C757.57 202.941 758.708 198.59 759.89 194.309L754.046 199.571L749.979 211.04V211.052ZM742.636 215.63L748.947 211.696C750.318 208.09 751.625 204.306 752.946 200.549L747.102 205.764L742.636 215.619V215.63ZM735.335 220.064L741.468 216.366C742.946 213.304 744.368 210.112 745.805 206.931L740.123 211.773L735.335 220.044V220.064ZM728.166 224.3L733.993 220.859C735.533 218.326 737.046 215.704 738.563 213.076L733.064 217.67L728.166 224.279V224.3ZM721.27 228.294L726.446 225.284L730.806 219.529L725.89 223.464L721.27 228.294ZM715.825 231.335L718.882 229.627L722.047 226.47L715.825 231.344V231.335ZM243.68 323.805L236.29 323.888L245.35 328.322L252.79 328.943L243.68 323.805ZM252.61 323.657L245.08 323.79L254.53 329.07L262.14 329.637L252.61 323.657ZM261.53 323.456L253.9 323.631L263.68 329.738L271.4 330.243L261.53 323.456ZM270.44 323.202L262.75 323.424L272.82 330.32L280.55 330.719L270.43 323.202H270.44ZM279.3 322.874L271.6 323.17L281.89 330.796L289.65 331.115L279.29 322.883L279.3 322.874ZM760.735 217.197L767.809 214.262L770.895 198.3L764.392 202.574C763.218 207.602 761.953 212.332 760.727 217.197H760.735ZM752.825 220.481L759.899 217.546L763.502 203.171L756.975 207.463L752.816 220.481H752.825ZM744.93 223.638L751.95 220.839L756.015 208.096L749.547 212.134L744.921 223.638H744.93ZM737.017 226.792L744.007 224.004L748.515 212.772L742.042 216.81L737.008 226.792H737.017ZM729.142 229.842L736.014 227.182L740.874 217.534L734.528 221.326L729.133 229.842H729.142ZM721.306 232.84L728.03 230.268L733.183 222.13L726.94 225.816L721.297 232.84H721.306ZM713.593 235.737L719.999 233.339L725.222 226.836L719.31 230.197L713.584 235.737H713.593ZM706.277 238.423L711.968 236.334L716.94 231.524L711.731 234.433L706.268 238.423H706.277ZM700.333 240.602L703.901 239.293L706.73 237.223L700.324 240.602H700.333ZM241.68 316.625L234.12 317.474L243.87 323.108L251.53 322.983L241.68 316.625ZM250.41 315.629L242.78 316.516L252.83 322.972L260.57 322.803L250.41 315.629ZM259.13 314.621L251.46 315.508L261.78 322.756L269.54 322.534L259.13 314.621ZM267.85 313.595L260.16 314.503L270.71 322.484L278.48 322.188L267.85 313.595ZM756.893 232.136L764.537 230.522C765.631 225.539 766.627 220.28 767.643 215.086L760.517 218.042L756.893 232.136ZM748.441 233.91L756.068 232.305C757.324 227.809 758.492 223.07 759.677 218.385L752.538 221.341L748.441 233.91ZM740.005 235.66L747.593 234.084C748.994 230.079 750.324 225.867 751.669 221.696L744.575 224.528L740.005 235.663V235.66ZM731.575 237.41L739.121 235.843C740.661 232.296 742.145 228.583 743.641 224.906L736.547 227.738L731.575 237.413V237.41ZM723.177 239.124L730.635 237.602C732.293 234.531 733.91 231.32 735.533 228.143L728.509 230.839L723.177 239.127V239.124ZM714.814 240.83L722.157 239.334C723.93 236.706 725.66 233.975 727.398 231.249L720.434 233.91L714.814 240.833V240.83ZM706.537 242.5L713.667 241.063C715.5 238.899 717.312 236.656 719.127 234.412L712.346 236.931L706.537 242.503V242.5ZM698.438 244.123L705.178 242.772L710.723 237.528L704.22 239.91L698.453 244.125L698.438 244.123ZM690.735 245.66L696.682 244.477L701.855 240.782L696.05 242.851L690.735 245.663V245.66ZM684.672 246.842L688.181 246.15L691.586 244.412L684.672 246.857V246.842ZM239.16 307.512L231.59 309.105L241.87 315.904L249.56 315.017L239.16 307.512ZM247.71 305.739L240.1 307.314L250.62 314.902L258.35 314.015L247.71 305.739ZM256.26 303.995L248.62 305.555L259.36 313.891L267.1 312.981L256.26 303.998V303.995ZM752.595 246.594L760.806 246.298L764.353 231.276L756.668 232.899L752.595 246.597V246.594ZM743.629 246.939L751.811 246.62L755.843 233.064L748.158 234.681C746.686 238.879 745.157 242.89 743.629 246.942V246.939ZM734.681 247.321L742.834 246.972L747.309 234.853L739.644 236.44C738.019 240.165 736.346 243.729 734.681 247.324V247.321ZM725.766 247.702L733.863 247.356L738.761 236.629L731.119 238.214C729.358 241.456 727.557 244.566 725.766 247.705V247.702ZM716.869 248.134L724.915 247.744L730.179 238.409L722.594 239.955C720.703 242.745 718.781 245.438 716.869 248.137V248.134ZM708.024 248.565L715.961 248.178L721.577 240.165L714.055 241.696L708.024 248.568V248.565ZM699.236 249.026L707.04 248.613L712.905 241.932L705.515 243.41L699.236 249.029V249.026ZM690.554 249.499L698.113 249.088L704.152 243.688L696.96 245.13L690.554 249.502V249.499ZM682.086 249.975L689.209 249.57L695.204 245.482L688.405 246.83L682.086 249.978V249.975ZM674.075 250.457L680.309 250.082L685.819 247.339L679.86 248.521L674.075 250.463V250.457ZM668.024 250.821L671.412 250.617L674.592 249.547L668.024 250.824V250.821ZM236.19 296.558L228.66 298.837L239.35 306.764L247 305.177L236.19 296.558ZM244.59 294.089L237.02 296.309L247.91 304.991L255.6 303.427L244.59 294.089ZM748.243 260.513L756.955 261.5C758.226 256.789 759.438 251.9 760.638 246.984L752.385 247.279L748.243 260.513ZM738.784 259.499L747.46 260.427L751.598 247.318L743.366 247.637L738.799 259.511L738.784 259.499ZM729.366 258.556L738.007 259.419C739.559 255.612 741.057 251.642 742.556 247.673L734.341 248.024L729.381 258.568L729.366 258.556ZM720.008 257.628L728.58 258.476C730.256 255.095 731.891 251.577 733.526 248.06L725.352 248.409L720.032 257.64L720.008 257.628ZM710.652 256.809L719.189 257.554C720.98 254.598 722.736 251.524 724.51 248.45L716.363 248.846L710.667 256.821L710.652 256.809ZM701.382 255.999L709.798 256.735C711.696 254.187 713.57 251.539 715.441 248.89L707.371 249.284L701.409 256.011L701.382 255.999ZM692.142 255.284L700.472 255.92C702.455 253.779 704.421 251.554 706.384 249.331L698.388 249.759C696.325 251.645 694.249 253.508 692.157 255.296L692.142 255.284ZM683.005 254.604L691.125 255.195C693.194 253.445 695.225 251.625 697.267 249.807L689.431 250.235L683.02 254.616L683.005 254.604ZM674.001 253.983L681.837 254.516L688.083 250.318L680.48 250.759L674.016 254.01L674.001 253.983ZM665.168 253.44L672.558 253.892L678.71 250.865L671.542 251.296L665.183 253.451L665.168 253.44ZM657.013 252.937L663.277 253.324L668.875 251.456L662.668 251.843L657.013 252.937ZM650.729 252.641L654.069 252.801L657.09 252.21L650.743 252.644L650.729 252.641ZM743.546 273.924L752.757 276.171L756.754 262.177L748.004 261.187L743.552 273.936L743.546 273.924ZM733.629 271.627L742.793 273.756L747.227 261.113L738.503 260.182C736.919 264.087 735.281 267.87 733.629 271.627ZM723.756 269.399L732.884 271.468L737.726 260.111L729.029 259.239C727.306 262.7 725.536 266.052 723.765 269.399H723.756ZM713.954 267.226L723.011 269.23L728.237 259.15L719.594 258.302C717.744 261.347 715.852 264.285 713.963 267.226H713.954ZM704.167 265.195L713.188 267.066L718.775 258.228L710.153 257.477C708.181 260.108 706.177 262.644 704.176 265.195H704.167ZM694.489 263.188L703.38 265.03L709.292 257.4L700.767 256.656L694.498 263.188H694.489ZM684.817 261.335L693.667 263.017L699.857 256.576L691.37 255.934L684.826 261.335H684.817ZM675.272 259.532L683.915 261.163L690.353 255.86L682.026 255.24L675.281 259.532H675.272ZM665.813 257.835L674.258 259.34L680.85 255.154L672.683 254.61L665.834 257.835H665.813ZM656.496 256.248L664.61 257.628L671.234 254.521L663.365 254.037L656.516 256.248H656.496ZM647.586 254.746L655.009 255.993L661.456 253.924L654.125 253.511L647.586 254.746ZM639.041 253.448L645.505 254.43L651.142 253.36L644.689 253.046L639.061 253.448H639.041ZM632.892 252.517L635.913 252.975L638.869 252.763L632.913 252.532L632.892 252.517ZM738.666 286.847L748.294 290.306L752.55 276.853L743.301 274.598L738.687 286.847H738.666ZM728.32 283.318L737.933 286.57C739.509 282.603 741.051 278.546 742.559 274.4L733.333 272.266C731.735 275.979 730.072 279.664 728.344 283.318H728.32ZM718.054 279.86L727.59 283.073L732.591 272.112L723.41 270.043C721.666 273.368 719.89 276.664 718.078 279.86H718.054ZM707.856 276.508L717.315 279.614C719.118 276.443 720.892 273.176 722.636 269.86L713.514 267.847C711.681 270.785 709.795 273.696 707.879 276.508H707.856ZM697.687 273.309L707.114 276.265C709.02 273.475 710.9 270.593 712.775 267.693L703.676 265.804L697.711 273.309H697.687ZM687.637 270.155L696.916 273.073C698.92 270.658 700.897 268.157 702.875 265.645L693.889 263.779L687.675 270.155H687.637ZM677.587 267.199L686.862 269.907C688.949 267.859 691.001 265.73 693.07 263.599L684.093 261.902L677.61 267.208L677.587 267.199ZM667.681 264.311L676.744 266.954L683.2 261.734L674.397 260.067L667.711 264.32L667.681 264.311ZM657.832 261.568L666.762 264.042L673.395 259.878L664.704 258.343L657.855 261.577L657.832 261.568ZM648.077 258.946L656.768 261.282L663.507 258.139L655.065 256.7L648.095 258.955L648.077 258.946ZM638.618 256.443L646.835 258.612L653.581 256.446L645.532 255.127L638.618 256.443ZM629.239 254.143L636.986 256.041L643.454 254.814L635.895 253.667L629.25 254.152L629.239 254.143ZM620.823 252.074L627.03 253.596L632.762 253.185L626.85 252.299L620.835 252.089L620.823 252.074ZM615.124 250.759L617.518 251.291L619.705 251.367L615.124 250.759ZM733.602 299.277L743.673 303.921C745.193 299.747 746.629 295.349 748.09 290.98L738.421 287.507L733.602 299.262V299.277ZM722.828 294.577L732.878 298.964C734.519 295.171 736.103 291.222 737.682 287.246L728.024 283.962L722.828 294.562V294.577ZM712.163 289.927L722.124 294.27C723.88 290.841 725.598 287.303 727.306 283.717L717.717 280.486L712.163 289.913V289.927ZM701.554 285.446L711.465 289.626L716.99 280.241L707.454 277.119L701.554 285.432V285.446ZM691.01 281.119L700.85 285.157L706.715 276.88L697.217 273.895L691.01 281.104V281.119ZM680.602 276.868L690.297 280.826L696.461 273.661L687.096 270.705L680.602 276.853V276.868ZM670.173 272.863L679.863 276.584L686.301 270.486L676.921 267.749L670.173 272.848V272.863ZM659.928 268.929L669.387 272.564L676.064 267.504L666.871 264.82L659.928 268.914V268.929ZM649.721 265.18L659.094 268.609L665.964 264.551L656.839 262.041L649.721 265.166V265.18ZM639.641 261.58L648.766 264.832L655.768 261.743L646.862 259.351L639.629 261.565L639.641 261.58ZM629.803 258.119L638.544 261.187L645.594 259.02L636.98 256.78L629.803 258.119ZM619.96 254.867L628.429 257.664L635.334 256.375L626.986 254.326L619.96 254.852V254.867ZM610.713 251.814L618.248 254.303L624.81 253.794L617.42 251.982L610.713 251.799V251.814ZM601.913 249.077L608.455 251.069L613.835 251.187L607.069 249.688L601.913 249.062V249.077ZM595.381 247.102L598.207 247.956L600.326 248.196L595.381 247.087V247.102ZM728.187 311.198L738.625 316.903L743.446 304.586L733.336 299.924C731.657 303.782 729.922 307.483 728.187 311.183V311.198ZM717.076 305.351L727.489 310.817L732.633 299.584L722.523 295.177C720.732 298.671 718.905 302.023 717.076 305.351ZM706.088 299.587L716.384 304.988L721.823 294.885L711.811 290.519C709.919 293.619 708.007 296.623 706.082 299.587H706.088ZM695.151 294.048L705.42 299.23L711.131 290.217L701.161 286.017L695.13 294.048H695.151ZM684.264 288.653L694.439 293.705L700.43 285.724L690.522 281.66L684.264 288.653ZM673.537 283.38L683.587 288.311C685.68 286.052 687.755 283.726 689.824 281.37L680.046 277.388L673.543 283.38H673.537ZM662.795 278.355L672.822 283.046C674.991 281.116 677.143 279.115 679.292 277.102L669.511 273.345L662.801 278.355H662.795ZM652.248 273.422L662.053 278.009L668.736 273.046L659.153 269.366L652.254 273.422H652.248ZM641.698 268.692L651.453 273.04L658.314 269.035L648.775 265.565L641.698 268.704V268.692ZM631.272 264.122L640.82 268.305L647.832 265.225L638.52 261.896L631.278 264.134L631.272 264.122ZM621.065 259.721L630.297 263.694L637.424 261.503L628.369 258.358L621.065 259.721ZM610.832 255.544L619.871 259.233L626.995 257.903L618.145 254.98L610.838 255.556L610.832 255.544ZM601.095 251.571L609.395 254.956L616.433 254.415L608.316 251.731L601.101 251.583L601.095 251.571ZM591.473 247.865L599.294 250.821L605.871 250.968L598.032 248.604L591.479 247.877L591.473 247.865ZM582.788 244.59L588.818 246.863L594.331 247.489L588.419 245.698L582.794 244.601L582.788 244.59ZM577.598 242.63L578.845 243.103L580.503 243.428L577.603 242.642L577.598 242.63ZM722.692 322.697L733.543 329.442C735.213 325.659 736.771 321.541 738.367 317.539L727.891 311.816L722.692 322.697ZM711.205 315.75L722.009 322.283C723.783 318.819 725.476 315.1 727.188 311.447L716.733 305.96L711.199 315.75H711.205ZM699.866 308.893L710.537 315.345C712.408 312.212 714.22 308.893 716.041 305.591L705.695 300.164L699.86 308.893H699.866ZM688.547 302.328L699.21 308.497C701.169 305.688 703.097 302.756 705.018 299.812L694.693 294.607L688.541 302.328H688.547ZM677.356 295.895L687.888 301.949C689.957 299.451 691.979 296.877 694.007 294.264L683.77 289.18L677.35 295.895H677.356ZM666.286 289.629L676.7 295.517L683.082 288.84L672.966 283.88L666.28 289.629H666.286ZM655.236 283.62L665.609 289.262L672.254 283.546L662.142 278.816L655.23 283.62H655.236ZM644.397 277.725L654.539 283.241L661.403 278.47L651.497 273.835L644.391 277.725H644.397ZM633.548 272.088L643.667 277.326L650.714 273.469L640.817 269.076L633.542 272.088H633.548ZM622.868 266.617L632.735 271.672L639.936 268.689L630.261 264.447L622.862 266.617H622.868ZM612.378 261.332L621.967 266.156L629.271 264.013L619.812 259.969L612.378 261.332ZM601.845 256.283L611.305 260.821L618.603 259.481L609.283 255.677L601.84 256.283H601.845ZM591.73 251.43L600.598 255.686L607.84 255.095L599.141 251.548L591.724 251.43H591.73ZM581.57 246.815L590.252 250.72L597.24 250.8L588.632 247.548L581.564 246.815H581.57ZM571.866 242.482L579.578 245.923L585.975 246.546L578.62 243.771L571.866 242.482ZM563.441 238.752L569.276 241.329L574.683 242.287L568.452 240.126L563.441 238.758V238.752ZM558.023 236.523L558.91 236.883L559.501 237.025C558.998 236.866 558.508 236.691 558.023 236.529V236.523ZM716.727 333.572L727.883 341.257L733.233 330.084L722.384 323.335C720.543 326.885 718.619 330.187 716.727 333.578V333.572ZM704.974 325.614L716.05 333.113L721.699 322.91L710.856 316.353C708.932 319.561 706.945 322.564 704.974 325.62V325.614ZM693.38 317.763L704.317 325.153L710.194 315.937L699.476 309.457C697.466 312.327 695.423 315.041 693.38 317.769V317.763ZM681.772 310.261L692.73 317.338L698.816 309.061L688.098 302.854C686.008 305.411 683.895 307.849 681.772 310.267V310.261ZM670.333 302.871L681.128 309.844L687.442 302.496L676.853 296.41L670.333 302.877V302.871ZM658.988 295.689L669.691 302.458L676.194 296.034L665.709 290.123L658.988 295.689ZM647.684 288.754L658.325 295.287L665.03 289.747L654.58 284.063L647.684 288.76V288.754ZM636.596 281.955L647.013 288.346L653.888 283.688L643.661 278.121L636.596 281.958V281.955ZM625.458 275.432L635.895 281.527L642.931 277.725L632.688 272.437L625.458 275.435V275.432ZM614.503 269.085L624.704 274.997L631.887 272.041L621.893 266.922L614.503 269.085ZM603.717 262.937L613.669 268.603L620.991 266.457L611.201 261.565L603.717 262.937ZM592.901 257.025L602.741 262.393L610.131 261.039L600.459 256.398L592.901 257.025ZM582.475 251.35L591.777 256.422L599.209 255.807L590.063 251.421L582.475 251.35ZM572.011 245.92L581.174 250.649L588.538 250.717L579.35 246.617L572.011 245.914V245.92ZM561.922 240.776L570.332 245.062L577.373 245.728L569.028 242.006L561.922 240.77V240.776ZM552.616 236.076L559.826 239.706L566.442 240.85L558.617 237.549L552.616 236.076ZM543.485 231.758L549.439 234.572L554.266 235.754L547.931 233.147L543.485 231.752V231.758ZM537.636 228.991L538.845 229.565L540.405 230.052L537.647 228.985L537.636 228.991ZM401.64 404.936L407.93 409.317C530.453 475.734 655.757 488.896 727.575 341.89L716.387 334.189C640.773 469.015 519.353 461.569 401.64 404.936ZM389.816 396.556L397.424 402.004C516.19 460.395 639.304 469.621 715.701 333.722L704.589 326.197C624.178 450.333 504.245 445.953 389.822 396.556H389.816ZM378.373 388.165L386.922 394.434C501.975 444.942 622.966 450.446 703.927 325.756L692.955 318.325C607.805 431.578 489.465 430.278 378.379 388.165H378.373ZM367.031 379.518L376.026 386.429C487.552 429.367 606.693 431.519 692.298 317.899L681.293 310.805C591.446 412.858 474.732 414.413 367.037 379.518H367.031ZM355.591 370.612L365.346 378.212C473.29 413.645 590.489 412.613 680.661 310.376L669.812 303.371C575.206 394.266 460.014 398.472 355.597 370.612H355.591ZM344.187 361.473L354.205 369.501C458.776 397.754 574.319 393.931 669.162 302.957L658.39 296.159C559.081 375.767 445.368 382.439 344.193 361.473H344.187ZM332.81 352.076L342.966 360.494C444.235 381.777 558.212 375.389 657.734 295.759L647.019 289.186C543.042 357.385 430.78 366.308 332.816 352.076H332.81ZM321.281 342.371L331.775 351.213C429.778 365.661 542.208 356.953 646.348 288.769L635.857 282.331C527.154 339.161 416.174 350.095 321.287 342.371H321.281ZM309.673 332.366L320.38 341.594C415.267 349.466 526.338 338.685 635.156 281.902L624.615 275.763C511.253 321.109 401.521 333.781 309.679 332.366H309.673ZM298.003 322.02L308.848 331.65C400.644 333.167 510.408 320.589 623.847 275.313L613.554 269.342C495.513 303.188 386.919 317.358 298.009 322.023L298.003 322.02ZM286.21 311.379L297.267 321.364C386.097 316.749 494.667 302.638 612.718 268.855L602.59 263.12C479.87 285.449 372.287 300.858 286.21 311.384V311.379ZM274.29 300.442L285.53 310.764C371.486 300.267 478.965 284.888 601.609 262.582L591.594 257.117C464.253 267.921 357.604 284.29 274.3 300.442H274.29ZM262.33 289.186L273.68 299.853C356.848 283.711 463.331 267.338 590.497 256.523L580.976 251.329C448.918 250.575 343.011 267.628 262.33 289.186ZM250.25 277.595L261.74 288.63C342.257 267.075 447.936 249.987 579.676 250.623L570.086 245.733C433.508 233.463 328.343 250.915 250.25 277.584V277.595ZM238.08 265.71L249.7 277.06C327.58 250.41 432.382 232.899 568.407 244.888L559.539 240.371C418.347 216.547 313.746 234.143 238.08 265.698V265.71ZM252.42 291.166L241.13 280.797L233.6 283.59L244.79 293.344L252.42 291.154V291.166ZM264.19 301.725L253.03 291.71L245.42 293.865L256.48 303.259L264.19 301.713V301.725ZM275.85 311.946L264.84 302.301L257.15 303.829L268.09 312.874L275.85 311.946ZM287.36 321.851L276.56 312.564L268.84 313.489L279.57 322.179L287.36 321.843V321.851ZM298.701 331.432L288.14 322.511L280.4 322.845L290.89 331.165L298.701 331.423V331.432ZM310.013 340.684L299.57 332.144L291.84 331.896L302.144 339.841L310.013 340.675V340.684ZM321.092 349.551L310.98 341.467L303.197 340.642L313.333 348.212L321.092 349.551ZM331.893 358.058L322.242 350.468L314.58 349.146L324.364 356.297L331.893 358.058ZM342.686 366.24L333.283 359.111L325.893 357.385L335.192 364.006L342.686 366.232V366.24ZM353.194 374.02L344.291 367.441L337.114 365.351L346.017 371.41L353.194 374.02ZM363.336 381.381L355.243 375.504L348.595 373.163L356.546 378.457L363.345 381.392L363.336 381.381ZM372.999 388.108L365.931 383.222L360.315 380.893L366.963 385.194L372.999 388.108ZM380.815 393.512L376.886 390.795L372.73 388.815L377.788 391.907L380.809 393.512H380.815ZM740.212 350.825C675.251 503.741 554.021 493.088 431.903 425.069C561.041 506.33 689.413 526.49 751.563 358.857L740.206 350.825H740.212ZM745.533 337.875C743.898 342.123 742.181 346.125 740.475 350.163L751.788 358.171L756.517 344.831L745.536 337.875H745.533ZM750.345 324.16L745.802 337.219L756.739 344.154C758.217 339.646 759.586 334.86 760.966 330.09L750.348 324.16H750.345ZM755.075 309.939C753.629 314.618 752.089 319.026 750.567 323.489L761.161 329.401L765.317 314.79L755.086 309.939H755.075ZM759.296 294.994L755.267 309.259L765.48 314.089C766.742 309.138 767.892 303.868 769.059 298.656L759.308 294.994H759.296ZM763.348 279.487L759.488 294.32L769.219 297.97L772.663 281.923L763.36 279.487H763.348ZM767.061 263.38L763.514 278.807L772.799 281.234L775.867 264.486L767.073 263.38H767.061ZM770.434 246.653L767.218 262.698L775.982 263.803L778.714 246.393L770.446 246.653H770.434ZM773.644 229.29C772.675 234.998 771.613 240.463 770.564 245.952L778.814 245.695L781.347 227.637L773.644 229.29ZM776.358 211.359L773.783 228.548L781.451 226.901C782.199 220.886 782.828 214.56 783.476 208.279L776.37 211.359H776.358ZM779.048 192.687C778.261 198.832 777.342 204.62 776.473 210.549L783.567 207.49L785.545 188.194L779.06 192.687H779.048ZM781.117 173.647L779.151 191.77L785.604 187.298C786.133 180.999 786.517 174.31 786.949 167.742L781.126 173.647H781.117ZM783.186 153.742L781.25 172.536L787.032 166.677L788.332 146.468L783.183 153.742H783.186ZM784.72 133.586L783.29 152.388L787.904 145.862L787.922 145.838L787.948 145.812L788.374 145.389L789.142 125.377L788.495 126.299C787.253 128.794 785.979 131.168 784.717 133.586H784.72ZM786.154 112.51L784.856 131.809L787.88 125.968V125.948L787.901 125.921L789.184 124.1L789.846 103.66L788.501 106.32C787.741 108.446 786.94 110.465 786.151 112.51H786.154ZM787.147 91.304L786.26 110.281L787.868 106.066V106.046V106.028L789.861 102.076L790.085 81.976L788.513 86.348C788.078 88.048 787.608 89.662 787.132 91.305L787.147 91.304ZM787.975 69.209L787.295 88.174L787.854 86.158V86.143L790.109 79.865L790.227 59.576L788.519 66.407C788.35 67.359 788.161 68.281 787.972 69.209H787.975ZM788.424 47.282L788.052 65.431L790.201 56.829L789.943 37.878L788.539 46.409L788.421 47.281H788.424V47.282ZM788.681 24.994L788.528 42.198L789.89 33.921L789.595 15.378L788.681 24.994ZM788.607 4.841L788.655 17.998L789.414 10.082L788.932 -3.27901L788.607 4.841ZM788.539 -13.45V-11.118L788.593 -12.433L788.525 -14.286L788.539 -13.45ZM787.984 24.959V22.964L787.874 26.171L787.984 24.959ZM787.726 47.235L788.022 33.126L787.345 41.745L786.789 54.396L787.724 47.234L787.726 47.235ZM787.277 69.15L787.596 53.534L786.192 64.175L785.285 79.271L787.274 69.15H787.277ZM786.449 91.219L787.197 73.164L784.974 84.435L783.644 101.31L786.447 91.219H786.449ZM785.456 112.383L786.302 94.352L783.307 105.129L781.829 121.928L785.453 112.383H785.456ZM784.02 133.417L785.353 114.615L781.596 124.47L779.624 141.91L784.017 133.408L784.02 133.417ZM782.491 153.518L783.887 135.191L779.391 143.875L777.363 160.763L782.488 153.509L782.491 153.518ZM780.422 173.358L782.373 154.868L777.174 162.22L774.602 179.255L780.434 173.358H780.422ZM778.368 192.314C779.092 186.583 779.668 180.449 780.301 174.472L774.422 180.428L771.888 196.801L778.38 192.314H778.368ZM775.687 210.889L778.235 193.251L771.732 197.75C770.75 203.313 769.662 208.545 768.607 213.928L775.699 210.889H775.687ZM772.991 228.716C773.916 223.227 774.729 217.428 775.569 211.702L768.439 214.747L765.329 230.351L772.991 228.716ZM769.798 245.976L772.855 229.461L765.152 231.102C764.008 236.298 762.787 241.255 761.563 246.263L769.81 245.976H769.798ZM766.455 262.6L769.668 246.676L761.392 246.972L757.703 261.604L766.467 262.6H766.455ZM762.757 278.624L766.304 263.283L757.519 262.278L753.499 276.363L762.769 278.624H762.757ZM758.743 294.054L762.586 279.304L753.286 277.034L749.024 290.569L758.755 294.054H758.743ZM754.54 308.922C755.938 304.358 757.238 299.525 758.554 294.734L748.814 291.234L744.38 304.24L754.551 308.922H754.54ZM749.843 323.09L754.347 309.602L744.149 304.899C742.589 309.168 740.948 313.205 739.322 317.282L749.854 323.09H749.843ZM745.08 336.776C746.659 332.638 748.131 328.165 749.624 323.77L739.071 317.944L734.232 329.897L745.08 336.776ZM739.76 349.678L744.803 337.432L733.928 330.539C732.192 334.432 730.36 338.041 728.56 341.754L739.769 349.664L739.76 349.678ZM418.953 416.695C545.082 490.983 672.346 508.033 739.497 350.326L728.264 342.374C657.569 487.51 534.943 477.123 414.143 413.535L418.953 416.695ZM393.567 400.972L397.368 403.464L401.826 406.024L396.978 402.649L393.567 400.972ZM380.652 392.474L387.948 397.289L392.931 399.796L386.496 395.067L380.652 392.474ZM369.085 384.476L377.256 390.127L383.599 392.95L375.618 387.065L369.085 384.476ZM357.705 376.364L366.351 382.572L373.446 385.389L364.935 378.85C362.514 378.058 360.114 377.195 357.705 376.364ZM346.304 368.038L355.659 374.881L363.1 377.455L353.815 370.148L346.304 368.038ZM335.071 359.522L344.693 366.817L352.428 369.037L342.57 361.139L335.071 359.536V359.522ZM323.77 350.725L333.682 358.466L341.367 360.166L331.394 351.863L323.77 350.725ZM312.274 341.582L322.62 349.814L330.365 350.997L320.034 342.256L312.274 341.582ZM300.761 332.162L311.32 340.799L319.129 341.485L308.517 332.336L300.761 332.162ZM289.21 322.451L299.889 331.449L307.702 331.627L296.974 322.082L289.21 322.451ZM277.52 312.44L288.43 321.792L296.235 321.426L285.26 311.5L277.52 312.44ZM265.72 302.118L276.81 311.822L284.59 310.882L273.42 300.61L265.72 302.118ZM253.84 291.476L265.08 301.547L272.81 300.034L261.52 289.392L253.85 291.465L253.84 291.476ZM241.89 280.539L253.24 290.944L260.92 288.875L249.5 277.885L241.9 280.516L241.89 280.539ZM229.84 269.263L241.33 279.99L248.95 277.315L237.36 265.987L229.84 269.263ZM227.86 191.773C296.099 162.214 392.754 162.823 529.731 225.249L548.2 232.485L568.747 239.488L588.609 245.039L607.208 248.991L626.924 251.61L644.692 252.349L662.573 251.166L679.688 247.838L695.772 242.222L711.338 233.857C716.042 230.333 720.731 226.704 725.405 222.97C730.017 218.199 734.544 213.345 738.982 208.412C742.859 202.955 746.69 197.327 750.475 191.528C754.396 184.049 758.16 176.489 761.764 168.853C764.569 161.463 767.286 153.778 769.946 145.956C772.743 135.611 775.403 124.872 777.963 113.837C779.668 104.284 781.262 94.414 782.766 84.305C784.244 70.598 785.501 56.301 786.639 41.687L787.842 6.494L787.91 4.83301L787.842 -13.426L787.679 -36.84L783.774 -119.969L778.066 -242.253H778.764L784.469 -120.002L787.555 -54.421L787.33 -85.562L786.337 -242.253H787.032L788.025 -85.565L788.374 -36.869L788.536 -33.378L788.965 -21.584L790.937 -71.444L797.936 -242.252H798.634L791.631 -71.399L789.296 -12.399L789.917 4.843L797.685 -76.773L813.713 -242.237H814.41L798.377 -76.705L790.1 10.14L790.523 30.028L811.215 -98.008L834.706 -242.233H835.409L811.9 -97.901L790.561 33.992L790.836 54.208L835.019 -128.634L862.273 -242.271H862.992L835.699 -128.468L790.91 56.909L790.854 77.828C822.164 -9.62 847.875 -89.045 870.878 -160.1L897.68 -242.274H898.413L871.54 -159.893L790.842 79.951L790.612 100.642C843.399 -4.426 883.163 -100.405 918.02 -184.533L942.067 -242.271H942.824L918.674 -184.264C883.675 -99.787 843.725 -3.36201 790.579 102.232L789.949 123.033C870.532 8.60699 925.431 -101.472 973.176 -197.217L995.745 -242.271H996.525L973.803 -196.907C925.916 -100.904 870.861 9.51099 789.899 124.31L789.119 144.647C902.229 32.074 971.535 -90.461 1032.1 -197.536L1057.55 -242.271H1058.35L1032.71 -197.194C972.035 -89.911 902.584 32.886 789.092 145.673L787.827 165.891L787.96 165.758L787.987 165.729L788.019 165.708C936.767 66.628 1018.8 -68.301 1091.34 -187.605L1124.92 -242.271H1125.75L1091.93 -187.241C1019.37 -67.89 937.296 67.107 788.412 166.269C788.188 166.503 787.96 166.728 787.732 166.955L786.373 186.76L787.987 185.64L788.022 185.616L788.058 185.601C973.377 110.323 1066 -37.722 1148.98 -170.339L1194.89 -242.283H1195.73C1180.32 -219.109 1165.12 -194.811 1149.57 -169.972C1066.55 -37.269 973.865 110.867 788.353 186.234L786.308 187.65L784.336 207.159L788.046 205.554H788.081H788.12C1010.82 162.252 1112.37 -0.789993 1204.22 -148.291C1224.51 -180.862 1244.33 -212.68 1264.87 -242.289H1265.72C1245.1 -212.567 1225.21 -180.623 1204.81 -147.909C1112.88 -0.306 1011.25 162.858 788.282 206.21L784.247 207.954L782.231 226.736L788.105 225.474H788.173C1048.73 220.715 1157.83 40.474 1256.99 -123.34C1282.27 -165.104 1306.91 -205.81 1333.24 -242.262H1334.1C1307.67 -205.721 1282.96 -164.888 1257.59 -122.979C1158.35 40.98 1049.15 221.386 788.241 226.168L782.143 227.478L779.592 245.68L788.182 245.411H788.238C1087.03 284.367 1202.54 84.562 1307.42 -96.858C1337.48 -148.852 1366.67 -199.337 1399.06 -242.274H1399.94C1367.46 -199.277 1338.19 -148.654 1308.04 -96.506C1203.05 85.091 1087.42 285.103 788.196 246.085L779.509 246.354L776.78 263.883L788.256 265.328H788.276H788.297C1125.67 352.232 1246.66 130.42 1355.82 -69.713C1390.25 -132.842 1423.51 -193.818 1462.01 -242.294H1462.9C1424.28 -193.793 1390.94 -132.671 1356.42 -69.373C1247.14 130.983 1126.02 353.028 788.143 266.015L776.65 264.567L773.564 281.415L788.294 285.276H788.312C1164.67 423.659 1290.28 177.342 1402.38 -42.469C1440.71 -117.632 1477.46 -189.691 1522.12 -242.268H1523.03C1478.26 -189.718 1441.42 -117.493 1403 -42.152C1290.77 177.919 1165.01 424.522 788.087 285.955L773.422 282.112L769.982 298.251L788.309 305.233H788.329C1204.13 498.089 1333.6 224.681 1447.4 -15.638C1489.18 -103.846 1528.84 -187.605 1579.78 -242.271H1580.73C1529.65 -187.684 1489.9 -103.754 1448.03 -15.342C1334.1 225.27 1204.46 499.006 788.058 305.889L769.822 298.94L766.225 314.447L788.344 325.192C1143.03 519.747 1301.98 379.32 1408.92 184.23C1439.42 128.593 1465.69 68.517 1491.06 10.487C1535.93 -92.104 1578 -188.289 1635.67 -242.27H1636.68C1578.83 -188.473 1536.67 -92.077 1491.7 10.757C1466.31 68.802 1440.03 128.9 1409.52 184.565C1302.4 379.977 1143.22 520.652 788.025 325.815L766.056 315.141C764.741 320.229 763.304 324.982 761.9 329.823L788.359 345.141C1135.89 561.911 1306.2 462.352 1416.18 285.934C1463.3 210.345 1499.36 120.642 1533.52 35.653C1580.72 -81.789 1624.31 -190.235 1688.52 -240.134C1689.46 -240.87 1690.42 -241.571 1691.37 -242.28H1692.55L1688.96 -239.584C1624.9 -189.804 1581.34 -81.443 1534.17 35.907C1500 120.926 1463.94 210.659 1416.79 286.298C1306.62 463.035 1136.02 562.794 788.019 345.729L761.711 330.506L757.487 344.621L788.386 365.082C1138.74 607.172 1318.73 533.835 1432.69 368.803C1493.62 280.575 1535.71 166.128 1574.88 59.649C1615.69 -51.337 1653.34 -153.676 1705.85 -208.742V-207.74C1653.7 -152.66 1616.19 -50.677 1575.53 59.901C1536.35 166.417 1494.24 280.903 1433.27 369.211C1319.08 534.556 1138.81 608.085 787.995 365.664L757.253 345.301C755.731 349.912 754.135 354.313 752.524 358.682L788.4 385.034C1146.28 653.988 1335.51 600.577 1453.77 443.097C1527.07 345.505 1573.15 207.936 1615.23 82.324C1644.73 -5.76199 1672.28 -87.937 1705.85 -146.414V-145.01C1672.58 -86.681 1645.21 -4.97301 1615.89 82.546C1573.79 208.208 1527.69 345.833 1454.33 443.517C1335.83 601.304 1146.31 654.865 787.981 385.581L752.278 359.353C687.87 533.306 552.454 505.837 418.586 417.396C411.316 413.104 404.122 408.684 397.008 404.138C390.451 400.414 383.91 396.55 377.383 392.548C370.255 388.72 363.195 384.766 356.206 380.689C349.577 377.326 343.01 373.842 336.508 370.24C329.528 366.937 322.601 363.523 315.73 359.998C309.118 357.134 302.554 354.161 296.04 351.082C289.19 348.442 282.43 345.697 275.75 342.847C269.01 340.595 262.35 338.272 255.83 335.86L236.55 330.264L227.85 328.437V327.725L229.55 328.082L227.86 327.542V326.593L233.6 327.184L227.86 324.801V324.065L236.14 327.468L243.3 328.13L234.73 323.906L227.86 323.926V323.235C229.68 323.235 231.51 323.235 233.35 323.214L227.86 320.444V319.658L234.91 323.205C237.41 323.205 239.94 323.161 242.48 323.128L232.95 317.607L227.86 318.154V317.456L231.95 317.001L227.86 314.589V313.776L233.12 316.885L240.77 316.025L230.63 309.309L227.86 309.901V309.191L229.84 308.768L227.86 307.435V306.587L230.79 308.565L238.42 306.959L227.86 299.132V298.245L227.97 298.328L235.55 296.034L227.86 289.756V288.831L236.37 295.786L243.96 293.554L232.84 283.862L227.86 285.768V285.047L232.25 283.362L227.86 279.469V278.515L233.01 283.064L240.56 280.259L229.14 269.573L227.86 270.143V269.381L228.59 269.053L227.86 268.37V267.392L229.3 268.748L236.83 265.461L227.86 256.561V255.556L237.55 265.172C312.942 233.656 417.043 215.979 557.452 239.293L549.117 235.21C404.643 200.186 301.095 217.034 227.86 252.532V251.743C300.628 216.529 403.209 199.719 545.948 233.712L538.525 230.2C398.116 186.491 298.349 198.572 227.85 233.422V232.589C297.642 198.176 395.988 186.024 533.893 227.998L529.459 225.902C392.943 174.289 296.25 180.668 227.86 213.283V212.397C294.22 180.821 387.093 173.863 517.038 220.478C386.7 163.674 293.91 164.02 227.86 192.713V191.773Z" fill="url(#paint0_linear_10_2)"/>
<path d="M977.976 333.727L979.324 317.841C979.697 313.439 976.431 309.567 972.029 309.194L954.15 307.676C949.748 307.303 945.876 310.569 945.502 314.971L944.154 330.857C943.781 335.26 947.047 339.132 951.449 339.505L969.328 341.022C973.73 341.396 977.602 338.13 977.976 333.727Z" fill="white"/>
<path d="M961.739 330.599C965.191 330.599 967.989 327.801 967.989 324.349C967.989 320.897 965.191 318.099 961.739 318.099C958.287 318.099 955.489 320.897 955.489 324.349C955.489 327.801 958.287 330.599 961.739 330.599Z" stroke="#1DBAB5"/>
<path d="M961.739 317.349V317.849M961.739 329.849V331.849" stroke="#1DBAB5" stroke-linecap="round"/>
<path d="M956.885 320.203C956.979 320.294 957.106 320.344 957.237 320.343C957.368 320.342 957.493 320.29 957.586 320.197C957.679 320.104 957.731 319.979 957.732 319.848C957.734 319.717 957.683 319.59 957.592 319.496L956.885 320.203ZM956.385 319.703L956.885 320.203L957.592 319.496L957.092 318.996L956.385 319.703ZM965.135 320.246C965.044 320.34 964.994 320.467 964.995 320.598C964.996 320.729 965.048 320.854 965.141 320.947C965.234 321.04 965.359 321.092 965.49 321.093C965.621 321.094 965.748 321.044 965.842 320.953L965.135 320.246ZM966.385 318.996L965.135 320.246L965.842 320.953L967.092 319.703L966.385 318.996ZM966.592 328.496C966.498 328.405 966.371 328.355 966.24 328.356C966.109 328.357 965.984 328.409 965.891 328.502C965.798 328.595 965.746 328.72 965.745 328.851C965.744 328.982 965.794 329.109 965.885 329.203L966.592 328.496ZM967.092 328.996L966.592 328.496L965.885 329.203L966.385 329.703L967.092 328.996Z" fill="#1DBAB5"/>
<path d="M954.239 324.349H955.239M967.239 324.349H969.239" stroke="#1DBAB5" stroke-linecap="round"/>
<path d="M958.342 328.453C958.433 328.359 958.484 328.232 958.482 328.101C958.481 327.97 958.429 327.845 958.336 327.752C958.243 327.659 958.118 327.607 957.987 327.606C957.856 327.605 957.729 327.655 957.635 327.746L958.342 328.453ZM957.092 329.703L958.342 328.453L957.635 327.746L956.385 328.996L957.092 329.703Z" fill="#1DBAB5"/>
<path d="M962.239 321.349C962.239 321.614 962.134 321.869 961.946 322.056C961.759 322.244 961.504 322.349 961.239 322.349C960.974 322.349 960.719 322.244 960.532 322.056C960.344 321.869 960.239 321.614 960.239 321.349C960.239 321.084 960.344 320.829 960.532 320.642C960.719 320.454 960.974 320.349 961.239 320.349C961.504 320.349 961.759 320.454 961.946 320.642C962.134 320.829 962.239 321.084 962.239 321.349Z" stroke="#1DBAB5"/>
<path d="M960.239 325.349C960.239 325.614 960.134 325.869 959.946 326.056C959.759 326.244 959.504 326.349 959.239 326.349C958.974 326.349 958.719 326.244 958.532 326.056C958.344 325.869 958.239 325.614 958.239 325.349C958.239 325.084 958.344 324.829 958.532 324.642C958.719 324.454 958.974 324.349 959.239 324.349C959.504 324.349 959.759 324.454 959.946 324.642C960.134 324.829 960.239 325.084 960.239 325.349ZM965.739 326.349C965.739 326.614 965.634 326.869 965.446 327.056C965.259 327.244 965.004 327.349 964.739 327.349C964.474 327.349 964.219 327.244 964.032 327.056C963.844 326.869 963.739 326.614 963.739 326.349C963.739 326.084 963.844 325.829 964.032 325.642C964.219 325.454 964.474 325.349 964.739 325.349C965.004 325.349 965.259 325.454 965.446 325.642C965.634 325.829 965.739 326.084 965.739 326.349Z" stroke="#1DBAB5"/>
<path d="M961.739 314.849C962.291 314.849 962.739 315.297 962.739 315.849C962.739 316.401 962.291 316.849 961.739 316.849C961.187 316.849 960.739 316.401 960.739 315.849C960.739 315.297 961.187 314.849 961.739 314.849Z" stroke="#1DBAB5"/>
<path d="M962.739 332.849C962.739 332.584 962.634 332.329 962.446 332.142C962.259 331.954 962.004 331.849 961.739 331.849C961.474 331.849 961.219 331.954 961.032 332.142C960.844 332.329 960.739 332.584 960.739 332.849C960.739 333.114 960.844 333.369 961.032 333.556C961.219 333.744 961.474 333.849 961.739 333.849C962.004 333.849 962.259 333.744 962.446 333.556C962.634 333.369 962.739 333.114 962.739 332.849Z" stroke="#1DBAB5"/>
<path d="M955.739 317.349C956.291 317.349 956.739 317.797 956.739 318.349C956.739 318.901 956.291 319.349 955.739 319.349C955.187 319.349 954.739 318.901 954.739 318.349C954.739 317.797 955.187 317.349 955.739 317.349Z" stroke="#1DBAB5"/>
<path d="M967.739 317.349C968.291 317.349 968.739 317.797 968.739 318.349C968.739 318.901 968.291 319.349 967.739 319.349C967.187 319.349 966.739 318.901 966.739 318.349C966.739 317.797 967.187 317.349 967.739 317.349Z" stroke="#1DBAB5"/>
<path d="M967.739 329.349C968.291 329.349 968.739 329.797 968.739 330.349C968.739 330.901 968.291 331.349 967.739 331.349C967.187 331.349 966.739 330.901 966.739 330.349C966.739 329.797 967.187 329.349 967.739 329.349Z" stroke="#1DBAB5"/>
<path d="M954.239 324.349C954.239 324.084 954.134 323.829 953.946 323.642C953.759 323.454 953.504 323.349 953.239 323.349C952.974 323.349 952.719 323.454 952.532 323.642C952.344 323.829 952.239 324.084 952.239 324.349C952.239 324.614 952.344 324.869 952.532 325.056C952.719 325.244 952.974 325.349 953.239 325.349C953.504 325.349 953.759 325.244 953.946 325.056C954.134 324.869 954.239 324.614 954.239 324.349ZM971.239 324.349C971.239 324.084 971.134 323.829 970.946 323.642C970.759 323.454 970.504 323.349 970.239 323.349C969.974 323.349 969.719 323.454 969.532 323.642C969.344 323.829 969.239 324.084 969.239 324.349C969.239 324.614 969.344 324.869 969.532 325.056C969.719 325.244 969.974 325.349 970.239 325.349C970.504 325.349 970.759 325.244 970.946 325.056C971.134 324.869 971.239 324.614 971.239 324.349Z" stroke="#1DBAB5"/>
<path d="M955.739 329.349C956.291 329.349 956.739 329.797 956.739 330.349C956.739 330.901 956.291 331.349 955.739 331.349C955.187 331.349 954.739 330.901 954.739 330.349C954.739 329.797 955.187 329.349 955.739 329.349Z" stroke="#1DBAB5"/>
<path d="M1222.1 52.1309L1210.02 45.0476C1206.21 42.8122 1201.31 44.0895 1199.08 47.9005L1190.98 61.7015C1188.74 65.5126 1190.02 70.4142 1193.83 72.6496L1205.91 79.7329C1209.72 81.9683 1214.62 80.691 1216.86 76.88L1224.95 63.079C1227.19 59.2679 1225.91 54.3663 1222.1 52.1309Z" fill="white"/>
<path d="M1215.24 60.428L1215.87 62.847M1215.24 60.428L1214.61 58.009M1215.24 60.428L1217.66 59.798M1215.87 62.847L1216.12 63.815M1215.87 62.847L1211.03 64.108M1214.61 58.009L1214.35 57.041M1214.61 58.009L1209.77 59.27M1217.66 59.798L1217.41 58.857C1217.41 58.84 1217.41 58.822 1217.42 58.805C1217.42 58.788 1217.44 58.792 1217.45 58.807L1217.96 60.766C1217.96 60.781 1217.94 60.793 1217.93 60.783C1217.92 60.773 1217.91 60.757 1217.9 60.739L1217.66 59.798ZM1209.77 59.27L1204.45 60.657C1204.32 60.6901 1204.2 60.7479 1204.1 60.8271C1203.99 60.9063 1203.9 61.0054 1203.84 61.1187C1203.77 61.232 1203.73 61.3573 1203.71 61.4874C1203.69 61.6175 1203.7 61.7499 1203.73 61.877M1209.77 59.27L1211.03 64.109L1205.71 65.496C1205.58 65.5291 1205.45 65.5369 1205.32 65.5188C1205.19 65.5008 1205.06 65.4573 1204.95 65.3908C1204.84 65.3243 1204.74 65.2361 1204.66 65.1313C1204.58 65.0265 1204.52 64.9072 1204.49 64.78M1204.49 64.78L1204 64.906C1203.81 64.9557 1203.61 64.9674 1203.42 64.9404C1203.22 64.9134 1203.04 64.8482 1202.87 64.7485C1202.7 64.6489 1202.55 64.5168 1202.43 64.3597C1202.31 64.2026 1202.22 64.0236 1202.17 63.833C1202.12 63.6424 1202.11 63.4439 1202.14 63.2487C1202.17 63.0536 1202.23 62.8657 1202.33 62.6958C1202.43 62.5258 1202.56 62.3772 1202.72 62.2583C1202.88 62.1395 1203.06 62.0527 1203.25 62.003L1203.73 61.877M1204.49 64.78L1203.73 61.877" stroke="#1DBAB5" stroke-linecap="round"/>
<path d="M1198.2 64.867L1202.17 63.831M1206.55 64.759L1206.3 63.791M1208 64.38L1207.75 63.412M1209.45 64.002L1209.2 63.034" stroke="#1DBAB5" stroke-linecap="round"/>
<path d="M864.084 54.7066L851.678 61.1932C847.762 63.2403 846.248 68.0739 848.295 71.9893L855.708 86.1683C857.755 90.0837 862.589 91.5983 866.504 89.5512L878.911 83.0646C882.826 81.0175 884.341 76.1839 882.294 72.2685L874.88 58.0895C872.833 54.174 868 52.6595 864.084 54.7066Z" fill="white"/>
<path d="M865.221 77.233C865.273 78.245 865.626 79.219 865.744 80.22C865.922 81.011 865.185 81.166 864.56 80.994C860.514 79.482 854.965 73.587 856.32 68.797C856.968 66.263 859.702 67.909 862.361 66.519C865.02 65.129 865.256 61.95 867.688 62.853C872.409 64.498 874.013 72.42 872.936 76.615C872.764 77.249 872.148 77.732 871.616 77.15C870.86 76.482 870.272 75.631 869.47 75.011C867.584 73.438 865.072 74.852 865.221 77.233Z" stroke="#1DBAB5" stroke-miterlimit="10"/>
<path d="M866.945 64.495C868.063 64.475 868.526 65.361 868.758 65.804" stroke="#1DBAB5" stroke-linecap="round"/>
</g>
</g>
<defs>
<linearGradient id="paint0_linear_10_2" x1="1377.39" y1="230.073" x2="764.258" y2="152.777" gradientUnits="userSpaceOnUse">
<stop stop-color="white" stop-opacity="0.38"/>
<stop offset="1" stop-color="white" stop-opacity="0"/>
</linearGradient>
<clipPath id="clip0_10_2">
<rect width="1296" height="351" fill="white" transform="matrix(-1 0 0 1 1296 0)"/>
</clipPath>
</defs>
</svg>
