<svg xmlns="http://www.w3.org/2000/svg" width="1296" height="351" fill="none" xmlns:v="https://vecta.io/nano"><style><![CDATA[.B{stroke:#1dbab5}.C{stroke-linecap:round}]]></style><g clip-path="url(#B)"><path d="M939.888 379.084l4.115-1.774-4.588 2.749-4.898 2.501 5.371-3.476zM513.5 93.388l-1.774-9.025-.629-10.488 1.445 10.514.958 8.998zm2.134 10.021l-.668-2.9-.378-3.526 1.046 6.426zm444.391 264.995l4.889-1.968-5.803 3.186-3.807 1.774 4.721-2.992zm-9.634 3.642l6.19-2.338-7.609 4.623-5.412 2.365 6.831-4.653v.003zM516.175 115.049c-.961-3.251-1.854-6.683-2.785-10.017l-1.356-15.489 2.237 11.064 1.904 14.439v.003zm3.458 10.99l-2.199-6.984-1.611-11.724 1.522 6.604 2.288 12.101v.003zm2.457 7.798l-.559-1.773-.233-1.183.792 2.953v.003zm468.213 220.902l.833-.313-1.827.836.994-.523zm-9.631 3.435l4.579-1.599-5.339 2.808-5.223 2.267 5.983-3.476zm-9.755 3.334l6.084-2.048-7.248 4.209-6.338 2.592 7.499-4.753h.003zm-9.704 3.116l6.914-2.22-8.472 5.359-6.681 2.524 8.236-5.663h.003zM518.732 133.615l-3.63-9.284-1.372-15.486 3.015 10.331 1.984 14.439h.003zm4.46 10.553l-3.408-8.067c-.641-4.176-1.203-8.572-1.773-12.929l2.837 9.013 2.341 11.983h.003zm4.52 10.689c-1.082-2.439-2.116-5.025-3.184-7.529-.629-2.941-1.203-6.051-1.773-9.122l2.66 7.948 2.294 8.703h.003zm3.278 7.052l-1.478-3.171c-.411-1.425-.804-2.906-1.182-4.375l2.657 7.546h.003zm479.37 184.172l1.13-.352-2.29.925 1.16-.573zm-9.79 3.042l5.43-1.685-6.374 3.024-4.588 1.729 5.532-3.068zm-9.49 2.728l6.367-1.821-7.538 4.094-6.207 2.229 7.378-4.502zm-9.536 2.607l6.905-1.853-8.17 4.948-7.157 2.489 8.407-5.584h.015zm-9.527 2.471l7.34-1.9-8.809 5.841-7.408 2.364 8.877-6.305zM521.685 151.788l-4.378-8.096-1.98-16.822 3.768 9.391 2.59 15.536v-.009zm5.321 9.415l-4.292-7.591-2.531-14.779 3.66 8.655 3.166 13.724-.003-.009zm5.394 9.356l-4.159-7.169-2.846-12.219 3.431 7.777 3.577 11.619-.003-.008zm5.025 8.143l-3.547-5.755-2.894-9.409 2.587 5.519c1.253 3.311 2.572 6.42 3.851 9.654l.003-.009zm4.219 6.84l-2.07-3.337-1.12-2.799c1.049 2.116 2.134 4.073 3.187 6.145l.003-.009zm488.826 152.889l1.66-.431-3.43 1.223 1.77-.792zm-9.66 2.427l5.28-1.286-6.16 2.637-5.38 1.8 6.26-3.151zm-9.62 2.279l6.73-1.59-7.89 3.899-6.42 1.995 7.58-4.304zm-9.43 2.069l7.15-1.558-8.69 4.86-6.876 1.974 8.416-5.288v.012zm-9.376 1.895l7.333-1.449-9.006 5.584-7.349 2.028 9.022-6.175v.012zm-9.356 1.773l7.57-1.421-9.423 6.384-7.565 1.969 9.418-6.946v.014zm-458.42-180.015l-5.108-6.864c-.718-5.264-1.321-10.833-1.957-16.314l4.491 8.159 2.574 15.007v.012zm6.016 7.898l-5.088-6.677c-.886-4.644-1.658-9.575-2.471-14.413l4.505 7.981 3.054 13.097v.012zm6.051 7.712l-4.987-6.317c-1.008-3.973-1.933-8.185-2.882-12.329l4.413 7.414 3.456 11.22v.012zm5.944 7.239l-4.694-5.714c-1.111-3.355-2.17-6.878-3.234-10.372l4.248 6.893 3.68 9.181v.012zm5.871 7.094l-4.236-5.087c-1.07-2.501-2.111-5.084-3.154-7.685l3.81 5.855 3.568 6.891.012.026zm4.454 5.025l-2.27-2.562-2.326-4.269 4.596 6.811v.02zm497.036 128.302l2.42-.476-4.92 1.425 2.5-.949zm-9.35 1.691l5.51-.993-6.23 2.364-5.69 1.526 6.41-2.897zm-9.36 1.587l6.5-1.073-7.6 3.444-6.8 1.738 7.9-4.1v-.009zm-9.34 1.478l7.09-1.105-8.52 4.434-7.28 1.744 8.71-5.067v-.006zm-9.33 1.369l7.43-1.073-9.15 5.32-7.43 1.617 9.15-5.864zm-9.22 1.182l7.55-.952-9.52 6.084-7.593 1.543 9.563-6.675zm-9.187 1.073l7.687-.887-9.851 6.834-7.76 1.478 9.924-7.44v.015zM528.034 185.672l-5.79-5.533-2.572-16.689c1.714 2.364 3.458 4.593 5.188 6.899l3.177 15.308-.003.015zm6.716 6.388l-5.802-5.519-3.119-14.921 5.194 6.798c1.197 4.665 2.489 9.084 3.73 13.627l-.003.015zm6.722 6.151l-5.72-5.199-3.573-13.06 5.105 6.365 4.191 11.879-.003.015zm6.71 5.983l-5.616-5.025-3.967-11.271 5.025 6.122 4.558 10.174zm6.684 5.814l-5.386-4.655-4.138-9.235 4.729 5.507 4.81 8.383h-.015zm6.328 5.291l-4.768-3.984-4.058-7.094 4.064 4.593 4.777 6.473-.015.012zm5.41 4.52c-1.052-.854-2.099-1.774-3.151-2.634l-2.099-2.855c1.753 1.886 3.518 3.647 5.265 5.489h-.015zm493.446 108.32l5.86-.618-6.67 2.069-5.55 1.094 6.36-2.545zm-9.16.848l6.72-.621-7.86 3.104-6.61 1.203 7.74-3.686h.01zm-9.17.757l7.12-.568-8.47 3.997-7.21 1.235 8.56-4.664h0zm-9.13.671l7.38-.532-8.99 4.877-7.55 1.212 9.15-5.557h.01zm-9.12.591l7.57-.485-9.41 5.72-7.68 1.111 9.52-6.352v.006zm-9.04.467l7.63-.396-9.77 6.503-7.73.987 9.86-7.112.01.018zm-9.01.372l7.67-.295-10.03 7.227-7.812.922 10.172-7.86v.006zM531.363 201.587l-6.433-4.233c-.904-5.167-1.681-10.686-2.506-16.071 1.948 1.906 3.911 3.703 5.864 5.574l3.075 14.73zm7.334 4.833l-6.442-4.236c-1.076-4.65-2.045-9.598-3.053-14.446l5.912 5.617 3.583 13.065zm7.324 4.632l-6.364-4c-1.227-4.111-2.365-8.462-3.547-12.743l5.844 5.262 4.067 11.469v.012zm7.343 4.578l-6.311-3.934c-1.371-3.606-2.678-7.39-3.999-11.147l5.844 5.215 4.466 9.855v.011zm7.301 4.434l-6.133-3.698c-1.478-3.062-2.9-6.254-4.337-9.435l5.682 4.842 4.788 8.271v.02zm7.169 4.236l-5.827-3.441c-1.54-2.533-3.053-5.155-4.57-7.783l5.499 4.594 4.898 6.609v.021zm6.896 3.994l-5.176-3.01-4.36-5.755 4.916 3.935 4.62 4.83zm5.445 3.041l-3.057-1.708-3.165-3.157 6.222 4.874v-.009zm472.145 92.47l7.39.083-9.06 4.434-7.44.621 9.11-5.138zm-8.93-.148l7.53.133-9.45 5.28-7.61.567 9.53-5.98zm-8.92-.201l7.63.175-9.78 6.107-7.72.505 9.87-6.787zm-8.91-.254l7.69.222-10.07 6.896-7.73.399 10.12-7.517h-.01zm-8.86-.328l7.7.296-10.29 7.626-7.76.319 10.36-8.232-.01-.009zM535.265 217.197l-7.074-2.935-3.086-15.962 6.503 4.274c1.174 5.028 2.439 9.758 3.665 14.623h-.008zm7.91 3.284l-7.074-2.935-3.603-14.375 6.527 4.292 4.159 13.018h-.009zm7.895 3.157l-7.02-2.799-4.065-12.743 6.468 4.038 4.626 11.504h-.009zm7.913 3.154l-6.99-2.788-4.508-11.232 6.473 4.038 5.034 9.982h-.009zm7.875 3.05l-6.872-2.66-4.86-9.648 6.346 3.792 5.395 8.516h-.009zm7.836 2.998l-6.724-2.572-5.153-8.138 6.243 3.686 5.643 7.024h-.009zm7.713 2.897l-6.406-2.398-5.223-6.503 5.912 3.361 5.726 5.54h-.009zm7.316 2.686l-5.691-2.089-4.972-4.81 5.209 2.909 5.463 3.99h-.009zm5.944 2.179l-3.568-1.309-2.829-2.07 6.406 3.379h-.009zm458.653 76.023l7.56.849-9.75 5.634-7.66-.125 9.85-6.358zm-8.73-.996l7.63.887-10.05 6.456-7.74-.169 10.16-7.174zm-8.72-1.008l7.67.887-10.32 7.248-7.76-.222 10.41-7.913zm-8.72-1.026l7.69.908-10.55 7.981-7.77-.296 10.63-8.593zm-489.043-81.459l-7.644-1.614c-1.094-4.983-2.09-10.242-3.106-15.436l7.126 2.956 3.624 14.094zm8.452 1.774l-7.627-1.605c-1.256-4.496-2.424-9.235-3.609-13.92l7.139 2.956 4.097 12.569zm8.436 1.75l-7.588-1.576c-1.401-4.005-2.731-8.217-4.076-12.388l7.094 2.832 4.57 11.135v-.003zm8.43 1.75l-7.546-1.567c-1.54-3.547-3.024-7.26-4.52-10.937l7.094 2.832 4.972 9.675v-.003zm8.398 1.714l-7.458-1.522c-1.658-3.071-3.275-6.282-4.898-9.459l7.024 2.696 5.332 8.288v-.003zm8.363 1.706l-7.343-1.496c-1.773-2.628-3.503-5.359-5.241-8.085l6.964 2.661 5.62 6.923v-.003zm8.277 1.67l-7.13-1.437c-1.833-2.164-3.645-4.407-5.46-6.651l6.781 2.519 5.809 5.572v-.003zm8.099 1.623l-6.74-1.351-5.545-5.244 6.503 2.382 5.767 4.215.015-.002zm7.703 1.537l-5.947-1.183-5.173-3.695 5.805 2.069 5.315 2.812v-.003zm6.063 1.182l-3.509-.692-3.405-1.738 6.914 2.445v-.015zm445.512 60.67l7.57 1.593-10.28 6.799-7.69-.887 10.4-7.505zm-8.55-1.773l7.61 1.575-10.52 7.588-7.73-.887 10.64-8.276zm-8.55-1.744l7.64 1.56-10.74 8.336-7.74-.91 10.84-8.983v-.003zm-496.335-57.401l-8.211-.296-3.547-15.022 7.685 1.623 4.073 13.698v-.003zm8.966.345l-8.182-.319-4.032-13.556 7.685 1.617c1.472 4.198 3.001 8.209 4.529 12.261v-.003zm8.948.382l-8.153-.349-4.475-12.119 7.665 1.587c1.625 3.725 3.298 7.289 4.963 10.884v-.003zm8.915.381l-8.097-.346-4.898-10.727 7.642 1.585c1.761 3.242 3.562 6.352 5.353 9.491v-.003zm8.897.432l-8.046-.39-5.264-9.335 7.585 1.546c1.891 2.79 3.813 5.483 5.725 8.182v-.003zm8.845.431l-7.937-.387-5.616-8.013 7.522 1.531 6.031 6.872v-.003zm8.788.461l-7.804-.413-5.865-6.681 7.39 1.478 6.279 5.619v-.003zm8.682.473l-7.559-.411-6.039-5.4 7.192 1.442 6.406 4.372v-.003zm8.468.476l-7.123-.405-5.995-4.088 6.799 1.348 6.319 3.148v-.003zm8.011.482l-6.234-.375-5.51-2.743 5.959 1.182 5.785 1.942v-.006zm6.051.364l-3.388-.204-3.18-1.07 6.568 1.277v-.003zm431.834 45.737l7.53 2.279-10.69 7.927-7.65-1.587 10.81-8.619zm-8.4-2.469l7.57 2.22-10.89 8.682-7.69-1.564 11.01-9.338zm-503.653-33.576l-8.712.987c-1.271-4.711-2.483-9.6-3.683-14.516l8.253.295 4.142 13.234zm9.459-1.014l-8.676.928-4.138-13.109 8.232.319 4.567 11.874.015-.012zm9.418-.943l-8.641.863c-1.552-3.807-3.05-7.777-4.549-11.746l8.215.351 4.96 10.544.015-.012zm9.358-.928l-8.572.848c-1.676-3.381-3.311-6.899-4.946-10.416l8.174.349 5.32 9.231.024-.012zm9.356-.819l-8.537.745c-1.791-2.956-3.547-6.03-5.321-9.104l8.147.396 5.696 7.975.015-.012zm9.27-.81l-8.416.736c-1.898-2.548-3.772-5.196-5.643-7.845l8.07.394 5.962 6.727.027-.012zm9.24-.715l-8.33.636c-1.983-2.141-3.949-4.366-5.912-6.589l7.996.428c2.063 1.886 4.139 3.749 6.231 5.537l.015-.012zm9.137-.68l-8.12.591c-2.069-1.75-4.1-3.57-6.142-5.388l7.836.428 6.411 4.381.015-.012zm9.004-.621l-7.836.533-6.246-4.198 7.603.441 6.464 3.251.015-.027zm8.833-.543l-7.39.452-6.152-3.027 7.168.431 6.359 2.155.015-.011zm8.155-.503l-6.264.387-5.598-1.868 6.207.387 5.655 1.094zm6.284-.296l-3.34.16-3.021-.591 6.347.434.014-.003zm-92.817 21.283l-9.211 2.247-3.997-13.994 8.75-.99 4.452 12.749.006-.012zm9.917-2.297l-9.164 2.129-4.434-12.643 8.724-.931c1.584 3.905 3.222 7.688 4.874 11.445zm9.873-2.228l-9.128 2.069-4.842-11.357 8.697-.872c1.723 3.461 3.493 6.813 5.264 10.16h.009zm9.802-2.173l-9.057 2.004-5.226-10.08 8.643-.848c1.85 3.045 3.742 5.983 5.631 8.924h.009zm9.787-2.031l-9.021 1.871-5.587-8.838 8.622-.751c1.972 2.631 3.976 5.167 5.977 7.718h.009zm9.678-2.007l-8.891 1.842-5.912-7.63 8.525-.744 6.269 6.532h.009zm9.672-1.853l-8.85 1.682-6.19-6.441 8.487-.642 6.544 5.401h.009zm9.545-1.803l-8.643 1.631-6.438-5.303 8.327-.62 6.745 4.292h.009zm9.459-1.697l-8.445 1.505-6.592-4.186 8.167-.544 6.849 3.225h.021zm9.317-1.587l-8.114 1.38-6.624-3.107 7.869-.484 6.849 2.211h.02zm8.91-1.502l-7.423 1.247-6.447-2.069 7.331-.413 6.539 1.235zm8.545-1.298l-6.464.982-5.637-1.07 6.453-.314 5.628.402h.02zm6.149-.931l-3.021.458-2.956-.212 5.956-.231.021-.015zm-105.774 34.33l-9.628 3.459-4.256-13.453 9.249-2.255 4.614 12.249h.021zm10.346-3.529l-9.613 3.252c-1.576-3.967-3.118-8.024-4.626-12.17l9.226-2.134a344.72 344.72 0 0 0 4.989 11.052h.024zm10.266-3.458l-9.536 3.213-5.001-10.961 9.181-2.069c1.744 3.325 3.52 6.621 5.332 9.817h.024zm10.198-3.352l-9.459 3.106c-1.803-3.171-3.577-6.438-5.321-9.754l9.122-2.013c1.833 2.938 3.719 5.849 5.635 8.661h.023zm10.169-3.199l-9.427 2.956c-1.906-2.79-3.786-5.672-5.661-8.572l9.099-1.889 5.965 7.505h.024zm10.05-3.154l-9.279 2.918c-2.004-2.415-3.981-4.916-5.959-7.428l8.986-1.866 6.214 6.376h.038zm10.05-2.956l-9.275 2.708c-2.087-2.048-4.139-4.177-6.208-6.308l8.977-1.697 6.483 5.306.023-.009zm9.906-2.888l-9.063 2.643-6.456-5.22 8.803-1.667 6.686 4.253.03-.009zm9.849-2.743l-8.93 2.474-6.633-4.164 8.691-1.535 6.849 3.234.023-.009zm9.755-2.622l-8.691 2.336-6.739-3.143 8.442-1.439 6.97 2.255.018-.009zm9.459-2.503l-8.217 2.169-6.746-2.166 8.049-1.319 6.914 1.316zm9.379-2.3l-7.747 1.898-6.468-1.227 7.559-1.147 6.645.485.011-.009zm8.416-2.069l-6.207 1.522-5.732-.411 5.912-.886 6.015-.21.012-.015zm5.699-1.315l-2.394.532-2.187.076 4.581-.608zm-118.478 48.518l-10.071 4.644c-1.52-4.174-2.956-8.572-4.417-12.941l9.669-3.473 4.819 11.755v.015zm10.774-4.7l-10.05 4.387c-1.641-3.793-3.225-7.742-4.804-11.718l9.658-3.284 5.196 10.6v.015zm10.665-4.65l-9.961 4.343c-1.756-3.429-3.474-6.967-5.182-10.553l9.589-3.231 5.554 9.427v.014zm10.609-4.481l-9.911 4.18-5.525-9.385 9.536-3.122 5.9 8.313v.014zm10.544-4.327l-9.84 4.038-5.865-8.277 9.498-2.985 6.207 7.209v.015zm10.408-4.251l-9.695 3.958-6.164-7.165 9.365-2.956 6.494 6.148v.015zm10.429-4.005l-9.69 3.721-6.438-6.098 9.38-2.737 6.748 5.099v.015zm10.245-3.934l-9.459 3.635-6.677-5.06 9.193-2.684 6.943 4.094v.015zm10.207-3.749l-9.373 3.429-6.87-4.058 9.125-2.51 7.118 3.125v.014zm10.08-3.6l-9.125 3.252-7.002-3.089 8.906-2.392 7.233 2.214-.012.015zm9.838-3.461l-8.741 3.068-7.05-2.167 8.614-2.24 7.177 1.339zm9.843-3.252l-8.469 2.797-6.905-1.289 8.348-2.049 7.026.526v.015zm9.247-3.053l-7.535 2.489-6.562-.509 7.39-1.812 6.707-.183v.015zm8.8-2.737l-6.542 1.992-5.38.118 6.766-1.499 5.156-.626v.015zm6.532-1.975l-2.826.854-2.119.24 4.945-1.109v.015zm-132.806 64.096l-10.438 5.705-4.821-12.317 10.11-4.662c1.679 3.858 3.414 7.559 5.149 11.259v.015zm11.111-5.847l-10.413 5.466-5.144-11.233 10.11-4.407c1.791 3.494 3.618 6.846 5.447 10.174zm10.988-5.764l-10.296 5.401-5.439-10.103 10.012-4.366c1.892 3.1 3.804 6.104 5.729 9.068h-.006zm10.937-5.539l-10.269 5.182-5.711-9.013 9.97-4.2 6.031 8.031h-.021zm10.887-5.395l-10.175 5.052-5.991-7.981 9.908-4.064 6.258 6.993zm10.727-5.273l-10.05 4.931c-2.093-2.259-4.168-4.585-6.237-6.941l9.778-3.982 6.503 5.992h.006zm10.742-5.025l-10.027 4.691c-2.169-1.93-4.321-3.931-6.47-5.944l9.781-3.757 6.71 5.01h.006zm10.547-4.933l-9.805 4.587-6.683-4.963 9.583-3.68 6.899 4.056h.006zm10.55-4.73l-9.755 4.348-6.861-4.005 9.539-3.47 7.077 3.139v-.012zm10.426-4.57l-9.548 4.183-7.012-3.08 9.312-3.329 7.242 2.238.006-.012zm10.207-4.401l-9.232 3.973-7.127-2.191 9.055-3.145 7.304 1.363zm10.233-4.177l-9.039 3.689-7.124-1.33 8.85-2.923 7.307.576.006-.012zm9.737-3.973l-8.3 3.385-7.038-.541 8.117-2.684 7.215-.148.006-.012zm9.622-3.706l-7.821 2.956-6.577.147 7.839-2.364 6.553-.727.006-.012zm8.685-3.275l-6.03 2.273-5.513.626 5.912-1.791 5.625-1.097.006-.011zm5.19-1.96l-1.247.473-1.658.325 2.9-.786.005-.012zm-145.094 80.067l-10.851 6.745c-1.67-3.783-3.228-7.901-4.824-11.903l10.476-5.723 5.199 10.881zm11.487-6.947l-10.804 6.533c-1.774-3.464-3.467-7.183-5.179-10.836l10.455-5.487 5.534 9.79h-.006zm11.339-6.857l-10.671 6.452c-1.871-3.133-3.683-6.452-5.504-9.754l10.346-5.427 5.835 8.729h-.006zm11.319-6.565l-10.663 6.169c-1.959-2.809-3.887-5.741-5.808-8.685l10.325-5.205 6.152 7.721h-.006zm11.191-6.433l-10.532 6.054c-2.069-2.498-4.091-5.072-6.119-7.685l10.237-5.084 6.42 6.715h-.006zm11.07-6.266l-10.414 5.888-6.382-6.677 10.116-4.96 6.686 5.749h-.006zm11.05-6.009l-10.373 5.642-6.645-5.716 10.112-4.73 6.912 4.804h-.006zm10.839-5.895l-10.142 5.516-6.864-4.771 9.906-4.635 7.106 3.89h-.006zm10.849-5.637l-10.119 5.238-7.047-3.857 9.897-4.393 7.275 3.012h-.006zm10.68-5.471l-9.867 5.055-7.201-2.983 9.675-4.242 7.399 2.17h-.006zm10.49-5.285l-9.589 4.824-7.304-2.143 9.459-4.044 7.434 1.363zm10.533-5.049l-9.46 4.538-7.298-1.34 9.32-3.804 7.443.606h-.005zm10.115-4.853l-8.868 4.256-7.242-.591 8.699-3.547 7.417-.118h-.006zm10.16-4.615l-8.682 3.905-6.988.08 8.608-3.252 7.068-.733h-.006zm9.704-4.333l-7.712 3.441-6.397.623 7.355-2.775 6.754-1.289zm8.425-3.73l-5.835 2.577-5.407.958 6.231-2.161 5.011-1.368v-.006zm5.418-2.229l-.887.36-.591.142c.503-.159.993-.334 1.478-.496v-.006zm-158.704 97.049l-11.156 7.685-5.35-11.173 10.849-6.749c1.841 3.55 3.765 6.852 5.657 10.243v-.006zm11.753-7.958l-11.076 7.499-5.649-10.203 10.843-6.557c1.924 3.208 3.911 6.211 5.882 9.267v-.006zm11.594-7.851l-10.937 7.39-5.877-9.216 10.718-6.48c2.01 2.87 4.053 5.584 6.096 8.312v-.006zm11.608-7.502l-10.958 7.077-6.086-8.277 10.718-6.207c2.09 2.557 4.203 4.995 6.326 7.413v-.006zm11.439-7.39l-10.795 6.973-6.314-7.348 10.589-6.086 6.52 6.467v-.006zm11.345-7.182l-10.703 6.769-6.503-6.424 10.485-5.911 6.721 5.566zm11.304-6.935l-10.641 6.533-6.705-5.54 10.45-5.684 6.896 4.697v-.006zm11.088-6.799l-10.417 6.391-6.875-4.658 10.227-5.567 7.065 3.837v-.003zm11.138-6.523l-10.437 6.095-7.036-3.802 10.243-5.288 7.23 2.998v-.003zm10.955-6.347l-10.201 5.912-7.183-2.956 9.994-5.119 7.39 2.163zm10.786-6.148l-9.952 5.666-7.322-2.146 9.79-4.892 7.484 1.372zm10.816-5.912l-9.84 5.368-7.39-1.354 9.672-4.641 7.558.627zm10.426-5.675l-9.302 5.072-7.432-.615 9.146-4.386 7.588-.071zm10.464-5.43l-9.163 4.729-7.364.068 9.188-4.1 7.339-.703v.006zm10.089-5.144l-8.41 4.286-7.041.666 8.345-3.722 7.106-1.236v.006zm9.306-4.7l-7.21 3.63-6.616 1.144 7.825-3.301 6.001-1.473zm9.131-4.318l-5.954 2.814-4.827 1.182 6.335-2.607 4.446-1.395v.006zm5.849-2.767l-1.209.574-1.56.487 2.758-1.067.011.006zM894.36 404.936l-6.29 4.381c-122.523 66.417-247.827 79.579-319.645-67.427l11.188-7.701c75.614 134.826 197.034 127.38 314.747 70.747zm11.824-8.38l-7.608 5.448c-118.766 58.391-241.88 67.617-318.277-68.282l11.112-7.525c80.411 124.136 200.344 119.756 314.767 70.359h.006zm11.443-8.391l-8.549 6.269c-115.053 50.508-236.044 56.012-317.005-68.678l10.972-7.431c85.15 113.253 203.49 111.953 314.576 69.84h.006zm11.342-8.647l-8.995 6.911c-111.526 42.938-230.667 45.09-316.272-68.53l11.005-7.094c89.847 102.053 206.561 103.608 314.256 68.713h.006zm11.44-8.906l-9.755 7.6c-107.944 35.433-225.143 34.401-315.315-67.836l10.849-7.005c94.606 90.895 209.798 95.101 314.215 67.241h.006zm11.404-9.139l-10.018 8.028c-104.571 28.253-220.114 24.43-314.957-66.544l10.772-6.798c99.309 79.608 213.022 86.28 314.197 65.314h.006zm11.377-9.397l-10.156 8.418c-101.269 21.283-215.246 14.895-314.768-64.735l10.715-6.573c103.977 68.199 216.239 77.122 314.203 62.89h.006zm11.529-9.705l-10.494 8.842c-98.003 14.448-210.433 5.74-314.573-62.444l10.491-6.438c108.703 56.83 219.683 67.764 314.57 60.04h.006zm11.608-10.005l-10.707 9.228c-94.887 7.872-205.958-2.909-314.776-59.692l10.541-6.139c113.362 45.346 223.094 58.018 314.936 56.603h.006zm11.67-10.346l-10.845 9.63c-91.796 1.517-201.56-11.061-314.999-56.337l10.293-5.971c118.041 33.846 226.635 48.016 315.545 52.681l.006-.003zm11.793-10.641l-11.057 9.985c-88.83-4.615-197.4-18.726-315.451-52.509l10.128-5.735c122.72 22.329 230.303 37.738 316.38 48.264v-.005zm11.92-10.937l-11.24 10.322c-85.956-10.497-193.435-25.876-316.079-48.182l10.015-5.465c127.341 10.804 233.99 27.173 317.294 43.325h.01zm11.96-11.256l-11.35 10.667c-83.168-16.142-189.651-32.515-316.817-43.33l9.521-5.194c132.058-.754 237.965 16.299 318.646 37.857zm12.08-11.591l-11.49 11.035c-80.517-21.555-186.196-38.643-317.936-38.007l9.59-4.89c136.578-12.27 241.743 5.182 319.836 31.851v.011zm12.17-11.885l-11.62 11.35c-77.88-26.65-182.682-44.161-318.707-32.172l8.868-4.517c141.192-23.824 245.793-6.228 321.459 25.327v.012zm-14.34 25.456l11.29-10.369 7.53 2.793-11.19 9.754-7.63-2.19v.012zm-11.77 10.559l11.16-10.015 7.61 2.155-11.06 9.394-7.71-1.546v.012zm-11.66 10.221l11.01-9.645 7.69 1.528-10.94 9.045-7.76-.928zm-11.51 9.905l10.8-9.287 7.72.925-10.73 8.69-7.79-.336v.008zm-11.341 9.581l10.561-8.921 7.74.334-10.49 8.32-7.811.258v.009zm-11.312 9.252l10.443-8.54 7.73-.248-10.304 7.945-7.869.834v.009zm-11.079 8.867l10.112-8.084 7.783-.825-10.136 7.57-7.759 1.339zm-10.801 8.507l9.651-7.59 7.662-1.322-9.784 7.151-7.529 1.761zm-10.793 8.182l9.403-7.129 7.39-1.726-9.299 6.621-7.494 2.226v.008zm-10.508 7.78l8.903-6.579 7.177-2.09-8.903 6.059-7.177 2.61zm-10.142 7.361l8.093-5.877 6.648-2.341-7.951 5.294-6.799 2.935.009-.011zm-9.663 6.727l7.068-4.886 5.616-2.329-6.648 4.301-6.036 2.914zm-7.816 5.404l3.929-2.717 4.156-1.98-5.058 3.092-3.021 1.605h-.006zm-359.397-42.687c64.961 152.916 186.191 142.263 308.309 74.244-129.138 81.261-257.51 101.421-319.66-66.212l11.357-8.032h-.006zm-5.321-12.95c1.635 4.248 3.352 8.25 5.058 12.288l-11.313 8.008-4.729-13.34 10.981-6.956h.003zm-4.812-13.715l4.543 13.059-10.937 6.935c-1.478-4.508-2.847-9.294-4.227-14.064l10.618-5.93h.003zm-4.73-14.221c1.446 4.679 2.986 9.087 4.508 13.55l-10.594 5.912-4.156-14.611 10.231-4.851h.011zm-4.221-14.945l4.029 14.265-10.213 4.83c-1.262-4.951-2.412-10.221-3.579-15.433l9.751-3.662h.012zm-4.052-15.507l3.86 14.833-9.731 3.65-3.444-16.047 9.303-2.436h.012zm-3.713-16.107l3.547 15.427-9.285 2.427-3.068-16.748 8.794-1.106h.012zm-3.373-16.727l3.216 16.045-8.764 1.105-2.732-17.41 8.268.26h.012zm-3.21-17.363c.969 5.708 2.031 11.173 3.08 16.662l-8.25-.257-2.533-18.058 7.703 1.653zm-2.714-17.931l2.575 17.189-7.668-1.647c-.748-6.015-1.377-12.341-2.025-18.622l7.106 3.08h.012zm-2.69-18.672c.787 6.145 1.706 11.933 2.575 17.862l-7.094-3.059-1.978-19.296 6.485 4.493h.012zm-2.069-19.04l1.966 18.123-6.453-4.472c-.529-6.299-.913-12.988-1.345-19.556l5.823 5.905h.009zm-2.069-19.905l1.936 18.794-5.782-5.859-1.3-20.209 5.149 7.274h-.003zm-1.534-20.156l1.43 18.802-4.614-6.526-.018-.024-.026-.026-.426-.423-.768-20.012.647.922c1.242 2.495 2.516 4.869 3.778 7.287h-.003zm-1.434-21.076l1.298 19.299-3.024-5.841v-.02l-.021-.027-1.283-1.821-.662-20.44 1.345 2.66c.76 2.126 1.561 4.145 2.35 6.19h-.003zm-.993-21.206l.887 18.977-1.608-4.215v-.02-.018l-1.993-3.952-.224-20.1 1.572 4.372c.435 1.7.905 3.314 1.381 4.957h-.015zm-.828-22.095l.68 18.965-.559-2.016v-.015l-2.255-6.278-.118-20.289 1.708 6.831c.169.952.358 1.874.547 2.802h-.003zm-.449-21.927l.372 18.149-2.149-8.602.258-18.951 1.404 8.531.118.872h-.003zm-.257-22.288l.153 17.204-1.362-8.277.295-18.543.914 9.616zm.074-20.153l-.048 13.157-.759-7.916.482-13.361.325 8.12zm.068-18.291v2.332l-.054-1.315.068-1.853-.014.837zm.555 38.409v-1.995l.11 3.207-.11-1.212zm.258 22.276l-.296-14.109.677 8.619.556 12.651-.935-7.162h-.002zm.449 21.915l-.319-15.616 1.404 10.641.907 15.096-1.989-10.121h-.003zm.828 22.069l-.748-18.055 2.223 11.271 1.33 16.875-2.803-10.091h-.002zm.993 21.164l-.846-18.031 2.995 10.777 1.478 16.799-3.624-9.545h-.003zm1.436 21.034l-1.333-18.802 3.757 9.855 1.972 17.44-4.393-8.502-.003.009zm1.529 20.101l-1.396-18.327 4.496 8.684 2.028 16.888-5.125-7.254-.003.009zm2.069 19.84l-1.951-18.49 5.199 7.352 2.572 17.035-5.832-5.897h.012zm2.054 18.956c-.724-5.731-1.3-11.865-1.933-17.842l5.879 5.956 2.534 16.373-6.492-4.487h.012zm2.681 18.575l-2.548-17.638 6.503 4.499c.982 5.563 2.07 10.795 3.125 16.178l-7.092-3.039h.012zm2.696 17.827c-.925-5.489-1.738-11.288-2.578-17.014l7.13 3.045 3.11 15.604-7.662-1.635zm3.193 17.26l-3.057-16.515 7.703 1.641c1.144 5.196 2.365 10.153 3.589 15.161l-8.247-.287h.012zm3.343 16.624l-3.213-15.924 8.276.296 3.689 14.632-8.764.996h.012zm3.698 16.024l-3.547-15.341 8.785-1.005 4.02 14.085-9.27 2.261h.012zm4.014 15.43l-3.843-14.75 9.3-2.27 4.262 13.535-9.731 3.485h.012zm4.203 14.868c-1.398-4.564-2.698-9.397-4.014-14.188l9.74-3.5 4.434 13.006-10.171 4.682h.011zm4.697 14.168l-4.504-13.488 10.198-4.703c1.56 4.269 3.201 8.306 4.827 12.383l-10.532 5.808h.011zm4.763 13.686c-1.579-4.138-3.051-8.611-4.544-13.006l10.553-5.826 4.839 11.953-10.848 6.879zm5.32 12.902l-5.043-12.246 10.875-6.893c1.736 3.893 3.568 7.502 5.368 11.215l-11.209 7.91.009.014zm320.807 67.017c-126.129 74.288-253.393 91.338-320.544-66.369l11.233-7.952c70.695 145.136 193.321 134.749 314.121 71.161l-4.81 3.16zm25.386-15.723l-3.801 2.492-4.458 2.56 4.848-3.375 3.411-1.677zm12.915-8.498l-7.296 4.815-4.983 2.507 6.435-4.729 5.844-2.593zm11.567-7.998l-8.171 5.651-6.343 2.823 7.981-5.885 6.533-2.589zm11.38-8.112l-8.646 6.208-7.095 2.817 8.511-6.539c2.421-.792 4.821-1.655 7.23-2.486zm11.401-8.326l-9.355 6.843-7.441 2.574 9.285-7.307 7.511-2.11zm11.233-8.516l-9.622 7.295-7.735 2.22 9.858-7.898 7.499-1.603v-.014zm11.301-8.797l-9.912 7.741-7.685 1.7 9.973-8.303 7.624-1.138zm11.496-9.143l-10.346 8.232-7.745 1.183 10.331-8.741 7.76-.674zm11.513-9.42l-10.559 8.637-7.809.686 10.612-9.149 7.756-.174zm11.551-9.711l-10.679 8.998-7.813.178 10.728-9.545 7.764.369zm11.69-10.011l-10.91 9.352-7.805-.366 10.975-9.926 7.74.94zm11.8-10.322l-11.09 9.704-7.78-.94 11.17-10.272 7.7 1.508h0zm11.88-10.642l-11.24 10.071-7.73-1.513 11.29-10.642 7.67 2.073.01.011zm11.95-10.937l-11.35 10.405-7.68-2.069 11.42-10.99 7.6 2.631.01.023zm12.05-11.276l-11.49 10.727-7.62-2.675 11.59-11.328 7.52 3.276zm1.98-77.49c-68.239-29.559-164.894-28.95-301.871 33.476l-18.469 7.236-20.547 7.003-19.862 5.551-18.599 3.952-19.716 2.619-17.768.739-17.881-1.183-17.115-3.328-16.084-5.616-15.566-8.365c-4.704-3.524-9.393-7.153-14.067-10.887a556.24 556.24 0 0 1-13.577-14.558c-3.877-5.457-7.708-11.085-11.493-16.884a605.67 605.67 0 0 1-11.289-22.675c-2.805-7.39-5.522-15.075-8.182-22.897-2.797-10.345-5.457-21.084-8.017-32.119-1.705-9.553-3.299-19.423-4.803-29.532-1.478-13.707-2.735-28.004-3.873-42.618l-1.203-35.193-.068-1.661.068-18.259.163-23.414 3.905-83.129 5.708-122.284h-.698l-5.705 122.251-3.086 65.581.225-31.141.993-156.691h-.695l-.993 156.688-.349 48.696-.162 3.491-.429 11.794-1.972-49.86-6.999-170.808h-.698l7.003 170.853 2.335 59-.621 17.242-7.768-81.616-16.028-165.464h-.697l16.033 165.532 8.277 86.845-.423 19.888-20.692-128.036-23.491-144.225h-.703L484.1-97.901l21.339 131.893-.275 20.216-44.183-182.842-27.254-113.637h-.719l27.293 113.803L505.09 56.909l.056 20.919C473.836-9.62 448.125-89.045 425.122-160.1l-26.802-82.174h-.733l26.873 82.381 80.698 239.844.23 20.691C452.601-4.426 412.837-100.405 377.98-184.533l-24.047-57.738h-.757l24.15 58.007c34.999 84.477 74.949 180.902 128.095 286.496l.63 20.801C425.468 8.607 370.569-101.472 322.824-197.217l-22.569-45.054h-.78l22.722 45.364C370.084-100.904 425.139 9.511 506.101 124.31l.78 20.337C393.771 32.074 324.465-90.461 263.9-197.536l-25.449-44.735h-.804l25.647 45.077c60.671 107.283 130.122 230.08 243.614 342.867l1.265 20.218-.133-.133-.027-.029-.032-.021C359.233 66.628 277.198-68.301 204.665-187.605l-33.586-54.666h-.825l33.816 55.03C276.634-67.89 358.704 67.107 507.588 166.269c.224.234.452.459.68.686l1.359 19.805-1.614-1.12-.035-.024-.036-.015c-185.319-75.278-277.945-223.323-360.925-355.94l-45.906-71.944h-.837c15.407 23.174 30.609 47.472 46.152 72.311 83.025 132.703 175.709 280.839 361.221 356.206l2.045 1.416 1.972 19.509-3.71-1.605h-.035-.039C285.183 162.252 183.633-.79 91.779-148.291c-20.287-32.571-40.104-64.389-60.651-93.998h-.848c20.624 29.722 40.512 61.666 60.908 94.38C183.118-.306 284.751 162.858 507.718 206.21l4.035 1.744 2.016 18.782-5.874-1.262h-.068c-260.558-4.759-369.654-185-468.819-348.814-25.28-41.764-49.915-82.47-76.25-118.922h-.857c26.43 36.541 51.139 77.374 76.513 119.283C137.652 40.98 246.846 221.386 507.759 226.168l6.098 1.31 2.551 18.202-8.59-.269h-.056C208.974 284.367 93.461 84.562-11.421-96.858c-30.059-51.994-59.25-102.479-91.635-145.416h-.887c32.483 42.997 61.753 93.62 91.899 145.768C92.946 85.091 208.578 285.103 507.804 246.085l8.687.269 2.729 17.529-11.476 1.445h-.02-.021C170.328 352.232 49.343 130.42-59.816-69.713c-34.434-63.129-67.692-124.105-106.197-172.581h-.886c38.617 48.501 71.957 109.623 106.477 172.921 109.28 200.356 230.398 422.401 568.279 335.388l11.493-1.448 3.086 16.848-14.73 3.861h-.018C131.333 423.659 5.718 177.342-106.379-42.469c-38.33-75.163-75.082-147.222-119.741-199.799h-.913c44.777 52.55 81.612 124.775 120.031 200.116C5.227 177.919 130.99 424.522 507.913 285.955l14.665-3.843 3.44 16.139-18.327 6.982h-.02C91.867 498.089-37.602 224.681-151.404-15.638c-41.774-88.208-81.435-171.967-132.372-226.633h-.952c51.077 54.587 90.826 138.517 132.694 226.929C-38.095 225.27 91.539 499.006 507.942 305.889l18.236-6.949 3.597 15.507-22.119 10.745C152.967 519.747-5.976 379.32-112.92 184.23c-30.497-55.637-56.77-115.713-82.144-173.743-44.866-102.591-86.932-198.776-144.61-252.757h-1.008c57.849 53.797 100.01 150.193 144.985 253.027 25.383 58.045 51.665 118.143 82.177 173.808C-6.401 379.977 152.784 520.652 507.975 325.815l21.969-10.674c1.315 5.088 2.752 9.841 4.156 14.682l-26.459 15.318C160.115 561.911-10.203 462.352-120.18 285.934c-47.119-75.589-83.176-165.292-117.335-250.281-47.201-117.442-90.79-225.888-155-275.787-.946-.736-1.903-1.437-2.858-2.146h-1.177l3.592 2.696c64.062 49.78 107.618 158.141 154.784 275.491 34.171 85.019 70.237 174.752 117.388 250.391 110.169 176.737 280.771 276.496 628.767 59.431l26.308-15.223 4.224 14.115-30.899 20.461c-350.357 242.09-530.341 168.753-644.306 3.721-60.929-88.228-103.019-202.675-142.183-309.154-40.819-110.986-78.461-213.325-130.977-268.391v1.002c52.153 55.08 89.661 157.063 130.327 267.641 39.172 106.516 81.289 221.002 142.259 309.31 114.184 165.345 294.46 238.874 645.271-3.547l30.742-20.363c1.522 4.611 3.118 9.012 4.729 13.381L507.6 385.034C149.716 653.988-39.505 600.577-157.771 443.097c-73.294-97.592-119.378-235.161-161.456-360.773-29.504-88.086-57.051-170.261-90.625-228.738v1.404c33.27 58.329 60.645 140.037 89.963 227.556 42.096 125.662 88.2 263.287 161.562 360.971 118.499 157.787 308.013 211.348 666.346-57.936l35.703-26.228c64.408 173.953 199.824 146.484 333.692 58.043a714.66 714.66 0 0 0 21.578-13.258c6.557-3.724 13.098-7.588 19.625-11.59a687.89 687.89 0 0 0 21.177-11.859 613.57 613.57 0 0 0 19.698-10.449 723.31 723.31 0 0 0 20.778-10.242 660.19 660.19 0 0 0 19.69-8.916c6.85-2.64 13.61-5.385 20.29-8.235 6.74-2.252 13.4-4.575 19.92-6.987l19.28-5.596 8.7-1.827v-.712l-1.7.357 1.69-.54v-.949l-5.74.591 5.74-2.383v-.736l-8.28 3.403-7.16.662 8.57-4.224 6.87.02v-.691c-1.82 0-3.65 0-5.49-.021l5.49-2.77v-.786l-7.05 3.547c-2.5 0-5.03-.044-7.57-.077l9.53-5.521 5.09.547v-.698l-4.09-.455 4.09-2.412v-.813l-5.26 3.109-7.65-.86 10.14-6.716 2.77.592v-.71l-1.98-.423 1.98-1.333v-.848l-2.93 1.978-7.63-1.606 10.56-7.827v-.887l-.11.083-7.58-2.294 7.69-6.278v-.925l-8.51 6.955-7.59-2.232 11.12-9.692 4.98 1.906v-.721l-4.39-1.685 4.39-3.893v-.954l-5.15 4.549-7.55-2.805 11.42-10.686 1.28.57v-.762l-.73-.328.73-.683v-.978l-1.44 1.356-7.53-3.287 8.97-8.9v-1.005l-9.69 9.616c-75.392-31.516-179.493-49.193-319.902-25.879l8.335-4.083c144.474-35.024 248.022-18.176 321.257 17.322v-.789c-72.768-35.214-175.349-52.024-318.088-18.031l7.423-3.512c140.409-43.709 240.176-31.628 310.675 3.222v-.833c-69.792-34.413-168.138-46.565-306.043-4.591l4.434-2.096c136.516-51.613 233.209-45.234 301.599-12.619v-.886c-66.36-31.576-159.233-38.534-289.178 8.081 130.338-56.804 223.128-56.458 289.178-27.765v-.94z" fill="url(#A)"/><rect width="31.943" height="33.943" rx="8" transform="matrix(.084553 .996419 .996419 -.084552 316 309.87)" fill="#fff"/><g class="B"><circle cx="6.25" cy="6.25" r="6.25" transform="matrix(-1 0 0 1 340.511 318.099)"/><g class="C"><path d="M334.261 317.349v.5m0 12v2"/></g></g><g fill="#1dbab5"><path d="M339.115 320.203a.5.5 0 0 1-.707-.707l.707.707zm.5-.5l-.5.5-.707-.707.5-.5.707.707zm-8.75.543a.5.5 0 0 1-.707.707l.707-.707zm-1.25-1.25l1.25 1.25-.707.707-1.25-1.25.707-.707zm-.207 9.5a.5.5 0 0 1 .707.707l-.707-.707zm-.5.5l.5-.5.707.707-.5.5-.707-.707z"/></g><g class="B C"><path d="M341.761 324.349h-1m-12 0h-2"/></g><path d="M337.658 328.453a.5.5 0 0 1 .707-.707l-.707.707zm1.25 1.25l-1.25-1.25.707-.707 1.25 1.25-.707.707z" fill="#1dbab5"/><g class="B"><use href="#C"/><path d="M335.761 325.349a1 1 0 1 0 2 0 1 1 0 1 0-2 0zm-5.5 1a1 1 0 1 0 2 0 1 1 0 1 0-2 0z"/><circle cx="334.261" cy="315.849" r="1" transform="rotate(180 334.261 315.849)"/><use href="#D"/><circle cx="340.261" cy="318.349" r="1" transform="rotate(180 340.261 318.349)"/><circle cx="328.261" cy="318.349" r="1" transform="rotate(180 328.261 318.349)"/><circle cx="328.261" cy="330.349" r="1" transform="rotate(180 328.261 330.349)"/><path d="M341.761 324.349a1 1 0 1 1 2 0 1 1 0 1 1-2 0zm-17 0a1 1 0 1 1 2 0 1 1 0 1 1-2 0z"/><circle cx="340.261" cy="330.349" r="1" transform="rotate(180 340.261 330.349)"/></g><rect width="30" height="32" rx="8" transform="matrix(-.862563 .505949 .505949 .862563 92.877 41)" fill="#fff"/><g class="B C"><path d="M80.763 60.428l-.63 2.419m.63-2.419l.63-2.419m-.63 2.419l-2.419-.63m3.302-2.757l-.252.968m-1.513 5.806l.252-.968m0 0l4.838 1.261m-3.578-6.099l4.838 1.261m5.281 5.51h0a1 1 0 0 1-1.22.716l-5.322-1.387m6.542.671l.484.126a1.5 1.5 0 0 0 1.83-1.073h0 0a1.5 1.5 0 0 0-1.073-1.83l-.484-.126m-.757 2.903l.757-2.903m0 0h0a1 1 0 0 0-.716-1.22l-5.322-1.387m0 0l-1.261 4.838m-6.627-4.31l.245-.941c.005-.017.003-.035-.003-.052s-.027-.013-.031.002l-.51 1.959c-.004.015.014.027.026.017s.024-.026.028-.044l.245-.941z"/><path d="M97.801 64.867l-3.974-1.036m-4.375.928l.252-.968m-1.703.589l.252-.968m-1.704.59l.252-.968"/></g><rect width="30" height="32" rx="8" transform="matrix(-.886187 -.463328 -.463328 .886187 451.412 64.8998)" fill="#fff"/><g class="B"><path d="M430.779 77.233c-.052 1.012-.405 1.986-.523 2.987-.178.791.559.946 1.184.774 4.046-1.512 9.595-7.407 8.24-12.197-.648-2.534-3.382-.888-6.041-2.278s-2.895-4.569-5.327-3.666c-4.721 1.645-6.325 9.567-5.248 13.762.172.634.788 1.117 1.32.535.756-.668 1.344-1.519 2.146-2.139 1.886-1.573 4.398-.159 4.249 2.222z" stroke-miterlimit="10"/><path d="M429.055 64.495c-1.118-.02-1.581.866-1.813 1.309" class="C"/></g></g><defs><linearGradient id="A" x1="-81.389" y1="230.073" x2="531.742" y2="152.777" gradientUnits="userSpaceOnUse"><stop stop-color="#fff" stop-opacity=".38"/><stop offset="1" stop-color="#fff" stop-opacity="0"/></linearGradient><clipPath id="B"><rect width="1296" height="351" rx="32" fill="#fff"/></clipPath><path id="C" d="M333.761 321.349a1 1 0 1 0 2 0 1 1 0 1 0-2 0z"/><path id="D" d="M333.261 332.849a1 1 0 1 1 2 0 1 1 0 1 1-2 0z"/></defs></svg>