<svg width="1296" height="138" viewBox="0 0 1296 138" fill="none" xmlns="http://www.w3.org/2000/svg">
<g clip-path="url(#clip0_2035_4525)">
<path d="M948.783 597.751C950.276 597.702 951.771 597.654 953.261 597.603C951.504 597.889 949.743 598.217 947.986 598.487C946.161 598.663 944.343 598.87 942.513 599.026C944.603 598.604 946.692 598.192 948.783 597.751ZM656.211 176.052C656.721 173.076 657.315 170.001 657.856 167.003C658.871 163.743 660.004 160.355 661.101 157.01C660.269 160.449 659.379 163.955 658.606 167.326C657.815 170.223 656.976 173.18 656.211 176.052ZM654.537 186.159C654.692 185.166 654.811 184.215 654.975 183.216C655.261 182.106 655.607 180.924 655.91 179.795C655.452 181.911 654.983 184.051 654.537 186.159ZM971.429 595.165C973.186 595.168 974.936 595.128 976.699 595.118C974.51 595.421 972.322 595.68 970.134 595.965C968.74 596.053 967.338 596.138 965.941 596.225C967.773 595.886 969.601 595.508 971.429 595.165ZM961.131 595.036C963.34 595.071 965.549 595.106 967.747 595.12C964.823 595.653 961.898 596.147 958.975 596.645C957.008 596.746 955.041 596.806 953.073 596.869C955.76 596.285 958.445 595.64 961.132 595.033L961.131 595.036ZM650.789 197.193C651.082 193.815 651.505 190.295 651.856 186.851C653.332 181.867 654.701 177.002 656.25 171.936C655.59 175.65 654.883 179.42 654.292 183.053C653.047 187.854 651.955 192.481 650.79 197.19L650.789 197.193ZM649.994 208.687C650.172 206.242 650.303 203.855 650.498 201.382C651.43 197.543 652.326 193.745 653.281 189.88C652.929 192.136 652.622 194.343 652.286 196.583C651.449 200.697 650.76 204.647 649.995 208.684L649.994 208.687ZM649.433 216.843C649.473 216.224 649.518 215.607 649.56 214.988L649.775 213.802C649.647 214.825 649.569 215.801 649.434 216.84L649.433 216.843ZM1004.61 593.503L1005.5 593.516C1004.83 593.552 1004.16 593.595 1003.49 593.627C1003.86 593.582 1004.23 593.547 1004.61 593.503ZM994.386 593.183C996.003 593.246 997.623 593.319 999.233 593.367C997.241 593.588 995.242 593.827 993.238 594.031C991.343 594.094 989.449 594.186 987.547 594.234C989.829 593.881 992.112 593.557 994.386 593.183ZM984.088 592.724C986.225 592.845 988.364 592.944 990.499 593.039C987.74 593.474 984.977 593.905 982.214 594.31C979.932 594.348 977.65 594.381 975.368 594.408C978.272 593.846 981.179 593.316 984.085 592.723L984.088 592.724ZM973.916 592.079C976.333 592.242 978.749 592.395 981.163 592.538C977.885 593.195 974.599 593.818 971.319 594.433C968.938 594.432 966.559 594.384 964.178 594.342C967.422 593.593 970.665 592.862 973.913 592.078L973.916 592.079ZM646.388 215.41C646.351 212.138 646.382 208.781 646.4 205.441C647.762 200.578 649.286 195.536 650.78 190.524C650.433 194.126 650.099 197.713 649.813 201.243C648.635 206.001 647.452 210.779 646.385 215.409L646.388 215.41ZM646.686 226.863C646.61 223.947 646.502 221.075 646.459 218.109C647.388 213.986 648.47 209.69 649.531 205.425C649.289 208.598 649.086 211.722 648.881 214.852C648.123 218.879 647.347 222.935 646.683 226.862L646.686 226.863ZM646.989 238.464C646.872 235.799 646.854 233.013 646.775 230.293C647.263 227.325 647.865 224.221 648.456 221.153C648.31 223.954 648.147 226.748 648.029 229.524C647.67 232.488 647.264 235.537 646.986 238.463L646.989 238.464ZM647.464 246.227C647.396 245.051 647.299 243.914 647.247 242.735C647.385 241.258 647.56 239.736 647.744 238.23C647.629 240.894 647.526 243.577 647.462 246.226L647.464 246.227ZM1026.44 592.768C1026.83 592.796 1027.23 592.831 1027.62 592.857C1026.8 592.867 1025.97 592.869 1025.15 592.879L1026.44 592.768ZM1016.22 592.027C1018.11 592.179 1020 592.299 1021.88 592.44C1019.54 592.617 1017.2 592.769 1014.85 592.927C1013.22 592.922 1011.58 592.884 1009.95 592.861C1012.05 592.603 1014.13 592.306 1016.22 592.027ZM1006.38 591.099C1008.58 591.326 1010.79 591.536 1012.98 591.729C1010.14 592.099 1007.3 592.451 1004.46 592.787C1002.27 592.74 1000.08 592.676 997.872 592.595C1000.72 592.121 1003.55 591.605 1006.38 591.099ZM996.555 590.043C998.927 590.326 1001.3 590.591 1003.66 590.84C1000.52 591.39 997.389 591.948 994.247 592.462C991.723 592.363 989.202 592.289 986.676 592.164C989.973 591.483 993.265 590.765 996.542 590.037L996.555 590.043ZM986.784 588.863C989.297 589.192 991.804 589.471 994.311 589.775C990.869 590.517 987.425 591.293 983.977 591.994C981.391 591.853 978.8 591.681 976.217 591.49C979.737 590.646 983.259 589.77 986.784 588.863ZM642.499 233.406C642.095 230.39 641.729 227.347 641.381 224.27C642.806 218.816 644.152 213.453 645.682 207.887C645.678 211.296 645.71 214.662 645.76 218.006C644.584 223.244 643.577 228.288 642.495 233.415L642.499 233.406ZM644.013 244.114C643.593 241.25 643.177 238.388 642.79 235.48C643.805 230.588 644.746 225.769 645.833 220.797C645.892 223.957 645.983 227.076 646.078 230.191C645.311 234.938 644.703 239.482 644.013 244.123L644.013 244.114ZM645.618 254.793C645.173 252.098 644.774 249.344 644.364 246.601C644.963 242.47 645.543 238.36 646.178 234.186C646.283 237.034 646.394 239.875 646.532 242.679C646.167 246.798 645.932 250.754 645.617 254.803L645.618 254.793ZM647.321 264.21C646.921 261.992 646.509 259.805 646.121 257.557C646.363 254.295 646.617 251.016 646.864 247.741C646.983 249.785 647.122 251.802 647.256 253.823C647.213 257.363 647.305 260.739 647.315 264.217L647.321 264.21ZM648.749 272.118C648.504 270.85 648.293 269.535 648.042 268.255C648.032 267.254 648.034 266.236 648.022 265.24C648.226 267.594 648.521 269.812 648.743 272.125L648.749 272.118ZM1047.95 592.992L1049.66 593.198C1048.44 593.158 1047.23 593.134 1046.02 593.085C1046.67 593.06 1047.3 593.021 1047.95 592.992ZM1038.07 591.723C1039.88 591.977 1041.68 592.232 1043.46 592.455C1041.24 592.536 1039 592.61 1036.77 592.662C1034.88 592.558 1033 592.485 1031.1 592.373C1033.43 592.165 1035.75 591.949 1038.07 591.723ZM1028.29 590.333C1030.58 590.679 1032.86 590.991 1035.14 591.311C1032.23 591.589 1029.29 591.816 1026.37 592.059C1024.14 591.908 1021.9 591.737 1019.66 591.569C1022.54 591.172 1025.42 590.76 1028.29 590.333ZM1018.75 588.813C1021.16 589.211 1023.57 589.599 1025.98 589.976C1022.7 590.454 1019.4 590.888 1016.11 591.324C1013.75 591.124 1011.37 590.887 1008.99 590.652C1012.25 590.05 1015.51 589.433 1018.76 588.802L1018.75 588.813ZM1009.33 587.153C1011.79 587.609 1014.25 588.068 1016.69 588.483C1013.22 589.143 1009.75 589.779 1006.27 590.391C1003.74 590.135 1001.22 589.881 998.684 589.595C1002.24 588.799 1005.79 587.981 1009.34 587.142L1009.33 587.153ZM999.976 585.387C1002.5 585.886 1005.03 586.366 1007.54 586.828C1003.85 587.684 1000.15 588.517 996.438 589.33C993.852 589.026 991.274 588.732 988.677 588.399C992.455 587.414 996.216 586.391 999.982 585.373L999.976 585.387ZM638.985 250.365C638.23 247.621 637.459 244.899 636.737 242.11C637.991 236.947 639.464 231.542 640.874 226.209C641.236 229.332 641.669 232.373 642.074 235.443C641.016 240.445 639.917 245.498 638.989 250.354L638.985 250.365ZM641.7 259.915C640.921 257.244 640.155 254.553 639.403 251.841C640.274 247.194 641.356 242.322 642.367 237.521C642.779 240.566 643.205 243.591 643.646 246.596C642.975 251.048 642.263 255.566 641.704 259.904L641.7 259.915ZM644.516 269.304C643.725 266.754 642.947 264.187 642.181 261.602C642.694 257.536 643.371 253.277 644.001 249.072C644.444 251.942 644.926 254.76 645.402 257.585C645.085 261.51 644.726 265.475 644.52 269.293L644.516 269.304ZM647.405 278.214C646.639 275.878 645.868 273.546 645.123 271.181C645.313 267.652 645.615 263.985 645.901 260.344C646.367 263.018 646.846 265.674 647.337 268.312C647.345 271.627 647.326 274.976 647.41 278.203L647.405 278.214ZM650.279 286.963C649.564 284.901 648.89 282.773 648.194 280.68C648.111 277.961 648.086 275.176 648.065 272.373C648.515 274.681 648.999 276.944 649.473 279.216C649.741 281.785 649.978 284.412 650.278 286.933L650.279 286.963ZM652.59 293.268C652.201 292.188 651.797 291.137 651.413 290.053C651.207 288.451 650.992 286.861 650.807 285.229C651.406 287.894 651.974 290.606 652.598 293.248L652.59 293.268ZM1068.42 594.254C1069.24 594.409 1070.04 594.545 1070.85 594.696C1069.16 594.546 1067.46 594.389 1065.75 594.225C1066.64 594.234 1067.54 594.25 1068.42 594.254ZM1059.1 592.413C1060.93 592.78 1062.77 593.152 1064.59 593.502C1062.38 593.484 1060.16 593.476 1057.92 593.425C1055.98 593.219 1054.03 593 1052.07 592.768C1054.41 592.669 1056.76 592.558 1059.1 592.413ZM1049.8 590.471C1051.96 590.943 1054.12 591.413 1056.25 591.848C1053.48 591.999 1050.71 592.155 1047.91 592.276C1045.59 592.001 1043.27 591.725 1040.95 591.411C1043.9 591.114 1046.86 590.816 1049.8 590.479L1049.8 590.471ZM1040.57 588.434C1042.91 588.974 1045.23 589.482 1047.57 589.996C1044.4 590.35 1041.22 590.689 1038.03 591.013C1035.56 590.679 1033.09 590.346 1030.61 589.977C1033.92 589.465 1037.26 588.983 1040.56 588.439L1040.57 588.434ZM1031.38 586.3C1033.83 586.889 1036.26 587.453 1038.69 588.015C1035.22 588.579 1031.73 589.094 1028.23 589.626C1025.74 589.246 1023.23 588.835 1020.73 588.42C1024.29 587.714 1027.85 587.028 1031.38 586.3ZM1022.37 584.036C1024.83 584.684 1027.3 585.311 1029.75 585.907C1026.07 586.667 1022.36 587.379 1018.67 588.093C1016.13 587.669 1013.58 587.217 1011.03 586.755C1014.83 585.837 1018.61 584.958 1022.37 584.036ZM1013.43 581.678C1015.93 582.343 1018.42 583.022 1020.9 583.659C1017.04 584.615 1013.13 585.515 1009.24 586.424C1006.65 585.948 1004.07 585.481 1001.48 584.965C1005.47 583.883 1009.45 582.783 1013.43 581.664L1013.43 581.678ZM636.033 267.268C634.916 264.839 633.76 262.467 632.663 260.002C633.891 254.517 635.018 249.145 636.365 243.526C637.098 246.354 637.907 249.066 638.675 251.844C637.704 257.086 636.917 262.118 636.041 267.255L636.033 267.268ZM639.952 275.667C638.808 273.272 637.686 270.841 636.566 268.411C637.407 263.409 638.178 258.492 639.113 253.381C639.883 256.144 640.658 258.903 641.464 261.607C640.875 266.386 640.464 270.972 639.96 275.655L639.952 275.667ZM643.962 283.849C642.815 281.544 641.661 279.259 640.537 276.92C641.02 272.451 641.441 268.012 641.98 263.457C642.765 266.086 643.593 268.653 644.408 271.246C644.207 275.505 644.117 279.636 643.97 283.836L643.962 283.849ZM648.023 291.869C646.88 289.647 645.749 287.404 644.631 285.14C644.761 281.174 644.877 277.229 645.055 273.199C645.858 275.726 646.672 278.238 647.496 280.733C647.64 284.502 647.858 288.162 648.023 291.869ZM652.121 299.723C651.009 297.638 649.905 295.537 648.808 293.422C648.632 290.067 648.461 286.707 648.329 283.314C649.109 285.624 649.918 287.891 650.72 290.168C651.175 293.386 651.664 296.543 652.135 299.729L652.121 299.723ZM656.08 306.96C655.083 305.147 654.083 303.341 653.097 301.509C652.69 298.829 652.295 296.133 651.91 293.423C652.604 295.357 653.305 297.277 654.016 299.184C654.697 301.81 655.407 304.372 656.098 306.955L656.08 306.96ZM659.465 313.143C658.797 311.964 658.159 310.726 657.494 309.541C657.186 308.407 656.892 307.254 656.583 306.116C657.526 308.512 658.525 310.796 659.479 313.149L659.465 313.143ZM1079.25 594.217C1081.16 594.755 1083.04 595.264 1084.93 595.784C1082.63 595.627 1080.3 595.457 1077.97 595.273C1076.13 594.95 1074.26 594.604 1072.4 594.262C1074.69 594.268 1076.97 594.24 1079.25 594.217ZM1070.41 591.659C1072.58 592.299 1074.74 592.925 1076.9 593.539C1074.09 593.555 1071.28 593.558 1068.45 593.556C1066.27 593.146 1064.06 592.706 1061.86 592.263C1064.72 592.077 1067.56 591.867 1070.4 591.656L1070.41 591.659ZM1061.6 589.017C1063.89 589.717 1066.18 590.422 1068.44 591.088C1065.33 591.309 1062.23 591.533 1059.09 591.715C1056.71 591.235 1054.33 590.741 1051.93 590.232C1055.17 589.852 1058.38 589.433 1061.6 589.016L1061.6 589.017ZM1052.85 586.304C1055.23 587.053 1057.58 587.788 1059.93 588.508C1056.55 588.939 1053.17 589.374 1049.77 589.764C1047.29 589.231 1044.81 588.701 1042.3 588.134C1045.84 587.549 1049.35 586.929 1052.85 586.303L1052.85 586.304ZM1044.15 583.524C1046.58 584.315 1048.97 585.075 1051.38 585.839C1047.77 586.481 1044.16 587.136 1040.53 587.727C1038.02 587.152 1035.49 586.558 1032.97 585.954C1036.7 585.162 1040.43 584.35 1044.15 583.518L1044.15 583.524ZM1035.56 580.656C1037.99 581.477 1040.41 582.283 1042.81 583.076C1038.99 583.92 1035.17 584.765 1031.34 585.56C1028.84 584.955 1026.31 584.305 1023.79 583.657C1027.72 582.677 1031.65 581.671 1035.57 580.639L1035.56 580.656ZM1027.04 577.714C1029.47 578.567 1031.89 579.414 1034.29 580.24C1030.31 581.279 1026.32 582.313 1022.32 583.305C1019.78 582.655 1017.25 581.99 1014.7 581.309C1018.83 580.104 1022.94 578.929 1027.04 577.708L1027.04 577.714ZM633.318 283.299C631.842 281.195 630.344 279.137 628.877 277.009C629.922 271.869 631.214 266.447 632.413 261.132C633.53 263.619 634.701 266.009 635.837 268.464C634.976 273.433 634.039 278.492 633.318 283.299ZM638.38 290.477C636.889 288.402 635.413 286.286 633.931 284.181C634.628 279.459 635.533 274.499 636.365 269.618C637.507 272.089 638.644 274.573 639.817 277.006C639.317 281.509 638.76 286.094 638.38 290.477ZM643.507 297.464C642.019 295.445 640.519 293.459 639.043 291.416C639.403 287.141 639.933 282.674 640.396 278.258C641.548 280.638 642.743 282.942 643.914 285.291C643.761 289.362 643.574 293.499 643.511 297.453L643.507 297.464ZM648.67 304.408C647.185 302.438 645.709 300.439 644.232 298.441C644.272 294.583 644.438 290.583 644.58 286.603C645.752 288.943 646.921 291.288 648.116 293.592C648.28 297.219 648.424 300.876 648.674 304.397L648.67 304.408ZM653.847 311.203C652.39 309.316 650.934 307.434 649.488 305.52C649.231 302.129 649.073 298.638 648.898 295.153C650.056 297.373 651.242 299.543 652.418 301.735C652.884 304.893 653.328 308.09 653.855 311.183L653.847 311.203ZM658.973 317.764C657.58 315.994 656.191 314.217 654.806 312.433C654.298 309.512 653.846 306.519 653.395 303.519C654.534 305.623 655.678 307.726 656.835 309.803C657.539 312.461 658.229 315.145 658.98 317.745L658.973 317.764ZM663.934 324.001C662.688 322.451 661.452 320.874 660.215 319.309C659.542 317.019 658.89 314.703 658.258 312.359C659.293 314.197 660.351 316 661.397 317.817C662.232 319.897 663.059 321.99 663.934 324.001ZM667.892 328.821C667.151 327.917 666.406 327.022 665.67 326.114C665.071 324.752 664.456 323.415 663.876 322.019C665.208 324.297 666.528 326.606 667.888 328.829L667.892 328.821ZM1073.64 587.36C1075.94 588.299 1078.23 589.232 1080.49 590.137C1077.15 590.427 1073.8 590.699 1070.43 590.953C1068.06 590.259 1065.67 589.541 1063.28 588.814C1066.75 588.343 1070.2 587.856 1073.64 587.36ZM1065.37 583.959C1067.71 584.93 1070.04 585.893 1072.34 586.834C1068.78 587.342 1065.21 587.831 1061.62 588.299C1059.2 587.561 1056.77 586.81 1054.32 586.047C1058.03 585.376 1061.7 584.669 1065.37 583.959ZM1057.14 580.513C1059.51 581.514 1061.85 582.493 1064.18 583.463C1060.42 584.188 1056.64 584.892 1052.85 585.577C1050.4 584.802 1047.95 584.032 1045.48 583.227C1049.39 582.35 1053.26 581.433 1057.14 580.513ZM1048.95 577.025C1051.33 578.047 1053.68 579.042 1056.02 580.039C1052.07 580.97 1048.11 581.883 1044.13 582.78C1041.7 581.986 1039.25 581.16 1036.79 580.329C1040.87 579.258 1044.91 578.142 1048.96 577.029L1048.95 577.025ZM1040.82 573.481C1043.18 574.525 1045.55 575.557 1047.88 576.571C1043.77 577.699 1039.65 578.812 1035.52 579.912C1033.09 579.085 1030.63 578.234 1028.18 577.375C1032.42 576.108 1036.62 574.794 1040.82 573.492L1040.82 573.481ZM631.249 299.256C629.405 297.481 627.569 295.726 625.736 293.939C626.698 288.639 627.602 283.406 628.694 277.953C630.177 280.097 631.686 282.182 633.186 284.307C632.442 289.417 631.892 294.281 631.257 299.259L631.249 299.256ZM637.413 305.202C635.561 303.447 633.739 301.658 631.9 299.886C632.511 295.01 633.079 290.188 633.796 285.188C635.297 287.32 636.791 289.469 638.304 291.568C637.939 296.206 637.701 300.689 637.421 305.205L637.413 305.202ZM643.61 311.025C641.772 309.297 639.931 307.597 638.097 305.855C638.366 301.429 638.609 297.038 638.968 292.507C640.469 294.58 641.999 296.58 643.514 298.629C643.491 302.837 643.574 306.908 643.618 311.028L643.61 311.025ZM649.824 316.851C647.993 315.148 646.163 313.42 644.334 311.703C644.285 307.692 644.21 303.716 644.241 299.6C645.756 301.646 647.267 303.702 648.792 305.723C649.097 309.494 649.48 313.157 649.832 316.854L649.824 316.851ZM656.04 322.567C654.232 320.905 652.418 319.263 650.614 317.58C650.267 314.015 649.914 310.463 649.615 306.824C651.114 308.797 652.628 310.724 654.137 312.672C654.741 316.021 655.408 319.283 656.049 322.571L656.04 322.567ZM662.24 328.22C660.465 326.611 658.691 324.994 656.919 323.369C656.299 320.233 655.677 317.1 655.096 313.912C656.569 315.821 658.066 317.736 659.561 319.624C660.448 322.519 661.351 325.363 662.249 328.223L662.24 328.22ZM668.362 333.733C666.663 332.22 664.967 330.696 663.274 329.162C662.437 326.522 661.608 323.868 660.787 321.201C662.201 322.978 663.628 324.725 665.063 326.489C666.155 328.908 667.266 331.322 668.37 333.737L668.362 333.733ZM674.191 338.907C672.681 337.568 671.167 336.231 669.657 334.883C668.691 332.796 667.734 330.698 666.785 328.59C668.04 330.141 669.302 331.677 670.571 333.2C671.778 335.118 672.992 337.008 674.199 338.91L674.191 338.907ZM678.929 343.106C677.985 342.275 677.037 341.412 676.086 340.584C675.454 339.603 674.835 338.607 674.208 337.625C675.777 339.485 677.368 341.274 678.937 343.11L678.929 343.106ZM1078.12 581.406C1080.38 582.609 1082.63 583.793 1084.85 584.958C1081.16 585.542 1077.45 586.102 1073.71 586.64C1071.37 585.682 1069.01 584.71 1066.63 583.726C1070.47 582.972 1074.3 582.199 1078.12 581.406ZM1070.36 577.291L1077.14 580.902C1073.25 581.706 1069.35 582.486 1065.42 583.241C1063.05 582.258 1060.68 581.274 1058.28 580.259C1062.33 579.283 1066.36 578.293 1070.36 577.291ZM1062.61 573.165L1069.42 576.793C1065.36 577.809 1061.28 578.802 1057.17 579.771C1054.81 578.771 1052.43 577.758 1050.03 576.731C1054.24 575.562 1058.43 574.373 1062.61 573.165ZM1054.87 569.027L1061.69 572.679C1057.46 573.897 1053.22 575.089 1048.95 576.255C1046.6 575.243 1044.22 574.201 1041.84 573.145C1046.2 571.805 1050.54 570.432 1054.87 569.027ZM629.369 314.566L622.843 310.272C623.645 305.233 624.638 299.974 625.589 294.768C627.426 296.559 629.295 298.336 631.144 300.122C630.521 304.971 629.849 309.864 629.369 314.566ZM636.589 319.304C634.424 317.886 632.246 316.451 630.075 315.024C630.548 310.38 631.192 305.543 631.8 300.748C633.641 302.531 635.504 304.345 637.366 306.107C637.076 310.544 636.757 315.014 636.589 319.304ZM643.803 324.015C641.64 322.601 639.484 321.199 637.315 319.776C637.473 315.536 637.774 311.129 638.045 306.755C639.894 308.516 641.759 310.238 643.615 311.983C643.66 316.027 643.668 320.101 643.802 324.017L643.803 324.015ZM651.012 328.723C648.867 327.326 646.716 325.913 644.559 324.508C644.421 320.644 644.395 316.645 644.346 312.676C646.202 314.42 648.053 316.178 649.916 317.903C650.269 321.535 650.589 325.195 651.011 328.726L651.012 328.723ZM658.203 333.386C656.072 332.004 653.951 330.635 651.817 329.245C651.395 325.78 651.062 322.202 650.712 318.651C652.562 320.361 654.415 322.031 656.265 323.726C656.9 326.956 657.508 330.23 658.202 333.389L658.203 333.386ZM665.365 338.029L659.076 333.954C658.385 330.86 657.772 327.686 657.15 324.514C658.986 326.187 660.828 327.862 662.661 329.534C663.558 332.395 664.424 335.256 665.364 338.031L665.365 338.029ZM672.46 342.607L666.347 338.665C665.431 335.981 664.564 333.231 663.694 330.479C665.49 332.102 667.287 333.696 669.087 335.301C670.197 337.756 671.301 340.227 672.459 342.609L672.46 342.607ZM679.407 347.076L673.626 343.356C672.523 341.085 671.45 338.771 670.379 336.449C672.106 337.984 673.833 339.515 675.563 341.043C676.835 343.069 678.105 345.101 679.392 347.073L679.407 347.076ZM686.016 351.32C684.321 350.236 682.613 349.134 680.912 348.047C679.747 346.288 678.592 344.512 677.446 342.718C678.995 344.079 680.544 345.423 682.094 346.765C683.399 348.296 684.699 349.829 686.015 351.323L686.016 351.32ZM691.228 354.635L688.214 352.71C687.374 351.745 686.52 350.813 685.679 349.848C687.515 351.457 689.372 353.069 691.223 354.649L691.228 354.635ZM1083.79 573.842C1085.97 575.268 1088.13 576.689 1090.26 578.092C1086.28 578.974 1082.25 579.821 1078.21 580.665L1071.38 577.032C1075.52 575.995 1079.68 574.93 1083.79 573.842ZM1076.48 569.069C1078.68 570.495 1080.85 571.911 1083 573.317C1078.84 574.416 1074.64 575.479 1070.43 576.536C1068.15 575.326 1065.88 574.116 1063.56 572.889C1067.89 571.631 1072.21 570.371 1076.48 569.069ZM1069.16 564.321C1071.37 565.748 1073.54 567.157 1075.7 568.566C1071.38 569.865 1067.03 571.14 1062.66 572.402L1055.79 568.727C1060.26 567.275 1064.73 565.816 1069.16 564.324L1069.16 564.321ZM628.089 329.595L620.553 326.32C621.237 321.276 621.917 316.233 622.738 311.04L629.3 315.358C628.813 320.2 628.465 324.884 628.088 329.597L628.089 329.595ZM636.309 333.191C633.821 332.094 631.313 331.002 628.809 329.905C629.171 325.253 629.531 320.603 630.007 315.814C632.195 317.253 634.391 318.699 636.571 320.126C636.408 324.571 636.366 328.863 636.308 333.194L636.309 333.191ZM644.499 336.815C642.015 335.716 639.539 334.614 637.037 333.512C637.094 329.248 637.146 324.981 637.298 320.595C639.488 322.03 641.667 323.446 643.854 324.873C644.007 328.934 644.262 332.863 644.498 336.817L644.499 336.815ZM652.659 340.426C650.208 339.334 647.715 338.241 645.249 337.147C645.014 333.244 644.765 329.365 644.607 325.372C646.783 326.794 648.971 328.227 651.142 329.638C651.597 333.3 652.137 336.852 652.658 340.429L652.659 340.426ZM660.784 344.078C658.333 342.976 655.904 341.877 653.437 340.775C652.912 337.258 652.399 333.757 651.946 330.163C654.118 331.577 656.274 332.969 658.442 334.372C659.184 337.661 659.989 340.87 660.783 344.08L660.784 344.078ZM668.86 347.71C666.457 346.624 664.028 345.538 661.613 344.45C660.837 341.288 660.047 338.155 659.312 334.939C661.458 336.331 663.615 337.729 665.756 339.112C666.767 342.021 667.817 344.856 668.859 347.713L668.86 347.71ZM676.872 351.349C674.504 350.271 672.148 349.178 669.759 348.113C668.745 345.34 667.722 342.574 666.74 339.753L673.079 343.828C674.327 346.369 675.603 348.854 676.871 351.352L676.872 351.349ZM684.782 354.961C682.494 353.911 680.199 352.863 677.895 351.817C676.667 349.43 675.447 347.018 674.246 344.584C676.304 345.912 678.36 347.235 680.414 348.554C681.857 350.72 683.322 352.829 684.78 354.963L684.782 354.961ZM692.491 358.497C690.34 357.505 688.179 356.512 686.008 355.518C684.642 353.528 683.277 351.535 681.92 349.523L687.757 353.261C689.332 355.016 690.914 356.754 692.49 358.5L692.491 358.497ZM699.773 361.871C697.892 361 696.013 360.123 694.106 359.245C692.727 357.726 691.352 356.204 689.979 354.679L695.095 357.956C696.654 359.267 698.212 360.564 699.77 361.877L699.773 361.871ZM705.273 364.42C704.253 363.944 703.216 363.47 702.194 362.993L699.624 360.835C701.512 362.043 703.388 363.227 705.272 364.423L705.273 364.42ZM1090.56 564.73C1092.65 566.361 1094.71 567.988 1096.74 569.604C1092.5 570.783 1088.21 571.941 1083.89 573.079C1081.73 571.662 1079.56 570.24 1077.35 568.805C1081.77 567.461 1086.19 566.109 1090.56 564.73ZM1083.64 559.364C1085.75 560.98 1087.83 562.59 1089.88 564.195C1085.47 565.584 1081.04 566.952 1076.57 568.3C1074.39 566.886 1072.22 565.47 1069.99 564.037C1074.56 562.496 1079.12 560.939 1083.64 559.364ZM627.056 344.142C624.252 343.381 621.411 342.635 618.586 341.879C619.124 337.028 619.781 332.034 620.459 327.02C622.992 328.117 625.517 329.214 628.034 330.31C627.655 334.991 627.293 339.643 627.056 344.142ZM636.232 346.653C633.443 345.876 630.627 345.114 627.816 344.348C628.051 339.874 628.403 335.262 628.752 330.633C631.271 331.732 633.798 332.835 636.299 333.937C636.233 338.217 636.165 342.508 636.214 346.658L636.232 346.653ZM645.343 349.215C642.566 348.426 639.78 347.642 636.984 346.863C636.93 342.751 636.985 338.509 637.04 334.266C639.558 335.374 642.057 336.485 644.559 337.594C644.772 341.51 645.001 345.426 645.325 349.221L645.343 349.215ZM654.394 351.769C651.663 350.977 648.868 350.211 646.104 349.428C645.779 345.668 645.542 341.796 645.305 337.925C647.797 339.029 650.314 340.131 652.787 341.235C653.284 344.783 653.789 348.334 654.368 351.772L654.394 351.769ZM663.402 354.424C660.661 353.619 657.946 352.801 655.183 352C654.595 348.594 654.084 345.091 653.556 341.581C656.052 342.697 658.513 343.812 660.995 344.925C661.771 348.126 662.54 351.33 663.384 354.43L663.402 354.424ZM672.328 357.056C669.652 356.251 666.92 355.462 664.225 354.668C663.389 351.603 662.612 348.453 661.837 345.304C664.294 346.407 666.765 347.513 669.206 348.617C670.216 351.456 671.233 354.303 672.299 357.058L672.328 357.056ZM681.191 359.766C678.53 358.947 675.888 358.123 673.204 357.315C672.14 354.598 671.123 351.808 670.108 349.022C672.553 350.13 674.953 351.24 677.394 352.341C678.626 354.851 679.878 357.342 681.173 359.771L681.191 359.766ZM689.945 362.47C687.369 361.663 684.764 360.863 682.17 360.055C680.883 357.67 679.657 355.233 678.42 352.795C680.804 353.882 683.185 354.982 685.558 356.056C686.994 358.216 688.444 360.379 689.927 362.476L689.945 362.47ZM698.553 365.181C696.067 364.386 693.571 363.597 691.064 362.814C689.62 360.781 688.203 358.704 686.783 356.625L693.7 359.812C695.297 361.617 696.908 363.427 698.53 365.201L698.553 365.181ZM706.974 367.901C704.634 367.141 702.293 366.382 699.93 365.623C698.382 363.958 696.846 362.257 695.309 360.558L701.824 363.578C703.527 365.034 705.241 366.484 706.956 367.907L706.974 367.901ZM714.75 370.412C712.781 369.764 710.76 369.129 708.777 368.485C707.267 367.236 705.757 365.975 704.248 364.701L709.885 367.329L714.75 370.412ZM720.708 372.433C719.647 372.077 718.605 371.715 717.54 371.361L714.944 369.707C716.85 370.62 718.779 371.523 720.693 372.43L720.708 372.433ZM626.53 358.342C623.433 357.898 620.264 357.493 617.135 357.068C617.531 352.319 617.995 347.49 618.526 342.582C621.363 343.34 624.217 344.092 627.032 344.856C626.789 349.435 626.638 353.913 626.52 358.35L626.53 358.342ZM636.601 359.826C633.51 359.363 630.407 358.907 627.293 358.46C627.404 354.058 627.561 349.611 627.783 345.072C630.612 345.842 633.441 346.612 636.244 347.391C636.292 351.605 636.435 355.725 636.601 359.826ZM646.606 361.357C643.539 360.874 640.455 360.405 637.352 359.949C637.189 355.891 637.06 351.792 636.993 347.609C639.81 348.393 642.615 349.181 645.407 349.974C645.747 353.825 646.171 357.593 646.597 361.354L646.606 361.357ZM656.524 362.915C653.502 362.419 650.418 361.952 647.361 361.473C646.934 357.752 646.521 354.005 646.177 350.181C648.965 350.957 651.778 351.743 654.533 352.548C655.144 356.058 655.832 359.484 656.516 362.912L656.524 362.915ZM666.377 364.6C663.354 364.081 660.349 363.549 657.295 363.046C656.615 359.655 655.937 356.255 655.322 352.778C658.111 353.587 660.858 354.41 663.623 355.229C664.498 358.398 665.437 361.491 666.368 364.597L666.377 364.6ZM676.119 366.266C673.171 365.745 670.146 365.247 667.169 364.733C666.247 361.669 665.32 358.609 664.452 355.471C667.186 356.281 669.951 357.077 672.66 357.892C673.776 360.721 674.95 363.483 676.111 366.263L676.119 366.266ZM685.8 368.074C682.842 367.52 679.936 366.945 676.947 366.407C675.798 363.67 674.646 360.941 673.537 358.15C676.274 358.976 678.957 359.819 681.672 360.653C683.02 363.157 684.412 365.605 685.791 368.071L685.8 368.074ZM695.344 369.882C692.486 369.323 689.587 368.788 686.701 368.244C685.342 365.824 683.98 363.413 682.645 360.956C685.308 361.775 687.982 362.592 690.624 363.419C692.175 365.59 693.76 367.727 695.335 369.879L695.344 369.882ZM704.769 371.757C701.977 371.189 699.174 370.628 696.358 370.073C694.819 367.981 693.277 365.889 691.75 363.769C694.366 364.589 696.959 365.416 699.552 366.246C701.267 368.091 703.013 369.913 704.75 371.75L704.769 371.757ZM714.022 373.683C711.348 373.117 708.662 372.557 705.964 372.004C704.286 370.237 702.609 368.465 700.932 366.693C703.443 367.496 705.944 368.303 708.435 369.116C710.279 370.639 712.14 372.151 714.003 373.676L714.022 373.683ZM722.864 375.54C720.441 375.008 717.95 374.51 715.499 373.99C713.754 372.562 712.004 371.138 710.253 369.709C712.583 370.473 714.924 371.224 717.229 372.001L722.864 375.54ZM731.294 377.453C729.164 376.973 727.062 376.479 724.917 376.005L720.06 372.95C722.11 373.634 724.147 374.325 726.182 375.015C727.879 375.821 729.567 376.633 731.274 377.445L731.294 377.453ZM737.357 378.832C736.37 378.604 735.373 378.371 734.378 378.155L731.704 376.877C733.58 377.522 735.456 378.176 737.333 378.838L737.357 378.832ZM626.352 372.155C622.992 372.027 619.536 371.957 616.127 371.857C616.38 367.238 616.688 362.552 617.078 357.78C620.219 358.206 623.403 358.614 626.512 359.059C626.386 363.491 626.326 367.853 626.333 372.147L626.352 372.155ZM637.273 372.648C633.891 372.493 630.549 372.312 627.136 372.164C627.118 367.895 627.164 363.556 627.275 359.145C630.416 359.597 633.53 360.06 636.643 360.528C636.778 364.627 636.98 368.675 637.251 372.639L637.273 372.648ZM648.093 373.178C644.769 372.998 641.403 372.843 638.042 372.686C637.769 368.744 637.558 364.726 637.389 360.656C640.502 361.124 643.603 361.6 646.692 362.084C647.101 365.816 647.551 369.533 648.071 373.17L648.093 373.178ZM658.81 373.783C655.522 373.579 652.185 373.406 648.87 373.22C648.35 369.609 647.892 365.92 647.48 362.196C650.558 362.68 653.662 363.152 656.707 363.654C657.34 367.059 658.032 370.458 658.788 373.774L658.81 373.783ZM669.445 374.52C666.167 374.288 662.902 374.045 659.59 373.828C658.834 370.534 658.137 367.165 657.451 363.781C660.531 364.291 663.562 364.823 666.611 365.346C667.519 368.43 668.437 371.511 669.423 374.511L669.445 374.52ZM679.953 375.255C676.769 375 673.46 374.806 670.249 374.582C669.266 371.601 668.338 368.551 667.415 365.49C670.424 366.01 673.487 366.501 676.462 367.036C677.574 369.784 678.718 372.551 679.917 375.241L679.953 375.255ZM690.388 376.174C687.172 375.89 684.014 375.578 680.764 375.307C679.57 372.638 678.437 369.907 677.29 367.167C680.318 367.72 683.268 368.303 686.266 368.867C687.601 371.318 688.957 373.784 690.363 376.174L690.388 376.174ZM700.664 377.104C697.563 376.802 694.4 376.535 691.262 376.254C689.869 373.888 688.517 371.458 687.159 369.036C690.096 369.588 693.055 370.13 695.963 370.7C697.499 372.846 699.051 375.007 700.633 377.101L700.664 377.104ZM710.835 378.148C707.786 377.825 704.718 377.495 701.618 377.189C700.051 375.123 698.5 372.997 696.965 370.889C699.871 371.461 702.742 372.051 705.615 372.636C707.33 374.48 709.061 376.341 710.81 378.148L710.835 378.148ZM720.873 379.27C717.908 378.929 714.932 378.59 711.93 378.27C710.214 376.501 708.513 374.687 706.804 372.883C709.614 373.459 712.409 374.04 715.189 374.627C717.065 376.182 718.957 377.744 720.854 379.272L720.873 379.27ZM730.593 380.395C727.815 380.048 724.963 379.741 722.151 379.413C720.323 377.937 718.491 376.431 716.663 374.932C719.326 375.501 721.995 376.072 724.637 376.645L730.593 380.395ZM740.165 381.68C737.529 381.325 734.924 380.954 732.259 380.617L726.686 377.112C729.19 377.666 731.665 378.237 734.141 378.805C736.139 379.767 738.157 380.727 740.15 381.684L740.165 381.68ZM748.755 382.828C746.668 382.53 744.53 382.265 742.42 381.977C740.705 381.152 738.968 380.328 737.234 379.501C739.172 379.944 741.159 380.375 743.062 380.835C744.947 381.509 746.858 382.166 748.738 382.837L748.755 382.828ZM754.54 383.685C753.721 383.564 752.937 383.424 752.117 383.306C751.435 383.06 750.738 382.822 750.053 382.578C751.554 382.943 753.05 383.312 754.54 383.685ZM626.526 385.575C622.901 385.74 619.15 386.002 615.455 386.219C615.565 381.779 615.834 377.16 616.07 372.559C619.493 372.657 622.966 372.725 626.34 372.858C626.357 377.145 626.398 381.409 626.531 385.561L626.526 385.575ZM638.273 385.135C634.604 385.283 631.014 385.37 627.315 385.548C627.173 381.418 627.14 377.163 627.123 372.886C630.562 373.022 633.915 373.201 637.312 373.356C637.583 377.327 637.9 381.261 638.278 385.122L638.273 385.135ZM649.899 384.703C646.319 384.812 642.671 384.965 639.04 385.106C638.658 381.273 638.352 377.352 638.071 373.39C641.45 373.55 644.835 373.704 648.177 373.885C648.709 377.537 649.285 381.139 649.905 384.689L649.899 384.703ZM661.412 384.406C657.847 384.484 654.271 384.567 650.659 384.677C650.044 381.146 649.472 377.561 648.944 373.922C652.297 374.108 655.648 374.292 658.961 374.5C659.743 377.839 660.572 381.126 661.418 384.392L661.412 384.406ZM672.808 384.229C669.278 384.276 665.75 384.317 662.173 384.393C661.329 381.154 660.511 377.883 659.737 374.547C663.077 374.758 666.366 375.001 669.668 375.236C670.685 378.271 671.75 381.245 672.814 384.215L672.808 384.229ZM684.05 384.074C680.612 384.087 677.057 384.188 673.578 384.217C672.516 381.26 671.47 378.309 670.458 375.295C673.71 375.53 677.04 375.719 680.255 375.964C681.496 378.702 682.763 381.372 684.055 384.06L684.05 384.074ZM695.221 384.154C691.755 384.134 688.354 384.07 684.841 384.079C683.576 381.421 682.306 378.766 681.075 376.051C684.366 376.317 687.558 376.639 690.806 376.929C692.265 379.356 693.751 381.742 695.226 384.141L695.221 384.154ZM706.195 384.234C702.852 384.193 699.436 384.183 696.062 384.164C694.601 381.793 693.131 379.429 691.694 377.014C694.872 377.308 698.089 377.564 701.232 377.873C702.873 380.003 704.542 382.103 706.201 384.221L706.195 384.234ZM717.066 384.473C713.749 384.391 710.466 384.3 707.088 384.242C705.448 382.15 703.801 380.075 702.175 377.954C705.344 378.27 708.457 378.616 711.587 378.951C713.413 380.795 715.244 382.619 717.072 384.46L717.066 384.473ZM727.765 384.804C724.557 384.692 721.329 384.59 718.082 384.497C716.284 382.687 714.484 380.891 712.692 379.064C715.764 379.397 718.819 379.74 721.856 380.091C723.83 381.666 725.798 383.219 727.781 384.794L727.765 384.804ZM738.187 385.175C735.142 385.037 732.017 384.948 728.929 384.838C726.991 383.303 725.081 381.785 723.158 380.246C726.112 380.592 729.076 380.936 731.995 381.307L738.187 385.175ZM748.538 385.743C745.57 385.579 742.642 385.392 739.633 385.253L733.675 381.531C736.542 381.897 739.363 382.29 742.194 382.673C744.328 383.685 746.427 384.706 748.543 385.73L748.538 385.743ZM758.26 386.278C755.66 386.109 752.975 385.992 750.337 385.843L744.414 382.973C746.914 383.319 749.486 383.626 751.955 383.985C754.085 384.732 756.165 385.5 758.266 386.264L758.26 386.278ZM767.452 386.945C765.166 386.775 762.946 386.564 760.635 386.41L755.584 384.555C757.89 384.901 760.144 385.274 762.43 385.631C764.125 386.045 765.776 386.506 767.458 386.931L767.452 386.945ZM774.255 387.493L771.312 387.256L769.252 386.704C770.907 386.96 772.62 387.2 774.26 387.479L774.255 387.493ZM627.213 398.65C623.332 399.112 619.367 399.636 615.413 400.149C615.379 395.782 615.334 391.446 615.424 386.921C619.133 386.701 622.911 386.452 626.537 386.275C626.691 390.479 626.955 394.558 627.218 398.637L627.213 398.65ZM639.692 397.266C635.788 397.7 631.954 398.082 628.001 398.55C627.734 394.489 627.464 390.427 627.316 386.215C631.045 386.043 634.651 385.95 638.337 385.805C638.728 389.712 639.205 393.5 639.692 397.266ZM652.026 395.914C648.226 396.299 644.326 396.754 640.469 397.18C639.975 393.43 639.494 389.663 639.096 385.789C642.748 385.634 646.414 385.485 650.011 385.381C650.639 388.959 651.323 392.453 652.031 395.916L652.026 395.914ZM664.231 394.752C660.418 395.104 656.658 395.439 652.778 395.825C652.069 392.371 651.369 388.896 650.754 385.349C654.391 385.239 657.984 385.157 661.57 385.081C662.436 388.355 663.329 391.581 664.25 394.76L664.231 394.752ZM676.336 393.707C672.583 394.022 668.821 394.343 665.019 394.693C664.096 391.537 663.209 388.331 662.356 385.075C665.957 385.002 669.51 384.954 673.065 384.911C674.124 387.876 675.204 390.821 676.336 393.707ZM688.248 392.716C684.585 392.987 680.817 393.332 677.091 393.635C675.968 390.768 674.886 387.845 673.82 384.896C677.331 384.851 680.911 384.773 684.377 384.761C685.654 387.437 686.926 390.112 688.242 392.714L688.248 392.716ZM700.083 391.962C696.396 392.198 692.776 392.391 689.036 392.667C687.721 390.077 686.449 387.428 685.183 384.769C688.727 384.763 692.151 384.817 695.661 384.845C697.122 387.231 698.576 389.628 700.078 391.96L700.083 391.962ZM711.703 391.222C708.156 391.418 704.503 391.68 700.9 391.911C699.407 389.598 697.948 387.222 696.491 384.85C699.914 384.875 703.38 384.87 706.757 384.924C708.397 387.032 710.03 389.159 711.698 391.22L711.703 391.222ZM723.252 390.673C719.697 390.831 716.182 390.96 712.583 391.157C710.926 389.116 709.298 387.011 707.659 384.923C711.086 384.978 714.427 385.089 717.806 385.177C719.604 387.022 721.415 388.879 723.247 390.684L723.252 390.673ZM734.626 390.227C731.178 390.345 727.706 390.48 724.21 390.633C722.4 388.853 720.607 387.022 718.808 385.205C722.123 385.292 725.418 385.393 728.692 385.507C730.661 387.093 732.639 388.679 734.617 390.236L734.626 390.227ZM745.736 389.858C742.431 389.936 739.047 390.072 735.691 390.184C733.75 388.657 731.804 387.093 729.857 385.542C733.062 385.66 736.271 385.776 739.434 385.921L745.736 389.858ZM756.788 389.708C753.532 389.751 750.326 389.763 747.026 389.84C744.984 388.569 742.93 387.28 740.88 386C744.016 386.147 747.098 386.337 750.186 386.511C752.376 387.599 754.589 388.651 756.778 389.717L756.788 389.708ZM767.303 389.566C764.363 389.574 761.319 389.65 758.34 389.685C756.236 388.662 754.109 387.634 751.986 386.61C754.819 386.77 757.725 386.891 760.522 387.077C762.778 387.914 765.048 388.742 767.293 389.575L767.303 389.566ZM777.614 389.63C774.809 389.609 772.088 389.535 769.253 389.525C767.211 388.765 765.141 388.013 763.077 387.26C765.84 387.452 768.512 387.7 771.238 387.922C773.353 388.504 775.489 389.066 777.604 389.639L777.614 389.63ZM786.895 389.753C784.76 389.716 782.607 389.69 780.451 389.667C778.681 389.185 776.881 388.714 775.09 388.236C777.139 388.405 779.225 388.551 781.248 388.728C783.116 389.083 785.01 389.417 786.885 389.762L786.895 389.753ZM792.443 389.825C792.004 389.818 791.546 389.819 791.109 389.809C790.559 389.705 789.997 389.608 789.446 389.506C790.445 389.616 791.424 389.733 792.433 389.834L792.443 389.825ZM628.128 411.362C623.976 412.108 619.788 412.88 615.563 413.677C615.39 409.545 615.444 405.143 615.42 400.834C619.387 400.321 623.366 399.796 627.262 399.334C627.523 403.386 627.75 407.47 628.128 411.362ZM641.359 409.091C637.208 409.806 633.115 410.476 628.915 411.226C628.529 407.353 628.311 403.273 628.052 399.247C632.018 398.777 635.869 398.392 639.789 397.958C640.28 401.723 640.765 405.473 641.364 409.093L641.359 409.091ZM654.419 406.849C650.394 407.492 646.228 408.255 642.129 408.958C641.531 405.358 641.057 401.606 640.568 397.867C644.442 397.438 648.359 396.98 652.181 396.594C652.886 400.058 653.623 403.504 654.425 406.851L654.419 406.849ZM667.354 404.872C663.296 405.502 659.305 406.051 655.175 406.72C654.376 403.39 653.653 399.956 652.94 396.514C656.824 396.133 660.621 395.794 664.453 395.44C665.393 398.628 666.352 401.792 667.359 404.874L667.354 404.872ZM680.121 402.972C676.145 403.545 672.14 404.142 668.106 404.76C667.092 401.679 666.15 398.544 665.217 395.371C669.043 395.018 672.838 394.686 676.603 394.377C677.75 397.288 678.928 400.145 680.127 402.974L680.121 402.972ZM692.715 401.182C688.813 401.708 684.833 402.293 680.87 402.859C679.678 400.048 678.511 397.199 677.368 394.312C681.116 394.001 684.905 393.662 688.596 393.39C689.949 396.029 691.334 398.608 692.721 401.184L692.715 401.182ZM705.196 399.624C701.289 400.113 697.444 400.557 693.479 401.088C692.098 398.53 690.728 395.96 689.382 393.339C693.154 393.063 696.807 392.867 700.523 392.63C702.068 394.995 703.638 397.307 705.202 399.626L705.196 399.624ZM717.44 398.096C713.683 398.527 709.8 399.052 705.984 399.526C704.427 397.223 702.868 394.925 701.337 392.578C704.975 392.345 708.669 392.076 712.251 391.881C713.973 393.983 715.713 396.031 717.445 398.098L717.44 398.096ZM729.598 396.811C725.816 397.207 722.108 397.553 718.265 397.991C716.545 395.941 714.819 393.908 713.114 391.826C716.776 391.631 720.322 391.511 723.931 391.352C725.819 393.195 727.714 394.992 729.603 396.813L729.598 396.811ZM741.538 395.619C737.892 395.962 734.214 396.329 730.507 396.72C728.635 394.919 726.76 393.135 724.893 391.313C728.443 391.167 731.96 391.016 735.449 390.899C737.485 392.491 739.514 394.044 741.544 395.621L741.538 395.619ZM753.235 394.531C749.717 394.827 746.119 395.184 742.546 395.519C740.54 393.963 738.537 392.425 736.529 390.856C739.977 390.745 743.427 390.628 746.812 390.547L753.235 394.531ZM764.883 393.678C761.395 393.932 757.964 394.138 754.42 394.447C752.316 393.141 750.223 391.847 748.115 390.534C751.513 390.461 754.824 390.433 758.181 390.397C760.431 391.493 762.657 392.585 764.889 393.68L764.883 393.678ZM776.073 392.854C772.856 393.056 769.529 393.345 766.263 393.578C764.084 392.51 761.927 391.445 759.737 390.382C762.857 390.336 766.059 390.259 769.131 390.258C771.465 391.113 773.771 391.986 776.078 392.857L776.073 392.854ZM787.216 392.27C784.033 392.434 780.935 392.536 777.708 392.734C775.526 391.91 773.368 391.079 771.173 390.256C774.297 390.259 777.296 390.343 780.374 390.373C782.674 391 784.957 391.634 787.221 392.272L787.216 392.27ZM797.832 391.781C795.037 391.893 792.225 392.021 789.396 392.167C787.329 391.584 785.296 390.987 783.214 390.411C785.833 390.445 788.489 390.458 791.074 390.513C793.328 390.928 795.6 391.353 797.832 391.781ZM807.037 391.385C804.951 391.45 802.772 391.573 800.664 391.653C798.861 391.295 797.1 390.919 795.281 390.57C797.522 390.63 799.653 390.758 801.871 390.835C803.59 391.027 805.342 391.19 807.035 391.391L807.037 391.385ZM812.895 391.29C812.575 391.297 812.259 391.294 811.938 391.302L811.336 391.218C811.862 391.253 812.383 391.27 812.893 391.295L812.895 391.29ZM629.709 423.664C625.325 424.681 620.986 425.664 616.517 426.743C616.195 422.651 615.818 418.626 615.617 414.388C619.844 413.586 624.032 412.813 628.181 412.068C628.599 416.046 629.184 419.822 629.707 423.669L629.709 423.664ZM643.556 420.549C639.211 421.524 634.903 422.469 630.507 423.485C629.982 419.65 629.393 415.891 628.975 411.923C633.189 411.169 637.298 410.498 641.463 409.78C642.083 413.468 642.835 416.989 643.554 420.555L643.556 420.549ZM657.216 417.476C653.009 418.365 648.62 419.412 644.336 420.36C643.614 416.809 642.859 413.303 642.232 409.634C646.348 408.928 650.527 408.173 654.576 407.517C655.399 410.923 656.309 414.195 657.214 417.481L657.216 417.476ZM670.763 414.732C666.477 415.613 662.331 416.386 657.977 417.317C657.075 414.041 656.158 410.776 655.335 407.389C659.488 406.717 663.485 406.161 667.58 405.526C668.591 408.669 669.668 411.711 670.761 414.737L670.763 414.732ZM684.111 412.031C679.955 412.848 675.735 413.714 671.515 414.579C670.425 411.564 669.344 408.539 668.321 405.432C672.373 404.816 676.4 404.217 680.401 403.634C681.609 406.479 682.845 409.28 684.109 412.037L684.111 412.031ZM697.296 409.489C693.184 410.257 689.032 411.063 684.859 411.88C683.599 409.131 682.363 406.346 681.152 403.525C685.143 402.951 689.143 402.371 693.072 401.852C694.459 404.425 695.861 406.988 697.296 409.489ZM710.352 407.162C706.256 407.889 702.213 408.579 698.059 409.356C696.629 406.858 695.229 404.318 693.842 401.751C697.836 401.216 701.713 400.765 705.645 400.276C707.2 402.594 708.758 404.911 710.349 407.167L710.352 407.162ZM723.157 404.883C719.214 405.559 715.128 406.318 711.125 407.027C709.539 404.782 707.981 402.482 706.426 400.179C710.272 399.701 714.196 399.17 717.98 398.734C719.702 400.797 721.414 402.875 723.156 404.886L723.157 404.883ZM735.908 402.878C731.914 403.509 728.023 404.062 723.965 404.74C722.23 402.738 720.519 400.679 718.805 398.632C722.698 398.187 726.441 397.849 730.271 397.45C732.146 399.268 734.02 401.103 735.907 402.881L735.908 402.878ZM748.424 400.972C744.574 401.541 740.663 402.137 736.768 402.749C734.892 400.984 733.031 399.165 731.161 397.374C734.908 396.986 738.646 396.605 742.335 396.259C744.382 397.824 746.411 399.411 748.424 400.972ZM760.711 399.188C756.982 399.7 753.166 400.273 749.376 400.828C747.366 399.29 745.354 397.716 743.344 396.156C746.996 395.814 750.648 395.475 754.245 395.178L760.711 399.188ZM772.939 397.636C769.237 398.088 765.585 398.526 761.818 399.038C759.697 397.727 757.557 396.414 755.433 395.079C759.043 394.781 762.573 394.549 766.132 394.292L772.939 397.636ZM784.717 396.161C781.275 396.557 777.701 397.047 774.205 397.485C771.987 396.389 769.749 395.295 767.512 394.198C770.869 393.96 774.322 393.657 777.628 393.455C780.001 394.35 782.364 395.252 784.717 396.161ZM796.442 394.928C793.01 395.283 789.668 395.579 786.184 395.984C783.911 395.092 781.606 394.232 779.305 393.357C782.724 393.156 785.986 393.064 789.355 392.897C791.724 393.564 794.087 394.239 796.444 394.923L796.442 394.928ZM807.712 393.825C804.605 394.115 801.474 394.421 798.318 394.743C796.067 394.086 793.794 393.438 791.52 392.791C794.568 392.647 797.645 392.485 800.648 392.374C803.008 392.85 805.364 393.331 807.714 393.82L807.712 393.825ZM818.091 392.849C815.466 393.067 812.72 393.355 810.054 393.595C807.873 393.139 805.676 392.693 803.478 392.243C806.345 392.146 809.139 392.099 811.968 392.028L818.091 392.849ZM828.169 392.164C825.968 392.32 823.823 392.437 821.599 392.609C819.962 392.386 818.312 392.174 816.674 391.947C818.971 391.895 821.258 391.859 823.523 391.833C825.096 391.927 826.61 392.057 828.171 392.159L828.169 392.164ZM834.625 391.725L833.29 391.817L831.659 391.701C832.666 391.693 833.628 391.718 834.616 391.715L834.625 391.725ZM896.958 605.188C894.473 605.782 891.976 606.408 889.502 606.968C751.186 624.042 629.732 590.527 616.572 427.445C621.042 426.37 625.403 425.381 629.8 424.363C650.942 577.492 766.692 614.911 896.958 605.188ZM911.026 601.706C907.998 602.486 904.971 603.258 901.953 603.998C770.065 614.974 652.089 578.593 630.609 424.179C635.018 423.162 639.343 422.208 643.701 421.232C673.214 566.163 786.46 605.892 911.02 601.704L911.026 601.706ZM924.743 598.073C921.32 599.01 917.908 599.897 914.495 600.787C788.943 605.78 674.301 566.71 644.479 421.064C648.781 420.101 653.185 419.059 657.408 418.154C695.307 554.684 805.945 596.699 924.737 598.071L924.743 598.073ZM938.459 594.168C934.827 595.219 931.186 596.308 927.561 597.315C808.058 596.55 696.363 555.035 658.174 417.997C662.543 417.067 666.708 416.285 671.01 415.413C717.372 543.233 825.454 587.312 938.454 594.165L938.459 594.168ZM952.362 590.055C948.41 591.257 944.458 592.427 940.505 593.567C827.078 587.123 718.354 543.354 671.755 415.245C675.998 414.37 680.241 413.494 684.413 412.686C739.282 531.857 844.978 577.848 952.356 590.053L952.362 590.055ZM966.316 585.713C962.232 587.014 958.146 588.286 954.058 589.527C846.393 577.631 740.229 531.87 685.17 412.539C689.372 411.717 693.542 410.919 697.68 410.144C761.049 520.526 864.469 568.273 966.311 585.71L966.316 585.713ZM980.34 581.121C976.164 582.505 971.989 583.912 967.81 585.248C865.765 568.07 761.996 520.492 698.437 410.012C702.619 409.234 706.694 408.537 710.813 407.807C782.695 509.272 883.941 558.585 980.334 581.119L980.34 581.121ZM994.616 576.298C990.291 577.789 985.958 579.254 981.618 580.695C885.11 558.349 783.628 509.175 711.59 407.664C715.619 406.952 719.744 406.167 723.707 405.503C804.142 498.112 903.459 548.827 994.611 576.296L994.616 576.298ZM1009.08 571.224C1004.65 572.808 1000.2 574.368 995.74 575.904C904.534 548.572 805.075 497.967 724.516 405.359C728.62 404.677 732.534 404.13 736.571 403.494C825.537 487.115 923.058 538.993 1009.07 571.221L1009.08 571.224ZM1023.72 565.855C1019.19 567.533 1014.66 569.226 1010.11 570.859C924.1 538.741 826.514 486.94 737.451 403.357C741.395 402.742 745.335 402.129 749.213 401.558C846.736 476.181 942.65 529.038 1023.71 565.856L1023.72 565.855ZM1038.59 560.258C1033.95 562.038 1029.31 563.79 1024.64 565.513C943.638 528.771 847.724 475.978 750.17 401.41C754.034 400.846 757.892 400.286 761.692 399.77C867.777 465.382 962.298 519.023 1038.58 560.262L1038.59 560.258ZM1053.67 554.429C1048.96 556.287 1044.2 558.112 1039.45 559.934C963.26 518.765 868.825 465.19 762.803 399.628C766.629 399.11 770.355 398.67 774.122 398.198C888.717 454.769 982.018 508.963 1053.67 554.426L1053.67 554.429ZM1068.92 548.32C1064.13 550.25 1059.31 552.178 1054.46 554.106C982.934 508.7 889.789 454.564 775.36 398.046C778.931 397.602 782.607 397.079 786.12 396.689C909.329 444.224 1001.69 498.782 1068.92 548.32ZM1084.4 541.941C1079.51 543.975 1074.62 546.01 1069.67 548.017C1002.59 498.543 910.458 444.034 787.589 396.506C791.243 396.095 794.715 395.81 798.301 395.458C929.924 433.923 1021.45 488.582 1084.4 541.93L1084.4 541.941ZM1100.07 535.323C1095.12 537.44 1090.13 539.547 1085.11 541.645C1022.34 488.39 931.179 433.808 800.173 395.284C803.479 394.952 806.808 394.607 810.078 394.319C950.217 423.713 1041.16 478.3 1100.07 535.312L1100.07 535.323ZM1077.42 553.783C1082.23 551.957 1086.98 550.105 1091.72 548.253C1093.76 550.041 1095.74 551.823 1097.71 553.606C1093.08 555.281 1088.43 556.95 1083.73 558.598C1081.67 556.989 1079.57 555.38 1077.43 553.772L1077.42 553.783ZM1062.61 559.312C1067.31 557.578 1071.99 555.829 1076.66 554.066C1078.79 555.669 1080.88 557.264 1082.95 558.852C1078.4 560.438 1073.83 562.006 1069.22 563.556C1067.05 562.143 1064.83 560.721 1062.61 559.301L1062.61 559.312ZM1048.02 564.569C1052.63 562.931 1057.23 561.288 1061.79 559.612C1064.01 561.026 1066.22 562.442 1068.39 563.842C1063.93 565.345 1059.42 566.805 1054.91 568.267L1048.02 564.569ZM1033.69 569.586C1038.19 568.04 1042.67 566.473 1047.14 564.885C1049.43 566.105 1051.72 567.355 1053.98 568.567C1049.62 569.98 1045.23 571.37 1040.82 572.736C1038.45 571.688 1036.08 570.64 1033.69 569.577L1033.69 569.586ZM1019.63 574.362C1024.01 572.906 1028.37 571.407 1032.72 569.915C1035.09 570.972 1037.45 572.017 1039.8 573.052C1035.54 574.372 1031.28 575.688 1027 576.966C1024.55 576.103 1022.11 575.244 1019.64 574.354L1019.63 574.362ZM1005.72 578.843C1010.01 577.479 1014.3 576.115 1018.56 574.708C1021.01 575.59 1023.43 576.445 1025.85 577.301C1021.7 578.531 1017.53 579.742 1013.36 580.933C1010.82 580.243 1008.28 579.555 1005.73 578.834L1005.72 578.843ZM992.17 583.051C996.299 581.792 1000.42 580.515 1004.54 579.219C1007.06 579.938 1009.57 580.614 1012.08 581.294C1008.03 582.443 1003.95 583.537 999.882 584.639C997.322 584.123 994.751 583.594 992.17 583.051ZM979.008 587.025C982.93 585.881 986.847 584.671 990.765 583.484C993.309 584.031 995.847 584.548 998.38 585.053C994.476 586.101 990.569 587.128 986.66 588.135C984.117 587.785 981.563 587.392 979.008 587.025ZM965.973 590.699C969.759 589.645 973.547 588.591 977.33 587.497C979.833 587.876 982.341 588.25 984.84 588.589C981.151 589.526 977.461 590.457 973.764 591.356C971.173 591.155 968.57 590.918 965.976 590.691L965.973 590.699ZM953.348 594.104C956.912 593.162 960.476 592.213 964.04 591.23C966.523 591.458 969.004 591.714 971.485 591.906C967.977 592.753 964.485 593.504 960.983 594.295C958.429 594.248 955.885 594.184 953.348 594.104ZM941.219 597.251C944.441 596.445 947.673 595.579 950.899 594.737C953.247 594.823 955.588 594.925 957.943 594.986C954.829 595.682 951.717 596.356 948.607 597.009C946.14 597.099 943.664 597.21 941.206 597.258L941.219 597.251ZM929.766 599.984C932.562 599.332 935.348 598.707 938.13 598.017C940.157 597.989 942.183 597.95 944.209 597.9C941.622 598.432 939.028 598.966 936.45 599.476C934.232 599.656 931.999 599.837 929.766 599.984ZM920.517 602.159C922.062 601.813 923.62 601.421 925.166 601.065C926.694 600.976 928.228 600.854 929.758 600.74C927.808 601.105 925.868 601.42 923.921 601.771C922.792 601.912 921.659 602.033 920.522 602.161L920.517 602.159ZM601.544 431.147C606.162 597.225 722.907 631.589 861.432 612.875C711.535 641.352 584.669 613.229 588.044 434.477C592.607 433.328 597.048 432.263 601.55 431.149L601.544 431.147ZM601.321 417.149C601.292 421.7 601.428 426.053 601.541 430.435C597.058 431.533 592.622 432.609 588.085 433.757C588.181 429.12 588.302 424.449 588.555 419.611C592.88 418.745 597.05 417.984 601.319 417.147L601.321 417.149ZM601.851 402.623C601.617 407.266 601.354 411.983 601.311 416.439C597.052 417.274 592.893 418.033 588.596 418.9C588.867 414.164 589.341 409.209 589.798 404.263C593.848 403.687 597.831 403.167 601.849 402.622L601.851 402.623ZM602.643 387.657C602.279 392.541 602.103 397.206 601.89 401.917C597.885 402.461 593.914 402.976 589.868 403.551C590.328 398.543 590.706 393.63 591.336 388.431C595.109 388.156 598.889 387.893 602.632 387.653L602.643 387.657ZM604.172 372.203C603.637 377.178 603.085 382.169 602.712 386.954C598.979 387.193 595.222 387.449 591.441 387.72C592.074 382.65 592.929 377.324 593.746 372.046C597.21 372.094 600.72 372.125 604.161 372.199L604.172 372.203ZM606.064 356.287C605.371 361.461 604.778 366.515 604.24 371.505C600.811 371.43 597.296 371.397 593.848 371.349C594.668 366.022 595.496 360.673 596.503 355.152C599.67 355.531 602.902 355.882 606.053 356.283L606.064 356.287ZM608.491 339.937C607.637 345.248 606.859 350.467 606.158 355.594C603.022 355.195 599.786 354.84 596.628 354.462C597.624 348.995 598.711 343.424 599.89 337.75C602.744 338.479 605.639 339.193 608.48 339.933L608.491 339.937ZM611.461 323.134C610.445 328.571 609.445 333.993 608.594 339.244C605.768 338.51 602.881 337.799 600.032 337.072C601.202 331.451 602.496 325.693 603.849 319.867C606.37 320.952 608.924 322.04 611.45 323.129L611.461 323.134ZM614.815 305.798C613.633 311.465 612.624 316.941 611.596 322.434C609.081 321.349 606.538 320.265 604.01 319.181C605.374 313.324 606.709 307.494 608.247 301.446L614.815 305.798ZM618.838 288.115C617.509 293.801 616.115 299.563 614.957 305.056L608.42 300.723C609.921 294.85 611.645 288.731 613.337 282.648C615.159 284.471 616.991 286.301 618.827 288.11L618.838 288.115ZM623.155 269.75C621.642 275.758 620.384 281.481 619.027 287.319C617.195 285.514 615.369 283.692 613.54 281.879C615.265 275.663 616.855 269.596 618.747 263.194C620.207 265.388 621.672 267.572 623.144 269.746L623.155 269.75ZM628.183 251.27C626.559 257.165 624.84 263.165 623.393 268.859C621.93 266.695 620.472 264.522 619.019 262.339C620.828 256.282 622.913 249.914 624.911 243.642C625.987 246.203 627.075 248.744 628.174 251.267L628.183 251.27ZM633.527 231.985C631.731 238.18 630.119 244.159 628.465 250.187C627.378 247.672 626.288 245.167 625.222 242.622C627.257 236.215 629.188 229.924 631.393 223.333C632.074 226.268 632.813 229.111 633.53 231.986L633.527 231.985ZM639.461 212.661C637.57 218.72 635.644 224.817 633.925 230.687C633.282 228.11 632.614 225.565 632.014 222.926L632.006 222.897L631.991 222.863L631.749 222.314C633.824 216.142 636.097 209.759 638.343 203.404L638.609 204.499C638.853 207.275 639.172 209.95 639.464 212.662L639.461 212.661ZM645.825 192.518C643.786 198.767 641.882 204.866 639.984 210.957C639.75 208.786 639.497 206.638 639.302 204.416L639.31 204.396L639.3 204.364L638.771 202.2C641.03 195.803 643.221 189.483 645.621 182.931C645.715 183.92 645.798 184.906 645.901 185.898C645.832 188.154 645.84 190.326 645.828 192.519L645.825 192.518ZM652.646 172.414C650.561 178.465 648.475 184.517 646.54 190.404C646.545 188.91 646.542 187.429 646.583 185.893L646.59 185.874L646.597 185.857C646.456 184.386 646.319 182.917 646.186 181.45C648.452 175.31 650.888 168.981 653.318 162.657L653.185 167.301C652.969 169.042 652.817 170.716 652.66 172.42L652.646 172.414ZM659.946 151.543C657.776 157.592 655.687 163.548 653.652 169.446C653.719 168.758 653.781 168.074 653.868 167.366L653.874 167.352C653.938 165.123 654.002 162.9 654.067 160.684C656.491 154.385 658.831 148.178 661.368 141.753L660.464 148.736C660.273 149.684 660.112 150.611 659.949 151.544L659.946 151.543ZM667.537 130.967C665.409 136.683 663.27 142.41 661.255 147.999C661.634 145.057 662.015 142.126 662.396 139.206C664.684 133.464 667.122 127.559 669.557 121.659L667.748 130.113C667.675 130.405 667.615 130.68 667.54 130.968L667.537 130.967ZM675.439 110.126C673.305 115.563 671.279 120.912 669.298 126.197L671.053 117.994C673.431 112.24 675.654 106.657 678.101 100.841L675.439 110.126ZM682.869 91.3917C681.274 95.4559 679.586 99.5976 678.019 103.622L680.203 95.9757C681.907 91.9667 683.718 87.8286 685.532 83.7141L682.869 91.3917ZM689.613 74.3891C689.321 75.1348 689.052 75.82 688.761 76.5602L689.192 75.3163C689.441 74.7471 689.683 74.1878 689.933 73.6158L689.613 74.3891ZM676.101 110.347C676.338 109.745 676.59 109.101 676.83 108.49C676.466 109.506 676.119 110.504 675.76 111.516L676.101 110.347ZM668.204 131.178C669.854 126.745 671.377 122.443 673.082 117.936C672.202 120.738 671.423 123.426 670.564 126.207C669.157 130.247 667.789 134.24 666.46 138.188C667.04 135.868 667.585 133.574 668.207 131.179L668.204 131.178ZM660.617 151.743C662.33 146.957 664.189 142.009 666.024 137.089C665.12 140.608 664.3 144.033 663.444 147.508C661.884 152.294 660.295 157.154 658.775 161.893C659.38 158.529 659.951 155.19 660.62 151.744L660.617 151.743ZM653.327 172.589C655.271 166.922 657.174 161.296 659.225 155.509C658.498 159.329 657.848 163.066 657.178 166.813C655.457 172.298 653.881 177.643 652.252 183.008C652.598 179.553 652.928 176.113 653.33 172.59L653.327 172.589ZM646.521 192.654C648.343 187.079 650.341 181.299 652.32 175.56C651.904 179.306 651.536 182.997 651.171 186.687C649.542 192.131 647.921 197.567 646.411 202.864C646.444 199.477 646.46 196.095 646.524 192.655L646.521 192.654ZM640.175 212.76C642.02 206.796 643.827 200.879 645.802 194.77C645.746 198.31 645.712 201.826 645.7 205.316C644.095 211.072 642.657 216.639 641.165 222.271C640.823 219.118 640.495 215.945 640.181 212.753L640.175 212.76ZM634.256 232.029C635.917 226.331 637.815 220.36 639.651 214.459C639.98 217.716 640.311 220.967 640.664 224.186C639.197 229.723 637.705 235.282 636.384 240.647C635.663 237.799 634.96 234.913 634.262 232.022L634.256 232.029ZM628.935 251.255C630.559 245.303 632.107 239.439 633.872 233.33C634.589 236.247 635.291 239.183 636.028 242.073C634.639 247.796 633.464 253.283 632.199 258.87C631.087 256.347 630.012 253.786 628.924 251.25L628.935 251.255ZM623.923 269.651C625.343 264.051 627.047 258.131 628.641 252.336C629.742 254.896 630.822 257.492 631.939 260.028C630.704 265.45 629.395 270.954 628.316 276.195C626.83 274.034 625.38 271.823 623.912 269.647L623.923 269.651ZM619.635 287.922C620.969 282.165 622.215 276.491 623.705 270.572C625.178 272.757 626.639 274.975 628.116 277.136C626.997 282.673 626.099 287.941 625.115 293.337C623.283 291.539 621.455 289.726 619.624 287.918L619.635 287.922ZM615.632 305.502C616.776 300.055 618.138 294.359 619.448 288.722C621.278 290.533 623.129 292.361 624.973 294.161C624 299.425 622.991 304.732 622.168 309.823L615.632 305.502ZM612.3 322.736C613.313 317.297 614.324 311.857 615.487 306.245L622.059 310.586C621.226 315.842 620.551 320.902 619.862 326.011C617.335 324.915 614.82 323.823 612.289 322.731L612.3 322.736ZM609.34 339.432C610.182 334.212 611.16 328.839 612.165 323.435C614.7 324.527 617.233 325.627 619.762 326.734C619.069 331.786 618.401 336.815 617.852 341.702C615.01 340.933 612.193 340.174 609.329 339.428L609.34 339.432ZM606.929 355.7C607.615 350.602 608.382 345.41 609.231 340.123C612.112 340.872 614.938 341.635 617.776 342.396C617.231 347.345 616.791 352.19 616.374 356.976C613.225 356.544 610.117 356.106 606.918 355.695L606.929 355.7ZM605.03 371.53C605.561 366.559 606.14 361.54 606.841 356.395C610.04 356.803 613.174 357.248 616.327 357.679C615.926 362.488 615.614 367.192 615.351 371.836C611.895 371.724 608.483 371.599 605.019 371.525L605.03 371.53ZM603.512 386.906C603.878 382.147 604.432 377.173 604.958 372.232C608.446 372.308 611.866 372.43 615.303 372.531C615.043 377.17 614.801 381.79 614.68 386.258C610.95 386.468 607.26 386.662 603.501 386.902L603.512 386.906ZM602.71 401.81C602.915 397.128 603.086 392.476 603.443 387.609C607.215 387.368 610.916 387.176 614.654 386.956C614.548 391.5 614.6 395.858 614.625 400.246C610.653 400.755 606.688 401.263 602.699 401.806L602.71 401.81ZM602.144 416.29C602.186 411.861 602.449 407.16 602.665 402.523C606.686 401.986 610.643 401.468 614.617 400.954C614.635 405.286 614.588 409.694 614.755 413.85C610.579 414.637 606.375 415.45 602.144 416.29ZM602.384 430.245C602.268 425.88 602.134 421.535 602.163 417.002C606.393 416.175 610.607 415.36 614.804 414.558C614.998 418.816 615.386 422.845 615.705 426.959C611.304 428.004 606.821 429.134 602.381 430.228L602.384 430.245ZM876.546 609.81C731.997 632.895 607.299 602.282 602.393 430.943C606.848 429.834 611.344 428.711 615.754 427.644C628.551 588.574 746.498 623.696 882.177 608.625C880.296 609.033 878.435 609.415 876.546 609.81ZM905.921 604.447C904.44 604.748 902.948 605.087 901.472 605.378C899.788 605.622 898.087 605.91 896.387 606.132C898.302 605.677 900.217 605.225 902.133 604.761C903.392 604.667 904.653 604.562 905.921 604.447ZM921.047 601.253C918.19 601.891 915.345 602.473 912.497 603.071C910.641 603.26 908.789 603.425 906.942 603.584C909.505 602.935 912.087 602.214 914.66 601.531C916.785 601.448 918.914 601.365 921.047 601.253ZM934.736 598.032C931.51 598.809 928.287 599.568 925.066 600.309C922.746 600.443 920.44 600.526 918.13 600.619C921.32 599.772 924.503 598.944 927.709 598.056C930.049 598.053 932.392 598.045 934.736 598.032ZM948.293 594.638C944.857 595.512 941.408 596.429 937.977 597.258C935.424 597.292 932.884 597.289 930.344 597.289C933.773 596.326 937.215 595.315 940.654 594.311C943.197 594.458 945.747 594.531 948.293 594.638ZM961.948 591.051C958.211 592.071 954.473 593.033 950.739 594.004C948.117 593.905 945.495 593.807 942.873 593.683C946.643 592.571 950.414 591.434 954.185 590.272C956.772 590.557 959.359 590.803 961.948 591.051ZM975.515 587.226C971.643 588.338 967.769 589.43 963.894 590.503C961.224 590.259 958.552 590.026 955.881 589.744C959.901 588.508 963.926 587.28 967.943 585.992C970.468 586.422 972.99 586.838 975.51 587.24L975.515 587.226ZM989.248 583.165C985.233 584.374 981.216 585.589 977.194 586.751C974.593 586.366 972.001 585.958 969.419 585.526C973.526 584.204 977.633 582.808 981.736 581.44C984.24 582.026 986.75 582.62 989.248 583.165ZM1003.29 578.853C999.089 580.169 994.877 581.464 990.651 582.738C988.109 582.191 985.558 581.603 983.01 581.009C987.282 579.58 991.552 578.126 995.82 576.646C998.323 577.403 1000.81 578.14 1003.29 578.853ZM1017.45 574.289C1013.13 575.707 1008.8 577.102 1004.46 578.473C1001.97 577.76 999.456 577.009 996.944 576.258C1001.35 574.728 1005.77 573.195 1010.16 571.618C1012.6 572.527 1015.03 573.409 1017.45 574.289ZM1031.75 569.47C1027.35 570.976 1022.95 572.484 1018.52 573.944C1016.08 573.063 1013.63 572.167 1011.18 571.256C1015.69 569.633 1020.17 567.953 1024.65 566.289C1027.03 567.364 1029.39 568.418 1031.75 569.47ZM1046.29 564.419C1041.78 566.014 1037.26 567.588 1032.72 569.142C1030.35 568.084 1027.98 567.032 1025.58 565.948C1030.21 564.226 1034.82 562.482 1039.42 560.716C1041.73 561.962 1044.01 563.197 1046.29 564.419ZM1061.04 559.121C1056.45 560.81 1051.8 562.453 1047.17 564.101L1040.28 560.388C1045 558.572 1049.73 556.753 1054.42 554.903C1056.65 556.315 1058.86 557.724 1061.04 559.12L1061.04 559.121ZM1075.98 553.552C1071.3 555.324 1066.59 557.081 1061.85 558.824C1059.66 557.424 1057.44 556.014 1055.21 554.592C1060.02 552.689 1064.82 550.761 1069.6 548.809C1071.75 550.384 1073.9 551.972 1075.99 553.54L1075.98 553.552ZM1091.1 547.736C1086.34 549.593 1081.57 551.45 1076.74 553.278C1074.65 551.705 1072.5 550.12 1070.34 548.545C1075.26 546.542 1080.14 544.516 1085 542.488C1087.07 544.218 1089.11 545.959 1091.11 547.713L1091.1 547.736ZM1106.44 541.64C1101.61 543.583 1096.74 545.513 1091.83 547.431C1089.83 545.676 1087.78 543.918 1085.72 542.158C1090.73 540.065 1095.7 537.961 1100.64 535.845C1102.62 537.775 1104.53 539.708 1106.44 541.64ZM1136.59 470.229C1083.86 417.787 993.665 383.049 843.35 391.129C836.851 391.049 830.239 391.046 823.514 391.119C816.431 390.696 809.195 390.387 801.829 390.132C795.097 389.374 788.274 388.666 781.313 388.046C775.154 386.956 768.902 385.918 762.555 384.931C756.206 383.31 749.769 381.722 743.244 380.167C737.7 378.216 732.096 376.282 726.434 374.365C721.079 371.826 715.675 369.282 710.221 366.733C705.334 363.637 700.429 360.52 695.504 357.383C691.197 353.729 686.89 350.028 682.583 346.28C678.744 341.859 674.932 337.368 671.148 332.807C668.056 327.809 665.016 322.718 662.029 317.534C659.51 311.487 657.069 305.316 654.708 299.023C653.092 292.528 651.582 285.889 650.176 279.108C649.275 270.9 648.533 262.49 647.949 253.876C648.037 245.972 648.316 237.826 648.696 229.573C649.872 218.921 651.318 207.952 652.965 196.745C654.867 187.229 656.989 177.459 659.281 167.499C662.912 154.199 666.965 140.43 671.243 126.41C674.936 115.583 678.812 104.556 682.978 93.2095L683.522 91.6382C685.732 86.0056 687.876 80.4677 690.254 74.666L698.958 52.9293C710.587 26.9237 721.949 1.55274 732.957 -23.0298C750.529 -62.2662 767.188 -99.516 782.936 -134.779L782.287 -135.034C766.528 -99.7264 749.873 -62.4864 732.322 -23.3138C723.613 -3.86885 714.67 16.105 705.495 36.6077L717.079 7.70081C737.901 -44.2486 757.287 -92.7489 775.237 -137.8L774.59 -138.054C756.659 -92.9256 737.273 -44.4262 716.433 7.44433C710.509 22.2242 704.472 37.2921 698.322 52.6481L696.895 55.8384C695.24 59.5391 693.783 63.0255 692.188 66.6611C697.755 50.6294 703.214 34.9176 708.565 19.5256C728.815 -38.7504 747.482 -92.4681 764.439 -142.037L763.79 -142.292C746.832 -92.7202 728.164 -38.9931 707.902 19.3131C701.594 37.4626 695.135 56.0547 688.526 75.0896C686.205 80.3964 683.849 85.7369 681.65 90.9134C689.419 63.7283 696.945 37.457 704.23 12.0993C720.813 -45.7035 736.066 -98.8751 749.748 -147.786L749.098 -148.04C735.41 -99.1134 720.146 -45.9274 703.561 11.9099C695.833 38.8506 687.828 66.8065 679.544 95.7774C676.908 101.986 674.401 108.077 671.887 114.136C681.47 69.4476 690.639 27.1986 699.392 -12.6106C710.601 -63.9771 720.969 -111.498 730.204 -155.451L729.549 -155.708C720.311 -111.731 709.932 -64.1731 698.713 -12.7593C689.755 28.2841 680.318 71.8089 670.402 117.815C667.809 124.101 665.2 130.409 662.762 136.533C671.536 69.176 680.34 7.19006 688.417 -49.8129C694.257 -90.9475 699.72 -129.464 704.554 -165.553L703.886 -165.816C699.047 -129.683 693.575 -91.1132 687.724 -49.9072C679.532 7.80961 670.613 70.6394 661.706 139.021C659.088 145.615 656.583 152.078 654.118 158.516C656.913 65.6735 661.99 -17.6554 666.529 -92.2026C668.367 -122.387 670.115 -151.127 671.595 -178.489L670.913 -178.757C669.435 -151.336 667.679 -122.517 665.837 -92.2518C661.261 -17.1665 656.145 66.839 653.354 160.496C650.852 167.001 648.337 173.524 646.01 179.842C635.248 62.7516 633.289 -41.1198 631.57 -132.167C631.162 -153.729 630.73 -174.573 630.274 -194.699L629.569 -194.976C630.066 -174.757 630.497 -153.817 630.863 -132.155C632.587 -40.7314 634.556 63.6234 645.46 181.334C643.019 187.975 640.73 194.456 638.448 200.927C605.229 64.973 594.332 -57.552 584.858 -164.121C583.329 -181.266 581.812 -197.995 580.305 -214.306L579.579 -214.591C581.131 -198.175 582.658 -181.332 584.161 -164.061C593.673 -57.2007 604.593 65.6952 638.028 202.134C635.749 208.591 633.426 215.094 631.327 221.351C567.15 75.2408 547.391 -64.1423 530.121 -185.941C527.661 -203.296 525.211 -220.275 522.772 -236.881L522.023 -237.174C524.525 -220.443 526.995 -203.333 529.432 -185.844C546.725 -63.813 566.523 75.8679 630.977 222.316C628.786 228.877 626.797 235.218 624.769 241.599L624.694 241.427L624.68 241.389L624.657 241.358C522.378 94.7925 495.296 -60.7776 471.352 -198.332C467.605 -219.867 463.935 -240.934 460.054 -261.489L459.287 -261.791C463.187 -241.11 466.891 -219.893 470.666 -198.211C494.62 -60.6014 521.71 95.045 624.086 241.738C624.21 242.037 624.34 242.329 624.469 242.624C622.443 248.977 620.326 255.431 618.501 261.557C618.135 261.017 617.768 260.479 617.407 259.925L617.383 259.89L617.355 259.863C472.337 122.095 440.187 -49.5524 411.381 -203.316C406.016 -231.961 400.767 -259.985 394.925 -287.057L394.146 -287.363C400.024 -260.162 405.301 -231.99 410.697 -203.191C439.513 -49.3312 471.685 122.424 616.849 260.344C617.305 261.044 617.771 261.725 618.236 262.409C616.338 268.866 614.686 275.016 612.946 281.29C611.99 280.344 611.032 279.403 610.078 278.441L610.045 278.428L610.01 278.414C418.516 156.761 383.536 -32.1083 351.906 -202.968C344.918 -240.699 338.092 -277.556 329.78 -312.625L328.99 -312.935C337.333 -277.734 344.178 -240.732 351.216 -202.829C382.881 -31.8449 417.893 157.168 609.619 278.966C610.655 280.007 611.691 281.049 612.738 282.063C611.036 288.181 609.261 294.378 607.754 300.284C606.086 299.178 604.422 298.077 602.747 296.963L602.684 296.938C361.868 197.336 326.145 -10.2998 293.668 -199.016C285.39 -247.128 277.326 -294.02 266.125 -337.573L265.327 -337.886C276.583 -294.216 284.67 -247.179 292.983 -198.898C325.476 -10.0193 361.229 197.806 602.367 297.56L607.565 301.007C606.018 307.103 604.664 312.982 603.291 318.883C600.664 317.754 598.046 316.625 595.393 315.495L595.341 315.475C302.969 242.602 268.419 14.4096 237.05 -192.784C228.06 -252.166 219.327 -309.824 204.862 -361.624L204.037 -361.948C218.57 -310.057 227.327 -252.24 236.341 -192.684C267.747 14.7143 302.331 243.143 595.133 316.117C597.816 317.259 600.465 318.4 603.122 319.541C601.777 325.398 600.446 331.217 599.26 336.855C595.533 335.904 591.826 334.945 588.049 334.009L588.03 334.001L588.011 333.994C242.204 291.662 210.599 40.9844 182.084 -185.192C173.088 -256.538 164.4 -325.447 146.263 -384.639L145.438 -384.963C163.671 -325.708 172.382 -256.631 181.396 -185.097C209.942 41.3302 241.586 292.274 587.903 334.688C591.687 335.624 595.399 336.585 599.131 337.538C597.952 343.239 596.851 348.852 595.85 354.35C590.83 353.742 585.833 353.125 580.728 352.563L580.711 352.557C179.814 343.91 152.849 68.7301 128.787 -176.838C120.56 -260.808 112.669 -341.313 90.2999 -406.569L89.4496 -406.903C111.938 -341.628 119.846 -260.939 128.091 -176.771C152.182 69.0875 179.179 344.588 580.672 353.272C585.757 353.828 590.731 354.447 595.727 355.051C594.727 360.593 593.859 365.987 593.035 371.332C586.552 371.233 580.054 371.138 573.424 371.137L573.405 371.13C115.888 398.782 95.2315 96.975 77.0726 -168.307C70.4042 -265.678 64.0783 -358.137 36.6283 -427.632L35.7423 -427.979C63.3508 -358.508 69.6966 -265.858 76.3785 -168.262C94.5571 97.3423 115.248 399.515 573.418 371.84C580.019 371.842 586.482 371.936 592.932 372.031C592.12 377.339 591.25 382.688 590.617 387.781C582.548 388.349 574.407 388.968 566.101 389.704C164.856 441.261 68.1881 252.481 39.8928 31.8071C31.8252 -31.1244 29.3115 -96.646 26.8872 -159.935C22.5943 -271.826 18.5676 -376.731 -15.4069 -448.049L-16.3453 -448.417C17.8557 -377.207 21.8938 -272.072 26.2 -159.916C28.6272 -96.6096 31.1416 -31.0655 39.2122 31.8989C67.5521 252.936 164.355 442.036 566.17 390.401C574.42 389.672 582.508 389.057 590.52 388.489C589.886 393.705 589.488 398.654 589.026 403.675C579.125 405.082 569.05 406.614 558.8 408.269C156.109 483.122 33.9245 328.232 -4.01445 123.832C-20.2672 36.2557 -21.0674 -60.4198 -21.8231 -152.013C-22.8655 -278.581 -23.8307 -395.456 -65.3776 -465.361C-65.9893 -466.391 -66.625 -467.393 -67.2547 -468.403L-68.3499 -468.832C-67.5538 -467.567 -66.7606 -466.303 -65.9912 -465.011C-24.5387 -395.27 -23.5724 -278.487 -22.5296 -152.017C-21.7737 -60.3921 -20.976 36.3142 -4.71137 123.949C33.2899 328.716 155.665 483.897 558.902 408.941C569.094 407.288 579.111 405.767 588.953 404.379C588.495 409.334 588.006 414.318 587.729 419.062C575.918 421.447 563.8 424.063 551.492 426.822C136.916 524.211 -3.84478 390.201 -49.6548 194.944C-74.1469 90.5571 -71.5253 -31.3564 -69.0903 -144.782C-66.5497 -263.01 -64.2092 -372.027 -92.9829 -442.47L-93.3489 -441.538C-64.919 -371.213 -67.2527 -262.577 -69.7874 -144.786C-72.2281 -31.321 -74.8391 90.638 -50.3377 195.115C-4.43847 390.742 136.524 525.039 551.642 427.507C563.892 424.759 575.946 422.16 587.698 419.78C587.431 424.628 587.31 429.309 587.213 433.964C573.214 437.508 558.873 441.317 544.19 445.391C112.796 565.038 -43.842 446.202 -96.4144 256.405C-128.997 138.785 -121.647 -6.11123 -114.936 -138.414C-110.227 -231.19 -105.855 -317.749 -115.749 -384.449L-116.262 -383.142C-106.597 -316.69 -110.958 -230.629 -115.634 -138.449C-122.346 -6.09349 -129.697 138.862 -97.0851 256.593C-44.4076 446.761 112.448 565.845 544.381 446.053C558.985 442.003 573.257 438.212 587.197 434.678C583.616 620.138 719.709 644.029 876.631 610.596C884.891 609.271 893.201 607.784 901.561 606.137C909.025 605.064 916.526 603.857 924.063 602.516C932.059 601.561 940.074 600.46 948.109 599.211C955.48 598.505 962.864 597.661 970.263 596.679C977.967 596.154 985.661 595.506 993.346 594.734C1000.56 594.482 1007.76 594.113 1014.93 593.627C1022.27 593.671 1029.57 593.586 1036.83 593.373C1043.92 593.736 1050.97 594.005 1057.93 594.144C1064.67 594.863 1071.34 595.474 1077.91 595.976C1080.86 596.495 1083.78 596.987 1086.68 597.452L1086.94 596.789L1085.23 596.502L1087 596.616L1087.35 595.733C1085.5 595.23 1083.64 594.714 1081.78 594.185C1083.87 594.156 1085.94 594.114 1088 594.065L1088.27 593.38C1085.3 593.444 1082.32 593.492 1079.32 593.524C1077.03 592.878 1074.72 592.203 1072.41 591.523C1075.61 591.279 1078.78 591.006 1081.93 590.722C1084.08 591.566 1086.2 592.417 1088.32 593.25L1088.57 592.606C1086.88 591.943 1085.17 591.273 1083.47 590.584C1085.52 590.4 1087.56 590.209 1089.59 590.008L1089.88 589.276C1087.27 589.524 1084.65 589.766 1082.02 590.003C1079.7 589.093 1077.36 588.126 1075 587.166C1078.65 586.635 1082.28 586.082 1085.89 585.507L1090.43 587.877L1090.68 587.227L1087.04 585.309C1088.61 585.056 1090.17 584.806 1091.73 584.558L1092.03 583.802C1090.02 584.128 1088.01 584.453 1086 584.775C1083.76 583.579 1081.48 582.392 1079.19 581.18C1083.17 580.347 1087.15 579.506 1091.08 578.632L1093.44 580.194L1093.7 579.534L1092.02 578.419L1094.34 577.899L1094.65 577.109L1091.2 577.879C1089.06 576.466 1086.89 575.04 1084.69 573.601C1088.94 572.472 1093.2 571.341 1097.38 570.17L1097.7 569.344L1097.57 569.381C1095.53 567.751 1093.46 566.117 1091.35 564.479C1094.52 563.476 1097.67 562.464 1100.8 561.441L1101.14 560.58C1097.67 561.712 1094.19 562.84 1090.68 563.947C1088.62 562.336 1086.54 560.736 1084.42 559.096C1089.1 557.463 1093.71 555.797 1098.32 554.136C1099.64 555.336 1100.96 556.533 1102.26 557.729L1102.52 557.058C1101.37 556 1100.22 554.943 1099.05 553.885C1100.89 553.21 1102.73 552.537 1104.56 551.866L1104.91 550.977C1102.76 551.763 1100.61 552.548 1098.45 553.33C1096.47 551.544 1094.49 549.753 1092.45 547.961C1097.33 546.049 1102.18 544.124 1106.98 542.187L1107.96 543.184L1108.24 542.474L1107.68 541.902L1108.61 541.533L1108.97 540.622L1107.14 541.36C1105.22 539.424 1103.31 537.484 1101.33 535.55C1105.22 533.886 1109.08 532.216 1112.93 530.54L1113.29 529.604C1109.15 531.414 1104.97 533.218 1100.76 535.016C1042.09 478.14 951.638 423.66 812.415 394.076C815.529 393.803 818.6 393.56 821.666 393.321C968.95 413.488 1059.19 466.995 1114.4 526.79L1114.69 526.055C1059.81 466.695 970.455 413.577 825.163 393.084C827.915 392.893 830.641 392.693 833.355 392.526C980.028 403.123 1068.49 450.811 1121.39 509.003L1121.69 508.227C1069.29 450.7 982.18 403.466 838.472 392.168C840.078 392.071 841.766 391.92 843.365 391.836C989.301 393.654 1076.98 434.91 1128.73 490.253L1129.06 489.427C1078.82 435.796 994.902 395.394 856.909 391.324C998.99 386.053 1085.24 420.267 1136.25 471.104L1136.59 470.229Z" fill="url(#paint0_linear_2035_4525)"/>
<g filter="url(#filter0_f_2035_4525)">
<circle cx="145.5" cy="145.5" r="145.5" transform="matrix(-1 0 0 1 320 -8)" fill="#159F9B" fill-opacity="0.74"/>
</g>
<g filter="url(#filter1_f_2035_4525)">
<path d="M180.055 109.328C179.874 108.807 180.15 108.237 180.672 108.055C181.193 107.874 181.763 108.15 181.945 108.672L180.055 109.328ZM203.5 160L202.644 160.517L202.644 160.517L203.5 160ZM181 109C181.945 108.672 181.945 108.672 181.945 108.672C181.945 108.672 181.945 108.673 181.945 108.673C181.945 108.674 181.946 108.675 181.946 108.677C181.948 108.681 181.95 108.687 181.952 108.694C181.958 108.71 181.966 108.733 181.977 108.763C181.998 108.824 182.03 108.916 182.072 109.036C182.157 109.276 182.283 109.631 182.447 110.09C182.775 111.009 183.257 112.342 183.871 114.001C185.099 117.32 186.852 121.938 188.957 127.137C193.172 137.549 198.773 150.237 204.356 159.483L202.644 160.517C196.974 151.128 191.325 138.317 187.103 127.887C184.989 122.666 183.228 118.028 181.995 114.695C181.379 113.029 180.894 111.688 180.564 110.764C180.398 110.302 180.272 109.943 180.186 109.7C180.143 109.579 180.111 109.486 180.089 109.424C180.078 109.392 180.07 109.369 180.064 109.353C180.061 109.345 180.059 109.339 180.058 109.335C180.057 109.333 180.056 109.331 180.056 109.33C180.056 109.329 180.056 109.329 180.056 109.329C180.055 109.328 180.055 109.328 181 109ZM204.356 159.483C209.917 168.692 218.499 179.517 225.717 188.065C229.321 192.333 232.576 196.023 234.93 198.645C236.106 199.956 237.058 201 237.714 201.716C238.043 202.074 238.297 202.35 238.469 202.536C238.556 202.629 238.621 202.7 238.665 202.747C238.687 202.771 238.704 202.788 238.715 202.8C238.72 202.806 238.724 202.81 238.727 202.813C238.728 202.815 238.729 202.816 238.73 202.817C238.73 202.817 238.73 202.817 238.731 202.817C238.731 202.817 238.731 202.818 238 203.5C237.269 204.183 237.269 204.182 237.269 204.182C237.269 204.182 237.268 204.182 237.268 204.181C237.267 204.18 237.266 204.179 237.265 204.178C237.262 204.175 237.257 204.17 237.252 204.164C237.24 204.151 237.223 204.133 237.201 204.109C237.156 204.061 237.089 203.989 237.002 203.895C236.828 203.707 236.571 203.428 236.24 203.068C235.579 202.348 234.623 201.298 233.441 199.981C231.077 197.347 227.809 193.642 224.189 189.355C216.959 180.793 208.291 169.868 202.644 160.517L204.356 159.483Z" fill="url(#paint1_linear_2035_4525)"/>
</g>
<path d="M180.528 109.164C180.437 108.903 180.575 108.618 180.836 108.528C181.097 108.437 181.382 108.575 181.472 108.836L180.528 109.164ZM203.5 160L203.072 160.259L203.072 160.259L203.5 160ZM181 109C181.472 108.836 181.472 108.836 181.472 108.836C181.472 108.836 181.473 108.837 181.473 108.837C181.473 108.838 181.474 108.84 181.474 108.842C181.476 108.845 181.478 108.851 181.48 108.859C181.486 108.874 181.494 108.898 181.505 108.928C181.526 108.99 181.558 109.081 181.601 109.202C181.686 109.443 181.812 109.799 181.976 110.259C182.305 111.179 182.788 112.514 183.402 114.175C184.631 117.497 186.387 122.12 188.494 127.324C192.71 137.741 198.323 150.46 203.928 159.742L203.072 160.259C197.424 150.905 191.787 138.125 187.567 127.7C185.455 122.484 183.696 117.851 182.464 114.522C181.848 112.857 181.365 111.518 181.034 110.596C180.869 110.134 180.743 109.777 180.657 109.534C180.615 109.413 180.582 109.321 180.561 109.259C180.55 109.228 180.542 109.204 180.536 109.188C180.533 109.18 180.531 109.174 180.53 109.17C180.529 109.168 180.529 109.167 180.528 109.166C180.528 109.165 180.528 109.165 180.528 109.165C180.528 109.164 180.528 109.164 181 109ZM203.928 159.742C209.511 168.986 218.114 179.836 225.335 188.388C228.943 192.66 232.201 196.354 234.558 198.979C235.736 200.292 236.688 201.337 237.346 202.054C237.675 202.413 237.93 202.689 238.103 202.876C238.189 202.969 238.255 203.04 238.299 203.087C238.321 203.111 238.338 203.129 238.349 203.141C238.354 203.147 238.359 203.151 238.361 203.154C238.363 203.156 238.364 203.157 238.364 203.158C238.365 203.158 238.365 203.158 238.365 203.159C238.365 203.159 238.365 203.159 238 203.5C237.635 203.841 237.634 203.841 237.634 203.841C237.634 203.841 237.634 203.84 237.633 203.84C237.633 203.839 237.632 203.838 237.63 203.837C237.627 203.834 237.623 203.829 237.617 203.823C237.606 203.811 237.589 203.792 237.567 203.768C237.522 203.72 237.456 203.649 237.369 203.555C237.195 203.367 236.939 203.09 236.609 202.73C235.949 202.011 234.994 200.963 233.813 199.647C231.452 197.016 228.187 193.315 224.571 189.033C217.344 180.474 208.698 169.574 203.072 160.259L203.928 159.742Z" fill="url(#paint2_linear_2035_4525)"/>
<g filter="url(#filter2_f_2035_4525)">
<path d="M42.4301 59.4535C42.3559 58.9062 42.7393 58.4023 43.2866 58.3281C43.8339 58.2538 44.3377 58.6373 44.412 59.1846L42.4301 59.4535ZM55.3631 113.767L54.4216 114.104L54.4216 114.104L55.3631 113.767ZM43.421 59.319C44.412 59.1846 44.412 59.1846 44.412 59.1848C44.412 59.185 44.4121 59.1854 44.4121 59.1858C44.4123 59.1868 44.4125 59.1883 44.4127 59.1902C44.4133 59.1942 44.4141 59.2002 44.4152 59.2082C44.4174 59.2243 44.4207 59.2484 44.4251 59.2805C44.434 59.3446 44.4472 59.4405 44.4649 59.5666C44.5002 59.8188 44.5531 60.192 44.623 60.6746C44.7628 61.6398 44.9709 63.0425 45.2435 64.7902C45.7889 68.286 46.5923 73.1603 47.6243 78.6733C49.6912 89.714 52.6652 103.261 56.3046 113.431L54.4216 114.104C50.7259 103.778 47.7289 90.1008 45.6585 79.0413C44.6219 73.5041 43.8151 68.6093 43.2674 65.0985C42.9936 63.3429 42.7844 61.933 42.6437 60.9613C42.5733 60.4755 42.52 60.0992 42.4842 59.844C42.4664 59.7164 42.4529 59.6191 42.4438 59.5536C42.4393 59.5208 42.4359 59.4959 42.4336 59.4792C42.4325 59.4708 42.4316 59.4645 42.431 59.4602C42.4307 59.458 42.4305 59.4564 42.4304 59.4553C42.4303 59.4547 42.4302 59.4543 42.4302 59.454C42.4301 59.4537 42.4301 59.4535 43.421 59.319ZM56.3046 113.431C59.9295 123.559 66.1951 135.871 71.575 145.68C74.2613 150.578 76.7201 154.84 78.5071 157.877C79.4005 159.395 80.1258 160.607 80.6275 161.439C80.8783 161.855 81.0732 162.176 81.2052 162.392C81.2712 162.5 81.3214 162.583 81.3551 162.638C81.372 162.665 81.3847 162.686 81.3931 162.7C81.3973 162.706 81.4005 162.712 81.4026 162.715C81.4036 162.717 81.4044 162.718 81.4049 162.719C81.4051 162.719 81.4053 162.719 81.4054 162.72C81.4055 162.72 81.4056 162.72 80.5539 163.244C79.7022 163.768 79.7021 163.768 79.702 163.768C79.7018 163.767 79.7016 163.767 79.7013 163.767C79.7007 163.766 79.6998 163.764 79.6987 163.762C79.6965 163.759 79.6931 163.753 79.6887 163.746C79.6799 163.732 79.6668 163.71 79.6496 163.682C79.6152 163.626 79.5641 163.543 79.4974 163.433C79.3638 163.214 79.1673 162.89 78.9148 162.472C78.4098 161.634 77.6808 160.416 76.7834 158.891C74.9886 155.841 72.5195 151.561 69.8214 146.642C64.4324 136.816 58.1025 124.39 54.4216 114.104L56.3046 113.431Z" fill="url(#paint3_linear_2035_4525)"/>
</g>
<path d="M42.9256 59.3862C42.8885 59.1126 43.0802 58.8607 43.3538 58.8235C43.6274 58.7864 43.8794 58.9781 43.9165 59.2518L42.9256 59.3862ZM55.3631 113.767L54.8923 113.936L54.8923 113.936L55.3631 113.767ZM43.421 59.319C43.9165 59.2518 43.9165 59.2519 43.9165 59.2521C43.9166 59.2524 43.9166 59.2527 43.9167 59.2532C43.9168 59.2542 43.917 59.2557 43.9173 59.2577C43.9179 59.2618 43.9187 59.2678 43.9198 59.2759C43.922 59.2922 43.9254 59.3165 43.9298 59.3488C43.9387 59.4133 43.952 59.5095 43.9697 59.636C44.0052 59.8889 44.0581 60.2629 44.1282 60.7463C44.2682 61.7131 44.4766 63.1176 44.7495 64.8673C45.2954 68.3668 46.0997 73.2463 47.1329 78.7653C49.2006 89.8107 52.1804 103.39 55.8339 113.599L54.8923 113.936C51.2107 103.649 48.2194 90.0041 46.1499 78.9493C45.1145 73.4182 44.3086 68.5285 43.7615 65.0214C43.4879 63.2678 43.279 61.8597 43.1385 60.8896C43.0682 60.4046 43.015 60.0291 42.9794 59.7747C42.9616 59.6475 42.9482 59.5505 42.9392 59.4853C42.9347 59.4527 42.9313 59.428 42.929 59.4114C42.9279 59.4031 42.927 59.3969 42.9265 59.3927C42.9262 59.3906 42.926 59.389 42.9258 59.3879C42.9257 59.3874 42.9257 59.387 42.9256 59.3867C42.9256 59.3864 42.9256 59.3862 43.421 59.319ZM55.8339 113.599C59.4728 123.767 65.7544 136.107 71.1366 145.921C73.8259 150.824 76.2872 155.09 78.0762 158.13C78.9706 159.651 79.6968 160.864 80.1993 161.697C80.4505 162.114 80.6458 162.435 80.7782 162.652C80.8444 162.761 80.8949 162.844 80.9287 162.899C80.9457 162.926 80.9585 162.947 80.967 162.961C80.9713 162.968 80.9745 162.973 80.9766 162.977C80.9777 162.979 80.9785 162.98 80.979 162.981C80.9792 162.981 80.9794 162.981 80.9796 162.982C80.9797 162.982 80.9797 162.982 80.5539 163.244C80.1281 163.506 80.128 163.506 80.1278 163.506C80.1277 163.505 80.1275 163.505 80.1272 163.505C80.1266 163.504 80.1258 163.502 80.1247 163.501C80.1225 163.497 80.1192 163.492 80.1148 163.484C80.1061 163.47 80.0931 163.449 80.076 163.421C80.0417 163.365 79.9909 163.282 79.9243 163.173C79.7912 162.954 79.5951 162.632 79.343 162.214C78.8388 161.378 78.1107 160.161 77.2143 158.638C75.4215 155.591 72.955 151.316 70.2598 146.401C64.873 136.58 58.5593 124.182 54.8923 113.936L55.8339 113.599Z" fill="url(#paint4_linear_2035_4525)"/>
<g filter="url(#filter3_f_2035_4525)">
<path d="M334.535 -6.11736C334.387 -6.64918 334.697 -7.20105 335.229 -7.35C335.761 -7.49895 336.312 -7.18857 336.461 -6.65675L334.535 -6.11736ZM354.828 45.8969L353.942 46.3604L353.942 46.3604L354.828 45.8969ZM335.498 -6.38705C336.461 -6.65675 336.461 -6.65668 336.461 -6.65649C336.462 -6.65626 336.462 -6.65595 336.462 -6.65549C336.462 -6.65457 336.462 -6.65314 336.463 -6.65123C336.464 -6.64739 336.466 -6.64156 336.468 -6.63376C336.472 -6.61817 336.479 -6.5947 336.488 -6.56353C336.505 -6.50121 336.532 -6.4081 336.566 -6.28564C336.636 -6.04071 336.74 -5.67837 336.876 -5.21002C337.147 -4.27329 337.546 -2.9126 338.057 -1.21911C339.079 2.16819 340.546 6.88536 342.328 12.2036C345.896 22.8543 350.708 35.8625 355.714 45.4335L353.942 46.3604C348.859 36.6415 344.006 23.5077 340.432 12.8389C338.642 7.49737 337.169 2.76039 336.143 -0.641523C335.629 -2.34263 335.228 -3.71031 334.955 -4.6533C334.818 -5.12481 334.713 -5.49016 334.643 -5.73797C334.608 -5.86187 334.581 -5.95639 334.563 -6.02009C334.554 -6.05195 334.547 -6.0761 334.542 -6.09237C334.54 -6.1005 334.538 -6.10667 334.537 -6.11084C334.537 -6.11293 334.536 -6.11451 334.536 -6.1156C334.536 -6.11614 334.536 -6.11658 334.536 -6.11686C334.536 -6.11717 334.535 -6.11736 335.498 -6.38705ZM355.714 45.4335C360.7 54.9663 368.602 66.2974 375.282 75.2717C378.618 79.7528 381.64 83.6352 383.828 86.3971C384.923 87.7779 385.808 88.8782 386.419 89.633C386.725 90.0103 386.962 90.3012 387.123 90.4976C387.203 90.5957 387.264 90.6702 387.305 90.7201C387.326 90.745 387.341 90.7637 387.351 90.7762C387.357 90.7824 387.36 90.7871 387.363 90.7901C387.364 90.7917 387.365 90.7928 387.366 90.7935C387.366 90.7939 387.366 90.7942 387.366 90.7943C387.366 90.7945 387.367 90.7945 386.595 91.431C385.824 92.0674 385.824 92.0673 385.824 92.067C385.823 92.0668 385.823 92.0665 385.823 92.066C385.822 92.0652 385.821 92.0639 385.82 92.0622C385.817 92.0589 385.813 92.054 385.807 92.0475C385.797 92.0345 385.781 92.0152 385.76 91.9897C385.718 91.9388 385.656 91.8631 385.575 91.7638C385.412 91.5652 385.173 91.2719 384.865 90.892C384.25 90.1322 383.36 89.0261 382.261 87.6391C380.063 84.8654 377.028 80.9666 373.678 76.4659C366.986 67.4763 359.005 56.0404 353.942 46.3604L355.714 45.4335Z" fill="url(#paint5_linear_2035_4525)"/>
</g>
<path d="M335.017 -6.2522C334.942 -6.51811 335.098 -6.79405 335.364 -6.86852C335.629 -6.943 335.905 -6.78781 335.98 -6.5219L335.017 -6.2522ZM354.828 45.8969L354.385 46.1286L354.385 46.1286L354.828 45.8969ZM335.498 -6.38705C335.98 -6.5219 335.98 -6.5218 335.98 -6.52158C335.98 -6.52134 335.98 -6.521 335.98 -6.52052C335.981 -6.51955 335.981 -6.51809 335.982 -6.51613C335.983 -6.51221 335.984 -6.50629 335.986 -6.49841C335.991 -6.48265 335.998 -6.45901 336.006 -6.42767C336.024 -6.365 336.051 -6.27154 336.086 -6.14872C336.155 -5.90307 336.259 -5.53998 336.395 -5.07084C336.667 -4.13254 337.067 -2.77011 337.579 -1.07471C338.601 2.31624 340.07 7.03836 341.854 12.3624C345.424 23.0176 350.246 36.0572 355.271 45.6652L354.385 46.1286C349.321 36.4468 344.479 23.3444 340.906 12.6801C339.118 7.34436 337.646 2.61234 336.621 -0.785919C336.109 -2.48512 335.708 -3.85106 335.435 -4.79248C335.299 -5.2632 335.194 -5.6278 335.124 -5.87489C335.089 -5.99843 335.062 -6.09259 335.044 -6.15595C335.035 -6.18763 335.028 -6.21161 335.024 -6.22772C335.022 -6.23577 335.02 -6.24185 335.019 -6.24594C335.018 -6.24798 335.018 -6.24953 335.017 -6.25057C335.017 -6.2511 335.017 -6.2515 335.017 -6.25176C335.017 -6.25205 335.017 -6.2522 335.498 -6.38705ZM355.271 45.6652C360.276 55.2348 368.198 66.5921 374.881 75.5702C378.22 80.0563 381.246 83.9427 383.437 86.7076C384.532 88.0899 385.418 89.1917 386.031 89.9477C386.337 90.3257 386.575 90.6172 386.736 90.8141C386.816 90.9126 386.878 90.9874 386.919 91.0375C386.94 91.0625 386.955 91.0814 386.965 91.094C386.971 91.1003 386.975 91.105 386.977 91.1082C386.978 91.1097 386.979 91.1109 386.98 91.1117C386.98 91.112 386.981 91.1123 386.981 91.1125C386.981 91.1127 386.981 91.1128 386.595 91.431C386.21 91.7492 386.209 91.7491 386.209 91.7489C386.209 91.7486 386.209 91.7483 386.208 91.7479C386.208 91.7471 386.207 91.7458 386.205 91.7442C386.203 91.7409 386.199 91.7361 386.193 91.7297C386.183 91.7168 386.167 91.6976 386.146 91.6723C386.105 91.6216 386.043 91.5463 385.962 91.4473C385.8 91.2492 385.561 90.9565 385.254 90.5772C384.639 89.8187 383.751 88.7141 382.653 87.3286C380.457 84.5578 377.425 80.6632 374.079 76.1673C367.39 67.1816 359.429 55.7719 354.385 46.1286L355.271 45.6652Z" fill="url(#paint6_linear_2035_4525)"/>
<circle cx="2.5" cy="2.5" r="2.5" transform="matrix(-1 0 0 1 171 71)" fill="white"/>
</g>
<defs>
<filter id="filter0_f_2035_4525" x="-171" y="-208" width="691" height="691" filterUnits="userSpaceOnUse" color-interpolation-filters="sRGB">
<feFlood flood-opacity="0" result="BackgroundImageFix"/>
<feBlend mode="normal" in="SourceGraphic" in2="BackgroundImageFix" result="shape"/>
<feGaussianBlur stdDeviation="100" result="effect1_foregroundBlur_2035_4525"/>
</filter>
<filter id="filter1_f_2035_4525" x="178" y="106" width="62.731" height="100.182" filterUnits="userSpaceOnUse" color-interpolation-filters="sRGB">
<feFlood flood-opacity="0" result="BackgroundImageFix"/>
<feBlend mode="normal" in="SourceGraphic" in2="BackgroundImageFix" result="shape"/>
<feGaussianBlur stdDeviation="1" result="effect1_foregroundBlur_2035_4525"/>
</filter>
<filter id="filter2_f_2035_4525" x="40.4209" y="56.3189" width="42.9844" height="109.449" filterUnits="userSpaceOnUse" color-interpolation-filters="sRGB">
<feFlood flood-opacity="0" result="BackgroundImageFix"/>
<feBlend mode="normal" in="SourceGraphic" in2="BackgroundImageFix" result="shape"/>
<feGaussianBlur stdDeviation="1" result="effect1_foregroundBlur_2035_4525"/>
</filter>
<filter id="filter3_f_2035_4525" x="332.498" y="-9.38733" width="56.8682" height="103.454" filterUnits="userSpaceOnUse" color-interpolation-filters="sRGB">
<feFlood flood-opacity="0" result="BackgroundImageFix"/>
<feBlend mode="normal" in="SourceGraphic" in2="BackgroundImageFix" result="shape"/>
<feGaussianBlur stdDeviation="1" result="effect1_foregroundBlur_2035_4525"/>
</filter>
<linearGradient id="paint0_linear_2035_4525" x1="52.5001" y1="86" x2="651.5" y2="238" gradientUnits="userSpaceOnUse">
<stop stop-color="white" stop-opacity="0.38"/>
<stop offset="1" stop-color="white" stop-opacity="0"/>
</linearGradient>
<linearGradient id="paint1_linear_2035_4525" x1="185.5" y1="121" x2="201" y2="158" gradientUnits="userSpaceOnUse">
<stop stop-color="white"/>
<stop offset="1" stop-color="white" stop-opacity="0"/>
</linearGradient>
<linearGradient id="paint2_linear_2035_4525" x1="185.5" y1="121" x2="201" y2="158" gradientUnits="userSpaceOnUse">
<stop stop-color="white"/>
<stop offset="1" stop-color="white" stop-opacity="0"/>
</linearGradient>
<linearGradient id="paint3_linear_2035_4525" x1="45.4526" y1="71.973" x2="53.3092" y2="111.312" gradientUnits="userSpaceOnUse">
<stop stop-color="white"/>
<stop offset="1" stop-color="white" stop-opacity="0"/>
</linearGradient>
<linearGradient id="paint4_linear_2035_4525" x1="45.4526" y1="71.973" x2="53.3092" y2="111.312" gradientUnits="userSpaceOnUse">
<stop stop-color="white"/>
<stop offset="1" stop-color="white" stop-opacity="0"/>
</linearGradient>
<linearGradient id="paint5_linear_2035_4525" x1="339.254" y1="5.86635" x2="352.455" y2="43.7473" gradientUnits="userSpaceOnUse">
<stop stop-color="white"/>
<stop offset="1" stop-color="white" stop-opacity="0"/>
</linearGradient>
<linearGradient id="paint6_linear_2035_4525" x1="339.254" y1="5.86635" x2="352.455" y2="43.7473" gradientUnits="userSpaceOnUse">
<stop stop-color="white"/>
<stop offset="1" stop-color="white" stop-opacity="0"/>
</linearGradient>
<clipPath id="clip0_2035_4525">
<path d="M0 32C0 14.3269 14.3269 0 32 0H1295V138H32C14.3269 138 0 123.673 0 106V32Z" fill="white"/>
</clipPath>
</defs>
</svg>
