<svg width="140" height="32" viewBox="0 0 140 32" fill="none" xmlns="http://www.w3.org/2000/svg">
<path d="M5.29963 20C4.52096 20 3.82763 19.8347 3.21963 19.504C2.62229 19.1627 2.15296 18.6933 1.81163 18.096C1.48096 17.488 1.31563 16.7893 1.31563 16C1.31563 15.648 1.34763 15.2907 1.41163 14.928C1.53963 14.2667 1.69429 13.6107 1.87563 12.96L5.15563 13.952C4.99563 14.56 4.88363 15.0293 4.81963 15.36C4.80896 15.4027 4.80363 15.4667 4.80363 15.552C4.80363 15.8507 4.98496 16 5.34763 16H10.5956C10.9476 16 11.193 15.9413 11.3316 15.824C11.4703 15.7067 11.5183 15.5253 11.4756 15.28C11.401 14.7893 11.2943 14.1653 11.1556 13.408L14.4836 12.56C14.857 14.1493 15.0436 15.312 15.0436 16.048C15.0436 16.688 14.8836 17.3173 14.5636 17.936C14.2543 18.544 13.8116 19.04 13.2356 19.424C12.6596 19.808 11.993 20 11.2356 20H5.29963ZM6.89963 21.008H8.38763C9.04896 21.008 9.53963 21.0133 9.85963 21.024V23.888H6.89963V21.008ZM20.7078 20C19.8118 20 19.0598 19.808 18.4518 19.424C17.8438 19.0293 17.3904 18.5067 17.0918 17.856C16.7931 17.2053 16.6438 16.4853 16.6438 15.696V8.128H20.1638V15.6C20.1638 15.7387 20.1904 15.84 20.2438 15.904C20.3078 15.968 20.4091 16 20.5477 16H21.5078L21.6678 17.904L21.5078 20H20.7078ZM21.3419 16H24.6859L24.8459 18L24.6859 20H21.3419V16ZM24.5137 16H27.8578L28.0178 18L27.8578 20H24.5137V16ZM27.6856 16H31.0296L31.1896 18L31.0296 20H27.6856V16ZM30.8575 16H34.2015L34.3615 18L34.2015 20H30.8575V16ZM34.0294 16H37.3734L37.5334 18L37.3734 20H34.0294V16ZM37.2012 16H40.5453L40.7053 18L40.5453 20H37.2012V16ZM40.3731 16H43.7171L43.8771 18L43.7171 20H40.3731V16ZM43.545 16H46.889L47.049 18L46.889 20H43.545V16ZM46.7169 16H50.0609L50.2209 18L50.0609 20H46.7169V16ZM49.8887 16H51.7448C52.0968 16 52.3421 15.9413 52.4808 15.824C52.6194 15.7067 52.6674 15.5253 52.6248 15.28C52.5501 14.7893 52.4434 14.1653 52.3048 13.408L55.6328 12.56C56.0061 14.1493 56.1928 15.312 56.1928 16.048C56.1928 16.7093 56.0488 17.344 55.7608 17.952C55.4834 18.5493 55.0568 19.04 54.4808 19.424C53.9048 19.808 53.2061 20 52.3848 20H49.8887V16ZM48.7527 21.216H49.6327H51.3928H51.4248H54.0648V23.888H51.4248H51.3928H48.7527V21.216Z" fill="#1DBAB5"/>
<path d="M66.368 13.792V15.6C66.368 15.8667 66.592 16 67.04 16H67.184L67.328 18.048L67.184 20H66.896C66.6613 20 66.432 19.968 66.208 19.904C65.9413 21.184 65.36 22.1867 64.464 22.912C63.5787 23.6373 62.4267 24 61.008 24H60V20H61.008C61.6053 20 62.0213 19.968 62.256 19.904C62.5013 19.8293 62.6613 19.68 62.736 19.456C62.8107 19.232 62.848 18.8373 62.848 18.272V13.792H66.368ZM67.0294 16H70.3734L70.5334 18L70.3734 20H67.0294V16ZM70.2012 16H73.5453L73.7053 18L73.5453 20H70.2012V16ZM73.3731 16H76.7171L76.8771 18L76.7171 20H73.3731V16ZM76.545 16H79.889L80.049 18L79.889 20H76.545V16ZM79.7169 16H83.0609L83.2209 18L83.0609 20H79.7169V16ZM82.8887 16H86.2328L86.3928 18L86.2328 20H82.8887V16ZM86.0606 16H89.4046L89.5646 18L89.4046 20H86.0606V16ZM95.0405 13.792V15.6C95.0405 15.76 95.0672 15.8667 95.1205 15.92C95.1738 15.9733 95.2752 16 95.4245 16H95.8405L95.9845 18.064L95.8405 20H95.2165C94.4485 20 93.7552 19.7707 93.1365 19.312C92.4752 19.7707 91.7872 20 91.0725 20H89.2325V16H91.0405C91.2432 16 91.3712 15.9733 91.4245 15.92C91.4885 15.8667 91.5205 15.76 91.5205 15.6V13.792H95.0405ZM89.6965 9.792H90.5765H92.3365H92.3685H95.0085V12.464H92.3685H92.3365H89.6965V9.792ZM103.638 10.304L100.278 11.792L101.878 13.424C102.251 13.808 102.528 14.24 102.71 14.72C102.902 15.2 102.998 15.696 102.998 16.208C102.998 16.8587 102.848 17.4773 102.55 18.064C102.251 18.64 101.819 19.1093 101.254 19.472C100.688 19.824 100.022 20 99.2536 20H95.6856V16H99.1576L95.9736 12.736L96.5496 9.152L102.23 6.656L103.638 10.304ZM108.786 9.504C108.988 9.78133 109.079 9.90933 109.058 9.888C109.292 10.24 109.682 10.8213 110.226 11.632C110.77 12.432 111.159 13.0187 111.394 13.392C111.671 13.808 111.884 14.256 112.034 14.736C112.183 15.216 112.258 15.6907 112.258 16.16C112.258 16.992 112.039 17.712 111.602 18.32C111.196 18.8747 110.695 19.296 110.098 19.584C109.5 19.8613 108.844 20 108.13 20H107.25C106.439 20 105.719 19.8827 105.09 19.648C104.471 19.4027 103.906 19.0933 103.394 18.72L104.77 15.568C105.122 15.696 105.452 15.8027 105.762 15.888C106.082 15.9627 106.482 16 106.962 16H107.762C108.05 16 108.258 15.9893 108.386 15.968C108.514 15.936 108.594 15.888 108.626 15.824C108.647 15.7813 108.658 15.744 108.658 15.712C108.658 15.6053 108.61 15.488 108.514 15.36C107.074 13.376 106.183 12.16 105.842 11.712L108.786 9.504Z" fill="#1DBAB5"/>
<path d="M139.722 16C139.722 18.9174 138.602 21.7153 136.608 23.7782C134.614 25.8411 131.91 27 129.09 27H127.316V21.5H129.09C130.5 21.5 131.852 20.9205 132.849 19.8891C133.846 18.8576 134.406 17.4587 134.406 16C134.406 14.5413 133.846 13.1424 132.849 12.1109C131.852 11.0795 130.5 10.5 129.09 10.5H127.316C125.906 10.5 124.554 11.0795 123.557 12.1109C122.56 13.1424 122 14.5413 122 16V5H129.09C130.486 5 131.869 5.28452 133.159 5.83733C134.449 6.39013 135.621 7.20038 136.608 8.22182C137.595 9.24327 138.379 10.4559 138.913 11.7905C139.447 13.1251 139.722 14.5555 139.722 16Z" fill="url(#paint0_linear_158_987)"/>
<path d="M127.5 12.3335V27.0002H122V17.8332C122 16.3746 122.579 14.9757 123.611 13.9443C124.642 12.9129 126.041 12.3335 127.5 12.3335Z" fill="url(#paint1_linear_158_987)"/>
<defs>
<linearGradient id="paint0_linear_158_987" x1="124.351" y1="3.595" x2="136.651" y2="24.1879" gradientUnits="userSpaceOnUse">
<stop stop-color="#1AA29D"/>
<stop offset="0.21" stop-color="#2ED3CE"/>
<stop offset="0.62" stop-color="#1DBAB5"/>
<stop offset="1" stop-color="#139591"/>
</linearGradient>
<linearGradient id="paint1_linear_158_987" x1="121.895" y1="14.7209" x2="128.612" y2="26.358" gradientUnits="userSpaceOnUse">
<stop stop-color="#1DBAB5"/>
<stop offset="1" stop-color="#157673"/>
</linearGradient>
</defs>
</svg>
