<svg xmlns="http://www.w3.org/2000/svg" viewBox="0 0 1024 1024.001" xmlns:v="https://vecta.io/nano"><path fill="#9ca2a7" d="M502.63 0h16.973c45.39 1.972 89.907 20.25 123.008 51.43 35.1 32.334 57.14 78.08 60.878 125.62h22.682l25.88.05c20.532.104 40.756 9.268 54.452 24.552 12.468 13.593 19.508 31.923 19.508 50.38l.025 92.877v62.438l38.63-.026h37.402c12.11-.486 23.808 6.99 28.928 17.87 3.098 6.04 3.072 12.876 3.02 19.506v3.355l-.485 65.868c-.512 15.514-14.413 28.928-29.876 29.16l-45.977.127c-10.522-.026-21.07-.05-31.616 0v59.98h31.514.052l46.412.103c15.95.077 30.004 14.54 29.876 30.438l-.23 64.743-.052 9.6c.256 16.13-13.9 30.695-30.003 30.874l-47.182.128-30.387-.025-.025 59.085h32.103l46.028.102c16.36.256 30.49 15.386 29.8 31.693l-.385 73.88c-.05 16.36-14.975 30.72-31.36 30.158l-43.826.026c-10.778 0-21.58-.025-32.36 0v60.007h56.424l111.488-.05v-602.19c.28-22.68-19.175-43.392-41.882-44.262-12.544-.282-25.088-.23-37.632-.154-10.83.027-21.658.078-32.486-.076-7.066.308-14.03-4.53-15.463-11.57-2.304-8.474 4.48-18.074 13.415-18.177 13.772-.307 27.545-.256 41.318-.205h26.803c21.094-.307 42.11 8.68 56.242 24.397 11.956 12.902 18.816 30.08 19.738 47.615v606.31c-1.357 14.516-13.39 26.6-27.827 28.365H28.313c-14.437-1.41-26.546-13.39-28.313-27.778V389.58c.82-18.072 8.09-35.813 20.66-48.87 13.67-14.54 33.33-23.218 53.298-23.32l70.093-.052h.027l52.915-.026v-27.417l.358-44.21c2.202-34.792 31.924-65.153 66.637-68.174 11.57-.64 23.168-.537 34.765-.46h21.734c3.687-47.565 25.83-93.363 60.98-125.696C414.13 20.608 457.933 2.56 502.63 0zM227.046 251.956l-.05 472.243v269.797h120.96v-38.272-47.872c-.692-7.475 4.428-15.13 12.006-16.46 8.704-2.1 18.022 5.247 17.868 14.233l.128 51.942v.026 36.403h119.04l-.025-264.115c-39.655-.026-79.335-.026-119.015 0v52.89l-.025 51.507c.537 6.783-3.456 13.823-10.087 15.948-9.164 3.584-20.198-4.148-19.788-13.978l-.103-78.464.05-27.494c-14.08.588-28.363-9.677-29.77-24.14-.54-12.29-.36-24.603-.18-36.916l.05-3.43c.077-14.44 13.517-26.65 27.853-25.908h332.135c11.853-.538 23.22 7.552 26.65 18.893 1.612 6.478 1.46 13.134 1.305 19.79-.05 3.148-.128 6.272 0 9.37-.077 2.2-.026 4.454.026 6.732.153 8.038.332 16.282-4.608 22.99-5.504 8.42-15.668 12.184-25.396 12.44l-.025 150.81v113.077h119.987V630.144 266.01l.026-5.504c.076-8.192.153-16.512-2.893-24.218-6.093-16.896-23.143-29.158-41.165-29.184l-30.336-.025h-18.202c-4.556 61.49-40.832 119.346-94.13 150.296-37.3 22.272-82.356 30.925-125.262 24.55-43.34-6.194-84.12-28.057-113.612-60.39-28.8-31.18-46.567-72.166-49.92-114.457-15.488-.027-31.002 0-46.49-.052-24.73-1.716-47.693 20.12-47.002 44.928zm263.988-220.57c-58.138 6.99-110.183 48.384-130.51 103.194-14.36 37.53-13.95 80.486 1.127 117.708 13.98 34.92 40.552 64.59 73.704 82.33 54.476 30.234 126.156 24.422 175.104-14.13 27.545-21.044 48.076-51.15 57.42-84.558 9.293-32.614 7.91-68.122-3.89-99.917-12.647-34.406-37.377-64.205-68.84-82.995-30.924-18.765-68.3-26.368-104.114-21.632zM32.768 376.806c-2.893 7.425-2.842 15.438-2.79 23.322v3.968l.025 252.852v.025l.05 336.973 110.824.05h56.114v-60.005c-10.163-.025-20.326 0-30.515 0-15.54.052-31.053.078-46.567-.102-15.513-.358-29.26-14.182-29.49-29.696l-.41-74.24c-.743-16.307 13.516-31.54 29.875-31.718l45.158-.102h31.95v-59.06c-10.47-.05-20.942-.025-31.387 0-15.206.026-30.412.052-45.593-.153-15.923-.41-29.927-14.798-29.645-30.772l-.333-74.317c-.205-15.948 14.03-30.49 30.003-30.59l42.855-.052h.025 34.074v-59.98c-10.19-.052-20.352-.027-30.54 0-15.412.024-30.798.05-46.183-.13-16.104-.306-30.286-14.847-29.902-31.026l-.077-12.314-.23-61.85c-.178-15.923 14.03-30.387 29.953-30.515l42.65-.05h34.33V347.34h-46.747c-25.395-.024-50.79-.024-76.185.027-18.15 0-35.225 12.44-41.292 29.44zm494.26 353.076L527 993.997h119.04V729.882c-39.68-.026-79.36-.026-119.015 0zm-179.073-60.006v29.977h328.09v-9.984-19.994c-109.363-.026-218.727-.026-328.09 0zm478.08-36.685v18.996l.026 56.883h30.183l47.36-.103.384-75.7-50.073-.076h-27.88zm0 194.945v75.853H856.5l47.103-.052.333-75.724-51.89-.077h-26.012zm0-390.784v18.945l.026 56.91h29.236l48.307-.104.384-75.672-49.715-.103h-.05l-28.187.026zm-705.97 390.862l.357 75.724 50.765.077h.05l25.755-.025v-75.853h-25.676c-17.102-.026-34.177-.026-51.252.077zm-.052-194.944l.384 75.7 50.125.1h26.47v-75.877h-27.546c-16.46 0-32.947-.025-49.433.078zm0-195.84l.384 75.673 51.865.104h.077l24.652-.026V437.35c-8.218 0-16.41 0-24.627-.025-17.434 0-34.893-.025-52.352.103zM485.427 61.466c6.375-1.766 12.954-1.638 19.507-1.485 3.02.078 6.042.13 9.037.027 2.408.077 4.865.025 7.323-.026 7.347-.152 14.822-.306 21.376 3.278 9.06 4.66 14.616 14.694 14.31 24.806l.025 30.823.025 28.16h24.884l35.942.102c12.595.025 24.09 10.265 25.702 22.732.615 5.888.538 11.853.46 17.792v10.24c-.024 1.587-.024 3.2 0 4.813.078 6.835.155 13.875-3.3 19.942-4.61 8.985-14.568 14.514-24.577 14.335l-34.79.077c-8.115-.026-16.23-.05-24.32 0l-.025 25.293v.025l-.154 35.584c-.1 13.978-12.722 26.138-26.674 25.908l-5.376.05c-11.06.13-22.093.23-33.126-.178-13.184-.768-24.5-12.698-24.55-25.96l-.13-35.583-.024-25.138-24.73-.026c-12.058.052-24.14.077-36.198-.153-12.493-.256-23.962-10.266-25.575-22.682-.64-5.964-.563-11.954-.486-17.97v-10.214a150.17 150.17 0 0 0 0-4.84c-.076-6.834-.153-13.823 3.252-19.89 4.403-8.294 13.363-14.08 22.835-14.157l35.994-.103h24.91l.025-24.832.154-36.147c.127-11.008 7.884-21.248 18.277-24.602zm11.57 28.518v26.445.025l-.05 39.373c.307 11.238-9.6 21.273-20.864 21.12l-38.86.128c-9.063-.026-18.15-.052-27.213 0v.025 29.98h25.78l40.14.024c11.417-.46 21.4 9.882 21.043 21.223l.025 37.76v.025 27.88h30.004v-27.905-.026l.025-37.81c-.358-11.315 9.677-21.606 21.07-21.146l40.114-.025h25.78v-30.03c-8.883-.026-17.792-.026-26.675 0-13.133.05-26.24.077-39.32-.102-10.753.128-20.584-8.96-20.865-19.764l-.128-40.73v-26.47zm-184.55 354.612c3.483-.59 7.04-.615 10.574-.64h.948l58.573.05h.026l69.504.078c15.668.153 29.62 14.08 29.824 29.747l.103 50.356-.026 23.936c.923 18.893-17.56 34.278-35.94 31.77l-61.774-.026h-.026c-22.195.026-44.364.026-66.56-.05-16.614.1-31.385-15.26-30.592-31.873l.41-73.856c.102-14.055 11.238-26.906 24.96-29.49zm5.044 29.44l-.306 75.8 28.698.027 106.06-.05v-75.752l-110.72-.05-23.73.026zm247.297-28.928c3.994-1.076 8.14-1.1 12.263-1.127.332 0 .665-.024.998-.024l60.75.05h.024l67.252.052c16.614-.026 31.18 15.41 30.36 32l-.434 74.112c-.256 15.642-14.26 29.466-29.875 29.62l-93.594.076c-12.9 0-25.804-.026-38.68-.026-16.256.717-31.463-13.286-31.744-29.593l-.103-48.256v-.05l.026-26.036c-.64-13.952 9.42-27.11 22.757-30.796zm7.27 28.953v75.752l133.99-.026.052-7.706.28-68.044c-44.774-.052-89.574-.103-134.322.025zm-125.49 358.555c8.345-3.61 19.046 2.355 20.095 11.47.512 7.243.436 14.514.36 21.784l-.052 10.214c.588 7.68-5.223 15.104-12.903 16.025-8.345 1.382-16.973-5.582-16.92-14.132a633.4 633.4 0 0 1-.027-32c.026-5.888 4.02-11.315 9.446-13.363zm119.96.025c9.063-3.993 20.507 3.405 20.327 13.338l.103 5.453c.153 9.498.333 19.047-.307 28.52-1.28 10.75-15.72 16.178-23.885 9.087-6.298-4.813-6.042-12.646-5.786-20.07.076-2.407.153-4.762 0-6.99.025-1.612-.026-3.353-.078-5.12-.256-9.445-.537-20.428 9.626-24.217z"/></svg>