<svg xmlns="http://www.w3.org/2000/svg" width="1296" height="138" fill="none" xmlns:v="https://vecta.io/nano"><g clip-path="url(#C)"><path d="M1235.32 332.977l5-.731-5.8 1.644-6.06 1.289 6.86-2.202zM853.136-95.96l.681-10.208 2.353-11.454-1.471 11.716-1.563 9.946zm-.577 11.382l.111-3.308.61-3.899-.721 7.207zM1260.38 327.25l5.9-.72-7.25 1.768-4.67.818 6.02-1.866zm-11.57 1.162l7.43-.745-9.63 2.796-6.59.995 8.8-3.049-.01.003zM849.774-71.911c-.105-3.77-.084-7.714-.133-11.564l3.01-17.038-.766 12.533-2.11 16.066-.001.003zm.587 12.802l-.374-8.137 1.641-13.062-.254 7.534-1.013 13.662v.003zm.418 9.084l-.095-2.066.088-1.338.008 3.401-.001.003zm446.581 371.236l1-.099-2.24.377 1.24-.278zm-11.5.94l5.46-.41-6.64 1.493-6.35.945 7.53-2.028zm-11.61.798l7.23-.464-9.12 2.454-7.67.976 9.56-2.967v.001zm-11.48.576l8.18-.411-10.79 3.34-8.02.805 10.62-3.735.01.001zM847.181-51.223l-1.267-11.018 2.993-17.039.294 11.967-2.023 16.089h.003zm1.806 12.618l-1.378-9.645c.511-4.673 1.172-9.559 1.813-14.405l.482 10.499-.92 13.551.003.001zm1.831 12.781c-.473-2.93-.852-6.006-1.29-9.003.166-3.342.442-6.848.71-10.312l.598 9.304-.021 10.01.003.001zm1.531 8.518l-.693-3.832c-.035-1.649-.034-3.353-.021-5.04l.71 8.871.004.001zm469.391 334.938l1.34-.053-2.77.339 1.43-.286zm-11.55.475l6.4-.261-7.83 1.43-5.5.548 6.93-1.717zm-11.15.22l7.47-.138-9.4 2.247-7.42.623 9.35-2.732zm-11.15.078l8.06-.019-10.34 2.985-8.53.631 10.79-3.601.02.004zm-11.11-.065l8.56.054-11.3 3.762-8.77.425 11.51-4.241zM845.134-30.843l-2.427-9.954 2.716-18.649 1.388 11.172-1.679 17.441.002-.009zm3.074 11.641l-2.48-9.386 1.524-16.61 1.482 10.349-.525 15.658-.001-.01zm3.171 11.598l-2.458-8.894.438-13.949 1.489 9.341.532 13.513-.001-.01zm3.12 10.19l-2.2-7.2-.429-10.941 1.221 6.671c.407 3.917.944 7.636 1.402 11.478l.006-.009zm2.618 8.558l-1.29-4.179-.41-3.329c.531 2.575 1.147 4.988 1.694 7.516l.006-.009zm488.763 304.012l1.94.012-4.09.336 2.15-.348zm-11.24-.151l6.14.127-7.48 1.076-6.39.398 7.73-1.601zm-11.14-.296l7.8.213-9.73 1.937-7.59.309 9.52-2.459zm-10.89-.472l8.25.369-10.89 2.74-8.06.159 10.7-3.281v.013zm-10.77-.641l8.42.538-11.44 3.429-8.6.08 11.62-4.06v.013zm-10.72-.767l8.67.635-12.13 4.171-8.82-.045 12.29-4.777-.01.016zM843.375-11.658l-3.581-8.838c.742-5.864 1.699-12.023 2.594-18.096l2.532 10.053-1.542 16.868-.003.013zm4.27 10.209l-3.612-8.631c.379-5.245.967-10.766 1.483-16.2l2.599 9.866-.466 14.952-.004.013zm4.364 10.019L848.401.355c.053-4.559.265-9.351.431-14.077l2.664 9.23.516 13.049-.003.013zm4.384 9.48l-3.463-7.483c-.239-3.924-.372-8.014-.52-12.074l2.634 8.624 1.353 10.921-.004.013zm4.346 9.303l-3.145-6.679c-.442-2.994-.828-6.068-1.212-9.163l2.458 7.383 1.894 8.426.005.032zm3.402 6.675l-1.733-3.403-1.3-5.253 3.039 8.634-.006.022zm504.849 279.929l2.78.181-5.78.125 3-.306zm-10.68-.854l6.3.507-7.49.76-6.65.015 7.84-1.282zm-10.67-.968l7.4.704-9.29 1.53-7.92-.074 9.8-2.151.01-.009zm-10.62-1.081l8.06.838-10.58 2.333-8.44-.205 10.96-2.96v-.006zm-10.57-1.195l8.41.969-11.52 3.106-8.56-.383 11.67-3.692zm-10.39-1.361l8.51 1.134-12.15 3.82-8.73-.512 12.37-4.442zm-10.34-1.472l8.64 1.242-12.72 4.533-8.89-.629 12.98-5.162-.01.016zM842.237 7.394l-4.711-7.603 2.033-18.675c1.184 3.032 2.44 5.926 3.658 8.899l-.972 17.364-.008.015zm5.473 8.785l-4.728-7.59.924-16.931 3.693 8.792c-.046 5.356.081 10.476.118 15.714l-.007.015zm5.548 8.533l-4.731-7.223-.112-15.059 3.722 8.3 1.128 13.968-.007.015zm5.583 8.348l-4.668-7.006-1.06-13.249 3.706 8.016 2.022 12.239zm5.603 8.16l-4.524-6.543-1.836-11.109 3.562 7.271 2.815 10.385-.017-.004zm5.369 7.496l-4.045-5.645-2.37-8.786 3.101 6.099 3.333 8.324-.019.008zm4.589 6.404l-2.673-3.732-1.461-3.669c1.365 2.528 2.778 4.926 4.15 7.405l-.016-.004zm506.728 257.423l6.57 1.011-7.87.318-6.38-.411 7.68-.918zm-10.24-1.706l7.52 1.254-9.48 1.09-7.55-.594 9.5-1.753.01.003zm-10.21-1.805l7.92 1.423-10.39 1.877-8.22-.732 10.68-2.569.01.001zm-10.16-1.889l8.21 1.539-11.22 2.674-8.58-.854 11.58-3.36.01.001zm-10.12-1.97l8.4 1.643-11.91 3.46-8.71-1.001 12.22-4.109v.007zm-9.99-2.081l8.44 1.756-12.55 4.197-8.71-1.145 12.82-4.828v.02zm-9.93-2.172l8.45 1.873-13.03 4.904-8.79-1.241 13.37-5.543v.007zM841.254 25.453l-5.787-6.388c.511-5.813 1.263-11.967 1.924-17.992 1.572 2.606 3.192 5.099 4.78 7.668l-.917 16.712zm6.597 7.291l-5.796-6.394c.174-5.306.551-10.902.857-16.401l4.819 7.726.12 15.068zm6.646 7.072l-5.781-6.118c-.146-4.77-.126-9.773-.175-14.712l4.848 7.326 1.111 13.491-.003.013zm6.68 7.02l-5.742-6.032c-.45-4.269-.779-8.709-1.131-13.125l4.862 7.275 2.015 11.87-.004.013zm6.677 6.852l-5.617-5.728c-.724-3.714-1.349-7.552-1.994-11.382l4.792 6.828 2.825 10.259-.006.022zm6.59 6.601l-5.357-5.363-2.727-9.672 4.664 6.509 3.426 8.504-.006.022zm6.363 6.263l-4.772-4.714-3.087-7.432 4.221 5.634 3.638 6.512zm5.056 4.825l-2.838-2.71-2.537-4.298 5.373 7.018.002-.01zm488.097 234.3l8.03 2.2-11.17 2.176-8.29-1.457 11.43-2.919zm-9.7-2.712l8.17 2.295-11.83 2.976-8.46-1.564 12.12-3.707zm-9.67-2.765l8.27 2.368-12.44 3.771-8.56-1.663 12.73-4.476zm-9.64-2.816l8.32 2.434-12.98 4.536-8.54-1.779 13.21-5.189-.01-.002zm-9.57-2.887l8.31 2.52-13.43 5.258-8.55-1.874 13.67-5.892v-.012zM840.985 43.348l-6.864-5.176 1.262-18.04 5.853 6.453c-.178 5.74-.169 11.186-.242 16.766l-.009-.002zm7.674 5.79l-6.863-5.176.237-16.482 5.874 6.479.762 15.182-.01-.003zm7.696 5.649l-6.845-5.015-.739-14.86 5.883 6.188 1.71 13.689-.009-.003zm7.715 5.651l-6.816-4.994-1.66-13.363 5.889 6.19 2.597 12.169-.01-.002zm7.704 5.529l-6.724-4.823-2.503-11.76 5.822 5.89 3.414 10.696-.009-.003zm7.677 5.461l-6.589-4.686-3.26-10.22 5.74 5.746 4.118 9.162-.009-.002zm7.571 5.317l-6.291-4.407-3.811-8.483 5.473 5.302 4.638 7.591-.009-.002zm7.199 4.979l-5.6-3.872-4.028-6.59 4.837 4.615 4.801 5.85-.01-.003zm5.851 4.04l-3.511-2.427-2.485-3.032 6.006 5.462-.01-.002zm478.148 212.765l8 3.072-12.27 3.269-8.32-2.322 12.59-4.019zm-9.23-3.565l8.06 3.132-12.83 4.068-8.39-2.39 13.16-4.81zm-9.23-3.577l8.11 3.145-13.35 4.844-8.4-2.456 13.64-5.533zm-9.2-3.592l8.12 3.171-13.82 5.565-8.38-2.535 14.08-6.201zM840.845 60.505l-7.868-3.919c.252-5.67.69-11.607 1.086-17.481l6.915 5.214-.133 16.186zm8.703 4.321l-7.852-3.904c-.067-5.192.033-10.619.098-15.994l6.929 5.217.825 14.681zm8.693 4.291l-7.819-3.862c-.367-4.706-.597-9.614-.854-14.481l6.916 5.071 1.756 13.275.001-.003zm8.686 4.29l-7.776-3.84c-.651-4.253-1.193-8.668-1.758-13.048l6.915 5.071 2.618 11.821.001-.003zm8.662 4.242l-7.692-3.767c-.919-3.775-1.751-7.688-2.6-11.568l6.878 4.905 3.413 10.433.001-.003zm8.625 4.223l-7.574-3.706c-1.173-3.332-2.267-6.762-3.372-10.188l6.824 4.85 4.121 9.047.001-.003zm8.542 4.16l-7.359-3.581c-1.371-2.85-2.697-5.779-4.026-8.709l6.665 4.645 4.719 7.649.001-.003zm8.362 4.059l-6.958-3.378-4.528-7.221 6.402 4.419 5.067 6.179.017.001zm7.956 3.853l-6.144-2.97-4.57-5.45 5.731 3.883 4.982 4.54.001-.003zm6.269 3.003l-3.626-1.746-3.21-2.841 6.831 4.603.005-.016zM1383.6 289.453l7.8 3.877-13.18 4.37-8.13-3.149 13.51-5.098zm-8.8-4.348l7.84 3.869-13.67 5.149-8.17-3.16 14-5.858zm-8.83-4.319l7.89 3.862-14.13 5.891-8.18-3.19 14.42-6.56v-.003zM841.342 77.275l-8.87-2.664.486-17.162 7.911 3.94c.077 5.412.288 10.632.472 15.888l.001-.003zm9.677 2.933l-8.83-2.681-.468-15.724 7.912 3.934c.389 4.933.893 9.681 1.385 14.474l.001-.003zm9.647 2.966l-8.789-2.704-1.368-14.306 7.899 3.896c.693 4.468 1.484 8.778 2.258 13.118v-.003zm9.612 2.957l-8.729-2.685-2.232-12.931 7.874 3.886c.981 3.989 2.043 7.846 3.086 11.732l.001-.003zm9.578 3.006l-8.661-2.718-3.036-11.539 7.824 3.829 3.873 10.431v-.003zm9.52 2.991l-8.543-2.684-3.802-10.219 7.76 3.795 4.585 9.111v-.003zm9.451 3.007l-8.391-2.674-4.459-8.857 7.63 3.7 5.219 7.834.001-.003zm9.33 2.989l-8.123-2.601-5.021-7.531 7.425 3.605 5.718 6.53.001-.003zm9.098 2.931l-7.652-2.471-5.352-6.107 7.024 3.391 5.979 5.19.001-.003zm8.596 2.807l-6.689-2.185-5.214-4.523 6.156 2.974 5.746 3.74.001-.006zm6.494 2.119l-3.635-1.187-3.159-2.059 6.793 3.249.001-.003zm457.675 172.546l7.56 4.602-13.96 5.468-7.89-3.894 14.29-6.176zm-8.45-5.054l7.61 4.549-14.38 6.222-7.93-3.877 14.7-6.894zM842.053 93.481l-9.787-1.428c-.02-5.428.075-11.03.191-16.657l8.915 2.676.681 15.409zm10.609 1.613l-9.73-1.481-.714-15.275 8.886 2.695 1.539 14.069.019-.008zm10.544 1.677l-9.673-1.541c-.589-4.536-1.073-9.232-1.556-13.927l8.856 2.725 2.353 12.751.02-.008zm10.475 1.676l-9.595-1.537c-.847-4.114-1.61-8.362-2.373-12.611l8.812 2.71 3.127 11.444.029-.006zm10.44 1.792l-9.526-1.638c-1.096-3.689-2.12-7.496-3.163-11.307l8.769 2.753 3.9 10.2.02-.009zm10.344 1.778l-9.391-1.613c-1.331-3.281-2.607-6.664-3.88-10.045l8.687 2.728 4.552 8.935.032-.005zm10.284 1.872l-9.268-1.697c-1.543-2.867-3.041-5.822-4.537-8.772l8.595 2.745 5.191 7.732.019-.008zm10.162 1.879l-9.027-1.684c-1.749-2.473-3.436-5.01-5.137-7.548l8.422 2.7 5.722 6.541.02-.009zm9.999 1.905l-8.7-1.667-5.595-6.296 8.163 2.646 6.108 5.342.024-.025zm9.79 1.939l-8.19-1.625-5.831-5.011 7.692 2.512 6.309 4.133.02-.009zm9.039 1.79l-6.943-1.373-5.564-3.608 6.658 2.19 5.849 2.791zm6.939 1.478l-3.688-.783-3.124-1.498 6.795 2.28.017.001zm-107.39-3.641l-10.696-.217-.303-16.184 9.829 1.435c.316 5.09.722 10.058 1.16 14.977l.01-.011zm11.481.365l-10.61-.331-1.171-14.857 9.782 1.491c.596 4.65 1.286 9.185 1.999 13.696zm11.413.425l-10.555-.384-1.988-13.592 9.736 1.547c.877 4.213 1.836 8.322 2.797 12.425l.01.003zm11.319.465l-10.458-.434-2.778-12.328 9.672 1.557c1.135 3.802 2.347 7.501 3.554 11.202l.01.003zm11.262.613l-10.381-.566-3.531-11.097 9.621 1.656c1.388 3.392 2.838 6.691 4.281 10.004l.01.003zm11.136.608l-10.231-.561-4.235-9.891 9.512 1.635 4.944 8.814.01.003zm11.085.771l-10.139-.721-4.884-8.692 9.441 1.735 5.572 7.675.01.003zm10.932.789l-9.899-.716-5.484-7.54 9.261 1.712 6.112 6.541.01.003zm10.807.878l-9.646-.795-5.976-6.383 9.065 1.749 6.534 5.423.023.006zm10.621.956l-9.249-.835-6.324-5.232 8.722 1.727 6.828 4.334.023.006zm10.151.931l-8.456-.78-6.431-4.066 8.115 1.65 6.772 3.196zm9.696 1.047l-7.335-.792-5.837-2.761 7.128 1.507 6.021 2.04.023.006zm6.975.756l-3.428-.371-3.161-1.073 6.562 1.454.027-.01zm-125.302 6.682l-11.502.967-.743-15.677 10.741.219 1.482 14.486.022.005zm12.306-.838l-11.426.749a484.1 484.1 0 0 1-1.517-14.403l10.679.341a378.18 378.18 0 0 0 2.238 13.307l.026.006zm12.198-.784l-11.331.729a479.72 479.72 0 0 1-2.277-13.211l10.612.399 2.97 12.076.026.007zm12.093-.69l-11.216.637a370.82 370.82 0 0 1-2.975-12.006l10.531.443a282.71 282.71 0 0 0 3.634 10.92l.026.006zm12.016-.532l-11.137.484c-1.27-3.545-2.485-7.18-3.688-10.832l10.47.569 4.33 9.772.025.007zm11.875-.519l-10.965.485c-1.485-3.169-2.917-6.422-4.346-9.688l10.341.563 4.928 8.629.042.011zm11.817-.306l-10.901.26c-1.682-2.798-3.302-5.672-4.941-8.554l10.282.741 5.532 7.555.028-.002zm11.639-.275l-10.649.252c-1.866-2.438-3.694-4.952-5.528-7.456l10.084.723 6.059 6.482.034-.001zm11.537-.134l-10.456.108-6.027-6.372 9.922.833 6.532 5.433.029-.002zm11.398-.032c-3.369-.001-6.748.001-10.155.028l-6.439-5.304 9.624.865 6.948 4.416.022-.005zm11.041.012l-9.591-.016-6.728-4.256 9.16.882 7.159 3.39zm10.895.207l-8.999-.173-6.698-3.167 8.575.927 7.107 2.419.015-.006zm9.777.18l-7.21-.137-6.132-2.079 6.704.736 6.621 1.493.017-.013zm6.597.215l-2.766-.112-2.407-.543 5.173.655zm-143.27 18.305l-12.328 2.114c-.448-4.921-.739-10.059-1.066-15.173l11.552-.971 1.847 14.014-.005.016zm13.113-1.974l-12.232 1.844c-.69-4.546-1.273-9.244-1.842-13.968l11.483-.771 2.595 12.879-.004.016zm12.978-1.951l-12.122 1.821c-.921-4.187-1.768-8.481-2.592-12.824l11.394-.733 3.325 11.72-.005.016zm12.869-1.786l-12.02 1.661-3.305-11.667 11.304-.631 4.025 10.621-.004.016zm12.753-1.64l-11.902 1.529-3.997-10.572 11.223-.496 4.68 9.524-.004.015zm12.582-1.595l-11.72 1.484-4.645-9.463 11.069-.502 5.301 8.465-.005.016zm12.534-1.326l-11.646 1.232-5.253-8.395 11.022-.262 5.882 7.409-.005.016zm12.314-1.302l-11.37 1.206-5.815-7.348 10.803-.259 6.386 6.385-.004.016zm12.217-1.113l-11.216 1.008-6.315-6.326 10.679-.09 6.857 5.392-.005.016zm12.036-.99l-10.893.888-6.742-5.321 10.406-.026 7.247 4.446-.018.013zm11.732-.91l-10.422.801-7.06-4.344 10.043.053 7.439 3.49zm11.677-.683l-10.046.586-7.157-3.358 9.697.183 7.51 2.573-.004.016zm10.969-.641l-8.939.523-7.009-2.422 8.584.164 7.368 1.719-.004.016zm10.393-.428l-7.715.273-5.901-1.41 7.813.322 5.803.799v.016zm7.69-.256l-3.33.111-2.38-.348 5.72.221-.01.016zm-163.406 30.957l-13.037 3.15-1.687-14.618 12.376-2.123c.713 4.627 1.532 9.101 2.352 13.575l-.004.016zm13.812-3.111l-12.941 2.9-2.353-13.544 12.302-1.849c.941 4.267 1.961 8.393 2.992 12.493zm13.653-3.057l-12.793 2.864-3.003-12.415 12.184-1.832c1.164 3.873 2.379 7.648 3.618 11.385l-.006-.002zm13.533-2.829l-12.701 2.636-3.616-11.32 12.091-1.667 4.249 10.356-.023-.005zm13.436-2.689l-12.56 2.524-4.221-10.292 11.984-1.538 4.797 9.306zm13.227-2.604l-12.389 2.429c-1.628-3.026-3.217-6.119-4.79-9.243l11.818-1.486 5.355 8.299.006.001zm13.171-2.332l-12.294 2.178c-1.806-2.695-3.573-5.461-5.333-8.239l11.756-1.244 5.865 7.303.006.002zm12.932-2.29l-12.022 2.13c-1.971-2.367-3.912-4.808-5.85-7.245l11.517-1.218 6.349 6.331.006.002zm12.876-2.07l-11.898 1.887-6.321-6.266 11.408-1.005 6.808 5.397.003-.013zm12.695-1.934l-11.625 1.769-6.754-5.315 11.119-.917 7.25 4.474.01-.011zm12.407-1.815l-11.219 1.633-7.138-4.39 10.786-.794 7.571 3.551zm12.37-1.566l-10.927 1.383-7.383-3.465 10.499-.614 7.802 2.707.009-.011zm11.774-1.488l-10.036 1.267-7.519-2.593 9.63-.566 7.915 1.903.01-.011zm11.56-1.236l-9.38.943-7.22-1.72 9.24-.302 7.35 1.09.01-.011zm10.42-1.039l-7.23.72-6.19-.901 6.96-.236 6.45.428.01-.011zm6.23-.624l-1.49.152-1.91-.124 3.39-.017.01-.011zm-181.436 44.614l-13.79 4.151c-.724-4.544-1.23-9.416-1.81-14.174l13.083-3.159 2.517 13.182zm14.54-4.185l-13.676 3.936c-.93-4.231-1.699-8.712-2.507-13.129l12.992-2.91 3.197 12.105-.006-.002zm14.354-4.132l-13.508 3.888c-1.132-3.903-2.146-7.989-3.175-12.059l12.856-2.878 3.833 11.051-.006-.002zm14.246-3.823l-13.416 3.585c-1.323-3.579-2.575-7.282-3.817-10.995l12.769-2.646 4.47 10.057-.006-.001zm14.069-3.717l-13.241 3.498c-1.532-3.276-2.991-6.621-4.445-10.01l12.637-2.54 5.055 9.053-.006-.001zm13.889-3.574l-13.064 3.355-5.024-9.002 12.469-2.442 5.625 8.091-.006-.002zm13.791-3.303l-12.947 3.103-5.59-8.044 12.399-2.195 6.145 7.138-.007-.002zm13.53-3.239l-12.659 3.032-6.103-7.09 12.146-2.152 6.622 6.212-.006-.002zm13.464-2.959l-12.552 2.739-6.567-6.16 12.066-1.894 7.06 5.316-.007-.001zm13.233-2.831l-12.225 2.615-6.989-5.264 11.781-1.795 7.44 4.446-.007-.002zm12.973-2.684l-11.856 2.446-7.344-4.39 11.487-1.645 7.713 3.589zm12.947-2.418l-11.629 2.175-7.571-3.524 11.267-1.427 7.943 2.778-.01-.002zm12.44-2.327l-10.9 2.042-7.731-2.705 10.511-1.327 8.13 1.992-.01-.002zm12.42-2.057l-10.6 1.717-7.65-1.911 10.33-1.036 7.92 1.231v-.001zm11.84-1.886l-9.41 1.495-7.16-1.157 8.83-.882 7.74.544zm10.26-1.603l-7.11 1.104-6.17-.516 7.42-.542 5.86-.04v-.006zm6.56-.848l-1.07.135-.69-.017c.6-.028 1.18-.075 1.76-.111v-.007zm-201.203 58.981l-14.394 5.074-2.596-13.54 13.787-4.155c.979 4.343 2.121 8.442 3.201 12.627l.002-.006zm15.123-5.196l-14.252 4.897-3.203-12.583 13.725-3.95c1.169 3.997 2.464 7.793 3.729 11.642l.001-.006zm14.919-5.127l-14.069 4.819-3.737-11.587 13.566-3.903c1.361 3.66 2.802 7.161 4.238 10.677l.002-.006zm14.834-4.748l-14.001 4.476-4.239-10.636 13.488-3.61c1.538 3.345 3.136 6.57 4.75 9.776l.002-.006zm14.617-4.676l-13.794 4.412-4.755-9.703 13.311-3.518 5.236 8.816.002-.007zm14.454-4.48l-13.634 4.219-5.231-8.763 13.148-3.359 5.717 7.903zm14.338-4.224l-13.499 3.982-5.706-7.871 13.044-3.124 6.159 7.019.002-.006zm14.062-4.141l-13.212 3.894-6.148-6.972 12.767-3.061 6.592 6.142.001-.003zm14.037-3.83l-13.149 3.57-6.57-6.097 12.702-2.758 7.017 5.288v-.003zm13.787-3.692l-12.839 3.44-6.976-5.23 12.383-2.648 7.432 4.438zm13.545-3.528l-12.497 3.248-7.362-4.399 12.094-2.462 7.765 3.613zm13.507-3.265l-12.29 2.959-7.662-3.566 11.892-2.226 8.06 2.833zm13.02-3.122l-11.62 2.795-7.92-2.784 11.24-2.102 8.3 2.091zm12.98-2.847l-11.36 2.466-8.05-2.031 11.21-1.782 8.2 1.341v.006zm12.5-2.646l-10.42 2.204-7.87-1.297 10.18-1.616 8.11.702v.007zm11.51-2.394l-8.92 1.842-7.55-.66 9.49-1.314 6.98.132zm11.2-2.033l-7.3 1.324-5.61-.109 7.66-.992 5.26-.23-.01.007zm7.19-1.303l-1.49.271-1.84.078 3.32-.359.01.01zm97.31 227.99l-8.13 2.912c-152.87 36.389-293.334 14.738-329.045-163.808l14.433-5.081c43.381 166.536 177.952 193.223 322.742 165.977zm15.32-5.63l-9.88 3.683c-146.44 28.835-283.374 3.577-327.298-164.336l14.299-4.915c51.711 156.417 183.769 185.974 322.869 165.567l.01.001zm14.91-5.751l-11.14 4.297c-140.11 21.422-273.649-7.23-325.8-164.399l14.12-4.853c60.034 146.071 189.47 178.484 322.82 164.953v.002zm14.88-6.054l-11.82 4.859c-134.07 14.292-264.617-17.435-325.041-164.03l14.058-4.482c68.402 135.374 195.233 170.392 322.793 163.651l.01.002zm15.05-6.305l-12.84 5.382c-127.98 7.248-255.495-27.346-324.199-163.01l13.862-4.431c76.826 124.739 201.227 162.172 323.177 162.057v.002zm15.09-6.567l-13.25 5.768c-122.23.493-247.127-36.627-324.188-161.519l13.717-4.231c85.231 113.951 207.301 153.612 323.711 159.98l.01.002zm15.13-6.851l-13.51 6.148c-116.61-6.056-239.06-45.487-324.509-159.52l13.591-4.005C1037.76 256.242 1157.6 297.91 1268.56 310.6v.001zm15.39-7.138l-14.01 6.506c-111.06-12.469-231.15-53.952-324.956-157.002l13.307-3.923c102.069 92.149 219.929 135.61 325.649 154.418l.01.001zm15.56-7.439l-14.35 6.861c-105.76-18.648-223.77-61.971-325.981-154.102l13.275-3.588C1082.94 226.33 1198.93 271.304 1299.5 296.023l.01.001zm15.72-7.787l-14.62 7.254c-100.54-24.597-216.6-69.478-327.187-150.559l12.955-3.478c118.922 70.108 233.242 116.368 328.842 146.785l.01-.002zm15.95-8.068l-14.96 7.573c-95.53-30.34-209.84-76.529-328.788-146.573l12.708-3.271c127.36 59.066 240.22 106.368 331.03 142.276l.01-.005zm16.16-8.353l-15.24 7.886c-90.7-35.843-203.45-83.084-330.74-142.102l12.51-3.014c135.74 47.997 247.3 96.065 333.47 137.228v.002zm16.31-8.682l-15.47 8.225c-86.02-41.115-197.4-89.139-332.94-137.098l11.89-2.863c144.23 36.921 254.78 85.511 336.52 131.736zm16.53-9.009l-15.73 8.579c-81.55-46.174-191.85-94.737-335.7-131.693l11.87-2.516c152.51 25.832 262.13 74.639 339.56 125.617v.013zm16.72-9.299l-15.96 8.881c-77.21-50.899-186.42-99.665-338.24-125.641l10.98-2.322c160.88 14.73 269.85 63.531 343.22 119.069v.013zm-23.02 23.268l15.32-7.922 7.41 5.156-15.04 7.288-7.68-4.535-.01.013zm-15.89 7.987l15.07-7.577 7.67 4.49-14.78 6.938-7.96-3.864v.013zm-15.68 7.656l14.8-7.222 7.94 3.839-14.55 6.598-8.19-3.215zm-15.42 7.36l14.47-6.898 8.15 3.2-14.23 6.276-8.39-2.588v.01zm-15.15 7.058l14.11-6.572 8.34 2.569-13.86 5.948-8.58-1.954-.01.009zm-15.02 6.714l13.87-6.196 8.5 1.942-13.54 5.596-8.82-1.352-.01.01zm-14.65 6.367l13.37-5.801 8.73 1.337-13.25 5.241-8.85-.777zm-14.24 6.059l12.72-5.403 8.74.769-12.74 4.891-8.72-.257zm-14.14 5.711l12.32-4.977 8.56.256-12.06 4.46-8.82.252v.009zm-13.72 5.361l11.62-4.529 8.43-.196-11.47 3.97-8.58.755zm-13.19 5.015l10.53-4.005 7.93-.617-10.21 3.419-8.27 1.213.02-.01zm-12.49 4.471l9.12-3.233 6.8-.9-8.49 2.724-7.43 1.409zm-10.09 3.575l5.07-1.798 5.11-.941-6.41 1.879-3.76.862-.01-.002zm-379.566-148.57c26.519 182.939 161.815 206.124 314.706 167.897-164.386 50.456-310.225 35.449-329.413-162.507l14.713-5.389-.006-.001zm-2.049-15.441c.551 5.033 1.264 9.826 1.954 14.654l-14.658 5.376-1.291-15.692 13.992-4.339.003.001zm-1.273-16.119l1.17 15.337-13.938 4.329c-.305-5.268-.41-10.803-.533-16.326l13.298-3.341.003.001zm-1.035-16.638c.22 5.443.622 10.621.988 15.854l-13.267 3.328-.297-16.894 12.563-2.291.013.003zm-.272-17.272l.259 16.486-12.538 2.274c.059-5.683.333-11.677.57-17.612l11.696-1.151.013.003zm.075-17.827l-.089 17.048-11.67 1.144.896-18.235 10.85.04.013.003zm.62-18.375l-.603 17.597-10.829-.044 1.508-18.88 9.911 1.324.013.003zm1.17-18.945l-1.143 18.166-9.879-1.316 2.068-19.496 8.941 2.642.013.003zm1.532-19.582l-1.47 18.792-8.923-2.634 2.471-20.135 7.922 3.977zm2.238-20.05l-2.174 19.213-7.885-3.961c.928-6.68 2.075-13.66 3.189-20.597l6.857 5.341.013.003zm2.479-20.841c-.924 6.831-1.599 13.315-2.37 19.937l-6.85-5.316 3.437-21.308 5.77 6.683.013.003zm3.262-21.058l-3.109 20.043-5.741-6.651 4.202-21.407 4.638 8.012.01.003zm3.513-21.989l-3.336 20.756-4.607-7.95 4.439-22.096 3.507 9.291-.003-.001zm4.169-22.106l-3.89 20.621-3.14-8.334-.012-.03-.022-.036-.341-.576 4.962-21.731.439 1.176c.63 3.036 1.332 5.952 2.007 8.912h-.003zm4.546-23.065l-4.179 21.117-1.605-7.143.006-.022-.015-.035-.871-2.324 5.202-22.162.696 3.244c.213 2.502.501 4.901.769 7.325l-.003-.001zm5.063-23.079l-4.533 20.653-.532-4.99.006-.022.005-.019-1.027-4.818 5.581-21.672.448 5.149c-.019 1.951.026 3.821.068 5.723l-.016-.004zm5.502-23.988l-4.756 20.581-.025-2.327.005-.016-.64-7.393 5.752-21.844-.117 7.831c-.092 1.071-.153 2.117-.216 3.169l-.003-.001zm5.865-23.699l-4.854 19.616.15-9.861 5.773-20.297-.942 9.571-.123.971h-.004zm6.18-24.032L861.4-152.71l.913-9.287 5.697-19.848-1.791 10.598zm5.922-21.643l-3.865 14.129 1.466-8.726 4.398-14.225-1.999 8.822zm5.376-19.643l-.676 2.507.323-1.43.612-1.972-.259.895zm-10.527 41.447l.579-2.145-.811 3.479.232-1.334zm-6.176 24.019l3.767-15.251-1.76 9.459-3.061 13.759 1.057-7.966-.003-.001zm-5.862 23.686l4.178-16.877-1.553 11.84-3.386 16.487.764-11.449-.003-.001zm-5.494 23.96l4.417-19.622-.842 12.751-3.441 18.521-.131-11.649-.003-.001zm-5.052 23.035l4.305-19.624.141 12.441-3.257 18.48-1.186-11.296-.003-.001zm-4.53 23.022l3.996-20.593 1.241 11.667-2.905 19.311-2.326-10.394-.006.009zm-4.159 22.044c1.13-6.508 2.49-13.347 3.79-20.099l2.386 10.62-2.683 18.732-3.488-9.262-.005.009zm-3.495 21.919l3.232-20.433 3.539 9.388L836.86-1.4l-4.65-8.005.012.003zm-3.254 20.964c.872-6.368 2.021-13.126 3.064-19.732l4.685 8.082-1.983 18.324-5.779-6.678.013.003zm-2.46 20.733l2.334-19.688 5.788 6.694c-.543 6.261-.873 12.196-1.282 18.283l-6.853-5.292.013.003zm-2.227 19.934c.582-6.165 1.376-12.632 2.12-19.026l6.893 5.31-1.131 17.663-7.882-3.946zm-1.521 19.466l1.453-18.626 7.925 3.964c-.258 5.913-.364 11.59-.481 17.323l-8.91-2.665.013.003zm-1.173 18.826c.273-5.875.678-11.937 1.111-18.035l8.941 2.683-.218 16.783-9.847-1.433.013.003zm-.612 18.281l.578-17.504 9.872 1.43.302 16.29-10.765-.218.013.003zm-.095 17.734l.085-16.954 10.8.217.725 15.768-11.623.966.013.003zm.275 17.184c-.202-5.306-.22-10.873-.265-16.399l11.636-.979 1.066 15.247-12.45 2.127.013.004zm1.016 16.572l-1.004-15.786 12.485-2.142c.465 5.034 1.084 9.843 1.675 14.69l-13.169 3.234.013.004zm1.226 16.072c-.522-4.899-.831-10.128-1.185-15.279l13.197-3.248 1.812 14.233-13.824 4.294zm2.063 15.39l-1.95-14.605 13.857-4.303c.764 4.681 1.717 9.084 2.604 13.589l-14.517 5.301.006.018zm330.43 163.699c-159.083 43.821-302.812 25.788-330.331-162.928l14.554-5.338c35.029 176.214 171.767 200.084 321.937 166.243l-6.16 2.023zm32.24-9.648l-4.87 1.592-5.6 1.478 6.26-2.243 4.21-.827zm16.55-5.446l-9.35 3.092-6.17 1.271 8.39-3.246 7.13-1.117zm14.93-5.293l-10.55 3.741-7.73 1.222 10.41-4.046 7.87-.917zm14.76-5.468l-11.23 4.203-8.55 1.001 11.18-4.597 8.6-.607zm14.85-5.693l-12.19 4.683-8.86.641 12.25-5.202 8.8-.122zm14.72-5.945l-12.61 5.093-9.08.176 13.04-5.674 8.64.42.01-.015zm14.87-6.228l-13.05 5.49-8.88-.369 13.29-6.076 8.64.955zm15.19-6.544l-13.67 5.894-8.79-.942 13.8-6.444 8.66 1.492zm15.28-6.837l-14.01 6.268-8.72-1.494 14.22-6.802 8.51 2.028zm15.42-7.136l-14.26 6.62-8.57-2.042 14.47-7.195 8.36 2.617zm15.64-7.424l-14.6 6.938-8.41-2.625 14.84-7.535 8.17 3.222zm15.87-7.724l-14.92 7.262-8.2-3.231 15.15-7.853 7.97 3.822h0zm16.03-8.046l-15.17 7.616-7.99-3.835 15.4-8.214 7.76 4.419v.014zm16.21-8.342l-15.39 7.943-7.78-4.42 15.64-8.549 7.53 4.999v.027zm16.4-8.68l-15.63 8.25-7.53-5.052 15.92-8.866 7.24 5.668zm24.63-82.732c-65.85-51.272-171.43-78.232-338.91-50.263l-22.24 2.502-24.43 1.657-23.27.293-21.432-1.066-22.261-2.818-19.591-4.282-19.157-6.38-17.7-8.468-15.912-10.632-14.551-13.44a636.83 636.83 0 0 1-12.186-15.722c-3.601-6.364-7.13-12.873-10.586-19.528a572.32 572.32 0 0 1-7.64-21.434 665.15 665.15 0 0 1-5.738-27.6c-.918-8.745-1.652-17.783-2.287-26.951-.051-11.92.161-24.224.568-36.817l3.321-33.119c2.361-15.156 5.136-30.885 8.13-46.919l8.889-38.175.408-1.806 5.366-19.608 6.964-25.122 28.354-88.246 41.669-129.819-.761-.2L912.84-325.91l-22.374 69.614 9.272-33.411 46.5-168.152-.758-.199-46.499 168.15-14.495 52.246-1.189 3.707-3.886 12.555 12.302-54.161 41.875-185.612-.76-.2-41.886 185.661-14.554 64.09-5.675 18.357 15.185-89.953 30.482-182.447-.761-.199-30.495 182.521-16.146 95.72-6.225 21.258 14.546-143.546 16.186-161.749-.768-.201-16.198 161.872-14.958 147.877-6.159 21.652 4.813-209.171 3.216-129.943-.783-.206-3.222 130.132-4.888 212.071-6.002 22.504c-8.798-102.949-13.815-195.675-18.306-278.628l-5.41-95.993-.8-.209 5.428 96.235 18.485 280.88-5.746 22.308c-27.113-128.027-42.657-242.561-56.286-342.956l-9.488-68.936-.826-.217 9.524 69.256c13.682 100.81 29.3 215.877 56.651 344.572l-5.343 22.54c-54.712-146.028-82.675-280.044-106.991-396.608l-11.553-54.88-.851-.223 11.631 55.258c24.396 116.881 52.432 251.303 107.449 397.84L831.06-42.75c-90.722-153.329-130.786-304.851-165.799-437.257l-14.786-55.36-.877-.229 14.903 55.784C699.57-347.153 739.715-195.307 830.792-41.64l-4.481 22.096-.106-.181-.021-.039-.029-.031c-133.498-149.006-183.85-317.488-228.371-466.459l-20.782-68.361-.899-.236 20.928 68.818c44.539 149.03 94.91 317.596 228.533 466.729l.542.931-4.257 21.678-1.436-1.665-.032-.036-.034-.026c-180.279-133.87-238.381-319.477-290.435-485.744l-29.209-90.453-.913-.239c10.085 29.313 19.621 59.776 29.371 90.917 52.078 166.372 110.217 352.094 290.68 486.114l1.821 2.106-3.505 21.535-3.58-2.785-.039-.01-.042-.011C584.185-87.167 520.699-291.446 463.282-476.247c-12.683-40.809-25.072-80.674-38.897-118.374l-.925-.242c13.876 37.842 26.305 77.864 39.066 118.857C519.998-291.071 583.539-86.638 814.128 23.667l3.895 3.028-3.245 20.766-6.04-3.035-.074-.02c-282.77-79.56-349.502-304.482-410.163-508.909-15.463-52.118-30.53-102.914-48.683-149.623l-.935-.245c18.231 46.832 33.342 97.786 48.866 150.086 60.699 204.604 127.489 429.731 410.64 509.419l6.27 3.15-2.494 20.296-9.29-2.743-.061-.016C465.682 22.329 397.623-225.458 335.83-450.444c-17.71-64.48-34.91-127.089-57.783-182.499l-.967-.253c22.962 55.501 40.209 118.282 57.968 182.952 61.861 225.207 129.988 473.251 467.616 516.8l9.396 2.771-2.105 19.622-12.933-1.725-.023-.006-.022-.006C403.865 84.24 336.218-188.768 275.185-435.092c-19.254-77.7-37.849-152.748-65.789-215.86l-.967-.254c28.056 63.17 46.699 138.401 65.997 216.306 61.101 246.598 128.825 519.894 522.52 522.894l12.953 1.727-1.518 18.993-17.183-.058-.019-.005C340.636 149.88 275.043-150.792 216.51-419.108c-20.015-91.749-39.207-179.711-72.67-248.989l-.997-.261c33.6 69.283 52.835 157.447 72.895 249.412 58.603 268.634 124.274 569.655 575.489 528.392l17.106.059-.925 18.332-22.011 2.269-.022-.006C276.023 218.614 214.08-112.281 159.63-403.13c-19.989-106.756-38.962-208.125-78.667-281.443l-1.038-.272c39.879 73.272 58.899 174.851 78.933 281.853C213.371-111.79 275.4 219.505 785.481 130.883l21.901-2.26-.572 17.697-27.236 5.23C336.378 259.352 203.747 62.986 143.667-177.284c-17.132-68.521-28.37-140.607-39.222-210.238-19.192-123.1-37.187-238.515-84.44-313.022l-1.099-.288c47.493 74.359 65.531 190.027 84.772 313.419 10.857 69.649 22.099 141.76 39.239 210.316 60.176 240.667 193 437.369 636.825 329.409l27.052-5.197c-.04 5.844.149 11.364.277 16.97l-33.295 8.906C331.952 306.718 175.07 151.035 106.27-70.03c-29.475-94.718-42.796-201.448-55.414-302.567C33.422-512.329 17.32-641.359-38.24-713.344c-.818-1.061-1.66-2.088-2.495-3.123l-1.283-.337 3.135 3.924c55.433 71.816 71.525 200.745 88.947 340.368 12.622 101.155 25.945 207.919 55.441 302.7 68.917 221.464 226.05 377.444 668.471 243.534l33.103-8.848.515 16.38-39.627 13.166C315.715 354.556 140.692 224.298 64.243 14.334 23.371-97.917 10.643-232.969-1.204-358.619-13.55-489.587-24.936-610.354-66.246-684.552l-.29 1.077c40.909 74.11 52.254 194.454 64.55 324.94C9.859-232.841 22.605-97.74 63.5 14.608c76.597 210.364 251.883 340.912 704.724 180.549l39.428-13.107c.324 5.392.789 10.579 1.279 15.736l-46.763 18.077C293.922 402.727 103.049 291.249 19.721 88.175-31.921-37.675-42.303-198.723-51.782-345.773c-6.643-103.12-12.865-199.325-32.53-271.778l-.407 1.509c19.375 72.208 25.546 167.862 32.15 270.318C-43.084-198.615-32.696-37.5 18.994 88.467c83.494 203.472 274.643 315.195 743.473 128.104l46.537-17.994c19.819 205.396 175.459 214.557 347.087 157.734 9.08-2.511 18.21-5.206 27.37-8.086 8.23-2.131 16.48-4.415 24.76-6.852 8.84-2.068 17.69-4.301 26.53-6.698 8.18-1.714 16.35-3.582 24.51-5.604 8.57-1.556 17.12-3.248 25.63-5.074 8.06-1.193 16.08-2.512 24.06-3.958a709.84 709.84 0 0 0 24.52-3.054c7.99-.498 15.93-1.092 23.74-1.82l22.65-.508 10.01.521.21-.766-1.96-.1 2-.099.28-1.02-6.44-1.005 6.96-.92.21-.791-10.01 1.292-8.01-1.335 10.58-2.092 7.48 1.984.2-.743-5.97-1.589 6.78-1.411.23-.845-8.72 1.799-8.23-2.246 11.99-3.212 5.4 2.043.2-.75-4.33-1.658 5.16-1.424.23-.874-6.63 1.84-8.1-3.11 13.01-4.323 2.85 1.427.2-.763-2.03-1.018 2.54-.869.25-.912-3.77 1.288-7.85-3.904 13.78-5.398.26-.953-.15.058-7.59-4.631 10.2-4.553.26-.994-11.29 5.046-7.63-4.569 14.94-7.241 4.87 3.472.21-.775-4.3-3.067 5.92-2.929.28-1.027-6.94 3.418-7.42-5.172 15.55-8.223 1.23.979.22-.82-.7-.562 1-.525.28-1.052-1.96 1.048-7.26-5.685 12.36-7.005.29-1.08-13.35 7.567c-73.09-55.419-181.49-104.163-341.37-119.218l10.27-2.007c167.71 3.628 275.75 51.324 345.33 110.407l.22-.848c-69.14-58.645-176.14-106.024-341.66-110.265l9.12-1.654c165.79-6.869 271.09 34.622 337.86 92.227l.25-.896c-66.14-56.933-169.87-98.094-332.42-92.375l5.44-.986c163.84-16.478 267.43 18.006 332.56 72.606l.26-.953c-63.21-52.901-162.48-86.917-317.7-73.934 158.6-23.823 259.69 3.059 323.4 52.775l.28-1.011z" fill="url(#A)"/><path d="M239.431 41.014a.5.5 0 0 1 .816-.578l-.816.578zm11.193 12.59l-.339.367h0l.339-.367zm-10.785-12.879l.409-.289.016.023.05.071.197.273.738 1.011 2.569 3.372c2.091 2.66 4.767 5.853 7.145 8.051l-.678.734c-2.44-2.254-5.157-5.5-7.253-8.167-1.051-1.337-1.951-2.533-2.587-3.396l-.745-1.02-.199-.277-.052-.072c-.006-.008-.01-.014-.013-.019s-.005-.006.403-.295zm11.124 12.512c2.37 2.189 5.75 4.597 8.555 6.466a141.51 141.51 0 0 0 3.549 2.288l1.061.655.287.174.074.044c.008.005.014.009.019.011s.005.004-.251.433l-.256.429-.026-.016-.076-.046-.291-.176-1.071-.66a144.83 144.83 0 0 1-3.574-2.305c-2.812-1.874-6.248-4.318-8.678-6.564l.678-.734z" fill="url(#B)"/></g><defs><linearGradient id="A" x1="164.765" y1="-118.996" x2="855.454" y2="-24.268" gradientUnits="userSpaceOnUse"><stop stop-color="#fff" stop-opacity=".38"/><stop offset="1" stop-color="#fff" stop-opacity="0"/></linearGradient><linearGradient id="B" x1="242.147" y1="43.822" x2="249.727" y2="53.239" gradientUnits="userSpaceOnUse"><stop stop-color="#fff"/><stop offset="1" stop-color="#fff" stop-opacity="0"/></linearGradient><clipPath id="C"><rect width="1296" height="138" rx="24" fill="#fff"/></clipPath></defs></svg>