<svg xmlns="http://www.w3.org/2000/svg" width="91" height="51" fill="none" xmlns:v="https://vecta.io/nano"><path d="M8.368 13.792V15.6c0 .267.224.4.672.4h.144l.144 2.048L9.184 20h-.288a2.49 2.49 0 0 1-.688-.096c-.267 1.28-.848 2.283-1.744 3.008C5.579 23.637 4.427 24 3.008 24H2v-4h1.008c.597 0 1.013-.032 1.248-.096a.68.68 0 0 0 .48-.448c.075-.224.112-.619.112-1.184v-4.48h3.52zM9.029 16h3.344l.16 2-.16 2H9.029v-4zm3.172 0h3.344l.16 2-.16 2h-3.344v-4zm3.172 0h3.344l.16 2-.16 2h-3.344v-4zm3.172 0h3.344l.16 2-.16 2h-3.344v-4zm3.172 0h3.344l.16 2-.16 2h-3.344v-4zm3.172 0h3.344l.16 2-.16 2h-3.344v-4zm3.172 0h3.344l.16 2-.16 2h-3.344v-4zm8.98-2.208V15.6c0 .16.027.267.08.32s.155.08.304.08h.416l.144 2.064L37.841 20h-.624c-.768 0-1.461-.229-2.08-.688-.661.459-1.349.688-2.064.688h-1.84v-4h1.808c.203 0 .331-.027.384-.08.064-.053.096-.16.096-.32v-1.808h3.52zm-5.344-4h.88 1.76.032 2.64v2.672h-2.64-.032-2.64V9.792zm13.941.512l-3.36 1.488 1.6 1.632c.373.384.651.816.832 1.296a3.97 3.97 0 0 1 .288 1.488c0 .651-.149 1.269-.448 1.856-.299.576-.731 1.045-1.296 1.408-.565.352-1.232.528-2 .528h-3.568v-4h3.472l-3.184-3.264.576-3.584 5.68-2.496 1.408 3.648zm5.148-.8l.272.384 1.168 1.744 1.168 1.76a5.19 5.19 0 0 1 .64 1.344c.149.48.224.955.224 1.424 0 .832-.219 1.552-.656 2.16-.405.555-.907.976-1.504 1.264-.597.277-1.253.416-1.968.416h-.88c-.811 0-1.531-.117-2.16-.352a7.65 7.65 0 0 1-1.696-.928l1.376-3.152.992.32c.32.075.72.112 1.2.112h.8c.288 0 .496-.011.624-.032.128-.032.208-.08.24-.144.021-.043.032-.08.032-.112 0-.107-.048-.224-.144-.352l-2.672-3.648 2.944-2.208zM5.48 34.6a10.57 10.57 0 0 0-.592 1.488c-.171.555-.256 1.035-.256 1.44 0 .512.144.885.432 1.12S5.837 39 6.52 39h.848c.491 0 .864-.037 1.12-.112s.432-.197.528-.368c.107-.171.16-.421.16-.752v-4.976h3.52V35c0 .096.037.181.112.256.085.064.187.096.304.096s.213-.032.288-.096c.085-.075.128-.16.128-.256v-2.208h3.52v2.112c0 .128.037.235.112.32.085.085.192.128.32.128s.229-.048.304-.144c.085-.096.128-.245.128-.448 0-.107-.005-.192-.016-.256l-.32-2.096 3.328-.848c.373 1.589.56 2.752.56 3.488 0 .661-.144 1.296-.432 1.904-.277.597-.715 1.088-1.312 1.472S18.37 39 17.464 39c-.821 0-1.547-.24-2.176-.72-.235.213-.565.389-.992.528a4.03 4.03 0 0 1-1.184.192c-.149 0-.32-.016-.512-.048-.192 1.248-.72 2.235-1.584 2.96S8.936 43 7.368 43H6.52c-1.173 0-2.165-.245-2.976-.736a4.57 4.57 0 0 1-1.808-1.984c-.395-.821-.592-1.739-.592-2.752 0-.704.123-1.456.368-2.256.256-.8.533-1.488.832-2.064L5.48 34.6zM32.746 39c-.875 0-1.611-.224-2.208-.672a3.3 3.3 0 0 1-2.032.672h-5.44v-4h5.056a.5.5 0 0 0 .384-.176c.117-.117.176-.261.176-.432v-7.264h3.52V34.6c0 .139.027.24.08.304.064.064.165.096.304.096h.608l.16 2-.16 2h-.448zm-6.16-11.744l.416 6.608-3.52.256-.416-6.608 3.52-.256zM33.029 35h3.344l.16 2-.16 2h-3.344v-4zm3.172 0h3.344l.16 2-.16 2h-3.344v-4zm3.172 0h3.344l.16 2-.16 2h-3.344v-4zm3.172 0h3.344l.16 2-.16 2h-3.344v-4zm3.172 0h3.344l.16 2-.16 2h-3.344v-4zm3.172 0h1.856c.352 0 .597-.059.736-.176s.187-.299.144-.544l-.32-1.872 3.328-.848c.373 1.589.56 2.752.56 3.488 0 .661-.144 1.296-.432 1.904a3.54 3.54 0 0 1-1.28 1.472c-.576.384-1.275.576-2.096.576h-2.496v-4zm-.704 5.232h2.64.032 2.64v2.672h-2.64-.032-1.76-.88v-2.672zm1.376 3.504h2.56v2.304h-2.56v-2.304z" fill="#1dbab5"/><path d="M91 25.5c0 4.774-1.833 9.352-5.096 12.728S78.216 43.5 73.602 43.5h-2.902v-9h2.902c2.307 0 4.52-.948 6.151-2.636s2.548-3.977 2.548-6.364-.916-4.676-2.548-6.364-3.844-2.636-6.151-2.636h-2.902c-2.307 0-4.52.948-6.151 2.636S62 23.113 62 25.5v-18h11.602c2.285 0 4.547.466 6.658 1.37a17.37 17.37 0 0 1 5.644 3.902 18.05 18.05 0 0 1 3.772 5.84A18.54 18.54 0 0 1 91 25.5z" fill="url(#A)"/><path d="M71 19.5v24h-9v-15a9 9 0 0 1 9-9z" fill="url(#B)"/><defs><linearGradient id="A" x1="65.847" y1="5.201" x2="85.974" y2="38.898" gradientUnits="userSpaceOnUse"><stop stop-color="#1aa29d"/><stop offset=".21" stop-color="#2ed3ce"/><stop offset=".62" stop-color="#1dbab5"/><stop offset="1" stop-color="#139591"/></linearGradient><linearGradient id="B" x1="61.828" y1="23.407" x2="72.82" y2="42.449" gradientUnits="userSpaceOnUse"><stop stop-color="#1dbab5"/><stop offset="1" stop-color="#157673"/></linearGradient></defs></svg>