<svg width="252" height="24" viewBox="0 0 252 24" fill="none" xmlns="http://www.w3.org/2000/svg">
<g opacity="0.5">
<path d="M12 4.5C12 4.5 12 7.26633 12 10M12 10C10.5 10 10.5 12 10 13M12 10C13.5 10 13.5 12 14 13" stroke="white" stroke-linecap="round"/>
<path d="M9.99953 17C11.4064 14.6553 9.27299 14.0088 9.43535 9.04479C9.45678 8.38953 9.21751 7.68622 8.59239 7.48861C6.20301 6.73329 3.60359 10.2575 3.67528 15.18C3.70005 16.8811 5.12759 18.2373 6.82894 18.2371C8.19657 18.2369 9.41894 17.9677 9.99953 17Z" stroke="white" stroke-linecap="round"/>
<path d="M14.0005 17C12.5936 14.6553 14.727 14.0088 14.5646 9.04479C14.5432 8.38953 14.7825 7.68622 15.4076 7.48861C17.797 6.73329 20.3964 10.2575 20.3247 15.18C20.2999 16.8811 18.8724 18.2373 17.1711 18.2371C15.8034 18.2369 14.5811 17.9677 14.0005 17Z" stroke="white" stroke-linecap="round"/>
</g>
<g opacity="0.5">
<path d="M55.2781 6.6287L57.0459 8.39646M55.2781 6.6287L53.5104 4.86093M55.2781 6.6287L57.0459 4.86093M52.8033 4.15382C53.0794 4.42996 53.5104 4.86093 53.5104 4.86093M57.753 9.10357C57.4769 8.82743 57.0459 8.39646 57.0459 8.39646M57.0459 8.39646L53.5104 11.932M53.5104 4.86093L49.9748 8.39646M48.2071 15.8211V15.8211C48.5976 16.2116 49.2308 16.2116 49.6213 15.8211L53.5104 11.932M48.2071 15.8211L47.8535 16.1746C47.2677 16.7604 46.318 16.7604 45.7322 16.1746V16.1746V16.1746C45.1464 15.5889 45.1464 14.6391 45.7322 14.0533L46.0858 13.6998M48.2071 15.8211L46.0858 13.6998M46.0858 13.6998V13.6998C45.6952 13.3092 45.6952 12.6761 46.0858 12.2856L49.9748 8.39646M49.9748 8.39646L53.5104 11.932M57.0459 4.86093L56.3582 4.17324C56.3456 4.16064 56.3375 4.14428 56.335 4.12663C56.3329 4.11111 56.3517 4.10176 56.3628 4.11284L57.794 5.54405C57.8051 5.55513 57.7957 5.57394 57.7802 5.57179C57.7626 5.56936 57.7462 5.56122 57.7336 5.54863L57.0459 4.86093Z" stroke="white" stroke-linecap="round"/>
<path d="M42.8286 19.0784L45.7324 16.1746" stroke="white" stroke-linecap="round"/>
<path d="M49.9747 14.7604L49.2676 14.0533" stroke="white" stroke-linecap="round"/>
<path d="M51.0352 13.6998L50.3281 12.9926" stroke="white" stroke-linecap="round"/>
<path d="M52.0958 12.6391L51.3887 11.932" stroke="white" stroke-linecap="round"/>
</g>
<g opacity="0.5">
<path d="M80.8439 13.8067L88.6566 4.82905C89.9511 3.34159 92.2063 3.18512 93.6937 4.47957C95.1812 5.77403 95.3377 8.02922 94.0432 9.51668L92.8722 10.8623C92.294 10.6286 91.662 10.5 91.0001 10.5C88.2387 10.5 86.0001 12.7386 86.0001 15.5M80.8439 13.8067C79.5494 15.2942 79.7059 17.5494 81.1934 18.8438C83.037 20.4482 85.2525 19.6181 86.6657 17.9943C86.2423 17.2601 86.0001 16.4083 86.0001 15.5M80.8439 13.8067L85.1409 8.86899C85.9268 10.2505 86.6265 11.1855 87.5133 11.9164C86.5799 12.8247 86.0001 14.0947 86.0001 15.5" stroke="white"/>
<path d="M91.9609 5.48574C90.6725 5.15335 89.8913 6.05112 89.5006 6.5" stroke="white" stroke-linecap="round"/>
<path d="M96 15.5C96 18.2614 93.7614 20.5 91 20.5C88.2386 20.5 86 18.2614 86 15.5C86 12.7386 88.2386 10.5 91 10.5C93.7614 10.5 96 12.7386 96 15.5Z" stroke="white"/>
<path d="M87.6191 16.4059L94.3806 14.5941" stroke="white" stroke-linecap="round"/>
</g>
<g opacity="0.5">
<circle cx="126" cy="12" r="6.25" stroke="white"/>
<path d="M126 5L126 5.5" stroke="white" stroke-linecap="round"/>
<path d="M126 17.5V19.5" stroke="white" stroke-linecap="round"/>
<path d="M121.146 7.85355C121.342 8.04882 121.658 8.04882 121.854 7.85355C122.049 7.65829 122.049 7.34171 121.854 7.14645L121.146 7.85355ZM120.646 7.35355L121.146 7.85355L121.854 7.14645L121.354 6.64645L120.646 7.35355Z" fill="white"/>
<path d="M129.396 7.89645C129.201 8.09171 129.201 8.40829 129.396 8.60355C129.592 8.79882 129.908 8.79882 130.104 8.60355L129.396 7.89645ZM130.646 6.64645L129.396 7.89645L130.104 8.60355L131.354 7.35355L130.646 6.64645Z" fill="white"/>
<path d="M130.854 16.1464C130.658 15.9512 130.342 15.9512 130.146 16.1464C129.951 16.3417 129.951 16.6583 130.146 16.8536L130.854 16.1464ZM131.354 16.6464L130.854 16.1464L130.146 16.8536L130.646 17.3536L131.354 16.6464Z" fill="white"/>
<path d="M118.5 12L119.5 12" stroke="white" stroke-linecap="round"/>
<path d="M131.5 12L133.5 12" stroke="white" stroke-linecap="round"/>
<path d="M122.604 16.1036C122.799 15.9083 122.799 15.5917 122.604 15.3964C122.408 15.2012 122.092 15.2012 121.896 15.3964L122.604 16.1036ZM121.354 17.3536L122.604 16.1036L121.896 15.3964L120.646 16.6464L121.354 17.3536Z" fill="white"/>
<path d="M126.5 9C126.5 9.55228 126.052 10 125.5 10C124.948 10 124.5 9.55228 124.5 9C124.5 8.44772 124.948 8 125.5 8C126.052 8 126.5 8.44772 126.5 9Z" stroke="white"/>
<path d="M124.5 13C124.5 13.5523 124.052 14 123.5 14C122.948 14 122.5 13.5523 122.5 13C122.5 12.4477 122.948 12 123.5 12C124.052 12 124.5 12.4477 124.5 13Z" stroke="white"/>
<path d="M130 14C130 14.5523 129.552 15 129 15C128.448 15 128 14.5523 128 14C128 13.4477 128.448 13 129 13C129.552 13 130 13.4477 130 14Z" stroke="white"/>
<circle cx="1" cy="1" r="1" transform="matrix(1 0 0 -1 125 4.5)" stroke="white"/>
<path d="M127 20.5C127 19.9477 126.552 19.5 126 19.5C125.448 19.5 125 19.9477 125 20.5C125 21.0523 125.448 21.5 126 21.5C126.552 21.5 127 21.0523 127 20.5Z" stroke="white"/>
<circle cx="1" cy="1" r="1" transform="matrix(1 0 0 -1 119 7)" stroke="white"/>
<circle cx="1" cy="1" r="1" transform="matrix(1 0 0 -1 131 7)" stroke="white"/>
<circle cx="1" cy="1" r="1" transform="matrix(1 0 0 -1 131 19)" stroke="white"/>
<path d="M118.5 12C118.5 11.4477 118.052 11 117.5 11C116.948 11 116.5 11.4477 116.5 12C116.5 12.5523 116.948 13 117.5 13C118.052 13 118.5 12.5523 118.5 12Z" stroke="white"/>
<path d="M135.5 12C135.5 11.4477 135.052 11 134.5 11C133.948 11 133.5 11.4477 133.5 12C133.5 12.5523 133.948 13 134.5 13C135.052 13 135.5 12.5523 135.5 12Z" stroke="white"/>
<circle cx="1" cy="1" r="1" transform="matrix(1 0 0 -1 119 19)" stroke="white"/>
</g>
<g opacity="0.5">
<path d="M161.57 16.489C161.147 17.4098 161.009 18.4365 160.649 19.3785C160.44 20.1618 159.716 19.9575 159.242 19.5161C156.356 16.3009 154.171 8.50655 157.591 4.88885C159.339 2.94364 160.999 5.66922 163.999 5.66923C166.999 5.66923 168.682 2.96161 170.419 4.88885C173.84 8.53434 171.592 16.2979 168.693 19.5161C168.247 19.998 167.477 20.1409 167.275 19.3785C166.915 18.4365 166.788 17.4098 166.365 16.489C165.423 14.2209 162.541 14.3099 161.57 16.489Z" stroke="white" stroke-miterlimit="10"/>
<path d="M169 6C170 6.5 170 7.5 170 8" stroke="white" stroke-linecap="round"/>
</g>
<g opacity="0.5">
<path d="M200.999 21.5V5C200.999 4.33333 201.099 3 199.499 3C197.922 3 197.589 4.86603 198.499 5.6547M200.999 21.5C199.214 21.5 198.624 19.9071 199.229 18.8536M197.863 4.41336C197.41 4.3306 196.941 4.37846 196.499 4.55269C196.056 4.72692 195.653 5.02215 195.326 5.41222C194.999 5.80229 194.757 6.27516 194.623 6.78895C194.488 7.30274 194.465 7.84159 194.554 8.35776C194.644 8.87393 194.844 9.3515 195.137 9.74817C195.43 10.1448 195.807 10.4483 196.234 10.6318M196.214 17.0344C196.066 17.322 195.992 17.6536 195.999 18C196.007 18.3463 196.095 18.6967 196.256 19.0201C196.417 19.3434 196.647 19.6298 196.924 19.8538C197.202 20.0778 197.518 20.2326 197.846 20.3043C198.174 20.3761 198.503 20.3627 198.803 20.2652M195.15 9.97724C194.864 10.0096 194.592 10.121 194.358 10.3016C194.124 10.4823 193.935 10.7265 193.808 11.0127C193.682 11.2989 193.621 11.6183 193.632 11.9425C193.643 12.2667 193.725 12.5858 193.87 12.8714C194.016 13.1571 194.221 13.4005 194.467 13.5801C194.713 13.7598 194.993 13.8701 195.281 13.9013M194.731 13.842C194.449 14.0354 194.219 14.2954 194.061 14.5992C193.904 14.9029 193.824 15.2409 193.828 15.5832C193.832 15.9256 193.92 16.2617 194.085 16.5618C194.25 16.8619 194.487 17.1168 194.774 17.3038C195.061 17.4909 195.389 17.6043 195.73 17.6341" stroke="white" stroke-linecap="round"/>
<path d="M197.636 12.3097C197.935 12.3209 198.232 12.2476 198.5 12.0961C198.769 11.9446 199.001 11.7197 199.175 11.4413C199.349 11.1629 199.461 10.8396 199.5 10.5C199.539 10.1604 199.504 9.81507 199.399 9.49452C199.293 9.17397 199.121 8.88812 198.895 8.6623" stroke="white" stroke-linecap="round" stroke-linejoin="round"/>
<path d="M200.955 14.9439C200.644 14.9442 200.344 15.0155 200.083 15.1515C199.821 15.2874 199.606 15.4839 199.457 15.7233C199.307 15.9628 199.228 16.238 199.226 16.5244" stroke="white" stroke-linecap="round" stroke-linejoin="round"/>
<path d="M196.555 14.3706C196.726 14.3686 196.889 14.4102 197.031 14.4917C197.172 14.5731 197.288 14.6919 197.367 14.8374C197.446 14.983 197.487 15.1508 197.485 15.3261" stroke="white" stroke-linecap="round" stroke-linejoin="round"/>
<path d="M197.499 7C197.376 6.9621 197.244 6.95953 197.116 6.99252C196.988 7.02552 196.867 7.09307 196.763 7.18917C196.66 7.28528 196.578 7.40699 196.524 7.54351C196.47 7.68003 196.446 7.82716 196.454 7.97186C196.462 8.11656 196.502 8.25436 196.57 8.37306" stroke="white" stroke-linecap="round" stroke-linejoin="round"/>
<path d="M203.001 21.5V5C203.001 4.33333 202.901 3 204.501 3C206.061 3 206.404 4.82483 205.531 5.62805M203.001 21.5C204.786 21.5 205.376 19.9071 204.771 18.8536M206.137 4.41336C206.59 4.3306 207.059 4.37846 207.501 4.55269C207.944 4.72692 208.347 5.02215 208.674 5.41222C209.001 5.80229 209.243 6.27516 209.377 6.78895C209.512 7.30274 209.535 7.84159 209.446 8.35776C209.356 8.87393 209.156 9.3515 208.863 9.74817C208.57 10.1448 208.193 10.4483 207.766 10.6318M207.786 17.0344C207.934 17.322 208.008 17.6536 208.001 18C207.993 18.3463 207.905 18.6967 207.744 19.0201C207.583 19.3434 207.353 19.6298 207.076 19.8538C206.798 20.0778 206.482 20.2326 206.154 20.3043C205.826 20.3761 205.497 20.3627 205.197 20.2652M208.85 9.97724C209.136 10.0096 209.408 10.121 209.642 10.3016C209.876 10.4823 210.065 10.7265 210.192 11.0127C210.318 11.2989 210.379 11.6183 210.368 11.9425C210.357 12.2667 210.275 12.5858 210.13 12.8714C209.984 13.1571 209.779 13.4005 209.533 13.5801C209.287 13.7598 209.007 13.8701 208.719 13.9013M209.269 13.842C209.551 14.0354 209.781 14.2954 209.939 14.5992C210.096 14.9029 210.176 15.2409 210.172 15.5832C210.168 15.9256 210.08 16.2617 209.915 16.5618C209.75 16.8619 209.513 17.1168 209.226 17.3038C208.939 17.4909 208.611 17.6043 208.27 17.6341" stroke="white" stroke-linecap="round"/>
<path d="M206.888 12.0659C206.595 12.127 206.29 12.1044 206 12C205.71 11.8956 205.444 11.7127 205.225 11.4674C205.007 11.2221 204.843 10.9221 204.747 10.5938C204.652 10.2656 204.628 9.91932 204.679 9.58564" stroke="white" stroke-linecap="round" stroke-linejoin="round"/>
<path d="M205.395 16.6999C205.706 16.6867 206.003 16.603 206.258 16.4564C206.514 16.3098 206.721 16.1046 206.86 15.8592C206.999 15.6137 207.067 15.3356 207.058 15.0493" stroke="white" stroke-linecap="round" stroke-linejoin="round"/>
<path d="M204.835 13.5734C204.772 13.7319 204.753 13.8992 204.778 14.0606C204.803 14.2219 204.873 14.3723 204.981 14.4983C205.088 14.6244 205.231 14.7223 205.395 14.7833" stroke="white" stroke-linecap="round" stroke-linejoin="round"/>
<path d="M206.695 7.35421C206.813 7.40582 206.914 7.48972 206.989 7.59848C207.065 7.70724 207.112 7.83752 207.128 7.97776C207.143 8.118 207.126 8.26388 207.077 8.40248C207.029 8.54108 206.951 8.66812 206.85 8.77235C206.75 8.87657 206.629 8.95477 206.5 9.00001" stroke="white" stroke-linecap="round" stroke-linejoin="round"/>
</g>
<g opacity="0.5">
<path d="M235 20.1C235 19.2163 235.716 18.5 236.6 18.5H243.4C244.284 18.5 245 19.2163 245 20.1V20.1C245 20.3209 244.821 20.5 244.6 20.5H235.4C235.179 20.5 235 20.3209 235 20.1V20.1Z" stroke="white"/>
<path d="M236.95 15C236.95 15 238.313 16.0216 239.138 16.1915C239.874 16.3429 240.637 16.2979 241.35 16.0612C242.062 15.8244 242.7 15.4041 243.199 14.8426C243.698 14.2811 244.041 13.5982 244.192 12.8624C244.344 12.1266 244.299 11.364 244.062 10.6511C243.948 10.3096 243.793 9.9853 243.6 9.68524L243.501 9.49998M234.805 15C234.805 15 235.533 16.0562 236.015 16.4849C236.802 17.1846 237.76 17.6646 238.792 17.8769C239.823 18.0891 240.892 18.0261 241.892 17.6941C242.892 17.3621 243.786 16.7729 244.486 15.9856C245.185 15.1983 245.665 14.2408 245.878 13.2092C246.09 12.1775 246.027 11.1082 245.695 10.1087C245.521 9.58422 245.276 9.08864 244.968 8.63496L244.895 8.5552M243.501 9.49998C244.133 9.49998 244.674 9.10877 244.895 8.5552M243.501 9.49998C242.972 9.49998 242.508 9.22679 242.241 8.81396M244.895 8.5552C244.963 8.38348 245.001 8.19612 245.001 7.99998C245.001 7.61353 244.855 7.26122 244.615 6.99529M245.081 5.09803L245.001 5.16011M245.081 5.09803C245.273 5.34984 245.605 5.35472 245.839 5.16639C246.188 4.88533 246.222 4.38411 245.957 4.03709L245.716 3.72352C245.451 3.3765 244.958 3.27974 244.595 3.54331C244.355 3.71857 244.274 4.04591 244.464 4.29326M245.081 5.09803L244.772 4.69565L244.464 4.29326M244.464 4.29326L244.385 4.35697M244.385 4.35697L245.001 5.16011M244.385 4.35697C244.023 3.88438 243.842 3.64808 243.596 3.57349C243.513 3.54846 243.426 3.53703 243.34 3.53964C243.082 3.54741 242.846 3.72843 242.373 4.09048L237.38 7.91563C237.246 8.01849 237.179 8.06993 237.131 8.12294C236.906 8.36986 236.858 8.73036 237.011 9.02727C237.044 9.09101 237.095 9.15815 237.198 9.29242M245.001 5.16011C245.24 5.47241 245.36 5.62855 245.399 5.79188C245.447 5.9864 245.42 6.19166 245.323 6.36711C245.242 6.51443 245.086 6.63405 244.774 6.87329L244.615 6.99529M237.198 9.29242L238.445 10.9199M237.198 9.29242L236.174 10.0773C235.934 10.2612 235.814 10.3531 235.747 10.4628C235.642 10.6326 235.615 10.839 235.671 11.0302C235.708 11.1538 235.8 11.2738 235.984 11.5138C236.168 11.7538 236.26 11.8738 236.37 11.9415C236.54 12.0463 236.746 12.0736 236.937 12.0166C237.061 11.9798 237.181 11.8878 237.421 11.7039L238.445 10.9199M238.445 10.9199C238.659 11.199 239.058 11.252 239.337 11.0381L242.241 8.81396M242.241 8.81396C242.089 8.57952 242.001 8.30004 242.001 7.99998C242.001 7.17155 242.672 6.49998 243.501 6.49998C243.943 6.49998 244.34 6.69114 244.615 6.99529" stroke="white"/>
<path d="M234.5 15H238.5" stroke="white" stroke-linecap="round"/>
</g>
</svg>
