<svg xmlns="http://www.w3.org/2000/svg" width="475" height="161" fill="none" xmlns:v="https://vecta.io/nano"><path d="M424.672 120.625l1.31-.747-1.431 1.091-1.545 1.019 1.666-1.363zM271.379 41.011l-.931-2.952-.603-3.484.877 3.463.657 2.974zm1.088 3.272l-.332-.945-.258-1.165.59 2.11zM431.008 116.3l1.562-.841-1.822 1.282-1.207.736 1.467-1.177zm-3.086 1.578l1.983-1.013-2.372 1.83-1.722.994 2.111-1.812v.001zM273.083 48.156l-1.306-3.246-1.032-5.13 1.162 3.617 1.176 4.758v.001zm1.568 3.546l-.997-2.254-.977-3.861.756 2.152 1.218 3.962v.001zm1.113 2.516l-.253-.572-.122-.387.375.958v.001zm164.86 56.378l.267-.136-.58.348.313-.212zm-3.093 1.509l1.472-.706-1.681 1.139-1.662.954 1.871-1.387zm-3.138 1.48l1.958-.912-2.266 1.678-2.023 1.104 2.33-1.87h.001zm-3.129 1.405l2.229-1.001-2.633 2.109-2.14 1.094 2.543-2.202h.001zM274.633 54.27l-1.562-2.97-1.037-5.128 1.394 3.343 1.204 4.755h.001zm1.886 3.363l-1.441-2.571-1.077-4.258 1.286 2.908 1.231 3.92h.001zm1.911 3.406l-1.346-2.399-.934-2.985 1.187 2.559 1.092 2.825h.001zm1.361 2.236l-.613-1.006-.559-1.419 1.171 2.425h.001zm167.216 43.677l.368-.16-.734.395.366-.235zm-3.157 1.383l1.751-.766-2.019 1.249-1.469.75 1.737-1.233zm-3.074 1.267l2.061-.847-2.368 1.651-1.992.978 2.299-1.782zm-3.092 1.229l2.24-.878-2.547 1.96-2.301 1.1 2.603-2.182h.005zm-3.094 1.183l2.384-.911-2.728 2.283-2.389 1.068 2.733-2.44zM276.3 60.238l-1.767-2.544-1.291-5.552 1.611 3 1.447 5.099v-.003zm2.131 2.95l-1.719-2.378-1.399-4.849 1.548 2.758 1.572 4.472-.002-.003zm2.155 2.927l-1.66-2.242-1.408-3.981 1.438 2.473 1.631 3.753-.001-.003zm1.985 2.536l-1.402-1.792-1.32-3.039 1.072 1.749 1.649 3.085.001-.003zm1.666 2.13l-.817-1.039-.479-.894 1.296 1.936v-.003zm169.21 32.86l.541-.206-1.101.537.56-.331zm-3.14 1.173l1.719-.627-1.96 1.112-1.732.803 1.973-1.288zm-3.13 1.122l2.192-.784-2.493 1.599-2.075.908 2.376-1.723zm-3.078 1.045l2.334-.789-2.726 1.951-2.225.917 2.616-2.083.001.004zm-3.065.984l2.399-.759-2.804 2.205-2.382.953 2.787-2.403v.004zm-3.062.943l2.478-.759-2.913 2.488-2.456.941 2.89-2.675.001.005zm-160.056-43.07l-1.965-2.105-1.265-5.383 1.807 2.561 1.422 4.923.001.004zm2.307 2.417l-1.951-2.043-1.365-4.728 1.805 2.501 1.511 4.267v.004zm2.312 2.353l-1.904-1.926-1.425-4.016 1.754 2.315 1.575 3.624v.004zm2.259 2.199l-1.784-1.736-1.469-3.348 1.679 2.147 1.574 2.933v.004zm2.229 2.153l-1.607-1.543-1.342-2.453 1.493 1.816 1.451 2.171.005.008zm1.678 1.514l-.855-.772-.938-1.341 1.792 2.106.001.007zm171.038 24.329l.793-.25-1.593.661.8-.411zm-3.064.915l1.807-.538-1.998 1.024-1.845.723 2.036-1.209zm-3.072.881l2.135-.602-2.414 1.436-2.209.835 2.488-1.666v-.003zm-3.07.844l2.332-.635-2.683 1.801-2.37.855 2.721-2.019v-.002zm-3.069.806l2.445-.636-2.861 2.121-2.423.818 2.839-2.303zm-3.037.74l2.489-.601-2.956 2.391-2.483.8 2.95-2.59zm-3.034.703l2.537-.584-3.038 2.654-2.54.784 3.04-2.859.001.005zM279.69 71.334l-2.143-1.634-1.484-5.486 1.993 2.114 1.635 5.001-.001.005zm2.485 1.885l-2.147-1.629-1.601-4.874 1.992 2.08 1.757 4.418-.001.005zm2.479 1.806l-2.108-1.525-1.683-4.234 1.945 1.938 1.846 3.817v.005zm2.468 1.75l-2.067-1.471-1.748-3.621 1.91 1.86 1.905 3.233zm2.452 1.695l-1.975-1.356-1.729-2.934 1.787 1.665 1.922 2.624h-.005zm2.315 1.533l-1.744-1.154-1.622-2.221 1.531 1.384 1.839 1.987-.004.005zm1.978 1.309l-1.152-.763-.809-.877 1.966 1.639-.005.001zm169.09 17.78l1.939-.426-2.155.942-1.816.574 2.032-1.089zm-3.033.626l2.227-.459-2.514 1.332-2.165.649 2.449-1.522h.003zm-3.037.596l2.36-.456-2.683 1.653-2.365.683 2.687-1.88h.001zm-3.031.566l2.452-.454-2.825 1.967-2.48.688 2.852-2.201h.001zm-3.027.538l2.515-.445-2.933 2.265-2.529.659 2.946-2.48.001.001zm-3.006.495l2.539-.418-3.027 2.54-2.546.619 3.032-2.747.002.006zm-2.998.461l2.554-.386-3.084 2.793-2.579.6 3.108-3.009.001.002zM281.399 76.532l-2.31-1.175-1.439-5.282 2.17 1.645 1.579 4.812zm2.633 1.342l-2.313-1.176-1.561-4.717 2.187 1.657 1.687 4.236zm2.623 1.275l-2.278-1.1-1.663-4.129 2.152 1.541 1.789 3.684v.004zm2.627 1.257l-2.258-1.08-1.754-3.579 2.15 1.525 1.862 3.129v.004zm2.608 1.21l-2.19-1.008-1.803-2.994 2.081 1.407 1.911 2.587.001.007zm2.556 1.149l-2.077-.933-1.82-2.432 2.011 1.331 1.885 2.027.001.007zm2.456 1.078l-1.844-.813-1.673-1.762 1.791 1.132 1.726 1.443zm1.935.814l-1.086-.457-1.177-.937 2.263 1.398v-.003zm161.374 13.276l2.474-.249-2.866 1.822-2.464.486 2.856-2.059zm-2.995.285l2.525-.237-2.962 2.119-2.525.474 2.962-2.356zm-2.991.266l2.559-.227-3.042 2.408-2.563.458 3.046-2.639zm-2.986.248l2.579-.213-3.111 2.683-2.57.422 3.105-2.892h-.003zm-2.979.222l2.589-.189-3.157 2.935-2.583.397 3.155-3.141-.004-.003zM283.287 81.607l-2.475-.717-1.629-5.223 2.335 1.186 1.772 4.754h-.003zm2.769.803l-2.476-.717-1.743-4.673 2.344 1.192 1.878 4.199h-.003zm2.759.761l-2.453-.674-1.836-4.11 2.314 1.109 1.977 3.675h-.002zm2.764.759l-2.442-.671-1.928-3.588 2.316 1.108 2.057 3.15h-.003zm2.748.726l-2.398-.633-1.986-3.045 2.264 1.031 2.123 2.647h-.003zm2.733.709l-2.345-.609-2.028-2.529 2.226.999 2.15 2.138h-.003zm2.688.681l-2.232-.562-1.99-1.98 2.103.903 2.122 1.639h-.003zm2.547.625l-1.981-.486-1.843-1.423 1.851.778 1.976 1.13h-.003zm2.07.506l-1.242-.305-1.024-.586 2.269.891h-.003zm156.246 8.279l2.56.001-3.052 2.249-2.567.245 3.059-2.495zm-2.957-.007l2.584.011-3.12 2.535-2.593.233 3.129-2.779zm-2.956-.011l2.598.01-3.179 2.81-2.604.216 3.185-3.036zm-2.953-.017l2.604.016-3.23 3.064-2.607.191 3.233-3.271zM285.131 86.46l-2.617-.254-1.616-5.047 2.494.722 1.739 4.578zm2.893.277l-2.611-.252-1.727-4.521 2.498.722 1.84 4.05zm2.887.27l-2.597-.243-1.826-3.991 2.478.682 1.945 3.553v-.001zm2.885.27l-2.582-.242-1.921-3.489 2.479.682 2.024 3.05v-.001zm2.873.259l-2.551-.23-1.992-2.981 2.45.639 2.093 2.573v-.001zm2.861.258l-2.512-.226-2.055-2.508 2.429.629 2.138 2.105v-.001zm2.831.249l-2.439-.214-2.075-2.02 2.363.589 2.151 1.646v-.001zm2.769.24l-2.304-.2-2.051-1.547 2.264.554 2.086 1.194.005-.002zm2.634.226l-2.033-.173-1.869-1.042 2.02.475 1.882.742v-.001zm2.072.169l-1.199-.1-1.204-.454 2.404.559-.001-.005zm151.275 3.636l2.594.25-3.186 2.658-2.603-.009 3.195-2.899zm-2.924-.274l2.605.242-3.237 2.931-2.616-.008 3.248-3.166zm-2.927-.263l2.615.236-3.281 3.19-2.623-.015 3.289-3.41v-.001zm-168.151-.642l-2.757.208-1.748-4.892 2.631.255 1.874 4.429v-.001zm3.012-.22l-2.749.199-1.855-4.383 2.631.254 1.973 3.932v-.001zm3.007-.207l-2.74.188-1.95-3.886 2.623.244 2.067 3.455v-.001zm2.996-.206l-2.721.187-2.039-3.405 2.615.244 2.145 2.974v-.001zm2.992-.188l-2.706.17-2.11-2.925 2.595.234 2.221 2.522v-.001zm2.974-.186l-2.669.167-2.178-2.47 2.573.231 2.274 2.073v-.001zm2.957-.174l-2.626.153-2.211-2.015 2.527.218 2.31 1.645v-.001zm2.921-.166l-2.543.145-2.222-1.581 2.459.214 2.306 1.223v-.001zm2.85-.157l-2.397.131-2.158-1.143 2.324.197 2.231.817v-.001zm2.698-.138l-2.099.108-1.946-.711 2.037.173 2.008.433v-.002zm2.037-.105l-1.141.058-1.103-.239 2.244.181v-.001zm146.143-.848l2.606.481-3.28 3.051-2.62-.245 3.294-3.287zm-2.902-.511l2.614.459-3.316 3.311-2.63-.236 3.332-3.535zm-169.709 7.6l-2.877.656-1.774-4.718 2.771-.21 1.88 4.271zm3.126-.693l-2.867.635-1.875-4.23 2.766-.201 1.971 3.801.005-.004zm3.114-.667l-2.857.612-1.961-3.759 2.761-.189 2.053 3.341.004-.004zm3.096-.66l-2.836.604-2.043-3.299 2.747-.189 2.124 2.889.008-.005zm3.098-.624l-2.827.568-2.12-2.846 2.74-.172 2.203 2.454.004-.005zm3.071-.617l-2.788.561-2.18-2.413 2.713-.17 2.246 2.027.009-.005zm3.063-.585l-2.762.524-2.224-1.983 2.691-.156 2.291 1.619.004-.005zm3.031-.569l-2.694.501-2.256-1.573 2.637-.15 2.308 1.225.005-.004zm2.988-.544l-2.601.471-2.246-1.17 2.56-.137 2.283.846.004-.01zm2.934-.512l-2.455.428-2.17-.782 2.413-.124 2.208.483.004-.005zm2.709-.473l-2.08.364-1.943-.416 2.091-.103 1.932.154zm2.091-.334l-1.111.178-1.033-.085 2.139-.092.005-.002zm-30.249 10.588l-2.996 1.096-1.86-4.531 2.889-.658 1.966 4.098.001-.004zm3.231-1.139l-2.985 1.055-1.956-4.063 2.883-.638 2.058 3.646zm3.219-1.115l-2.975 1.033-2.044-3.617 2.876-.617 2.14 3.201h.003zm3.197-1.093L297.85 97.6l-2.125-3.176 2.859-.607 2.218 2.774h.002zm3.198-1.045l-2.947.963-2.199-2.747 2.855-.573 2.288 2.358h.003zm3.162-1.033l-2.905.948-2.263-2.331 2.824-.568 2.341 1.95h.003zm3.166-.981l-2.898.893-2.311-1.923 2.815-.532 2.391 1.562h.003zm3.125-.96l-2.83.869-2.352-1.533 2.762-.519 2.417 1.183h.003zm3.1-.921l-2.769.819-2.361-1.154 2.712-.487 2.411.823.007-.001zm3.057-.879l-2.662.765-2.332-.791 2.613-.456 2.374.483.007-.001zm2.924-.835l-2.436.695-2.234-.451 2.436-.412 2.234.169zm2.809-.754l-2.125.57-1.926-.147 2.147-.346 1.897-.076.007-.001zm2.022-.541l-.993.266-.997.039 1.984-.3.006-.006zm-34.094 15.437l-3.091 1.516-1.927-4.34 3.01-1.1 2.001 3.924h.007zm3.328-1.568l-3.093 1.447-2.003-3.897 3.006-1.059 2.082 3.51.008-.001zm3.305-1.54l-3.07 1.431-2.082-3.479 2.993-1.035 2.151 3.084.008-.001zm3.285-1.502l-3.047 1.392-2.145-3.063 2.976-1.014 2.208 2.686h.008zm3.282-1.45l-3.043 1.341-2.214-2.656 2.973-.972 2.276 2.287.008-.001zm3.243-1.431l-2.994 1.323-2.271-2.262 2.936-.96 2.316 1.9.013-.001zm3.251-1.364l-3.001 1.252-2.312-1.878 2.939-.903 2.367 1.532.007-.004zm3.205-1.336l-2.932 1.223-2.355-1.505 2.882-.887 2.396 1.173.009-.004zm3.192-1.286l-2.894 1.161-2.375-1.145 2.85-.838 2.411.826.008-.004zm3.164-1.242l-2.819 1.106-2.372-.799 2.77-.797 2.416.494.005-.004zm3.071-1.191l-2.668 1.033-2.337-.472 2.643-.742 2.362.181zm3.051-1.12l-2.521.924-2.209-.168 2.485-.666 2.241-.086.004-.003zm2.737-1.007l-2.019.741-1.933.077 1.945-.518 2.004-.295.003-.005zm1.857-.653l-.781.267-.729.108 1.51-.375zm-37.813 20.658l-3.195 1.929-1.961-4.163 3.104-1.523 2.052 3.752v.005zm3.428-1.975l-3.197 1.843-2.045-3.74 3.107-1.459 2.135 3.351v.005zm3.393-1.954l-3.169 1.825-2.128-3.336 3.087-1.439 2.21 2.945v.005zm3.381-1.895l-3.159 1.768-2.198-2.932 3.072-1.401 2.285 2.56v.005zm3.365-1.842l-3.14 1.718-2.271-2.549 3.065-1.354 2.345 2.179.001.005zm3.322-1.811l-3.095 1.686-2.329-2.166 3.022-1.339 2.402 1.814v.005zm3.338-1.73l-3.101 1.607-2.382-1.799 3.035-1.266 2.448 1.453v.005zm3.28-1.699l-3.028 1.57-2.422-1.443 2.974-1.242 2.476 1.11v.005zm3.274-1.635l-3.007 1.497-2.449-1.101 2.958-1.181 2.497.779.001.005zm3.237-1.581l-2.931 1.429-2.458-.771 2.89-1.133 2.502.47-.003.005zm3.16-1.526l-2.808 1.353-2.439-.461 2.797-1.071 2.45.18zm3.171-1.456l-2.728 1.252-2.358-.173 2.716-.997 2.37-.087v.005zm2.979-1.367l-2.427 1.114-2.214.075 2.404-.882 2.236-.312.001.005zm2.841-1.245l-2.114.911-1.795.241 2.207-.754 1.701-.402.001.005zm2.111-.905l-.914.391-.699.159 1.612-.556.001.005zm-42.023 26.403l-3.278 2.299-2.073-3.94 3.207-1.937 2.143 3.574.001.004zm3.498-2.371l-3.279 2.218-2.14-3.565 3.216-1.852 2.203 3.199zm3.459-2.338l-3.241 2.191-2.197-3.176 3.185-1.834 2.255 2.819h-.002zm3.451-2.262l-3.241 2.117-2.247-2.801 3.178-1.777 2.317 2.46-.007.001zm3.44-2.211l-3.214 2.07-2.303-2.446 3.162-1.729 2.355 2.105zm3.391-2.165l-3.178 2.025-2.345-2.088 3.121-1.698 2.4 1.761h.002zm3.405-2.082l-3.179 1.944-2.386-1.747 3.131-1.622 2.432 1.425h.002zm3.343-2.044l-3.108 1.901-2.421-1.41 3.067-1.589 2.46 1.099h.002zm3.351-1.976l-3.1 1.819-2.444-1.083 3.061-1.517 2.484.785-.001-.004zm3.317-1.918l-3.037 1.756-2.461-.768 2.99-1.461 2.506.478.002-.004zm3.249-1.854l-2.939 1.674-2.466-.466 2.911-1.39 2.494.183zm3.267-1.779l-2.886 1.572-2.432-.179 2.85-1.309 2.466-.081.002-.004zm3.108-1.693l-2.65 1.442-2.374.082 2.614-1.201 2.408-.319.002-.004zm3.079-1.6l-2.505 1.281-2.195.295 2.534-1.084 2.165-.488.001-.004zm2.783-1.42l-1.932.986-1.821.416 1.911-.82 1.84-.577.002-.004zm1.662-.85l-.399.205-.543.171.941-.371.001-.004zm-45.535 32.205l-3.377 2.662-2.059-3.801 3.29-2.306 2.146 3.445zm3.582-2.753l-3.369 2.589-2.138-3.431 3.292-2.226 2.217 3.068h-.002zm3.536-2.718l-3.328 2.558-2.205-3.057 3.257-2.202 2.278 2.701h-.002zm3.54-2.619l-3.335 2.462-2.267-2.687 3.258-2.127 2.346 2.352h-.002zm3.503-2.569l-3.296 2.418-2.334-2.341 3.234-2.084 2.398 2.007h-.002zm3.468-2.51l-3.263 2.359-2.384-1.995 3.198-2.037 2.451 1.673h-.002zm3.471-2.423l-3.258 2.275-2.436-1.664 3.205-1.959 2.491 1.348h-.002zm3.405-2.377l-3.185 2.224-2.475-1.339 3.14-1.921 2.522 1.035h-.002zm3.418-2.291l-3.188 2.13-2.501-1.027 3.145-1.839 2.546.736h-.002zm3.368-2.229l-3.112 2.06-2.519-.728 3.077-1.78 2.556.449h-.002zm3.311-2.16l-3.027 1.972-2.523-.444 3.012-1.706 2.538.178zm3.334-2.082l-2.994 1.871-2.491-.175 2.975-1.621 2.512-.076h-.002zm3.202-2.002l-2.807 1.755-2.445.073 2.777-1.512 2.476-.317h-.001zm3.225-1.923l-2.758 1.631-2.334.288 2.758-1.409 2.336-.51h-.002zm3.084-1.812l-2.451 1.439-2.116.448 2.356-1.203 2.211-.684zm2.678-1.563l-1.855 1.08-1.773.522 2.004-.956 1.624-.645v-.002zm1.729-.948l-.283.154-.193.07.476-.221v-.002zm-49.452 38.393l-3.444 2.988-2.208-3.537 3.377-2.663 2.275 3.214v-.002zm3.633-3.101l-3.424 2.923-2.271-3.202 3.381-2.598 2.314 2.879v-.002zm3.584-3.059l-3.382 2.88-2.31-2.862 3.343-2.568 2.349 2.552v-.002zm3.602-2.943l-3.4 2.776-2.345-2.54 3.352-2.477 2.393 2.243v-.002zm3.55-2.9l-3.35 2.736-2.386-2.222 3.313-2.431 2.423 1.919v-.002zm3.526-2.826l-3.327 2.664-2.415-1.905 3.286-2.37 2.456 1.611zm3.521-2.742l-3.315 2.583-2.449-1.603 3.282-2.291 2.483 1.313-.001-.002zm3.455-2.689l-3.245 2.527-2.474-1.301 3.212-2.244 2.507 1.019v-.001zm3.481-2.598l-3.263 2.429-2.495-1.008 3.228-2.152 2.53.732v-.001zm3.427-2.532l-3.191 2.359-2.513-.72 3.151-2.086 2.553.447zm3.378-2.46l-3.117 2.267-2.529-.444 3.091-2.002 2.555.179zm3.396-2.382l-3.09 2.163-2.523-.177 3.062-1.914 2.551-.073zm3.275-2.288l-2.922 2.044-2.508.072 2.895-1.809 2.535-.307zm3.297-2.207l-2.888 1.924-2.46.298 2.919-1.715 2.429-.51v.002zm3.182-2.097l-2.653 1.748-2.33.486 2.652-1.557 2.331-.679v.002zm2.937-1.92l-2.276 1.484-2.17.63 2.494-1.397 1.952-.717zm2.892-1.786l-1.886 1.164-1.57.576 2.021-1.109 1.435-.633v.002zm1.853-1.144l-.383.237-.503.221.882-.46.004.002zm52.064 53.763l-1.94 1.7c-38.496 26.795-79.914 35.882-109.431-10.601l3.454-2.994c30.331 42.267 70.664 35.237 107.917 11.895zm3.642-3.245l-2.341 2.106c-37.54 23.971-78.373 31.659-109.006-10.938l3.435-2.932c31.536 38.513 71.486 32.563 107.91 11.764h.002zm3.513-3.235l-2.625 2.417c-36.592 21.194-76.854 27.559-108.595-11.118l3.392-2.896c32.714 34.695 72.246 29.836 107.826 11.597h.002zm3.47-3.316l-2.75 2.648c-35.696 18.531-75.464 23.705-108.344-11.096l3.416-2.784c33.866 30.774 72.961 26.93 107.676 11.233l.002-.001zm3.494-3.406l-2.979 2.906c-34.779 15.887-74.016 19.924-107.998-10.899l3.367-2.749c35.04 26.864 73.725 23.964 107.608 10.742h.002zm3.472-3.483l-3.05 3.059c-33.919 13.359-72.707 16.401-107.83-10.481l3.348-2.676c36.192 22.913 74.475 20.893 107.53 10.098h.002zm3.454-3.569l-3.082 3.196c-33.075 10.904-71.435 13.029-107.699-9.883l3.338-2.6c37.326 18.923 75.208 17.71 107.441 9.287h.002zm3.493-3.677l-3.179 3.35c-32.238 8.497-70.168 9.787-107.548-9.124l3.268-2.546c38.482 14.944 76.01 14.452 107.457 8.321l.002-.001zm3.509-3.78l-3.236 3.487c-31.442 6.18-68.995 6.727-107.514-8.196l3.296-2.448c39.611 10.929 76.787 11.064 107.452 7.157h.002zm3.516-3.897l-3.267 3.627c-30.646 3.939-67.828 3.836-107.462-7.066l3.219-2.382c40.746 6.907 77.597 7.587 107.508 5.822l.002-.001zm3.548-4l-3.326 3.753c-29.883 1.778-66.724 1.118-107.471-5.768l3.173-2.297c41.881 2.88 78.44 4.011 107.622 4.314l.002-.002zm3.576-4.103l-3.372 3.872c-29.143-.297-65.666-1.422-107.52-4.297l3.146-2.202c42.995-1.147 79.277.34 107.744 2.628h.002zm3.58-4.212l-3.397 3.992c-28.421-2.29-64.648-3.785-107.585-2.648l2.991-2.093c44.14-5.189 80.2-3.446 107.991.748zm3.605-4.328l-3.429 4.12c-27.736-4.199-63.72-5.963-107.759-.825l3.025-1.994c45.221-9.21 81.048-7.305 108.163-1.305v.004zm3.627-4.431l-3.462 4.231c-27.044-6.002-62.751-7.94-107.798 1.155l2.797-1.842c46.333-13.247 81.976-11.273 108.463-3.548v.004zm-3.844 9.05l3.388-3.89 2.625.653-3.379 3.681-2.635-.447.001.004zm-3.542 3.971l3.359-3.767 2.625.436-3.348 3.555-2.637-.229.001.004zm-3.517 3.855l3.322-3.638 2.627.224-3.319 3.434-2.63-.02zm-3.48 3.743l3.265-3.51 2.617.021-3.265 3.308-2.617.178v.003zm-3.434 3.628l3.199-3.378 2.6-.178-3.198 3.175-2.602.378.001.003zm-3.438 3.518l3.174-3.247 2.577-.372-3.151 3.043-2.6.573v.003zm-3.374 3.38l3.08-3.082 2.572-.567-3.107 2.911-2.545.738zm-3.295 3.249l2.945-2.9 2.513-.728-3.005 2.757-2.453.871zm-3.303 3.14l2.878-2.736 2.407-.854-2.863 2.563-2.423 1.024.001.003zm-3.224 2.995l2.732-2.533 2.322-.968-2.751 2.36-2.303 1.141zm-3.117 2.841l2.487-2.268 2.136-1.032-2.461 2.068-2.165 1.236.003-.004zm-2.981 2.612l2.182-1.899 1.791-.989-2.063 1.687-1.91 1.201zm-2.412 2.099l1.213-1.055 1.316-.818-1.576 1.223-.951.65h-.002zm-121.801-.84c27.444 48.716 67.593 40.62 105.894 13.305-40.154 32.007-82.336 43.549-109.391-10.195l3.499-3.11h-.002zm-2.264-4.132c.705 1.359 1.43 2.634 2.151 3.92l-3.484 3.101-2.081-4.284 3.413-2.737h.001zm-2.122-4.408l2.007 4.198-3.398 2.728c-.663-1.452-1.3-3.001-1.94-4.546l3.33-2.38h.001zm-2.114-4.579c.658 1.511 1.338 2.927 2.014 4.363l-3.322 2.373-1.936-4.731 3.24-2.005h.004zm-1.971-4.841l1.881 4.62-3.235 1.998c-.607-1.609-1.189-3.329-1.774-5.028l3.124-1.59h.004zm-1.935-5.035l1.846 4.817-3.118 1.584-1.752-5.238 3.02-1.163h.004zm-1.844-5.249l1.763 5.028-3.014 1.158-1.653-5.487 2.9-.699h.004zm-1.753-5.469l1.675 5.246-2.89.698-1.564-5.721 2.775-.222h.004zm-1.723-5.687l1.653 5.458-2.769.223-1.522-5.945 2.638.265zm-1.578-5.896l1.504 5.653-2.627-.264c-.475-1.984-.922-4.076-1.373-6.153l2.492.764h.004zm-1.598-6.145c.493 2.026 1.017 3.927 1.529 5.878l-2.487-.758-1.383-6.38 2.337 1.26h.004zm-1.404-6.29l1.335 5.988-2.325-1.255c-.413-2.087-.791-4.31-1.181-6.491l2.168 1.758h.003zm-1.436-6.58l1.35 6.214-2.153-1.743-1.19-6.711 1.994 2.241h-.001zm-1.267-6.684l1.182 6.235-1.788-2.01-.006-.007-.01-.008-.159-.125-1.005-6.665.251.284c.509.788 1.024 1.534 1.536 2.296h-.001zm-1.267-6.995l1.155 6.406-1.23-1.84v-.007l-.008-.008-.497-.561-.986-6.812.549.84c.334.682.677 1.328 1.018 1.982h-.001zm-1.125-7.055l1.006 6.314-.696-1.35v-.007l-.001-.006-.814-1.247-.827-6.714.69 1.403c.208.552.426 1.074.647 1.606h-.005zm-1.103-7.359l.936 6.318-.262-.653-.001-.005-.989-2.016-.798-6.782.827 2.221c.092.312.19.613.288.917h-.001zm-.97-7.317l.803 6.056-1.041-2.797-.622-6.348.788 2.801.073.287h-.001zm-.92-7.445l.695 5.748-.765-2.717-.595-6.213.665 3.182zm-.728-6.743l.476 4.402-.55-2.619-.339-4.487.413 2.704zm-.662-6.12l.088.78-.067-.438-.047-.622.026.28zm1.622 12.826l-.074-.667.156 1.069-.082-.401zm.919 7.441l-.626-4.708.549 2.858.658 4.211-.58-2.361h-.001zm.97 7.313l-.691-5.211.868 3.507.868 5.015-1.044-3.311h-.001zm1.102 7.35l-.925-6.011 1.164 3.687 1.076 5.594-1.314-3.27h-.001zm1.123 7.042l-.957-5.999 1.405 3.493 1.122 5.563-1.569-3.057h-.001zm1.267 6.982l-1.149-6.239 1.625 3.156 1.312 5.759-1.787-2.679-.001.003zm1.263 6.666l-1.152-6.077 1.828 2.736 1.31 5.572-1.986-2.234v.003zm1.434 6.558l-1.344-6.111 2.014 2.264 1.497 5.601-2.171-1.754h.004zm1.396 6.263c-.457-1.89-.879-3.92-1.314-5.895l2.189 1.772 1.459 5.381-2.338-1.258.004-.001zm1.591 6.112l-1.512-5.804 2.343 1.262c.537 1.824 1.096 3.533 1.65 5.294l-2.485-.751h.004zm1.568 5.862c-.515-1.801-1.003-3.711-1.498-5.594l2.498.752 1.624 5.103-2.624-.26zm1.713 5.653l-1.64-5.409 2.638.261c.577 1.695 1.171 3.308 1.767 4.937l-2.769.212h.004zm1.74 5.435l-1.67-5.206 2.779-.21 1.781 4.756-2.894.661h.004zm1.836 5.221l-1.76-4.998 2.9-.665 1.872 4.561-3.016 1.102h.004zm1.919 5.011l-1.837-4.79 3.026-1.107c.635 1.495 1.281 2.944 1.932 4.368l-3.125 1.529h.004zm1.962 4.815c-.638-1.474-1.254-3.042-1.873-4.595l3.127-1.535 1.969 4.185-3.227 1.946.004-.001zm2.101 4.563l-2.011-4.342 3.235-1.955c.681 1.37 1.381 2.659 2.077 3.961l-3.305 2.337.004-.001zm2.104 4.4c-.683-1.325-1.342-2.766-2.006-4.18l3.312-2.344 2.065 3.818-3.371 2.706zm2.262 4.116l-2.144-3.907 3.379-2.712c.726 1.237 1.474 2.376 2.215 3.55l-3.453 3.065.003.004zm109.804 10.421c-39.408 29.562-81.336 40.023-109.692-10.214l3.46-3.079c29.071 45.899 69.697 37.84 107.723 12.056l-1.491 1.237zm7.903-6.208l-1.178.976-1.395 1.023 1.495-1.311 1.078-.688zm4.002-3.325l-2.26 1.883-1.573 1.025 1.975-1.823 1.858-1.085zm3.57-3.108l-2.522 2.196-2.016 1.181 2.449-2.267 2.089-1.11zm3.503-3.138l-2.66 2.399-2.268 1.208 2.602-2.505 2.326-1.102zm3.502-3.212l-2.874 2.639-2.392 1.139 2.832-2.791 2.434-.987zm3.438-3.268l-2.945 2.8-2.504 1.032 3.001-3.011 2.449-.816-.001-.005zm3.451-3.365l-3.025 2.96-2.507.856 3.025-3.15 2.507-.666zm3.503-3.487l-3.152 3.14-2.546.685 3.128-3.31 2.57-.515zm3.499-3.582l-3.209 3.284-2.586.521 3.207-3.456 2.588-.349zm3.502-3.679l-3.237 3.409-2.607.351 3.232-3.593 2.612-.167zm3.533-3.785l-3.297 3.536-2.626.169 3.299-3.73 2.624.025zm3.562-3.894l-3.348 3.661-2.635-.024 3.349-3.853 2.633.216h.001zm3.574-4.003l-3.38 3.788-2.642-.217 3.377-3.981 2.644.406.001.004zm3.588-4.105l-3.405 3.904-2.648-.405 3.411-4.103 2.64.596.002.008zm3.608-4.222l-3.439 4.017-2.648-.61 3.451-4.222 2.636.814zm-2.233-25.992c-23.929-7.335-56.234-3.518-99.714 22.483l-5.907 3.111-6.61 3.11-6.435 2.599-6.073 2.017-6.497 1.613-5.915.912-6.025.273-5.849-.473-5.589-1.277-5.519-2.216c-1.705-1.003-3.409-2.041-5.112-3.115-1.7-1.405-3.395-2.859-5.086-4.362a175.53 175.53 0 0 1-4.475-5.218 203.91 203.91 0 0 1-4.623-7.162c-1.215-2.367-2.411-4.836-3.593-7.352-1.322-3.356-2.613-6.848-3.882-10.443-.928-3.132-1.83-6.373-2.711-9.698-1.007-4.529-1.961-9.264-2.888-14.11l-1.719-11.726-.084-.553-.66-6.109-.821-7.837-1.802-27.95-2.663-41.113-.233.026 2.662 41.102 1.42 22.05-1.089-10.424-5.526-52.445-.233.026 5.526 52.444 1.704 16.3.076 1.174.298 3.961-2.524-16.603-8.727-56.867-.233.026 8.73 56.882 2.987 19.646.437 5.79-5.65-27.007-11.547-54.743-.233.026 11.551 54.765 6.015 28.737.602 6.667-11.707-42.05-13.249-47.36-.236.026 13.26 47.396 12.068 43.316.664 6.772-21.614-59.502-13.364-36.989-.24.027 13.383 37.043 21.911 60.328.801 6.995c-13.741-28.078-25.311-53.681-35.661-76.587L220.305-66.95l-.245.027 12.068 26.549 35.958 77.202.851 6.912c-21.584-33.168-38.472-63.783-53.276-90.618L205.46-65.289l-.253.028 10.246 18.498c14.864 26.946 31.831 57.703 53.554 91.034l.989 6.934c-31.231-35.259-53.708-70.024-73.257-100.262l-9.233-14.225-.261.029 9.296 14.323c19.606 30.319 42.148 65.191 73.519 100.56l1.022 6.773c-42.041-33.423-69.803-71.815-94.063-105.364l-10.184-14.011-.269.03 10.263 14.118c24.304 33.614 52.124 72.089 94.3 105.569l1.179 6.715-.05-.04-.01-.009-.011-.006c-53.456-27.577-85.938-69.639-114.658-106.83l-13.278-17.028-.275.031 13.367 17.141c28.733 37.206 61.229 79.289 114.733 106.889l.253.204 1.196 6.573-.582-.314-.013-.007-.012-.004C208.17 53.812 171.655 7.759 138.943-33.494l-18.044-22.346-.28.031c6.02 7.175 12.013 14.733 18.14 22.46 32.73 41.28 69.269 87.362 134.133 105.633l.738.397 1.388 6.451-1.3-.398-.012.001-.013.002C197.589 72.58 157.529 21.845 121.292-24.055c-8.003-10.135-15.821-20.036-23.8-29.171l-.284.032c8.009 9.17 15.856 19.111 23.901 29.289 36.266 45.931 76.359 96.704 152.554 102.867l1.415.433 1.376 6.206-2.011-.203-.023.003c-87.326 8.15-130.553-48.055-169.845-99.138C94.559-26.76 84.797-39.454 74.626-50.661l-.287.032c10.206 11.234 19.997 23.967 30.051 37.035 39.322 51.128 82.588 107.385 170.033 99.23l2.089.21 1.533 5.993-2.883.231-.018.002C176.666 116.273 130.56 53.764 88.698-2.994 76.701-19.26 65.05-35.054 52.613-48.204l-.297.033C64.788-35.005 76.471-19.167 88.503-2.853c41.905 56.812 88.058 119.387 186.68 95.149l2.915-.235 1.568 5.761-3.784.912-.007.001-.007.001C166.277 140.416 117.519 70.751 73.527 7.894 59.649-11.933 46.246-31.083 31.555-45.857l-.297.033C45.988-31.046 59.425-11.85 73.337 8.031c44.041 62.926 92.852 132.664 202.608 90.929l3.79-.914 1.662 5.52-4.782 1.842-.006.001c-120.704 60.356-171.927-17.332-217.637-86.66-15.63-23.706-30.617-46.434-47.519-62.349l-.306.034C28.088-27.665 43.108-4.886 58.775 18.877c45.765 69.41 97.048 147.188 217.935 86.75l4.761-1.834 1.754 5.27-5.869 3.02-.007.001c-131.861 80.049-185.386-6.555-232.433-82.679-17.27-27.94-33.666-54.472-52.747-70.852l-.318.036C10.974-25.063 27.407 1.522 44.716 29.528c47.104 76.217 100.697 162.925 232.749 82.766l5.839-3.006 1.783 5.052-6.996 4.421C166.734 197.093 108.323 156.068 65.26 94.815c-12.28-17.468-23.314-36.579-33.97-55.04C12.448 7.139-5.218-23.458-26.527-39.357l-.337.038c21.36 15.831 39.065 46.495 57.953 79.208 10.66 18.465 21.697 37.583 33.983 55.06 43.134 61.354 101.635 102.453 213.15 24.008l6.949-4.392c.63 1.652 1.288 3.188 1.939 4.755l-8.277 6.113c-108.131 85.495-168.819 58.564-212.198 3.67-18.585-23.52-33.999-52.175-48.602-79.323-20.178-37.515-38.811-72.157-62.153-86.446-.344-.211-.69-.409-1.036-.611l-.393.044 1.302.767c23.288 14.255 41.907 48.869 62.07 86.355 14.608 27.158 30.025 55.822 48.624 79.358 43.455 54.994 104.245 81.981 212.522-3.63l8.23-6.075 1.941 4.563-9.57 7.998c-108.131 94.07-171.071 76.271-215.358 25.334-23.677-27.231-42.034-63.936-59.114-98.085-17.802-35.595-34.218-68.417-53.842-84.871l.037.335C-29.206-8.711-12.848 23.996 4.888 59.46c17.084 34.162 35.451 70.879 59.145 98.135 44.372 51.033 107.417 68.886 215.688-25.312l9.52-7.96c.682 1.486 1.38 2.898 2.083 4.299l-11.015 10.155c-109.644 103.336-174.928 92.547-220.372 44.297-28.163-29.901-48.72-74.19-67.49-114.629C-20.714 40.086-33 13.631-46.415-4.672l.053.47c13.308 18.265 25.519 44.57 38.597 72.746 18.778 40.456 39.344 84.763 67.533 114.692 45.533 48.344 110.921 59.173 220.703-44.291l10.961-10.107c28.046 55.773 72.311 41.523 113.778 6.937 2.251-1.691 4.491-3.438 6.722-5.24a229.28 229.28 0 0 0 6.13-4.611 229.81 229.81 0 0 0 6.64-4.758 208.14 208.14 0 0 0 6.198-4.231c2.211-1.366 4.399-2.767 6.566-4.203 2.109-1.208 4.193-2.447 6.252-3.718 2.193-1.139 4.352-2.31 6.48-3.513a227.41 227.41 0 0 0 6.401-3.082 224.96 224.96 0 0 0 6.238-2.592l2.84-.936-.026-.238-.555.183.546-.244-.036-.317-1.899.412 1.832-1.011-.027-.246-2.641 1.447-2.372.489 2.709-1.733 2.298-.25-.026-.231-1.835.198 1.73-1.131-.029-.263-2.225 1.45-2.535.257 2.981-2.203 1.724-.008-.026-.233-1.386.001 1.279-.96-.031-.272-1.642 1.237c-.855-.005-1.72 0-2.591-.002l3.14-2.625.948.094-.026-.237-.677-.068.611-.52-.032-.284-.906.771-2.61-.252 3.238-3.013-.034-.297-.033.032-2.62-.484 2.336-2.387-.035-.309-2.585 2.644-2.623-.462 3.358-3.658 1.736.452-.027-.241-1.532-.399 1.323-1.466-.035-.319-1.553 1.714-2.63-.656 3.421-4.001.449.143-.029-.255-.256-.082.218-.256-.036-.327-.43.507-2.642-.818 2.667-3.312-.038-.336-2.881 3.578c-26.394-7.722-61.873-9.742-107.964 3.305l2.636-1.677c47.012-17.116 82.275-15.352 108.096-6.218l-.029-.264c-25.655-9.057-60.593-10.844-107.063 5.862l2.351-1.452c45.328-19.869 79.148-19.558 104.03-10.538l-.031-.279c-24.629-8.901-57.977-9.288-102.532 9.907l1.404-.867c43.731-22.367 76.31-23.848 100.403-15.497l-.033-.297c-23.374-8.08-54.699-6.935-96.418 13.515 41.47-23.872 72.517-27.226 95.682-20.098l-.035-.314z" fill="url(#A)"/><g fill="#fff"><rect x="21" y="24" width="4" height="4" rx="2"/><rect x="116" y="2" width="4" height="4" rx="2"/><rect x="19" y="88" width="2" height="2" rx="1"/><rect x="74" y="42" width="2" height="2" rx="1"/><rect x="186" y="20" width="2" height="2" rx="1"/></g><defs><linearGradient id="A" x1="77.52" y1="108.969" x2="279.701" y2="60.193" gradientUnits="userSpaceOnUse"><stop stop-color="#fff" stop-opacity=".38"/><stop offset="1" stop-color="#fff" stop-opacity="0"/></linearGradient></defs></svg>