<svg viewBox="0 0 1024 1024.0008" xmlns="http://www.w3.org/2000/svg"><path fill="#9ca2a7" d="M261.787 583.92l39.793-159.626c1.024-4.192 3.405-7.93 6.81-10.598 3.382-2.667 7.574-4.12 11.884-4.12 4.31 0 8.5 1.453 11.883 4.12 3.405 2.667 5.787 6.406 6.81 10.598l68.394 275.622 25.244-101.328c1.024-4.168 3.406-7.882 6.787-10.55 3.383-2.643 7.55-4.096 11.837-4.12h108.187l39.316-159.624c.977-4.192 3.358-7.93 6.74-10.598 3.38-2.667 7.573-4.096 11.883-4.072 4.31 0 8.478 1.453 11.86 4.12 3.38 2.667 5.762 6.382 6.786 10.55l68.393 275.622 25.124-100.852c.976-4.19 3.357-7.93 6.74-10.597 3.38-2.667 7.572-4.096 11.882-4.072h225.398c23.41-45.032 35.793-95.018 36.055-145.79 0-130.428-88.112-295.72-258.072-295.72-48.627-.24-96.446 12.478-138.525 36.84-42.08 24.36-76.92 59.487-100.924 101.756-24.05-42.27-58.914-77.394-101.017-101.756-42.103-24.36-89.922-37.078-138.574-36.84-169.96 0-258.073 165.293-258.073 295.722.643 50.676 13.336 100.495 37.03 145.313h210.35zM684.08 340.134c0-6.144 2.43-12.074 6.787-16.432 4.334-4.38 10.24-6.834 16.407-6.882h54.582v-54.557c0-6.19 2.453-12.12 6.835-16.503 4.36-4.38 10.288-6.834 16.48-6.834h32.1c6.17 0 12.122 2.453 16.48 6.834 4.382 4.382 6.835 10.312 6.835 16.503v53.844h54.582c6.167 0 12.097 2.453 16.48 6.834 4.38 4.36 6.833 10.29 6.833 16.48v32.34c0 6.192-2.452 12.12-6.834 16.48-4.382 4.38-10.312 6.834-16.48 6.834H841.3v54.58c-.024 6.17-2.5 12.075-6.86 16.41-4.38 4.357-10.287 6.786-16.455 6.786h-32.34c-6.167 0-12.072-2.43-16.454-6.787-4.357-4.334-6.834-10.24-6.858-16.408v-54.58h-54.58c-6.17-.025-12.05-2.502-16.41-6.86-4.333-4.38-6.786-10.287-6.786-16.455l-.476-31.625zm79.086 282.243l-40.15 161.316c-1.025 4.167-3.406 7.858-6.787 10.502-3.383 2.643-7.55 4.072-11.837 4.048-4.287 0-8.454-1.43-11.812-4.072-3.38-2.643-5.786-6.31-6.833-10.478l-68.394-275.266-24.767 99.78c-1.024 4.144-3.43 7.836-6.81 10.48-3.382 2.618-7.526 4.047-11.812 4.07H465.777l-40.03 161.293c-1.05 4.145-3.454 7.812-6.836 10.432-3.38 2.62-7.524 4.048-11.787 4.048-4.286 0-8.43-1.43-11.788-4.048-3.38-2.62-5.786-6.287-6.858-10.43l-68.275-275.624-24.766 99.78c-1 4.168-3.405 7.86-6.787 10.48-3.383 2.642-7.55 4.07-11.837 4.07H73.92c79.323 125.477 230.78 245.094 405.336 373.832 9.62 7.073 21.266 10.883 33.22 10.883 11.955 0 23.6-3.81 33.245-10.882C720.254 867.852 871.71 748.236 951.06 622.76l-187.892-.382z"/></svg>