<svg width="48" height="48" viewBox="0 0 48 48" fill="none" xmlns="http://www.w3.org/2000/svg">
<path d="M15.7379 6.59822C15.7379 6.59822 15.0545 1.46211 23.1245 1.11694C23.533 1.09884 23.9415 1.14926 24.3334 1.26302C25.6275 1.63792 28.9562 2.35152 29.5925 0C29.5925 0 30.8917 1.17253 29.5925 2.49243C29.5925 2.49243 34.4991 4.69141 35.7983 9.23674C35.7983 9.23674 36.8812 11.2159 38.6855 10.1895C38.6855 10.1895 38.3242 12.6819 36.0146 12.1687C36.0146 12.1687 36.6649 16.2021 38.6855 15.835C38.6855 15.835 38.5405 17.4212 35.9434 15.8582L32.2621 23.8992H16.098C16.098 23.8992 12.1839 17.4173 12.0566 14.1492C12.0006 12.6832 11.769 7.11015 15.7379 6.59822Z" fill="#7C7C7C"/>
<path d="M30.4768 41.3475H18.083V27.6572H30.4768V41.3475Z" fill="url(#paint0_linear_4_5)"/>
<path d="M34.8567 40.1338V48.0002H15.0928V40.1338H34.8567Z" fill="url(#paint1_linear_4_5)"/>
<path d="M24.1807 9.67634C24.1807 9.67634 26.2014 13.8558 31.9021 14.2954C31.9021 14.2954 33.7064 20.8936 32.6961 23.8992C32.6961 23.8992 33.5079 16.7154 35.0222 17.1278C36.5377 17.5402 37.6205 22.6802 32.6961 24.2198C32.6961 24.2198 32.2355 29.6908 26.1734 32.275C26.1734 32.275 24.6045 33.3195 22.1957 32.275C19.7882 31.2304 16.7572 29.2784 15.9453 24.0272C15.9453 24.0272 10.2345 23.0926 12.8876 17.2092C12.8876 17.2092 14.3204 16.0651 15.9402 23.4545L16.0026 24.0091C16.0026 24.0091 14.9541 15.9423 17.0397 11.6517C17.6301 10.4378 18.8135 9.63756 20.1432 9.5406C21.5709 9.43589 23.5738 9.35703 24.1807 9.67634Z" fill="#F4F3F2"/>
<path d="M21.0046 38.5435C21.0046 38.5435 23.192 40.3779 27.7704 38.5435C27.7704 38.5435 26.6659 43.6809 25.3132 44.0118C23.9593 44.3415 22.9541 43.9317 22.9541 43.9317C22.9541 43.9317 20.3022 41.403 21.0046 38.5435Z" fill="#7C7C7C"/>
<path d="M26.6885 48.0002H21.7896L22.3507 43.2467L22.4118 42.7231H25.9302C25.9302 42.7529 25.9632 43.0024 26.0218 43.4135C26.1528 44.3481 26.4099 46.1115 26.6885 48.0002Z" fill="#7C7C7C"/>
<path d="M30.4767 33.6504C30.4767 33.6504 30.4219 36.6186 26.2012 38.7632L29.1775 44.812L32.9656 37.7187L30.4767 33.6504Z" fill="#F4F3F2"/>
<path d="M22.4119 38.7632L19.3275 44.812L15.3765 36.8396L18.083 33.8701C18.083 33.8701 19.3275 37.4433 22.4119 38.7632Z" fill="#F4F3F2"/>
<path d="M47.9998 43.5543V48.0001H29.6826C30.0669 46.3803 30.6128 43.8891 30.9793 41.4381C31.0442 40.9998 31.104 40.5642 31.1561 40.1337C31.2986 38.9573 31.3826 37.8287 31.3686 36.854C31.3623 36.3886 31.333 35.9594 31.2783 35.5754C31.235 35.2729 31.1752 35.0002 31.0963 34.761C31.0666 34.6696 31.034 34.5839 30.9983 34.5037C30.9983 34.5037 30.9983 34.5033 30.9983 34.5024C31.0009 34.505 31.0187 34.5167 31.0505 34.5386C31.1994 34.6408 31.646 34.9562 32.2021 35.4035C33.0419 36.0783 34.1312 37.0543 34.8247 38.0523C34.8387 38.0704 34.8501 38.0885 34.8628 38.1066C34.9392 38.2204 35.0104 38.3329 35.0753 38.4466C35.0796 38.4535 35.0838 38.46 35.0881 38.466C35.0914 38.4738 35.0953 38.4811 35.0995 38.488C35.1097 38.5074 35.1211 38.5255 35.1313 38.5436L35.1835 38.5656L43.1211 40.6159C45.0298 41.1084 46.7095 42.1452 47.9998 43.5543Z" fill="#7C7C7C"/>
<path d="M18.9763 48H0V44.3984C1.35009 42.5782 3.28805 41.2338 5.54541 40.6507L13.4742 38.6043L13.4831 38.6017L13.5365 38.5797C13.5454 38.5616 13.5569 38.5422 13.567 38.5241C13.6383 38.3974 13.7185 38.2695 13.805 38.1428C13.8164 38.1247 13.8292 38.1066 13.8419 38.0885C14.5354 37.0892 15.6246 36.1144 16.4645 35.4396C16.7024 35.2483 16.92 35.0815 17.102 34.9458C17.345 34.7648 17.5257 34.6368 17.6122 34.5774C17.6139 34.5765 17.6152 34.5756 17.616 34.5748C17.6478 34.5528 17.6657 34.5399 17.6682 34.5386C17.6326 34.6196 17.5999 34.7058 17.5702 34.7971C17.566 34.8092 17.5622 34.8213 17.5588 34.8333C17.4913 35.0479 17.4379 35.2897 17.3972 35.5547C17.3938 35.5736 17.3908 35.5926 17.3883 35.6116C17.3335 35.9942 17.3043 36.4247 17.2979 36.8901C17.2971 36.9409 17.2966 36.9922 17.2966 37.0439C17.2966 37.0741 17.2966 37.1038 17.2966 37.1331C17.2992 38.0406 17.3781 39.0671 17.5066 40.1336C17.5613 40.5887 17.6237 41.0515 17.6937 41.5156C18.0576 43.9356 18.5946 46.388 18.9763 48Z" fill="#7C7C7C"/>
<path d="M34.8565 47.5605L35.34 48H29.6826C30.0669 46.3802 30.6128 43.8891 30.9793 41.438C31.0442 40.9998 31.104 40.5641 31.1561 40.1336C31.2986 38.9572 31.3826 37.8286 31.3686 36.8539C31.4857 36.6484 31.4004 36.1364 31.2783 35.5754C31.2198 35.3052 31.1523 35.0246 31.0963 34.7609C31.0853 34.7109 31.0751 34.6618 31.0658 34.6136C31.0607 34.5886 31.0556 34.5636 31.0505 34.5386C31.1994 34.6407 31.646 34.9561 32.2021 35.4034C33.0419 36.0782 34.1312 37.0543 34.8247 38.0523C34.8387 38.0704 34.8501 38.0885 34.8628 38.1066C34.9443 38.2294 35.0155 38.3432 35.0753 38.4466C35.0796 38.4535 35.0838 38.4599 35.0881 38.466C35.0914 38.4737 35.0953 38.481 35.0995 38.4879C35.1097 38.5073 35.1211 38.5254 35.1313 38.5435L35.1835 38.5655C35.9711 40.25 36.6926 41.9448 36.8084 42.723C36.8084 42.723 36.003 43.5038 34.8565 44.1179C33.9772 44.5897 32.8994 44.9621 31.8293 44.8121L34.8565 47.5605Z" fill="#A5A8A8"/>
<path d="M17.6973 41.5233C18.0625 43.9433 18.5994 46.3944 18.9799 48H13.3454L15.0925 46.4138L16.8371 44.8302C16.2466 44.9129 15.6537 44.8366 15.0925 44.6725C13.3123 44.1502 11.8579 42.7411 11.8579 42.7411C11.9737 41.9667 12.6901 40.281 13.4739 38.6043C13.4765 38.5974 13.4795 38.5905 13.4828 38.5836L13.5363 38.5616C13.5452 38.5435 13.5567 38.5254 13.5668 38.506C13.6317 38.3922 13.7119 38.2643 13.8048 38.1246C13.8162 38.1065 13.829 38.0884 13.8417 38.0703C14.5352 37.071 15.6244 36.0963 16.4642 35.4215C16.7238 35.2134 16.9605 35.0324 17.1526 34.8889C17.3728 34.726 17.5369 34.6109 17.6158 34.5566C17.615 34.5635 17.6137 34.5704 17.612 34.5773C17.5993 34.6428 17.5853 34.71 17.57 34.779C17.5666 34.7971 17.5628 34.8152 17.5586 34.8333C17.5077 35.0686 17.4491 35.3155 17.397 35.5546C17.3936 35.5676 17.3906 35.5805 17.3881 35.5934C17.2672 36.1545 17.1806 36.6664 17.2977 36.872C17.2969 36.9288 17.2964 36.9862 17.2964 37.0439C17.2964 37.0741 17.2964 37.1038 17.2964 37.1331C17.3003 38.0406 17.3804 39.0671 17.5089 40.1336C17.5637 40.5912 17.6273 41.0566 17.6973 41.5233Z" fill="#A5A8A8"/>
<defs>
<linearGradient id="paint0_linear_4_5" x1="16.9265" y1="36.8702" x2="16.8497" y2="24.279" gradientUnits="userSpaceOnUse">
<stop stop-color="#F4F3F2"/>
<stop offset="1" stop-color="#7C7C7C"/>
</linearGradient>
<linearGradient id="paint1_linear_4_5" x1="23.4613" y1="50.3506" x2="23.4359" y2="34.0459" gradientUnits="userSpaceOnUse">
<stop stop-color="#F4F3F2"/>
<stop offset="1" stop-color="#7C7C7C"/>
</linearGradient>
</defs>
</svg>
