<svg viewBox="0 0 1024 1024" xmlns="http://www.w3.org/2000/svg"><path d="M682.667 544H341.333c-17.493 0-32-14.507-32-32 0-17.493 14.507-32 32-32h341.334c17.493 0 32 14.507 32 32 0 17.493-14.507 32-32 32zM512 714.667c-17.493 0-32-14.507-32-32V341.333c0-17.493 14.507-32 32-32 17.493 0 32 14.507 32 32v341.334c0 17.493-14.507 32-32 32zm128 256H384C152.32 970.667 53.333 871.68 53.333 640V384C53.333 152.32 152.32 53.333 384 53.333h256c231.68 0 330.667 98.987 330.667 330.667v256c0 231.68-98.987 330.667-330.667 330.667zM384 117.333c-196.693 0-266.667 69.974-266.667 266.667v256c0 196.693 69.974 266.667 266.667 266.667h256c196.693 0 266.667-69.974 266.667-266.667V384c0-196.693-69.974-266.667-266.667-266.667H384z"/></svg>