<svg viewBox="0 0 1024 1024" xmlns="http://www.w3.org/2000/svg"><path d="M328.064 398.848c15.232-5.93 35.03 1.365 40.917 17.75 4.652 11.35-1.535 24.79-11.39 30.72-13.185 8.362-32.47 6.826-42.923-5.59-5.334-5.632-7.68-13.995-6.144-21.717 2.133-10.11 10.368-17.877 19.54-21.162zm98.048 16.94c20.096-11.265 43.05-16.257 65.835-16 57.258.212 114.602-.343 171.86.127-13.482 17.066-27.306 33.834-40.618 50.986-3.627 3.8-6.443 10.327-12.374 9.857-36.693.256-73.344 0-109.995.086-12.415-.128-26.068-.81-36.692 7.082-10.54 7.98-18.22 19.2-27.05 29.056-28.93 33.836-57.473 67.97-86.53 101.676-7.423 8.875-15.23 17.408-22.356 26.58-28.46-.383-56.917.087-85.376-.255 4.053-6.185 8.79-11.817 13.525-17.407 43.48-51.84 86.444-104.234 129.665-156.33 11.307-13.995 24.107-27.307 40.107-35.456zm270.55-15.36c28.543-1.452 57.215-.343 85.76-.64-49.92 60.287-99.84 120.532-149.675 180.905-20.736 24.79-50.987 39.894-82.262 43.136-7.68.853-15.36 1.45-23.082 1.28-55.595-.214-111.147.213-166.742-.086 15.404-19.413 30.935-38.7 46.423-58.027 2.26-3.626 6.784-2.645 10.325-2.9 33.707.426 67.413-.044 101.12.127 12.46 0 25.685 1.195 37.29-4.608 12.246-6.357 19.798-18.688 29.057-28.672 26.07-31.19 52.906-61.696 78.89-93.013 11.008-12.458 21.462-25.514 32.896-37.503zm112.853 1.193c3.242-2.857 7.936-2.004 11.904-2.43 24.83-.17 49.705.853 74.58-.257v.94c-15.53 18.132-30.08 37.12-45.056 55.722-24.576 30.933-49.152 61.91-73.9 92.714-3.497 5.46-10.24 4.223-15.657 4.394-24.704-.34-49.45.3-74.198-.3 12.202-16.04 25.002-31.615 37.845-47.145 23.51-28.972 46.848-58.07 70.528-86.913 4.65-5.59 8.746-11.69 13.952-16.726zM160.853 583.766c30.123-37.034 60.288-74.07 90.155-111.402 28.032.042 56.064.042 84.096.128-6.016 8.833-13.056 16.897-19.627 25.26-33.152 41.685-66.39 83.327-99.67 124.885-1.962 3.285-5.887 2.474-9.002 2.602-26.282-.384-52.565.214-78.805-.34 10.155-14.337 22.016-27.308 32.853-41.132zM503.38 487.38c16.94-6.612 40.407 4.097 41.9 24.28 1.195 17.45-16.34 30.76-32.085 29.225-13.995.3-28.587-10.453-29.952-25.557-1.152-12.97 8.618-24.448 20.138-27.947zm187.564 84.993c15.872-3.968 35.925 6.016 38.1 23.98 2.092 17.834-15.53 31.786-31.487 30.804-13.696.17-28.117-9.514-30.55-24.064-2.56-15.018 10.412-28.373 23.937-30.72z"/></svg>