<svg viewBox="0 0 1024 1024" xmlns="http://www.w3.org/2000/svg"><path d="M682.667 970.667H341.333C185.6 970.667 96 881.067 96 725.333V298.667c0-155.734 89.6-245.334 245.333-245.334h341.334C838.4 53.333 928 142.933 928 298.667v426.666c0 155.734-89.6 245.334-245.333 245.334zM341.333 117.333C219.307 117.333 160 176.64 160 298.667v426.666c0 122.027 59.307 181.334 181.333 181.334h341.334C804.693 906.667 864 847.36 864 725.333V298.667c0-122.027-59.307-181.334-181.333-181.334H341.333zM384 474.027c-7.253 0-14.507-1.28-21.333-4.267-19.627-8.533-32-27.733-32-48.64V85.333c0-17.493 14.506-32 32-32h298.666c17.494 0 32 14.507 32 32v335.36c0 21.334-12.373 40.534-32 48.64-19.2 8.534-41.813 4.694-57.6-9.813L512 375.467l-91.733 84.48c-10.24 9.386-23.04 14.08-36.267 14.08zm128-166.4c12.8 0 26.027 4.693 36.267 14.08l81.066 74.666v-279.04H394.667v279.04l81.066-74.666c10.24-9.387 23.467-14.08 36.267-14.08zm234.667 321.706H565.333c-17.493 0-32-14.506-32-32 0-17.493 14.507-32 32-32h181.334c17.493 0 32 14.507 32 32 0 17.494-14.507 32-32 32zm0 170.667H384c-17.493 0-32-14.507-32-32 0-17.493 14.507-32 32-32h362.667c17.493 0 32 14.507 32 32 0 17.493-14.507 32-32 32z"/></svg>