<svg viewBox="0 0 1024 1024" xmlns="http://www.w3.org/2000/svg"><path d="M637.013 106.667V358.4c0 18.773-22.186 28.16-35.84 15.787l-74.666-68.694c-8.107-7.68-20.907-7.68-29.014 0l-74.666 68.267c-13.654 12.8-35.84 2.987-35.84-15.36V106.667c0-11.947 9.386-21.334 21.333-21.334h207.36c11.947 0 21.333 9.387 21.333 21.334zm87.467-18.774c-12.373-1.706-23.467 8.96-23.467 21.334V366.08c0 32.427-19.2 61.867-49.066 75.093-29.867 12.8-64.427 7.254-88.32-14.933l-37.12-34.133c-8.107-7.68-20.48-7.68-29.014 0l-37.12 34.133C445.013 440.747 424.96 448 404.907 448c-11.094 0-22.187-2.133-32.854-6.827-29.866-13.226-49.066-42.666-49.066-75.093V109.227c0-12.374-11.094-23.04-23.467-21.334C180.053 102.827 128 183.467 128 298.667v426.666c0 128 64 213.334 213.333 213.334h341.334C832 938.667 896 853.333 896 725.333V298.667c0-115.2-52.053-195.84-171.52-210.774zM746.667 800H384c-17.493 0-32-14.507-32-32 0-17.493 14.507-32 32-32h362.667c17.493 0 32 14.507 32 32 0 17.493-14.507 32-32 32zm0-170.667H565.333c-17.493 0-32-14.506-32-32 0-17.493 14.507-32 32-32h181.334c17.493 0 32 14.507 32 32 0 17.494-14.507 32-32 32z"/></svg>