<svg viewBox="0 0 1024 1024" xmlns="http://www.w3.org/2000/svg"><path d="M213.93 738.944c3.243-1.75 5.462-.427 7.638.896.384.256.768.47 1.195.725 14.72 8.192 29.14 17.024 44.202 24.576 28.075 14.04 57.728 23.383 88.62 29.228 25.13 4.736 50.474 6.656 75.903 5.29 16.768-.938 33.493-3.54 50.09-6.27 22.998-3.756 44.93-11.436 65.835-21.42 26.326-12.5 50.432-28.416 72.064-48.043 20.736-18.773 38.272-40.064 52.01-64.384 17.964-31.913 30.166-65.92 34.006-102.484 1.622-15.488 2.347-31.232 1.494-46.805-2.09-37.973-11.05-74.538-26.54-109.397-.084-.17-.127-.298-.212-.426-1.28-2.902-2.518-5.675-1.067-8.918 3.072-1.323 4.65.554 6.144 2.303.256.342.512.64.768.896 4.736 5.247 9.387 10.538 13.78 16.042 21.08 26.368 37.975 55.253 50.945 86.4 13.483 32.3 22.016 65.792 24.747 100.82 2.645 34.263-.47 67.84-10.795 100.695-10.026 31.914-25.3 60.928-47.06 86.357-29.27 34.22-64.982 59.18-107.52 74.283-29.484 10.41-59.777 15.573-90.966 17.194-22.997 1.24-45.866.257-68.607-2.388-30.464-3.54-59.734-11.86-88.022-23.723-42.28-17.707-80.255-42.113-114.004-73.046-9.856-9.003-19.328-18.475-28.672-27.99l-.98-.98c-2.52-2.433-5.164-5.035-4.993-9.43zm403.33-71.083c.64-.297 1.32-.596 1.96-.895 2.732-1.237 5.505-2.517 8.663-.64.853 3.2-1.152 4.694-3.072 6.187-.255.17-.51.384-.767.555-17.963 14.293-36.992 27.093-57.216 38.016-30.25 16.298-61.824 29.226-95.232 37.76-32.555 8.32-65.536 11.86-98.944 9.984-48.98-2.688-94.59-17.152-135.253-44.843-45.61-31.104-77.14-73.26-94.72-125.61-6.613-19.84-11.136-40.193-12.586-61.142-.767-10.795-.725-21.632-1.62-32.384-.3-3.285-.427-6.57-.47-9.856v-4.95c.085-5.845.427-11.647.81-17.45 2.134-29.78 8.875-58.58 19.414-86.528 15.573-41.3 38.7-77.91 66.987-111.53 12.673-15.062 26.41-29.142 41.003-42.283 2.006-1.834 4.267-3.498 6.656-4.863.853-.47 2.687-.17 3.413.47.682.64.896 2.43.512 3.37-1.067 2.517-2.432 4.992-3.926 7.296-26.795 40.96-45.313 85.333-53.462 133.717-3.54 21.163-4.864 42.496-3.67 64 1.45 26.283 5.42 52.053 14.422 76.843 12.544 34.39 30.976 65.45 54.357 93.61 20.14 24.235 43.222 45.014 70.87 60.502 23.21 12.97 48.085 21.888 73.984 27.86 15.19 3.5 30.593 5.89 46.25 6.23 3.116.043 6.188.256 9.26.47 3.712.256 7.38.512 11.093.512 45.184-.214 89.003-8.278 131.286-24.406zm149.247 117.932h.042c-.17.17-.342.34-.555.555-2.475 2.432-5.334 5.248-10.283 2.048 1.62-2.987 2.944-5.888 4.65-8.534 17.11-26.324 31.275-54.057 41.302-83.796 6.187-18.347 10.624-37.12 13.653-56.32 3.5-22.06 3.712-44.203 2.39-66.347-2.347-38.698-13.056-75.093-31.915-109.098-15.06-27.308-33.11-52.268-55.125-74.37-25.174-25.258-54.443-43.733-87.766-56.234-33.45-12.5-67.84-18.517-103.55-18.603-45.398-.042-89.174 7.85-131.585 23.85-.554.214-1.11.47-1.664.684-3.284 1.408-6.783 2.858-11.433.256 2.133-2.304 3.626-4.523 5.674-6.102 53.72-42.025 113.88-70.015 181.292-81.577 13.312-2.304 26.965-2.73 40.49-3.712 33.323-2.474 65.75 2.39 97.41 12.46 38.015 12.074 71.593 31.573 100.265 59.69 27.18 26.667 47.147 57.685 59.734 93.397 9.217 26.283 14.635 53.376 15.53 81.323.215 7.765.812 15.573.897 23.38.512 46.08-9.472 89.9-28.373 131.84-17.195 38.23-40.49 72.492-68.992 103.17-10.283 11.05-21.205 21.546-32.085 32.042zm42.538-520.405l-.042.042-1.792 2.047c-2.602-1.066-5.418-1.75-7.85-3.157-10.965-6.144-21.632-12.885-32.768-18.73-42.88-22.614-88.448-36.054-136.96-39.467-37.29-2.688-73.984.682-109.995 10.624-43.477 11.99-81.75 33.578-115.456 63.488-34.985 30.976-59.177 68.992-74.623 112.896-7.338 20.78-11.904 42.07-13.824 64-4.394 49.75 4.14 97.238 23.723 143.02 1.323 2.986 2.39 6.1 3.413 9.173.17.426.042.938-.086 1.536-.043.255-.085.51-.128.81-3.243 1.92-5.205-.257-6.997-2.305-5.932-6.826-12.076-13.525-17.623-20.693-27.733-35.883-47.445-75.776-59.562-119.51-8.534-30.847-11.776-62.293-10.112-94.165 2.56-50.346 18.602-96.426 48.128-137.045 36.31-49.963 84.61-83.584 144.598-99.584 21.205-5.675 42.88-8.32 64.81-9.856 13.57-.98 26.966-.3 40.363.427 1.88.084 3.756.212 5.59.297 38.57 1.963 75.478 11.478 110.977 26.71 39.722 16.98 75.733 39.85 107.776 68.864 11.946 10.838 23.168 22.443 34.56 33.835 1.75 1.75 2.602 4.438 3.882 6.742zM394.58 481.237c3.927-.554 6.53-1.152 9.175-1.237 3.2-.128 6.4-.085 9.6-.043 1.578 0 3.2.043 4.778.043 68.096-.3 136.235-.64 204.33-.896.812 0 1.708-.085 2.56-.128 3.286-.256 6.742-.555 8.577 2.816 1.963 3.54-.128 6.443-2.176 9.26-.512.724-1.067 1.45-1.493 2.175-32.383 53.12-64.81 106.325-97.237 159.445-1.706 2.773-3.754 5.333-5.888 7.85-1.962 2.39-4.224 2.475-6.442.214-1.536-1.62-3.158-3.285-4.48-5.12-39.254-55.85-78.464-111.744-117.675-167.68-1.195-1.707-2.048-3.712-3.627-6.7zm164.695-22.912c-13.056 11.69-28.672 17.494-46.25 17.536-29.74-.04-56.534-18.815-64.854-45.524-10.538-33.75 7.723-67.157 40.918-79.488 31.02-11.52 65.877.896 82.86 29.14 14.59 24.32 10.88 57.26-12.673 78.337z"/></svg>