<svg viewBox="0 0 1024 1024" xmlns="http://www.w3.org/2000/svg"><path d="M770.987 440.32c-8.107 0-16.214-2.987-22.614-9.387L512 194.56 275.627 430.933c-12.374 12.374-32.854 12.374-45.227 0-12.373-12.373-12.373-32.853 0-45.226L489.387 126.72c12.373-12.373 32.853-12.373 45.226 0L793.6 385.707c12.373 12.373 12.373 32.853 0 45.226-5.973 6.4-14.507 9.387-22.613 9.387zM512 906.667c-17.493 0-32-14.507-32-32v-718.08c0-17.494 14.507-32 32-32 17.493 0 32 14.506 32 32v718.08c0 17.493-14.507 32-32 32z"/></svg>