<svg viewBox="0 0 1024 1024" xmlns="http://www.w3.org/2000/svg"><path d="M617.713 387.584c6.144 6.174 9.246 15.21 7.44 24.395-2.892 14.697-17.078 24.304-31.775 21.413-50.507-9.88-102.49-14.667-135.32-13.673l176.49 176.49c10.572 10.6 10.572 27.767 0 38.34-10.57 10.57-27.768 10.57-38.34 0L419.93 458.27c-1.114 33.01 3.705 84.72 13.553 134.957 2.892 14.668-6.686 28.913-21.383 31.805-14.668 2.92-28.943-6.657-31.805-21.354-10.33-52.525-30.328-178.84 7.108-216.275 37.436-37.436 163.81-17.498 216.335-7.228 5.512 1.084 10.27 3.735 13.975 7.41zM767.006 255.88c188.326 188.506 188.235 322.228-.33 510.795-188.688 188.687-322.44 188.687-511.128 0-188.536-188.567-188.657-322.26-.36-510.735l.752-.753c188.356-188.205 322.018-188.175 510.403.03l.332.33zm-473.118 38.008c-166.46 166.46-166.46 267.987 0 434.447 166.46 166.46 267.987 166.46 434.447 0 166.46-166.46 166.46-267.987 0-434.447-166.46-166.46-267.987-166.46-434.447 0z"/></svg>