<svg viewBox="0 0 1024 1024" xmlns="http://www.w3.org/2000/svg"><path d="M640 970.667H384C152.32 970.667 53.333 871.68 53.333 640V384C53.333 152.32 152.32 53.333 384 53.333h256c231.68 0 330.667 98.987 330.667 330.667v256c0 231.68-98.987 330.667-330.667 330.667zM384 117.333c-196.693 0-266.667 69.974-266.667 266.667v256c0 196.693 69.974 266.667 266.667 266.667h256c196.693 0 266.667-69.974 266.667-266.667V384c0-196.693-69.974-266.667-266.667-266.667H384zm74.24 577.28c-8.107 0-16.213-2.986-22.613-9.386-12.374-12.374-12.374-32.854 0-45.227l128-128-128-128c-12.374-12.373-12.374-32.853 0-45.227 12.373-12.373 32.853-12.373 45.226 0l150.614 150.614c12.373 12.373 12.373 32.853 0 45.226L480.853 685.227c-6.4 6.4-14.506 9.386-22.613 9.386z"/></svg>