<svg viewBox="0 0 1024 1024" xmlns="http://www.w3.org/2000/svg"><path d="M617.713 634.64c-3.704 3.673-8.463 6.324-13.975 7.408-52.525 10.27-178.9 30.208-216.335-7.228-37.436-37.437-17.438-163.75-7.108-216.275 2.862-14.697 17.137-24.275 31.805-21.353 14.697 2.89 24.275 17.137 21.383 31.834-9.848 50.206-14.667 101.918-13.553 134.927l176.28-176.28c10.57-10.57 27.767-10.57 38.34 0 10.57 10.573 10.57 27.74 0 38.34l-176.49 176.49c32.827.994 84.81-3.794 135.318-13.673 14.697-2.89 28.883 6.716 31.774 21.414 1.807 9.186-1.295 18.22-7.44 24.395zM255.548 766.674C67.102 578.23 66.89 444.567 254.856 256.24l1.385-1.385c188.086-187.753 321.657-187.753 509.742 0l.693.693.692.693c187.965 188.327 187.754 321.99-.692 510.435-188.687 188.687-322.44 188.687-511.127 0zm38.34-38.34c166.46 166.46 267.987 166.46 434.447 0 166.46-166.46 166.46-267.987 0-434.447-166.46-166.46-267.987-166.46-434.447 0-166.46 166.46-166.46 267.987 0 434.447z"/></svg>