<svg viewBox="0 0 1024 1024" xmlns="http://www.w3.org/2000/svg"><path d="M575.1 343.781l-231.32.002.002 231.318q0 8.827-6.25 15.042-6.215 6.25-15.043 6.25-8.793 0-15.043-6.25-6.214-6.215-6.214-15.042V322.49q0-8.793 6.214-15.043 6.25-6.214 15.042-6.214H575.1q8.792 0 15.042 6.214 6.214 6.25 6.214 15.042 0 8.827-6.214 15.077-6.25 6.214-15.042 6.214zm86.05 347.49L310.98 341.1q-6.214-6.25-6.214-15.078 0-8.792 6.214-15.042 6.25-6.214 15.042-6.214 8.828 0 15.078 6.214L691.27 661.15q6.215 6.25 6.215 15.078 0 8.793-6.214 15.043-6.25 6.215-15.042 6.215-8.827 0-15.077-6.214z"/></svg>