<svg viewBox="0 0 1024 1024" xmlns="http://www.w3.org/2000/svg"><path d="M404.54 387.584c3.675-3.674 8.433-6.325 13.945-7.41 52.525-10.27 178.9-30.207 216.335 7.23 37.436 37.435 17.438 163.75 7.138 216.274-2.892 14.697-17.167 24.275-31.835 21.354-14.697-2.892-24.275-17.137-21.383-31.805 9.848-50.236 14.667-101.948 13.553-134.957l-176.28 176.28c-10.57 10.57-27.737 10.57-38.34 0-10.57-10.573-10.57-27.74 0-38.34l176.49-176.49c-32.827-.994-84.81 3.794-135.318 13.673-14.667 2.89-28.883-6.716-31.774-21.414-1.806-9.187 1.296-18.222 7.47-24.396zm362.135 379.09c-188.687 188.688-322.44 188.688-511.127 0C67.102 578.2 66.89 444.538 254.916 256.212l1.295-1.294c188.116-187.814 321.687-187.814 509.832 0l.633.632.632.663c188.025 188.327 187.814 321.99-.632 510.465zm-38.34-472.786c-166.46-166.46-267.987-166.46-434.447 0-166.46 166.46-166.46 267.987 0 434.447 166.46 166.46 267.987 166.46 434.447 0 166.46-166.46 166.46-267.987 0-434.447z"/></svg>