<svg viewBox="0 0 1024 1024" xmlns="http://www.w3.org/2000/svg"><path d="M615.68 802.987c-8.107 0-16.213-2.987-22.613-9.387-12.374-12.373-12.374-32.853 0-45.227L829.44 512 593.067 275.627c-12.374-12.374-12.374-32.854 0-45.227 12.373-12.373 32.853-12.373 45.226 0L897.28 489.387c12.373 12.373 12.373 32.853 0 45.226L638.293 793.6c-6.4 6.4-14.506 9.387-22.613 9.387zM867.413 544h-718.08c-17.493 0-32-14.507-32-32 0-17.493 14.507-32 32-32h718.08c17.494 0 32 14.507 32 32 0 17.493-14.506 32-32 32z"/></svg>