<svg viewBox="0 0 1024 1024" xmlns="http://www.w3.org/2000/svg"><path d="M575.1 697.485H322.49q-8.793 0-15.043-6.214-6.214-6.25-6.214-15.042v-252.61q0-8.792 6.214-15.042 6.25-6.215 15.042-6.215 8.827 0 15.042 6.216 6.25 6.25 6.25 15.042v231.318H575.1q8.792 0 15.042 6.25 6.214 6.215 6.214 15.042 0 8.793-6.214 15.043-6.25 6.215-15.042 6.215zm116.17-359.918L341.1 687.74q-6.25 6.25-15.078 6.25-8.792 0-15.042-6.25-6.214-6.215-6.214-15.043 0-8.827 6.214-15.042L661.15 307.483q6.25-6.25 15.078-6.25 8.793 0 15.043 6.25 6.215 6.214 6.215 15.042 0 8.792-6.214 15.042z"/></svg>