<svg viewBox="0 0 1024 1024" xmlns="http://www.w3.org/2000/svg"><path d="M404.54 634.64c-6.174-6.175-9.276-15.21-7.47-24.396 2.892-14.698 17.108-24.305 31.775-21.414 50.507 9.88 102.49 14.667 135.32 13.673l-176.49-176.49c-10.572-10.6-10.572-27.767 0-38.34 10.6-10.57 27.768-10.57 38.34 0l176.278 176.28c1.114-33.01-3.705-84.72-13.553-134.927-2.892-14.697 6.686-28.943 21.383-31.834 14.668-2.922 28.943 6.656 31.835 21.353 10.3 52.525 30.298 178.84-7.138 216.275-37.437 37.436-163.81 17.498-216.335 7.228-5.512-1.084-10.27-3.735-13.945-7.41zm362.135 132.035c-188.687 188.687-322.44 188.687-511.127 0C67.102 578.23 66.89 444.567 254.856 256.24l1.385-1.385c188.086-187.753 321.657-187.753 509.742.03l.693.663.662.693c187.995 188.327 187.784 321.99-.662 510.435zm-38.34-38.34c166.46-166.46 166.46-267.987 0-434.447-166.46-166.46-267.987-166.46-434.447 0-166.46 166.46-166.46 267.987 0 434.447 166.46 166.46 267.987 166.46 434.447 0z"/></svg>