<svg viewBox="0 0 1024 1024" xmlns="http://www.w3.org/2000/svg"><path d="M489.344 128h68.01c63.02 6.1 125.526 25.173 178.305 60.97 70.4 46.21 121.64 118.486 148.48 197.974 4.35 13.184 8.36 26.496 11.86 39.98v2.217l-1.75 2.348c-44.373-.47-88.703-1.835-133.034-2.603-21.973-53.973-56.79-104.234-105.9-136.576-45.055-30.123-99.88-42.582-153.513-42.582-39.04 1.152-77.782 11.52-111.958 30.464-57.642 31.403-101.674 86.06-122.197 148.395-29.013.768-58.07.64-87.125.512-16.128-.087-32.256-.13-48.384-.044 16.383-80.17 60.713-154.155 123.135-206.677 65.194-55.895 149.077-87.255 234.07-94.38zM128 466.133c26.112-.554 52.267-.47 78.42-.384 17.24.042 34.52.085 51.8-.043.81 46.122.68 92.202.553 138.325-.085 34.987-.17 70.016.17 105.003 3.542 33.194 20.012 65.834 47.404 85.504 18.688 14.12 41.173 21.93 63.658 27.433 21.163-21.802 42.923-42.922 64.086-64.682 23.68 22.486 46.25 46.123 69.42 69.12-23.04 23.254-45.825 46.763-69.42 69.377-20.35-21.206-41.642-41.558-62.037-62.763-18.56 18.432-36.992 36.95-55.338 55.595-44.416-.215-91.392-8.407-127.318-36.31-30.89-23.126-48.298-60.16-55.85-97.323-.982-10.496-1.195-21.504-5.547-31.275zm640.3-.47c42.58.172 85.12.13 127.7 0v270.55c-5.205 37.376-17.323 75.563-44.203 103.168-31.53 32.855-77.78 45.74-121.94 48.727-2.092-.043-4.353.213-6.657.47-6.4.724-13.1 1.45-17.323-3.97-18.474-18.772-37.12-37.375-55.68-56.063-22.87 22.23-44.885 45.27-67.754 67.456-22.614-23.253-45.696-46.037-68.566-69.035 22.016-23.936 45.995-46.037 68.352-69.674 22.783 21.29 44.16 44.075 66.39 65.92 44.073-6.91 89.087-30.42 107.775-73.173l-3.456-1.365c1.065.213 3.2.512 4.265.725 4.438-13.184 9.472-26.41 10.454-40.362.297-34.902.212-69.803.127-104.704-.086-46.25-.214-92.458.512-138.666zm-312.236.044c38.1.085 76.203.085 114.26-.043.257 78.507.215 157.056.044 235.563-38.144.085-76.245.085-114.39-.17.043-35.926.043-71.894.043-107.82v-.085c-.04-42.453-.04-84.95.044-127.445zm-150.912.042h51.925c20.736 0 41.515 0 62.294-.043.3 78.42.17 156.8.043 235.22-33.75.726-67.498.385-101.248.044l-13.098-.127c.042-29.824 0-59.69 0-89.558 0-48.512-.043-97.024.085-145.536zm304.512-.13c16.128.257 32.256.172 48.384.087 21.547-.086 43.093-.17 64.597.47-.213 39.68-.17 79.36-.128 118.996 0 38.614.043 77.184-.128 115.798-25.09.513-50.22.427-75.307.3-12.544-.043-25.088-.086-37.632-.086-.597-42.795-.51-85.632-.426-128.47.043-30.89.128-61.823-.085-92.714-.087-4.78.297-9.6.724-14.38z"/></svg>