<svg viewBox="0 0 984.1042 1024.0246" xmlns="http://www.w3.org/2000/svg"><path d="M595.968 144.38c-1.752-1.95-3.6-2.05-5.552-.3-24.247 21.654-48.663 42.367-73.243 62.14-9.797 7.888-20.313 14.927-31.55 21.11-22.32 12.26-45.648 17.2-69.985 14.83-26.1-2.56-54.458-19.783-74.54-35.94-43.918-35.31-86.474-73.51-139.237-92.626-.384-.143-.727-.383-.99-.7-.265-.31-.442-.69-.51-1.092-.07-.403-.035-.815.105-1.194.143-.38.382-.715.698-.97 54.59-44.485 119.954-79.394 188.41-96.516C647.467-51.443 898.88 130.716 966.635 376.276c18.885 68.38 22.266 138.24 10.14 209.588-10.605 62.404-54.225 111.842-111.343 135.347-14.538 5.986-31.042 9.985-49.504 12.003-15.384 1.686-31.21.69-47.477-2.992-37.792-8.51-69.52-29.08-95.186-61.705-.997-1.24-1.007-2.503-.033-3.79.755-1.02 1.762-1.686 3.025-1.995 12.567-3.215 25.39-6.825 38.466-10.838 63.17-19.416 118.415-54.98 165.735-106.69 11.438-12.523 22.775-25.4 34.012-38.632.698-.82 1.064-1.878 1.02-2.962-.042-1.084-.488-2.115-1.252-2.89L809.38 395.86c-.975-.954-2.02-1.03-3.126-.232-35.996 25.91-69.087 47.865-99.275 65.862-27.04 16.114-56.942 22.873-89.7 20.28-41.925-3.325-82.885-30.786-110.845-61.806-.296-.33-.51-.724-.625-1.153-.113-.427-.127-.876-.037-1.31.093-.433.283-.84.56-1.185.275-.35.63-.625 1.033-.808 12.61-5.785 25.344-12.633 38.2-20.546 58.714-36.105 109.382-83.648 159.518-132.52.29-.283.512-.626.662-1 .15-.377.22-.783.203-1.188-.018-.406-.118-.805-.294-1.174-.176-.366-.43-.695-.738-.96-6.882-5.92-12.002-13.166-18.086-19.284-31.285-31.22-61.906-62.404-90.864-94.454zM68.01 519.304c-1.197 1.506-1.107 2.95.266 4.322L173.9 629.55c.273.286.64.462 1.035.492.392.03.78-.086 1.094-.326 32.956-24.313 67.034-46.888 102.232-67.723 14.074-8.335 30.82-14.43 50.236-18.286 37.47-7.447 77.764 5.353 108.784 26.996 13.853 9.642 27.063 21.245 39.63 34.81 1.286 1.373 1.087 2.483-.6 3.324-50.268 25.225-96.78 57.707-139.535 97.447-19.682 18.285-39.43 36.78-59.246 55.488-.312.293-.56.645-.734 1.038-.173.392-.266.814-.27 1.243-.006.43.074.85.234 1.25.163.396.402.755.704 1.057 19.792 19.66 39.198 39.707 58.216 60.144 16.224 17.42 32.857 34.586 49.903 51.5 1.173 1.16 2.736 1.84 4.385 1.907 1.65.07 3.262-.48 4.525-1.54 17.953-15.072 34.467-29.15 49.538-42.225 45.98-39.896 100.24-74.738 162.012-40.893 35.01 19.183 65.03 47.144 96.815 71.647 24.958 19.238 51.775 34.485 80.457 45.746.113.037.21.103.286.193.076.085.126.195.146.315.023.116.01.24-.03.356-.04.114-.11.22-.203.3-68.255 55.72-152.968 96.748-239.642 107.154-23.03 2.75-51.056 3.5-84.08 2.26-22.984-.864-44.46-3.567-64.433-8.11-53.17-12.103-100.714-30.987-142.628-56.654C134.635 886.182 55.884 783.14 16.476 649.332c-8.022-27.24-13.042-55.93-15.06-86.076-2.284-33.868-1.806-68.066 1.43-102.6 5.296-56.695 30.397-101.824 75.303-135.38 25.577-19.107 54.37-30.155 86.375-33.147 30.23-2.837 57.717 1.65 82.452 13.464 25.31 12.125 46.602 29.6 63.867 52.43.173.23.29.495.333.78.046.284.023.573-.067.846-.093.272-.25.518-.46.714-.208.2-.46.343-.737.42-10.396 2.948-20.912 5.95-31.55 9.01-67.07 19.173-124.5 54.3-172.286 105.39-13.72 14.673-26.407 29.38-38.067 44.12z"/></svg>