<svg viewBox="0 0 1024.0003 1024.0246" xmlns="http://www.w3.org/2000/svg"><path d="M573.956 135.15c-1.14-1.27-2.345-1.335-3.616-.195-15.788 14.1-31.685 27.588-47.693 40.462-6.378 5.138-13.227 9.72-20.545 13.748-14.533 7.982-29.724 11.2-45.57 9.655-16.995-1.667-35.462-12.88-48.538-23.403-28.598-22.99-56.31-47.866-90.666-60.314-.25-.093-.472-.25-.645-.454-.17-.205-.286-.452-.334-.714-.046-.262-.022-.53.07-.777.092-.248.25-.466.453-.633C352.42 83.56 394.983 60.83 439.558 49.68 607.49 7.637 771.2 126.252 815.32 286.152c12.297 44.526 14.5 90.017 6.604 136.476-6.906 40.635-35.31 72.827-72.503 88.133-9.466 3.898-20.21 6.503-32.234 7.817-10.015 1.097-20.32.448-30.915-1.95-24.605-5.54-45.267-18.935-61.98-40.18-.65-.807-.656-1.63-.022-2.468.49-.665 1.147-1.098 1.97-1.3 8.183-2.093 16.533-4.444 25.048-7.057 41.133-12.643 77.107-35.8 107.92-69.472 7.448-8.154 14.83-16.54 22.148-25.155.456-.535.692-1.223.664-1.93-.028-.705-.318-1.376-.816-1.88l-68.28-68.28c-.635-.623-1.313-.672-2.036-.153-23.437 16.87-44.987 31.168-64.644 42.887-17.607 10.492-37.076 14.893-58.41 13.205-27.3-2.165-53.97-20.047-72.177-40.246-.193-.215-.332-.473-.405-.752-.076-.277-.085-.57-.024-.853.058-.28.182-.546.364-.77.18-.228.41-.408.67-.527 8.215-3.767 16.506-8.226 24.876-13.38 38.232-23.51 71.225-54.468 103.872-86.292.188-.184.335-.407.43-.652.098-.244.144-.508.133-.773-.01-.263-.073-.522-.19-.763-.115-.238-.28-.452-.48-.625-4.482-3.854-7.816-8.573-11.778-12.557-20.37-20.328-40.31-40.635-59.166-61.505zM230.17 379.287c-.78.98-.722 1.92.172 2.814l68.78 68.975c.176.186.417.3.672.32.256.02.51-.056.713-.212 21.462-15.832 43.653-30.532 66.57-44.1 9.166-5.427 20.07-9.395 32.712-11.906 24.397-4.85 50.636 3.486 70.835 17.58 9.02 6.277 17.622 13.833 25.805 22.666.838.894.708 1.617-.39 2.164-32.733 16.426-63.02 37.577-90.86 63.454-12.817 11.908-25.676 23.95-38.58 36.133-.2.19-.365.42-.477.675-.113.256-.17.53-.176.81-.004.28.048.554.154.814.105.258.26.492.458.69 12.89 12.8 25.524 25.854 37.907 39.162 10.565 11.344 21.398 22.52 32.495 33.534.765.756 1.782 1.2 2.856 1.243 1.074.046 2.124-.313 2.946-1.004 11.69-9.813 22.444-18.98 32.257-27.494 29.94-25.98 65.27-48.667 105.495-26.628 22.797 12.49 42.346 30.698 63.042 46.653 16.252 12.53 33.716 22.457 52.39 29.79.075.023.14.067.19.125.047.056.082.128.095.206.013.075.006.156-.022.23-.026.075-.072.144-.132.196-44.446 36.284-99.607 63-156.046 69.775-14.995 1.79-33.245 2.28-54.75 1.47-14.967-.562-28.952-2.322-41.957-5.28-34.623-7.88-65.58-20.178-92.874-36.89-76.897-47.066-128.174-114.163-153.837-201.294-5.224-17.737-8.493-36.42-9.807-56.05-1.486-22.053-1.176-44.322.93-66.808 3.45-36.918 19.797-66.305 49.036-88.155 16.656-12.442 35.404-19.636 56.244-21.584 19.688-1.848 37.583 1.075 53.69 8.766 16.483 7.896 30.345 19.275 41.587 34.14.113.15.19.324.22.51.03.184.012.372-.046.55-.06.177-.163.337-.3.465-.133.13-.298.224-.48.274-6.767 1.92-13.617 3.875-20.545 5.867-43.672 12.486-81.067 35.36-112.185 68.628-8.933 9.554-17.196 19.132-24.788 28.73zm675.71 363.66c-10.24-1.472-20.2 4.2-28.578 10.522-7.98 6.032-10.1 4.43-6.365-4.807.26-.65 1.834-2.945 4.72-6.885 8.27-11.3 18.778-20.452 31.52-27.45 8.9-4.893 17.796-5.91 27.84-4.612 8.416 1.098 16.448 2.057 24.097 2.88 8.66.952 19.376-.477 27.516-3.032 8.876-2.77 18.648-7.837 29.313-15.197 2.065-1.43 3.847-1.472 5.347-.13.448.392.755.92.872 1.502.117.584.04 1.188-.223 1.723-13.53 27.927-52.088 51.676-82.592 51.243-11.127-.152-22.277-4.157-33.47-5.76zm-776.184-1.515l-10.435 21.216c-.575 1.17-1.396 2.206-2.407 3.03-1.01.828-2.186 1.428-3.448 1.76-1.263.334-2.583.39-3.87.17-1.285-.223-2.51-.717-3.588-1.453l-14.03-9.57c-1.81-1.237-3.117-3.09-3.673-5.214-.556-2.123-.33-4.376.643-6.344l12.362-24.962c.657-1.327 1.63-2.474 2.83-3.342 1.202-.866 2.596-1.43 4.062-1.635 1.468-.208 2.963-.054 4.358.448 1.394.503 2.645 1.336 3.643 2.43l12.124 13.313c1.23 1.353 2.022 3.046 2.277 4.856.256 1.812-.04 3.657-.85 5.298zm47.67.087l-10.607 21.258c-.586 1.17-1.415 2.2-2.435 3.02-1.02.82-2.204 1.41-3.47 1.73-1.27.32-2.59.363-3.877.127-1.286-.238-2.505-.75-3.577-1.5l-13.876-9.7c-1.78-1.244-3.057-3.086-3.596-5.19-.54-2.104-.31-4.334.652-6.283l12.318-24.94c.656-1.327 1.624-2.474 2.823-3.342 1.2-.866 2.595-1.43 4.06-1.635 1.466-.207 2.96-.054 4.352.45 1.394.5 2.643 1.334 3.64 2.428l12.188 13.38c1.238 1.358 2.034 3.058 2.286 4.88.25 1.82-.057 3.672-.88 5.316zM112.79 905.596c.448-.332.865-.7 1.255-1.105.578-.59 1.234-1.082 1.97-1.472 13.942-7.577 24.247-17.03 30.915-28.36 3.754-6.38 3.947-12.968.585-19.765-1.92-3.882-4.908-5.045-8.963-3.486-4.59 1.76-8.97 1.378-13.14-1.148-5.846-3.523-7.693-8.537-5.543-15.046 3.29-10.06 8.038-20.617 14.245-31.673 6.062-10.825 20.328-9.05 27.234-.823 11.43 13.64 14.42 28.036 11.193 45.442-8.964 48.407-52.348 77.698-96.924 89.562-13.292 3.55-24.139 5.925-32.538 7.122-9.916 1.414-20.192 2.425-30.83 3.03-3.94.218-7.504-.28-10.693-1.493-.43-.164-.8-.448-1.076-.818-.276-.368-.439-.807-.473-1.266-.035-.458.063-.917.28-1.322.216-.407.542-.743.943-.968 2.886-1.645 5.895-3.074 9.028-4.286 14.143-5.456 28.063-10.745 41.76-15.87 15.025-5.606 31.197-13.356 44.424-22.21 3.45-2.324 5.904-5.63 7.36-9.916.19-.548.194-1.14.014-1.69-.18-.547-.535-1.02-1.01-1.34-8.074-5.565-18.4-8.77-27.06-3.443C60.786 892.5 50.33 908.8 36.908 920.23c-1.624 1.365-4.135 1.56-6.15 1.84-.39.056-.79-.005-1.148-.174-.36-.17-.66-.44-.866-.777-.208-.34-.312-.73-.3-1.127.012-.396.14-.78.367-1.104 3.926-5.485 7.953-10.955 12.08-16.41 9.03-11.973 14.03-26.954 16.325-41.156 2.842-17.507 4.914-35.584 6.213-54.23.303-4.417 1.327-8.812 3.074-13.185 5.34-13.293 11.026-26.19 17.06-38.688.1-.205.253-.38.448-.502.192-.12.417-.186.645-.186.23 0 .452.065.645.186.195.12.348.297.448.502 1.385 2.873 1.667 5.83.844 8.876-1.457 5.37-2.236 10.442-2.338 15.22-.102 4.82-.316 9.612-.65 14.375-.46 6.365-.88 12.99-1.255 19.874-.882 16.005-3.783 30.315-8.704 42.93-1.818 4.617-3.652 9.26-5.5 13.92-.62 1.574-.28 1.818 1.02.736 4.89-4.048 8.767-9.006 13.962-12.73 9.677-6.927 29.68-13.833 38.882-1.99 4.432 5.7 5.5 12.1 3.204 19.2-2.598 8.01-6.415 16.13-11.452 24.356-.953 1.537-1.278 3.182-1.927 4.87-.504 1.315-.188 1.56.953.737zm123.507-5.607c5.876-9.57 11.994-19.593 18.36-30.07 4.848-7.968 15.976-21.13 26.28-21.715 5.746-.33 11.397.346 16.952 2.035 8.04 2.44 15.32 2.8 21.844 1.082.78-.2 1.17.102 1.17.91-.072 8.068-2.56 14.98-7.47 20.74-9.048 10.65-16.907 21.39-23.92 33.49-14.744 25.33-33.882 44.316-65.338 41.74-28.534-2.338-37.54-28.663-35.786-53.343 1.69-23.657 4.886-50.99 9.59-82.008 2.945-19.506 9.59-37.106 17.47-55.248.1-.225.248-.423.44-.574.19-.154.417-.255.657-.3.24-.042.49-.023.72.053.232.076.442.21.61.388.664.678.995 1.495.995 2.447-.108 9.59-.28 19.333-1.537 29.075-4.905 38.247-7.966 64.904-9.178 79.97-1.17 14.7 7.1 30.808 22.6 33.795 2.413.462 4.26-.36 5.543-2.467zm11.43.194c-.835 1.53-.39 2.302 1.343 2.317 10.63.087 18.748-4.416 27.278-10.52 7.36-5.31 13.106-11.302 17.233-17.97.217-.35.287-.772.194-1.175-.094-.4-.342-.75-.693-.968-14.44-8.876-24.44-3.485-33.1 8.92-4.352 6.235-8.53 12.686-12.254 19.397zm483.944-25.307c2.597-4.39 4.885-9.418 6.862-15.09.49-1.444 1.437-2.25 2.836-2.425.837-.1 1.292.267 1.364 1.105 1.242 15.082-3.066 27.964-12.925 38.643-2.02 2.193-4.235 3.804-6.646 4.828-10.456 4.416-10.89 15.003-23.293 17.47-.65.13-1.247.007-1.797-.367-2.728-1.89-5.685-1.833-8.877.174-8.464 5.347-13.877 13.444-20.24 20.956-8.574 10.154-21.607 14.938-34.228 9.05-19.918-9.288-18.316-46.373-16.324-63.67 1.343-11.604 1.755-23.122 3.595-34.9 2.51-15.997 4.22-32.147 7.382-48.016 2.815-14.137 9.33-28.296 14.44-41.76.108-.294.28-.56.5-.78.22-.22.485-.39.777-.5 1.66-.633 2.96-.027 3.897 1.82.31.615.378 1.323.196 1.992-2.533 9.027-1.797 18.27-3.01 27.537-3.65 28.073-6.76 55.493-9.33 82.267-.922 9.627.41 18.265 4.005 25.913 6.474 13.79 24.443 14.635 36.372 7.6 3.754-2.224 7.326-5.168 10.716-8.833 1.58-1.71 3.572-2.404 5.477-3.616.62-.39 1.3-.584 2.035-.584l10.52-.022c.738 0 1.402-.216 1.993-.65 4.005-2.814 5.5-9.395 7.49-13.682.397-.86 1.03-1.593 1.822-2.11.794-.518 1.716-.8 2.66-.812l9.396-.173c.475-.006.94-.136 1.35-.374.41-.238.75-.58.99-.99zm-326.08-64.363c4.44-11.28 10.37-22.212 16.78-32.668.146-.243.343-.453.573-.617.23-.166.493-.283.77-.344.277-.06.565-.064.842-.01.28.052.546.162.78.32 5.297 3.535 10.002 7.354 14.115 11.452 12.405 12.34-.455 33.015-11.063 41.588-1.645 1.342-3.297 1.35-4.957.022l-16-12.816c-1.006-.81-1.73-1.918-2.06-3.165-.33-1.247-.253-2.566.22-3.763zm445.387 3.918c-1.256 1.284-2.338 2.707-3.247 4.265-3.42 5.89-11.864 16.865-19.312 10.543-4.632-3.925-8.897-8.406-12.794-13.444-.68-.885-1.082-1.95-1.16-3.063-.076-1.113.177-2.223.727-3.193 5.132-8.963 13.012-21.844 21.347-28.166.3-.216.64-.368.998-.443.36-.073.727-.07 1.08.01 6.69 1.582 12.275 10.934 15.154 16.67.404.796.915.867 1.537.218 5.932-6.192 9.44-12.817 16.43-18.272.484-.375 1.07-.593 1.68-.624.612-.03 1.22.126 1.742.45 6.45 4.07 11.033 9.52 13.746 16.346 4.914 12.383-7.837 25.243-17.21 32.322-3.486 2.64-8.033 0-10.133-2.988-2.468-3.492-5.094-6.986-7.88-10.478-.16-.2-.36-.364-.587-.48-.227-.12-.476-.187-.73-.202-.257-.013-.512.026-.753.117-.238.09-.454.23-.636.413zM550.9 901.55c-3.443 15.544-10.306 33.36-21.347 44.727-.59.59-1.298.86-2.12.8-1.17-.1-1.978-.685-2.426-1.752-.346-.85-.396-1.74-.15-2.663 4.084-15.5 6.372-26.06 6.86-31.673 1.214-13.725 2.577-27.213 2.946-41.176.404-15.83 1.846-28.836 4.33-39.01 3.766-15.502 10.672-31.572 20.717-48.213.81-1.342 1.877-1.587 3.205-.736 1.364.867 2.1 2.512 1.602 4.136-.635 2.15-1.098 4.345-1.386 6.58-2.525 19.414-4.472 41.242-5.844 65.49-.844 15.11-3.14 28.9-6.387 43.492zm364.59-67.696c4.44-15.74 11.865-31.283 20.72-45.528 1.196-1.936 2.83-3.14 4.892-3.616.36-.078.738-.065 1.093.04.355.107.678.3.94.564.26.262.45.587.554.944.1.355.114.732.03 1.094-2.38 10.174-4.177 20.075-5.39 29.702-2.814 22.327-5.613 43.255-8.4 62.782-2.192 15.328-6.855 30.813-13.984 46.46-2.728 5.974-9.72 18.64-16.39 21.345-.42.172-.878.224-1.326.144-.448-.078-.86-.284-1.197-.59-.333-.308-.574-.704-.69-1.144-.117-.437-.107-.9.032-1.334 5.63-18.142 9.59-34.963 11.54-53.624 1.97-18.943 2.597-39.575 7.576-57.24zM591.298 790.1c3.002-4.692 6.66-5.543 10.976-2.556 4.784 3.313 14.115 11.518 14.786 18.034 1.103 10.738-7.102 22.84-13.92 30.59-.567.645-1.335 1.078-2.177 1.228-.842.15-1.71.006-2.457-.405-5.153-2.798-10.522-6.197-16.107-10.196-3.855-2.77-5.14-6.306-3.855-10.608 2.353-7.822 6.603-16.518 12.752-26.087zM364.22 946.274c17.99 9.31 41.61 6.776 60.4-.15 32.084-11.822 54.123-41.07 54.318-75.968.087-14.873-1.06-29.984 2.598-44.835 2.31-9.426 5.42-18.605 9.33-27.538 1.33-3.018 2.31-4.806 2.945-5.37 4.417-3.84 6.353-2.79 5.803 3.14-.953 10.42-1.356 20.927-1.213 31.522.13 10.304-.482 20.796-1.84 31.477-5.65 44.164-23.857 86.92-56.764 116.364-21.822 19.55-57.52 30.958-85.492 17.34-17.037-8.313-27.732-26.93-29.074-45.7-.953-13.323.275-26.52 3.68-39.596 5.89-22.6 14.996-44.164 27.32-64.687 1.85-3.074 3.48-2.96 4.894.346 1.097 2.554.94 5.202-.477 7.945-7.144 13.855-12.556 28.035-16.236 42.54-5.758 22.797-1.623 42.064 19.81 53.17zm201.487 31.976c-13.147 5.874-26.152 10.018-39.01 12.427-1.76.332-3.088-.288-3.985-1.86-1.883-3.314 1.97-8.077 4.438-9.873 10.595-7.664 21.182-15.776 31.76-24.334 7.953-6.436 14.136-14.585 18.553-24.442 6.828-15.24 13.162-32.272 19.008-51.09.968-3.104 2.772-5.377 5.413-6.82.38-.21.803-.32 1.234-.32.43-.004.855.105 1.234.313.38.208.698.51.93.873.23.364.365.782.392 1.212.274 4.33.086 8.666-.563 13.01-2.352 16.037-6.552 33.363-12.6 51.98-4.937 15.155-11.042 31.89-26.803 38.926zm322.31-104.5c-.93 12.6-5.692 25.59-13.356 35.982-7.9 10.694-19.938 1.364-28.424 8.01-7.274 5.7-14.18 11.372-20.718 17.016-8.097 7.014-17.428 13.596-26.65 14.7-4.26.52-9.043.034-14.354-1.45-17.08-4.785-31.066-.607-46.524 5.8-.49.207-1.024.27-1.548.183-.52-.086-1.01-.317-1.41-.67-.397-.35-.692-.808-.845-1.32-.156-.51-.165-1.053-.028-1.568 1.298-4.778 3.802-9.266 7.51-13.466 11.286-12.73 23.82-22.363 37.605-28.9 9.612-4.563 20.552-4.7 32.82-.413 16.627 5.78 27.668-6.668 38.535-16.475 4.488-4.057 9.418-5.11 14.787-3.16 3.096 1.104 6.798 1.926 8.984-1.213 3.134-4.488 5.86-8.55 8.184-12.188.592-.925 1.48-1.762 2.663-2.51.282-.185.61-.285.944-.292.335-.006.666.08.954.252.288.17.524.42.677.716.155.3.224.632.198.968zM821.21 984.94c.807 1.098 1.608 1.083 2.402-.043l12.47-18.034c.684-.985 1.702-1.69 2.87-1.985 1.163-.294 2.398-.158 3.473.383 9.894 4.96 20.784 19.14 14.852 30.916-3.81 7.534-9.937 16.908-17.926 20.762-.432.21-.932.255-1.406.13-7.815-2.035-10.976-9.634-16.43-14.852-.125-.117-.274-.203-.434-.255-.163-.05-.332-.066-.498-.043-.167.024-.325.083-.464.176-.138.093-.255.216-.338.36-3.507 6.258-9.893 15.805-16.648 19.03-.93.443-1.974.592-2.994.434-1.02-.158-1.965-.617-2.72-1.32l-13.856-13.033c-1.905-1.804-2.338-3.904-1.3-6.3 4.476-10.277 10.48-20.155 18.013-29.638.46-.576 1.03-1.056 1.678-1.41.65-.352 1.36-.573 2.093-.647.734-.076 1.476-.003 2.182.212.706.216 1.36.57 1.927 1.043 4.605 3.854 8.956 8.558 13.054 14.115z"/></svg>