<svg viewBox="0 0 870.3855 1024" xmlns="http://www.w3.org/2000/svg"><path d="M615.26 268.488q0 96.613-68.3 164.913-68.298 68.3-164.912 68.3-96.562 0-164.862-68.3-68.3-68.298-68.3-164.91 0-96.563 68.3-164.863t164.862-68.3q96.613 0 164.913 68.298 68.3 68.3 68.3 164.863zM466.987 987.887q-7.526 1.538-15.053 0-15.563-3.07-24.42-16.33-8.807-13.21-5.684-28.825l19.712-98.61v-.05q3.276-16.18 6.04-23.347 3.79-9.573 9.676-18.02 4.403-6.3 16.077-18.024L675.83 582.236q75.824-75.876 151.65 0 31.437 31.437 31.437 75.827 0 44.44-31.436 75.877L625.04 936.38l-.103.103q-11.622 11.622-17.92 15.974-8.448 5.94-18.022 9.676-7.168 2.816-23.346 6.042h-.053zm71.474-719.398q0-156.362-156.412-156.362-64.767 0-110.59 45.823-45.772 45.772-45.772 110.538 0 156.414 156.362 156.414 156.413 0 156.413-156.414zM2.766 950.258q0-157.08 111.102-268.183 111.1-111.103 268.18-111.103 27.29 0 54.12 3.84 15.767 2.253 25.29 15.002 9.574 12.698 7.32 28.467-2.252 15.72-15 25.294-12.697 9.523-28.467 7.27-21.452-3.072-43.263-3.072-125.284 0-213.86 88.627-88.624 88.573-88.624 213.857 0 15.923-11.213 27.136-11.264 11.264-27.187 11.264-15.87 0-27.135-11.264Q2.763 966.18 2.763 950.257zm505.642-48.948l42.14-8.448q9.572-1.895 10.442-2.253 1.126-.41 2.1-1.127.767-.512 7.575-7.322l.104-.1 202.44-202.44q8.91-8.91 8.91-21.557 0-12.596-8.91-21.504-21.556-21.556-43.11 0L527.658 839q-6.912 6.86-7.424 7.63-.717 1.023-1.126 2.15-.36.82-2.253 10.393l-8.447 42.137z"/></svg>