<svg viewBox="0 0 1024 1024" xmlns="http://www.w3.org/2000/svg"><path d="M704 368.23c-17.51 0-32-14.54-32-32v-58.88c0-44.8-19.2-88.32-52.48-118.63-33.69-30.72-77.21-44.8-123.29-40.55C419.43 125.44 352 203.93 352 285.85v41.42c0 17.46-14.49 32-32 32-17.51 0-32-14.54-32-32v-41.83c0-114.79 92.57-220.57 202.24-231.27 64-5.94 125.44 14.08 172.39 57.19C709.12 153.6 736 214.17 736 277.35v58.88c0 17.46-14.49 32-32 32zm-64 602.42H384c-197.12 0-233.83-91.7-243.2-180.89l-32-255.59c-4.71-46.08-6.4-112.18 38.4-161.69 38.4-42.65 101.99-63.13 194.15-63.13h341.3c92.62 0 156.16 20.89 194.15 63.13 44.39 49.51 43.11 115.61 38.4 160.87l-32 256.41c-9.37 89.19-46.08 180.89-243.2 180.89zm-298.65-597.3c-72.14 0-121.6 14.08-146.79 42.24-20.89 23.04-27.75 58.42-22.17 111.36l32 255.54c7.22 68.3 26.01 124.62 179.61 124.62h256c153.6 0 172.39-55.91 179.61-123.75l32-256.41c5.58-52.07-1.28-87.5-22.17-110.95-25.19-28.57-74.65-42.65-146.79-42.65h-341.3zm316.57 187.7c-23.91 0-43.11-19.2-43.11-42.65s19.2-42.65 42.7-42.65c23.45 0 42.65 19.2 42.65 42.65s-18.79 42.65-42.24 42.65zm-298.65 0c-23.91 0-43.11-19.2-43.11-42.65s19.2-42.65 42.65-42.65c23.5 0 42.7 19.2 42.7 42.65s-18.79 42.65-42.24 42.65z"/></svg>