<svg viewBox="0 0 1024 1024" xmlns="http://www.w3.org/2000/svg"><path d="M394.667 608q0 117.333 117.333 117.333T629.333 608q0-13.27 9.387-22.613Q648.064 576 661.333 576q13.27 0 22.614 9.387 9.386 9.344 9.386 22.613 0 74.71-53.333 128-53.29 53.333-128 53.333-74.71 0-128-53.333-53.333-53.29-53.333-128 0-13.27 9.386-22.613Q349.397 576 362.667 576q13.27 0 22.613 9.387 9.387 9.344 9.387 22.613zm3.882-500.053l-154.454 154.88q-9.344 9.386-22.613 9.386-13.27 0-22.656-9.344-9.387-9.345-9.387-22.614 0-13.27 9.344-22.656L353.237 62.72q9.344-9.387 22.614-9.387 13.27 0 22.657 9.344 9.386 9.344 9.386 22.614 0 13.27-9.344 22.657zM670.762 62.72L825.216 217.6q9.344 9.387 9.344 22.656-.043 13.27-9.43 22.613-9.343 9.343-22.613 9.343t-22.613-9.386L625.45 107.947q-9.386-9.387-9.343-22.656 0-13.27 9.386-22.613 9.387-9.344 22.656-9.344 13.27 0 22.613 9.387zM53.333 334.933q0-70.826 41.856-98.858 27.605-18.475 84.863-18.475h663.894q57.258 0 84.864 18.475 41.857 28.032 41.857 98.858 0 74.71-38.272 101.334-23.638 16.47-79.02 16.042-6.27-.043-9.428-.043H180.053q-3.157 0-9.43.042-55.38.426-79.018-16.043-38.272-26.624-38.272-101.334zm64 0q0 41.26 10.838 48.81 6.955 4.822 41.985 4.566 6.528-.043 9.898-.043h663.894q3.37 0 9.898.042 35.03.255 41.984-4.566 10.837-7.552 10.837-48.81 0-53.334-62.72-53.334H180.053q-37.802 0-49.237 7.637-13.483 9.046-13.483 45.696zm63.574 86.57l60.16 368.64q19.242 116.524 136.96 116.524h257.28q114.773 0 136.234-112.256l71.68-373.76q2.52-13.013 13.484-20.48 10.965-7.423 23.98-4.95 13.012 2.52 20.48 13.484 7.423 10.965 4.948 23.98l-71.68 373.76q-31.445 164.223-199.125 164.223h-257.28q-172.032 0-200.107-170.198l-60.16-368.64q-2.133-13.1 5.59-23.85 7.765-10.753 20.82-12.887 13.1-2.133 23.85 5.59 10.753 7.765 12.887 20.82z"/></svg>