<svg viewBox="0 0 1024 1024" xmlns="http://www.w3.org/2000/svg"><path d="M704 368.213c-17.493 0-32-14.506-32-32v-58.88c0-44.8-19.2-88.32-52.48-118.613-33.707-30.72-77.227-44.8-123.307-40.533C419.413 125.44 352 203.947 352 285.867v41.386c0 17.494-14.507 32-32 32-17.493 0-32-14.506-32-32V285.44c0-114.773 92.587-220.587 202.24-231.253 64-5.974 125.44 14.08 172.373 57.173C709.12 153.6 736 214.187 736 277.333v58.88c0 17.494-14.507 32-32 32zm-64 602.454H384c-197.12 0-233.813-91.734-243.2-180.907l-32-255.573c-4.693-46.08-6.4-112.214 38.4-161.707 38.4-42.667 101.973-63.147 194.133-63.147h341.334c92.586 0 156.16 20.907 194.133 63.147 44.373 49.493 43.093 115.627 38.4 160.853l-32 256.427c-9.387 89.173-46.08 180.907-243.2 180.907zM341.333 373.333c-72.106 0-121.6 14.08-146.773 42.24-20.907 23.04-27.733 58.454-22.187 111.36l32 255.574C211.627 850.773 230.4 907.093 384 907.093h256c153.6 0 172.373-55.893 179.627-123.733l32-256.427c5.546-52.053-1.28-87.466-22.187-110.933-25.173-28.587-74.667-42.667-146.773-42.667H341.333zM657.92 561.067c-23.893 0-43.093-19.2-43.093-42.667 0-23.467 19.2-42.667 42.666-42.667 23.467 0 42.667 19.2 42.667 42.667 0 23.467-18.773 42.667-42.24 42.667zm-298.667 0c-23.893 0-43.093-19.2-43.093-42.667 0-23.467 19.2-42.667 42.667-42.667 23.466 0 42.666 19.2 42.666 42.667 0 23.467-18.773 42.667-42.24 42.667z"/></svg>