<svg viewBox="0 0 1024 1024.0246" xmlns="http://www.w3.org/2000/svg"><path d="M317.87 242.496a1.22 1.22 0 0 0 1.16-.11c14.24-9.55 28.15-18.3 42.55-25.61 113.24-57.55 251.98-45.29 353 32.95q40.12 31.06 69.18 72.47 44.44 63.3 56.31 141.89 4.01 26.6 3.11 57.79-.87 29.84-6.57 57.46c-30.83 149.31-161.15 259.82-314.36 263.81q-91.95 2.4-171.48-41.7c-65.19-36.14-118.12-95.86-145.89-165.03q-21.63-53.89-23.68-108.93-.31-8.5-.38-46.48-.22-125.35.05-253.75.01-1.26.26-12.78.14-6.27 2.56-11.76 8.13-18.47 28.72-21.59c11.65-1.76 21.49 3.18 30.97 9.04 23.88 14.78 48.12 32.83 72.7 51.34q.65.49 1.79.99zm148.71 281.04q-51.2-50.93-52.38-52.15-8.94-9.28-14.86-12.9c-17.94-10.95-37.69-12.53-57.79-5.92-10.43 3.43-19.44 11.02-26.96 19.41q-4.84 5.41-8.18 13.11c-10.85 24.99-7.63 50.87 10.22 71.15q1.96 2.22 5.44 5.75 34.71 35.15 100.37 100.25c13.85 13.73 33.84 20.81 53.19 17.9q13.04-1.97 24.76-8.25 3.74-2.01 5.8-3.94 9.46-8.83 31.21-30.54c30.15-30.08 44.14-44.37 70.2-69.79q26.57-25.92 56.22-56.54 9.09-9.4 35.15-34.63 8.63-8.35 11.21-11.7 5.58-7.25 8.59-13.73c6.46-13.92 7.11-30.32 3.47-45.04-5.11-20.65-25.81-40.48-46.55-44.89-14.67-3.12-32.22-2.36-45.9 5.47-4.17 2.38-9.51 5.52-12.68 8.56q-8.38 8.03-17.32 16.93-60.73 60.52-131.69 131.49a1.07 1.07 0 0 1-1.52 0z"/></svg>