<svg viewBox="0 0 1024 1024.0246" xmlns="http://www.w3.org/2000/svg"><path d="M808.446 258.003l-190.454.154c-.11.002-.217.046-.297.122l-34.457 33.023c-.082.077-.19.12-.302.12-.113 0-.22-.043-.303-.12l-42.73-39.823c-.043-.04-.076-.088-.1-.14-.023-.055-.035-.112-.036-.17 0-.06.01-.116.03-.17.022-.054.055-.103.095-.145L591 198.11c.04-.043.09-.077.145-.1.054-.023.113-.034.172-.034l279.317-1.362c.116 0 .23.046.31.13.084.082.13.194.13.31l-.144 265.575c.002.06-.012.122-.036.178-.025.056-.06.106-.107.15L726.024 597.11c-.045.043-.082.093-.106.15-.025.056-.037.117-.037.178l.103 107.705c0 .057-.01.114-.034.17-.022.052-.055.1-.096.14-.04.042-.09.075-.142.096-.053.022-.11.033-.17.033L612.32 704.54c-.06 0-.12.01-.173.032-.054.024-.104.058-.145.1l-26.604 26.572c-.08.08-.187.123-.3.125-.112 0-.22-.04-.304-.115l-43.858-40.96c-.042-.04-.075-.088-.098-.142-.024-.053-.036-.11-.037-.17 0-.057.01-.114.033-.168.02-.054.053-.103.093-.145l44.134-44.728c.04-.042.092-.076.146-.1.054-.022.112-.033.172-.033l77.046.726c.06 0 .118-.01.174-.032.055-.022.105-.055.147-.097.042-.042.076-.093.097-.148.023-.056.034-.115.032-.175l-.696-72.632c0-.062.012-.123.037-.18.024-.056.06-.106.106-.148L809.266 439.7c.046-.04.082-.09.107-.147.024-.056.037-.118.037-.18l-.524-180.93c0-.116-.046-.228-.13-.31-.08-.084-.193-.13-.31-.13zm-554.517 2.1V437.99c0 .196.038.388.113.568.076.18.188.342.327.478l35.922 34.58c.164.164.16.325-.01.482l-42.67 40.13c-.086.076-.194.118-.308.118-.114 0-.223-.042-.307-.118l-57.18-51.886c-.116-.102-.21-.228-.273-.37-.063-.14-.096-.293-.096-.45V199.708c0-.122.048-.24.135-.326.086-.085.203-.134.326-.134h280.073c.453 0 .886.176 1.21.49l141.106 138.19c.334.328.785.512 1.258.512l111.473-.01c.377 0 .564.188.564.563l-.46 106.026c0 .214.04.426.124.623.083.196.204.374.357.523l28.344 27.37c.306.295.3.585-.022.872l-44.236 40.17c-.115.107-.265.164-.418.164-.154 0-.3-.058-.412-.164-14.725-13.87-29.43-27.644-44.114-41.318-1.08-1.01-2.07-2.034-2.98-3.072-.225-.26-.355-.563-.39-.91-.217-2.042-.323-4.182-.316-6.422.06-23 .095-44.356.102-64.072 0-.192-.077-.377-.213-.514-.135-.136-.32-.213-.513-.213l-72.14.02c-.816 0-1.597-.315-2.182-.88L443.645 259.6c-.176-.17-.412-.266-.654-.266H254.698c-.512 0-.768.256-.768.768zm.666 523.62l190.362-.152c.137 0 .27-.057.368-.153l34.304-32.88c.102-.1.237-.154.38-.154.14 0 .277.055.378.154l41.44 40.898c.052.05.09.11.12.176.026.068.04.14.04.21 0 .07-.014.14-.04.207-.03.067-.068.126-.12.176l-49.806 51.385c-.05.052-.112.093-.178.12-.067.03-.138.043-.21.043l-279.164 1.425c-.072 0-.142-.014-.208-.04-.065-.03-.126-.07-.176-.12-.05-.05-.09-.11-.118-.175-.027-.066-.04-.136-.04-.208l.07-265.43c0-.076.016-.15.046-.22.03-.068.074-.13.13-.18L336.883 444.7c.055-.053.1-.114.13-.183.03-.068.045-.143.045-.218l-.093-107.562c-.002-.072.01-.145.04-.213.026-.067.066-.13.118-.18.052-.052.113-.093.18-.12.07-.027.14-.04.215-.04l113.11 1.014c.073 0 .145-.015.212-.043.066-.03.127-.07.178-.122l26.726-26.665c.1-.097.233-.152.372-.153.14-.002.273.05.376.143l43.458 41.01c.053.05.095.11.124.177.03.067.044.14.045.21.002.074-.01.146-.04.213-.026.068-.066.128-.118.18l-43.99 44.615c-.052.052-.112.093-.18.122-.065.028-.137.042-.21.042l-76.953-.718c-.146 0-.284.058-.385.16-.102.1-.16.24-.16.383l.718 72.468c0 .078-.017.155-.048.226-.032.07-.078.132-.137.183L253.726 602.036c-.06.05-.106.115-.137.186-.033.07-.05.147-.05.224l.513 180.736c0 .144.058.282.16.384.1.1.24.16.383.16zm307.957-361.88c2.375 22.087-7.383 37.683-29.778 41.02-.417.063-.648-.114-.696-.53-2.55-20.266 8.825-38.913 29.91-40.95.34-.035.53.12.563.46zm-37.94 151.9c-14.387 5.192-26.51 1.638-36.986-9.093-20.132-20.634-27.7-49.05-18.832-76.636 6.022-18.72 22.6-30.28 42.578-25.088 4.15 1.078 8.353 2.19 12.606 3.338 7.638 2.048 15.06 1.867 22.26-.543 3.124-1.043 5.858-2.835 8.96-3.972 9.104-3.328 19.887.553 27.33 6.277 13.14 10.097 18.146 29.645 17.225 45.722-1.058 18.548-7.895 34.952-20.51 49.213-7.015 7.926-16.467 13.712-27.352 12.442-3.106-.362-6.336-1.086-9.687-2.17-5.66-1.844-11.523-1.673-17.592.51zm93.636-50.995c1.344-.335 2.654-.277 3.93.174.356.123.544.376.565.758.545 13.75.79 24.507.737 32.276-.062 10.527-5.182 19.2-11.622 27.126-6.03 7.42-12.012 13.506-17.95 18.258-5.71 4.56-12.82 8.468-21.33 11.725-28.048 10.74-61.45 11.765-87.88-4.025-15.596-9.328-28.786-20.91-38.114-36.546-1.36-2.287-2.31-4.465-2.857-6.533-1.496-5.672-1.425-12.677-1.097-18.708.43-7.64.648-15.332.656-23.08 0-.21.053-.416.157-.597.105-.18.254-.333.435-.438 1.304-.758 2.796-.945 4.475-.563.594.136.928-.095 1.004-.697.19-1.446.782-2.76 1.772-3.942.213-.252.478-.456.776-.598.298-.142.62-.22.952-.227.33-.01.657.054.96.182.306.128.58.32.804.56.97 1.046 1.52 2.282 1.65 3.708.92 10.15 1.832 19.914 2.733 29.286.005.057-.002.114-.023.167-.02.053-.052.102-.094.14-.04.038-.09.067-.145.083-.055.016-.113.02-.168.01-3.564-.645-9.912-1.68-10.158 3.707-.134 2.754.746 5.99 2.313 8.315 5.884 8.758 12.455 16.944 19.712 24.555 2.888 3.03 8.93 10.383 12.943 10.957.143.02.288.003.422-.05.134-.054.252-.142.342-.254.09-.113.15-.247.17-.39.024-.142.008-.287-.043-.422-.88-2.335-2.114-4.434-3.697-6.298-8.315-9.782-16.358-19.213-24.126-28.293-2.242-2.62-3.38-7.967 1.7-8.366 2.273-.184 4.66 1.423 6.216 3.01 4.58 4.69 9.267 9.342 14.06 13.957 4.566 4.383 9.39 8.05 15.584 9.165 5.827 1.044 12.002 1.228 17.665 3.102 9.748 3.236 15.687 10.988 22.865 17.95.056.055.122.097.195.124.074.026.152.038.23.03.078-.004.155-.026.225-.063.07-.038.13-.09.18-.152 2.382-3.002 4.75-6.027 7.107-9.07 3.82-4.947 8.888-7.436 14.59-9.586 4.497-1.69 9.177-1.997 13.907-2.12 6.135-.163 11.47-3.174 15.67-7.73 4.224-4.602 8.447-9.326 12.666-14.173 2.668-3.07 5.53-4.702 8.58-4.894 6.585-.41 4.28 6.912 1.875 9.8-8.137 9.762-16.517 19.773-25.14 30.034-.853 1.01-1.16 2.133-.92 3.37.143.723 1.054.575 2.734-.442.648-.39 1.245-.852 1.792-1.392 8.806-8.663 17.885-19.1 27.238-31.314 1.215-1.577 2.058-3.092 2.53-4.547 2.467-7.65-4.312-9.8-10.16-9.8-.456 0-.66-.228-.613-.685 1.086-9.728 2.15-19.285 3.196-28.672.164-1.536 1.505-3.134 3.154-3.083 2.63.093 3.87 2.315 4.014 4.73.02.43.238.595.655.493zm186.796 80.548l-35.123-33.076c-.044-.042-.08-.093-.104-.15-.026-.055-.038-.116-.038-.177 0-.062.012-.122.037-.178.023-.057.06-.108.103-.15l43.11-40.376c.082-.08.192-.125.306-.127.113-.002.223.04.308.115l55.88 50.688c.045.043.08.094.105.15.025.056.038.117.038.178l-.01 262.114c0 .12-.046.234-.13.318-.085.085-.2.132-.32.132l-280.607.01c-.118 0-.233-.048-.317-.133L446.43 703.678c-.083-.085-.196-.132-.316-.133l-112.138.01c-.06 0-.118-.01-.173-.033-.055-.024-.104-.057-.146-.1-.042-.04-.075-.09-.097-.144-.023-.055-.035-.114-.035-.173l.47-106.547c0-.062-.012-.122-.037-.178-.024-.057-.06-.108-.105-.15l-27.034-26.08c-.045-.044-.08-.095-.103-.152-.023-.057-.035-.118-.034-.18 0-.06.014-.12.04-.177.024-.054.06-.105.106-.147l43.683-41.175c.084-.077.194-.12.307-.12.115 0 .225.043.308.12l46.704 43.725c.045.042.08.093.106.15.024.056.038.116.038.178l.01 71.107c0 .12.048.235.132.32.085.084.2.13.318.13l73.483.02c.116 0 .23.043.316.124l143.36 138.467c.086.08.2.125.317.122l188.826.01c.058 0 .117-.01.172-.034.054-.023.105-.056.145-.098.043-.042.076-.09.1-.146.02-.055.033-.113.033-.173V603.622c0-.06-.014-.122-.038-.178-.025-.056-.06-.107-.106-.15zM544.51 969.436c-3.482 7.988-7.65 14.416-12.503 19.283-6.267 6.276-15.42 7.434-21.924.748-2.478-2.54-7.332-4.886-4.23-9.084.93-1.256 1.882-2.477 2.858-3.665 2.554-3.135 4.192-7.122 4.916-11.962 1.134-7.55 1.62-15.223 1.464-23.02-.4-19.19 5.294-36.535 12.073-53.902.894-2.274 1.547-2.206 1.956.203.122.716.156 1.427.102 2.13-1.434 18.487-2.844 35.6-4.23 51.343-1.228 13.94-5.29 26.27-12.185 36.986-.037.06-.058.13-.062.198-.003.07.013.142.044.204.03.062.08.116.138.155.058.04.126.062.196.067 3.267.195 7.035.522 10.066-.645 7.578-2.922 12.77-7.626 15.575-14.11 1.304-3.018 2.076-6.613 2.315-10.784.634-10.848 1.205-21.07 1.71-30.67.586-11.01 2.956-21.844 7.106-32.5 1.4-3.59 2.898-7.405 4.496-11.44.19-.497.535-.835 1.034-1.012.107-.038.223-.047.336-.026.112.02.218.067.307.138.088.072.158.165.2.27.044.107.06.22.047.335-2.014 16.248-3.31 32.7-3.89 49.357-.186 5.34-.035 10.305.45 14.9 1.525 14.275 18.687 16.148 27.32 7.66 1.774-1.748 3.73-3.374 5.867-4.876 3.748-2.63 8.284 2.285 10.865-3.347.982-2.15 1.934-4.338 2.856-6.564.186-.45.536-.813.98-1.016.445-.204.95-.232 1.416-.08 3.164 1.044 5.99 1.832 7.64-2.038 1.023-2.41 2.044-5.024 3.06-7.844.052-.145.15-.27.278-.355.13-.085.284-.126.44-.116.388.028.658.185.808.472.13.225.198.468.205.727.198 7.263-2.174 13.987-7.117 20.172-2 2.505-4.4 3.973-7.198 4.403-.376.055-.663.242-.86.563-1.69 2.795-3.953 6.052-6.83 7.7-2.376 1.352-4.752-.112-7.19.267-2.928.444-5.348 1.854-7.26 4.23-2.388 2.962-4.72 5.825-6.993 8.59-2.704 3.277-6.697 6.103-11.07 6.615-6.605.758-12.575-2.375-14.786-8.632-.247-.682-.513-.692-.8-.03zm-459.848-6.082c3.963-7.26 5.376-14.213 5.264-22.67-.093-7.476-.707-15.238.952-22.682 1.242-5.564 3.195-11.523 5.857-17.88.69-1.658 1.567-3.187 2.632-4.587.088-.115.204-.205.338-.26.132-.058.277-.08.42-.063.143.017.28.07.394.156.114.085.204.2.26.33.123.28.177.57.164.87-.328 7.34-.574 15.34-.737 24.004-.44 24.013-7.394 47.913-21.402 67.666-6.22 8.772-13.32 15.54-21.3 20.306C33.126 1023.114.798 1016.05.02 982.82c-.46-19.67 7.793-41 18.402-57.845.086-.133.208-.24.352-.306.144-.068.305-.09.46-.068.157.023.303.09.42.195.118.104.202.24.242.393.103.36.17.734.205 1.116.1 1.18-.07 2.225-.513 3.134-8.57 17.694-21.094 47.82 4.29 58.02 12.78 5.13 29.277 2.17 41.41-4.383 8.125-4.383 14.583-10.957 19.375-19.722zm41.226-38.82c1.987-8.795 5.663-17.366 10.087-25.384.075-.14.186-.255.323-.336.137-.082.294-.124.455-.125h.533c.106-.003.212.017.31.06.097.04.185.104.257.183.072.077.125.17.16.272.03.1.043.208.03.313-1.74 16.087-1.802 32.308-2.273 48.405-.348 11.742-3.15 22.675-8.407 32.8-1.106 2.13-2.525 4.048-4.26 5.754-.136.136-.308.23-.495.274-.19.044-.385.035-.57-.028-.49-.17-.784-.46-.88-.87-.047-.184-.047-.37 0-.553 2.137-9.115 3.276-16.856 3.42-23.226.15-7.017.147-13.997-.01-20.94-.144-6.513.297-12.046 1.32-16.6zm113.644 54.303c-1.283 2.717-2.895 5.113-4.833 7.19-.595.627-1.073.872-1.435.736-.79-.294-1.088-.853-.89-1.68 2.262-9.4 3.553-18.37 3.46-28.14-.068-6.525-.092-13.02-.07-19.485.03-13.773 4.678-25.877 11.09-37.806.374-.71.954-1.028 1.74-.953.416.033.624.258.624.675.01 1.33-.318 2.57-.41 3.922-.97 13.73-1.536 27.682-1.7 41.86-.144 12.07-2.67 23.297-7.578 33.68zm768.75 4.26c-1.916 3.154-5.767 9.022-10.2 8.12-4.086-.83-7.384-.02-10.292 3.236-6.318 7.076-11.386 17.347-22.814 15.965-14.633-1.772-14.674-23.665-13.876-34.315 1.263-16.725 3.403-33.536 6.42-50.432.738-4.12 1.85-8.053 3.34-11.795 1.67-4.205 3.307-8.475 4.904-12.81.23-.628.553-1.243.963-1.844.075-.113.182-.204.308-.26.125-.057.264-.077.4-.057.137.02.263.077.37.166.103.088.18.205.222.336.198.62.262 1.246.195 1.874-1.584 14.793-3.332 29.65-5.243 44.564-.39 3.045-.735 6.356-1.035 9.933-.635 7.69-2.345 20.87 3.01 27.32 5.837 7.035 17.87 5.92 23.952-.03 1.815-1.775 3.74-3.393 5.775-4.854 3.625-2.59 8.55 1.577 10.742-2.908 1.194-2.45 2.28-4.83 3.256-7.138.11-.26.273-.495.477-.69.205-.196.447-.35.712-.447.263-.1.545-.143.826-.128.282.014.557.086.81.21 3.782 1.858 6.4.656 7.854-3.604.77-2.245 1.604-4.348 2.5-6.308.224-.484.565-.604 1.023-.358.196.1.36.254.474.442.115.19.173.404.17.623-.027 9.284-3.31 16.875-9.85 22.774-1.113.998-2.53 1.567-4.25 1.71-.505.042-.887.277-1.146.707zm-136.86 2.837c.307.046.62-.02.884-.186.263-.165.458-.418.55-.715 1.113-3.598 2.29-7.06 3.532-10.384.47-1.25 1.69-2.407 3.134-1.905 3.4 1.188 4.638 7.413 4.638 10.475.01 9.913-5.416 28.355-18.544 27.904-8.172-.287-12.42-8.16-13.68-15.462-1.71-9.943-.78-20.07.43-30.34 1.488-12.72 3.235-25.177 5.242-37.377.752-4.533 1.892-8.792 3.42-12.78 1.966-5.133 3.916-10.164 5.847-15.094.065-.163.177-.308.32-.412.146-.106.32-.168.5-.18.662-.034.97.266.92.9-1.228 16.518-3.87 34.243-5.846 51.59-.765 6.663-1.103 13.193-1.015 19.59.082 6.08 3.083 13.423 9.667 14.376zM739.674 999.9c-1.276-4.955-1.7-10.205-1.27-15.748 1.383-17.96 8.633-36.342 18.34-51.784.09-.142.22-.254.374-.32.155-.065.326-.08.49-.046.164.034.314.12.43.24.113.123.188.278.212.444.048.327.09.655.122.983.13 1.24-.044 2.347-.522 3.317-4.72 9.492-8.5 19.27-10.23 29.696-1.78 10.74 1.014 20.91 10.947 26.398 15.677 8.664 39.567 3.483 52.86-7.976 8.897-7.67 16.014-19.405 16.63-31.19.244-4.657.27-9.814.07-15.473-.42-12.072 3.39-23.838 8.735-34.518.348-.697.888-1.127 1.618-1.29.102-.024.21-.023.312 0 .103.026.198.074.28.143.08.068.145.154.188.253.043.097.064.203.06.31-.32 7.017-.55 13.755-.687 20.214-.197 9.175-.624 15.892-1.28 20.152-1.495 9.762-3.778 18.688-6.85 26.778-7.895 20.787-22.334 41.758-43.295 49.53-19.456 7.21-41.78 2.243-47.534-20.11zm180.81-81.52c1.996-5.038 4.72-10.055 7.628-14.817.19-.307.44-.358.747-.153 2.84 1.945 5.1 3.898 6.778 5.857 4.24 4.946-1.27 13.588-5.16 16.804-.314.26-.708.403-1.115.403-.406 0-.798-.142-1.108-.402l-7.393-6.205c-.212-.174-.363-.41-.43-.68-.068-.265-.05-.547.05-.804zm-478.948 35.707c3.203.158 5.738-.105 7.61-.788 4.86-1.77 9.775-3.913 14.744-6.432 3.318-1.68 5.653-4.33 7.24-7.7 2.642-5.58 5.192-10.435 9.288-14.9 3.533-3.85 5.222-8.92 7.987-13.27.266-.424.61-.502 1.034-.236 3.665 2.314 5.775 6.226 7.618 9.963 2.928 5.93 1.915 10.7-2.14 15.913-2.868 3.687-7.988 4.066-12.166 2.97-2.764-.73-4.983.178-6.656 2.724-5.045 7.66-10.84 14.76-17.387 21.3-7.148 7.136-14.665.9-21.986-1.947-.242-.094-.506-.11-.757-.043-.25.067-.473.21-.636.412-3.522 4.37-7.515 8.128-11.98 11.274-16.507 11.633-37.5 17.94-57.784 21.156-19.06 3.025-38.94 4.21-59.638 3.553-6.67-.21-13.043-.825-19.118-1.843-12.943-2.16-18.084-9.973-17.336-22.753.355-5.985 1.075-11.747 2.16-17.284.35-1.788.615-2.843.8-3.164 1.727-3.072 2.863-2.867 3.41.614 1.033 6.574 3.102 11.684 9.84 14.08 4.553 1.618 9.598 2.718 15.134 3.297 19.835 2.048 39.732 2.458 59.822 1.147 17.94-1.167 34.072-3.932 48.395-8.294 10.43-3.18 20.282-8.083 29.552-14.705.21-.15.457-.24.714-.26.258-.018.516.034.746.152.23.117.42.296.557.516.135.22.207.472.207.73l.03 3.092c0 .465.233.707.697.727zm-249.59-21.197c2.547-1.262 5.192-2.62 7.937-4.075 2.22-1.174 3.9-2.73 5.048-4.67 1.483-2.51 3.09-5.085 4.824-7.72.087-.133.21-.24.353-.31.144-.067.304-.095.46-.08.16.017.31.075.438.172.127.095.226.224.285.37.246.623.294 1.264.144 1.926-1.974 8.643-4.85 16-8.633 22.067-1.484 2.386-3.583 4.3-6.122 5.52-3.06 1.474-6.096 3.007-9.114 4.598-2.035 1.065-3.81 2.416-5.325 4.055-1.816 1.966-3.575 5.093-5.274 9.38-1.933 4.847-3.895 9.625-5.888 14.335-3.024 7.135-8.247 11.766-15.668 13.896-5.74 1.646-11.745 2.575-18.012 2.785-.716.027-1.33-.188-1.843-.646-.17-.148-.306-.333-.397-.54-.09-.208-.136-.433-.13-.66.003-.228.058-.45.157-.656.1-.205.244-.385.42-.53 7.712-6.215 16.14-11.202 24.21-16.844 4.074-2.868 8.13-6.318 10.167-11.05 2.32-5.358 4.963-11.13 7.926-17.315 2.962-6.172 7.642-10.84 14.04-14.01zm157.154-5.263c.04.05.09.092.148.12.06.027.123.04.188.037.064-.003.127-.022.183-.054.055-.033.102-.078.135-.134l5.58-9.175c.255-.417.662-.722 1.135-.848.474-.126.978-.064 1.406.174 1.673.928 3.243 2.198 4.71 3.81 3.005 3.283 3.4 6.87 1.188 10.76-1.686 2.97-3.543 5.398-5.57 7.282-.312.293-.723.457-1.15.46-.428 0-.84-.16-1.155-.45l-6.4-5.878c-.085-.078-.187-.135-.3-.166-.11-.03-.226-.035-.34-.013-.112.025-.22.074-.31.146s-.16.164-.208.27c-1.508 3.256-3.348 6.048-5.52 8.376-.43.464-1.023.745-1.656.784-.632.04-1.255-.163-1.743-.57l-6.758-5.65c-.235-.197-.4-.462-.472-.76-.072-.296-.046-.608.072-.89 1.577-3.79 3.687-7.89 6.33-12.308.49-.833 1.043-1.506 1.658-2.018.327-.28.703-.36 1.126-.245 2.774.737 6.02 4.67 7.72 6.942zm327.895 25.324c.215.43.522 1.025.91 1.322 2.03 1.577 4.02 3.215 5.97 4.915 2.165 1.878 2.47 4.318.913 7.322-1.393 2.68-2.875 4.887-4.444 6.614-2.243 2.467-6.84 1.126-9.708.39-4.188-1.087-8.632-.063-11.182 3.337-2.444 3.25-4.97 6.497-7.578 9.74-6.563 8.16-16.937 14.11-27.136 9.45-5.284-2.416-13.67 1.117-18.34 3.882-.16.093-.34.144-.527.148-.185.004-.37-.04-.53-.125-.165-.086-.302-.213-.403-.368-.1-.154-.157-.33-.168-.516-.068-1.002.144-1.978.635-2.927 4.967-9.718 15.38-22.18 26.87-22.59 2.95-.102 5.786 1.086 8.643 1.977 4.597 1.443 10.373-1.076 13.772-4.148 2.847-2.573 5.046-5.1 6.595-7.577 6.093-9.76 12.42-19.866 21.81-26.286 3.42-2.336 7.77-3.944 13.047-4.824 4.29-.717 8.92 3.072 11.704-2.038 1.393-2.56 2.844-5.198 4.352-7.916.294-.525.656-.583 1.086-.174.32.308.464.697.43 1.168-.512 6.8-3.963 26.235-14.275 24.258-7.26-1.382-16.25-.716-22.302 4.23-.103.087-.175.206-.2.34-.027.135-.006.275.057.397zm-634.91-7.413c3.185-6.687 6.144-13.17 10.21-19.333.02-.032.047-.06.078-.08.032-.023.07-.037.107-.042.038-.006.077-.004.114.007.036.01.07.028.1.052 5.816 4.73 13.17 8.704 10.2 17.716-1.646 4.976-4.312 8.96-8 11.95-.386.314-.87.484-1.37.48-.498-.003-.98-.18-1.364-.5l-9.584-7.988c-.322-.268-.545-.637-.634-1.046-.09-.41-.04-.838.143-1.217zm738.344 8.735c-.147-.15-.246-.34-.286-.545-.04-.206-.02-.418.06-.612 2.676-6.534 5.922-12.803 9.738-18.81.035-.06.083-.11.14-.148.056-.038.12-.063.188-.075.067-.012.137-.01.204.01.067.015.13.047.185.09 5.22 4.074 12.4 8.252 9.89 16.342-1.494 4.827-4.013 8.783-7.556 11.868-1.7 1.474-3.42-.174-4.936-1.362-2.888-2.28-5.43-4.532-7.63-6.758zm143.83 17.438c2.745-6.827 5.48-14.47 8.203-22.927.348-1.085 1.044-2.222 1.7-3.164.167-.244.402-.432.676-.543.273-.11.573-.137.862-.078.29.058.554.2.763.41.21.208.352.473.41.762.274 1.344.28 2.864.02 4.557-2.013 13.072-5.46 26.152-10.34 39.238-2.673 7.148-6.257 12.84-13.497 16.005-7.667 3.34-15.214 5.656-22.64 6.953-.25.04-.504.015-.738-.075-.235-.09-.44-.243-.594-.44-.155-.198-.252-.433-.283-.682-.03-.247.008-.498.11-.727.825-1.855 2.183-3.47 4.074-4.842 6.274-4.54 12.122-9.066 17.542-13.578 3.644-3.04 6.436-6.257 8.375-9.657 1.932-3.407 3.717-7.144 5.355-11.213zm-212.857 12.77c.182-.258.44-.454.737-.56.297-.106.618-.118.92-.034 3.667 1.024 6.852 4.833 8.84 7.864 2.65 4.065-3.667 13.066-6.36 16.312-.217.262-.522.433-.86.483-.336.05-.68-.028-.963-.216l-9.134-6.064c-.385-.253-.676-.625-.832-1.06-.154-.432-.164-.905-.028-1.346 1.625-5.317 4.185-10.445 7.68-15.38zm-513.374 18.76c1.706-3.073 3.567-6.192 5.58-9.36.485-.75 1.072-1.337 1.76-1.76.288-.17.585-.196.892-.073 3.34 1.31 6.124 4.178 7.916 7.23 2.97 5.068-1.004 10.772-4.127 14.858-.86 1.126-1.78 2.02-2.764 2.683-1.03.703-2.007.63-2.928-.216l-7.066-6.522c-.075-.07-.166-.122-.265-.15-.1-.027-.205-.03-.306-.008-.1.022-.194.07-.273.135-.08.068-.14.153-.18.248-1.316 3.318-3.378 6.533-6.184 9.646-1.485 1.64-3.226.974-4.608-.255-2.19-1.938-4.383-3.774-6.574-5.51-.886-.702-1.1-1.57-.644-2.6 2.39-5.366 5.086-10.404 8.09-15.114.266-.42.675-.73 1.153-.873.477-.142.99-.108 1.446.096 3.103 1.392 6.063 5.058 8.15 7.628.35.438.66.41.933-.08zm485.95 3.563c.238.32.464.31.676-.03l6.04-9.883c.608-.99 1.428-1.215 2.46-.675 3.773 2 6.317 4.72 7.628 8.16 1.853 4.865-3.595 11.96-6.78 15.003-.41.39-.955.61-1.52.613-.568.005-1.115-.207-1.53-.592l-6.688-6.175c-.07-.067-.157-.116-.25-.144-.096-.028-.195-.032-.29-.013-.097.02-.19.06-.265.12-.076.063-.137.142-.177.23-1.468 3.175-3.386 6.155-5.754 8.94-.488.57-1.178.924-1.92.988-.746.063-1.484-.17-2.054-.65l-7.117-5.95c-.61-.498-.76-1.108-.452-1.832 2.102-4.956 4.717-9.895 7.844-14.817.094-.147.215-.272.355-.37.14-.1.298-.168.464-.204 3.135-.665 7.743 5.202 9.33 7.28z"/></svg>