<svg viewBox="0 0 1024 1024.0246" xmlns="http://www.w3.org/2000/svg"><path d="M929.426 141.383l-285.966.23c-.167.003-.327.07-.446.185l-51.74 49.585c-.12.116-.283.18-.452.18-.168 0-.33-.064-.454-.18l-64.16-59.794c-.064-.06-.113-.134-.15-.214-.034-.08-.053-.166-.054-.253 0-.088.015-.174.048-.256.032-.08.08-.153.14-.216l76.738-79.198c.063-.063.137-.114.218-.15.082-.033.17-.05.26-.05l419.393-2.045c.176 0 .345.07.468.194.125.126.194.293.194.468l-.215 398.76c0 .093-.02.185-.056.27-.036.084-.09.16-.16.223L805.67 650.555c-.068.063-.123.138-.16.223-.037.084-.056.176-.056.27l.154 161.717c0 .086-.017.172-.05.254-.033.08-.082.152-.144.213-.06.063-.133.112-.213.144-.08.034-.165.05-.253.05l-170.005-1.567c-.088 0-.177.017-.26.05-.08.036-.154.087-.217.15l-39.945 39.9c-.12.117-.282.183-.45.186-.168.003-.333-.058-.458-.172l-65.852-61.5c-.063-.06-.112-.133-.148-.213-.035-.08-.054-.166-.055-.253-.002-.088.015-.174.048-.256.032-.08.08-.153.14-.216l66.267-67.16c.063-.063.137-.114.22-.15.08-.033.17-.05.257-.05l115.683 1.092c.09 0 .18-.014.262-.048.083-.032.158-.083.223-.146.063-.063.112-.138.146-.22.032-.084.05-.174.046-.263l-1.046-109.057c0-.093.02-.185.056-.27.038-.084.092-.16.16-.222l220.636-198.835c.07-.063.123-.138.16-.223.037-.084.057-.177.055-.27l-.783-271.666c0-.175-.07-.343-.193-.468-.124-.124-.293-.193-.468-.193zM96.82 144.535v267.1c0 .293.057.582.17.85.115.27.28.514.49.72l53.937 51.922c.246.246.24.487-.016.722l-64.068 60.255c-.126.114-.29.177-.46.177-.172 0-.336-.063-.462-.177L.554 448.198c-.174-.153-.314-.343-.41-.555-.095-.212-.144-.44-.144-.675V53.85c0-.182.072-.358.203-.488.13-.13.306-.203.49-.203h420.53c.68 0 1.332.263 1.815.737l211.873 207.49c.504.493 1.183.77 1.892.77l167.376-.016c.564 0 .846.284.846.846l-.692 159.197c0 .322.063.64.188.935.124.297.306.564.535.787l42.56 41.099c.46.44.45.876-.032 1.306L781.16 526.63c-.17.158-.394.244-.626.244-.23 0-.452-.086-.618-.244-22.11-20.827-44.19-41.507-66.237-62.04-1.62-1.516-3.112-3.053-4.475-4.612-.34-.39-.534-.846-.585-1.37-.327-3.063-.487-6.276-.476-9.64.092-34.532.143-66.6.153-96.203 0-.29-.115-.567-.32-.772-.204-.203-.482-.318-.77-.318l-108.32.03c-1.223 0-2.398-.473-3.276-1.322L381.68 143.78c-.266-.256-.62-.4-.984-.4H97.972c-.77 0-1.153.386-1.153 1.155zm1 786.22l285.828-.23c.207-.004.404-.087.553-.232l51.51-49.37c.15-.148.356-.23.568-.23.212 0 .416.082.57.23l62.223 61.41c.076.074.136.165.178.264.04.1.06.206.06.312 0 .106-.02.212-.06.31-.042.1-.102.19-.177.265l-74.785 77.154c-.077.077-.168.14-.268.182-.1.04-.207.063-.316.063l-419.163 2.137c-.107 0-.213-.02-.312-.062-.098-.04-.19-.1-.264-.176-.075-.076-.135-.166-.176-.265-.04-.1-.062-.205-.062-.313l.108-398.545c0-.112.023-.223.068-.327.044-.104.11-.196.193-.273l217.286-201.356c.083-.076.148-.17.194-.272.044-.103.068-.215.068-.327l-.14-161.503c0-.11.02-.218.06-.32.04-.1.103-.194.18-.272.076-.077.17-.138.272-.178.1-.042.21-.062.32-.06l169.836 1.522c.11 0 .217-.022.317-.063.1-.043.19-.105.267-.183l40.13-40.038c.15-.146.35-.23.558-.23.21-.003.41.073.564.215l65.253 61.578c.08.076.143.165.186.265.044.1.07.207.07.317 0 .11-.02.216-.06.318-.04.1-.102.192-.18.27l-66.052 66.99c-.077.078-.168.14-.267.182-.1.042-.207.063-.316.063l-115.546-1.076c-.217 0-.423.086-.577.238-.15.154-.237.362-.237.577l1.076 108.81c0 .117-.025.233-.073.34-.048.105-.117.2-.204.276L96.512 657.948c-.088.076-.157.17-.205.277-.05.106-.072.222-.072.337l.77 271.375c0 .216.085.424.237.576.154.152.36.238.577.238zm462.397-543.366c3.567 33.163-11.086 56.58-44.71 61.592-.627.093-.975-.173-1.047-.8-3.828-30.427 13.254-58.425 44.91-61.485.514-.05.796.18.847.692zM503.25 615.466c-21.6 7.795-39.805 2.46-55.534-13.653-30.228-30.982-41.59-73.648-28.276-115.07 9.04-28.106 33.934-45.465 63.93-37.67 6.234 1.62 12.543 3.29 18.928 5.013 11.47 3.075 22.613 2.803 33.426-.815 4.69-1.568 8.795-4.26 13.454-5.965 13.668-4.998 29.86.83 41.037 9.425 19.726 15.16 27.245 44.51 25.86 68.65-1.587 27.85-11.854 52.48-30.796 73.895-10.533 11.9-24.725 20.587-41.07 18.68-4.662-.542-9.51-1.63-14.544-3.26-8.496-2.766-17.302-2.51-26.415.77zm140.595-76.57c2.02-.502 3.987-.415 5.904.262.533.183.814.563.845 1.137.82 20.644 1.19 36.798 1.107 48.463-.092 15.806-7.78 28.83-17.45 40.73-9.052 11.142-18.036 20.28-26.954 27.414-8.57 6.846-19.245 12.715-32.027 17.604-42.112 16.13-92.266 17.667-131.95-6.042-23.417-14.007-43.22-31.397-57.227-54.875-2.04-3.432-3.47-6.702-4.29-9.808-2.245-8.518-2.137-19.035-1.645-28.09.645-11.47.973-23.023.984-34.657 0-.314.083-.623.238-.895.157-.272.38-.5.654-.658 1.957-1.138 4.197-1.42 6.72-.846.89.205 1.393-.143 1.505-1.045.287-2.172 1.173-4.146 2.66-5.92.32-.377.716-.683 1.163-.897.448-.214.935-.33 1.43-.34.495-.013.987.08 1.444.273.457.192.867.48 1.205.842 1.456 1.568 2.28 3.424 2.476 5.566 1.384 15.242 2.752 29.9 4.105 43.974.008.084-.003.17-.034.25-.03.08-.08.153-.14.21-.064.058-.14.1-.22.125-.082.024-.168.03-.253.014-5.35-.968-14.883-2.52-15.252 5.566-.2 4.136 1.122 8.995 3.475 12.485 8.836 13.15 18.7 25.442 29.597 36.87 4.336 4.55 13.408 15.59 19.435 16.452.213.03.432.004.633-.076.202-.08.378-.212.514-.38.134-.17.222-.37.255-.585.034-.215.01-.433-.066-.636-1.323-3.506-3.173-6.658-5.55-9.456-12.486-14.688-24.56-28.85-36.226-42.482-3.367-3.936-5.073-11.962 2.553-12.562 3.413-.277 6.996 2.137 9.333 4.52 6.877 7.042 13.914 14.028 21.11 20.957 6.857 6.582 14.1 12.086 23.4 13.762 8.75 1.568 18.02 1.845 26.524 4.66 14.637 4.857 23.555 16.497 34.333 26.952.083.08.183.144.294.184.11.04.228.057.345.048.117-.008.232-.042.337-.097.104-.058.197-.135.27-.228 3.578-4.51 7.135-9.052 10.67-13.623 5.736-7.427 13.347-11.163 21.91-14.392 6.75-2.537 13.777-3 20.88-3.183 9.21-.246 17.22-4.766 23.525-11.608 6.345-6.91 12.685-14.003 19.02-21.28 4.008-4.613 8.302-7.062 12.884-7.35 9.887-.614 6.428 10.38 2.815 14.715-12.22 14.657-24.8 29.69-37.747 45.096-1.28 1.517-1.742 3.202-1.384 5.058.215 1.087 1.584.866 4.106-.66.973-.585 1.87-1.282 2.69-2.092 13.223-13.007 26.856-28.68 40.9-47.018 1.824-2.368 3.09-4.643 3.796-6.826 3.706-11.486-6.473-14.715-15.252-14.715-.687 0-.995-.342-.923-1.03 1.63-14.606 3.23-28.956 4.8-43.05.245-2.307 2.26-4.706 4.734-4.63 3.952.14 5.812 3.476 6.027 7.105.032.645.36.89.985.738zM924.32 659.84l-52.736-49.662c-.066-.063-.12-.14-.157-.225-.035-.084-.055-.175-.055-.267 0-.092.02-.183.055-.268.037-.084.09-.16.157-.224l64.73-60.625c.125-.12.288-.187.458-.19.173-.004.34.06.465.173l83.903 76.108c.068.065.122.14.16.226.037.085.055.175.055.268l-.015 393.563c0 .18-.07.352-.197.478-.127.128-.3.198-.48.198l-421.33.016c-.18 0-.35-.073-.477-.2L385.86 810.564c-.126-.128-.296-.198-.476-.2l-168.376.016c-.088 0-.177-.016-.258-.05-.082-.036-.157-.085-.22-.148-.063-.063-.112-.137-.146-.218-.034-.083-.052-.17-.052-.26l.707-159.98c0-.093-.02-.184-.057-.268-.038-.085-.092-.162-.16-.225l-40.59-39.16c-.067-.064-.12-.14-.153-.226-.035-.086-.054-.177-.052-.27.002-.09.022-.182.06-.266.038-.083.092-.16.16-.222l65.59-61.824c.127-.117.292-.182.463-.182.173 0 .337.065.462.182l70.127 65.653c.067.063.12.14.16.224.036.084.054.174.054.267l.016 106.766c0 .18.072.352.198.48.127.126.3.197.478.197l110.334.03c.177-.002.35.064.476.185L639.862 928.97c.13.122.3.188.476.185l283.522.016c.09 0 .177-.016.26-.05.082-.034.157-.085.22-.148.06-.063.112-.136.146-.218.034-.083.05-.17.05-.26V660.332c0-.092-.018-.183-.056-.267-.037-.085-.09-.162-.16-.225z"/></svg>