<svg viewBox="0 0 1024 1024" xmlns="http://www.w3.org/2000/svg"><path d="M85.333 341.333h469.334q8.846 0 15.075 6.258Q576 353.82 576 362.67q0 8.846-6.258 15.075-6.23 6.258-15.075 6.258H85.333q-8.846 0-15.075-6.257Q64 371.513 64 362.667q0-8.847 6.258-15.076 6.23-6.256 15.075-6.256zM256 682.667h85.333q8.847 0 15.076 6.257 6.256 6.23 6.256 15.076t-6.258 15.076q-6.23 6.257-15.077 6.257H256q-8.846 0-15.076-6.257-6.257-6.23-6.257-15.076t6.257-15.076q6.23-6.257 15.076-6.257zm192 0h170.667q8.846 0 15.075 6.257Q640 695.154 640 704t-6.258 15.076q-6.23 6.257-15.075 6.257H448q-8.846 0-15.076-6.257-6.257-6.23-6.257-15.076t6.257-15.076q6.23-6.257 15.076-6.257zm512-199.254V687.36q0 121.23-44.26 164.978Q871.595 896 749.227 896H274.773q-122.368 0-166.513-43.662Q64 808.59 64 687.36V336.64q0-121.23 44.26-164.978Q152.405 128 274.773 128h291.84q8.847 0 15.076 6.258 6.256 6.23 6.256 15.075 0 8.847-6.258 15.076-6.23 6.256-15.077 6.256H274.77q-104.845 0-136.532 31.317-31.573 31.232-31.573 134.656v350.72q0 103.423 31.573 134.655 31.687 31.317 136.533 31.317h474.455q104.846 0 136.533-31.317 31.573-31.232 31.573-134.656V483.412q0-8.846 6.26-15.075 6.23-6.258 15.076-6.258t15.075 6.258q6.26 6.23 6.26 15.075zm-234.667-366.08H858.88q74.667 0 74.667 74.667t-74.667 74.667H725.333q-8.846 0-15.075-6.258Q704 254.18 704 245.33V138.667q0-8.847 6.258-15.076 6.23-6.256 15.075-6.256zM746.667 160v64H858.88q32 0 32-32t-32-32H746.667zm-21.334 64h152.32Q960 224 960 298.667q0 74.666-82.347 74.666h-152.32q-8.846 0-15.075-6.257Q704 360.846 704 352V245.333q0-8.846 6.258-15.075 6.23-6.258 15.075-6.258zm21.334 42.667v64h130.986q39.68 0 39.68-32t-39.68-32H746.667zM821.787 352v53.333q0 8.847-6.256 15.076-6.256 6.256-15.074 6.256-8.846 0-15.104-6.258-6.228-6.23-6.228-15.077V352q0-8.846 6.23-15.076 6.257-6.257 15.103-6.257 8.818 0 15.076 6.257 6.258 6.23 6.258 15.076zm0-266.667v53.334q0 8.846-6.256 15.075Q809.275 160 800.457 160q-8.846 0-15.104-6.258-6.228-6.23-6.228-15.075V85.333q0-8.846 6.23-15.075Q791.608 64 800.454 64q8.818 0 15.076 6.258 6.258 6.23 6.258 15.075zM776.107 160h-93.44q-8.846 0-15.075-6.258-6.257-6.23-6.257-15.075 0-8.847 6.258-15.076 6.23-6.256 15.077-6.256h93.44q8.846 0 15.075 6.258 6.258 6.23 6.258 15.077 0 8.845-6.258 15.074-6.23 6.258-15.075 6.258zm0 213.333h-93.44q-8.846 0-15.075-6.257-6.257-6.23-6.257-15.076t6.258-15.076q6.23-6.257 15.077-6.257h93.44q8.846 0 15.075 6.257 6.258 6.23 6.258 15.076t-6.258 15.076q-6.23 6.257-15.075 6.257z"/></svg>