<svg viewBox="0 0 1024 1024" xmlns="http://www.w3.org/2000/svg"><path d="M360.2 2.2C329.4 8.2 307.8 20 284 44c-15.6 15.4-20.8 22.2-27.6 36-8.4 16.8-16.4 43.4-16.4 54.2 0 4.6-1.2 5.8-7.4 7.8-15.6 5-38.8 18.8-51.4 30.2-39.6 36.4-56.4 92.6-46 153.6 3 18 3 18.6-.8 22.8-13.8 15.2-27.4 48.6-30.4 74.8-1.8 16.4-2.4 17.8-8.4 22.4-26.4 20-48 57.4-58.2 100.8-3.4 15-4.2 24.6-4.2 51.4.2 29.2.8 35.2 5.4 53 10.4 39 32 73 59.4 93.8l13 9.8.2 22.2c.2 18.2 1.2 25.2 5.4 38.2 15 46 54.8 84.4 99.6 96 7 2 21.2 4 31.6 4.8l18.8 1.2 2.4 8c15.6 52.8 78 98.8 133.6 99 28.2 0 60.8-11.2 90.8-31.2l18.6-12.4 18.6 12.4c51 34.2 99.8 40 146.4 17.4 37-17.8 64.6-47.4 77-82.8l3.6-10.4 18.8-1.2c39-2.8 66.6-14.8 92.8-40.8 18.6-18.4 30.8-37.8 38.2-60.4 4.2-12.6 5.2-19.8 5.4-37.8l.2-22.2 13-9.8c63-47.8 84-149.8 48.2-236.2-10.4-25.4-30-52-47-63.8-5-3.6-5.8-5.6-7.2-20-2.6-26.4-13.4-53.6-28.8-73.6-5.8-7.6-5.8-7.8-3.4-19 3.8-17.2 5-51.2 2.4-68-5.6-35.6-20-64.4-44-88.2-15-15-36-28-54.6-34-6.4-2-7.6-3.2-7.6-7.8 0-10.8-8-37.4-16.4-54.2-11.2-22.4-39.4-51.4-60.6-62.4-39.2-20.2-81-22.8-121.2-7.4-25.2 9.6-52.6 31.4-66.2 52.2-3.2 5.4-6.8 9.6-7.6 9.6-.8 0-4-3.8-7-8.4-14.2-21.4-38.8-41.8-63.2-52-24.6-10.4-57.6-14.2-81.6-9.4zM409.8 43c28.4 6.8 54.6 27.4 68.6 54.2 11.8 22.6 13.6 33.2 13.6 86.4v46.6l-4.4-1.4c-17.8-5.4-29.2-16.6-47.4-46.4-28-45.6-52.6-62.2-68.4-46.6-9.6 9.8-7.4 23.4 5.4 32.2 9.2 6.2 16.8 16 33.8 42.8 7.6 12 18.4 26.6 24.2 32.4 11.4 11.4 29.8 21.4 46.4 25.2L492 271v72.4c0 40-.6 72.6-1.4 72.6-.6 0-7-1-14-2.2-30.8-5.4-68.6 12-68.6 31.4 0 9.2 2.8 14 10.4 18 7.2 3.8 15.6 2.6 23-3.2 11-8.6 27-9.6 43.2-2.6l7.4 3.2v177l-17.8-7.8c-30.4-13-63.4-19.2-89-16.6-11.6 1-15 2.2-19.6 6.8-6 6.2-7.2 14.2-3.4 22.6 3.8 8.6 9.2 10.2 33.8 10.6 30.8.4 52.4 6.6 82.6 23.6l13.4 7.4V945l-11.6 8.6c-14.6 11-40.2 23.6-55.4 27.4-31.8 8-62.6-1.4-90.4-27.8-10.4-9.8-16.6-17.6-21.6-27.8-3.8-7.6-7-15-7-16.4 0-1.4 7.8-6.2 17.2-10.8 24-11.4 44.4-26.2 67.2-48.2 19-18.2 19.6-19.4 19.6-27.6 0-11.6-8.2-20.4-19-20.4-6.4 0-9.4 1.8-21.8 13.8-40 38.4-74.6 57-110.2 59.6-48 3.4-93.4-30.4-106-78.4-1.6-6.6-3-14.4-3-17.6 0-5.4.4-5.8 5.6-4.6 30.2 6.4 42.2 7.8 48.2 5.2 10.8-4.4 15-16.8 9.2-27.8-3.4-7-5.2-7.6-28.2-12.2-56.6-11.2-92.6-44-107.2-97.8-6.2-22.6-6.2-66.4 0-91.2 5.4-21 17.2-46.8 26.8-57.8l6.8-7.8 7.2 12c12.6 20.4 40.4 42.6 53.4 42.6 6.8 0 14.4-4.6 17.4-10.2 6-12 2.2-21.6-12.2-29.6-13.2-7.6-23.8-19.8-29.2-34-7.4-19.8-5-52.6 5.6-72.8l2.8-5.8 10.4 15.8c5.6 8.6 15.8 21.4 22.6 28.4 12.4 12.6 12.6 12.8 21.2 11.6 11.2-1.4 17.6-8.6 17.6-19.4 0-6.4-1.6-9.6-10-19.2-19.2-22-34-48.6-41-73.8-8-29.4-5.6-69.4 6-94.4 10.2-22.4 30.8-43.4 50.6-51.8 9.4-3.8 9.8-3.8 11.4 4.6 2 11.8 17.6 42.4 28 55.2 14.4 18.2 27.8 21.2 38 9 8-9.4 6.8-16.4-6.4-33.6-17.8-23.8-24.6-43.2-24.6-71 0-30.8 10.2-55.2 32.2-77.6C338.6 45 374 34.6 409.8 43zm248.4-1c37.8 7.2 72.6 40.6 82.8 79 5.8 22.6 3 53.8-6.8 75.8-2 4.6-8.6 15-14.8 23.2-13.2 17.2-14.4 24.2-6.4 33.6 10.2 12.2 23.6 9 38-9 10.4-13.2 26-43.8 28.2-55.2 1.2-7 1.8-7.6 6.4-6.4 9 2.2 23 11.6 34.6 23.2 13.6 13.6 24.6 34.6 29 55.8 3.8 17.8 2.8 50.4-2.2 69-5.4 20.2-21.6 50.4-37 68.8-12 14.2-14 17.8-14 24.4 0 10.4 6.6 17.8 17.2 19.2 7.4 1 9 .4 16.8-6.6 9.8-8.8 23-25.6 31-39.6 5.2-9 5.8-9.4 8.4-6 5.8 8 11 29.6 11 46.8 0 28.8-11.2 49.6-33.4 62.2-14.4 8-18.2 17.6-12.2 29.6 3 5.6 10.6 10.2 17.4 10.2 13 0 40.8-22.2 53.4-42.6l7.2-12 6.8 7.8c9.4 10.8 21.2 36.4 26.6 57.8 3.8 14.2 4.6 23.6 4.8 45 0 32.6-3.8 51-15.2 74-19.2 38.4-48.8 60-95.8 69.6-24 5-25.6 5.6-29 12.6-5.8 11-1.6 23.4 9.2 27.8 6 2.6 17.6 1.2 48.6-5.4l5.8-1.2-1.6 11.8c-4 32.6-25 62.6-54.6 78.4-47.4 25.4-101 10.6-158.8-43.4-17.2-16-20.4-18.2-26.8-18.2-10.6 0-18.8 8.8-18.8 20.4 0 8.2.6 9.4 19.6 27.6 22.8 22 43.2 36.8 67.2 48.2 9.4 4.6 17.2 9.4 17.2 10.8 0 1.4-3.2 8.8-7 16.4-16.6 33-56.6 58.6-91.6 58.6-19.8 0-52.8-13.2-75.8-30.4L532 945V684.8l15.2-8.8c19.6-11.2 41.8-19 62.6-22 14-2.2 16.8-3.2 21.2-8.4 6.8-8.2 6.6-17.6-.6-25.8-5.2-5.8-6.6-6.4-17.4-6-16.4.4-41.4 6.6-62.8 15.8l-18.2 8v-177l7.6-3.2c16-7 32-6 43 2.6 7.4 5.8 15.8 7 23 3.2 7.6-4 10.4-8.8 10.4-18 0-19.4-37.8-36.8-68.6-31.4-7 1.2-13.4 2.2-14 2.2-.8 0-1.4-32.8-1.4-72.8v-72.8l9-1.2c14.4-2.2 36.2-14.4 48.8-27.2 6.2-6.4 16.6-20.2 23.2-31 15.2-25 24.4-36.6 33.6-43 13-8.8 15.4-22.4 5.6-32.2-15.8-15.6-40.4 1-68.4 46.6-18.4 30-29.6 41-47.4 46.6l-4.8 1.4.8-51.8c.6-49.8.8-52 6-66 18.4-50.8 68.4-80.2 119.8-70.6zM295.8 343.8C283.4 356.2 292 376 310 376c6.6 0 9.6-1.2 14.2-5.8C336.6 357.8 328 338 310 338c-6.6 0-9.6 1.2-14.2 5.8zm41 78.8c-4.6 4-5.4 6.6-7 22.8-1.8 20.2-6.2 31.6-16.6 43.8-11.8 14-13.6 20.4-8.4 30.6 3.2 6 10.8 10.2 18.6 10.2 7.4 0 26.4-19.8 34.4-35.8 10.8-21.4 15.6-52.6 9.8-65.2-5-11-21.4-14.4-30.8-6.4zM199 617c-24.2 5.4-31 10.6-31 24.2 0 6.4 1.2 9.6 5.4 13.6 6 6.2 10.4 6.2 37.2 1 15.8-3 34-.8 48.4 6.2 21.6 10.4 39 33.8 42.8 57.4 3.2 20 7.2 24.6 21.6 24.6 11.6 0 18.6-8 18.6-20.8 0-13.2-5-31.8-12.6-46.2-8.2-15.8-32.8-40.2-48.8-48.6-24.8-13-55.2-17.2-81.6-11.4zm500.4-273c-7 6.2-24.2 29.8-30.4 41.8-18.6 36.6-19.4 77-1.8 110.4 8.6 16.4 26 33.8 33.8 33.8 7.6 0 15.8-4.8 18.6-11 4.6-9.8 2.6-17-7.8-28-9.4-10.2-16.2-26.4-17.4-41.2-1.6-23.2 8.4-47.8 30.4-74.8 11.4-14 12.4-22.2 3.4-31.2-8.2-8.2-19.4-8.2-28.8.2zm71 274c-22 5.8-37.4 15-54.4 32-22.2 22-34 47.6-34 73 0 13.2 7 21 18.8 21 14.2 0 18.2-4.8 21.4-24.6 7-42.6 48.8-71.8 91.4-63.6 26.6 5.2 31 5.2 37-1 7.4-7.4 7.6-20 .4-27.2-11.6-11.8-54.4-16.8-80.6-9.6z"/></svg>