<svg viewBox="0 0 1024 1024" xmlns="http://www.w3.org/2000/svg"><path d="M469.333 938.667q-66.474 0-94.634-50.56l-.514-.94q-21.29 4.95-43.947 0-26.198-5.76-48.17-23.466-21.634-17.49-34.178-42.664-11.648-23.34-13.056-48.342-22.997-3.626-42.752-16.512-23.125-15.06-36.437-39.252-13.27-24.192-13.61-51.797-.342-27.562 12.373-52.053 6.53-12.586 15.702-22.826-14.592-13.055-23.936-31.36-11.605-22.826-12.5-48.64-.855-25.94 9.343-49.023 10.41-23.51 29.907-38.57 8.704-6.7 18.26-11.01-12.97-23.422-17.833-51.41-6.656-38.103 3.285-75.99 9.94-38.017 34.303-67.03 24.747-29.525 58.54-42.837 26.92-10.583 54.4-8.92 17.62-58.793 81.45-58.793 55.594 0 75.562 41.258 10.112 20.907 9.813 60.8-.043 3.158-.043 4.608v704q0 8.832-6.23 15.104-6.272 6.23-15.104 6.23zM284.16 736.597q-7.168 13.867-6.827 30.934.384 17.75 8.747 34.476 8.405 16.854 22.784 28.502 14.123 11.392 30.507 14.976 11.65 2.56 22.444.682-1.493-26.24 13.483-52.352 4.395-7.68 12.928-9.984 8.533-2.305 16.17 2.09 7.68 4.395 9.985 12.928 2.303 8.533-2.092 16.17-14.933 26.07-.3 52.353 11.436 20.567 36.012 26.37V213.333q0-1.578.043-4.95.213-29.95-5.59-41.898-8.277-17.152-37.12-17.152-32.213 0-40.66 28.715-8.62 29.27 11.988 47.104 6.658 5.76 7.298 14.593.64 8.79-5.162 15.488-5.76 6.7-14.592 7.297-8.832.64-15.488-5.12Q324.18 236.16 319.956 208q-17.535-.725-34.815 6.1-23.72 9.345-41.512 30.55-18.176 21.675-25.728 50.433-7.553 28.885-2.52 57.856 4.993 28.584 21.036 50.302 15.573 21.12 38.06 30.762 8.105 3.5 11.39 11.734 3.243 8.19-.255 16.297-3.454 8.107-11.69 11.392-8.19 3.285-16.3-.214-21.8-9.344-38.995-25.77-10.624 2.047-19.627 8.96-10.922 8.447-16.938 22.1-6.273 14.123-5.72 30.337.556 16.298 7.852 30.634 7.125 14.038 19.03 22.7 11.39 8.32 24.447 9.727 8.79.94 14.334 7.85 5.504 6.87 4.566 15.66-.938 8.79-7.85 14.336-6.87 5.546-15.66 4.565-7.08-.767-13.823-2.56-10.58 8.66-16.98 20.95-7.766 15.02-7.553 31.915.213 16.895 8.363 31.743 8.15 14.805 22.314 24.064 11.65 7.594 25.09 9.94 2.39-6.826 5.76-13.354 4.054-7.85 12.46-10.538 8.447-2.688 16.3 1.365 7.85 4.053 10.536 12.46 2.688 8.447-1.365 16.297zm42.41-232.704q13.44.512 25.643-6.357 12.715-7.21 21.163-20.693 8.79-13.995 10.752-31.275 2.005-17.408-3.37-33.792-5.29-16.043-16.342-27.136-6.23-6.23-6.23-15.104.043-8.832 6.315-15.06 6.23-6.23 15.064-6.23 8.832.042 15.104 6.27 18.176 18.263 26.624 43.905 8.32 25.304 5.25 52.013-3.116 26.88-16.983 49.067-14.21 22.655-36.395 35.2-22.7 12.8-48.17 11.817-8.833-.298-14.85-6.784-6.015-6.485-5.674-15.317.34-8.832 6.827-14.848 6.443-6.016 15.275-5.675zm140.93 155.05q-15.063 0-27.436 6.444-11.82 6.144-18.432 16.768-6.528 10.453-6.613 23.04-.088 8.832-6.36 15.06-6.314 6.188-15.146 6.102-8.832-.042-15.062-6.357-6.186-6.272-6.1-15.104.17-24.66 13.098-45.312 12.8-20.523 34.945-32.043 21.59-11.262 47.06-11.262 8.833 0 15.105 6.23 6.23 6.23 6.23 15.06 0 8.876-6.23 15.105-6.23 6.272-15.06 6.272zM279.466 591.83q16.938-.214 31.19 7.978 14.42 8.32 22.442 23.04 7.807 14.336 7.636 31.275-.085 8.832-6.4 15.018-6.315 6.19-15.147 6.104-8.833-.086-15.02-6.4-6.186-6.315-6.1-15.147.042-5.845-2.433-10.41-2.26-4.182-6.272-6.486-4.138-2.39-9.386-2.303-8.833.085-15.148-6.1-6.315-6.145-6.443-15.02-.086-8.832 6.1-15.147 6.145-6.315 14.977-6.4zm34.26-272.77q-2.218-.68-4.692-.04-3.115.767-5.846 3.327-3.2 2.986-4.907 7.338-1.79 4.523-1.535 9.26.256 4.35 2.176 7.68 4.395 7.636 2.09 16.17-2.303 8.533-9.94 12.928-7.68 4.437-16.213 2.133-8.535-2.304-12.93-9.984-6.954-12.075-7.765-26.54-.81-14.08 4.438-27.305 5.29-13.355 15.53-22.912 10.667-9.942 24.235-13.44 14.208-3.627 27.947.597 8.448 2.603 12.586 10.41 4.097 7.81 1.495 16.257-2.603 8.446-10.41 12.584-7.81 4.14-16.257 1.536zm219.65 598.273v-704q0-1.45-.044-4.608-.298-39.893 9.814-60.8 19.968-41.258 75.562-41.258 63.317 0 81.28 58.24.085.256.17.554 27.477-1.662 54.4 8.92 33.792 13.31 58.54 42.837 24.36 29.013 34.303 67.03 9.94 37.887 3.286 75.99-4.864 27.988-17.835 51.412 9.56 4.31 18.263 11.007 19.498 15.02 29.91 38.57 10.196 23.083 9.343 49.025-.896 25.814-12.5 48.598-9.345 18.347-23.937 31.403 9.173 10.24 15.7 22.827 12.716 24.49 12.374 52.054-.34 27.606-13.61 51.798-13.312 24.15-36.438 39.253-19.754 12.887-42.752 16.513-1.408 25.046-13.056 48.342-12.545 25.173-34.177 42.666Q720 881.41 693.804 887.17q-22.656 4.95-43.947 0l-.512.94q-28.16 50.56-94.635 50.56-8.834 0-15.106-6.23-6.23-6.273-6.23-15.105zm244.436-200.32q3.37 6.528 5.76 13.355 13.44-2.347 25.088-9.94 14.167-9.26 22.316-24.065 8.15-14.848 8.363-31.744.21-16.898-7.554-31.917-6.4-12.288-16.982-20.95-6.74 1.793-13.824 2.56-8.788.982-15.657-4.565-6.912-5.547-7.85-14.337-.94-8.79 4.564-15.657 5.547-6.912 14.336-7.85 13.056-1.41 24.448-9.73 11.906-8.66 19.03-22.698 7.298-14.336 7.85-30.634.557-16.213-5.715-30.335-6.016-13.654-16.94-22.102-9-6.912-19.625-8.96-17.196 16.427-39 25.77-8.105 3.5-16.297.214-8.235-3.286-11.69-11.393-3.5-8.106-.257-16.298Q741.46 437.5 749.568 434q22.485-9.64 38.06-30.76 16.04-21.72 21.033-50.305 5.037-28.972-2.515-57.857-7.552-28.758-25.728-50.432-17.792-21.205-41.515-30.55-17.32-6.825-34.857-6.1-4.182 26.88-26.966 47.83-6.486 5.973-15.318 5.63-8.832-.383-14.805-6.868-6.016-6.528-5.632-15.36.384-8.832 6.87-14.805 19.84-18.262 11.007-46.934-8.66-28.16-40.49-28.16-28.843 0-37.12 17.15-5.803 11.948-5.59 41.9.043 3.37.043 4.95v680.41q24.576-5.804 36.01-26.37 14.635-26.282-.298-52.35-4.395-7.64-2.09-16.172 2.303-8.533 9.983-12.928 7.637-4.395 16.17-2.09 8.534 2.303 12.93 9.983 14.975 26.112 13.48 52.352 10.796 1.878 22.444-.682 16.384-3.584 30.507-14.976 14.378-11.648 22.826-28.502 8.32-16.725 8.704-34.474.34-17.065-6.827-30.932-4.054-7.85-1.366-16.298 2.688-8.407 10.582-12.46 7.85-4.053 16.254-1.365 8.405 2.688 12.458 10.538zM724.907 535.68q-24.918 5.205-49.45-3.627-23.98-8.618-41.772-28.586-17.408-19.542-24.96-45.526-7.51-25.81-3.54-52.136 1.322-8.747 8.447-13.995 7.083-5.25 15.83-3.926 8.746 1.322 13.994 8.448 5.248 7.083 3.925 15.83-2.56 17.067 2.306 33.877 4.864 16.725 15.872 29.055Q676.14 487 689.878 491.95q13.184 4.735 26.326 1.96 8.66-1.792 16.042 3.07 7.424 4.824 9.216 13.485 1.793 8.66-3.028 16.043-4.864 7.38-13.525 9.173zm-68.95 155.52q15.02-.64 27.136-7.552 11.52-6.656 17.707-17.536 6.1-10.71 5.675-23.296-.3-8.832 5.76-15.275 6.016-6.44 14.848-6.74 8.832-.3 15.274 5.718 6.486 6.06 6.784 14.89.813 24.62-11.22 45.782-11.946 21.034-33.62 33.45-21.12 12.117-46.55 13.184-8.832.384-15.317-5.59-6.528-5.973-6.912-14.805-.34-8.834 5.633-15.32 5.973-6.527 14.805-6.91zM652.8 587.008q-1.963 4.864-1.195 9.6.726 4.523 3.798 8.15 3.37 3.967 8.874 6.015 8.278 3.072 11.947 11.094 3.712 8.02.64 16.298-3.072 8.278-11.136 11.99-8.02 3.67-16.3.597-15.87-5.888-26.495-18.304-10.88-12.757-13.482-29.227-2.56-16.254 3.67-31.955 3.244-8.192 11.35-11.733 8.15-3.498 16.34-.213 8.236 3.242 11.735 11.35 3.5 8.105.256 16.34zm68.053-292.78q13.184 5.804 21.547 17.793 7.98 11.52 9.6 26.03 1.493 13.91-3.243 27.476-4.65 13.44-14.464 23.595-10.07 10.41-23.253 15.02-8.32 2.9-16.3-.94-7.977-3.796-10.88-12.16-2.9-8.32.94-16.3 3.797-7.976 12.16-10.88 3.627-1.28 6.656-4.392 3.285-3.414 4.864-7.98 1.58-4.48 1.11-8.788-.427-3.713-2.262-6.316-1.45-2.133-3.584-3.072-8.107-3.54-11.307-11.776-3.2-8.235.342-16.3 3.54-8.105 11.774-11.348 8.234-3.2 16.298.34z"/></svg>