<svg viewBox="0 0 1024 1024" xmlns="http://www.w3.org/2000/svg"><path d="M426.667 714.667c-17.494 0-32-14.507-32-32 0-71.254 0-160 160-160h170.666c96 0 96-12.8 96-96v-85.334c0-83.2 0-96-96-96h-42.666c-17.494 0-32-14.506-32-32 0-17.493 14.506-32 32-32h42.666c149.334 0 160 60.587 160 160v85.334c0 99.413-10.666 160-160 160H554.667c-96 0-96 26.026-96 96 0 17.493-14.507 32-32 32zM512 373.333H341.333c-13.653 0-26.026-8.96-30.293-21.76-29.44-89.173-29.44-187.306 0-276.053 4.267-13.227 16.64-22.187 30.293-22.187H512c13.653 0 26.027 8.96 30.293 21.76 29.867 89.174 29.867 187.307 0 276.054-4.266 13.226-16.213 22.186-30.293 22.186zm-146.773-64h123.306c16.64-62.72 16.64-129.28 0-192H365.227c-16.64 62.72-16.64 129.28 0 192zm-23.894 64h-42.666c-103.254 0-160-56.746-160-160 0-103.253 56.746-160 160-160h42.666c11.094 0 21.334 5.547 27.307 15.36 5.973 9.387 6.4 21.334 1.28 31.147-38.4 76.373-38.4 151.04 0 227.413 5.12 9.814 4.267 21.76-1.28 31.147-5.973 9.387-16.213 14.933-27.307 14.933zm-47.786-256c-63.574 1.707-90.88 30.294-90.88 96 0 65.28 27.306 94.294 90.453 96-21.333-64-21.333-128 .427-192zm261.12 256H512c-11.093 0-21.333-5.546-27.307-15.36-5.973-9.386-6.4-21.333-1.28-31.146 37.974-76.374 37.974-151.04 0-227.414-5.12-9.813-4.266-21.76 1.28-31.146 5.974-9.387 16.214-14.934 27.307-14.934h42.667c103.253 0 160 56.747 160 160 0 103.254-56.747 160-160 160zm5.12-256c21.333 64 21.333 128 0 192 63.573-1.706 90.453-30.293 90.453-96 .427-65.706-26.88-94.293-90.453-96zM448 970.667h-42.667c-43.946 0-96-16.64-96-96v-128c0-79.36 52.054-96 96-96H448c43.947 0 96 16.64 96 96v128c0 79.36-52.053 96-96 96zm-42.667-256c-32 0-32 9.386-32 32v128c0 22.613 0 32 32 32H448c32 0 32-9.387 32-32v-128c0-22.614 0-32-32-32h-42.667z"/></svg>