<svg viewBox="0 0 1024 1024" xmlns="http://www.w3.org/2000/svg"><path d="M85.333 545.11q0-235.862 95.915-331.777 95.957-95.914 331.776-95.914 235.86 0 331.776 95.912 95.957 95.915 95.957 331.776 0 235.818-95.957 331.733-95.915 95.96-331.776 95.96-235.82 0-331.776-95.957-95.915-95.915-95.915-331.734zm64 0q0 209.322 77.184 286.506Q303.7 908.8 513.024 908.8t286.55-77.184q77.183-77.184 77.183-286.507 0-209.367-77.184-286.55-77.226-77.14-286.55-77.14-209.322 0-286.506 77.14-77.184 77.183-77.184 286.55zm-20.266-179.286h768.34q13.27 0 22.614 9.387 9.39 9.346 9.39 22.615 0 13.27-9.388 22.613-9.343 9.387-22.612 9.387H129.07q-13.27 0-22.615-9.387-9.386-9.344-9.386-22.613 0-13.27 9.385-22.613 9.344-9.386 22.614-9.386zm571.86 167.98h.428q13.226 0 22.613 9.385 9.344 9.342 9.387 22.612-.043 13.27-9.387 22.613-9.387 9.387-22.613 9.387h-.427q-13.227 0-22.613-9.387-9.387-9.344-9.387-22.613 0-13.27 9.387-22.614 9.386-9.387 22.613-9.387zm-187.69 0h.384q13.27 0 22.616 9.385 9.386 9.342 9.386 22.612 0 13.27-9.385 22.613-9.344 9.387-22.614 9.387h-.383q-13.27 0-22.613-9.387-9.387-9.344-9.387-22.613 0-13.27 9.387-22.614 9.344-9.387 22.613-9.387zm-188.074 0h.384q13.27 0 22.656 9.385 9.344 9.342 9.344 22.612 0 13.27-9.344 22.613-9.387 9.387-22.656 9.387h-.384q-13.227 0-22.614-9.387-9.388-9.344-9.388-22.613 0-13.27 9.386-22.614 9.386-9.387 22.613-9.387zm375.765 164.35h.427q13.226 0 22.613 9.387 9.344 9.346 9.387 22.616-.043 13.27-9.387 22.613-9.387 9.386-22.613 9.386h-.427q-13.227 0-22.613-9.387-9.387-9.345-9.387-22.614 0-13.27 9.387-22.614 9.386-9.385 22.613-9.385zm-187.69 0h.383q13.27 0 22.616 9.387 9.386 9.346 9.386 22.616t-9.385 22.613q-9.344 9.386-22.614 9.386h-.383q-13.27 0-22.613-9.387-9.387-9.345-9.387-22.614 0-13.27 9.387-22.614 9.344-9.385 22.613-9.385zm-188.075 0h.384q13.27 0 22.656 9.387 9.344 9.346 9.344 22.616t-9.344 22.613q-9.387 9.386-22.656 9.386h-.384q-13.227 0-22.614-9.387-9.388-9.345-9.388-22.614 0-13.27 9.386-22.614 9.386-9.385 22.613-9.385zM716.075 87.468v139.178q0 13.27-9.387 22.614-9.344 9.385-22.613 9.385-13.27 0-22.614-9.386-9.384-9.346-9.384-22.616V87.467q0-13.27 9.386-22.614 9.345-9.386 22.615-9.386 13.27 0 22.613 9.386 9.387 9.344 9.387 22.614zm-341.675 0v139.178q0 13.27-9.387 22.614-9.386 9.385-22.613 9.385-13.27 0-22.656-9.386-9.344-9.346-9.344-22.616V87.467q0-13.27 9.344-22.614 9.387-9.386 22.656-9.386 13.227 0 22.613 9.386 9.387 9.344 9.387 22.614z"/></svg>