<svg viewBox="0 0 1024 1024" xmlns="http://www.w3.org/2000/svg"><path d="M336.555 168.107v49.152h341.802v-49.154q0-13.27 9.387-22.614 9.387-9.386 22.613-9.386 13.27 0 22.656 9.386 9.344 9.344 9.344 22.614v49.152h.47q75.86 0 100.096 12.33 32.768 16.725 49.45 49.45 12.33 24.235 12.33 100.096V768.68q0 75.905-12.33 100.097-16.682 32.767-49.45 49.45-24.235 12.33-100.096 12.33h-470.7q-75.903 0-100.095-12.33-32.768-16.683-49.45-49.45-12.33-24.193-12.33-100.097V379.136q0-75.86 12.33-100.096 16.682-32.725 49.45-49.45 24.192-12.33 100.096-12.33h.427v-49.153q0-13.27 9.386-22.614 9.39-9.386 22.616-9.386 13.27 0 22.656 9.386 9.345 9.344 9.345 22.614zM272.128 866.56h470.7q60.5 0 71.04-5.376 14.207-7.253 21.46-21.46 5.376-10.54 5.376-71.04V484.18H174.25v284.503q0 60.5 5.377 71.04 7.253 14.208 21.46 21.46 10.54 5.377 71.04 5.377zm32.427-585.3h-32.427q-60.5 0-71.04 5.375-14.208 7.253-21.46 21.46-5.377 10.54-5.377 71.04v41.046h666.455v-41.043q0-60.5-5.376-71.04-7.254-14.208-21.46-21.46-10.54-5.377-71.04-5.377H304.553z"/></svg>