<svg viewBox="0 0 1024 1024" xmlns="http://www.w3.org/2000/svg"><path d="M341.333 245.333c-17.493 0-32-14.506-32-32v-128c0-17.493 14.507-32 32-32 17.494 0 32 14.507 32 32v128c0 17.494-14.506 32-32 32zm341.334 0c-17.494 0-32-14.506-32-32v-128c0-17.493 14.506-32 32-32 17.493 0 32 14.507 32 32v128c0 17.494-14.507 32-32 32zm-320 373.334c-5.547 0-11.094-1.28-16.214-3.414-5.546-2.133-9.813-5.12-14.08-8.96C324.693 598.187 320 587.52 320 576c0-5.547 1.28-11.093 3.413-16.213 2.134-5.12 5.12-9.814 8.96-14.08 4.267-3.84 8.534-6.827 14.08-8.96 15.36-6.4 34.56-2.987 46.507 8.96 7.68 8.106 12.373 19.2 12.373 30.293 0 2.56-.426 5.547-.853 8.533-.427 2.56-1.28 5.12-2.56 7.68-.853 2.56-2.133 5.12-3.84 7.68-1.28 2.134-3.413 4.267-5.12 6.4-8.107 7.68-19.2 12.374-30.293 12.374zm149.333 0c-5.547 0-11.093-1.28-16.213-3.414-5.547-2.133-9.814-5.12-14.08-8.96-7.68-8.106-12.374-18.773-12.374-30.293 0-5.547 1.28-11.093 3.414-16.213 2.133-5.12 5.12-9.814 8.96-14.08 4.266-3.84 8.533-6.827 14.08-8.96 15.36-6.827 34.56-2.987 46.506 8.96 7.68 8.106 12.374 19.2 12.374 30.293 0 2.56-.427 5.547-.854 8.533-.426 2.56-1.28 5.12-2.56 7.68-.853 2.56-2.133 5.12-3.84 7.68-1.28 2.134-3.413 4.267-5.12 6.4-8.106 7.68-19.2 12.374-30.293 12.374zm149.333 0c-5.546 0-11.093-1.28-16.213-3.414-5.547-2.133-9.813-5.12-14.08-8.96l-5.12-6.4c-1.707-2.56-2.987-5.12-3.84-7.68-1.28-2.56-2.133-5.12-2.56-7.68-.427-2.986-.853-5.973-.853-8.533 0-11.093 4.693-22.187 12.373-30.293 4.267-3.84 8.533-6.827 14.08-8.96 15.787-6.827 34.56-2.987 46.507 8.96C699.307 553.813 704 564.907 704 576c0 2.56-.427 5.547-.853 8.533-.427 2.56-1.28 5.12-2.56 7.68-.854 2.56-2.134 5.12-3.84 7.68-1.28 2.134-3.414 4.267-5.12 6.4-8.107 7.68-19.2 12.374-30.294 12.374zM362.667 768c-5.547 0-11.094-1.28-16.214-3.413-5.12-2.134-9.813-5.12-14.08-8.96-7.68-8.107-12.373-19.2-12.373-30.294 0-5.546 1.28-11.093 3.413-16.213 2.134-5.547 5.12-10.24 8.96-14.08 15.787-15.787 44.8-15.787 60.587 0 7.68 8.107 12.373 19.2 12.373 30.293 0 11.094-4.693 22.187-12.373 30.294-8.107 7.68-19.2 12.373-30.293 12.373zM512 768c-11.093 0-22.187-4.693-30.293-12.373-7.68-8.107-12.374-19.2-12.374-30.294 0-5.546 1.28-11.093 3.414-16.213 2.133-5.547 5.12-10.24 8.96-14.08 15.786-15.787 44.8-15.787 60.586 0 3.84 3.84 6.827 8.533 8.96 14.08 2.134 5.12 3.414 10.667 3.414 16.213 0 11.094-4.694 22.187-12.374 30.294C534.187 763.307 523.093 768 512 768zm149.333 0c-11.093 0-22.186-4.693-30.293-12.373-3.84-3.84-6.827-8.534-8.96-14.08-2.133-5.12-3.413-10.667-3.413-16.214 0-5.546 1.28-11.093 3.413-16.213 2.133-5.547 5.12-10.24 8.96-14.08 9.813-9.813 24.747-14.507 38.4-11.52 2.987.427 5.547 1.28 8.107 2.56 2.56.853 5.12 2.133 7.68 3.84 2.133 1.28 4.266 3.413 6.4 5.12 7.68 8.107 12.373 19.2 12.373 30.293 0 11.094-4.693 22.187-12.373 30.294-8.107 7.68-19.2 12.373-30.294 12.373zm213.334-348.16H149.333c-17.493 0-32-14.507-32-32 0-17.493 14.507-32 32-32h725.334c17.493 0 32 14.507 32 32 0 17.493-14.507 32-32 32zm-192 550.827H341.333C185.6 970.667 96 881.067 96 725.333V362.667c0-155.734 89.6-245.334 245.333-245.334h341.334C838.4 117.333 928 206.933 928 362.667v362.666c0 155.734-89.6 245.334-245.333 245.334zM341.333 181.333C219.307 181.333 160 240.64 160 362.667v362.666c0 122.027 59.307 181.334 181.333 181.334h341.334C804.693 906.667 864 847.36 864 725.333V362.667c0-122.027-59.307-181.334-181.333-181.334H341.333z"/></svg>