<svg viewBox="0 0 1024 1024" xmlns="http://www.w3.org/2000/svg"><path d="M373.333 85.333v128q0 13.27-9.386 22.614-9.344 9.386-22.614 9.386-13.27 0-22.613-9.386-9.387-9.344-9.387-22.614v-128q0-13.27 9.387-22.613 9.344-9.387 22.613-9.387 13.27 0 22.614 9.387 9.386 9.344 9.386 22.613zm341.334 0v128q0 13.27-9.387 22.614-9.344 9.386-22.613 9.386-13.27 0-22.614-9.386-9.386-9.344-9.386-22.614v-128q0-13.27 9.386-22.613 9.344-9.387 22.614-9.387 13.27 0 22.613 9.387 9.387 9.344 9.387 22.613zM149.333 355.84h725.334q13.27 0 22.613 9.387 9.387 9.344 9.387 22.613 0 13.27-9.387 22.613-9.344 9.387-22.613 9.387H149.333q-13.27 0-22.613-9.387-9.387-9.344-9.387-22.613 0-13.27 9.387-22.613 9.344-9.387 22.613-9.387zm821.334 454.827q0 56.832-29.526 104.704-58.24 97.963-173.14 97.963-76.8 0-133.205-50.517-24.022-20.267-40.15-47.787-29.312-47.745-29.312-104.363 0-83.968 59.35-143.318Q684.033 608 768 608q91.435 0 152.02 68.907 50.647 57.984 50.647 133.76zm-64 0q0-51.755-34.688-91.52Q830.506 672 768 672q-138.667 0-138.667 138.667 0 38.698 19.968 71.082.215.34.428.682 10.71 18.347 26.624 31.7l.853.77q38.272 34.43 90.795 34.43 78.507 0 118.7-67.583 19.967-32.385 19.967-71.083zm-182.614-22.614l20.48 20.48 68.31-63.19q9.728-9.002 22.954-8.447 13.27.512 22.272 10.24 8.96 9.728 8.447 22.955-.512 13.27-10.24 22.273l-90.88 84.053q-9.472 8.747-22.357 8.49-12.885-.255-21.973-9.386l-42.24-42.24q-9.387-9.344-9.387-22.613 0-13.27 9.387-22.614 9.344-9.386 22.613-9.386 13.27 0 22.613 9.386zM928 362.667v335.36q0 13.27-9.387 22.613-9.344 9.387-22.613 9.387-14.464 0-24.02-10.88Q830.506 672 768 672q-69.333 0-103.98 34.645-34.687 34.688-34.687 104.022 0 38.698 19.968 71.082.215.34.428.682 10.71 18.347 26.624 31.7 10.155 8.535 11.307 21.72 1.15 13.225-7.34 23.38-9.6 11.435-24.533 11.435H341.333Q96 970.667 96 725.333V362.667q0-245.334 245.333-245.334h341.334Q928 117.333 928 362.667zm-64 0q0-181.334-181.333-181.334H341.333Q160 181.333 160 362.667v362.666q0 181.334 181.333 181.334H589.78q-24.447-44.288-24.447-96 0-83.968 59.35-143.318Q684.033 608 768 608q53.205 0 96 23.34zm-352.213 179.2h.426q17.664 0 30.166 12.5 12.457 12.502 12.5 30.166-.043 17.664-12.5 30.166-12.503 12.5-30.167 12.5h-.426q-17.664 0-30.166-12.5-12.5-12.503-12.5-30.167t12.5-30.165q12.503-12.5 30.167-12.5zm-157.91 0h.384q17.708 0 30.167 12.5 12.5 12.502 12.5 30.166t-12.5 30.166q-12.46 12.5-30.166 12.5h-.383q-17.664 0-30.165-12.5-12.5-12.503-12.5-30.167t12.5-30.165q12.5-12.5 30.165-12.5zm0 128h.384q17.708 0 30.167 12.5 12.5 12.502 12.5 30.166t-12.5 30.166q-12.46 12.5-30.166 12.5h-.383q-17.664 0-30.165-12.5-12.5-12.503-12.5-30.167t12.5-30.165q12.5-12.5 30.165-12.5z"/></svg>