<svg viewBox="0 0 1024 1024" xmlns="http://www.w3.org/2000/svg"><path d="M372.18 85.333v128q0 12.8-9.044 21.803-9.003 9.045-21.803 9.045t-21.802-9.044q-9.045-9.003-9.045-21.803v-128q0-12.8 9.046-21.802 9.003-9.045 21.803-9.045t21.803 9.046q9.045 9.003 9.045 21.803zm341.335 0v128q0 12.8-9.046 21.803-9.003 9.045-21.803 9.045t-21.803-9.044q-9.045-9.003-9.045-21.803v-128q0-12.8 9.044-21.802 9.003-9.045 21.803-9.045t21.802 9.046q9.045 9.003 9.045 21.803zm-564.182 271.66h725.334q12.8 0 21.802 9.002 9.045 9.045 9.045 21.845 0 12.757-9.046 21.803-9.003 9.045-21.803 9.045H149.333q-12.8 0-21.802-9.045-9.045-9.046-9.045-21.803 0-12.8 9.046-21.845 9.003-9.003 21.803-9.003zm777.515 5.674v362.666q0 244.182-244.18 244.182H341.332q-244.18 0-244.18-244.182V362.667q0-112.214 58.922-175.66 63.616-68.522 185.258-68.522h341.334q121.642 0 185.258 68.523 58.923 63.445 58.923 175.66zm-61.696 0q0-87.98-42.41-133.675-45.355-48.81-140.075-48.81H341.333q-94.72 0-140.074 48.81-42.412 45.696-42.412 133.675v362.666q0 87.98 42.41 133.675 45.355 48.81 140.075 48.81h341.334q182.485 0 182.485-182.485zM511.787 543.403h.426q17.024 0 29.056 12.032 12.074 12.074 12.074 29.098 0 17.067-12.075 29.1-12.033 12.03-29.057 12.03h-.426q-17.024 0-29.056-12.03-12.074-12.033-12.074-29.1 0-17.024 12.075-29.098 12.033-12.032 29.057-12.032zm-157.91 0h.384q17.068 0 29.1 12.032 12.075 12.074 12.075 29.098 0 17.067-12.075 29.1-12.032 12.03-29.1 12.03h-.383q-17.024 0-29.098-12.03-12.033-12.033-12.033-29.1 0-17.024 12.032-29.098 12.073-12.032 29.097-12.032zm0 128h.384q17.068 0 29.1 12.032 12.075 12.074 12.075 29.098 0 17.067-12.075 29.1-12.032 12.03-29.1 12.03h-.383q-17.024 0-29.098-12.03-12.033-12.033-12.033-29.1 0-17.024 12.032-29.098 12.073-12.032 29.097-12.032z"/></svg>