<svg viewBox="0 0 1024 1024" xmlns="http://www.w3.org/2000/svg"><path d="M601.25 149.234c164.864 18.27 292.864 146.163 311.35 310.92 1.832 16.653-10.133 31.69-26.732 33.522-1.132.108-2.318.215-3.45.215-15.252 0-28.348-11.423-30.073-26.945-15.306-136.46-121.317-242.365-257.778-257.51-16.654-1.832-28.618-16.814-26.786-33.468 1.835-16.6 16.763-28.833 33.47-26.732zM709.632 469.8c-11.64-59.77-57.83-105.903-117.49-117.49-16.438-3.18-27.163-19.133-23.984-35.517 3.18-16.438 19.456-27.217 35.517-24.037 84.076 16.33 149.02 81.327 165.457 165.457 3.234 16.438-7.545 32.39-23.93 35.57-1.994.378-3.934.54-5.874.54-14.174 0-26.894-10.025-29.696-24.523zm-71.41 168.152c58.53-28.456 111.723-39.936 218.273 89.357 25.33 30.934 34.87 64.35 28.295 99.49-14.067 75.505-97.226 127.082-98.035 127.567-15.09 10.833-41.283 23.23-80.734 23.23-75.83 0-200.81-45.704-391.33-236.33C24.955 451.53 69.957 313.452 102.725 267.533c-.053 0 52.332-82.46 126.384-96.31 35.03-6.79 68.607 2.91 99.49 28.188 129.452 106.604 117.918 159.8 89.462 218.33-19.726 40.42-36.703 75.29 54.11 166.104 90.76 90.812 125.736 73.782 166.05 54.164z"/></svg>