<svg viewBox="0 0 1024 1024" xmlns="http://www.w3.org/2000/svg"><path d="M240.46 90.353c50.416.723 86.377 38.49 131.915 86.377 11.203 11.746 23.37 24.637 36.984 38.19 65.896 65.957 47.162 119.747 32.043 162.936l-.06.06c-16.444 47.104-30.6 87.763 54.573 172.936 85.173 85.233 125.832 70.957 172.876 54.392l.24-.06c43.19-15.12 96.798-33.792 162.696 32.045 13.43 13.43 26.08 25.417 37.827 36.56 48.007 45.78 85.956 81.86 86.618 132.458.482 43.068-25.72 87.1-90.413 151.792l-28.612-19.456 24.215 23.613c-14.276 14.696-52.405 53.85-126.976 54.27h-1.327c-112.58 0-259.373-89.63-436.284-266.48C119.144 572.417 29.394 425.2 30.056 312.38c.422-74.57 39.454-112.7 54.152-127.036l1.264-1.385 3.012-3.074c64.876-64.813 109.39-91.436 151.976-90.533zm-.904 67.765h-.362c-20.24 0-51.08 20.36-94.027 62.102l-8.674 8.433h.12s-.722.844-1.987 2.108l-3.012 3.074c-10.963 10.602-33.55 32.708-33.792 78.91-.36 64.63 42.165 184.68 246.844 389.3 203.716 203.653 323.524 246.66 388.397 246.66h.904c46.26-.24 68.307-22.89 78.908-33.79 3.193-3.314 5.843-5.784 7.65-7.29 45.056-45.297 68.126-78.968 67.885-100.59-.3-22.05-27.708-48.07-65.596-84.15-12.047-11.446-25.178-23.915-38.972-37.77-35.9-35.72-53.55-29.634-92.642-15.9-53.97 18.913-127.94 44.874-243.17-70.476-115.23-115.23-89.45-189.14-70.656-243.17l.06-.06v-.06c13.613-38.974 19.818-56.743-15.962-92.583-14.035-14.035-26.624-27.287-38.25-39.515-35.84-37.647-61.74-64.873-83.666-65.234zm386.228-67.464c184.2 20.42 327.26 163.358 347.92 347.497 2.048 18.615-11.325 35.42-29.877 37.47-1.265.12-2.53.24-3.795.24-17.047 0-31.684-12.77-33.672-30.118-17.106-152.515-135.53-270.877-288.105-287.803-18.552-2.05-31.985-18.795-29.877-37.407 1.988-18.552 18.553-32.225 37.406-29.876zm2.65 160.407c94.028 18.253 166.612 90.837 184.923 184.864 3.554 18.432-8.372 36.2-26.744 39.755-2.17.42-4.398.662-6.566.662-15.902 0-29.997-11.203-33.19-27.406-13.01-66.862-64.572-118.363-131.313-131.374-18.37-3.553-30.358-21.323-26.804-39.695 3.554-18.37 21.624-30.418 39.695-26.804z"/></svg>