<svg viewBox="0 0 1024 1024" xmlns="http://www.w3.org/2000/svg"><path d="M751.787 458.667c-18.347 0-32.854-14.934-32.854-32.854 0-15.786-15.786-48.64-42.24-77.226-26.026-27.734-54.613-43.947-78.506-43.947-18.347 0-32.854-14.933-32.854-32.853s14.934-32.854 32.854-32.854c42.666 0 87.466 23.04 126.72 64.427 36.693 38.827 60.16 87.04 60.16 122.027 0 18.346-14.934 33.28-33.28 33.28zm154.026 0c-18.346 0-32.853-14.934-32.853-32.854 0-151.466-123.307-274.346-274.347-274.346-18.346 0-32.853-14.934-32.853-32.854s14.507-33.28 32.427-33.28c187.733 0 340.48 152.747 340.48 340.48 0 17.92-14.934 32.854-32.854 32.854zm-434.346 179.2L392.533 716.8c-16.64 16.64-43.093 16.64-60.16.427-4.693-4.694-9.386-8.96-14.08-13.654-43.946-44.373-83.626-90.88-119.04-139.52-34.986-48.64-63.146-97.28-83.626-145.493-20.054-48.64-30.294-95.147-30.294-139.52 0-29.013 5.12-56.747 15.36-82.347 10.24-26.026 26.454-49.92 49.067-71.253 27.307-26.88 57.173-40.107 88.747-40.107 11.946 0 23.893 2.56 34.56 7.68 11.093 5.12 20.906 12.8 28.586 23.894l98.987 139.52c7.68 10.666 13.227 20.48 17.067 29.866 3.84 8.96 5.973 17.92 5.973 26.027 0 10.24-2.987 20.48-8.96 30.293-5.547 9.814-13.653 20.054-23.893 30.294L358.4 406.613c-4.693 4.694-6.827 10.24-6.827 17.067 0 3.413.427 6.4 1.28 9.813 1.28 3.414 2.56 5.974 3.414 8.534 7.68 14.08 20.906 32.426 39.68 54.613 19.2 22.187 39.68 44.8 61.866 67.413 4.267 4.267 8.96 8.534 13.227 12.8 17.067 16.64 17.493 43.947.427 61.014zm465.92 144.213c0 11.947-2.134 24.32-6.4 36.267-1.28 3.413-2.56 6.826-4.267 10.24-7.253 15.36-16.64 29.866-29.013 43.52-20.907 23.04-43.947 39.68-69.974 50.346-.426 0-.853.427-1.28.427-25.173 10.24-52.48 15.787-81.92 15.787-43.52 0-90.026-10.24-139.093-31.147-49.067-20.907-98.133-49.067-146.773-84.48-16.64-12.373-33.28-24.747-49.067-37.973l139.52-139.52c11.947 8.96 22.613 15.786 31.573 20.48 2.134.853 4.694 2.133 7.68 3.413 3.414 1.28 6.827 1.707 10.667 1.707 7.253 0 12.8-2.56 17.493-7.254l32.427-32c10.667-10.666 20.907-18.773 30.72-23.893 9.813-5.973 19.627-8.96 30.293-8.96 8.107 0 16.64 1.707 26.027 5.547s19.2 9.386 29.867 16.64l141.226 100.266c11.094 7.68 18.774 16.64 23.467 27.307 4.267 10.667 6.827 21.333 6.827 33.28z"/></svg>