<svg viewBox="0 0 1024 1024" xmlns="http://www.w3.org/2000/svg"><path d="M190.592 575.06l333.312-383.017Q637.952 61.013 768.94 175.02q54.27 47.23 59.22 118.996 4.992 71.765-42.24 126.037l-59.947 68.864-14.08-5.674q-34.39-13.91-71.893-13.91-77.483 0-132.82 53.376l-1.068 1.022q-.427.384-.81.768l-1.067 1.068Q448 581.803 448 661.333q0 51.456 25.557 95.787l7.595 13.14-9.984 11.52Q338.603 934.1 207.573 820.097 153.3 772.864 148.353 701.1q-4.993-71.767 42.24-126.04l16.084 14.04zm300.5-95.273q63.447-53.12 148.908-53.12 37.973 0 73.43 11.69l40.32-46.336q35.626-40.915 31.87-95.06-3.753-54.1-44.713-89.727-98.816-86.016-184.79 12.8l-139.99 160.853q37.377 62.976 74.966 98.902zm-104.36-65.11L222.76 603.093q-35.626 40.918-31.87 95.062 3.753 54.144 44.713 89.77 94.166 81.963 193.58-23.338-23.852-48.3-23.852-103.254 0-87.466 55.383-151.594-37.59-36.27-73.984-95.064zM675.626 254.72q-42.198-10.88-83.542 36.608-5.802 6.656-14.634 7.296-8.79.597-15.487-5.205-6.656-5.805-7.254-14.594-.64-8.832 5.16-15.488h.044q58.624-67.415 126.378-49.92 8.534 2.175 13.056 9.812 4.48 7.595 2.26 16.17-2.218 8.534-9.813 13.014-7.594 4.523-16.17 2.304zm199.04 406.613q0 97.195-68.736 165.93Q737.196 896 640 896q-97.195 0-165.93-68.736-68.737-68.736-68.737-165.93 0-97.195 68.736-165.93 68.734-68.737 165.93-68.737 97.194 0 165.93 68.736t68.736 165.93zm-42.667 0q0-79.53-56.236-135.765Q719.53 469.333 640 469.333t-135.765 56.235Q448 581.803 448 661.333q0 79.53 56.235 135.766Q560.47 853.33 640 853.33q79.53 0 135.765-56.234Q832 740.863 832 661.332zM490.24 679.38l288.47-77.31q8.533-2.262 16.213 2.133 7.637 4.437 9.94 12.97 2.262 8.534-2.132 16.17-4.436 7.638-12.97 9.942l-288.47 77.312q-8.574 2.262-16.212-2.133-7.637-4.437-9.94-12.97-2.262-8.534 2.132-16.17 4.437-7.64 12.97-9.943z"/></svg>