<svg viewBox="0 0 1024 1024.002" xmlns="http://www.w3.org/2000/svg"><path d="M85 331h854q13 0 22.5 9.5T971 363q0 13-9.5 22.5T939 395H85q-13 0-22.5-9.5T53 363q0-13 9.5-22.5T85 331zm171 341h85q14 0 23 9.5t9 22.5q0 13-9 22.5t-23 9.5h-85q-13 0-22.5-9.5T224 704q0-13 9.5-22.5T256 672zm192 0h171q13 0 22.5 9.5T651 704q0 13-9.5 22.5T619 736H448q-13 0-22.5-9.5T416 704q0-13 9.5-22.5T448 672zM275 118h474q127 0 174.5 46.5T971 337v350q0 126-47.5 172.5T749 906H275q-127 1-174.5-46T53 688V337q0-126 47.5-172.5T275 118zm0 64q-101 0-129.5 28T117 337v351q0 99 28.5 127T275 842h474q101 0 129.5-28T907 687V337q0-99-28.5-127T749 182H275z"/></svg>