<svg viewBox="0 0 1024 1024" xmlns="http://www.w3.org/2000/svg"><path d="M85.333 330.667H576q13.27 0 22.613 9.386Q608 349.397 608 362.667q0 13.27-9.387 22.613-9.344 9.387-22.613 9.387H85.333q-13.27 0-22.613-9.387-9.387-9.344-9.387-22.613 0-13.27 9.387-22.614 9.344-9.386 22.613-9.386zM256 672h85.333q13.27 0 22.614 9.387 9.386 9.344 9.386 22.613 0 13.27-9.386 22.613Q354.603 736 341.333 736H256q-13.27 0-22.613-9.387Q224 717.27 224 704q0-13.27 9.387-22.613Q242.73 672 256 672zm192 0h170.667q13.27 0 22.613 9.387 9.387 9.344 9.387 22.613 0 13.27-9.387 22.613Q631.936 736 618.667 736H448q-13.27 0-22.613-9.387Q416 717.27 416 704q0-13.27 9.387-22.613Q434.73 672 448 672zm522.667-201.387V687.36q0 125.696-47.403 172.587-47.275 46.72-174.037 46.72H274.773q-126.762 0-174.037-46.72-47.403-46.89-47.403-172.587V336.64q0-125.696 47.403-172.587 47.275-46.72 174.037-46.72H576q13.27 0 22.613 9.387Q608 136.064 608 149.333q0 13.27-9.387 22.614-9.344 9.386-22.613 9.386H274.773q-100.437 0-129.024 28.246-28.417 28.116-28.417 127.06v350.72q0 98.944 28.416 127.06 28.586 28.247 129.023 28.247h474.454q100.437 0 129.024-28.246 28.417-28.116 28.417-127.06V470.613q0-13.27 9.386-22.613 9.344-9.387 22.614-9.387 13.27 0 22.613 9.387 9.387 9.344 9.387 22.613zM726.613 233.387L768 274.73l148.053-148.01q9.344-9.387 22.614-9.387 13.27 0 22.613 9.387 9.387 9.344 9.387 22.613 0 13.27-9.387 22.614L790.613 342.613Q781.27 352 768 352q-13.27 0-22.613-9.387l-64-64Q672 269.27 672 256q0-13.27 9.387-22.613Q690.73 224 704 224q13.27 0 22.613 9.387z"/></svg>