<svg viewBox="0 0 1024 1024" xmlns="http://www.w3.org/2000/svg"><path d="M617.685 704.34c-5.717 5.72-13.568 9.345-22.613 9.345H428.544c-17.493 0-32-14.464-32-31.957 0-17.493 14.507-32 32-32h166.528c17.493 0 32 14.507 32 32 .3 8.747-3.328 16.597-9.387 22.613zm-82.944 84.78c-5.715 5.717-13.566 9.344-22.61 9.344-17.537 0-32-14.464-32-31.957v-166.57c0-17.494 14.463-31.958 32-31.958 17.492 0 31.956 14.462 31.956 31.955v166.57c0 9.046-3.626 16.897-9.344 22.614zm-313.3-516.907c-8.106 0-16.64-3.413-22.612-9.386-12.374-12.374-12.374-32.854 0-45.227l154.88-154.88c12.373-12.373 32.853-12.373 45.226 0 12.374 12.373 12.374 32.853 0 45.227l-154.88 154.88c-6.4 5.973-14.506 9.386-22.613 9.386zm581.12 0c-8.106 0-16.212-2.986-22.612-9.386l-154.88-154.88c-12.374-12.374-12.374-32.854 0-45.227 12.373-12.373 32.853-12.373 45.226 0l154.88 154.88c12.374 12.373 12.374 32.853 0 45.227-5.973 5.973-14.506 9.386-22.613 9.386zm59.734 180.054H170.667c-29.867.426-64 .426-88.747-24.32-19.627-19.2-28.587-49.067-28.587-93.014 0-117.333 85.76-117.333 126.72-117.333h663.894c40.96 0 126.72 0 126.72 117.333 0 44.374-8.96 73.814-28.587 93.014-22.187 22.186-52.053 24.32-79.787 24.32zm-682.24-64H853.76c19.2.426 37.12.426 43.093-5.547 2.987-2.987 9.387-13.227 9.387-47.787 0-48.213-11.947-53.333-62.72-53.333H180.053c-50.773 0-62.72 5.12-62.72 53.333 0 34.56 6.827 44.8 9.387 47.787 5.973 5.547 24.32 5.547 43.093 5.547h10.24zm455.254 582.4h-257.28c-152.747 0-186.88-90.88-200.107-169.814l-60.16-369.066c-2.986-17.494 8.96-33.707 26.454-36.694 17.494-2.986 33.707 8.96 36.694 26.454l60.16 368.64c12.373 75.52 37.973 116.48 136.96 116.48h257.28c109.653 0 122.026-38.4 136.106-112.64l71.68-373.334c3.414-17.493 20.054-29.013 37.547-25.173 17.494 3.413 28.588 20.053 25.174 37.547L834.134 806.4c-16.64 86.613-44.374 164.267-198.827 164.267z"/></svg>