<svg viewBox="0 0 1024 1024" xmlns="http://www.w3.org/2000/svg"><path d="M474.453 778.667c-8.106 0-16.213-2.987-22.613-9.387l-64-64c-12.373-12.373-12.373-32.853 0-45.227 12.373-12.373 32.853-12.373 45.227 0l42.24 42.24L591.36 595.2c12.8-11.947 33.28-11.093 45.227 1.707 11.946 12.8 11.093 33.28-1.707 45.226l-138.667 128c-5.973 5.547-13.653 8.534-21.76 8.534zM221.44 272.213c-8.107 0-16.64-3.413-22.613-9.386-12.374-12.374-12.374-32.854 0-45.227l154.88-154.88c12.373-12.373 32.853-12.373 45.226 0 12.374 12.373 12.374 32.853 0 45.227l-154.88 154.88c-6.4 5.973-14.506 9.386-22.613 9.386zm581.12 0c-8.107 0-16.213-2.986-22.613-9.386l-154.88-154.88c-12.374-12.374-12.374-32.854 0-45.227 12.373-12.373 32.853-12.373 45.226 0l154.88 154.88c12.374 12.373 12.374 32.853 0 45.227-5.973 5.973-14.506 9.386-22.613 9.386zm59.733 180.054H170.667c-29.867.426-64 .426-88.747-24.32-19.627-19.2-28.587-49.067-28.587-93.014 0-117.333 85.76-117.333 126.72-117.333h663.894c40.96 0 126.72 0 126.72 117.333 0 44.374-8.96 73.814-28.587 93.014-22.187 22.186-52.053 24.32-79.787 24.32zm-682.24-64H853.76c19.2.426 37.12.426 43.093-5.547 2.987-2.987 9.387-13.227 9.387-47.787 0-48.213-11.947-53.333-62.72-53.333H180.053c-50.773 0-62.72 5.12-62.72 53.333 0 34.56 6.827 44.8 9.387 47.787 5.973 5.547 24.32 5.547 43.093 5.547h10.24zm455.254 582.4h-257.28c-152.747 0-186.88-90.88-200.107-169.814l-60.16-369.066c-2.987-17.494 8.96-33.707 26.453-36.694 17.067-2.986 33.707 8.96 36.694 26.454l60.16 368.64c12.373 75.52 37.973 116.48 136.96 116.48h257.28c109.653 0 122.026-38.4 136.106-112.64l71.68-373.334c3.414-17.493 20.054-29.013 37.547-25.173 17.493 3.413 28.587 20.053 25.173 37.547L834.133 806.4c-16.64 86.613-44.373 164.267-198.826 164.267z"/></svg>