<svg viewBox="0 0 1024 1024" xmlns="http://www.w3.org/2000/svg"><path d="M522.752 118.84c307.143 0 415.972 108.886 415.972 415.972 0 307.144-108.83 416.03-415.972 416.03-307.143 0-416.028-108.886-416.028-416.03 0-307.086 108.885-415.97 416.028-415.97zm170.78 458.64c23.552 0 42.667-19.06 42.667-42.668s-19.117-42.666-42.67-42.666h-.397c-23.552 0-42.44 19.058-42.44 42.666 0 23.61 19.286 42.667 42.838 42.667zm-170.61 0c23.553 0 42.667-19.06 42.667-42.668s-19.116-42.666-42.668-42.666h-.4c-23.55 0-42.438 19.058-42.438 42.666 0 23.61 19.286 42.667 42.838 42.667zm-170.666 0c23.552 0 42.667-19.06 42.667-42.668s-19.115-42.666-42.667-42.666h-.398c-23.552 0-42.44 19.058-42.44 42.666 0 23.61 19.286 42.667 42.838 42.667z"/></svg>