<svg viewBox="0 0 1024 1024" xmlns="http://www.w3.org/2000/svg"><path d="M598.13 528.27c0-21.73 17.635-39.367 39.424-39.367h.34c21.733 0 39.368 17.636 39.368 39.367 0 21.732-17.635 39.367-39.367 39.367h-.34c-21.79 0-39.425-17.635-39.425-39.367zm-157.867 0c0-21.73 17.636-39.367 39.367-39.367h.342c21.788 0 39.424 17.636 39.424 39.367 0 21.732-17.636 39.367-39.424 39.367h-.342c-21.73 0-39.367-17.635-39.367-39.367zm-157.923 0c0-21.73 17.635-39.367 39.424-39.367h.34c21.732 0 39.368 17.636 39.368 39.367 0 21.732-17.636 39.367-39.367 39.367h-.34c-21.79 0-39.425-17.635-39.425-39.367zm499.427-315.733c165.49 165.49 165.15 433.607 0 598.812-128.512 128.567-318.464 156.9-474.567 86.3-.683-.058-1.707-.058-3.13 0-4.55.113-10.865.68-18.943 1.592-7.51.91-15.872 1.99-25.03 3.242l-1.708.228c-9.73 1.308-20.254 2.73-30.89 3.925-20.937 2.446-43.807 4.438-63.89 3.527-10.07-.398-20.48-1.593-30.15-4.266-9.386-2.56-20.31-7.17-29.07-15.93-8.76-8.76-13.312-19.627-15.93-29.07-2.673-9.615-3.81-20.025-4.265-30.095-.854-20.138 1.08-43.008 3.527-63.943 1.25-10.638 2.617-21.162 3.925-30.89l.228-1.707c1.25-9.16 2.39-17.522 3.242-25.03.967-8.08 1.48-14.337 1.65-18.945v-3.13C26.11 531.113 54.5 341.104 183.067 212.535c165.15-165.205 433.494-165.205 598.7 0zm-41.813 41.813c-142.11-142.222-373.02-142.222-515.13 0-111.274 111.275-135.45 276.196-72.987 411.193.17.455.4.91.57 1.365 3.64 9.046 3.583 19.23 3.413 25.032-.23 7.224-1.025 15.644-1.992 24.12-.968 8.022-2.162 16.896-3.357 25.885l-.282 1.877c-1.31 9.785-2.617 19.798-3.812 29.81-2.332 20.366-3.81 39.367-3.13 54.613.286 7.567 1.14 13.142 2.163 17.01.397 1.31.682 2.22.966 2.788.57.227 1.422.57 2.73.91 3.87 1.024 9.5 1.877 17.067 2.22 15.19.624 34.19-.855 54.557-3.187 10.01-1.195 20.024-2.503 29.81-3.812l1.876-.227c8.988-1.252 17.863-2.447 25.884-3.357 8.534-.967 16.896-1.82 24.12-1.99 5.804-.172 16.044-.228 25.032 3.356.456.227.91.398 1.366.625 134.997 62.41 299.918 38.29 411.136-72.986 142.165-142.165 142.45-372.85 0-515.243z"/></svg>