<svg viewBox="0 0 983.04 1024" xmlns="http://www.w3.org/2000/svg"><path d="M931.84 474.317V512q-.082 146.268-87.654 263.414-87.573 117.145-227.82 158.597-140.247 41.453-277.422-9.214-137.216-50.668-216.8-173.384Q42.516 628.737 52.14 482.797q9.626-145.94 104.653-257.106 95.027-111.206 237.69-143.4Q537.15 50.053 670.72 109.568q11.633 5.16 16.18 17.04 4.587 11.878-.615 23.51-5.16 11.633-17.04 16.18-11.878 4.546-23.51-.615-114.975-51.2-237.732-23.47-122.717 27.73-204.514 123.372-81.758 95.682-90.03 221.266-8.276 125.543 60.21 231.138 68.485 105.554 186.53 149.176 118.048 43.623 238.757 7.946 120.668-35.676 196.035-136.478Q870.318 637.83 870.4 512v-37.683q0-12.74 9.01-21.71 8.97-9.01 21.71-9.01t21.71 9.01q9.01 8.97 9.01 21.71zm-8.97-268.288l-409.6 410.007q-9.01 9.012-21.75 9.012-12.698 0-21.71-8.97v-.043l-122.88-122.88q-9.01-8.97-9.01-21.708 0-12.74 9.01-21.71 8.97-9.01 21.71-9.01t21.71 9.01l101.17 101.13 387.85-388.26q9.01-9.01 21.75-9.01 12.698 0 21.71 8.97 9.01 9.01 9.01 21.75 0 12.697-8.97 21.71z"/></svg>