<svg viewBox="0 0 1024 1024" xmlns="http://www.w3.org/2000/svg"><path d="M704 885.333H320c-32 0-55.467-1.28-75.52-4.266C102.827 865.707 74.667 780.8 74.667 640V384c0-140.8 28.16-225.707 171.093-241.493 18.773-2.56 42.24-3.84 74.24-3.84h384c32 0 55.467 1.28 75.52 4.266C921.173 158.293 949.333 243.2 949.333 384v256c0 140.8-28.16 225.707-171.093 241.493-18.773 2.56-42.24 3.84-74.24 3.84zM320 202.667c-29.013 0-49.493 1.28-66.133 3.413-86.614 9.813-115.2 36.693-115.2 177.92v256c0 141.227 28.586 168.107 113.92 177.92 17.92 2.56 38.4 3.413 67.413 3.413h384c29.013 0 49.493-1.28 66.133-3.413 86.614-9.387 115.2-36.693 115.2-177.92V384c0-141.227-28.586-168.107-113.92-177.92-17.92-2.56-38.4-3.413-67.413-3.413H320zm405.333 256H576c-17.493 0-32-14.507-32-32 0-17.494 14.507-32 32-32h149.333c17.494 0 32 14.506 32 32 0 17.493-14.506 32-32 32zm-294.4 10.666c-23.466 0-42.666-19.2-42.666-42.666 0-23.467 18.773-42.667 42.666-42.667h.427c23.467 0 42.667 19.2 42.667 42.667 0 23.466-19.2 42.666-43.094 42.666zm-128 0c-23.466 0-42.666-19.2-42.666-42.666 0-23.467 18.773-42.667 42.666-42.667 23.467 0 42.667 19.2 42.667 42.667 0 23.466-18.773 42.666-42.667 42.666zm422.4 224H299.52c-17.493 0-32.427-14.506-32.427-32 0-17.493 14.08-32 31.574-32h426.666c17.494 0 32 14.507 32 32 0 17.494-14.506 32-32 32z"/></svg>