<svg viewBox="0 0 1024 1024" xmlns="http://www.w3.org/2000/svg"><path d="M353.835 737.835L579.67 512 353.834 286.165q-12.502-12.5-12.502-30.165 0-17.664 12.502-30.165 12.5-12.502 30.165-12.502 17.663 0 30.164 12.502l256 256q12.502 12.5 12.502 30.165 0 17.664-12.502 30.165l-256 256q-12.5 12.502-30.165 12.502t-30.166-12.502q-12.502-12.5-12.502-30.165 0-17.664 12.502-30.165zM341.333 512v-.427q0-17.664 12.502-30.165 12.5-12.5 30.165-12.5 17.664 0 30.165 12.5 12.502 12.5 12.502 30.165V512q0 17.664-12.502 30.165-12.5 12.502-30.165 12.502-17.664 0-30.165-12.502-12.502-12.5-12.502-30.165z"/></svg>