<svg viewBox="0 0 1024 1024" xmlns="http://www.w3.org/2000/svg"><path d="M609.835 798.165l-256-256q-12.502-12.5-12.502-30.165 0-17.664 12.502-30.165l256-256q12.5-12.502 30.165-12.502 17.664 0 30.165 12.502 12.502 12.5 12.502 30.165 0 17.664-12.502 30.165L444.33 512l225.835 225.835q12.502 12.5 12.502 30.165 0 17.664-12.502 30.165-12.5 12.502-30.165 12.502-17.664 0-30.165-12.502zM597.333 512v-.427q0-17.664 12.502-30.165 12.5-12.5 30.165-12.5 17.664 0 30.165 12.5 12.502 12.5 12.502 30.165V512q0 17.664-12.502 30.165-12.5 12.502-30.165 12.502-17.664 0-30.165-12.502-12.502-12.5-12.502-30.165z"/></svg>