<svg viewBox="0 0 1024 1024" xmlns="http://www.w3.org/2000/svg"><path d="M781.653 544H640c-106.24 0-160-60.16-160-179.2V242.347c0-43.52 5.12-105.814 50.347-139.947 37.973-28.16 92.586-30.293 173.226-6.827 105.814 30.72 194.134 119.04 224.854 224.854 23.466 80.213 21.333 135.253-6.827 172.8C887.467 538.88 825.173 544 781.653 544zM609.28 143.36c-17.493 0-31.147 3.413-40.107 10.24-16.64 12.373-24.746 41.387-24.746 88.747v122.88c0 95.573 36.693 115.2 96 115.2H782.08c46.933 0 75.947-8.107 88.747-24.747 14.933-19.627 13.653-58.88-2.987-116.48-24.747-84.053-97.28-157.013-181.333-181.333-31.574-9.814-57.174-14.507-77.227-14.507zM472.32 970.667c-22.613 0-45.653-1.707-68.693-5.547C229.12 936.96 87.04 795.307 58.88 620.8 22.613 396.373 167.253 184.747 388.693 139.52c17.494-3.413 34.134 7.68 37.974 24.747 3.413 17.493-7.68 34.133-24.747 37.973-187.307 38.4-310.187 217.6-279.04 408.32 23.893 147.627 143.787 267.52 291.413 291.413 191.574 30.72 370.347-92.586 408.32-280.746 3.414-17.494 20.48-28.587 37.547-25.174 17.493 3.414 28.587 20.48 25.173 37.547C844.8 832.853 670.72 970.667 472.32 970.667z"/></svg>