<svg viewBox="0 0 1024 1024" xmlns="http://www.w3.org/2000/svg"><path d="M512.057 85.333C748.032 85.333 938.78 276.48 938.78 512c0 235.975-190.748 426.667-426.723 426.667C276.537 938.667 85.39 747.975 85.39 512c0-235.52 191.147-426.667 426.667-426.667zm-14.905 210.375c-17.522 0-32.028 14.052-32.028 31.972v215.495c0 11.093 5.973 21.333 15.815 27.307l167.25 99.84c5.12 2.958 10.696 4.665 16.67 4.665 10.64 0 21.333-5.52 27.25-15.76 8.99-14.96 4.323-34.587-11.037-43.974L529.123 524.8V327.68c0-17.92-14.506-31.972-31.97-31.972z"/></svg>