<svg viewBox="0 0 1024 1024" xmlns="http://www.w3.org/2000/svg"><path d="M512 970.667C258.987 970.667 53.333 765.013 53.333 512 53.333 258.987 258.987 53.333 512 53.333c253.013 0 458.667 205.654 458.667 458.667 0 253.013-205.654 458.667-458.667 458.667zm0-853.334C294.4 117.333 117.333 294.4 117.333 512c0 217.6 177.067 394.667 394.667 394.667 217.6 0 394.667-177.067 394.667-394.667 0-217.6-177.067-394.667-394.667-394.667zM670.293 679.68c-5.546 0-11.093-1.28-16.213-4.693l-132.267-78.934c-32.853-19.626-57.173-62.72-57.173-100.693V320.427c0-17.494 14.507-32 32-32 17.493 0 32 14.506 32 32V495.36c0 15.36 12.8 37.973 26.027 45.653l132.266 78.934c15.36 8.96 20.054 28.586 11.094 43.946-6.4 10.24-17.067 15.787-27.734 15.787z"/></svg>