<svg viewBox="0 0 1024 1024" xmlns="http://www.w3.org/2000/svg"><path d="M512 970.667C258.987 970.667 53.333 765.013 53.333 512 53.333 258.987 258.987 53.333 512 53.333c253.013 0 458.667 205.654 458.667 458.667 0 253.013-205.654 458.667-458.667 458.667zm0-853.334C294.4 117.333 117.333 294.4 117.333 512c0 217.6 177.067 394.667 394.667 394.667 217.6 0 394.667-177.067 394.667-394.667 0-217.6-177.067-394.667-394.667-394.667zM391.253 664.747c-8.106 0-16.213-2.987-22.613-9.387-12.373-12.373-12.373-32.853 0-45.227L610.133 368.64c12.374-12.373 32.854-12.373 45.227 0 12.373 12.373 12.373 32.853 0 45.227L413.867 655.36c-5.974 6.4-14.507 9.387-22.614 9.387zm241.494 0c-8.107 0-16.214-2.987-22.614-9.387L368.64 413.867c-12.373-12.374-12.373-32.854 0-45.227 12.373-12.373 32.853-12.373 45.227 0L655.36 610.133c12.373 12.374 12.373 32.854 0 45.227-6.4 6.4-14.507 9.387-22.613 9.387z"/></svg>