<svg viewBox="0 0 1024 1024" xmlns="http://www.w3.org/2000/svg"><path d="M512 85.333C276.907 85.333 85.333 276.907 85.333 512c0 235.093 191.574 426.667 426.667 426.667 235.093 0 426.667-191.574 426.667-426.667 0-235.093-191.574-426.667-426.667-426.667zm143.36 524.8c12.373 12.374 12.373 32.854 0 45.227-6.4 6.4-14.507 9.387-22.613 9.387-8.107 0-16.214-2.987-22.614-9.387L512 557.227l-98.133 98.133c-6.4 6.4-14.507 9.387-22.614 9.387-8.106 0-16.213-2.987-22.613-9.387-12.373-12.373-12.373-32.853 0-45.227L466.773 512l-98.133-98.133c-12.373-12.374-12.373-32.854 0-45.227 12.373-12.373 32.853-12.373 45.227 0L512 466.773l98.133-98.133c12.374-12.373 32.854-12.373 45.227 0 12.373 12.373 12.373 32.853 0 45.227L557.227 512l98.133 98.133z"/></svg>