<svg viewBox="0 0 1024 1024" xmlns="http://www.w3.org/2000/svg"><path d="M512 970.667c-170.667 0-309.333-122.454-309.333-273.067V539.733c0-17.493 14.506-32 32-32 17.493 0 32 14.507 32 32C266.667 651.52 372.053 736 512 736s245.333-84.48 245.333-196.267c0-17.493 14.507-32 32-32 17.494 0 32 14.507 32 32V697.6c0 150.613-138.666 273.067-309.333 273.067zM266.667 702.293C269.653 815.36 378.453 906.667 512 906.667s242.347-91.307 245.333-204.374C701.867 762.453 613.973 800 512 800c-101.973 0-189.44-37.547-245.333-97.707zM512 586.667c-117.76 0-223.573-52.907-275.2-138.24-22.187-36.267-34.133-78.507-34.133-122.027 0-73.387 32.853-142.507 92.16-194.56C352.853 81.067 430.08 53.333 512 53.333c81.92 0 158.72 27.734 217.173 78.08 59.307 52.48 92.16 121.6 92.16 194.987 0 43.52-11.946 85.333-34.133 122.027-51.627 85.333-157.44 138.24-275.2 138.24zm0-469.334c-66.56 0-128.853 22.187-175.36 63.147-45.227 39.253-69.973 91.307-69.973 145.92 0 32 8.533 61.867 24.746 88.747 40.534 66.56 125.014 107.52 220.587 107.52s180.053-41.387 220.587-107.52c16.64-26.88 24.746-56.747 24.746-88.747 0-54.613-24.746-106.667-70.4-146.773C640.427 139.52 578.56 117.333 512 117.333zM512 800c-176.213 0-309.333-111.787-309.333-260.267V326.4c0-150.613 138.666-273.067 309.333-273.067 81.92 0 158.72 27.734 217.173 78.08 59.307 52.48 92.16 121.6 92.16 194.987v213.333C821.333 688.213 688.213 800 512 800zm0-682.667c-135.253 0-245.333 93.867-245.333 209.067v213.333C266.667 651.52 372.053 736 512 736s245.333-84.48 245.333-196.267V326.4c0-54.613-24.746-106.667-70.4-146.773C640.427 139.52 578.56 117.333 512 117.333z"/></svg>