<svg viewBox="0 0 1024 1024" xmlns="http://www.w3.org/2000/svg"><path d="M661.333 561.067h-92.586c-75.947 0-137.814-61.44-137.814-137.814v-92.586c0-17.494-14.08-32-32-32H263.68c-98.56 0-178.347 64-178.347 178.346V760.32c0 114.347 79.787 178.347 178.347 178.347h251.307c98.56 0 178.346-64 178.346-178.347V593.067c0-17.92-14.506-32-32-32zM760.32 85.333H509.013c-96.426 0-174.506 61.44-177.92 171.094 2.56 0 4.694-.427 7.254-.427H589.653C688.213 256 768 320 768 434.347V718.08c0 2.56-.427 4.693-.427 6.827 95.147-2.987 171.094-66.134 171.094-177.494V263.68c0-114.347-79.787-178.347-178.347-178.347zM511.147 305.067c-13.227-13.227-35.84-4.267-35.84 14.08v111.786c0 46.934 39.68 85.334 88.32 85.334 30.293.426 72.533.426 108.8.426 18.346 0 27.733-21.333 14.933-34.133-46.507-46.507-129.28-129.707-176.213-177.493z"/></svg>