<svg viewBox="0 0 1023.9829 1024" xmlns="http://www.w3.org/2000/svg"><path d="M711.098 541.403V771.4q0 86.584-54.042 140.514-53.987 53.872-140.343 53.872H251.33q-86.412 0-140.4-53.873-54.04-53.93-54.04-140.514V439.857q0-86.584 54.04-140.57 53.988-53.816 140.4-53.816h163.383q80.497 0 137.442 56.944l101.942 101.488q57.002 57.06 57.002 137.5zm-56.887 0q0-56.89-40.275-97.165l-102-101.602Q471.6 302.36 414.713 302.36H251.33q-137.554 0-137.554 137.497V771.4q0 62.975 37.376 100.293Q188.41 908.9 251.33 908.9h265.383q137.498 0 137.498-137.5zm312.886-189.38v229.94q0 86.357-54.044 140.4-54.044 54.044-140.343 54.044h-90.054q-11.776 0-20.14-8.363-8.305-8.306-8.305-20.082V541.46q0-56.945-40.332-97.222L511.99 342.748q-40.388-40.388-97.277-40.388h-73.386q-11.776 0-20.137-8.306-8.306-8.364-8.306-20.14v-23.892q0-194.387 194.385-194.387h163.44q80.495 0 137.44 56.945l102 102q56.945 56.946 56.945 137.44zm-56.89 0q0-56.945-40.332-97.222L767.93 152.803q-40.333-40.28-97.22-40.28H507.27q-135.223 0-137.44 132.95h44.883q80.497 0 137.385 56.944L654.154 404.02Q711.1 460.963 711.1 541.46v178.058h61.61q137.498 0 137.498-137.555z"/></svg>