<svg viewBox="0 0 1024 1024" xmlns="http://www.w3.org/2000/svg"><path d="M486.4 970.667H324.267c-187.307 0-270.934-83.627-270.934-270.934V537.6c0-187.307 83.627-270.933 270.934-270.933h128c17.493 0 32 14.506 32 32 0 17.493-14.507 32-32 32h-128c-152.747 0-206.934 54.186-206.934 206.933v162.133c0 152.747 54.187 206.934 206.934 206.934H486.4c152.747 0 206.933-54.187 206.933-206.934v-128c0-17.493 14.507-32 32-32 17.494 0 32 14.507 32 32v128c0 187.307-83.626 270.934-270.933 270.934zm238.933-366.934H588.8c-119.893 0-168.533-48.64-168.533-168.533V298.667c0-12.8 7.68-24.747 19.626-29.44 11.947-5.12 25.6-2.134 34.987 6.826L747.947 549.12c8.96 8.96 11.946 23.04 6.826 34.987-4.693 11.946-16.64 19.626-29.44 19.626zm-241.066-227.84V435.2c0 84.907 19.626 104.533 104.533 104.533h59.307l-163.84-163.84zM665.6 117.333H494.933c-17.493 0-32-14.506-32-32 0-17.493 14.507-32 32-32H665.6c17.493 0 32 14.507 32 32 0 17.494-14.507 32-32 32zm-366.933 128c-17.494 0-32-14.506-32-32 0-88.32 71.68-160 160-160h111.786c17.494 0 32 14.507 32 32 0 17.494-14.506 32-32 32H426.667c-52.907 0-96 43.094-96 96 0 17.494-14.507 32-32 32zm520.106 512c-17.493 0-32-14.506-32-32 0-17.493 14.507-32 32-32 48.64 0 87.894-39.68 87.894-87.893V341.333c0-17.493 14.506-32 32-32 17.493 0 32 14.507 32 32V605.44c0 83.627-68.267 151.893-151.894 151.893zm119.894-384h-128c-113.494 0-160-46.506-160-160v-128c0-12.8 7.68-24.746 19.626-29.44 11.947-5.12 25.6-2.133 34.987 6.827l256 256c8.96 8.96 11.947 23.04 6.827 34.987-4.694 11.946-16.64 19.626-29.44 19.626zm-224-210.773v50.773c0 78.08 17.92 96 96 96h50.773L714.667 162.56z"/></svg>