<svg viewBox="0 0 1024 1024" xmlns="http://www.w3.org/2000/svg"><path d="M908.8 256H115.2c-39.98 0-72.533 32.555-72.533 72.533V681.26c0 39.977 32.554 72.532 72.533 72.532h793.6c39.98 0 72.533-32.555 72.533-72.533V328.532c0-39.978-32.554-72.533-72.533-72.533zm45.013 425.26c0 24.83-20.18 45.012-45.013 45.012H115.2c-24.832 0-45.013-20.18-45.013-45.013V328.532c0-24.832 20.18-45.013 45.013-45.013h793.6c24.832 0 45.013 20.18 45.013 45.013V681.26zM908.8 314.794H747.136c-3.627 0-7.125 1.45-9.728 4.01-2.56 2.603-4.01 6.102-4.01 9.728 0 3.627 1.45 7.126 4.01 9.728 2.603 2.56 6.1 4.012 9.728 4.012h29.61c-20.522 28.757-33.877 46.208-41.642 56.405-12.075 15.744-15.275 19.968-12.8 28.16 1.408 4.566 4.95 8.107 9.643 9.686 1.92.64 4.522 1.493 41.386 1.493 14.848 0 35.2-.128 63.318-.512 7.595-.085 13.654-6.315 13.57-13.91-.087-7.594-6.316-13.653-13.91-13.567-23.68.298-54.827.512-75.606.426 9.77-12.842 25.77-34.133 49.792-68.18h84.565v325.204h-51.924c-2.944-15.7-11.648-29.397-23.765-38.912 15.147-11.818 24.918-30.25 24.918-50.944 0-35.71-29.013-64.724-64.725-64.724-30.848 0-57.558 21.93-63.53 52.18-.684 3.585.042 7.297 2.09 10.327 2.048 3.03 5.205 5.12 8.746 5.802 3.583.726 7.295-.042 10.325-2.048 3.03-2.048 5.12-5.205 5.845-8.79 3.413-17.364 18.773-29.994 36.523-29.994 20.522 0 37.248 16.683 37.248 37.248 0 20.524-16.725 37.207-37.247 37.207-3.627 0-7.126 1.45-9.728 4.053-2.56 2.56-4.01 6.06-4.01 9.685 0 3.67 1.45 7.168 4.01 9.728 2.602 2.603 6.1 4.054 9.728 4.054 16.298 0 30.165 10.538 35.2 25.13H658.005V342.272h30.336c3.67 0 7.17-1.45 9.73-4.01 2.602-2.603 4.053-6.102 4.053-9.73 0-3.625-1.45-7.124-4.054-9.727-2.56-2.56-6.06-4.01-9.73-4.01H115.2c-3.627 0-7.125 1.45-9.728 4.01-2.56 2.603-4.01 6.102-4.01 9.728V681.26c0 3.625 1.45 7.124 4.01 9.727 2.603 2.56 6.1 4.01 9.728 4.01h44.075c3.67 0 7.168-1.45 9.728-4.01 2.602-2.603 4.053-6.102 4.053-9.728 0-3.67-1.45-7.17-4.053-9.73-2.56-2.602-6.06-4.053-9.728-4.053H128.94V342.272h237.055v325.205H218.07c-3.627 0-7.126 1.45-9.73 4.054-2.56 2.56-4.01 6.06-4.01 9.73 0 3.625 1.45 7.124 4.01 9.727 2.604 2.56 6.103 4.01 9.73 4.01H908.8c3.67 0 7.125-1.45 9.728-4.01 2.56-2.603 4.01-6.102 4.01-9.728V328.532c0-1.792-.34-3.584-1.023-5.248-.726-1.664-1.707-3.2-2.987-4.48-1.28-1.28-2.816-2.304-4.48-2.986-1.664-.684-3.456-1.025-5.248-1.025zm-515.328 27.477h237.056v325.205H393.472V342.272zm135.04 50.816h-42.027c-3.626 0-7.125 1.45-9.685 4.053-2.603 2.56-4.053 6.06-4.053 9.73 0 3.626 1.45 7.125 4.053 9.685 2.56 2.602 6.06 4.053 9.685 4.053h28.288v182.827c0 3.67 1.45 7.125 4.01 9.728 2.604 2.56 6.102 4.01 9.73 4.01 3.668 0 7.167-1.45 9.727-4.01 2.56-2.603 4.01-6.06 4.01-9.728V406.87c0-3.67-1.45-7.17-4.01-9.73-2.56-2.6-6.06-4.052-9.728-4.052zm-210.9 157.525V459.69c0-38.91-31.66-70.613-70.615-70.613-38.912 0-70.57 31.702-70.57 70.614v90.923c0 38.912 31.658 70.57 70.57 70.57 38.955 0 70.614-31.658 70.614-70.57zm-113.708 0V459.69c0-23.765 19.328-43.093 43.093-43.093 23.766 0 43.094 19.328 43.094 43.094v90.923c0 23.766-19.327 43.094-43.093 43.094-23.765 0-43.093-19.328-43.093-43.094z"/></svg>