<svg viewBox="0 0 1023.7952 1024" xmlns="http://www.w3.org/2000/svg"><path d="M548.088 537.543l289.02-289.017c9.98-9.982 9.98-26.21 0-36.19-9.983-9.983-26.21-9.983-36.194 0L511.898 501.352 222.88 212.336c-9.982-9.983-26.21-9.983-36.192 0-9.983 9.98-9.98 26.208 0 36.19l289.02 289.017-289.02 289.02c-9.98 9.98-9.98 26.208 0 36.19 5.018 5.016 11.57 7.474 18.122 7.474s13.105-2.51 18.122-7.474l289.016-289.018 289.018 289.017c5.017 5.016 11.57 7.474 18.12 7.474 6.553 0 13.107-2.51 18.124-7.474 9.982-9.982 9.982-26.21 0-36.192L548.19 537.545z"/></svg>