<svg viewBox="0 0 739.5556 1024" xmlns="http://www.w3.org/2000/svg"><path d="M170.667 1021.042C76.402 1021.042 0 944.582 0 850.318v-679.65C0 76.4 76.402 0 170.667 0h128c66.105 0 133.12 16.27 201.045 48.81 67.982 31.63 124.985 82.32 170.894 152.235 45.966 69.86 68.95 158.89 68.95 267.094v89.03c0 91.932-18.66 173.283-56.036 244.11-37.32 69.916-89.03 124.018-155.08 162.304-66.047 38.286-140.685 57.458-224.028 57.458H170.667zm129.48-90.51c55.522 0 107.69-12.402 156.5-37.32 48.81-25.827 88.576-66.56 119.182-122.083 30.662-55.525 45.966-125.896 45.966-211.06v-102c0-56.434-9.558-111.503-28.73-165.15-19.114-54.556-52.622-100.977-100.522-139.263-46.876-38.286-110.08-59.335-189.554-63.204h-17.465c-94.208 0-170.666 76.402-170.666 170.667v498.745c0 94.265 76.457 170.667 170.665 170.667h14.62z"/></svg>