<svg viewBox="0 0 1024 1024" xmlns="http://www.w3.org/2000/svg"><path d="M551.723 128c31.104 31.104 62.25 62.25 93.397 93.355 20.14 20.01 40.02 40.32 60.33 60.117-43.733 43.648-87.38 87.424-131.157 131.115-6.954 6.74-13.482 13.91-20.693 20.394-.555.343-1.664 1.025-2.22 1.41-50.985-51.03-102.015-102.06-153-153.046C449.492 230.23 500.607 179.157 551.722 128zM276.95 338.475c36.31-25.344 77.27-43.478 119.466-56.49v151.124h151.04c-.043 91.135 0 182.23-.043 273.365H396.416c-.043 20.95-.043 41.898 0 62.89 0 32.342.043 64.683-.128 97.024-36.395-12.075-71.68-28.075-103.85-49.11-29.995-19.285-57.13-43.05-79.958-70.485-25.003-30.336-44.33-65.536-55.04-103.424-10.71-36.906-13.056-76.202-6.912-114.09 8.02-49.92 31.104-96.94 64.128-135.04 18.09-21.333 39.34-39.808 62.293-55.765zm274.43 95.914c.556-.385 1.665-1.067 2.22-1.41 48.555.215 97.11.172 145.664.172 25.13-.043 50.22-.043 75.264-.043 16.853 31.402 30.293 64.895 36.608 100.053 5.675 30.72 5.504 62.55-1.62 93.056-6.4 28.67-19.03 55.68-34.945 80.297-34.218-.085-68.437-.042-102.613-.042h-.298c-37.804 0-75.65 0-113.495-.043 9.814-7.38 20.14-14.037 29.61-21.845 15.788-12.374 30.678-25.984 43.692-41.216 12.074-14.293 22.528-30.293 28.288-48.213 4.82-14.42 5.717-30.08 2.73-44.928-3.712-17.878-12.885-34.177-24.32-48.214-20.01-24.107-45.482-42.965-71.978-59.35-4.864-2.858-9.558-6.1-14.806-8.277zm-202.11 24.79c-28.16 19.924-50.987 48.937-58.923 82.943-4.907 20.82-4.054 43.008 2.816 63.274 10.197 31.36 33.664 57.26 61.78 73.942 12.716 7.935 26.753 13.44 40.833 18.56.128-56.663.128-113.28.085-169.943V433.75c-16.383 6.74-32.212 15.06-46.59 25.43zm467.498 338.9c.256-6.144 6.74-8.96 12.117-9.13 3.456.383 7.168 1.15 9.643 3.84 1.835 2.218 2.432 5.247 2.432 8.106-.043 11.477 0 22.955-.043 34.432-.085 2.304.342 4.82 2.176 6.443 4.864 4.694 13.142 4.61 18.347.47 1.75-1.835 2.816-4.352 2.688-6.912.043-4.736.043-9.472 0-14.165v-.043c0-7.68-.043-15.36.128-23.04.64-5.205 6.272-7.424 10.923-7.68 4.48.17 10.41 2.133 10.665 7.424.086 8.277.086 16.597.086 24.875-.042 5.887-.042 11.732 0 17.62-.042 11.648-11.135 19.157-21.333 21.888-11.52 2.86-23.424-.768-33.536-6.357-6.783 4.61-14.463 8.833-22.91 8.79-10.37.597-20.097-4.82-27.35-11.82-6.443 5.633-14.507 9.857-23.253 9.815-8.96.512-18.134-2.603-24.662-8.747-5.418 3.925-10.58 8.192-16.042 12.032-5.42.256-10.923.213-16.384.17-3.543 0-7.04-.042-10.583 0-3.242.257-6.826-.895-8.49-3.882-.896-2.432-1.195-5.077-1.152-7.723.085-11.093 0-22.23.085-33.365.128-5.29-2.645-10.965-7.595-13.14-5.546-2.903-12.97-1.665-17.152 3.028-2.9 3.328-4.18 7.808-4.096 12.16v1.365c.043 7.936.043 15.915 0 23.894 1.11 0 2.176 0 3.286-.043 3.03-.085 6.1-.128 8.917 1.024 5.248 3.712 4.992 13.525-1.323 16.043-2.304.257-4.608.214-6.954.17-1.28 0-2.603-.04-3.883 0-1.493-.04-2.987-.04-4.48 0-3.925.087-7.85.172-11.52-1.28-.17-.297-.34-.64-.555-.937-.896-1.494-1.792-3.03-1.664-4.78-.04-6.698 0-13.396 0-20.095 0-6.485 0-12.97-.04-19.456-.343-8.405 3.668-17.024 10.537-21.888 6.23-4.736 14.123-6.613 21.803-6.912 12.5 0 26.24 5.077 32.47 16.597 3.37 5.546 2.858 12.117 3.413 18.303.042 4.822.042 9.643.042 14.507 0 2.39-.042 4.82-.042 7.253 4.65 0 9.258 0 13.91.043 2.346-2.603 4.607-5.29 7.124-7.765-1.834-6.27-2.688-12.97-1.024-19.37 2.816-13.184 13.824-24.107 27.05-26.837 8.705-1.707 18.134-.555 25.73 4.31 12.97 7.68 20.01 24.106 16.127 38.74 4.14 4.608 9.088 9.344 15.573 9.9 6.23.426 10.283-6.017 10.667-11.564.043-5.206.043-10.454 0-15.702 0-6.87-.043-13.696.128-20.565zm-381.355-43.435c3.414-.853 7.296.726 9.26 3.627 2.26 2.9 2.815 6.74 2.73 10.368V837.376c.213 3.115.256 7.083 3.285 8.832 1.75.81 3.712.768 5.632.725h.043c.725-.042 1.45-.042 2.133 0 3.072-.17 6.144.043 9.173.256 4.522.255 9.045.554 13.525-.214 4.224-.98 4.48-6.1 4.608-9.643v-14.165-28.373c-.043-5.846 4.138-11.862 10.282-12.374 6.784-.68 11.904 5.975 11.862 12.332.128 11.947.128 23.893.085 35.84 0 4.907-.043 9.856-.043 14.763.127 7.125-2.475 14.677-8.45 18.9-4.735 3.713-11.007 4.268-16.852 4.396h-32.3c-5.033 0-10.28-.725-14.505-3.67-5.76-3.84-9.13-10.708-9.216-17.535v-79.872c.042-5.46 3.03-11.562 8.704-12.97zm122.54 37.718c1.834-1.067 3.967-1.067 6.058-1.067h.683c3.84.085 7.723.043 11.563.043 3.883 0 7.723 0 11.605.04 10.88.513 20.737 7.425 26.07 16.727 8.022 14.336 7.81 33.62-2.39 46.933-5.46 7.34-14.42 11.563-23.508 11.99-5.29.17-10.58.127-15.915.085h-7.594c-4.907 0-10.752-3.072-11.136-8.448-.982-5.504 4.138-10.41 9.43-10.667 4.436-.085 8.874-.043 13.31-.043 2.22 0 4.438.043 6.657.043 7.296.3 13.696-5.76 15.147-12.715 2.817-10.197-1.706-23.722-12.714-26.624-4.267-.17-8.533-.127-12.8-.084-4.053.043-8.064.043-12.075-.085-3.668-.682-7.72-3.327-7.892-7.38-.597-3.755 2.304-7.17 5.504-8.705zm-33.366-38.315c6.442-2.944 16.597.34 16.81 8.363v97.237c.17 5.718-6.1 8.918-11.093 8.534-5.035.556-10.71-2.56-11.648-7.72-.043-18.86 0-37.676 0-56.535v-.128-42.24c-.3-3.626 2.9-6.314 5.93-7.51zm224.298 54.7c-10.837 4.393-15.104 19.113-8.746 28.84 4.905 8.705 17.407 11.65 25.684 6.017 8.277-5.077 11.008-16.64 6.955-25.258-3.756-8.96-14.977-13.312-23.895-9.558zm57.088 66.6c5.888-2.26 12.886 2.476 13.824 8.535 0-6.827 8.747-11.35 14.55-7.98 6.613 2.817 8.32 12.844 2.474 17.366-5.503 5.46-16 2.047-17.28-5.59-1.32 5.376-6.996 9.387-12.543 8.064-5.973-1.067-10.24-8.192-7.808-13.867 1.11-3.072 3.67-5.504 6.74-6.57zm42.283 7.425c.98-4.906 5.717-7.637 10.368-8.234 2.987.767 6.144 1.62 7.936 4.308 5.333 5.76.98 16.47-6.827 17.067-.426.042-.896.085-1.365.085-6.485 0-12.203-6.784-10.155-13.227zM494.166 754.86c7.38-3.2 16.127 4.735 13.738 12.415-1.45 7.51-11.733 10.624-17.195 5.46-5.89-4.863-3.97-15.7 3.455-17.876z"/></svg>