<svg viewBox="0 0 1024 1024" xmlns="http://www.w3.org/2000/svg"><path d="M554.71 629.333H85.375c-17.493 0-32-14.506-32-32V256c0-111.787 90.88-202.667 202.667-202.667h384c17.493 0 32 14.507 32 32V512c0 64.853-52.48 117.333-117.334 117.333zm-437.334-64H554.71c29.44 0 53.333-23.893 53.333-53.333V117.333h-352c-76.374 0-138.667 62.294-138.667 138.667v309.333zm693.333 320h-42.67c-17.495 0-32-14.506-32-32 0-29.44-23.895-53.333-53.335-53.333s-53.334 23.893-53.334 53.333c0 17.494-14.506 32-32 32H426.71c-17.494 0-32-14.506-32-32 0-29.44-23.894-53.333-53.334-53.333-29.44 0-53.333 23.893-53.333 53.333 0 17.494-14.507 32-32 32h-42.667c-88.32 0-160-71.68-160-160v-128c0-17.493 14.507-32 32-32H554.71c29.44 0 53.333-23.893 53.333-53.333V213.333c0-17.493 14.506-32 32-32h78.506c42.24 0 81.063 22.614 101.97 59.307l72.96 127.573c5.546 9.814 5.546 22.187 0 32-5.545 9.814-16.21 15.787-27.73 15.787h-55.04c-5.975 0-10.668 4.693-10.668 10.667v128c0 5.973 4.693 10.666 10.666 10.666h128c17.49 0 32 14.507 32 32v128c0 88.32-71.68 160-160 160zm-14.937-64h14.933c52.906 0 96-43.093 96-96v-96h-96c-40.96 0-74.667-33.706-74.667-74.666v-128c0-40.96 33.28-74.667 74.666-74.667l-45.654-79.787c-9.387-16.64-27.307-26.88-46.507-26.88H672.04V512c0 64.853-52.48 117.333-117.335 117.333h-437.33v96c0 52.907 43.093 96 96 96h14.933C242.39 772.267 287.615 736 341.375 736c53.76 0 98.987 36.267 113.067 85.333H570.07C584.15 772.267 629.375 736 683.135 736s98.56 36.267 112.64 85.333zm-454.4 149.334c-64.853 0-117.333-52.48-117.333-117.334C224.04 788.48 276.52 736 341.375 736c64.853 0 117.333 52.48 117.333 117.333 0 64.854-52.48 117.334-117.334 117.334zm0-170.667c-29.44 0-53.333 23.893-53.333 53.333 0 29.44 23.894 53.334 53.334 53.334 29.44 0 53.333-23.894 53.333-53.334 0-29.44-23.894-53.333-53.334-53.333zM682.71 970.667c-64.854 0-117.334-52.48-117.334-117.334C565.376 788.48 617.856 736 682.71 736c64.853 0 117.333 52.48 117.333 117.333 0 64.854-52.48 117.334-117.334 117.334zm0-170.667c-29.44 0-53.334 23.893-53.334 53.333 0 29.44 23.893 53.334 53.333 53.334 29.44 0 53.33-23.894 53.33-53.334 0-29.44-23.894-53.333-53.334-53.333zm256-170.667h-128c-40.96 0-74.667-33.706-74.667-74.666v-128c0-40.96 33.706-74.667 74.666-74.667h55.04c11.52 0 22.183 5.973 27.73 16.213l72.96 128c2.56 4.694 4.266 10.24 4.266 15.787v85.333c0 17.494-14.507 32-32 32zM810.71 416c-5.974 0-10.667 4.693-10.667 10.667v128c0 5.973 4.693 10.666 10.666 10.666h96v-44.8L846.972 416H810.71z"/></svg>