<svg viewBox="0 0 1024 1024" xmlns="http://www.w3.org/2000/svg"><path d="M139.733 377.6H447.19c5.717 0 10.41 4.736 10.41 10.58v128.983c0 5.802-4.693 10.58-10.41 10.58H139.732c-5.717 0-10.368-4.778-10.368-10.58V388.18c0-5.844 4.694-10.58 10.368-10.58zM896 407.34v53.332c-.896 23.34-19.968 42.155-43.093 42.155H826.54l-14.124-16.768c-7.936 10.196-20.18 16.767-33.877 16.767h-26.37l-15.317-18.176c-6.23 7.595-14.677 12.758-25.43 15.617-11.092 1.493-25.77 2.005-44.03 1.578-4.353-.98-5.334-3.328-2.988-7.125 5.248-6.23 11.435-12.97 15.872-17.152 8.49.043 15.83 0 21.93-.17 10.753-.897 17.793-7.04 20.78-16.086 3.03-9.216 1.834-18.987-4.822-26.283-13.226-14.593-33.11-7.21-44.672 5.205-12.63 13.568-18.09 28.245-33.066 41.856-14.38 13.057-30.25 19.883-47.616 20.438l-18.73.085c-3.712-.042-5.59-2.346-5.42-7.168V477.78l-.084-15.615v-34.39H529.62c-12.116 0-22.057 10.07-22.057 22.444v2.516c0 13.74 11.05 24.96 24.533 24.96h20.096c2.73-.085 4.48 1.11 4.95 2.86.597 2.345-.81 3.625-2.262 4.948-.17.17-.34.3-.512.47l-16.384 16.554h-5.888c-26.965 0-49.067-22.485-49.067-49.963 0-27.477 22.058-49.962 49.066-49.962h55.34c2.943 0 5.375 2.474 5.375 5.46v69.206c15.574.554 30.85-10.24 45.867-32.47 7.083-10.496 14.422-19.115 21.974-25.77 21.59-18.902 49.537-23.723 72.065-3.457 17.45 15.66 20.266 39.68 10.07 59.862h32.17c12.288 0 22.357-10.24 22.357-22.784v-30.677l18.73-19.2c2.177-2.218 5.633-1.322 5.633 5.718v50.433c0 5.845-1.152 11.392-3.2 16.512h30.848c12.288 0 22.357-10.24 22.357-22.784v-30.677l18.73-19.2c2.05-2.09 5.206-1.408 5.59 4.566zm-568.15 19.497c3.67-3.754 14.337-13.482 16.3-17.75 1.493-3.2 1.023-6.4-4.48-7.082l-30.25.043c-17.324.597-33.24 7.424-47.617 20.48-14.976 13.568-20.438 28.288-33.067 41.813-11.563 12.417-31.403 19.8-44.672 5.25-6.656-7.297-7.85-17.067-4.78-26.283 2.945-9.046 9.985-15.19 20.78-16.086 6.06-.17 13.397-.212 21.888-.212 4.437-4.14 10.624-10.88 15.872-17.152 2.347-3.755 1.365-6.1-2.944-7.083-18.304-.47-32.98.043-44.075 1.58-13.14 3.455-23.168 10.452-29.525 20.99-12.587 20.908-10.325 47.02 8.235 63.66 22.528 20.266 50.474 15.445 72.064-3.456 7.55-6.656 14.89-15.275 21.972-25.77 15.02-22.23 30.293-33.025 45.867-32.47l18.388-.47zm5.078 75.904h51.2c26.965 0 49.067-22.484 49.067-49.92 0-12.16-4.352-23.38-11.52-32.04-12.075-14.636-25.686-17.92-43.435-17.92l-16.384 16.553c-2.517 2.347-1.58 8.363 4.907 8.278h17.365c13.483 0 24.533 11.222 24.533 24.96v2.518c0 12.33-9.94 22.443-22.1 22.443h-42.496l-16.683 15.915c-3.54 3.328-3.753 9.216 5.548 9.216zm425.984 23.596h15.104c2.816 0 5.077 2.347 5.077 5.163v15.828c0 2.816-2.26 5.163-5.077 5.163h-15.104c-2.773 0-5.077-2.346-5.077-5.162v-15.83c0-2.815 2.304-5.162 5.077-5.162zm29.653 0h15.104c2.773 0 5.077 2.347 5.077 5.163v15.828c0 2.816-2.304 5.163-5.078 5.163h-15.105c-2.816 0-5.12-2.346-5.12-5.162v-15.83c0-2.815 2.304-5.162 5.12-5.162zm59.094.043c2.772 0 5.076 2.303 5.076 5.16v15.788c0 2.86-2.304 5.205-5.077 5.205h-15.105c-2.816 0-5.12-2.346-5.12-5.205V531.54c0-2.857 2.304-5.16 5.12-5.16zm-115.927 21.417v5.93h-602.41v-5.93zm-564.65 26.752c.98-.81 1.664-.13 1.664.47v61.823H158.72v-.043h-16.213c-7.98 0-14.507-6.656-14.507-14.805v-11.648c0-8.704 6.997-15.83 15.53-15.83h15.19v-11.99c0-.724.768-1.706 1.323-2.175zm491.008 19.71l5.675-7.124c.47-.597 1.45-1.365 2.176-1.365h17.196c7.51 0 13.653 6.23 13.653 13.867V627.5h-.043v9.385h-26.54c-7.978 0-13.695-4.82-13.695-10.71v-8.404c0-6.314 6.144-11.477 14.72-11.477h15.104v-5.418c0-2.688-2.176-4.95-4.864-4.95H658.56c-.64 0-1.237-.682-.47-1.664zm-460.757 0l5.718-7.124c.47-.597 1.41-1.365 2.177-1.365h17.194c7.51 0 13.655 6.23 13.655 13.867V627.5h-.043v9.385h-26.58c-7.98 0-13.697-4.82-13.697-10.71v-8.404c0-6.314 6.186-11.477 14.72-11.477h15.146v-5.418c0-2.688-2.217-4.95-4.863-4.95h-22.912c-.64 0-1.28-.682-.512-1.664zm671.36-8.532h11.435c8.064 0 14.635 5.845 14.635 14.037v5.334c-.683 6.015-3.542 9.64-8.62 10.88H865.28v5.887c0 2.986 2.39 5.418 5.29 5.418h23.254c.597 0 1.195.683.47 1.622l-5.462 6.826c-.427.555-1.365 1.323-2.048 1.323-6.272 0-12.5-.085-18.73-.085-7.98 0-14.55-6.655-14.55-14.805V600.32c0-8.49 6.87-14.592 15.19-14.592zm-604.885 58.965l5.675-7.125c.47-.597 1.45-1.365 2.176-1.365h16.212c2.517-.17 4.565-2.347 4.565-4.95v-5.205h-17.493c-7.51 0-13.653-6.272-13.653-13.91V592.6c0-.726.77-1.75 1.323-2.22l7.04-5.802c.982-.768 1.664-.128 1.664.512v25.387c0 2.73 2.176 4.95 4.864 4.95h16.257V604.67h.086V593.92c0-.725.768-1.707 1.322-2.176l7.04-5.803c.982-.81 1.664-.127 1.664.47v38.955h-.17v7.168c0 7.638-6.145 13.867-13.655 13.867H264.32c-.597 0-1.28-.683-.512-1.664zm249.3-60.074c2.05 0 2.647.98 1.28 3.625l-4.692 7.083H493.91c-2.006 0-3.627 1.664-3.627 3.712v2.944c0 2.048 1.62 3.67 3.626 3.67h12.33c8.235 0 14.976 6.87 14.976 15.23v1.367c0 8.363-6.74 15.19-14.976 15.19h-22.23c-2.09 0-2.687-.98-1.28-3.627l4.694-7.082h18.816c1.963 0 3.627-1.62 3.627-3.67v-2.985c0-2.006-1.622-3.67-3.627-3.67h-12.33c-8.235 0-14.977-6.87-14.977-15.232v-1.322c0-8.362 6.742-15.23 14.976-15.23zm241.708 52.436l-.555-.043c-.81 0-1.065.043-1.065-.47v-35.412c0-2.73-2.22-4.95-4.864-4.95h-16.17v38.188c0 .725-.64 2.176-1.365 2.176l-7.04-.043h-.598c-.768 0-1.066 0-1.066-.51v-43.393l7.595-7.082h19.84c7.51 0 13.654 6.272 13.654 13.91v35.455c0 .768-.6 2.22-1.367 2.22zm-307.883 0l-.554-.043c-.812 0-1.068.043-1.068-.47v-35.412c0-2.73-2.22-4.95-4.864-4.95h-16.213v38.188c0 .725-.598 2.176-1.323 2.176l-7.04-.043h-.597c-.768 0-1.067 0-1.067-.51v-43.393l7.595-7.082h19.84c7.51 0 13.653 6.272 13.653 13.91v35.455c0 .768-.597 2.22-1.365 2.22zm104.32-52.01l-.042.042c.982-.81 1.665-.128 1.665.47v35.455c0 2.688 2.176 4.95 4.864 4.95h16.17V593.62c0-.767.767-1.748 1.365-2.217l7.04-5.803c.938-.768 1.664-.085 1.664.512v50.39h-.087v.085h-27.35c-7.508 0-13.652-6.272-13.652-13.91v-29.61c0-.768.77-1.75 1.323-2.22zm255.275.298h23.38c.6 0 1.24.683.47 1.664l-5.674 7.168c-.47.597-1.45 1.365-2.176 1.365h-18.432c-2.773 0-5.035 2.305-5.035 5.12v20.353c0 2.987 2.39 5.42 5.335 5.42H829.908c.6 0 1.24.682.47 1.706l-5.674 7.124c-.47.597-1.45 1.365-2.176 1.365h-16v-.13h-4.693c-7.638 0-13.867-6.356-13.867-14.12v-22.913c0-7.766 6.23-14.123 13.867-14.123zm-183.424 0h17.707c.598 0 1.238.725.47 1.707l-5.675 7.126c-.47.597-1.45 1.365-2.176 1.365h-8.065c-2.773 0-5.077 2.305-5.077 5.164v35.968c0 .213.043.47.085.725h-11.136v-37.93c0-7.766 6.23-14.123 13.867-14.123zm-242.73.64h7.722c.896 0 1.58.725 1.58 1.62v48.044c0 .896-.727 1.62-1.58 1.62h-7.723c-.896 0-1.578-.767-1.578-1.62v-48.043c0-.896.725-1.62 1.578-1.62zm-221.61 15.573l-5.42 4.096h-9.94c-2.22 0-4.012 1.835-4.012 4.054v12.202c0 2.56 2.09 4.65 4.608 4.65h14.763zm48.98 15.66c-1.408 0-2.603.852-2.603 1.92v6.1c0 1.195 1.367 2.22 3.03 2.22h18.09l-.084-15.702-6.912 5.46zm460.757 0c-1.45 0-2.644.852-2.644 1.92v6.1c0 1.195 1.365 2.22 3.03 2.22h18.09l-.085-15.702-6.91 5.46zm200.45-21.206c-2.262 0-4.14 1.878-4.14 4.225 0 3.285.13 6.57.17 9.856 1.452-2.047 2.988-3.2 4.652-3.498h10.453c2.262 0 4.14-1.92 4.14-4.224v-2.133c0-2.347-1.878-4.224-4.14-4.224z"/></svg>