<svg viewBox="0 0 1024 1024" xmlns="http://www.w3.org/2000/svg"><path d="M922.738 491.35l80.1 20.65-80.1 20.65C736.71 580.61 591.36 726.017 543.403 911.987l-20.65 80.1-20.652-80.1c-47.955-185.97-193.306-331.378-379.333-379.335L42.667 512l80.1-20.65C308.792 443.39 454.143 297.983 502.1 111.956l20.652-80.042 20.65 80.042C591.36 297.984 736.712 443.392 922.74 491.35zM810.78 330.523c0-49.89-57.685-106.61-106.552-106.61 50.744 0 106.552-57.628 106.552-106.61 0 48.982 56.32 106.61 106.61 106.61-52.224 0-106.61 57.06-106.61 106.61z"/></svg>