<svg viewBox="0 0 1024 1024" xmlns="http://www.w3.org/2000/svg"><path d="M83.115 512q0-236.09 96.37-332.46 96.31-96.31 332.457-96.31 236.09 0 332.46 96.313 96.312 96.37 96.312 332.46 0 236.146-96.313 332.46-96.37 96.368-332.46 96.368-236.144 0-332.457-96.37-96.37-96.313-96.37-332.46zm68.266 0q0 207.872 76.347 284.217 76.345 76.345 284.217 76.345 207.815 0 284.16-76.345Q872.448 719.872 872.448 512q0-207.815-76.345-284.16-76.345-76.345-284.16-76.345-207.872 0-284.217 76.345Q151.38 304.185 151.38 512zm226.76 85.504L597.45 378.197q9.956-10.012 24.12-10.012 14.11 0 24.122 10.012 10.01 10.013 10.01 24.12 0 14.167-10.01 24.18L426.38 645.802q-10.012 9.955-24.12 9.955-14.166 0-24.122-9.955-10.012-10.013-10.012-24.178 0-14.11 10.012-24.12zm240.243-12.97h.398q14.11 0 24.12 10.012 10.015 9.955 10.015 24.12 0 14.166-10.013 24.122-10.01 10.012-24.12 10.012h-.398q-14.108 0-24.12-10.012-10.013-9.956-10.013-24.12 0-14.167 10.01-24.122 10.015-10.013 24.123-10.013zM405.05 371.2h.397q14.11 0 24.12 10.012 10.013 9.956 10.013 24.12 0 14.167-10.012 24.122-10.012 10.013-24.12 10.013h-.4q-14.108 0-24.12-10.013-10.012-9.955-10.012-24.12 0-14.166 10.012-24.122 10.012-10.012 24.12-10.012z"/></svg>