<svg viewBox="0 0 1023.9992 1024.0004" xmlns="http://www.w3.org/2000/svg"><path d="M85.333 512q0-235.22 95.702-330.965 95.744-95.7 330.965-95.7 235.22 0 330.964 95.7Q938.666 276.78 938.666 512q0 235.222-95.702 330.966-95.744 95.7-330.964 95.7t-330.965-95.7Q85.333 747.222 85.333 512zm64 0q0 208.726 76.97 285.696 76.972 76.97 285.697 76.97 208.724 0 285.695-76.97 76.97-76.97 76.97-285.696 0-208.725-76.97-285.696-76.97-76.97-285.695-76.97t-285.696 76.97q-76.97 76.97-76.97 285.696zm191.232 131.328l67.158-214.613q4.992-15.957 20.992-20.95l214.613-67.2q12.63-3.925 24.404 2.22 11.735 6.143 15.702 18.773 2.986 9.557 0 19.114l-67.157 214.57q-5.035 16-20.993 20.993l-214.612 67.2q-12.672 3.968-24.405-2.176-11.734-6.146-15.702-18.818-2.986-9.557 0-19.115zm79.36-39.253L560.17 560.17l43.904-140.244-140.287 43.904-43.862 140.245z"/></svg>