<svg viewBox="0 0 1024 1024.0004" xmlns="http://www.w3.org/2000/svg"><path d="M522.752 96.028c307.143 0 415.972 108.886 415.972 415.972 0 307.143-108.83 415.972-415.972 415.972-307.143 0-416.028-108.83-416.028-415.972 0-307.086 108.885-415.972 416.028-415.972zm154.34 297.7c3.242-10.183.512-21.39-7.112-28.956-7.566-7.624-18.716-10.41-28.956-7.168l-193.308 60.472c-8.99 2.845-16.043 9.9-18.888 18.888l-60.472 193.308c-3.243 10.24-.456 21.39 7.11 28.956 5.52 5.52 12.858 8.477 20.367 8.477 2.9 0 5.803-.455 8.647-1.31l193.252-60.528c9.045-2.788 16.1-9.9 18.944-18.944z"/></svg>