<svg viewBox="0 0 1024 1024" xmlns="http://www.w3.org/2000/svg"><path d="M980.224 459.22V91.18c0-12.887-5.077-25.217-14.208-34.305-9.088-9.088-21.42-14.208-34.26-14.208H91.178c-12.887 0-25.217 5.12-34.305 14.208-9.088 9.088-14.208 21.418-14.208 34.304v368.04c0 12.887 5.12 25.217 14.208 34.305 9.088 9.088 21.418 14.208 34.304 14.208h163.753l-2.773 11.008-64 25.047-72.107 28.586c-7.466 2.902-14.08 7.595-19.328 13.654-5.205 6.058-8.832 13.312-10.58 21.12L43.818 802.432c-1.537 7.04-1.452 14.38.212 21.42 1.664 7.04 4.907 13.61 9.43 19.2 4.565 5.63 10.282 10.153 16.81 13.31 6.528 3.115 13.653 4.737 20.907 4.737h484.948c9.13 0 18.133-2.604 25.9-7.468 7.72-4.907 13.95-11.904 17.876-20.18 11.99 1.79 25.728 3.07 40.747 4.393l-3.71 19.84L576.127 896c-23.125 7.765-45.61 19.755-50.133 45.61l-4.352 19.713c-.47 2.133-.512 4.31-.128 6.442.426 2.134 1.237 4.182 2.39 6.016 1.194 1.836 2.73 3.372 4.48 4.61 1.79 1.237 3.796 2.133 5.93 2.56 4.31.938 8.79.127 12.458-2.262 1.835-1.195 3.414-2.688 4.65-4.48 1.238-1.792 2.092-3.797 2.56-5.93 3.073-11.947 3.073-30.55 17.28-35.073l17.793-7.296s80.81-38.614 80.81-38.443c24.278 15.06 52.267 23.04 80.81 23.04 28.588 0 56.577-7.98 80.855-23.04l80.81 38.314c10.2 4.353 29.91 8.705 31.532 22.615l4.053 19.882c.427 2.134 1.323 4.14 2.56 5.93 1.195 1.793 2.774 3.286 4.608 4.48 1.835 1.196 3.883 2.006 6.016 2.39 2.133.384 4.31.342 6.442-.128 2.133-.427 4.14-1.323 5.93-2.56 1.793-1.238 3.286-2.774 4.48-4.61 1.153-1.833 2.006-3.88 2.39-6.015.384-2.133.34-4.31-.128-6.442l-4.18-19.542c-4.865-25.727-26.54-37.844-49.495-45.268l-80.81-38.827-3.372-19.84c102.613-8.106 117.504-25.728 117.504-43.818-4.523-18.432-23.296-41.387-23.125-76.16v-140.46c0-23.892-4.608-47.53-13.568-69.674 6.996.982 14.12.47 20.948-1.493 6.784-1.963 13.056-5.376 18.475-9.94 5.376-4.61 9.728-10.24 12.757-16.64 3.072-6.4 4.736-13.356 4.864-20.44zm-32.3-368.04v368.04c0 4.31-1.705 8.407-4.735 11.436-3.03 3.03-7.17 4.736-11.435 4.736h-26.54c-70.484-109.44-238.59-109.44-308.564.17H404.268l-5.974-21.802c27.862-15.787 48.854-41.3 59.008-71.637 15.32-1.067 29.783-7.595 40.748-18.39 10.965-10.794 17.707-25.13 19.072-40.448V217.9c-.043-28.033-6.784-55.64-19.712-80.47-12.928-24.875-31.573-46.294-54.485-62.422h488.832c4.266 0 8.405 1.707 11.434 4.736 3.03 3.03 4.735 7.125 4.735 11.435zM566.102 577.407v4.523c-4.308-3.967-9.3-7.167-14.72-9.386L415.276 518.74l-2.774-11.007h167.34c-9.003 22.144-13.653 45.782-13.74 69.675zm-93.14 96.98c5.333 0 10.41 2.135 14.208 5.89 3.755 3.754 5.845 8.83 5.845 14.165 0 5.333-2.09 10.41-5.845 14.165-3.797 3.755-8.875 5.888-14.208 5.888-5.46 0-10.71-2.176-14.635-6.06-3.84-3.88-6.016-9.172-6.016-14.633 0-5.504 2.175-10.752 6.015-14.635 3.926-3.883 9.174-6.06 14.635-6.06v1.28zm-93.397-146.772c-13.867 10.496-30.848 15.915-48.17 15.403-17.366-.47-34.006-6.87-47.233-18.135l14.25-57.386c23.04 6.27 47.403 6.27 70.486 0l7.083 27.775s7.124 28.458 7.295 28.63l-3.712 3.71zM204.33 347.52c-5.887-1.237-11.178-4.437-14.933-9.13-3.797-4.65-5.845-10.454-5.845-16.47 0-6.016 2.048-11.82 5.845-16.512 3.755-4.65 9.046-7.85 14.934-9.13 0 3.882-.98 48.98 0 51.242zM341.89 75.008c37.93.043 74.325 15.147 101.163 41.984 26.838 26.88 41.9 63.275 41.9 101.205v53.206c-6.827-4.054-14.25-7.04-21.974-8.875-2.603-10.88-8.79-20.523-17.62-27.307-8.833-6.783-19.756-10.367-30.892-10.068h-93.74l-8.916-16.128c-3.157-5.59-8.02-10.027-13.91-12.63-15.23-33.962-41.855-61.525-75.306-77.91 15.445-15.572 34.176-27.56 54.784-35.07 20.608-7.51 42.624-10.37 64.512-8.406zm121.9 267.05v-45.78c5.673 1.663 10.708 4.95 14.505 9.514 3.798 4.565 6.102 10.155 6.656 16.043-.555 6.058-2.945 11.776-6.87 16.384-3.968 4.607-9.216 7.85-15.104 9.3.81-1.92.81-4.01.81-6.144v.683zm-281.473-124.5c0-25.814 7.04-51.115 20.394-73.217 26.71 11.692 48.725 32.087 62.378 57.857-5.46 6.7-9.26 14.55-11.136 22.955H252.8c-11.136-.3-22.06 3.285-30.89 10.07-8.833 6.783-15.02 16.426-17.58 27.306-7.935 1.58-15.573 4.352-22.655 8.235l.64-53.206zM238.25 363.05c-4.82-16.17-1.45-70.954-2.43-88.405 0-4.31 1.705-8.405 4.735-11.434 3.03-3.03 7.168-4.735 11.434-4.735 11.007 0 23.295 1.45 28.16-11.008l5.802-16.17c3.54 5.503 10.496 22.314 16.17 25.087 2.475 1.408 5.25 2.26 8.065 2.56h104.277c2.432.128 4.78.725 6.955 1.835 2.175 1.065 4.052 2.6 5.588 4.48 1.536 1.876 2.645 4.052 3.285 6.4.598 2.345.726 4.777.342 7.167-1.323 16.17 2.432 70.826-2.603 85.674-21.632 99.287-167.765 98.476-189.78-2.09v.64zM75.01 459.22V91.18c0-4.31 1.707-8.407 4.736-11.436 3.03-3.03 7.125-4.736 11.435-4.736h133.16c-22.953 16.17-41.684 37.632-54.612 62.55-12.928 24.917-19.712 52.565-19.712 80.64v104.447c1.195 15.446 7.893 29.952 18.9 40.875 11.01 10.923 25.6 17.536 41.047 18.603 10.154 30.336 31.146 55.85 59.008 71.637l-5.333 21.632H91.18c-4.31 0-8.407-1.707-11.436-4.736-3.03-3.03-4.736-7.125-4.736-11.435zm3.54 363.393c-1.577-1.834-2.687-4.01-3.327-6.357-.596-2.347-.68-4.82-.212-7.21l42.197-193.963c.598-2.646 1.878-5.12 3.627-7.168 1.792-2.048 4.01-3.627 6.528-4.65l50.304-19.713v60.63c-15.744 3.71-29.824 12.586-39.893 25.215-10.11 12.63-15.7 28.288-15.914 44.46 0 4.266 1.707 8.362 4.736 11.39 3.03 3.073 7.168 4.737 11.435 4.737 4.31 0 8.405-1.664 11.434-4.736 3.03-3.03 4.737-7.125 4.737-11.392 0-10.752 4.267-21.035 11.862-28.587 7.55-7.595 17.833-11.862 28.543-11.862 10.752 0 20.992 4.267 28.586 11.86 7.594 7.553 11.86 17.836 11.86 28.588 0 4.267 1.665 8.363 4.694 11.392 3.072 3.072 7.168 4.736 11.435 4.736 4.308 0 8.404-1.664 11.433-4.736 3.03-3.03 4.736-7.125 4.736-11.392 0-16.384-5.59-32.3-15.787-45.1-10.24-12.8-24.49-21.76-40.448-25.385v-73.386l52.693-20.693c15.7 12.246 34.09 20.694 53.675 24.577v254.89H91.18c-2.433 0-4.823-.554-7.04-1.62-2.177-1.068-4.097-2.604-5.59-4.524zm497.58 6.144H349.78v-254.89c19.884-3.798 38.53-12.203 54.487-24.576l52.565 20.694v74.197c-11.82 3.84-21.888 11.777-28.373 22.36-6.487 10.623-9.004 23.167-7.04 35.455 1.92 12.288 8.19 23.466 17.663 31.53 9.43 8.064 21.46 12.502 33.877 12.502 12.46 0 24.49-4.438 33.92-12.502 9.472-8.064 15.7-19.242 17.664-31.53 1.963-12.288-.555-24.832-7.04-35.456-6.485-10.583-16.555-18.52-28.373-22.36v-61.44l50.433 19.884c2.474.94 4.65 2.517 6.357 4.523 1.75 2.005 2.944 4.394 3.5 6.954l16.17 75.99v27.777c-1.323 24.064-8.278 47.488-20.182 68.394-2.304 5.164-2.603 10.967-.853 16.343 1.706 5.333 5.376 9.898 10.197 12.757 8.747 5.59 18.39 9.643 28.46 11.947.51.512-5.164 1.45-7.084 1.45zm174.72 12.16c19.584 0 38.955 0 57.856-1.322l3.584 21.504c-18.645 10.92-39.85 16.68-61.44 16.68-21.59 0-42.795-5.76-61.397-16.68l3.713-21.505c18.73.81 38.144 1.322 57.685 1.322zm70.315-34.133c-75.478 2.603-173.27 5.504-242.475-16.17 11.86-22.785 18.517-47.873 19.584-73.558V577.408c7.083-202.07 297.9-201.728 304.853 0v140.33c1.152 25.6 7.808 50.73 19.542 73.515-32.94 9.856-67.115 15.062-101.504 15.53zM721.58 252.8h48.51v48.512c0 4.267 1.707 8.405 4.737 11.435 3.03 3.03 7.125 4.736 11.434 4.736 74.028 0 64.64 9.514 64.64-64.683h48.513c4.267 0 8.406-1.707 11.435-4.736 3.03-3.03 4.736-7.125 4.736-11.435 0-74.027 9.515-64.64-64.683-64.64v-48.513c0-4.266-1.705-8.405-4.735-11.434-3.03-3.03-7.125-4.736-11.434-4.736-74.026 0-64.64-9.515-64.64 64.682h-48.51c-4.268 0-8.364 1.706-11.393 4.735-3.072 3.03-4.736 7.126-4.736 11.435v48.47c0 4.31 1.665 8.405 4.737 11.434 3.03 3.03 7.125 4.736 11.392 4.736zm16.17-48.47h48.51c4.268 0 8.407-1.706 11.436-4.735 3.03-3.03 4.736-7.168 4.736-11.435v-48.512h16.17v48.512c0 4.267 1.707 8.405 4.737 11.435 3.028 3.03 7.124 4.736 11.39 4.736h48.513v16.17c-74.368 0-64.64-9.215-64.64 64.64h-16.17c0-74.196 9.215-64.64-64.684-64.64v-16.17zm-204.97-80.853c0-4.266 1.705-8.405 4.735-11.434 3.03-3.03 7.168-4.736 11.434-4.736h118.997c4.266 0 8.362 1.706 11.392 4.736 3.028 3.03 4.735 7.168 4.735 11.434 0 4.31-1.707 8.406-4.736 11.435-3.03 3.03-7.127 4.736-11.393 4.736H548.95c-4.267 0-8.406-1.707-11.435-4.736-3.03-3.03-4.736-7.125-4.736-11.435zm0 88.918c0-4.267 1.705-8.406 4.735-11.435 3.03-3.03 7.168-4.736 11.434-4.736h118.997c4.266 0 8.362 1.707 11.392 4.736 3.028 3.03 4.735 7.168 4.735 11.435 0 4.31-1.707 8.405-4.736 11.434-3.03 3.03-7.127 4.735-11.393 4.735H548.95c-4.182 0-8.193-1.62-11.222-4.522-2.987-2.86-4.78-6.827-4.95-11.008v-.64zm0 88.917c0-4.31 1.705-8.405 4.735-11.435 3.03-3.03 7.168-4.736 11.434-4.736h118.997c4.266 0 8.362 1.708 11.392 4.737 3.028 3.03 4.735 7.126 4.735 11.435 0 4.267-1.707 8.405-4.736 11.435-3.03 3.03-7.127 4.736-11.393 4.736H548.95c-4.267 0-8.406-1.707-11.435-4.736-3.03-3.03-4.736-7.168-4.736-11.435z"/></svg>