<svg viewBox="0 0 1024 1024" xmlns="http://www.w3.org/2000/svg"><path d="M392.704 1008.47C150.972 1008.47 28.4 931.36 28.4 779.16c0-97.417 54.92-168.175 159.026-204.937 6.042-2.185 12.732 1.092 14.882 7.134 2.185 6.04-1.058 12.73-7.134 14.88-95.266 33.52-143.496 95.13-143.496 182.922 0 138.717 111.548 206.063 341.163 206.063 229.65 0 341.027-67.516 341.027-206.063 0-87.177-46.217-148.48-137.626-182.136-1.433-.512-2.73-1.297-3.89-2.32-1.127-1.06-2.014-2.288-2.663-3.687-.648-1.4-.99-2.903-1.024-4.404-.068-1.536.205-3.072.75-4.472 2.186-6.076 8.876-9.182 14.918-6.827 99.91 36.762 152.816 107.35 152.816 203.845 0 152.2-122.573 229.307-364.442 229.307zM168.516 304.4c-2.423 0-4.778-.716-6.758-2.115-1.98-1.4-3.482-3.345-4.267-5.632-7.44-20.958-11.16-42.667-11.16-64.854 0-119.16 110.592-216.27 246.374-216.27 135.748 0 246.374 97.11 246.374 216.27 0 20.172-3.106 40.174-9.454 59.426-2.014 6.04-8.534 9.454-14.61 7.44-6.04-2.013-9.455-8.533-7.44-14.574 5.427-16.93 8.226-34.44 8.226-52.292 0-106.428-100.08-193.025-223.096-193.025-123.05 0-223.13 86.597-223.13 193.024 0 19.387 3.277 38.638 9.933 56.934 1.058 2.9.922 6.11-.41 8.91-1.297 2.764-3.652 4.948-6.553 6.006-1.4.444-2.662.75-4.028.75zm393.626 93.868c-6.383 0-11.64-5.257-11.64-11.64 0-6.35 5.257-11.64 11.64-11.64 21.71 0 43.725-38.297 43.725-65.774 0-15.36-5.87-22.8-39.083-23.28-6.35-.136-11.47-5.426-11.47-11.775 0-6.35 5.428-12.118 11.777-11.47 18.638.307 62.056.922 62.056 46.524 0 35.703-28.058 89.054-67.004 89.054zm-342.12-1.058c-.92 0-2.012-.17-2.968-.342-34.884-8.977-56.32-57.24-56.32-87.79 0-45.466 43.144-46.25 61.44-46.558 6.212-.17 11.81 4.95 11.81 11.468 0 6.52-4.984 11.81-11.47 11.81-32.903.615-38.638 7.92-38.638 23.28 0 24.336 18.296 59.87 38.776 65.16 6.212 1.536 9.933 7.92 8.397 14.097-1.264 5.427-5.907 8.875-11.026 8.875zm173.91 293.512c-20.89 0-41.335-5.973-58.947-17.203-1.298-.82-2.424-1.844-3.31-3.107-.89-1.23-1.503-2.63-1.845-4.13-.34-1.502-.375-3.038-.102-4.54.273-1.502.853-2.936 1.673-4.2 3.414-5.426 10.718-7.132 16.01-3.582 14.096 8.84 30.24 13.654 46.523 13.654 20.787 0 40.516-7.27 56.968-21.095 4.95-4.2 12.255-3.55 16.42 1.4 4.198 4.948 3.584 12.253-1.4 16.45-20.787 17.204-45.602 26.352-71.987 26.352zm0-122.88c-17.68 0-35.36-4.642-51.2-13.96-58.81-34.748-128.614-89.84-128.614-154.35V274.158c0-4.03 2.185-7.92 5.598-9.934.444-.307 48.23-29.49 49.937-64.41.308-7.748 9.01-13.175 16.145-10.24 0 .035.034.035.103.035 4.03 1.57 128.137 49.22 215.416.615 3.55-2.014 7.75-2.014 11.298 0 3.584 2.014 5.77 5.564 5.905 9.59 1.57 34.92 49.186 64.104 49.8 64.41 3.584 2.15 5.598 5.906 5.598 9.934v125.37c0 64.683-69.837 119.604-128.478 154.352-16.11 9.318-33.826 13.96-51.507 13.96zM237.228 280.508V399.53c0 56.457 73.386 108.442 117.316 134.35 24.337 14.267 54.613 14.267 78.95 0 43.76-25.908 117.01-77.756 117.01-134.35V280.51c-12.732-8.67-42.7-31.95-52.293-62.84-78.677 34.92-173.33 9.796-207.906-1.706-9.148 31.64-40.21 55.705-53.077 64.546zm682.36 533.88h-94.79c-6.348 0-11.64-5.257-11.64-11.64V677.376c-17.953-2.8-34.337-11.913-46.147-25.702-11.844-13.79-18.364-31.37-18.398-49.528 0-13.653 3.72-27.17 10.718-38.81 3.243-5.563 10.377-7.27 15.974-4.027 5.598 3.276 7.27 10.41 4.028 15.973-4.813 8.09-7.44 17.408-7.44 27 0 29.184 23.722 52.906 52.906 52.906 6.35 0 11.64 5.29 11.64 11.64v124.585h71.51V666.83c0-6.35 5.29-11.64 11.638-11.64 9.318 0 18.466-2.458 26.522-7.1 8.055-4.677 14.745-11.367 19.388-19.456 4.642-8.056 7.065-17.204 7.03-26.522 0-9.318-2.49-18.466-7.167-26.487-.786-1.332-1.298-2.8-1.503-4.335-.205-1.502-.102-3.072.273-4.54.41-1.468 1.092-2.867 2.014-4.096.922-1.23 2.082-2.253 3.413-3.038 1.332-.75 2.765-1.263 4.3-1.468 1.537-.205 3.073-.136 4.54.273 1.503.377 2.902 1.06 4.097 1.98 1.23.923 2.253 2.083 3.038 3.414 6.826 11.64 10.376 24.815 10.376 38.332 0 37.99-28.057 69.666-64.512 75.23v125.372c-.17 6.52-5.427 11.64-11.81 11.64zm0-210.842c-17.204 0-33.963-5.906-47.48-16.623-11.196 8.943-24.713 14.506-38.947 16.11-14.233 1.605-28.67-.853-41.574-7.1-12.902-6.21-23.79-15.94-31.437-28.057-7.612-12.15-11.674-26.18-11.674-40.516 0-38.024 28.057-69.666 64.546-75.264V244.36c-17.988-2.798-34.338-11.912-46.183-25.702-11.81-13.79-18.33-31.368-18.364-49.56 0-42.02 34.133-76.153 76.185-76.153 17.205 0 33.964 5.87 47.447 16.59 11.23-8.91 24.746-14.508 38.98-16.112 14.234-1.57 28.638.887 41.574 7.1 12.904 6.212 23.792 15.94 31.404 28.09 7.646 12.12 11.708 26.182 11.708 40.483 0 38.025-28.092 69.667-64.546 75.264v207.736c36.454 5.598 64.546 37.24 64.546 75.264-.137 42.052-34.27 76.186-76.186 76.186zm-47.48-44.237c3.277 0 6.383 1.398 8.533 3.72 10.24 11.024 23.893 17.066 38.946 17.066 29.184 0 52.907-23.723 52.907-52.907 0-29.15-23.723-52.907-52.907-52.907-6.35 0-11.64-5.257-11.64-11.64v-229c0-6.35 5.29-11.64 11.64-11.64 29.184 0 52.907-23.722 52.907-52.906 0-29.15-23.723-52.907-52.907-52.907-14.882 0-28.706 6.076-38.946 17.066-4.335 4.813-12.698 4.813-17.067 0-10.24-10.99-23.893-17.066-38.775-17.066-29.184 0-52.907 23.757-52.907 52.906 0 29.184 23.724 52.907 52.908 52.907 6.35 0 11.64 5.29 11.64 11.64v229.17c0 6.35-5.29 11.64-11.64 11.64-29.184 0-52.907 23.723-52.907 52.907 0 29.184 23.724 52.907 52.908 52.907 14.882 0 28.706-6.042 38.775-17.067 1.058-1.23 2.39-2.185 3.857-2.867 1.468-.683 3.072-1.024 4.677-1.024zM402.16 873.812c-2.015.034-3.995-.512-5.736-1.536-2.252-1.297-4.027-3.277-5.05-5.666-1.025-2.388-1.196-5.016-.547-7.542l92.808-342.12c.922-3.548 3.55-6.484 6.963-7.747 3.414-1.398 7.305-.92 10.41 1.093l103.016 65.775c1.433.922 2.662 2.185 3.55 3.618.92 1.468 1.5 3.106 1.706 4.813.205 1.706.034 3.413-.512 5.05-.512 1.64-1.4 3.107-2.56 4.37l-46.25 48.094 15.837 45.466c1.4 4.198.444 8.67-2.662 11.946L410.248 870.4c-1.877 2.185-4.983 3.413-8.09 3.413zm99.94-335.6L425.44 820.737l126.464-132.642-16.01-45.466c-.68-2.048-.818-4.232-.34-6.35.444-2.08 1.502-4.026 3.004-5.596l41.267-42.974zm-99.94 335.6c-2.937 0-5.906-1.092-8.09-3.276L215.21 699.563c-1.638-1.536-2.764-3.516-3.31-5.667-.512-2.184-.41-4.47.34-6.587l15.84-45.433-46.252-48.128c-1.194-1.195-2.116-2.697-2.662-4.37-.546-1.638-.683-3.38-.444-5.086.478-3.413 2.355-6.52 5.29-8.362l102.4-65.81c1.503-.92 3.21-1.5 4.984-1.706 1.775-.17 3.584.068 5.257.683 1.672.58 3.174 1.57 4.437 2.866 1.23 1.297 2.15 2.833 2.697 4.54L413.184 858.59c1.536 5.154-.478 10.58-4.984 13.346-1.706 1.263-3.89 1.877-6.04 1.877zm-165.41-185.89l140.423 134.212-90.76-284.228-77.722 49.97 41.268 42.975c3.107 3.106 4.028 7.75 2.63 11.947zm165.41 320.546c-6.384 0-11.64-5.257-11.64-11.606V857.532c0-6.383 5.256-11.64 11.64-11.64 6.348 0 11.638 5.257 11.638 11.64v139.332c0 6.35-5.12 11.605-11.64 11.605z"/></svg>