<svg viewBox="0 0 1024 1024" xmlns="http://www.w3.org/2000/svg"><path d="M858.07 512c0 113.152-43.435 221.696-120.79 301.696-77.355 80-182.23 124.97-291.627 124.97h-68.778V725.334h68.778c54.7 0 107.136-22.485 145.835-62.464 38.656-40.022 60.373-94.294 60.373-150.87 0-56.576-21.716-110.848-60.372-150.87-38.7-39.978-91.136-62.463-145.835-62.463h-68.778c-54.7 0-107.136 22.485-145.792 62.464-38.7 40.022-60.416 94.294-60.416 150.87V85.333h274.986c54.187 0 107.82 11.05 157.824 32.47 50.048 21.46 95.53 52.864 133.803 92.5 38.315 39.638 68.693 86.657 89.387 138.412C847.403 400.47 858.07 455.98 858.07 512zM384 369.792v568.875H170.667V583.083c0-56.576 22.485-110.806 62.464-150.827 40.022-40.02 94.294-62.464 150.87-62.464z"/></svg>