<svg viewBox="0 0 1024 1024.0004" xmlns="http://www.w3.org/2000/svg"><path d="M300.26 657.58c0-16.328 13.198-29.527 29.525-29.527h284.33c16.328 0 29.583 13.2 29.583 29.526 0 16.325-13.255 29.523-29.582 29.523h-284.33c-16.328 0-29.526-13.198-29.526-29.525zm0-148.083c0-16.327 13.198-29.525 29.525-29.525h284.33c16.328 0 29.583 13.198 29.583 29.525 0 16.327-13.255 29.525-29.582 29.525h-284.33c-16.328 0-29.526-13.198-29.526-29.525zm0-148.082c0-16.27 13.198-29.525 29.525-29.525H438.33c16.27 0 29.524 13.255 29.524 29.525 0 16.327-13.255 29.582-29.525 29.582H329.783c-16.327 0-29.525-13.255-29.525-29.582zM192.512 207.53c60.36-66.502 153.94-89.372 280.064-89.372 126.123 0 219.762 22.87 280.064 89.373 59.563 65.65 79.93 166.686 79.93 304.47 0 137.786-20.367 238.82-79.93 304.47-60.302 66.503-153.94 89.373-280.064 89.373-126.123 0-219.705-22.87-280.064-89.373-59.563-65.65-79.93-166.685-79.93-304.47 0-137.785 20.367-238.82 79.93-304.47zm43.748 39.71c-43.748 48.184-64.626 129.308-64.626 264.76s20.878 216.576 64.626 264.76c42.95 47.332 114.574 70.03 236.316 70.03s193.365-22.698 236.316-70.03c43.69-48.184 64.626-129.308 64.626-264.76s-20.935-216.576-64.626-264.76c-42.95-47.332-114.574-70.03-236.316-70.03S279.21 199.907 236.26 247.24z"/></svg>