<svg viewBox="0 0 1024 1024" xmlns="http://www.w3.org/2000/svg"><path d="M384 970.66Q53.34 970.66 53.34 640V384Q53.34 53.34 384 53.34h256q173.242 0 251.95 78.663Q970.66 210.71 970.66 384v256q0 173.242-78.71 251.95-78.708 78.71-251.95 78.71zm0-64h256q266.66 0 266.66-266.66V384q0-266.66-266.66-266.66H384q-266.66 0-266.66 266.66v256q0 266.66 266.66 266.66zm288.023-490.637H351.977q-13.22 0-22.62-9.402Q320 397.266 320 384t9.356-22.62q9.402-9.403 22.62-9.403h320.047q13.22 0 22.62 9.402Q704 370.734 704 384t-9.356 22.62q-9.402 9.403-22.62 9.403zm0 256H351.977q-13.22-.046-22.62-9.402Q320 653.266 320 640t9.356-22.62q9.402-9.403 22.62-9.403h320.047q13.22 0 22.62 9.402Q704 626.734 704 640t-9.356 22.62q-9.402 9.357-22.62 9.403z"/></svg>