<svg viewBox="0 0 1024 1024" xmlns="http://www.w3.org/2000/svg"><path d="M384 970.667Q53.333 970.667 53.333 640V384Q53.333 53.333 384 53.333h256q330.667 0 330.667 330.667v256q0 330.667-330.667 330.667zm0-64h256q146.73 0 206.72-59.947 59.947-59.99 59.947-206.72V384q0-266.667-266.667-266.667H384q-266.667 0-266.667 266.667v256q0 146.73 59.947 206.72 59.99 59.947 206.72 59.947zM672 416H352q-13.27 0-22.613-9.387Q320 397.27 320 384q0-13.27 9.387-22.613Q338.73 352 352 352h320q13.27 0 22.613 9.387Q704 370.73 704 384q0 13.27-9.387 22.613Q685.27 416 672 416zm0 256H352q-13.27 0-22.613-9.387Q320 653.27 320 640q0-13.27 9.387-22.613Q338.73 608 352 608h320q13.27 0 22.613 9.387Q704 626.73 704 640q0 13.27-9.387 22.613Q685.27 672 672 672z"/></svg>