<svg viewBox="0 0 1024 1024" xmlns="http://www.w3.org/2000/svg"><path d="M674.133 94.293c-17.493-17.493-47.786-5.546-47.786 18.774v148.906c0 62.294 52.906 113.92 117.333 113.92 40.533.427 96.853.427 145.067.427 24.32 0 37.12-28.587 20.053-45.653C847.36 268.8 737.28 157.44 674.133 94.293zm200.534 340.48H751.36c-101.12 0-183.467-82.346-183.467-183.466V128c0-23.467-19.2-42.667-42.666-42.667H344.32c-131.413 0-237.653 85.334-237.653 237.654v378.026c0 152.32 106.24 237.654 237.653 237.654h335.36c131.413 0 237.653-85.334 237.653-237.654V477.44c0-23.467-19.2-42.667-42.666-42.667zm-384 322.56H320c-17.493 0-32-14.506-32-32 0-17.493 14.507-32 32-32h170.667c17.493 0 32 14.507 32 32 0 17.494-14.507 32-32 32zM576 586.667H320c-17.493 0-32-14.507-32-32 0-17.494 14.507-32 32-32h256c17.493 0 32 14.506 32 32 0 17.493-14.507 32-32 32z"/></svg>