<svg viewBox="0 0 1024 1024" xmlns="http://www.w3.org/2000/svg"><path d="M640 970.667H384C152.32 970.667 53.333 871.68 53.333 640V384C53.333 152.32 152.32 53.333 384 53.333h213.333c17.494 0 32 14.507 32 32 0 17.494-14.506 32-32 32H384c-196.693 0-266.667 69.974-266.667 266.667v256c0 196.693 69.974 266.667 266.667 266.667h256c196.693 0 266.667-69.974 266.667-266.667V426.667c0-17.494 14.506-32 32-32 17.493 0 32 14.506 32 32V640c0 231.68-98.987 330.667-330.667 330.667zm298.667-512H768c-145.92 0-202.667-56.747-202.667-202.667V85.333c0-12.8 7.68-24.746 19.627-29.44 11.947-5.12 25.6-2.133 34.987 6.827L961.28 404.053c8.96 8.96 11.947 23.04 6.827 34.987-5.12 11.947-16.64 19.627-29.44 19.627zM629.333 162.56V256c0 110.08 28.587 138.667 138.667 138.667h93.44L629.333 162.56zm-74.666 424.107h-256c-17.494 0-32-14.507-32-32 0-17.494 14.506-32 32-32h256c17.493 0 32 14.506 32 32 0 17.493-14.507 32-32 32zm-85.334 170.666H298.667c-17.494 0-32-14.506-32-32 0-17.493 14.506-32 32-32h170.666c17.494 0 32 14.507 32 32 0 17.494-14.506 32-32 32z"/></svg>