<svg viewBox="0 0 1024 1024" xmlns="http://www.w3.org/2000/svg"><path d="M736 917.44c-6.08 0-12.16-2.24-16.96-7.04L510.4 701.76c-33.92-33.92-33.92-89.6 0-123.52L719.04 369.6c9.28-9.28 24.64-9.28 33.92 0 9.28 9.28 9.28 24.64 0 33.92L544.32 612.16c-15.36 15.36-15.36 40.32 0 55.68l208.64 208.64c9.28 9.28 9.28 24.64 0 33.92-4.8 4.48-10.88 7.04-16.96 7.04zm-256 0c-6.08 0-12.16-2.24-16.96-7.04L254.4 701.76c-33.92-33.92-33.92-89.6 0-123.52L463.04 369.6c9.28-9.28 24.64-9.28 33.92 0 9.28 9.28 9.28 24.64 0 33.92L288.32 612.16c-15.36 15.36-15.36 40.32 0 55.68l208.64 208.64c9.28 9.28 9.28 24.64 0 33.92-4.8 4.48-10.88 7.04-16.96 7.04z"/></svg>