<svg viewBox="0 0 1024 1024" xmlns="http://www.w3.org/2000/svg"><path d="M288 362.56c6.08 0 12.16 2.24 16.96 7.04L513.6 578.24c33.92 33.92 33.92 89.6 0 123.52L304.96 910.4c-9.28 9.28-24.64 9.28-33.92 0-9.28-9.28-9.28-24.64 0-33.92l208.64-208.64c15.36-15.36 15.36-40.32 0-55.68L271.04 403.52c-9.28-9.28-9.28-24.64 0-33.92 4.8-4.48 10.88-7.04 16.96-7.04zm256 0c6.08 0 12.16 2.24 16.96 7.04L769.6 578.24c33.92 33.92 33.92 89.6 0 123.52L560.96 910.4c-9.28 9.28-24.64 9.28-33.92 0-9.28-9.28-9.28-24.64 0-33.92l208.64-208.64c15.36-15.36 15.36-40.32 0-55.68L527.04 403.52c-9.28-9.28-9.28-24.64 0-33.92 4.8-4.48 10.88-7.04 16.96-7.04z"/></svg>