<svg viewBox="0 0 1024 1024.0004" xmlns="http://www.w3.org/2000/svg"><path d="M472.842 731.81V120.508q0-16.1 11.38-27.492 11.394-11.394 27.506-11.394 16.1 0 27.492 11.394 11.38 11.393 11.394 27.492V731.81q-.013 16.112-11.394 27.493-11.393 11.393-27.492 11.393-16.112 0-27.506-11.394-11.38-11.38-11.38-27.492zm214.482-121.195l-148.04 148.65q-11.367 11.418-27.466 11.444-16.11.037-27.53-11.33-.053-.053-.105-.117l-148.04-148.65q-11.366-11.406-11.34-27.517.038-16.112 11.445-27.467 11.42-11.368 27.53-11.343 16.1.04 27.468 11.446L511.728 676.72l120.495-120.986q11.368-11.407 27.466-11.446 16.11-.025 27.517 11.342 11.42 11.355 11.445 27.467.04 16.11-11.33 27.518zm59.6-288.703h47.363q93.6 0 159.757 66.17 66.158 66.172 66.158 159.797v247.95q0 93.39-66.028 159.42-66.03 66.027-159.433 66.027H229.196q-93.598 0-159.782-66.184Q3.228 888.91 3.228 795.31v-248q0-93.354 66.054-159.382 66.04-66.016 159.394-66.016h47.83q16.112 0 27.492 11.38 11.394 11.394 11.394 27.506 0 16.1-11.394 27.492-11.38 11.394-27.492 11.394h-47.83q-61.155 0-104.422 43.24Q81 486.18 81 547.31v248q0 61.39 43.41 104.786 43.396 43.41 104.785 43.41H794.74q61.194 0 104.436-43.24Q942.43 857.01 942.43 795.83V547.88q0-61.415-43.384-104.812-43.384-43.384-104.76-43.384h-47.362q-16.112 0-27.506-11.394-11.38-11.393-11.38-27.492 0-16.112 11.38-27.505 11.394-11.38 27.506-11.38z"/></svg>