<svg viewBox="0 0 1024.0002 1024.0004" xmlns="http://www.w3.org/2000/svg"><path d="M980.54 311.296H713.054V43.333c-.025-11.514-4.62-22.528-12.763-30.645C692.125 4.57 681.11 0 669.597 0H354.404C342.89 0 331.85 4.57 323.71 12.688c-8.143 8.117-12.74 19.13-12.764 30.645v267.963H43.458c-11.514 0-22.528 4.546-30.695 12.688C4.62 332.1.023 343.114 0 354.63v315.29c0 5.696 1.124 11.34 3.297 16.635 2.198 5.27 5.394 10.065 9.44 14.086 4.022 4.048 8.817 7.245 14.087 9.418 5.27 2.198 10.914 3.322 16.634 3.322H230.05c-51.05-54.673-82.644-109.994-82.644-169.586 0-77.45 52.374-175.578 153.275-175.578 28.874-.125 57.246 7.418 82.247 21.878 24.976 14.46 45.68 35.29 59.966 60.392 14.237-25.1 34.916-45.956 59.892-60.416 24.976-14.436 53.348-22.004 82.195-21.854 100.875 0 153.273 98.13 153.273 175.578 0 99.978-88.913 187.842-209.394 281.176-8.82-6.32-18.185-11.79-28-16.41-6.72-3.146-13.237-6.743-19.456-10.79-5.72-3.345-10.54-7.99-14.086-13.585-3.548-5.595-5.72-11.964-6.295-18.557 0-15.335 13.986-28.522 26.65-41.185 8.04-7.618 15.16-16.184 21.203-25.475 25.425 5.32 51.924.95 74.303-12.263 22.38-13.212 39.01-34.317 46.63-59.167 7.642-24.826 5.72-51.625-5.37-75.127-11.116-23.5-30.572-42.007-54.598-51.897-24.05-9.89-50.9-10.44-75.3-1.55-24.427 8.892-44.632 26.575-56.696 49.603-12.038 23.027-15.06 49.726-8.466 74.852 6.594 25.15 22.354 46.904 44.158 61.015h1.073c-3.644 4.745-7.665 9.216-11.986 13.337-15.86 15.334-37.713 36.264-38.262 66.66.35 12.662 3.822 25.05 10.166 36.014 6.318 10.964 15.31 20.155 26.1 26.774 7.517 4.97 15.334 9.415 23.45 13.337 4.797 2.397 9.467 4.795 13.338 7.467-17.782 13.512-36.264 27.2-55.446 41.06-47.328-34.666-92.11-67.984-131.946-101.05v192.636c0 5.694 1.124 11.34 3.297 16.61 2.198 5.268 5.395 10.064 9.416 14.085 4.046 4.02 8.84 7.218 14.11 9.39 5.27 2.15 10.915 3.272 16.61 3.247h315.216c5.694.025 11.34-1.098 16.61-3.246 5.27-2.173 10.064-5.37 14.11-9.39 4.02-4.022 7.243-8.818 9.416-14.087 2.198-5.27 3.322-10.915 3.322-16.61V713.505h268.412c11.54 0 22.578-4.57 30.72-12.738 8.168-8.142 12.738-19.18 12.738-30.72V354.63c-.025-11.515-4.62-22.53-12.763-30.646-8.142-8.142-19.18-12.688-30.695-12.688zM487.4 568.32c5.668-8.64 13.76-15.41 23.25-19.456 9.517-4.046 20.007-5.195 30.147-3.296 10.165 1.923 19.506 6.793 26.9 14.036 7.366 7.218 12.437 16.484 14.56 26.6 2.122 10.114 1.198 20.63-2.648 30.194-3.848 9.59-10.44 17.833-18.983 23.677-8.517 5.82-18.582 8.99-28.897 9.116-10.34.127-20.48-2.82-29.12-8.464-5.77-3.747-10.74-8.592-14.637-14.26-3.896-5.67-6.618-12.04-8.042-18.758-1.42-6.718-1.52-13.662-.247-20.43 1.248-6.744 3.846-13.187 7.592-18.957h.125z"/></svg>