<svg viewBox="0 0 1023.9993 1024.0004" xmlns="http://www.w3.org/2000/svg"><path d="M758.533 124.878c-50.05-.25-99.278 12.988-142.586 38.313-43.33 25.327-79.197 61.867-103.947 105.85-24.7-43.982-60.566-80.522-103.874-105.847-43.307-25.324-92.51-38.56-142.535-38.312C90.664 124.88 0 296.787 0 432.43c.075 27.224 3.746 54.297 10.89 80.52l1.723-.748C265.09 421.938 357 330.428 358 329.554c2.223-2.298 4.87-4.12 7.793-5.37 2.947-1.25 6.094-1.898 9.266-1.898 6.44.075 12.61 2.672 17.206 7.268.85.874 92.76 92.384 345.362 182.646 5.594 2.148 10.24 6.27 13.062 11.59 2.822 5.344 3.62 11.513 2.273 17.407l-66.91 266.69c-.923 3.496-2.596 6.743-4.87 9.515-2.298 2.797-5.144 5.045-8.366 6.594-3.222 1.498-6.745 2.273-10.265 2.273-3.596.023-7.168-.8-10.39-2.375-141.537-67.484-302.48-80.82-453.008-37.514 88.514 80.723 181.523 156.274 278.578 226.28 9.916 7.368 21.904 11.34 34.192 11.34 12.313 0 24.3-3.97 34.217-11.34C810.858 815.38 1024 638.85 1024 432.68c.124-135.892-90.563-307.8-265.467-307.8z"/></svg>