<svg viewBox="0 0 1023.9992 1024.0004" xmlns="http://www.w3.org/2000/svg"><path d="M972.75 305.248H709.82V42.58c0-5.597-1.094-11.145-3.26-16.337-2.144-5.167-5.287-9.86-9.264-13.812-3.954-3.95-8.668-7.094-13.86-9.214C678.27 1.072 672.72-.024 667.124 0H357.28c-5.595-.023-11.144 1.072-16.336 3.215-5.167 2.12-9.882 5.263-13.86 9.216-3.952 3.955-7.12 8.647-9.263 13.814-2.14 5.192-3.237 10.74-3.237 16.337v262.93H51.63c-11.313 0-22.172 4.5-30.197 12.503-8.002 8.025-12.503 18.884-12.503 30.22v310.08c0 5.598 1.096 11.146 3.263 16.314 2.143 5.19 5.286 9.883 9.263 13.836 3.954 3.953 8.67 7.096 13.86 9.216 5.168 2.142 10.716 3.24 16.313 3.214h262.95V963.56c.024 11.312 4.55 22.148 12.55 30.125 8.002 7.978 18.837 12.455 30.15 12.455H667.12c11.29 0 22.15-4.477 30.15-12.455 8-7.977 12.5-18.813 12.55-30.124V792.078c-95.494-2.762-190.01 19.575-274.193 64.703-3.954 2.428-8.48 3.69-13.1 3.69-3.285 0-6.548-.667-9.572-1.977-3.572-1.524-6.716-3.88-9.216-6.858-2.478-2.977-4.216-6.525-5.074-10.312L336.06 560.58c-.833-3.69-.785-7.548.12-11.216.904-3.69 2.667-7.12 5.12-10 5.763-6.693 144.098-164.818 342.968-170.32 115.425-2.88 226.66 45.462 330.8 144.123v-165.22c0-11.24-4.454-22.053-12.36-30.054-7.93-8.002-18.695-12.55-29.96-12.645zM794.98 542.506h-60.01v-60.01c-.168-6.717-2.906-13.123-7.67-17.885-4.74-4.737-11.144-7.5-17.86-7.643h-35.65c-6.833-.024-13.405 2.644-18.288 7.43-4.905 4.763-7.74 11.264-7.905 18.1v60.01h-60.01c-6.93 0-13.6 2.763-18.53 7.668-4.904 4.906-7.667 11.574-7.667 18.527v35.627c0 6.953 2.763 13.62 7.668 18.526 4.93 4.93 11.597 7.692 18.528 7.692h60.01v60.13c.167 6.835 3 13.336 7.907 18.1 4.88 4.762 11.453 7.453 18.29 7.453h35.65c6.713-.167 13.12-2.93 17.86-7.67 4.76-4.76 7.5-11.167 7.666-17.882v-60.13h60.01c6.954 0 13.622-2.763 18.53-7.693 4.903-4.905 7.666-11.573 7.666-18.527V568.7c0-6.952-2.763-13.62-7.668-18.526-4.907-4.905-11.575-7.668-18.53-7.668z"/></svg>