<svg viewBox="0 0 1023.9992 1024.0004" xmlns="http://www.w3.org/2000/svg"><path d="M364.544 749.45H715.87v47.39c0 19.193-7.5 37.577-20.837 51.15-13.36 13.575-31.457 21.196-50.32 21.196h-351.3v-47.438c.024-19.194 7.525-37.554 20.86-51.128 13.337-13.55 31.41-21.17 50.272-21.17zm198.942-154.863v356.97c0 19.172-7.502 37.58-20.837 51.13-13.36 13.574-31.46 21.194-50.32 21.194h-46.653V666.91c0-19.194 7.502-37.578 20.86-51.152 13.337-13.55 31.436-21.17 50.32-21.17zM271.408 987.613c-42.08-23.814-81.563-52.082-117.784-84.373-18.29-16.408-35.364-34.15-51.08-53.082-16.004-19.146-30.364-39.602-42.938-61.225L50.7 772.31l-7.978-16.93c-5.167-11.79-9.74-23.815-13.717-36.08-7.858-24.456-13.12-49.723-15.645-75.346-.905-9.55-1.382-19.218-1.453-28.91V610.9c.262-40.96 8.216-82.516 25.648-120.975l9.025-17.932 10.43-17.24.667-1.073 1.24-1.715 1.332-1.857 2.642-3.667 5.286-7.31c4.524-5.405 9.12-10.954 13.764-16.074 18.313-19.527 39.34-36.268 62.392-49.676 22.91-13.337 47.485-23.48 73.062-30.15 22.385-5.953 45.365-9.263 68.49-9.834h14.5c5.097.166 10.217.57 15.337.833l18.837 2.14c6.74 1.168 13.74 2.24 20.17 3.62 6.454 1.38 12.884 2.93 19.17 4.716 25.268 7.05 49.63 17.075 72.61 29.863 36.316 20.074 69.084 46.03 97.018 76.823 10.43-8.168 21.337-15.717 32.65-22.6 20.644-12.573 42.625-22.718 65.534-30.267 45.604-15.05 94.78-21.004 142.907-13.24 6.072.62 11.98 2.238 17.955 3.38 5.977 1.192 11.883 2.716 17.694 4.573l8.667 2.57 1.095.358h.548l1.62.595 1.904.714 3.835 1.475 7.643 2.93 3.786 1.667 4.357 2.023c5.787 2.93 11.74 5.596 17.313 8.573l15.74 9.382c10.217 6.62 20.005 13.883 29.316 21.742 37.363 31.34 65.702 72.37 81.967 118.736 8.12 23.17 12.835 47.414 13.93 71.99l-.166 18.455v5.098l-.38 4.143-.833 8.31c-1.596 12.22-4.05 24.293-7.383 36.128-6.38 22.885-15.573 44.866-27.337 65.44-11.455 20.195-24.91 39.127-40.15 56.535-30.34 33.65-65.25 62.702-103.663 86.326-37.507 23.86-76.752 43.84-116.212 63.13 36.175-25.124 72.753-49.605 106.712-76.87 33.982-27.27 65.32-57.036 90.255-91.448 12.335-17.026 23.147-35.125 32.315-54.105 8.93-18.645 15.527-38.34 19.646-58.653 1.93-9.668 3.215-19.456 3.882-29.314l.238-8.264.143-4.168v-3.215l-.643-14.836c-1.976-19.79-6.858-39.173-14.407-57.534-7.548-18.456-17.502-35.792-29.624-51.533-12.264-15.55-26.29-29.577-41.77-41.818-7.715-6.024-15.788-11.573-24.17-16.574l-12.79-6.977-12.334-5.57-3.12-1.405-3.882-1.238-7.81-2.644-3.858-1.38-1.93-.668h-.237l.904.334h-.43l-.905-.24-7.002-1.833c-4.643-1.38-9.358-2.453-14.145-3.215-4.74-.762-9.455-2.024-14.408-2.31-38.484-5.05-78.347.452-115.38 13.264-18.525 6.525-36.34 15.027-53.104 25.362-16.74 10.31-32.34 22.408-46.555 36.1l-24.695 23.863-21.194-27.29c-26.91-34.89-60.39-63.99-98.493-85.564-18.885-10.573-38.84-19.027-59.51-25.266-5.12-1.643-10.384-2.69-15.552-4.096-5.144-1.405-9.907-1.93-14.884-2.93l-16.692-2.214c-5.24-.286-10.527-.786-15.814-1-42.84-1.262-85.3 8.74-123.237 29.03-18.838 10-36.127 22.718-51.368 37.768l-10.288 10.907-10.574 13.24-9.048 13.265-7.978 13.86c-10.025 19.503-17.29 40.364-21.575 61.916-4.335 22.05-6.12 44.532-5.335 66.988.62 22.838 3.667 45.533 9.073 67.703 2.69 11.05 5.93 21.956 9.716 32.648l6.335 16.456 7.097 15.885c9.93 21.218 21.575 41.53 34.816 60.773 13.48 19.505 28.15 38.103 43.938 55.702 31.6 35.34 67.536 67.203 105.21 97.16z"/></svg>