<svg viewBox="0 0 999.6242 1024.0004" xmlns="http://www.w3.org/2000/svg"><path d="M239.5 0c37.034 85.82 71.655 124.465 20.87 244.59-53.565 126.586-107.715 147.773-72.217 181.687 35.475 33.914 105.79 48.323 105.79 48.323-1.756 15.653-7.437 30.623-16.53 43.47-15.02 21.164-12.606 52.2 17.407 70.56 21.723 13.24 26.063 15.555 26.82 15.847-8.876 9.41-15.215 20.968-18.457 33.524-7.51 25.236 8.752 49.496 35.96 57.98 27.235 8.51 38.475 10.825 44.448 18.847 7.12 9.68 1.733 11.8 0 52.004-1.73 40.205-9.63 78.947 42.888 109.398 52.517 30.428 144.945 3.56 221.233-43.495 65.194-40.4 227.45-93.062 351.914-24.942-49.517 63.806-112.152 116.08-183.66 153.284-71.486 37.206-150.14 58.466-230.572 62.293-80.407 3.828-160.72-9.825-235.397-40.057-74.68-30.258-141.97-76.338-197.266-135.145C97.41 789.383 55.4 719.287 29.58 642.658 3.736 566.028-5.334 484.718 3.004 404.26c8.363-80.456 33.89-158.158 74.9-227.79C118.91 106.838 174.377 46.958 240.57.878L239.5 0z"/></svg>