<svg viewBox="0 0 1024 1024" xmlns="http://www.w3.org/2000/svg"><path d="M474.4 2C425 8.4 373.6 27.8 331 56.6c-23.8 16.2-66.2 58.6-82.4 82.4-25 37-43.8 82.4-51.8 126-3.6 19-3.8 35.2-3.8 303v283l4.4 17.6c15 58.6 52.4 106.2 104.4 133 104 54 234 4.6 276.6-105 8-20.6 13.6-48 13.6-67.6.2-46.4 8.4-91 22.2-120.6 14.6-31.6 33.8-53.8 77.8-90.4 38.6-32.2 52.4-45 67.4-62.4 47.2-55.4 68.4-118 72-214.6 2.4-62.8-8.2-112.8-34.4-165C752.6 88.4 669.6 25.4 572.4 5.8c-22.6-4.4-75.8-6.6-98-3.8zm89.4 43C675 66.6 762 152.4 786.2 264c4 18 4.6 26.8 4.6 63 0 45.8-3 73-12 107-15 57-41.2 93.6-104.6 146.8-55.2 46-75.8 69-93.2 104.2-18.2 36.8-25.8 71.6-28.8 133-1.4 28.6-2.8 40.2-6.2 51-17 53.8-60.2 95.8-114 110.2-18.2 5-60.2 5-78 .2-57.6-15.6-101.8-60.2-117.2-118.4-3.6-13.4-3.8-27-3.8-295V285l4.6-21c8.4-37.4 21.4-68.4 42.4-99.6C324.4 98 396.8 53.2 478 42c18.4-2.6 66-.8 85.8 3zm-82.6 57c-89.4 14.2-159.2 77.6-182.6 165.6-4.4 16.4-5.2 24-5.4 49.4-.2 46.2 7 66.6 38 106 34.8 44.2 35.2 56.2 4 111.6C306.4 586 296.4 617 293 667c-2.6 36.6 7 65 29 87 37.8 37.8 97.8 39.6 136.8 4 21.8-20 30.6-39.6 33.4-74.4 3.4-42.2 13-62.2 44.4-92 17.4-16.4 18.4-17.8 18.4-25.8 0-6.8-1.2-9.2-6.6-14-9-8-17.8-7.8-27.8.6-46 38.6-63.8 71.8-68.4 126.8-1.2 15.8-3 24.4-6 30.4-13.6 26.6-42.8 39.8-70.8 31.6-14.4-4.2-31-19-37.6-33.6-4.2-9.4-4.8-13.2-4.4-33.6.6-39.4 9.4-70.6 31-109.2 27.4-49.4 33.6-65.4 33.6-88.2 0-13.6-4.2-31.2-10-42.8-3.6-7-3.8-8.8-1.6-16.4 3.2-10.8 16-23.8 26.8-27 24.8-7.4 45.4.2 53.6 20 6.8 15.8 22.6 20.6 33.4 9.8 7.4-7.6 7.8-17.6.8-31.4-7-14-19.8-26.4-35-33.6-12.2-5.8-14.4-6.2-36.2-6.2-22.6 0-23.2.2-38.2 7.6-11.4 5.6-18.2 10.8-26.4 19.6l-11 12.2-6-9.6c-3.4-5.2-6.2-11-6.2-12.6 0-1.8 3-10.4 6.8-19.2C375 283.2 433 240.4 487 244.8c34.4 2.8 63.4 20.6 84.2 52.2 9.6 14.6 16.2 18.4 26.8 15.2 9-2.6 14-9.4 14-18.8 0-15.4-32.6-53.4-59-69-39.8-23.4-84.4-26.2-130-8.6-28.6 11-62.8 37.2-81 62.2l-6.4 9 1.4-8c2-12.2 12.2-36.8 20.6-50.6 61.2-101 198.2-118.2 281.2-35 23 23 39 50.8 47.6 82.4 3.4 12.2 4.2 21.2 4.4 46.2.2 47.2-8.2 77.6-30.8 113.2-7.6 12-7.8 20.4-.8 28.6 4.2 5.2 6.6 6.2 13.8 6.2 5.2 0 10.2-1.4 12.8-3.6 6.4-5.4 23.2-34.8 30-52.6 11.2-29.2 15-52.4 15-91.8-.2-31.2-.6-37-5.4-54.4-10.8-40.6-30-74.2-58.4-102.8-40.4-40.4-91-62.2-148-63.8-14.2-.4-31.4 0-37.8 1zm114.4 396.6c-11.4 10.6-7.8 27.4 6.8 33 19.2 7.4 34.4-17.2 19.8-31.8-7.6-7.6-19.2-8-26.6-1.2z"/></svg>