<svg viewBox="0 0 1024 1024.0004" xmlns="http://www.w3.org/2000/svg"><path d="M640 970.667H384C152.32 970.667 53.333 871.68 53.333 640V384C53.333 152.32 152.32 53.333 384 53.333h85.333c17.494 0 32 14.507 32 32 0 17.494-14.506 32-32 32H384c-196.693 0-266.667 69.974-266.667 266.667v256c0 196.693 69.974 266.667 266.667 266.667h256c196.693 0 266.667-69.974 266.667-266.667v-85.333c0-17.494 14.506-32 32-32 17.493 0 32 14.506 32 32V640c0 231.68-98.987 330.667-330.667 330.667zM362.667 754.773c-26.027 0-49.92-9.386-67.414-26.453-20.906-20.907-29.866-51.2-25.173-83.2l18.347-128.427c3.413-24.746 19.626-56.746 37.12-74.24L661.76 106.24c84.907-84.907 171.093-84.907 256 0 46.507 46.507 67.413 93.867 63.147 141.227-3.84 38.4-24.32 75.946-63.147 114.346L581.547 698.027c-17.494 17.493-49.494 33.706-74.24 37.12L378.88 753.493c-5.547 1.28-11.093 1.28-16.213 1.28zm344.32-603.306L370.773 487.68c-8.106 8.107-17.493 26.88-19.2 37.973L333.227 654.08c-1.707 12.373.853 22.613 7.253 29.013 6.4 6.4 16.64 8.96 29.013 7.254L497.92 672c11.093-1.707 30.293-11.093 37.973-19.2l336.214-336.213c27.733-27.734 42.24-52.48 44.373-75.52 2.56-27.734-11.947-57.174-44.373-90.027-68.267-68.267-115.2-49.067-165.12.427zm139.946 267.946c-2.986 0-5.973-.426-8.533-1.28-112.213-31.573-201.387-120.746-232.96-232.96-4.693-17.066 5.12-34.56 22.187-39.68 17.066-4.693 34.56 5.12 39.253 22.187 25.6 90.88 97.707 162.987 188.587 188.587 17.066 4.693 26.88 22.613 22.186 39.68-3.84 14.506-16.64 23.466-30.72 23.466z"/></svg>