<svg viewBox="0 0 1024 1024.0246" xmlns="http://www.w3.org/2000/svg"><path d="M254.635 1021.53a282.624 282.624 0 0 1-99.5-35.412C86.016 946.48 34.433 875.483 17.878 797.275c-6.442-30.592-7.253-69.248-6.4-307.498.81-256.384.214-243.158 12.416-285.398 6.06-21.035 22.912-57.174 35.115-75.393C104.02 62 170.24 18.993 252.288 3.42 268.672.304 292.395.005 510.678.005c266.71 0 257.92-.384 301.482 13.397A290.432 290.432 0 0 1 996.224 191.92c14.08 39.98 14.763 46.38 15.744 151.68l.853 95.147-16.68 11.435c-23.81 16.256-55.04 45.227-98.817 91.733-50.432 53.59-101.376 103.254-127.232 124.032-55.85 44.843-107.007 70.443-158.975 79.53-27.05 4.694-71.766 2.86-98.22-4.052-23.594-6.144-22.058-7.168-30.975 19.797a271.147 271.147 0 0 0-13.568 65.963l-1.323 17.365-6.23-1.28c-51.84-10.283-103.21-54.827-123.05-106.667a152.875 152.875 0 0 1-11.094-52.01l-.683-14.507-13.184-12.117c-27.478-25.175-45.355-55.98-50.987-87.937-9.046-50.902 14.506-108.46 65.62-160.256 53.932-54.742 133.42-97.707 211.33-114.347 28.074-5.973 77.567-7.552 102.527-3.2 48.555 8.448 88.192 32.98 112.853 69.93 7.766 11.563 8.32 13.227 7.552 23.68a34.645 34.645 0 0 1-7.808 21.035c-19.84 27.776-78.848 57.515-142.336 71.68-112 24.96-183.21-6.058-172.073-75.05 1.11-6.955 1.706-12.97 1.322-13.355-1.366-1.365-12.502 4.437-24.534 12.8-20.437 14.25-38.528 41.984-44.8 68.565-1.536 6.656-2.133 17.323-1.45 27.734.853 14.12 2.26 19.37 8.19 31.4 3.927 7.937 11.735 19.2 17.41 25.132l10.24 10.71-4.097 5.205a206.72 206.72 0 0 0-28.886 51.925 155.093 155.093 0 0 0-4.48 77.44c4.395 19.67 17.963 46.72 31.53 62.635 10.326 12.16 34.006 32.597 37.803 32.597 1.024 0 1.878-2.048 1.878-4.523.042-9.812 7.85-41.513 13.91-56.617 18.047-45.142 57.642-83.627 120.32-116.907 10.452-5.547 40.618-20.053 67.07-32.3 58.028-26.88 89.73-43.305 107.137-55.68 50.176-35.54 81.195-88.105 91.307-154.665 3.668-24.32 3.668-69.717 0-94.165-15.703-104.02-93.655-174.762-205.57-186.453-124.8-13.1-283.647 83.328-381.525 231.552C204.63 398.64 172.46 478.64 158.933 558.77c-5.248 31.06-7.21 88.745-3.968 117.332 8.235 72.704 35.072 131.328 81.195 177.323a278.656 278.656 0 0 0 79.787 56.02c101.034 48.214 212.906 49.28 311.253 3.03 42.496-20.01 84.224-51.03 128.98-96 43.52-43.733 72.96-80.213 153.26-190.208 44.373-60.714 79.53-101.034 96.94-111.146l6.4-3.67-.812 131.884c-.768 127.7-.94 132.565-5.248 151.936-25.6 114.26-108.373 197.803-221.653 223.66l-19.968 4.564-246.4.427c-201.985.342-249.6-.085-264.108-2.39z"/></svg>