<svg viewBox="0 0 1024 1024" xmlns="http://www.w3.org/2000/svg"><path d="M843.52 480H671.147C585.387 480 544 442.027 544 363.52V169.813c0-78.506 41.813-116.48 127.147-116.48H843.52c85.76 0 127.147 37.974 127.147 116.48v193.28C970.667 442.027 928.853 480 843.52 480zM671.147 117.333c-57.174 0-63.147 16.214-63.147 52.48v193.28c0 36.694 5.973 52.48 63.147 52.48H843.52c57.173 0 63.147-16.213 63.147-52.48v-193.28c0-36.693-5.974-52.48-63.147-52.48H671.147zM843.52 970.667H671.147C585.387 970.667 544 928.853 544 843.52V671.147C544 585.387 585.813 544 671.147 544H843.52c85.76 0 127.147 41.813 127.147 127.147V843.52c0 85.333-41.814 127.147-127.147 127.147zM671.147 608C620.8 608 608 620.8 608 671.147V843.52c0 50.347 12.8 63.147 63.147 63.147H843.52c50.347 0 63.147-12.8 63.147-63.147V671.147c0-50.347-12.8-63.147-63.147-63.147H671.147zM352.853 480H180.48c-85.76 0-127.147-37.973-127.147-116.48V169.813c0-78.506 41.814-116.48 127.147-116.48h172.373c85.76 0 127.147 37.974 127.147 116.48v193.28C480 442.027 438.187 480 352.853 480zM180.48 117.333c-57.173 0-63.147 16.214-63.147 52.48v193.28c0 36.694 5.974 52.48 63.147 52.48h172.373c57.174 0 63.147-16.213 63.147-52.48v-193.28c0-36.693-5.973-52.48-63.147-52.48H180.48zm172.373 853.334H180.48c-85.76 0-127.147-41.814-127.147-127.147V671.147C53.333 585.387 95.147 544 180.48 544h172.373C438.613 544 480 585.813 480 671.147V843.52c0 85.333-41.813 127.147-127.147 127.147zM180.48 608c-50.347 0-63.147 12.8-63.147 63.147V843.52c0 50.347 12.8 63.147 63.147 63.147h172.373c50.347 0 63.147-12.8 63.147-63.147V671.147C416 620.8 403.2 608 352.853 608H180.48z"/></svg>