<svg viewBox="0 0 1024 1024.001" xmlns="http://www.w3.org/2000/svg"><path d="M1009.373 859.872L609.6 165.65c-9.945-17.04-24.207-31.156-41.32-40.958-17.114-9.8-36.496-14.92-56.244-14.92-19.746 0-39.127 5.12-56.242 14.92-17.114 9.802-31.376 23.917-41.323 40.957L14.703 859.87C5.12 876.33 0 894.98 0 914.068c0 19.015 5.12 37.737 14.7 54.194 9.874 17.115 24.136 31.303 41.25 41.103 17.19 9.802 36.57 14.85 56.316 14.63h799.54c19.75.22 39.128-4.9 56.244-14.63 17.186-9.8 31.375-23.988 41.247-41.102 9.582-16.456 14.702-35.105 14.702-54.196 0-19.015-5.048-37.737-14.628-54.194zm-533.905-384.41c0-9.73 3.876-19.018 10.75-25.892 6.803-6.8 16.09-10.68 25.82-10.68 9.726 0 19.014 3.88 25.89 10.68 6.8 6.875 10.68 16.164 10.68 25.89v182.844c0 9.728-3.88 19.016-10.68 25.89-6.876 6.803-16.164 10.68-25.892 10.68-9.727 0-19.015-3.877-25.818-10.68-6.874-6.874-10.75-16.162-10.75-25.89V475.462zm36.567 402.255c-10.823 0-21.428-3.217-30.497-9.215-8.996-6.07-16.017-14.627-20.186-24.648-4.17-10.02-5.193-21.063-3.145-31.668 2.12-10.68 7.387-20.405 15.066-28.085 7.68-7.678 17.407-12.943 28.085-15.064 10.606-2.048 21.65-1.024 31.668 3.145 10.02 4.17 18.58 11.19 24.648 20.187 5.998 9.07 9.216 19.673 9.216 30.498 0 14.554-5.778 28.523-16.09 38.763-10.24 10.312-24.208 16.088-38.764 16.088z"/></svg>