<svg viewBox="0 0 1024.2579 1024" xmlns="http://www.w3.org/2000/svg"><path d="M598.258 135c-118 14.4-221.4 83-283.2 187.8-13.8 23.2-25 33.4-54.8 48.8-33 17.4-65 26.6-114 33.2-29.2 4-76.2 7.2-106.6 7.2-26 0-33 2-37 11-3.8 8.2-3.4 171.4.4 178.8 4.4 8.4 11 10.2 36.8 10.2 30.4 0 77.4 3.2 106.4 7.2 49 6.6 81 15.8 114 33.2 29.6 15.4 41 25.6 54.8 48.8 39.8 67 93 116.8 161 150.8 187 93.6 414.8 16.6 508.4-171.8 20-40.2 31.6-79.2 36.8-124.2 17.6-148.6-53.6-292-184-371-69-41.6-156.8-60-239-50zm103 42c68.8 12 132.4 44.8 181.8 93.8l20 20-12.2 2.4c-55.6 11.4-95.8 78.8-106.6 179.2-8 75.8 8.6 160.8 41 209.6 17.6 26.4 40.8 43.8 65.6 48.8l12 2.4-17.8 18c-91.8 92.2-226.2 124-349.4 82.8-53.8-18.2-109.8-55.6-146.6-97.8-17.6-20.4-40.8-55.2-50.8-76.8-4.6-9.8-8-18-7.6-18.4.2-.2 12.2 1.6 26.4 4.2 18.2 3.4 26.6 5.8 28.4 8.4 16.4 22.6 31.4 40.4 37.8 44.8 8.8 6 84.2 27.6 96.2 27.6 9.4 0 16.8-7 18.2-17.2.8-7.2.2-9-4.6-14.4-5-5.4-10-7.4-36.8-14.4-57.2-15.2-49.2-11-67-35.2-8.6-11.6-18.6-23.2-22-26-7.2-5.4-18-8.4-59.4-16-16.2-3-30.4-6-31.6-6.8-1.8-1-6.2-19.4-8.8-37.2l-1.2-8.2 32.8-1.4c44-1.8 50.2-3.8 68-21.4l14-13.8h22.8c22.4 0 22.8 0 28.6-5.8 4.2-4.4 5.8-7.8 5.8-13.2 0-16.8-7.6-21-37.6-21-31.4 0-40 3-56 19.6l-12.6 13.4-15.4 1.4c-8.4.6-23.8 1.4-33.8 1.4l-18.6.2v-7c0-21.2 8.4-72.8 12-75 1.2-.8 15.4-3.8 31.6-6.8 39.8-7.4 51.8-10.6 58.4-15.2 3.2-2.2 13-14 22.2-26 17.6-23.4 16.8-22.8 41.8-29 38-9.4 44-13.2 44-27.4 0-9.8-8.6-19.6-17.4-19.6-11.2 0-65.4 16-73.6 21.6-6.4 4.4-21.4 22.2-37.8 44.8-1.8 2.6-10.2 5-28.4 8.4-14.2 2.6-26.2 4.4-26.6 4-1.2-1.2 13.6-31 23.2-46.8 27-43.8 59.8-77.8 102.4-106.4 44.8-29.8 96-48.8 150.2-55.6 20.8-2.4 73.2-.8 95 3zm216.4 159.2c10.4 5 24.4 20.2 33.6 36.6 10.4 18.8 10.6 19.2 2.8 19.2-17.4 0-37.4 16.2-48 38.8-11.8 25.2-14.6 40.4-14.6 81.2 0 32 .6 39.2 4.4 53 11.4 41.2 29.6 62.8 55.8 66.8l9 1.2-7.4 14.4c-13.8 26.6-34.4 44.6-51 44.6-31.4 0-63.2-51.6-75.4-122-4.6-26.2-4.6-89.8 0-116 12.2-70.4 44-122 75.2-122 3.8 0 10.8 1.8 15.6 4.2zm-643.4 90c-5.4 22.2-10 62-10 85.8 0 23.6 4.6 63.6 10 85.6 2.2 9.2 4 17 4 17.4 0 .4-6.6-2.2-14.4-6-43.4-20-99.6-31-179-35.4l-44.6-2.4V452.8l44.6-2.4c79-4.4 136.4-15.6 178.4-35.2 7.8-3.6 14.2-6.4 14.6-6.2.2.2-1.4 8-3.6 17.2zm686.6 11.8c12 14.2 20.8 53.8 18.6 84.4-2.2 29.6-11 57.4-21 66.4-4 3.6-4.4 3.6-8 .4-5.8-5.2-14-25.4-17.2-42.4-7.6-39.4.4-93.6 16.4-111.2 4.4-4.8 5.4-4.6 11.2 2.4zm-388-158c-6.2 2.6-11.4 11.4-11.4 19.6 0 9.4 9.8 18.4 20 18.4 10 0 18.8-9 18.8-19 0-9.4-2.6-14.2-10-18-6.4-3.4-10.8-3.6-17.4-1z"/></svg>