<svg viewBox="0 0 1024 1024" xmlns="http://www.w3.org/2000/svg"><path d="M521.59 512c0 26.795-21.707 48.538-48.536 48.538-26.795 0-48.538-21.743-48.538-48.538 0-26.795 21.743-48.538 48.538-48.538 26.83 0 48.538 21.743 48.538 48.538zm271.293-283.614c3.106 0 6.212-.614 9.08-1.81 2.867-1.194 5.495-2.934 7.714-5.153l41.677-41.677c9.25-9.25 9.25-24.303 0-33.553-9.285-9.284-24.303-9.284-33.588 0L776.09 187.87c-9.285 9.25-9.285 24.303 0 33.553 2.218 2.22 4.812 3.994 7.68 5.154 2.9 1.195 5.973 1.81 9.113 1.81zm-656.452-6.93c4.643 4.61 10.72 6.93 16.794 6.93 6.076 0 12.152-2.32 16.794-6.93 9.284-9.283 9.284-24.336 0-33.586l-41.677-41.677c-9.283-9.284-24.302-9.284-33.586 0-9.25 9.25-9.25 24.303 0 33.553l41.677 41.71zM473.055 106.43c13.107 0 23.757-10.616 23.757-23.757V23.758C496.81 10.65 486.16 0 473.055 0c-13.107 0-23.757 10.65-23.757 23.757V82.67c0 13.142 10.65 23.758 23.757 23.758zM136.43 802.543L94.755 844.22c-9.25 9.284-9.25 24.337 0 33.587 2.22 2.22 4.847 3.96 7.714 5.154 2.867 1.196 5.974 1.81 9.08 1.81 3.14 0 6.212-.614 9.113-1.81 2.868-1.194 5.497-2.934 7.68-5.153l41.678-41.677c9.284-9.25 9.284-24.303 0-33.553-9.25-9.284-24.303-9.284-33.587-.034zM714.548 512c0 133.154-108.34 241.493-241.493 241.493C339.9 753.493 231.56 645.153 231.56 512c0-133.154 108.34-241.493 241.494-241.493S714.547 378.847 714.547 512zm-47.513 0c0-106.974-87.006-193.98-193.98-193.98-106.974 0-193.98 87.006-193.98 193.98 0 106.974 87.006 193.98 193.98 193.98 106.974 0 193.98-87.006 193.98-193.98zm-193.98 106.086c-58.505 0-106.087-47.582-106.087-106.086 0-13.107-10.65-23.757-23.756-23.757s-23.756 10.65-23.756 23.757c0 84.685 68.915 153.6 153.6 153.6 13.107 0 23.757-10.65 23.757-23.757 0-13.107-10.65-23.757-23.756-23.757zm0 299.486c-13.107 0-23.757 10.65-23.757 23.757v58.913c0 13.14 10.65 23.757 23.757 23.757 13.107 0 23.757-10.615 23.757-23.757V941.33c0-13.142-10.65-23.758-23.756-23.758zm538.01-233.95v95.506c0 13.107-10.616 23.722-23.723 23.722h-76.287v76.254c0 13.107-10.616 23.757-23.723 23.757h-95.505c-13.107 0-23.723-10.65-23.723-23.756V802.85h-76.288c-13.107 0-23.722-10.615-23.722-23.722v-95.506c0-13.107 10.615-23.756 23.722-23.756h76.288v-76.254c0-13.107 10.616-23.757 23.723-23.757h95.505c13.107 0 23.723 10.65 23.723 23.757v76.254h76.288c13.108 0 23.723 10.65 23.723 23.756zm-47.48 23.723H887.33c-13.14 0-23.757-10.615-23.757-23.723V607.37h-47.99v76.252c0 13.108-10.65 23.723-23.758 23.723H715.57v48.026h76.255c13.107 0 23.757 10.616 23.757 23.758v76.22h47.99v-76.22c0-13.142 10.617-23.757 23.758-23.757h76.254v-48.025zm-359.697 93.9c-120.9 53.01-264.67 26.795-357.717-65.228L67.004 558.797C54.408 546.337 47.48 529.75 47.48 512c0-17.75 6.928-34.338 19.524-46.797l179.2-177.22c125.098-123.733 328.636-123.733 453.734 0l179.166 177.22c5.12 5.052 9.352 10.89 12.595 17.306 3.583 7.167 5.836 14.95 6.587 22.97 1.297 13.04 12.936 22.563 25.975 21.266 13.074-1.298 22.597-12.903 21.3-25.976-2.56-26.248-14.268-50.79-33.076-69.325L733.32 254.225c-143.496-141.926-377.002-141.96-520.5 0L33.588 431.445C11.947 452.88 0 481.485 0 512c0 30.515 11.947 59.12 33.62 80.555l179.167 177.22c53.487 52.907 121.242 87.723 195.89 100.693 21.403 3.72 43.078 5.598 64.786 5.598 51.337 0 102.093-10.547 149.47-31.334 12.015-5.257 17.477-19.25 12.22-31.266-5.257-12.015-19.25-17.477-31.266-12.22z"/></svg>