<svg viewBox="0 0 1024 1024.0004" xmlns="http://www.w3.org/2000/svg"><path d="M404.053 372.053c-8.106 0-16.213 2.987-22.613 9.387-34.987 34.987-54.187 81.493-54.187 130.56 0 101.973 82.774 184.747 184.747 184.747 49.067 0 95.573-19.2 130.56-54.187 5.973-5.973 9.387-14.08 9.387-22.613 0-8.534-3.414-16.64-9.387-22.614L426.667 381.44c-6.4-6.4-14.507-9.387-22.614-9.387zM512 632.747c-66.56 0-120.747-54.187-120.747-120.747 0-21.333 5.547-41.813 15.787-59.733L571.733 616.96c-17.92 10.24-38.4 15.787-59.733 15.787zM238.933 234.24c-7.253 0-14.933 2.56-20.906 7.68-45.654 38.827-86.614 86.613-121.6 142.08-45.227 70.4-45.227 185.173 0 256C200.533 802.987 352 896.853 512 896.853c93.867 0 186.453-32.426 267.52-93.44 14.08-10.666 17.067-30.72 6.4-44.8-10.667-14.08-30.72-17.066-44.8-6.4-69.973 52.907-149.333 80.64-229.12 80.64-137.813 0-269.653-82.773-361.813-227.413-32-49.92-32-136.96 0-186.88 32-49.92 68.693-93.013 109.226-128 13.227-11.52 14.934-31.573 3.414-45.227-5.974-7.253-14.934-11.093-23.894-11.093zM512 127.147c-56.747 0-112.213 11.52-165.547 34.133-16.213 6.827-23.893 25.6-17.066 41.813 6.826 16.214 25.6 23.894 41.813 17.067 45.227-19.2 92.587-29.013 140.373-29.013 137.814 0 269.654 82.773 361.814 227.413 32 49.92 32 136.96 0 186.88-13.227 20.907-27.734 40.96-43.094 59.733-11.093 13.654-8.96 33.707 4.694 45.227 13.653 11.093 33.706 9.387 45.226-4.693 16.64-20.48 32.854-42.667 47.36-65.707 45.227-70.4 45.227-185.173 0-256C823.467 221.013 672 127.147 512 127.147zm29.44 202.666c-14.933 0-28.587 10.667-31.573 26.027-3.414 17.493 8.106 34.133 25.6 37.12 46.933 8.533 86.186 47.787 94.72 94.72 3.413 17.493 20.053 28.587 37.546 25.6 17.494-3.413 29.014-20.053 25.6-37.547-13.653-73.813-72.533-132.266-145.92-145.92-2.133.427-3.84 0-5.973 0zM85.333 53.333c-8.106 0-16.213 2.987-22.613 9.387-12.373 12.373-12.373 32.853 0 45.227l318.72 318.72c12.373 12.373 32.853 12.373 45.227 0 12.373-12.374 12.373-32.854 0-45.227L107.947 62.72c-6.4-6.4-14.507-9.387-22.614-9.387zm534.614 534.614c-8.107 0-16.214 2.986-22.614 9.386-12.373 12.374-12.373 32.854 0 45.227l318.72 318.72c12.374 12.373 32.854 12.373 45.227 0 12.373-12.373 12.373-32.853 0-45.227l-318.72-318.72c-6.4-6.4-14.507-9.386-22.613-9.386z"/></svg>