<svg viewBox="0 0 1023.9829 1024.0004" xmlns="http://www.w3.org/2000/svg"><path d="M511.99 696.706c-102 0-184.714-82.77-184.714-184.715 0-102 82.715-184.77 184.715-184.77 102.005 0 184.776 82.77 184.776 184.77 0 101.948-82.77 184.72-184.772 184.72zm0-305.488c-66.557 0-120.714 54.215-120.714 120.773 0 66.56 54.157 120.72 120.715 120.72 66.56 0 120.777-54.157 120.777-120.716 0-66.557-54.214-120.772-120.773-120.772zm0 505.62c-160.423 0-311.858-93.864-415.964-256.85-45.282-70.426-45.282-185.17 0-255.994 104.504-162.985 255.996-256.85 415.966-256.85s311.46 93.865 415.565 256.85c45.227 70.37 45.227 185.17 0 255.995C823.453 802.97 671.962 896.834 511.99 896.834zm0-705.694c-137.838 0-269.647 82.77-361.805 227.38-31.972 49.948-31.972 136.987 0 186.878C242.343 750.067 374.15 832.838 511.99 832.838c137.784 0 269.65-82.77 361.808-227.436 31.972-49.89 31.972-136.93 0-186.877-92.158-144.61-224.024-227.38-361.807-227.38z"/></svg>