<svg viewBox="0 0 1024 1024.0012" xmlns="http://www.w3.org/2000/svg"><path d="M629.333 970.667h-192V661.333H396.8c-24.747 0-44.8-20.053-44.8-44.8v-81.066c0-24.747 20.053-44.8 44.8-44.8h40.533V384c0-88.32 71.68-160 160-160h115.2c24.747 0 44.8 20.053 44.8 44.8v102.4c0 24.747-20.053 44.8-44.8 44.8h-83.2v74.667h80.214c13.653 0 26.026 5.973 34.56 16.213 8.533 10.24 11.946 23.893 9.386 37.12l-16.213 81.067c-4.267 20.906-22.613 35.84-43.947 35.84h-64v309.76zm-128-64h64V597.333h112.64l8.534-42.666H565.76V396.8c0-24.747 20.053-44.8 44.8-44.8h83.2v-64h-96.427c-52.906 0-96 43.093-96 96v170.667H416v42.666h85.333v309.334zm138.667 64H384C152.32 970.667 53.333 871.68 53.333 640V384C53.333 152.32 152.32 53.333 384 53.333h256c231.68 0 330.667 98.987 330.667 330.667v256c0 231.68-98.987 330.667-330.667 330.667zM384 117.333c-196.693 0-266.667 69.974-266.667 266.667v256c0 196.693 69.974 266.667 266.667 266.667h256c196.693 0 266.667-69.974 266.667-266.667V384c0-196.693-69.974-266.667-266.667-266.667H384z"/></svg>