<svg width="24" height="24" viewBox="0 0 24 24" fill="none" xmlns="http://www.w3.org/2000/svg">
<g clip-path="url(#clip0_47_47)">
<path fill-rule="evenodd" clip-rule="evenodd" d="M8.70069 16.8125C9.33869 19.9489 12.1141 22.3125 15.4375 22.3125H21.625C21.8073 22.3125 21.9822 22.2401 22.1111 22.1111C22.2401 21.9822 22.3125 21.8073 22.3125 21.625V15.4375C22.3125 12.1066 19.9386 9.32631 16.7926 8.69656C16.5086 4.78056 13.2375 1.6875 9.25 1.6875C5.07619 1.6875 1.6875 5.07619 1.6875 9.25V16.125C1.6875 16.3073 1.75993 16.4822 1.88886 16.6111C2.0178 16.7401 2.19266 16.8125 2.375 16.8125H8.70069ZM16.7651 10.0991C16.3739 13.5957 13.595 16.3746 10.0991 16.7651C10.3962 17.9562 11.083 19.0139 12.0503 19.7699C13.0176 20.5259 14.2098 20.9369 15.4375 20.9375H20.9375V15.4375C20.9369 14.2098 20.5259 13.0176 19.7699 12.0503C19.0139 11.083 17.9562 10.3962 16.7651 10.0991ZM18.875 16.8125H14.75C14.5677 16.8125 14.3928 16.8849 14.2639 17.0139C14.1349 17.1428 14.0625 17.3177 14.0625 17.5C14.0625 17.6823 14.1349 17.8572 14.2639 17.9861C14.3928 18.1151 14.5677 18.1875 14.75 18.1875H18.875C19.0573 18.1875 19.2322 18.1151 19.3611 17.9861C19.4901 17.8572 19.5625 17.6823 19.5625 17.5C19.5625 17.3177 19.4901 17.1428 19.3611 17.0139C19.2322 16.8849 19.0573 16.8125 18.875 16.8125ZM17.5 15.4375H18.8791C19.0615 15.437 19.2361 15.364 19.3647 15.2347C19.4932 15.1054 19.5651 14.9303 19.5646 14.7479C19.564 14.5656 19.4911 14.3909 19.3617 14.2624C19.2324 14.1339 19.0573 14.062 18.875 14.0625H17.5C17.3177 14.0625 17.1428 14.1349 17.0139 14.2639C16.8849 14.3928 16.8125 14.5677 16.8125 14.75C16.8125 14.9323 16.8849 15.1072 17.0139 15.2361C17.1428 15.3651 17.3177 15.4375 17.5 15.4375ZM11.0492 12.0213L11.5139 12.4861C11.6436 12.6113 11.8173 12.6806 11.9975 12.679C12.1778 12.6775 12.3502 12.6052 12.4777 12.4777C12.6052 12.3502 12.6775 12.1778 12.679 11.9975C12.6806 11.8173 12.6113 11.6436 12.4861 11.5139L12.0213 11.0492C12.4113 10.4814 12.6388 9.81784 12.6794 9.13019C12.7199 8.44254 12.5719 7.75687 12.2513 7.14718C11.9307 6.53748 11.4497 6.0269 10.8602 5.67053C10.2707 5.31416 9.5951 5.12554 8.90625 5.125C6.819 5.125 5.125 6.819 5.125 8.90625C5.12554 9.5951 5.31416 10.2707 5.67053 10.8602C6.0269 11.4497 6.53748 11.9307 7.14718 12.2513C7.75687 12.5719 8.44254 12.7199 9.13019 12.6794C9.81784 12.6388 10.4814 12.4113 11.0492 12.0213ZM11.0231 10.0509C11.2211 9.68435 11.3206 9.27263 11.3118 8.85607C11.303 8.43951 11.1862 8.03236 10.9728 7.67447C10.7595 7.31658 10.4569 7.0202 10.0946 6.81433C9.73239 6.60846 9.32291 6.50015 8.90625 6.5C7.578 6.5 6.5 7.578 6.5 8.90625C6.50015 9.32291 6.60846 9.73239 6.81433 10.0946C7.0202 10.4569 7.31658 10.7595 7.67447 10.9728C8.03236 11.1862 8.43951 11.303 8.85607 11.3118C9.27263 11.3206 9.68435 11.2211 10.0509 11.0231L9.45144 10.4236C9.3262 10.2939 9.25691 10.1202 9.25847 9.93997C9.26004 9.75971 9.33234 9.58728 9.45981 9.45981C9.58728 9.33234 9.75971 9.26004 9.93997 9.25847C10.1202 9.25691 10.2939 9.3262 10.4236 9.45144L11.0231 10.0509Z" fill="black"/>
</g>
<defs>
<clipPath id="clip0_47_47">
<rect width="22" height="22" fill="white" transform="translate(1 1)"/>
</clipPath>
</defs>
</svg>
