<svg viewBox="0 0 1024 1024" xmlns="http://www.w3.org/2000/svg"><path d="M426.24 970.667c-8.533 0-15.36-1.707-20.48-3.84-17.067-6.4-46.08-27.307-46.08-93.44v-275.2h-99.84c-57.173 0-77.653-26.88-84.907-42.667-7.253-16.213-13.653-49.067 23.894-92.16L521.813 96.427c43.52-49.494 78.934-46.08 96-39.68 17.067 6.4 46.08 27.306 46.08 93.44v275.2h99.84c57.174 0 77.654 26.88 84.907 42.666 7.253 16.214 13.653 49.067-23.893 92.16L501.76 927.147c-30.293 34.56-56.747 43.52-75.52 43.52zm168.107-853.76c-1.28 1.706-10.24 5.973-24.32 22.186L247.04 506.027c-11.947 13.653-13.653 22.186-13.653 23.893.853.427 8.533 4.693 26.453 4.693h131.84c17.493 0 32 14.507 32 32v307.2c0 21.334 3.84 30.72 5.547 33.28 1.28-1.706 10.24-5.973 24.32-22.186l322.986-366.934c11.947-13.653 13.654-22.186 13.654-23.893-.854-.427-8.534-4.693-26.454-4.693h-131.84c-17.493 0-32-14.507-32-32v-307.2c.427-21.334-3.84-30.294-5.546-33.28z"/></svg>