<svg viewBox="0 0 1024 1024.0012" xmlns="http://www.w3.org/2000/svg"><path d="M338.204 574.635c60.132 0 108.374 48.697 108.374 109.283v145.408c0 60.19-48.242 109.227-108.374 109.227H193.99c-59.732 0-108.372-49.038-108.372-109.227V683.918c0-60.586 48.64-109.283 108.373-109.283h144.215zm492.374 0c59.733 0 108.373 48.697 108.373 109.283v145.408c0 60.19-48.64 109.227-108.37 109.227H686.363c-60.188 0-108.373-49.038-108.373-109.227V683.918c0-60.586 48.187-109.283 108.375-109.283H830.58zM338.204 85.275c60.132 0 108.374 49.04 108.374 109.228v145.465c0 60.587-48.242 109.227-108.374 109.227H193.99c-59.732 0-108.372-48.64-108.372-109.227V194.503c0-60.188 48.64-109.227 108.373-109.227h144.215zm492.374 0c59.733 0 108.373 49.04 108.373 109.228v145.465c0 60.587-48.64 109.227-108.37 109.227H686.363c-60.188 0-108.373-48.64-108.373-109.227V194.503c0-60.188 48.187-109.227 108.375-109.227H830.58z"/></svg>