<svg viewBox="0 0 716.8 1024" xmlns="http://www.w3.org/2000/svg"><path d="M573.816 349.935q-.376-91.512-64.547-156.81-64.137-65.26-155.65-67.24-44.236-.65-85.4 16.007-41.165 16.69-72.602 48.094-6.246 6.246-15.087 6.246-8.84 0-15.086-6.246t-6.212-15.087q0-8.84 6.246-15.088 37.513-37.512 86.7-57.446 49.185-19.934 102.4-19.15 108.816 2.356 185.138 80.01 76.288 77.653 76.766 186.504.068 8.84-6.178 15.12-6.212 6.282-15.053 6.316-8.84.034-15.12-6.178-6.246-6.212-6.314-15.053zm-531.15 448.99q0 75.57 53.42 128.99 53.418 53.418 128.99 53.418 36.283 0 69.802-13.892 33.52-13.857 59.187-39.525 25.634-25.635 39.526-59.188 13.894-33.52 13.894-69.802-.342-50.96 24.27-95.744 24.54-44.646 67.685-71.68l11.707-7.85q68.37-45.943 107.11-118.68 38.74-72.74 38.74-155.138 0-61.132-23.38-117.555-23.38-56.456-66.594-99.67-43.213-43.178-99.67-66.56-56.456-23.38-117.555-23.38-127.215 0-217.19 89.975-89.94 89.976-89.94 217.19 0 8.84-6.248 15.088-6.246 6.246-15.087 6.246-8.84 0-15.087-6.246Q0 358.673 0 349.832q0-144.895 102.468-247.364Q204.902 0 349.798 0q69.598 0 133.906 26.624 64.272 26.624 113.493 75.81 49.22 49.22 75.844 113.494 26.625 64.307 26.625 133.904 0 93.048-43.76 175.173-43.758 82.16-121 134.076l-11.982 8.056q-.273.17-.58.375-33.93 21.198-53.214 56.22-19.253 35.054-18.98 75.195 0 44.783-17.135 86.152-17.135 41.37-48.776 73.01-31.677 31.643-73.046 48.778Q269.858 1024 225.074 1024q-93.25 0-159.163-65.912Q0 892.143 0 798.925q0-8.84 6.246-15.087 6.247-6.246 15.087-6.246t15.087 6.246q6.247 6.246 6.247 15.087zm311.092-673.04q-44.408-.65-85.572 16.04-41.13 16.658-72.568 48.06l-30.14-30.173q37.513-37.512 86.7-57.446 49.15-19.934 102.194-19.15zm-13.244 537.7q-50.074 50.21-115.61 77.347Q159.37 768.102 88.44 768q-8.84 0-15.087-6.28-6.247-6.247-6.213-15.087v-.24l1.058-85.333q.103-8.328 5.803-14.37 5.736-6.042 14.03-6.622 32.87-2.355 55.774-26.078 22.903-23.688 24.064-56.627 1.194-32.973-19.934-58.265-21.13-25.293-53.76-29.97-8.738-1.262-14.03-8.328-5.29-7.1-4.06-15.838 1.262-8.738 8.362-14.03 7.066-5.29 15.804-4.06 48.81 7.03 80.418 44.885 31.64 37.854 29.866 87.142-1.774 49.254-36.044 84.752-27.205 28.16-63.864 36.182l-.546 44.817q50.86-3.413 98.475-23.142 57.685-23.86 101.75-68.062 6.248-6.246 15.088-6.28 8.84 0 15.087 6.246 6.246 6.247 6.28 15.087 0 8.806-6.246 15.086zm-61.952-553.642Q356.25 158.89 400.59 239.31q44.372 80.417 44.304 172.236 0 8.84-6.247 15.087-6.246 6.246-15.087 6.246-8.84 0-15.086-6.248-6.247-6.28-6.247-15.086.07-80.862-38.98-151.62-39.05-70.793-107.452-113.87-7.475-4.71-9.42-13.346-1.946-8.6 2.764-16.076 4.71-7.476 13.31-9.42 8.603-1.98 16.112 2.73zm169.063 385.332c2.39-11.537-5.052-22.835-16.59-25.225-11.536-2.39-22.8 5.018-25.224 16.555-2.388 11.537 5.053 22.835 16.59 25.224 11.537 2.39 22.8-5.018 25.225-16.555z"/></svg>