<svg viewBox="0 0 1024 1024" xmlns="http://www.w3.org/2000/svg"><path d="M879.99 991.983H663.997c-68.2 0-125.918-26.59-168.073-46.012-20.036-9.25-38.98-17.953-47.923-17.953h-80.01c-4.23 0-8.293-1.707-11.297-4.71-3.003-3.004-4.71-7.066-4.71-11.298 0-4.268 1.707-8.33 4.71-11.334 3.004-3.004 7.066-4.676 11.298-4.676H448c15.974 0 35.02 8.772 61.338 20.924C548.796 935.117 602.863 960 663.996 960H879.99c4.268 0 8.33 1.673 11.334 4.676 3.004 3.004 4.676 7.066 4.676 11.332 0 4.233-1.673 8.295-4.676 11.3-3.004 3.002-7.066 4.675-11.332 4.675zM376.014 640h-8.022c-4.23 0-8.293-1.673-11.297-4.676-3.003-3.004-4.71-7.066-4.71-11.332 0-4.233 1.707-8.295 4.71-11.3 3.004-3.002 7.066-4.71 11.298-4.71h8.023c87.38 0 140.254-44.714 182.75-80.656 27.75-23.518 51.78-43.827 79.6-47.24l153.633-.103c4.232 0 8.328 1.707 11.332 4.71 2.97 3.004 4.676 7.066 4.676 11.298 0 4.268-1.706 8.33-4.676 11.334-3.004 3.003-7.1 4.676-11.332 4.676h-151.69c-16.417 2.116-37 19.558-60.893 39.73C535.38 589.006 475.136 640 376.013 640zm-264.02 0h-64c-4.234 0-8.296-1.673-11.3-4.676-3.003-3.004-4.676-7.066-4.676-11.332 0-4.233 1.673-8.295 4.676-11.3 3.004-3.002 7.066-4.71 11.3-4.71h63.998c4.268 0 8.33 1.708 11.334 4.71 3.004 3.005 4.676 7.067 4.676 11.3 0 4.266-1.672 8.328-4.676 11.332-3.004 3.004-7.066 4.676-11.332 4.676zm0 288.017h-64c-4.234 0-8.296-1.707-11.3-4.71-3.003-3.004-4.676-7.066-4.676-11.298 0-4.268 1.673-8.33 4.676-11.334 3.004-3.004 7.066-4.676 11.3-4.676h63.998c4.268 0 8.33 1.673 11.334 4.676 3.004 3.004 4.676 7.066 4.676 11.332 0 4.233-1.672 8.295-4.676 11.3-3.004 3.002-7.066 4.71-11.332 4.71zm768 63.966c-4.234 0-8.296-1.673-11.3-4.676-3.003-3.004-4.71-7.066-4.71-11.298 0-4.268 1.707-8.33 4.71-11.334 3.004-3.004 7.066-4.676 11.298-4.676 8.262-.375 16.044-3.89 21.744-9.865 5.7-5.973 8.875-13.892 8.875-22.118 0-8.26-3.175-16.18-8.876-22.153-5.7-5.973-13.482-9.49-21.743-9.864-4.23 0-8.293-1.673-11.297-4.676-3.003-3.004-4.71-7.066-4.71-11.332 0-4.233 1.707-8.295 4.71-11.3 3.004-3.002 7.066-4.71 11.298-4.71h23.997c8.26-.34 16.043-3.89 21.743-9.83 5.7-5.973 8.875-13.892 8.875-22.152 0-8.26-3.175-16.18-8.875-22.153-5.7-5.94-13.483-9.49-21.743-9.83-4.232 0-8.294-1.707-11.298-4.71-3.005-3.004-4.677-7.066-4.677-11.298 0-4.268 1.672-8.33 4.676-11.334 3.003-3.004 7.065-4.676 11.297-4.676h24.03c8.226-.375 16.01-3.89 21.71-9.865 5.7-5.973 8.874-13.892 8.874-22.152 0-8.226-3.174-16.145-8.874-22.118-5.7-5.974-13.483-9.49-21.71-9.865-4.266 0-8.327-1.673-11.33-4.676-3.005-3.004-4.678-7.066-4.678-11.332 0-4.233 1.673-8.295 4.677-11.3 3.004-3.002 7.065-4.675 11.332-4.675 8.226-.375 16.01-3.925 21.71-9.865 5.7-5.973 8.874-13.892 8.874-22.152 0-8.26-3.174-16.18-8.874-22.153-5.7-5.94-13.483-9.49-21.71-9.864h-40.003c-4.267 0-8.33-1.673-11.332-4.676-3.003-3.004-4.676-7.066-4.676-11.298 0-4.268 1.673-8.33 4.677-11.334 3.004-3.004 7.066-4.676 11.333-4.676h40.004c35.294 0 63.966 28.706 63.966 64 0 19.115-8.397 36.25-21.71 47.99 7.988 7 14.098 15.874 17.785 25.806 3.686 9.967 4.846 20.65 3.38 31.164-1.503 10.513-5.565 20.48-11.88 29.013-6.28 8.534-14.61 15.36-24.234 19.866 7.987 10.683 12.663 23.892 12.663 38.16 0 25.498-14.984 47.582-36.66 57.856 7.988 10.65 12.664 23.86 12.664 38.16 0 35.295-28.705 63.967-64 63.967zm-192.002 0h-23.994c-68.2 0-125.918-26.59-168.073-46.012-20.036-9.25-38.98-17.953-47.923-17.953h-71.987c-4.267 0-8.33-1.707-11.332-4.71-3.003-3.004-4.676-7.066-4.676-11.298 0-4.268 1.673-8.33 4.676-11.334 3.004-3.004 7.066-4.676 11.333-4.676H448c15.974 0 35.02 8.772 61.338 20.924C548.796 935.117 602.863 960 663.996 960h23.995c4.268 0 8.33 1.673 11.334 4.676 3.004 3.004 4.676 7.066 4.676 11.332 0 4.233-1.673 8.295-4.676 11.3-3.004 3.002-7.066 4.675-11.332 4.675zm-87.994-215.996c-4.233 0-8.295-1.672-11.298-4.676-3.004-3.003-4.71-7.065-4.71-11.297 0-4.267 1.706-8.33 4.71-11.332 3.003-3.003 7.065-4.676 11.298-4.676 27.58-.034 54-10.99 73.523-30.515C693.01 694 703.965 667.58 704 640v-47.99c0-4.268 1.673-8.33 4.676-11.334 3.004-3.004 7.066-4.676 11.332-4.676h64c4.233 0 8.295 1.673 11.3 4.676 3.002 3.004 4.71 7.066 4.71 11.332 0 4.233-1.708 8.295-4.71 11.3-3.005 3.002-7.067 4.675-11.3 4.675h-48.025V640c-.034 36.045-14.37 70.622-39.868 96.12-25.497 25.497-60.04 39.833-96.12 39.867zM879.99 991.983h-71.986c-35.294 0-64-28.672-64-63.966 0-4.267 1.673-8.33 4.677-11.332 3.004-3.004 7.066-4.676 11.333-4.676 4.232 0 8.294 1.67 11.298 4.675 3.005 3.004 4.677 7.065 4.677 11.332 0 17.613 14.336 31.983 32.017 31.983h71.987c17.683 0 32.02-14.37 32.02-31.983 0-4.267 1.67-8.33 4.675-11.332 3.004-3.004 7.065-4.676 11.332-4.676 4.233 0 8.294 1.67 11.298 4.675 3.004 3.004 4.676 7.065 4.676 11.332 0 35.294-28.705 63.966-64 63.966zM903.988 896H784.01c-35.295 0-64-28.706-64-64 0-4.232 1.67-8.294 4.675-11.298 3.004-3.004 7.065-4.71 11.298-4.71 4.267 0 8.33 1.706 11.332 4.71 3.004 3.004 4.676 7.066 4.676 11.298 0 17.647 14.337 31.983 32.02 31.983h119.977c4.267 0 8.33 1.707 11.332 4.71 3.003 3.004 4.676 7.066 4.676 11.298 0 4.268-1.673 8.33-4.677 11.334-3.004 3.004-7.066 4.676-11.333 4.676zm24.03-95.983h-144.01c-35.292 0-63.998-28.706-63.998-64.034 0-20.173 9.25-38.775 25.36-50.995 3.413-2.39 7.577-3.345 11.673-2.73 4.096.648 7.783 2.866 10.308 6.177 2.493 3.277 3.62 7.44 3.108 11.57-.478 4.097-2.56 7.886-5.77 10.48-5.324 4.062-9.25 9.694-11.23 16.077-1.944 6.417-1.842 13.278.274 19.627 2.116 6.313 6.212 11.843 11.64 15.768 5.427 3.892 11.946 6.008 18.637 6.042h144.007c8.226-.375 16.01-3.89 21.71-9.865 5.7-5.973 8.874-13.892 8.874-22.152 0-8.226-3.174-16.145-8.874-22.118-5.7-5.974-13.483-9.49-21.71-9.865-4.266 0-8.327-1.673-11.33-4.676-3.005-3.004-4.678-7.066-4.678-11.332 0-4.233 1.673-8.295 4.677-11.3 3.004-3.002 7.065-4.675 11.332-4.675 35.294 0 63.966 28.672 63.966 63.966 0 35.328-28.672 64.034-63.966 64.034zM336.007 960h-192c-26.486 0-48.024-21.538-48.024-47.99v-96.02c0-4.23 1.707-8.293 4.71-11.297 3.004-3.003 7.066-4.676 11.3-4.676 4.265 0 8.327 1.673 11.33 4.676 3.005 3.004 4.677 7.066 4.677 11.298v96.02c0 4.23 1.673 8.293 4.676 11.297 3.004 3.003 7.066 4.71 11.333 4.71h192c4.23 0 8.293-1.707 11.297-4.71 3.003-3.004 4.676-7.066 4.676-11.298v-96.02c0-4.23 1.707-8.293 4.71-11.297 3.004-3.003 7.066-4.676 11.298-4.676 4.268 0 8.33 1.673 11.334 4.676 3.003 3.004 4.676 7.066 4.676 11.298v96.02c0 26.452-21.538 47.99-47.99 47.99zm543.985-239.99h-23.996c-23.313-.036-45.705-9.286-62.19-25.806C777.283 677.717 768 655.326 768 632.014v-40.005c0-4.268 1.673-8.33 4.676-11.334 3.004-3.004 7.066-4.676 11.332-4.676 4.233 0 8.295 1.673 11.3 4.676 3.002 3.004 4.71 7.066 4.71 11.332v40.005c0 30.856 25.087 55.978 55.978 55.978h7.987v-95.98c0-44.102-35.84-80.01-79.974-80.01-4.268 0-8.33-1.673-11.334-4.676-3.004-3.004-4.676-7.066-4.676-11.333 0-4.23 1.673-8.293 4.676-11.297 3.004-3.003 7.066-4.71 11.332-4.71C845.757 479.983 896 530.227 896 592.01V704c0 4.232-1.673 8.294-4.676 11.298-3.004 3.004-7.066 4.71-11.332 4.71zM272.01 863.982h-64c-61.783 0-112.027-50.21-112.027-111.99V623.99c0-26.452 21.538-47.99 48.025-47.99h192C362.463 576 384 597.538 384 623.99v128c0 61.783-50.244 111.993-111.99 111.993zm31.98-384c-4.23 0-8.293-1.673-11.297-4.676-3.003-3.004-4.676-7.066-4.676-11.298V384H80.007c-26.486 0-47.99-21.538-47.99-47.99v-256c0-26.49 21.504-47.993 47.99-47.993h351.984c26.49 0 47.993 21.504 47.993 47.99v128c0 4.234-1.673 8.296-4.676 11.3-3.004 3.003-7.066 4.676-11.298 4.676-4.268 0-8.33-1.673-11.334-4.676-3.003-3.004-4.676-7.066-4.676-11.298v-128c0-4.268-1.673-8.33-4.676-11.334C440.32 65.672 436.258 64 431.99 64H80.01c-4.268 0-8.33 1.672-11.334 4.676C65.672 71.68 64 75.742 64 80.008v256c0 4.233 1.672 8.295 4.676 11.3 3.004 3.002 7.066 4.675 11.332 4.675H303.99c4.268 0 8.33 1.707 11.334 4.71 3.003 3.004 4.676 7.066 4.676 11.298v57.38l68.676-68.677c1.468-1.467 3.243-2.662 5.19-3.48 1.944-.786 4.026-1.23 6.143-1.23h31.98c4.268 0 8.33-1.673 11.334-4.676 3.003-3.004 4.676-7.066 4.676-11.298v-46.662c0-4.232 1.673-8.328 4.676-11.332 3.004-2.97 7.066-4.676 11.333-4.676 4.23 0 8.293 1.706 11.297 4.676 3.003 3.004 4.676 7.1 4.676 11.332v46.66c0 26.454-21.504 47.992-47.992 47.992h-25.36l-91.34 91.34c-3.004 2.97-7.066 4.643-11.3 4.643zm-159.982 128c-4.266 0-8.328 1.707-11.332 4.71-3.003 3.004-4.676 7.066-4.676 11.298v128c0 44.102 35.874 80.01 80.008 80.01h64c44.135 0 79.975-35.908 79.975-80.01v-128c0-4.23-1.673-8.293-4.676-11.297-3.004-3.003-7.066-4.71-11.298-4.71zM256 320c-2.628 0-5.222-.65-7.543-1.877-4.916-2.63-119.808-64.956-119.808-145-.036-20.41 8.054-39.97 22.424-54.44 14.404-14.474 33.963-22.632 54.374-22.7 18.91 0 36.762 6.827 50.552 18.876 13.995-12.22 31.983-18.91 50.55-18.877 42.327 0 76.8 34.61 76.8 77.14 0 80.044-114.925 142.37-119.84 145-2.322 1.228-4.882 1.877-7.51 1.877zm479.983 111.99h-.683c-3.754-.17-7.304-1.637-10.07-4.163-2.764-2.526-4.573-5.94-5.085-9.66L684.988 160.53l-29.32 146.602c-.683 3.38-2.424 6.45-4.984 8.738-2.56 2.32-5.803 3.755-9.216 4.062-3.448.375-6.895-.444-9.865-2.253-2.935-1.81-5.222-4.54-6.45-7.75l-15.156-37.82-1.365 4.54c-.99 3.278-3.004 6.145-5.77 8.193-2.764 2.048-6.11 3.14-9.522 3.174H400.01c-4.268 0-8.33-1.707-11.334-4.71-3.003-3.004-4.676-7.066-4.676-11.298 0-4.268 1.673-8.33 4.676-11.334 3.004-3.003 7.066-4.676 11.333-4.676h181.486l11.195-36.66c.99-3.174 2.902-5.972 5.53-7.986 2.595-2.048 5.803-3.21 9.114-3.346 7.442-.648 12.97 3.72 15.497 10.036l12.05 30.003 37.444-187.22c.717-3.62 2.697-6.862 5.53-9.217 2.867-2.322 6.45-3.618 10.137-3.618h.514c7.816.273 14.3 6.075 15.325 13.858l36.215 265.454 28.365-122.88c.82-3.515 2.764-6.62 5.563-8.874 2.8-2.253 6.28-3.516 9.865-3.55 7.066.512 13.926 4.915 15.667 12.117L812.51 256h163.5c4.23 0 8.293 1.673 11.297 4.676 3.003 3.004 4.676 7.066 4.676 11.333 0 4.23-1.673 8.293-4.676 11.297-3.004 3.003-7.066 4.71-11.298 4.71H799.982c-3.447 0-6.827-1.126-9.59-3.21-2.8-2.08-4.814-5.016-5.77-8.36L751.616 419.6c-.82 3.55-2.833 6.657-5.666 8.91s-6.35 3.48-9.967 3.48zM205.45 128c-24.714 0-44.819 20.24-44.819 45.124 0 46.695 63.046 93.457 95.37 112.504 32.324-19.08 95.368-65.946 95.368-112.504 0-24.883-20.104-45.124-44.817-45.124-15.086 0-28.978 7.407-37.238 19.73-5.973 8.908-20.685 8.908-26.624 0-4.096-6.077-9.66-11.094-16.145-14.542-6.52-3.447-13.756-5.222-21.095-5.188z"/></svg>