<svg viewBox="0 0 1024 1024.0012" xmlns="http://www.w3.org/2000/svg"><path d="M237.65 968.533c-99.84 0-184.32-84.48-184.32-184.32V521.387C51.2 396.8 97.28 279.467 183.466 191.573c86.184-87.467 201.81-136.107 326.4-136.107 254.293 0 460.8 206.934 460.8 460.8v262.827c0 101.547-82.774 184.32-184.32 184.32-99.84 0-184.32-84.48-184.32-184.32V659.2c0-61.867 48.64-110.507 110.506-110.507 61.867 0 110.507 48.64 110.507 110.507v129.28c0 17.493-14.51 32-32 32-17.495 0-32-14.507-32-32V659.2c0-29.013-23.47-46.507-46.51-46.507-29.012 0-46.505 23.467-46.505 46.507v119.893c0 65.28 55.04 120.32 120.32 120.32s120.32-55.04 120.32-120.32V516.267c0-218.88-177.92-396.8-396.8-396.8-107.096 0-206.51 41.386-280.75 116.906-74.24 75.52-113.92 176.64-111.786 284.16v263.68c0 65.28 55.04 120.32 120.32 120.32s120.32-55.04 120.32-120.32V664.32c0-29.013-23.467-46.507-46.507-46.507-29.013 0-46.506 23.467-46.506 46.507v124.587c0 17.493-14.507 32-32 32-17.494 0-32-14.507-32-32V664.32c0-61.867 48.64-110.507 110.506-110.507 61.867 0 110.507 48.64 110.507 110.507v119.893c0 99.84-84.48 184.32-184.32 184.32z"/></svg>