<svg viewBox="0 0 1023.9992 1024.0012" xmlns="http://www.w3.org/2000/svg"><path d="M303.027 0H578.15c7.86 1.87 14.055 9.83 12.032 18.048-1.33 7.4-8.73 12.493-16.076 11.904-51.175.077-102.35.052-153.524.052-35.84 0-71.705-.026-107.57 0v389.99h397.976V30.004c-9.243-.077-18.46-.026-27.7 0-13.823.05-27.648.102-41.47-.18-8.91.026-16.028-9.395-13.826-17.996 1.076-6.196 6.58-10.42 12.44-11.828h80.052c6.22 1.23 12.365 4.148 16.026 9.498 4.66 5.965 4.582 13.67 4.53 20.94 0 1.204-.024 2.382 0 3.534-.05 48.05-.05 96.102-.05 144.18v.1c.026 33.896.026 67.816 0 101.736 18.816.05 37.606.025 56.422.025h.026c25.6-.05 51.2-.077 76.774.103 7.348-.23 13.415 5.708 14.746 12.697 21.71 82.407 43.57 164.762 65.178 247.194 3.072 8.422-2.816 18.816-11.904 19.66-7.91.513-15.847.436-23.783.333-5.145-.05-10.29-.102-15.437 0-.025 124.646-.025 249.343 0 373.99 10.317.077 20.634.05 30.95 0h.026c16.025-.05 32.05-.103 48.076.205 21.632.896 39.962 19.48 41.933 40.832v7.705c-1.767 21.325-19.815 39.4-41.166 41.267H829.72c-7.27-1.69-13.31-8.32-12.492-16.05.306-8.373 8.42-14.72 16.562-13.928 21.555-.05 43.085-.05 64.614-.026h.103c26.572.026 53.17.026 79.768-.077 9.472.742 17.74-8.935 15.31-18.177-1.51-7.91-9.754-12.646-17.46-11.776-309.375.052-618.777.052-928.18 0-4.81-.025-10.11.615-13.515 4.43-6.246 5.81-5.683 16.972 1.1 22.17 4.327 3.66 10.01 3.557 15.49 3.455 1.688-.026 3.352-.05 4.965.025 133.683-.076 267.392-.05 401.1-.05 94.31 0 188.647.025 282.982 0 3.968.076 7.936.025 11.904-.026 6.12-.076 12.213-.127 18.33.257 8.756.204 15.49 9.65 13.287 18.048-1.126 6.092-6.553 10.214-12.262 11.724H41.293C20.326 1022.283 2.688 1004.9 0 984.14v-8.934c1.562-15.258 10.88-29.49 24.678-36.327 7.783-4.2 16.743-5.07 25.42-4.916 15.003.05 29.98.05 44.955.026h25.933c.025-97.407.025-194.84 0-292.222-.128-4.967 1.152-10.317 5.196-13.543 6.068-5.556 16.564-4.582 21.53 1.97 3.277 3.815 3.302 9.063 3.354 13.8-.103 69.042-.077 138.06-.052 207.103v82.893h86.99V824.296c-.026-59.443-.026-118.86.05-178.303-.742-8.703 7.015-16.614 15.744-15.923 171.392-.104 342.836-.104 514.252 0 8.73-.744 16.564 7.09 15.9 15.82.076 59.135.076 118.297.05 177.433 0 36.89-.026 73.78 0 110.67h89.01c0-124.673 0-249.345-.024-373.99H610.51c-153.192 0-306.356 0-459.52.05-.13 2.125-.027 4.353.05 6.605.205 6.068.435 12.262-3.02 17.382-5.48 7.91-18.458 7.96-23.988.077-3.507-5.096-3.277-11.316-3.072-17.383.102-2.278.18-4.53.05-6.68-5.324-.155-10.674-.104-16.024-.053-7.732.078-15.463.18-23.194-.33-9.062-.82-15.053-11.19-11.955-19.637 21.632-82.483 43.545-164.94 65.254-247.398 1.36-6.912 7.375-12.723 14.62-12.518 25.83-.18 51.66-.154 77.49-.128 18.61.024 37.198.05 55.81 0-.027-33.87-.027-67.74 0-101.608v-.1c0-48.078 0-96.13-.05-144.206.023-1.23 0-2.51 0-3.79-.08-7.27-.13-14.898 4.53-20.812 3.583-5.248 9.55-8.012 15.54-9.472zM161.51 310.016c-19.328 73.32-38.68 146.637-58.035 219.956 272.36.025 544.69.025 817.023 0-19.33-73.32-38.682-146.637-58.036-219.956-12.006 0-24.013 0-35.994-.025-28.518 0-57.01-.024-85.504.08.052 38.68.077 77.362 0 116.043.666 12.52-10.188 24.04-22.732 23.783-85.658.153-171.315.128-256.947.102h-.076c-51.073 0-102.17-.025-153.217 0-12.493 1.024-24.756-9.267-24.884-21.99-.18-25.96-.154-51.917-.103-77.9 0-13.364.026-26.702.026-40.065-28.212-.05-56.397-.05-84.608-.026H161.51zM368 659.994V933.99h286.003V659.994zm-99.994 0V933.99h69.99V659.994zm416 0V933.99h69.99V659.994zM458.623 123.93c.538-10.752 10.726-19.558 21.402-18.842 7.552 0 15.104 0 22.656-.025 14.464-.026 28.928-.05 43.366.128 10.7.155 19.738 10.063 19.456 20.635.128 7.552.102 15.08.077 22.63-.024 5.99-.05 11.956 0 17.92 5.685.078 11.367.052 17.05.026 8.5-.075 17.024-.127 25.524.23 10.778.59 19.43 10.805 18.817 21.48.05 21.3.077 42.6 0 63.898.563 10.88-8.447 21.043-19.38 21.427-8.216.256-16.435.23-24.652.18-5.785-.026-11.57-.078-17.356 0-.05 5.76-.025 11.52 0 17.28.026 7.782.052 15.59-.102 23.372.077 7.5-4.3 14.848-11.008 18.304-4.66 2.535-9.984 2.535-15.155 2.51-1.152 0-2.33 0-3.456.025-7.987-.102-16-.076-23.987-.025-11.34.05-22.656.076-33.997-.232-10.65-.332-19.712-10.086-19.38-20.736-.127-7.756-.1-15.513-.076-23.296.025-5.734.05-11.468 0-17.203-5.658-.05-11.342-.025-17 0-8.32.026-16.64.077-24.934-.18-10.956-.383-20.096-10.597-19.456-21.53.026-6.91 0-13.797-.025-20.71-.05-15.052-.077-30.105.128-45.132.153-10.8 10.19-19.89 20.838-19.582 7.68-.128 15.337-.102 22.99-.077 5.81 0 11.65.027 17.46-.024.077-5.683.026-11.367 0-17.075-.05-8.447-.102-16.92.205-25.37zm29.798 11.162c-.025 5.324 0 10.65.026 15.974.026 8.294.05 16.59-.102 24.883.18 10.853-9.498 20.555-20.352 20.376-8.192.128-16.384.102-24.576.077-5.48-.026-10.932-.026-16.384 0 0 5.452 0 10.93-.026 16.384v.025c-.026 10.317-.077 20.608.154 30.9 13.568-.154 27.11-.205 40.678-.052 10.906-.28 20.685 9.448 20.506 20.38.153 7.576.128 15.154.102 22.757-.026 6.093-.05 12.186 0 18.28 15.718-.027 31.41-.027 47.104-.027.05-5.734.026-11.47 0-17.203-.026-7.91-.05-15.795.102-23.706-.23-10.903 9.498-20.734 20.43-20.452 8.37-.154 16.767-.128 25.138-.077 5.248 0 10.495.027 15.744 0 .052-15.717.025-31.46.025-47.18l-.024-.025c-5.428-.026-10.88-.026-16.332 0-8.167.025-16.333.05-24.5-.077-10.854.256-20.582-9.395-20.48-20.25-.153-8.32-.128-16.64-.102-24.96.026-5.35.05-10.7.026-16.025-15.72-.026-31.437-.052-47.156 0z"/></svg>