<svg viewBox="0 0 1024.0101 1024" xmlns="http://www.w3.org/2000/svg"><path d="M797.658 16.043c139.008 49.024 225.707 186.41 226.347 358.613 1.323 295.083-258.09 526.25-501.29 644.18L512.047 1024l-10.667-5.163C258.18 900.95-1.317 669.78.006 374.7c.64-172.16 87.34-309.633 226.26-358.657 110.124-38.87 210.39-6.528 285.74 91.093 75.307-97.62 175.53-129.963 285.653-91.093zm-55.082 475.562l19.797-37.248-68.053-43.392-19.798 37.248c-29.91 56.32-87.722 117.035-162.133 114.518-73.9 2.987-130.945-58.24-160.854-114.517l-19.798-37.248-68.096 43.392 19.84 37.248c51.755 97.366 138.326 157.398 225.152 157.398h7.467c88.15 0 174.72-60.032 226.476-157.398z"/></svg>