<svg viewBox="0 0 1024 1024.0012" xmlns="http://www.w3.org/2000/svg"><path d="M512 923.733c-13.227 0-26.027-1.706-36.693-5.546C312.32 862.293 53.333 663.893 53.333 370.773c0-149.333 120.747-270.506 269.227-270.506 72.107 0 139.52 28.16 189.44 78.506 49.92-50.346 117.333-78.506 189.44-78.506 148.48 0 269.227 121.6 269.227 270.506 0 293.547-258.987 491.52-421.974 547.414-10.666 3.84-23.466 5.546-36.693 5.546zM322.56 164.267c-113.067 0-205.227 92.586-205.227 206.506 0 291.414 280.32 453.547 378.88 487.254 7.68 2.56 24.32 2.56 32 0 98.134-33.707 378.88-195.414 378.88-487.254 0-113.92-92.16-206.506-205.226-206.506-64.854 0-125.014 30.293-163.84 82.773-11.947 16.213-39.254 16.213-51.2 0-39.68-52.907-99.414-82.773-164.267-82.773z"/></svg>