<svg viewBox="0 0 1024 1024" xmlns="http://www.w3.org/2000/svg"><path d="M281 1.4c-7 1.8-17.2 10-22.6 18L253 27l-.6 118.4-.6 118.6h-43.4c-42.6 0-43.8.2-53.8 5-6.6 3.4-12.2 8.2-15.8 13.6L133 291v106l5.4 7.6c2.8 4.4 8.6 10.2 13 13l7.6 5.4 46.4.6 46.2.6 1 74.4c1 75 2.2 90.8 10.4 129.2 15.6 74.2 52.2 149.8 101.8 211.6 16.8 20.6 51.4 55.4 72.2 72 86.6 69.6 185.2 107 295 111.8 37.2 1.8 55.2-1.4 82-14.6 15.8-7.8 21.8-12.2 36.2-26.6 14.6-14.4 18.8-20.2 26.4-36 16.4-34 15.6-18.8 14.8-295-.6-221.6-1-245.2-4-258-20.4-83.2-69.2-146.2-140.6-181.8-27.2-13.4-61.6-23.6-86.8-25.6l-7-.6-1-79-1-79-5.8-8.6c-3.2-4.6-9-10.4-13-13-7-4.2-8.8-4.4-60.2-4.4h-53l-7.6 5.4c-4.4 2.8-10.2 8.6-13 13L493 27l-.6 78.8-.6 78.8-13.4-1.2c-20.6-1.6-35.6-8.2-47.6-20.2-16.2-16.6-17.2-21.2-18.6-83.2L411 27l-5.8-8.6c-3.2-4.6-9-10.4-13-13-7-4.2-9.2-4.4-57.2-4.8-27.4-.2-51.8.2-54 .8zm91 81c0 48.8 2.2 63 13 84.8 12.2 24.8 35.2 43.4 65 52.2 9.2 2.8 27.2 3.4 113 4.6 101.2 1.2 102.2 1.4 121.2 6.4 41.2 11.2 74.8 30.2 103 58.8 28.6 28.8 47 61 58.4 102.6L851 411l.6 241.8c.6 264.6 1 252.6-11.2 277.2-7 14.2-28.2 35.4-42.4 42.4-6 3-16.4 6.8-23 8.6-12 3-41.8 4-55.4 1.8l-7.6-1.4v-55.8c0-59.2-1-66.8-9.6-71.4-7.8-4.2-19.4-2.6-25.2 3l-5.2 5.4v56.6c0 54.4-.2 56.8-3.8 56.8-2 0-14-2.6-26.6-5.8C477 928.6 347.4 799.2 305.8 635c-10.8-43.2-12.2-58.2-13.2-137.6l-1-73.4H328c41.8 0 49.6 1.6 60 12 11.2 11.2 12.8 20 11.4 63.6-1.4 40.2-4 56.8-12.4 76.8-7.2 17-7.8 20.6-5 27.8 4.4 10.4 17 14.6 27.8 9 7.8-4 18.8-29.2 24.4-55.4 3.8-17.8 4.4-27.4 4.6-66.8l.2-46-6.4-13.4c-8.2-17.6-22.6-32-40.2-40.2L379 385l-103.4-.6-103.6-.6v-80l107.6.6c115.2.8 111.2.4 140.8 11.6 26.6 10 58 36.4 74.6 63 18.8 29.8 25 56 25 103.6 0 55 5.4 88 18.4 114.8 8.4 17.2 17.8 22.2 30.6 16.2 5.6-2.6 11-11 11-17.2 0-2.2-2.6-9.6-5.8-16.8-7.8-17-12-38.6-13.6-69l-1.2-25.2 7.8 1.4c41 7.6 83.2 45 96.6 86 6.4 19 8.2 36.8 8.2 83.4v43.2l5.2 5.4c4 3.8 7.4 5.2 13.2 5.2 19.2 0 21.6-6.2 21.6-56.4 0-47.6-2.4-69.2-10.2-92.6-18.6-55.4-64.4-97.8-120.8-111.4-9.8-2.2-19.2-4.4-20.4-4.8-1.4-.4-2.6-3.2-2.6-6.2 0-19.8-16.8-63.2-34.2-88.8-19-28.2-53.2-55.8-85.8-69.8-29.4-12.4-42-14.4-96.4-15.4l-49.6-1V40h80v42.4zM612 112v72h-80V40h80v72zm65.2 655.2c-4 4.2-5.2 7.4-5.2 13.8 0 11.6 7.2 19 18.4 19 10.6 0 15.4-3 18.8-11.4 3.6-8.4 1-18.8-5.8-23.6-7.2-5-20-3.8-26.2 2.2z"/></svg>