<svg viewBox="0 0 1024 1024" xmlns="http://www.w3.org/2000/svg"><path d="M241.152 998.946C168.62 952.116 0 812.612 0 529.066v-34.133c0-88.44 32.085-159.266 90.317-199.373 22.255-15.394 39.22-34.065 50.347-55.432 24.302-46.865 49.425-75.196 67.754-91.75-18.33-20.173-37.922-34.27-52.292-42.633-5.018-2.867-9.319-6.827-12.595-11.57-3.276-4.712-5.495-10.105-6.45-15.805-.99-5.734-.683-11.64.887-17.237 1.536-5.598 4.335-10.82 8.124-15.224l27.683-32.086C179.95 6.52 188.587 1.74 198.043.376c1.227-.205 2.422-.308 3.65-.376h3.96c6.895.34 13.62 2.526 19.456 6.35 31.504 20.308 119.67 88.13 163.6 164.863 28.946 2.15 56.832 11.673 81 27.682 24.2 16.043 43.86 37.99 57.104 63.795l51.712-20.787c9.66-3.89 20.378-3.96 30.07-.273 9.73 3.72 17.682 10.923 22.29 20.24l13.278 26.625c2.458 4.915 3.926 10.24 4.3 15.7.376 5.463-.34 10.958-2.08 16.146-1.742 5.156-4.472 9.934-8.022 14.03-3.584 4.096-7.953 7.44-12.834 9.83l-68.847 36.387c15.668 36.147 23.587 74.547 23.587 114.38 0 18.057-.683 36.318-1.775 54.716l44.27-77.346c16.385-28.57 45.16-45.636 76.97-45.636 31.848 0 60.622 17.067 77.006 45.637l234.394 409.327c8.43 14.814 12.868 31.607 12.8 48.64-.068 17.067-4.574 33.792-13.108 48.572-16.042 27.682-43.895 44.476-74.786 45.124H463.565c-20.685-.444-40.585-8.294-56.013-22.187-3.106 1.844-6.246 3.653-9.796 5.496-21.777 10.82-45.773 16.52-70.11 16.69h-2.15c-29.9-.205-59.154-8.875-84.344-25.054zm349.9-725.333v-.034l-153.77 61.917c-14.95 6.075-31.95 4.198-46.592-5.29-6.315-4.302-15.394-6.384-26.18-5.974-22.187.716-40.277 19.865-40.277 42.666v10.75c-.035 17.512-6.998 34.305-19.354 46.696-12.392 12.39-29.185 19.353-46.695 19.353h-21.743c-2.765 10.17-7.988 19.524-15.224 27.17-7.202 7.68-16.213 13.482-26.18 16.86L34.578 541.22c4.778 258.39 158.31 385.912 225.04 429.022 36.216 23.245 84.617 25.566 122.675 6.554 1.536-.785 2.765-1.536 4.2-2.322-7.442-14.404-11.163-30.446-10.856-46.66.342-16.213 4.71-32.085 12.698-46.182l148.617-259.55c6.04-42.77 9.18-85.538 9.18-127.147-.067-33.382-6.757-66.39-19.66-97.143-37.785 25.224-67.07 61.303-83.967 103.492-1.74 4.096-5.052 7.34-9.182 9.046-4.096 1.706-8.738 1.74-12.87.102-4.13-1.673-7.474-4.88-9.283-8.977-1.81-4.062-1.946-8.704-.375-12.868 22.255-55.5 63.01-101.615 115.37-130.526.103-.036.24-.036.308-.07.273-.136.512-.375.75-.512 1.74-.955 3.482-1.877 5.223-2.73l77.55-40.96c.922-.41 1.776-1.024 2.458-1.775.683-.75 1.195-1.604 1.536-2.56.41-1.127.854-3.31-.34-5.7l-13.313-26.625c-.82-1.672-2.22-2.935-3.96-3.583-1.706-.65-3.617-.65-5.324.068zM652.39 489.3h-.068L417.962 898.63c-5.563 9.592-8.498 20.48-8.464 31.574.034 11.093 3.003 21.98 8.635 31.54 10.377 17.85 27.58 28.125 47.173 28.125h468.82c19.594 0 36.797-10.24 47.173-28.126 5.597-9.557 8.567-20.445 8.6-31.538.035-11.094-2.866-21.982-8.43-31.574L747.076 489.3c-10.206-17.85-27.92-28.5-47.343-28.5-19.42 0-37.137 10.65-47.343 28.5zM109.705 323.62C47.24 366.66 34.133 440.525 34.133 494.933v10.48l150.085-50.006c12.322-4.164 20.582-15.7 20.582-28.706V341.37c0-59.392 30.515-111.753 76.698-142.337l-28.23-37.545c-.613-.82-1.466-1.366-2.49-1.536-.99-.172-1.98.033-2.833.58-9.797 6.314-43.896 31.538-76.97 95.333-13.757 26.35-34.34 49.152-61.27 67.755zm385.16-48.094c-11.708-21.435-28.945-39.356-49.97-51.814-21.027-12.425-44.99-18.978-69.428-18.91-75.264 0-136.534 61.27-136.534 136.533V409.6h19.286c17.577 0 31.913-14.336 31.913-31.915v-10.752c0-41.062 32.905-75.503 73.353-76.8 18.432-.785 33.86 3.38 46.114 11.606 2.73 1.808 8.636 4.71 14.882 2.115zM173.227 76.22c23.79 13.824 45.226 31.402 63.42 52.053 7.714-2.935 16.18-3.277 24.098-.99 7.918 2.287 14.882 7.1 19.83 13.688l31.574 42.02c12.048-4.78 24.644-8.193 37.478-10.14-42.906-64.34-117.52-121.377-142.985-137.83-1.092-.75-2.39-1.057-3.686-.853-1.297.205-2.492.888-3.277 1.912l-27.682 32.084c-.546.615-.922 1.332-1.16 2.082-.206.785-.24 1.57-.103 2.39.102.75.375 1.468.82 2.082.443.614.99 1.126 1.672 1.502zm513.5 742.98c-8.976.034-17.577-3.413-23.994-9.626-6.45-6.246-10.206-14.71-10.48-23.688l-7.03-204.05c-.205-4.64.58-9.25 2.218-13.584 1.674-4.335 4.2-8.295 7.442-11.606 6.554-6.758 15.36-10.513 24.815-10.513h40.107c4.608 0 9.216.922 13.482 2.73 4.233 1.776 8.09 4.438 11.3 7.783 3.24 3.31 5.767 7.27 7.44 11.606 1.638 4.335 2.423 8.943 2.252 13.585l-7.03 204.05c-.308 8.942-4.063 17.44-10.48 23.653-6.45 6.247-15.087 9.694-24.03 9.66zm13.006 34.133c28.23 0 51.2 22.972 51.2 51.2 0 28.23-22.97 51.2-51.2 51.2-28.228 0-51.2-22.97-51.2-51.2 0-28.228 22.972-51.2 51.2-51.2zm20.31-272.964v.033l-40.38-.136 6.656 204.458 26.418.342 7.44-204.39c0-.07 0-.17-.135-.308zm-20.31 341.23c4.54 0 8.875-1.81 12.084-4.984 3.174-3.208 4.983-7.543 4.983-12.083s-1.81-8.874-4.983-12.083c-3.21-3.174-7.544-4.983-12.084-4.983-4.505 0-8.874 1.81-12.05 4.983-3.207 3.21-5.016 7.544-5.016 12.083 0 4.54 1.81 8.875 5.017 12.083 3.175 3.175 7.544 4.984 12.05 4.984z"/></svg>