<svg viewBox="0 0 901.9338 1024.0246" xmlns="http://www.w3.org/2000/svg"><path d="M535.932 85.764l-12.654-12.477c-41.042-40.472-107.12-40.01-147.592 1.03l-12.478 12.655c-40.472 41.04-40.01 107.12 1.03 147.59l12.655 12.472c41.04 40.472 107.12 40.018 147.592-1.024l12.477-12.654c40.472-41.04 40.01-107.12-1.03-147.592zM178.15 375.944c47.903 0 86.734-38.832 86.734-86.73 0-47.903-38.83-86.74-86.735-86.74s-86.736 38.837-86.736 86.74c0 47.898 38.83 86.73 86.735 86.73zm550.043-.537c47.904 0 86.735-38.83 86.735-86.735 0-47.904-38.83-86.735-86.735-86.735-47.904 0-86.735 38.83-86.735 86.735s38.83 86.735 86.735 86.735zM429.13 621.235l-1.423-1.967c-.543-.773-1.27-1.112-2.17-1.017L54.32 654.736c-5.473.495-5.948-.813-1.425-3.933 12.75-8.748 27.872-13.495 39.604-25.227 43.468-43.537 49.707-107.418 12.952-156.652-5.56-7.46-14.784-13.562-20.616-21.022-3.48-4.434-2.665-5.45 2.44-3.05 122.698 57.1 237.06 111.642 343.075 163.636 2.49 1.22 3.867.447 4.138-2.306l.136-1.83c.088-.774-.177-1.384-.814-1.832-98.603-65.556-201.565-136.016-308.896-211.378-6.055-4.252-5.445-5.676 1.83-4.272 9.63 1.83 21.702 7.46 31.535 7.798 35.94 1.038 65.983-10.334 90.125-34.11 28.89-28.482 39.38-63.434 31.466-104.84-.542-2.762.523-3.69 3.188-2.782 1.445.495 2.896 2.306 4.34 5.425C343.684 379.65 394.66 491.166 440.32 592.89c.23.494.583.928 1.024 1.246.434.326.95.523 1.485.584l3.12.27c.14.014.283 0 .412-.053.136-.055.25-.143.34-.258.094-.116.162-.252.196-.394.034-.15.034-.306 0-.448-6.598-22.65-13.204-45.368-19.802-68.154-6.51-22.426-31.215-110.497-74.12-264.205-2.578-9.224-4.633-15.53-6.172-18.922-5.107-11.392-3.167-12.776 5.832-4.136 8.544 8.138 16.072 20.005 25.43 26.854 45.843 33.297 105.18 32.958 148.446-3.05 10.037-8.275 19.53-22.72 30.11-31.806 2.17-1.81 3.1-1.316 2.78 1.492-.36 3.614-1.648 7.73-3.865 12.342-2.713 5.56-4.313 9.263-4.815 11.12-25.09 91.55-50.25 183.053-75.477 274.515-1.804 6.685-3.98 13.514-6.51 20.48-4.293 11.84-6.62 18.62-6.986 20.343-8.45 36.484-5.107 37.57 10.036 3.255 22.786-51.722 63.23-140.695 121.32-266.918 11.217-24.413 18.086-40.146 20.616-47.2 1.268-3.485 3.01-5.404 5.222-5.763 2.665-.454 3.824.678 3.458 3.39-6.958 48.46 9.88 86.573 50.522 114.336 18.852 12.837 39.855 19.415 63 19.734 15.055.203 30.584-5.56 45.57-7.324 4.796-.59 5.202.475 1.222 3.187l-313.1 214.837c-.902.63-.97 1.31-.203 2.034l1.288 1.29c.7.705 1.615 1.16 2.612 1.295.99.136 2-.06 2.882-.55 25.546-14.288 46.548-25.32 63-33.093 122.066-57.33 212.26-100.026 270.58-128.1 6.19-2.985 7.073-1.88 2.644 3.32-1.268 1.493-5.764 6.512-13.495 15.056-45.3 49.776-33.636 129.05 20.14 169.062 8.14 6.036 20.48 10.376 29.5 15.733 7.142 4.293 6.58 6.035-1.695 5.222L481.89 617.71c-6.957-.68-7.98 1.287-3.05 5.9 1.22 1.172 3.728 1.938 7.526 2.304 3.303.272 5.812.63 7.528 1.085 40.6 10.212 151.68 38.81 333.24 85.785 13.156 3.39 12.973 5.764-.542 7.12-37.163 3.703-66.052 20.094-86.667 49.166-26.244 37.027-29.093 81.99-7.663 121.863 7.507 13.923 6.598 16.23-2.713 6.918-92.683-92.187-180.544-181.77-263.596-268.75-1.58-1.626-2.733-1.382-3.46.747l-.61 1.628c-.087.27-.046.543.137.814l219.516 308.013c7.955 11.21 6.51 12.545-4.34 4-37.928-29.614-79.248-34.38-123.965-14.308-31.668 14.24-56.42 45.775-62.863 79.75-2.984 15.733-5.805 15.685-8.477-.136-.135-.774.028-3.894.475-9.36.27-3.166.27-6.238 0-9.222-9.718-114.47-18.832-230.638-27.33-348.5-.04-.5-.243-.95-.61-1.356l-1.898-1.83c-.326-.333-.74-.563-1.187-.665-.454-.095-.93-.06-1.356.108-.434.163-.807.455-1.08.828-.27.38-.426.82-.446 1.288-7.053 110.946-15.618 220.622-25.702 329.038-1.288 13.834-.542 28.55-.814 42.655 0 .488-.135.97-.38 1.39-.25.427-.603.773-1.03 1.017-.428.238-.916.36-1.404.36-.488-.007-.97-.143-1.39-.394-1.947-1.132-3.12-2.51-3.527-4.136-7.228-28.754-20.614-50.84-40.145-66.255-47.334-37.434-106.333-34.857-152.786 2.984-.34.256-.747.412-1.174.446-.427.04-.855-.047-1.228-.25-.38-.197-.69-.502-.908-.875-.21-.372-.306-.793-.285-1.22.095-.814.475-1.675 1.153-2.577 34.768-46.792 94.01-129.845 177.742-249.15 12.003-17.158 30.245-38.452 42.858-60.356 5.107-8.863 4.07-9.63-3.12-2.305l-266.646 271.53c-.407.528-1.004.874-1.66.962-.666.095-1.337-.088-1.866-.488-.53-.407-.875-1.004-.963-1.668-.095-.658.08-1.33.488-1.86 23.058-38.972 23.648-77.673 1.764-116.097-22.243-39.108-56.984-59.113-104.23-60.015-1.676 0-2.422-.84-2.24-2.51.09-.908.612-1.49 1.56-1.762 59.5-16.323 181.432-48.264 365.793-95.822 1.356-.365 1.627-1.132.814-2.305zM57.78 605.3c31.914 0 57.778-25.873 57.778-57.78 0-31.913-25.864-57.777-57.778-57.777C25.87 489.743 0 515.606 0 547.52c0 31.907 25.87 57.78 57.778 57.78zm784.75-1.493c31.914 0 57.778-25.872 57.778-57.778 0-31.915-25.864-57.78-57.778-57.78-31.907 0-57.778 25.865-57.778 57.78 0 31.905 25.87 57.777 57.778 57.777zm-719.31 239.86c20.67 0 37.435-16.764 37.435-37.434 0-20.676-16.764-37.433-37.434-37.433-20.678 0-37.435 16.757-37.435 37.433 0 20.67 16.757 37.434 37.434 37.434zm651.767 1.9c20.602 0 37.298-16.704 37.298-37.3 0-20.602-16.696-37.297-37.298-37.297-20.595 0-37.298 16.695-37.298 37.298 0 20.595 16.703 37.298 37.298 37.298zm-450.22 148.167c16.18 0 29.295-13.116 29.295-29.296 0-16.174-13.115-29.296-29.296-29.296-16.18 0-29.296 13.122-29.296 29.296 0 16.18 13.115 29.296 29.296 29.296zm255.863-.678c15.99 0 28.957-12.96 28.957-28.957 0-15.992-12.966-28.958-28.957-28.958-15.99 0-28.957 12.966-28.957 28.957.002 15.996 12.968 28.956 28.958 28.956z"/></svg>