<svg viewBox="0 0 1024 1024.0012" xmlns="http://www.w3.org/2000/svg"><path d="M872.064 231.488c114.624 100.928 136.192 127.36 136.192 362.624 0 421.76-122.048 421.76-484.16 421.76-362.176 0-484.096 0-484.096-421.76 0-235.2 21.504-261.696 136.128-362.496 17.472-15.424 37.248-32.832 59.648-53.568 12.736-10.368 25.216-20.992 38.528-32.32C346.432 84.352 436.288 7.936 522.752 7.936c87.488 0 183.488 80.896 253.568 139.968 12.48 10.496 24.192 20.352 34.88 28.992 23.616 21.888 43.456 39.232 60.864 54.592zM663.68 746.368c19.904 0 36.032-16.128 36.032-35.968 0-19.904-16.128-36.032-36.032-36.032H384.576c-19.904 0-36.032 16.128-36.032 36.032 0 19.84 16.128 35.968 36.032 35.968z"/></svg>