<svg viewBox="0 0 1024 1024" xmlns="http://www.w3.org/2000/svg"><path d="M480 768V640q0-13.26 9.37-22.63T512 608q13.26 0 22.63 9.37T544 640v128q0 13.26-9.37 22.63T512 800q-13.26 0-22.63-9.37T480 768zM409.65 95.334q102.196-81.92 204.7.41l295.73 236.442q74.29 59.8 58.88 154.368l-56.78 339.712Q888.985 962.56 750.95 962.56h-477.9q-138.19 0-161.23-136.397L55.09 486.758q-16.434-94.72 58.88-154.624zm39.988 49.972l-295.68 236.8q-45.772 36.403-35.788 93.696l56.78 339.814q13.978 82.944 98.1 82.944h477.9q84.02 0 98.15-82.995l56.73-339.56q9.37-57.496-35.89-93.95L574.36 145.764q-62.567-50.277-124.672-.46z"/></svg>