<svg viewBox="0 0 1024 1024" xmlns="http://www.w3.org/2000/svg"><path d="M85.333 906.667h853.334q13.27 0 22.613 9.386 9.387 9.344 9.387 22.614 0 13.27-9.387 22.613-9.344 9.387-22.613 9.387H85.333q-13.27 0-22.613-9.387-9.387-9.344-9.387-22.613 0-13.27 9.387-22.614 9.344-9.386 22.613-9.386zm640-853.334Q928 53.333 928 256v682.667q0 13.27-9.387 22.613-9.344 9.387-22.613 9.387H128q-13.27 0-22.613-9.387Q96 951.936 96 938.667V256Q96 53.333 298.667 53.333zm0 64H298.667Q160 117.333 160 256v650.667h704V256q0-138.667-138.667-138.667zM599.893 608q29.995 0 51.03 21.205 21.205 21.376 20.65 50.902v258.56q0 13.27-9.386 22.613-9.344 9.387-22.614 9.387h-256q-13.27 0-22.613-9.387-9.387-9.344-9.387-22.613v-258.56q0-72.107 72.107-72.107zm0 64H423.68q-3.2 0-5.675 2.432-2.432 2.432-2.432 5.675v226.56h192v-226.56q.086-3.67-2.09-5.846-2.262-2.26-5.59-2.26zM544 256v213.333q0 13.27-9.387 22.614-9.344 9.386-22.613 9.386-13.27 0-22.613-9.386Q480 482.603 480 469.333V256q0-13.27 9.387-22.613Q498.73 224 512 224q13.27 0 22.613 9.387Q544 242.73 544 256zm-138.667 74.667h213.334q13.27 0 22.613 9.386 9.387 9.344 9.387 22.614 0 13.27-9.387 22.613-9.344 9.387-22.613 9.387H405.333q-13.27 0-22.613-9.387-9.387-9.344-9.387-22.613 0-13.27 9.387-22.614 9.344-9.386 22.613-9.386z"/></svg>