<svg viewBox="0 0 1024 1024" xmlns="http://www.w3.org/2000/svg"><path d="M298.394 16.538c13.107-9.652 29.388-14.772 45.644-14.54 74.676.024 149.35 0 224.052 0h112c20.94-.334 41.78 8.498 56.038 23.807 13.286 13.9 20.838 32.973 20.838 52.173.052 39.756.052 79.54.026 119.296 0 33.792 0 67.584.026 101.376 34.84.025 69.683.025 104.524.025h.077c34.892 0 69.76-.025 104.626 0 12.263-.128 24.628 3.507 34.51 10.83 13.055 9.343 21.17 24.42 23.244 40.242v10.24c-1.97 18.74-13.286 36.07-29.952 44.954-.282 118.094-.23 236.212-.18 354.305.026 52.147.026 104.294.026 156.44 17.152 9.448 29.005 27.52 30.106 47.182v7.4c-2.15 27.39-26.19 51.2-53.888 51.634-25.498.154-50.995.13-76.467.103h-.05c-18.56-.025-37.12-.025-55.707.026-6.733.588-13.85-2.945-16.205-9.5-3.456-8.037 1.792-18.354 10.47-19.967 4.685-.742 9.447-.665 14.21-.614 1.893.05 3.813.076 5.707.05h113.946c7.936.307 16.026-2.714 21.248-8.832 7.962-8.627 8.883-22.733 2.1-32.307-5.095-7.68-14.31-11.93-23.4-11.545-298.674.026-597.324.026-895.974 0-1.612.026-3.25 0-4.94-.025-8.576-.154-17.588-.282-24.525 5.35-10.803 7.834-13.773 24.166-6.298 35.226 4.94 7.96 14.362 12.492 23.63 12.134h262.117c149.402 0 298.804-.026 448.18.026 8.934-.922 17.612 6.81 16.742 15.974-.307 8.525-8.627 14.925-16.896 14.03-118.682-.052-237.363-.027-356.045-.027-118.68 0-237.363 0-356.045-.025-28.313.486-53.478-23.373-55.91-51.328v-10.266c2.048-18.765 13.568-35.738 30.106-44.8 0-48.64 0-97.28.025-145.92.052-121.574.078-243.15-.127-364.723C12.673 395.47.768 377.038 0 357.198v-7.194c2.432-27.238 26.368-50.713 53.965-51.2 42.317-.205 84.633-.18 126.976-.128h.026c28.672 0 57.344.026 86.016-.025.052-12.596.026-25.19 0-37.76-.025-16.948-.05-33.87.128-50.79-.614-11.367 13.696-19.047 22.938-12.52 7.373 4.327 7.194 13.108 7.04 20.814-.026 1.203-.05 2.38-.05 3.532-.052 147.277-.052 294.58-.027 441.882v245.504c18.766.026 37.53.026 56.32.026 9.37-.026 18.766-.026 28.16-.026.027-23.73.027-47.462 0-71.194-.024-30.003-.024-60.032.078-90.035.026-18.61 11.546-36.377 28.262-44.39 8.04-4.096 17.178-5.325 26.112-5.07 25.677.052 51.38.052 77.056.027 27.034 0 54.068-.026 81.076.076 25.88.256 48.537 23.5 48.332 49.332.128 30.72.103 61.414.103 92.134-.027 23.04-.027 46.08 0 69.12 9.394 0 18.79 0 28.16.026 18.79 0 37.554 0 56.32-.026V611.917c.024-177.97.024-355.943-.027-533.914.59-24.192-20.736-46.13-44.953-45.977-113.383-.077-226.714-.077-340.07 0-23.502-.103-44.52 20.633-44.826 44.108-.18 13.133-.154 26.266-.103 39.4.027 9.548.052 19.096 0 28.645.13 4.966-1.38 10.214-5.426 13.388-6.042 5.3-16.205 4.352-21.146-1.997-3.404-3.813-3.456-9.112-3.48-14.002 0-.563 0-1.1-.027-1.638.104-9.754.078-19.533.052-29.312-.025-11.52-.05-23.066.128-34.586.36-23.296 12.416-45.9 31.284-59.494zm458.624 394.93c-.026 82.1-.026 164.2-.026 246.298v.36c.026 83.71.026 167.448-.026 251.16 39.168.052 78.31.052 117.48.052h.588c29.62-.026 59.212-.026 88.806 0 .026-124.416.026-248.832.026-373.248V411.47H757.018zm-696.884 0v497.844h59.418c49.152.026 98.304.026 147.456-.026-.026-71.116-.026-142.233 0-213.35 0-94.822 0-189.645-.026-284.467H60.134zM411.52 749.98c.026 18.022 0 36.044-.026 54.067-.025 35.123-.076 70.272.18 105.395 33.945-.154 67.89-.128 101.836-.102 33 .025 66.023.05 99.02-.103-.05-27.776-.024-55.577-.024-83.353v-.052c0-25.24 0-50.457-.026-75.673.794-11.24-8.96-21.81-20.275-21.453-53.427-.077-106.855-.077-160.282 0-11.29-.435-21.17 10.035-20.403 21.274zm345.446-421.274c.052 8.883.052 17.74.026 26.624v.026c0 8.704 0 17.408.026 26.112h209.1c18.79 1.664 33.946-19.917 25.575-36.94-4.122-9.985-14.823-16.257-25.523-15.848h-56.602c-50.867-.025-101.734-.025-152.602.026zM30.08 356.044c.128 14.362 13.67 26.37 27.878 25.422 25.805-.026 51.636-.026 77.44 0h.026c43.878.025 87.757.05 131.635-.103-.103-11.673-.078-23.32-.078-34.995.026-5.888.026-11.776.026-17.664-16.384 0-32.768-.026-49.152-.026h-.026c-53.913-.025-107.852-.076-161.74.052-14.31-.18-26.932 13.03-26.01 27.315zm439.552-222.463c5.197-2.56 11.034-2.56 16.69-2.534h1.64c8.166.052 16.307.052 24.473.026 10.547-.026 21.07-.05 31.616.102 13.16-.025 24.86 11.674 24.833 24.832.154 9.037.128 18.074.103 27.136-.026 4.916-.052 9.856-.026 14.797 6.374.102 12.723.076 19.098.05 8.064-.05 16.102-.102 24.166.18 13.107.435 23.962 12.697 23.578 25.676.076 20.762.128 41.524-.026 62.285.384 12.93-10.522 24.987-23.5 25.576-6.938.28-13.876.204-20.814.153-7.552-.052-15.078-.103-22.604.255.18 13.875.23 27.75.025 41.65-.077 9.038-5.453 17.742-13.465 21.94-5.504 3.124-11.98 3.124-18.15 3.124h-1.409c-8.45-.078-16.87-.052-25.294-.027h-.025c-10.11.026-20.223.05-30.335-.102-13.21.103-25.088-11.52-25.088-24.754-.18-8.397-.154-16.82-.103-25.216.026-5.607.052-11.213 0-16.82-6.17-.102-12.364-.076-18.56-.05-8.166.05-16.358.076-24.524-.13-13.108-.51-24.14-12.62-23.732-25.7-.102-20.737-.102-41.473 0-62.21-.41-13.03 10.548-25.138 23.604-25.65 8.192-.256 16.41-.23 24.627-.18 6.194.026 12.415.052 18.61-.025.026-5.223 0-10.47-.026-15.693-.025-8.73-.05-17.46.103-26.19.05-9.496 5.99-18.482 14.515-22.5zm15.232 70.375c-.435 12.85-12.006 23.86-24.806 23.91-8.32.23-16.666.18-25.012.154-5.632-.026-11.264-.052-16.896 0v53.836c5.53.05 11.06.026 16.564 0h.025c8.447-.026 16.895-.077 25.318.154 12.928-.077 24.5 11.212 24.832 24.115.204 8.32.18 16.614.128 24.91v.024c-.026 5.913-.052 11.8.025 17.714 17.946.026 35.943.026 53.914.026.077-5.914.05-11.827.025-17.74v-.026c-.05-8.32-.076-16.64.128-24.96.282-12.903 11.93-24.04 24.78-24.064 8.45-.23 16.897-.18 25.345-.154h.026c5.53.026 11.06.05 16.59 0v-53.862c-5.684-.052-11.367-.026-17.05 0-8.32.05-16.614.076-24.934-.128-12.775-.077-24.32-11.06-24.73-23.885-.23-8.345-.205-16.665-.154-25.01.026-5.965.052-11.93-.025-17.92-17.97 0-35.968 0-53.914.025-.077 5.965-.05 11.93-.025 17.895.05 8.32.076 16.665-.154 24.985zM390.58 460.85c12.287-.306 24.55-.23 36.838-.178 4.89.026 9.804.05 14.694.05 20.07-.076 38.118 17.358 38.682 37.403.256 12.953.204 25.933.153 38.886-.025 3.61-.05 7.195-.05 10.78.05 15.743-10.343 30.82-25.063 36.453-7.04 2.995-14.695 2.92-22.247 2.842-1.843-.026-3.66-.05-5.478-.026-4.89-.052-9.78-.026-14.67 0-7.526.05-15.027.102-22.554-.154-18.97-1.23-35.43-17.92-36.198-36.94-.256-17.332-.23-34.664-.026-51.995.666-18.994 16.973-35.762 35.917-37.12zm.383 30.388c-4.454 1.434-6.835 6.196-6.425 10.676.025 5.222 0 10.42 0 15.64v.027c-.026 10.062-.052 20.148.102 30.21-.05 5.016 4.53 9.343 9.523 9.215 10.163.102 20.3.077 30.464.077h.05c5.12-.026 10.216-.026 15.336-.026 5.325.538 10.83-3.584 10.803-9.165.205-7.756.18-15.512.154-23.295-.052-6.195-.077-12.39.025-18.61-.025-.743-.025-1.51-.025-2.28 0-3.61-.026-7.398-2.714-10.035-3.15-3.302-7.63-3.174-11.955-3.02-1.51.025-2.994.076-4.377 0-5.325.153-10.675.076-16.025 0-8.346-.128-16.666-.23-24.935.588zm187.7-30.336c15.23-.41 30.515-.307 45.772-.18 2.535.027 5.07.052 7.603.052 19.508.64 36.557 17.716 37.274 37.172.23 17.33.282 34.688 0 52.02-.82 19.48-17.97 36.428-37.478 36.99-16.64.206-33.332.154-50.023.052-19.84 0-37.86-17.178-38.604-37.043-.256-17.28-.23-34.61 0-51.89.59-18.87 16.64-35.637 35.456-37.173zm2.073 30.03c-5.17.793-8.27 6.22-7.68 11.186.026 5.453 0 10.906-.026 16.333-.025 9.832-.05 19.636.154 29.44-.077 5.505 5.35 9.678 10.65 9.166 4.25 0 8.5 0 12.774.026 11.06 0 22.093.025 33.126-.077 5.735.23 10.317-5.274 9.703-10.855 0-4.326.025-8.627.025-12.928.026-11.033.052-22.067-.102-33.1.128-5.812-5.606-10.19-11.162-9.447-5.862.05-11.724.026-17.587-.025-9.983-.052-19.94-.128-29.874.28zM138.47 576.74c13.466-.358 26.957-.256 40.448-.18 3.764.027 7.552.027 11.316.052 20.02.052 37.94 17.562 38.45 37.58.206 17.204.257 34.433-.025 51.636-.794 19.917-18.74 37.12-38.682 37.044-1.997 0-3.994.025-5.965.025-14.618.05-29.235.102-43.88-.052-19.455-.486-36.735-17.382-37.605-36.864-.256-17.33-.205-34.688-.026-52.02.64-19.046 16.948-35.916 35.968-37.222zm.308 30.388c-4.43 1.433-6.81 6.22-6.375 10.7v6.324c-.025 12.672-.05 25.344.026 38.04-.59 5.454 3.916 10.907 9.548 10.65 10.905.13 21.81.103 32.716.078h13.16c5.324.588 10.853-3.584 10.802-9.114.23-7.808.18-15.616.154-23.424-.026-6.144-.077-12.262.025-18.406-.025-.768-.025-1.562-.025-2.356 0-3.61 0-7.398-2.714-10.06-3.098-3.277-7.578-3.175-11.878-3.047-1.434.026-2.868.077-4.2-.025-5.4.204-10.828.102-16.23.025-8.37-.128-16.742-.256-25.01.615zm691.89-30.31c14.72-.487 29.492-.36 44.263-.23 2.996.024 6.017.05 9.038.076 19.635.512 36.94 17.766 37.504 37.427.205 17.28.282 34.585-.026 51.865-.87 19.482-18.124 36.43-37.632 36.89-13.824.154-27.673.128-41.523.077-2.738 0-5.452-.026-8.165-.026-19.994.076-38.067-17.153-38.784-37.146-.255-17.255-.23-34.535-.025-51.79.615-18.815 16.615-35.558 35.354-37.145zm1.998 30.028c-4.224.82-7.527 4.94-7.4 9.267-.152 11.47-.1 22.912-.076 34.38.026 3.815.026 7.63.026 11.47-.614 5.273 3.456 10.83 8.986 10.83 7.705.203 15.436.178 23.168.152 6.17-.025 12.34-.077 18.508.026.845-.026 1.74-.026 2.637-.026 3.482.026 7.143.05 9.83-2.457 3.303-2.688 3.303-7.015 3.303-10.932 0-.512 0-.998.026-1.46-.103-6.348-.077-12.696-.052-19.045.026-7.706.052-15.41-.128-23.143.128-5.913-5.862-10.137-11.468-9.37-5.786.078-11.546.026-17.332-.025-10.01-.077-20.044-.153-30.028.333z"/></svg>