<svg viewBox="0 0 1024.0012 1024.0012" xmlns="http://www.w3.org/2000/svg"><path d="M502.63 0h16.973c45.39 1.972 89.907 20.25 123.008 51.43 35.1 32.334 57.14 78.08 60.88 125.62 7.55.026 15.102.026 22.68 0 8.627 0 17.254-.026 25.88.05 20.532.104 40.756 9.268 54.452 24.552 12.468 13.593 19.508 31.923 19.508 50.38.05 30.95.05 61.9.025 92.877v62.437c12.877 0 25.754 0 38.63-.026h37.402c12.11-.485 23.808 6.99 28.928 17.87 3.098 6.04 3.072 12.877 3.02 19.507v3.355c-.357 21.94 0 43.904-.485 65.868-.512 15.514-14.413 28.928-29.876 29.16-15.308.204-30.643.152-45.977.127-10.522-.026-21.07-.05-31.616 0-.05 19.993-.05 39.986 0 59.98 10.498.052 21.02.025 31.515 0h.052c15.462-.025 30.95-.05 46.412.102 15.95.077 30.003 14.54 29.875 30.438.05 21.556-.077 43.162-.23 64.743-.026 3.2-.052 6.4-.052 9.6.256 16.13-13.9 30.695-30.003 30.874-15.745.18-31.464.154-47.182.128-10.138-.025-20.25-.05-30.387-.025-.05 19.712-.05 39.398-.024 59.085 10.7.025 21.402.025 32.103 0 15.333-.026 30.693-.077 46.027.102 16.36.256 30.49 15.386 29.8 31.693-.078 24.627-.104 49.23-.385 73.88-.05 16.36-14.975 30.72-31.36 30.158-14.617.077-29.21.05-43.826.026-10.778 0-21.58-.024-32.36 0V994h56.424c37.145.026 74.316.026 111.488-.05.076-200.73.128-401.46 0-602.19.28-22.68-19.175-43.39-41.882-44.26-12.544-.283-25.088-.23-37.632-.155-10.83.027-21.658.078-32.486-.076-7.066.308-14.03-4.53-15.463-11.57-2.304-8.474 4.48-18.074 13.415-18.177 13.772-.307 27.545-.256 41.318-.205 8.934.026 17.87.077 26.803 0 21.095-.307 42.11 8.68 56.243 24.397 11.956 12.902 18.816 30.08 19.738 47.615v606.31c-1.356 14.515-13.39 26.6-27.826 28.364H28.314C13.875 1022.59 1.766 1010.61 0 996.224V389.58c.82-18.072 8.09-35.813 20.66-48.87 13.67-14.54 33.33-23.218 53.298-23.32 23.348-.078 46.72-.078 70.093-.052h.028c17.638 0 35.277 0 52.915-.026.102-9.14.05-18.278 0-27.417-.077-14.746-.18-29.49.358-44.21 2.203-34.792 31.925-65.153 66.638-68.174 11.57-.64 23.168-.536 34.765-.46 7.245.078 14.49.13 21.734 0 3.687-47.564 25.83-93.362 60.98-125.695C414.13 20.608 457.933 2.56 502.63 0zM227.046 251.956c-.05 157.414-.05 314.828-.05 472.242v269.797h120.96c.025-12.774 0-25.523 0-38.272 0-15.95-.026-31.897 0-47.872-.692-7.474 4.428-15.13 12.006-16.46 8.704-2.1 18.022 5.248 17.868 14.234.18 17.306.154 34.61.128 51.942v.026c-.025 12.134-.05 24.27 0 36.403h119.04c0-88.038 0-176.077-.025-264.115-39.655-.026-79.335-.026-119.015 0-.025 17.613-.025 35.25 0 52.89 0 17.152 0 34.33-.025 51.507.537 6.783-3.456 13.823-10.087 15.948-9.164 3.584-20.198-4.148-19.788-13.978-.18-26.138-.128-52.3-.103-78.464.026-9.165.05-18.33.05-27.494-14.08.587-28.363-9.678-29.77-24.14-.54-12.29-.36-24.603-.18-36.916.025-1.153.025-2.28.05-3.43.077-14.44 13.517-26.65 27.853-25.91 110.695-.048 221.415-.048 332.134 0 11.854-.537 23.22 7.553 26.65 18.894 1.612 6.478 1.46 13.135 1.305 19.79-.05 3.15-.128 6.273 0 9.37-.077 2.2-.026 4.455.026 6.733.153 8.038.332 16.282-4.607 22.99-5.505 8.42-15.668 12.184-25.397 12.44-.026 50.28-.026 100.557-.026 150.81v113.077H796.03c.027-121.268.027-242.56 0-363.853V266.01c0-1.818 0-3.66.027-5.504.076-8.192.153-16.512-2.893-24.218-6.093-16.896-23.143-29.158-41.165-29.184-10.113-.076-20.225-.05-30.337-.025H703.46c-4.555 61.49-40.83 119.345-94.13 150.295-37.298 22.272-82.354 30.925-125.26 24.55-43.34-6.194-84.12-28.057-113.612-60.39-28.8-31.18-46.567-72.166-49.92-114.457-15.488-.027-31.002 0-46.49-.052-24.73-1.716-47.693 20.12-47.002 44.928zm263.988-220.57c-58.138 6.99-110.183 48.384-130.51 103.194-14.36 37.53-13.95 80.486 1.127 117.708 13.98 34.92 40.553 64.59 73.705 82.33 54.476 30.234 126.156 24.422 175.103-14.13 27.546-21.044 48.077-51.15 57.42-84.558 9.293-32.614 7.91-68.122-3.89-99.917-12.647-34.406-37.377-64.205-68.84-82.995-30.923-18.765-68.3-26.368-104.113-21.632zM32.768 376.806c-2.893 7.425-2.842 15.438-2.79 23.322v3.968c.025 84.276.025 168.576.025 252.85v.026c-.025 112.307-.025 224.64.05 336.973 36.942.077 73.883.077 110.824.05h56.114V933.99c-10.162-.025-20.325 0-30.514 0-15.54.052-31.053.078-46.567-.102-15.514-.358-29.26-14.182-29.49-29.696-.31-24.73-.283-49.484-.41-74.24-.744-16.307 13.515-31.54 29.874-31.718 15.053-.154 30.105-.128 45.158-.102 10.65.025 21.3.025 31.95 0v-59.06c-10.47-.05-20.942-.025-31.387 0-15.206.026-30.412.052-45.593-.153-15.923-.41-29.927-14.8-29.645-30.773-.18-24.78-.333-49.536-.333-74.317-.205-15.947 14.03-30.49 30.003-30.59 14.285-.077 28.57-.052 42.855-.052h.025c11.367.025 22.708.025 34.074 0v-59.98c-10.19-.05-20.35-.026-30.54 0-15.41.025-30.797.05-46.182-.13-16.104-.305-30.286-14.846-29.902-31.025-.026-4.096-.05-8.218-.077-12.314-.128-20.61-.256-41.243-.23-61.85-.18-15.924 14.03-30.388 29.952-30.516 14.208-.077 28.44-.05 42.65-.05 11.443.025 22.886.025 34.33 0V347.34h-46.747c-25.395-.024-50.79-.024-76.185.027-18.15 0-35.225 12.44-41.292 29.44zm494.26 353.075C527 817.92 527 905.96 527 993.997h119.04c.024-88.038.024-176.077 0-264.115-39.68-.025-79.36-.025-119.015 0zm-179.073-60.005c-.025 9.985-.025 19.994 0 29.977 109.363.027 218.727.027 328.09 0v-29.978c-109.363-.027-218.727-.027-328.09 0zm478.08-36.684v18.996c0 18.97 0 37.914.025 56.883 10.062-.027 20.122 0 30.183 0 15.795.024 31.565.024 47.36-.104.23-25.216.282-50.457.384-75.7-16.69-.1-33.382-.075-50.073-.075-9.293.026-18.586.026-27.88 0zm0 194.945v75.853h30.464c15.69.025 31.384.025 47.102-.052.23-25.24.307-50.483.333-75.724-17.28-.103-34.586-.103-51.89-.077h-26.012zm0-390.783v18.945c0 18.97 0 37.94.025 56.91 9.73-.027 19.482-.027 29.236 0 16.102.024 32.205.024 48.307-.104.23-25.215.307-50.456.384-75.672-16.59-.127-33.152-.102-49.715-.102h-.05c-9.396.026-18.792.026-28.187.026zm-705.97 390.86c0 25.24.127 50.484.357 75.725 16.922.077 33.844.077 50.765.077h.05c8.577-.025 17.18-.025 25.755-.025v-75.854h-25.676c-17.102-.026-34.177-.026-51.252.077zm-.052-194.942c.077 25.24.18 50.483.384 75.7 16.717.15 33.433.126 50.125.1 8.832 0 17.638-.025 26.47 0V633.19c-9.19.026-18.355.026-27.546 0-16.46 0-32.947-.024-49.433.078zm0-195.84c.102 25.216.153 50.457.384 75.673 17.305.155 34.585.13 51.865.104h.077c8.216-.026 16.433-.026 24.65-.026v-75.83c-8.217 0-16.41 0-24.626-.025-17.434 0-34.893-.025-52.352.103zM485.427 61.466c6.375-1.766 12.954-1.638 19.507-1.485 3.02.08 6.042.13 9.037.028 2.41.077 4.866.025 7.324-.026 7.347-.152 14.822-.306 21.376 3.278 9.06 4.66 14.616 14.694 14.31 24.806.05 10.292.05 20.557.025 30.823 0 9.394-.026 18.79.025 28.16 8.295.05 16.59.024 24.884 0 11.98-.027 23.96-.05 35.942.1 12.595.026 24.09 10.266 25.702 22.733.615 5.888.538 11.853.46 17.792-.05 3.405-.077 6.835 0 10.24-.024 1.587-.024 3.2 0 4.813.077 6.835.154 13.875-3.3 19.942-4.61 8.985-14.568 14.514-24.577 14.335-11.596.103-23.192.077-34.79.077-8.114-.026-16.23-.05-24.32 0-.075 8.422-.05 16.87-.024 25.293v.025c.05 11.853.077 23.706-.154 35.584-.1 13.978-12.722 26.138-26.674 25.908-1.792.025-3.584.05-5.376.05-11.06.13-22.093.23-33.126-.178-13.184-.768-24.5-12.698-24.55-25.96-.206-11.852-.18-23.704-.13-35.583.027-8.37.052-16.766-.024-25.137-8.244-.077-16.487-.05-24.73-.026-12.058.052-24.14.077-36.198-.153-12.493-.256-23.962-10.266-25.575-22.682-.64-5.964-.564-11.954-.487-17.97.052-3.405.078-6.81 0-10.214.026-1.588.026-3.226 0-4.84-.076-6.834-.153-13.823 3.252-19.89 4.403-8.294 13.363-14.08 22.835-14.157 11.98-.153 23.987-.13 35.994-.102 8.32.025 16.615.05 24.91 0 .076-8.27.05-16.538.025-24.832-.026-12.058-.078-24.115.153-36.147.127-11.01 7.884-21.25 18.277-24.603zm11.57 28.518c-.024 8.832 0 17.64 0 26.445v.024c.027 13.107.053 26.24-.05 39.373.307 11.238-9.6 21.273-20.864 21.12-12.953.18-25.907.153-38.86.128-9.063-.026-18.15-.052-27.213 0v.025c0 9.985-.026 19.995 0 29.98h25.78c13.362-.027 26.75-.052 40.14.024 11.417-.46 21.4 9.882 21.043 21.223.077 12.595.05 25.19.025 37.76v.025c0 9.293-.025 18.586 0 27.88h30.004c.025-9.294 0-18.612 0-27.905v-.026c-.026-12.593-.052-25.214.025-37.81-.358-11.314 9.677-21.605 21.07-21.145 13.362-.076 26.75-.05 40.114-.025h25.78v-30.03c-8.883-.026-17.792-.026-26.674 0-13.133.05-26.24.077-39.32-.102-10.753.128-20.584-8.96-20.865-19.764-.23-13.568-.18-27.16-.127-40.73.025-8.83.05-17.638 0-26.47zm-184.55 354.612c3.483-.59 7.04-.615 10.574-.64h.95c19.506.076 39.04.05 58.572.05h.026c23.168-.025 46.336-.05 69.504.078 15.668.153 29.62 14.08 29.824 29.747.18 16.77.128 33.563.103 50.357 0 7.962-.027 15.95-.027 23.936.923 18.893-17.56 34.277-35.94 31.77-20.584-.053-41.166-.027-61.774-.027h-.027c-22.195.027-44.364.027-66.56-.05-16.614.1-31.385-15.26-30.592-31.872.13-24.627.104-49.23.41-73.856.103-14.055 11.24-26.906 24.96-29.49zm5.044 29.44c-.254 25.267-.382 50.534-.305 75.8 9.574 0 19.123.027 28.698.027 35.353.025 70.707.05 106.06-.05.103-25.243.103-50.51 0-75.752-36.915-.1-73.804-.075-110.72-.05-7.91 0-15.82 0-23.73.027zm247.298-28.928c3.994-1.076 8.14-1.1 12.263-1.127.333 0 .666-.023 1-.023 20.25.076 40.5.05 60.75.05h.023c22.426-.025 44.85-.025 67.25.052 16.615-.027 31.18 15.41 30.36 32-.177 24.703-.075 49.407-.433 74.11-.256 15.643-14.26 29.466-29.875 29.62-31.207.128-62.413.103-93.593.077-12.9 0-25.805-.026-38.68-.026-16.256.717-31.463-13.285-31.744-29.592-.154-16.077-.128-32.154-.103-48.256v-.05c.026-8.68.026-17.357.026-26.036-.64-13.952 9.42-27.11 22.758-30.796zm7.27 28.953c-.102 25.244-.102 50.51 0 75.753 44.673.102 89.345.128 133.99-.026.026-2.56.05-5.146.05-7.706.154-22.68.307-45.362.28-68.043-44.773-.052-89.572-.103-134.32.025zm-125.49 358.555c8.345-3.61 19.046 2.355 20.095 11.47.512 7.243.436 14.514.36 21.784-.027 3.403-.078 6.81-.052 10.213.59 7.68-5.222 15.104-12.902 16.025-8.345 1.382-16.973-5.582-16.92-14.132-.283-10.65-.283-21.376-.027-32 .027-5.888 4.02-11.315 9.447-13.363zm119.96.025c9.063-3.993 20.506 3.405 20.327 13.338.025 1.818.052 3.635.102 5.453.154 9.5.333 19.048-.307 28.52-1.28 10.75-15.72 16.18-23.884 9.088-6.298-4.813-6.042-12.646-5.786-20.07.076-2.407.153-4.762 0-6.99.025-1.612-.026-3.353-.078-5.12-.256-9.445-.537-20.428 9.626-24.217z"/></svg>