<svg viewBox="0 0 1024 1024" xmlns="http://www.w3.org/2000/svg"><path d="M492.544 793.728S396.32 724.032 319.36 620.832c-53.28-71.456-96.704-158.752-96.704-249.952 0-170.08 110.848-307.072 288.672-307.072S799.968 200.8 799.968 370.88c0 91.2-43.392 178.496-96.672 249.952-76.96 103.2-173.184 172.896-173.184 172.896-11.2 8.128-26.368 8.128-37.568 0zm18.784-66.432C541.152 703.168 601.12 650.784 652 582.56c45.28-60.704 83.968-134.176 83.968-211.68 0-133.568-84.992-243.072-224.64-243.072-139.648 0-224.672 109.504-224.672 243.072 0 77.504 38.72 150.976 84 211.68 50.88 68.224 110.848 120.608 140.672 144.736zm208.736 21.888c-15.328-8.768-20.64-28.352-11.84-43.68 8.768-15.328 28.352-20.608 43.68-11.84 49.952 28.64 76.384 67.104 76.384 106.144 0 37.664-24.416 74.688-70.944 102.944-56.128 34.08-146.528 57.056-248.672 57.056-102.112 0-192.544-22.976-248.672-57.056-46.528-28.256-70.912-65.28-70.912-102.944 0-40.832 29.216-81.184 83.872-110.272 15.584-8.32 34.976-2.4 43.264 13.216 8.32 15.584 2.368 34.976-13.216 43.264-16.704 8.896-30.304 18.784-39.52 29.888-6.304 7.52-10.4 15.392-10.4 23.904 0 18.912 16.768 34.048 40.128 48.224 48.544 29.472 127.104 47.776 215.456 47.776 88.352 0 166.912-18.304 215.488-47.776 23.328-14.176 40.128-29.312 40.128-48.224 0-20.064-18.528-35.904-44.224-50.624zM479.968 319.808v-64c.032-17.664 14.368-32 32.032-32 17.664 0 32 14.368 31.968 32v64h64c17.664 0 32 14.336 32 32s-14.336 32-32 32h-64l-.032 64c0 17.664-14.336 32-32 32s-32-14.336-32-32l.032-64h-64c-17.632 0-32-14.336-32-32s14.368-32 32-32z"/></svg>