<svg viewBox="0 0 1024 1024" xmlns="http://www.w3.org/2000/svg"><path d="M591.126 348.327H552.36s-7.066.383-7.066-5.077v-40.753c0-18.382-14.896-33.285-33.283-33.285-18.38 0-33.282 14.903-33.282 33.285v38.153c0 8.06-8.276 7.68-8.276 7.68h-37.554c-18.382 0-33.283 14.9-33.283 33.283 0 18.382 14.9 33.283 33.283 33.283h38.595s7.237-.658 7.237 7.146v38.69c0 18.38 14.9 33.282 33.284 33.282 18.38 0 33.285-14.903 33.285-33.283v-39.21c0-6.5 8.37-6.624 8.37-6.624h37.467c18.38 0 33.29-14.9 33.29-33.283 0-18.382-14.913-33.286-33.3-33.286zM512.006 0C304.775 0 136.18 168.59 136.18 375.818c0 158.54 91.568 323.04 168.383 433.12 38.54 55.22 82.182 108.965 122.886 151.31C488.73 1024 505.635 1024 512 1024c6.58 0 20.28 0 80.912-63.83 41.13-43.3 84.867-96.97 123.154-151.138 78.358-110.843 171.75-275.98 171.75-433.214C887.822 168.59 719.23 0 512.005 0zm0 647.373c-145.712 0-263.83-118.12-263.83-263.827 0-145.706 118.118-263.826 263.83-263.826 145.708 0 263.823 118.12 263.823 263.826 0 145.706-118.116 263.827-263.825 263.827z"/></svg>