<svg viewBox="0 0 1024 1024.0012" xmlns="http://www.w3.org/2000/svg"><path d="M85.333 917.333h853.334q8.846 0 15.075 6.258Q960 929.82 960 938.67q0 8.846-6.258 15.075-6.23 6.258-15.075 6.258H85.333q-8.846 0-15.075-6.257Q64 947.513 64 938.667q0-8.847 6.258-15.076 6.23-6.256 15.075-6.256zm19.23 21.248l2.132-513.28q0-51.2 40.932-83.624l298.81-232.647q65.136-50.66 131.042-.087l298.78 232.192q41.1 31.858 41.1 84.253v513.28h-42.666v-513.28q0-31.488-24.604-50.575l-298.58-232.02q-39.766-30.493-78.85-.086l-298.55 232.42q-24.746 19.597-24.746 50.345l-2.134 513.28zM661.333 448q85.333 0 85.333 85.333v405.334q0 8.846-6.258 15.075Q734.18 960 725.332 960H298.667q-8.847 0-15.076-6.258-6.256-6.23-6.256-15.075V533.333q0-85.333 85.334-85.333zm0 42.667H362.666q-42.667 0-42.667 42.666v384h384v-384q0-42.666-42.667-42.666zM448 693.333v64q0 8.847-6.258 15.076-6.23 6.256-15.075 6.256-8.847 0-15.076-6.258-6.256-6.23-6.256-15.077v-64q0-8.845 6.258-15.074Q417.82 672 426.668 672q8.846 0 15.075 6.258 6.258 6.23 6.258 15.075zm0-394.666h128q8.846 0 15.076 6.257 6.257 6.23 6.257 15.076t-6.257 15.076q-6.23 6.257-15.076 6.257H448q-8.846 0-15.076-6.257-6.257-6.23-6.257-15.076t6.257-15.076q6.23-6.257 15.076-6.257z"/></svg>