<svg viewBox="0 0 1024 1024" xmlns="http://www.w3.org/2000/svg"><path d="M958.293 56.448c-2.005-1.152-4.266-1.792-6.613-1.792-2.347 0-4.608.597-6.656 1.75l-172.33 98.175c-2.05 1.196-3.713 2.86-4.907 4.908-1.195 2.005-1.792 4.31-1.792 6.656V542.42c-29.227-36.564-67.67-65.407-111.83-82.9V223.488c0-2.347-.64-4.65-1.792-6.656-1.152-2.005-2.816-3.712-4.82-4.864-2.05-1.152-4.31-1.792-6.657-1.792-2.304 0-4.608.597-6.613 1.75L461.91 310.1c-2.006 1.153-3.713 2.86-4.907 4.865-1.152 2.048-1.792 4.352-1.792 6.7V459.52c-44.16 17.493-82.645 46.336-111.83 82.9V379.01c0-2.347-.64-4.65-1.79-6.656-1.153-2.005-2.817-3.712-4.822-4.864-2.005-1.152-4.31-1.792-6.656-1.792-2.304 0-4.608.597-6.613 1.75L151.167 465.62c-2.048 1.153-3.755 2.86-4.95 4.865-1.15 2.048-1.79 4.352-1.79 6.7v433.834c0 3.54 1.407 6.91 3.924 9.428 2.475 2.475 5.845 3.883 9.387 3.883h172.33c3.54 0 6.91-1.407 9.43-3.882 2.473-2.517 3.88-5.888 3.88-9.43v-31.573c49.58 62.038 125.868 101.888 211.287 101.888 85.46 0 161.75-39.85 211.328-101.888v31.574c0 3.54 1.408 6.91 3.882 9.428 2.518 2.475 5.888 3.883 9.43 3.883h172.33c3.5 0 6.912-1.407 9.387-3.882 2.517-2.517 3.925-5.888 3.925-9.43V67.97c0-2.347-.64-4.608-1.793-6.656-1.152-2.005-2.816-3.67-4.864-4.864zm-476.458 272.94l145.706-83.03v204.16c-23.72-6.657-48.212-9.985-72.873-9.985-24.62 0-49.152 3.328-72.832 9.984v-121.13zm-165.078 568.32H171.05v-412.8l145.707-83.03v180.65c-20.693 38.23-32.47 81.963-32.47 128.427 0 46.42 11.777 90.154 32.47 128.384v58.367zm237.91 57.044c-134.4 0-243.798-109.397-243.798-243.797 0-134.443 109.397-243.798 243.797-243.798 134.442 0 243.797 109.355 243.797 243.798 0 134.4-109.355 243.797-243.797 243.797zm383.658-57.045h-145.75V839.34c20.737-38.23 32.513-81.964 32.513-128.385 0-46.464-11.776-90.198-32.512-128.427v-408.66l145.75-83.03v806.87zM554.667 503.85c-114.176 0-207.062 92.886-207.062 207.105 0 114.176 92.886 207.06 207.062 207.06 114.218 0 207.104-92.884 207.104-207.06 0-114.22-92.885-207.104-207.103-207.104zm0 387.585c-99.5 0-180.48-80.982-180.48-180.48 0-99.542 80.98-180.523 180.48-180.523 99.54 0 180.522 80.98 180.522 180.523 0 99.498-80.982 180.48-180.523 180.48zm65.408-133.12c0 28.757-22.272 52.82-51.84 58.538l.34 14.635c.086 1.75-.255 3.5-.852 5.12-.64 1.62-1.58 3.115-2.774 4.395-1.238 1.237-2.69 2.26-4.267 2.986-1.58.682-3.328 1.066-5.078 1.11h-.298c-3.5 0-6.827-1.324-9.302-3.756-2.474-2.432-3.925-5.76-4.01-9.216l-.342-15.06c-17.664-3.116-28.928-12.417-39.68-22.53-2.56-2.43-4.096-5.802-4.18-9.3-.086-3.542 1.194-6.955 3.626-9.515 2.43-2.56 5.76-4.054 9.3-4.182 3.5-.084 6.955 1.196 9.515 3.628 12.202 11.563 19.712 16.384 34.432 16.384 21.418 0 38.826-14.933 38.826-33.237 0-18.304-17.408-33.238-38.826-33.238-36.054 0-65.408-26.837-65.408-59.818 0-28.76 22.313-52.823 51.88-58.54l-.383-16.34c-.085-3.543 1.238-6.956 3.67-9.516 2.432-2.517 5.802-4.01 9.3-4.096 7.34-.17 13.44 5.632 13.654 12.97l.385 17.323c16.043 3.543 35.627 12.76 44.246 25.857 1.92 2.944 2.56 6.528 1.835 9.984-.725 3.415-2.773 6.4-5.717 8.364-2.944 1.92-6.485 2.603-9.94 1.92-3.415-.725-6.444-2.73-8.407-5.632-4.48-6.827-24.148-15.53-35.113-15.53-21.376 0-38.784 14.933-38.784 33.237 0 18.303 17.408 33.236 38.784 33.236 36.053 0 65.408 26.837 65.408 59.82zm88.49-656.17L104.96 428.202c-1.536.853-3.243 1.365-4.95 1.536-1.75.17-3.498 0-5.162-.47-1.707-.513-3.243-1.323-4.608-2.433-1.365-1.11-2.475-2.474-3.328-4.01-.81-1.536-1.323-3.2-1.493-4.95-.215-1.75-.044-3.498.468-5.162.512-1.664 1.323-3.243 2.432-4.608 1.11-1.366 2.475-2.475 4.01-3.286L690.817 81.537l-54.87-12.63c-3.413-.81-6.357-2.943-8.19-5.93-1.88-2.987-2.476-6.57-1.665-9.984.77-3.413 2.86-6.4 5.846-8.277 2.944-1.878 6.528-2.475 9.984-1.75l89.216 20.523c3.413.81 6.4 2.944 8.277 5.93 1.878 2.987 2.475 6.57 1.664 10.027l-20.522 89.216c-.342 1.708-1.067 3.33-2.09 4.78-1.025 1.45-2.305 2.645-3.798 3.584-1.45.94-3.115 1.58-4.864 1.877-1.707.3-3.5.257-5.206-.127-1.706-.426-3.328-1.152-4.736-2.176-1.45-1.024-2.644-2.304-3.583-3.797-.938-1.493-1.536-3.157-1.834-4.907-.256-1.706-.214-3.498.213-5.205l13.91-60.544z"/></svg>