<svg viewBox="0 0 1024 1024.0012" xmlns="http://www.w3.org/2000/svg"><path d="M646.7 162.133l10.24 10.283 19.924 19.883 60.33 60.37 45.27-45.27-14.25-14.25q-5.89-5.887-7.04-14.08-2.134-15.786 12.03-22.826 14.167-7.04 25.345 4.14l61.097 61.055q11.22 11.22 4.14 25.43-7.084 14.164-22.743 11.99-8.277-1.154-14.165-7.04l-14.25-14.253-45.27 45.27 60.33 60.33.042.043 19.883 19.84 10.283 10.283q6.228 6.23 6.228 15.104 0 8.832-6.23 15.062-6.27 6.27-15.103 6.27-8.832 0-15.104-6.27l-10.24-10.285-4.82-4.78L676.905 524.16l-.043.043-165.93 165.93q-36.95 36.95-73.9 13.526l-1.535 1.534q-25.004 25.002-60.332 25.002-35.37 0-60.33-25.002-25.003-25.003-25.003-60.33 0-35.33 25.002-60.332l1.494-1.536q-23.38-36.95 13.57-73.898l165.93-165.932L631.593 207.4l-4.822-4.82-10.24-10.28q-6.272-6.23-6.272-15.064 0-8.832 6.273-15.104 6.23-6.23 15.062-6.23 8.832 0 15.104 6.23zM631.594 509.1l-120.66-120.664-150.87 150.827q-15.06 15.104 0 30.165l90.54 90.495v.043q15.06 15.06 30.164 0l150.827-150.87zm90.538-211.2l-60.373-60.332-120.66 120.66 120.66 120.705L782.463 358.23l-60.33-60.33zm-316.8 377.13l-60.33-60.33Q332.5 627.2 332.5 644.863t12.503 30.165q12.5 12.5 30.165 12.5 17.664 0 30.165-12.5zm-214.4 123.903L314.837 675.03q6.23-6.23 15.062-6.23 8.872 0 15.102 6.23t6.23 15.103q0 8.832-6.23 15.062L221.1 829.1q-6.23 6.228-15.063 6.228-8.832 0-15.104-6.23-6.23-6.23-6.23-15.103 0-8.832 6.23-15.062zm304.896-154.07L465.663 614.7q-6.23-6.273-6.23-15.105t6.23-15.062q6.23-6.272 15.104-6.272 8.832 0 15.06 6.274l30.167 30.166q6.272 6.228 6.272 15.06 0 8.875-6.272 15.104-6.23 6.23-15.062 6.23-8.832 0-15.104-6.23zm45.27-45.268L510.93 569.43q-6.27-6.23-6.27-15.063 0-8.875 6.272-15.104 6.23-6.23 15.062-6.23 8.832 0 15.104 6.23l30.164 30.165q6.23 6.27 6.23 15.103t-6.23 15.063q-6.272 6.272-15.104 6.272-8.832 0-15.06-6.272zm45.225-45.227l-30.165-30.165q-6.23-6.272-6.23-15.104 0-8.834 6.23-15.106 6.272-6.23 15.104-6.23 8.832 0 15.06 6.23l30.167 30.208q6.272 6.23 6.272 15.06 0 8.833-6.272 15.105-6.23 6.23-15.06 6.23-8.833 0-15.105-6.23z"/></svg>