<svg viewBox="0 0 1023.9992 1024.0012" xmlns="http://www.w3.org/2000/svg"><path d="M384 970.666Q53.333 970.666 53.333 640V384Q53.333 53.334 384 53.334h256q330.666 0 330.666 330.666v256q0 330.666-330.667 330.666zm0-64h256q146.73 0 206.72-59.947 59.946-59.99 59.946-206.72V384q0-266.666-266.667-266.666H384q-266.667 0-266.667 266.666v256q0 146.73 59.947 206.72 59.99 59.946 206.72 59.946zm128-213.333q-75.093 0-128.213-53.12-53.12-53.12-53.12-128.213 0-75.093 53.12-128.213 53.12-53.12 128.213-53.12 75.092 0 128.212 53.12 53.12 53.12 53.12 128.213 0 75.093-53.12 128.213-53.12 53.12-128.212 53.12zm0-64q117.332 0 117.332-117.333T512 394.667q-117.333 0-117.333 117.333T512 629.333zM752.47 256h.51q17.664 0 30.166 12.502 12.5 12.5 12.5 30.165 0 17.664-12.5 30.165-12.502 12.502-30.166 12.502h-.51q-17.665 0-30.166-12.502-12.5-12.5-12.5-30.165 0-17.664 12.5-30.165Q734.804 256 752.47 256z"/></svg>