<svg viewBox="0 0 1024 1024" xmlns="http://www.w3.org/2000/svg"><path d="M511.972 75.093c-118.642 0-133.52.512-180.14 2.646-46.506 2.104-78.25 9.5-106.04 20.308-28.73 11.15-53.106 26.084-77.397 50.375-24.292 24.292-39.225 48.67-50.375 77.397-10.81 27.79-18.205 59.535-20.31 106.04-2.133 46.622-2.645 61.498-2.645 180.14 0 118.67.512 133.547 2.645 180.14 2.105 46.505 9.5 78.25 20.31 106.04 11.15 28.757 26.083 53.105 50.375 77.397 24.29 24.29 48.668 39.225 77.397 50.403 27.79 10.78 59.534 18.176 106.04 20.31 46.62 2.105 61.498 2.617 180.14 2.617 118.67 0 133.546-.512 180.138-2.617 46.507-2.134 78.25-9.53 106.04-20.31 28.73-11.178 53.107-26.112 77.398-50.403 24.292-24.292 39.225-48.64 50.404-77.397 10.78-27.79 18.176-59.535 20.31-106.04 2.104-46.593 2.616-61.47 2.616-180.14 0-118.642-.512-133.518-2.617-180.14-2.132-46.505-9.528-78.25-20.308-106.04-11.18-28.728-26.112-53.105-50.404-77.397-24.29-24.29-48.668-39.225-77.397-50.375-27.79-10.81-59.533-18.204-106.04-20.31-46.592-2.133-61.468-2.645-180.138-2.645zm0 78.735c116.65 0 130.474.426 176.554 2.53 42.582 1.964 65.735 9.075 81.124 15.048 20.394 7.936 34.958 17.408 50.233 32.683 15.303 15.302 24.746 29.837 32.682 50.232 5.974 15.388 13.113 38.542 15.047 81.123 2.105 46.08 2.532 59.904 2.532 176.555 0 116.65-.427 130.475-2.532 176.555-1.934 42.58-9.073 65.735-15.047 81.123-7.936 20.395-17.38 34.958-32.682 50.233-15.275 15.304-29.84 24.748-50.233 32.684-15.39 5.973-38.542 13.113-81.124 15.047-46.08 2.106-59.875 2.56-176.554 2.56-116.65 0-130.475-.454-176.555-2.56-42.58-1.933-65.735-9.073-81.124-15.046-20.394-7.936-34.93-17.38-50.233-32.683-15.274-15.274-24.746-29.837-32.682-50.232-5.974-15.388-13.085-38.542-15.047-81.123-2.104-46.08-2.53-59.904-2.53-176.555 0-116.65.426-130.475 2.53-176.555 1.963-42.58 9.074-65.735 15.048-81.123 7.936-20.395 17.408-34.93 32.682-50.233 15.304-15.276 29.84-24.748 50.233-32.684 15.39-5.973 38.543-13.084 81.124-15.047 46.08-2.106 59.904-2.532 176.555-2.532zM512 657.636c-80.44 0-145.636-65.195-145.636-145.636 0-80.412 65.195-145.636 145.636-145.636 80.44 0 145.636 65.224 145.636 145.636 0 80.44-65.195 145.636-145.636 145.636zm0-369.977c-123.904 0-224.37 100.436-224.37 224.34 0 123.932 100.466 224.37 224.37 224.37 123.904 0 224.34-100.438 224.34-224.37 0-123.904-100.436-224.34-224.34-224.34zm285.64-8.876c0 28.956-23.468 52.423-52.424 52.423s-52.452-23.467-52.452-52.423c0-28.956 23.496-52.423 52.452-52.423s52.423 23.468 52.423 52.424z"/></svg>