<svg viewBox="0 0 1024 1024" xmlns="http://www.w3.org/2000/svg"><path d="M788.82 788.82Q703.53 874.156 591.916 896h-159.83q-111.616-21.845-196.95-107.18Q149.846 703.53 128 591.958V432.043Q149.845 320.47 235.136 235.18 320.47 149.844 432.086 128H591.87q111.616 21.845 196.95 107.18Q874.154 320.51 896 432.17v159.66q-21.845 111.658-107.18 196.99zm-19.327-19.284Q876.203 662.87 876.203 512q0-150.87-106.71-257.536Q662.827 147.797 512 147.797q-150.87 0-257.536 106.667Q147.797 361.13 147.797 512q0 150.87 106.667 257.536Q361.13 876.203 512 876.203q150.827 0 257.493-106.667zM357.42 589.226c-27.35-92.373-9.6-160.383 53.332-203.99 74.112-47.06 148.31-48.852 222.55 15.404 46.506 59.52 55.125 121.984 25.855 187.477L511.573 515.5zm-154.412 93.825h.043l168.918-82.474 81.28-6.74-20.14 36.99 52.055-35.285-1.707 45.356 30.25-50.432 20.182 58.795 11.733-55.425 43.692 41.984-16.81-40.28 53.76 3.33 179.583 84.01-341.034 21.845-75.605-50.39-157.91 67.2zm40.064 55.254L380.8 676.14l246.997 161.28c-143.957 33.577-276.65 19.625-384.725-99.116zM794.07 706.39v.042c-34.177 54.272-81.793 95.147-142.806 122.624L489.984 723.2zM741.63 259.03c32.597 29.013 59.733 64.17 79.53 103.85L686.55 425.77c-11.01-21.034-25.643-39.807-43.05-55.466zM166.784 514.943c.17-46.592 9.813-91.392 27.136-132.352l133.376 66.304c-7.424 20.096-11.605 41.643-11.99 63.915l-148.522 2.177zm316.63-342.57v.042c33.877-2.816 67.03-.597 98.773 6.06l-40.79 143.444c-14.805-2.26-30.122-2.816-45.696-1.536-6.143.512-12.16 1.323-18.132 2.39l-28.16-145.835c11.18-2.092 22.485-3.585 34.005-4.567zm372.735 371.2c-3.542 44.5-15.574 86.91-34.69 125.44l-133.417-65.025c9.856-19.713 16.512-41.174 19.242-63.702zM832.255 387.54c12.63 31.32 20.864 64.983 23.765 100.31.812 9.686 1.196 19.243 1.153 28.758l-148.48-3.285c-.085-4.352-.298-8.747-.682-13.142-1.45-17.364-5.12-33.96-10.71-49.663l134.913-62.976zM205.44 358.145c20.18-38.997 47.66-73.813 80.768-102.57l89.813 118.87c-15.06 14.463-27.817 31.273-37.673 49.748zm101.845-119.467c34.176-25.3 73.26-44.5 115.755-55.85L451.328 329.3c-19.797 6.4-38.187 15.916-54.613 27.82zM200.065 664.15c-17.366-36.48-28.588-76.587-32.086-119.126-.087-1.024-.172-2.048-.215-3.072l148.95-2.176c2.432 20.565 8.02 40.064 16.256 58.027L200.108 664.15zm408.362-479.147c40.917 11.99 78.933 31.445 112.34 56.832L622.166 353.62c-16.554-11.22-34.858-19.967-54.314-25.77z"/></svg>