<svg viewBox="0 0 1024 1024" xmlns="http://www.w3.org/2000/svg"><path d="M513.664 153.003l358.87 358.87c.34.298.51.724.51 1.15 0 .428-.17.854-.51 1.153l-358.827 358.87c-.342.298-.726.47-1.195.47-.427 0-.81-.172-1.152-.47l-358.87-358.87c-.298-.3-.47-.683-.47-1.152 0-.427.172-.853.47-1.152l358.87-358.87c.3-.298.725-.47 1.152-.47.427 0 .853.172 1.152.47zm178.432 182.442c0-.512-.17-.98-.555-1.322-.34-.342-.81-.512-1.28-.512H334.977c-.512 0-.98.17-1.323.513-.34.34-.554.81-.554 1.322V690.73c0 .513.212.982.553 1.323.342.342.81.555 1.323.555H690.26c.47 0 .94-.213 1.28-.555.385-.34.556-.81.556-1.322zM389.76 634.965c-17.45-17.365-30.42-37.59-38.955-60.672-7.168-19.328-10.794-38.826-10.922-58.453-.043-4.78.042-8.79.298-12.075 2.476-35.456 14.465-67.157 35.97-95.06 2.047-2.69 4.65-5.76 7.722-9.217 17.152-19.03 37.547-33.536 61.227-43.563 20.265-8.533 41.556-12.97 63.913-13.27 33.152-.426 63.744 7.852 91.82 24.918l.042.043.042.085v.044l-.042.085-.214.17c-.04.085-.127.128-.212.128-.085.043-.213 0-.3-.043-11.177-6.144-22.655-10.794-34.388-13.952-24.32-6.528-48.853-6.997-73.6-1.365-17.45 3.968-33.62 10.923-48.512 20.864-8.363 5.59-16.17 11.904-23.38 18.987-26.412 25.94-42.284 61.78-44.204 98.516-1.11 21.333 2.048 41.77 9.43 61.312 6.485 17.024 15.743 32.47 27.775 46.336 1.11 1.28 3.157 3.54 6.1 6.784.13.128.17.256.17.427 0 .17-.04.34-.17.47-.213.212-.554.596-1.11 1.15-4.265 4.396-13.353 13.526-27.22 27.35-.384.427-.81.427-1.28 0zm213.29-212.352c.214-.34.385-.554.427-.597 13.014-13.056 22.443-22.485 28.288-28.245.128-.127.3-.213.47-.213.128 0 .298.043.426.128.983.768 2.05 1.707 3.116 2.902 13.91 15.018 24.832 31.744 32.853 50.133 8.703 20.01 13.31 40.747 13.78 62.293.086 4.31.086 8.32-.042 12.032-.64 19.03-4.267 37.248-10.88 54.656-7.21 18.903-17.28 35.84-30.25 50.817-13.74 15.872-29.782 28.843-48.13 38.912-18.473 10.11-37.887 16.47-58.324 19.114-6.357.768-12.885 1.323-19.584 1.536-5.035.17-10.624.043-16.725-.384-25.558-1.835-49.238-8.79-71.083-20.992-1.067-.555-2.432-1.365-4.14-2.39-.17-.127-.255-.298-.17-.554l.086-.213c0-.043.043-.086.085-.128 0-.044.043-.044.086-.087h.255c11.818 6.315 24.02 11.094 36.65 14.336 7.296 1.877 15.104 3.157 23.467 3.797 17.707 1.365 35.285-.3 52.736-5.035 30.72-8.363 57.557-26.368 77.013-50.73 18.305-22.913 29.1-48.982 32.47-78.21.982-8.703 1.195-17.407.598-26.025-.427-5.846-1.45-12.928-3.157-21.248-5.12-25.388-17.066-48.727-34.218-68.225-2.304-2.603-4.352-4.822-6.06-6.656-.084-.13-.127-.215-.17-.343 0-.128.043-.256.13-.384zm-36.65-4.48c-9.13-4.053-18.22-6.954-27.264-8.832-2.86-.553-6.315-.937-10.283-1.065-3.882-.17-7.38-.214-10.41-.086-14.038.426-27.136 3.84-39.296 10.11-21.632 11.265-38.528 30.593-46.507 53.676-5.973 17.365-6.955 35.03-2.944 52.907 3.2 14.08 9.387 26.71 18.56 37.93 2.73 3.328 4.95 5.93 6.613 7.894.042.085.085.17.085.256 0 .085-.043.128-.128.213l-21.035 21.035c-.512.555-1.067.555-1.58 0-13.396-13.95-22.74-30.378-28.073-49.28-2.092-7.338-3.287-15.487-3.585-24.362-.768-23.808 5.162-45.44 17.834-64.896 9.685-14.933 23.167-27.69 38.87-36.352 21.844-12.032 45.268-16.34 70.27-12.97 13.526 1.834 26.454 6.314 38.827 13.44.043.042.043.085.086.17l.042.128v.043l-.042.043zm-77.867 205.312c-12.074-2.474-23.466-6.912-34.09-13.44-.086-.042-.128-.128-.086-.213l.043-.256c.043-.128.128-.17.256-.085 7.253 3.755 14.72 6.614 22.315 8.577 8.49 2.218 17.494 2.944 26.283 2.773 13.61-.3 26.454-3.456 38.57-9.515 27.094-13.525 46.21-38.314 51.84-68.224 1.836-9.812 2.134-19.455.897-28.927-2.09-15.914-7.51-30.72-17.024-43.648-2.39-3.285-5.42-7.168-9.045-11.605-.255-.3-.34-.64-.34-.98 0-.343.17-.684.426-.94 9.856-9.9 16.597-16.64 20.18-20.18.727-.727 1.41-.64 2.135.17 5.76 6.357 10.667 12.885 14.806 19.626 11.392 18.517 16.853 38.7 16.427 60.587-.256 12.97-2.646 25.216-7.126 36.778-1.28 3.244-2.944 6.913-4.95 10.967-10.708 21.418-26.922 37.674-48.596 48.725-15.487 7.936-32.042 11.904-49.535 11.904-8.62 0-16.427-.683-23.382-2.09zm24.064-82.304c-26.58 0-48.128-21.545-48.128-48.127 0-26.58 21.546-48.128 48.127-48.128 26.582 0 48.128 21.547 48.128 48.128 0 26.582-21.546 48.128-48.128 48.128z"/></svg>