<svg viewBox="0 0 1024 1024.0001" xmlns="http://www.w3.org/2000/svg"><path d="M149.39 361.246V152.698c0-.835.33-1.637.92-2.228.587-.59 1.385-.923 2.216-.923l209.19.015c.314 0 .58-.11.8-.33L511.6.15c.105-.1.243-.153.387-.15.145.003.28.063.382.165 47.074 47.18 94.255 94.376 141.54 141.588 3.5 3.492 6.167 5.96 7.997 7.4.304.256.693.394 1.098.394l209.49.015c.92 0 1.378.455 1.378 1.364l-.03 209.662c0 .357.07.712.21 1.042.142.333.346.634.605.887l149.162 149.146c.034.034.062.074.08.12.02.043.03.09.03.14 0 .047-.01.094-.03.14-.018.044-.046.085-.08.118-47.714 47.36-96.634 96.217-146.763 146.575-1.804 1.82-3.2 4.218-3.2 6.837.012 66.25.012 135.44 0 207.576 0 .585-.293.878-.877.878l-209.677-.016c-.523 0-.988.173-1.396.518-3.325 2.833-6.52 5.786-9.58 8.86-46.658 46.626-93.264 93.242-139.817 139.847-.314.314-.64.32-.973.016-4.464-3.97-8.635-7.898-12.513-11.776C456.84 969.342 413.78 926.28 369.84 882.31c-2.71-2.717-5.54-5.31-8.5-7.778-.397-.334-.857-.502-1.38-.502l-209.786.016c-.21 0-.408-.083-.554-.23-.147-.146-.23-.345-.23-.554V662.676c0-.258-.05-.513-.15-.75-.1-.237-.247-.452-.43-.63L.4 512.95c-.533-.534-.533-1.068 0-1.6l148.19-148.16c.533-.543.8-1.19.8-1.944zm58.288 24.84c-26.742 27.996-52.314 53.75-76.714 77.262-15.51 14.945-30.25 31.128-46.072 46.574-1.485 1.454-1.495 2.917-.032 4.39l121.36 121.33c.62.615 1.114 1.35 1.45 2.156.337.808.51 1.674.51 2.547v173.688c0 .312.122.612.34.83.218.222.512.346.82.346l172.935.015c1.134 0 2.257.224 3.303.66 1.047.436 1.997 1.076 2.797 1.88l122.08 122.128c1.035 1.045 2.075 1.045 3.12 0l123.07-123.037c1.044-1.045 2.455-1.63 3.92-1.63l173.64-.017c.123 0 .245-.024.358-.07.113-.048.216-.116.303-.202.086-.086.153-.188.2-.3.044-.113.066-.233.065-.354-.145-59.15-.136-114.296.032-165.44.01-3.114.267-6.638.768-10.57.074-.552.31-1.03.706-1.426 39.58-39.57 79.093-79.077 118.536-118.52 1.87-1.87 3.513-3.94 4.924-6.21.272-.428.225-.827-.14-1.192-41.024-41.117-82.062-82.144-123.116-123.084-1.18-1.17-1.772-2.603-1.772-4.297-.03-58.01-.027-116.022.016-174.033 0-.3-.12-.586-.33-.798-.213-.212-.5-.33-.8-.33l-175.71-.016c-.545 0-1.01-.193-1.396-.58l-124.29-124.34c-.17-.16-.393-.25-.625-.25-.23 0-.452.09-.615.25-41.164 41.275-82.563 83.317-125.06 124.402-.34.342-.803.533-1.286.533h-176.01c-.21 0-.414.083-.565.23-.15.147-.233.347-.233.554l.015 175.65c0 .49-.168.913-.502 1.27zM544.334 195.36l-38.233-38.232c-.698-.697-1.83-.697-2.528 0l-38.477 38.478c-.698.698-.698 1.83 0 2.528l38.233 38.233c.697.698 1.83.698 2.528 0l38.477-38.478c.698-.698.698-1.83 0-2.528zm-64.068 234.414c-.082.082-.146.18-.19.286-.044.106-.066.222-.064.337.002.116.027.23.072.336.047.106.115.202.198.28 9.305 8.678 18.656 18.12 28.054 28.32.367.4.764.43 1.192.095 8.514-6.727 16.213-15.556 23.693-23.02.45-.45.45-.894 0-1.333-30.045-30.004-60.405-60.405-91.078-91.204-2.98-2.988-5.948-5.613-8.907-7.87-.397-.303-.773-.277-1.13.078l-80.476 80.46c-.1.098-.235.152-.372.152-.138 0-.27-.054-.365-.15l-43.406-43.454c-.092-.09-.147-.212-.152-.342-.006-.132.036-.26.12-.364 3.512-4.306 7.808-8.985 12.89-14.035 25.07-24.87 50.453-50.212 76.15-76.024 10.976-11.023 22.204-21.388 33.228-32.538.44-.44.878-.44 1.317 0l187.11 187.127c.128.125.202.296.203.47.004.18-.062.346-.186.47-5.29 5.7-10.45 11.07-15.478 16.12-30.306 30.423-60.87 61.013-91.69 91.77-.133.13-.313.203-.5.203-.188 0-.368-.074-.503-.204L396.103 431.984c-.036-.037-.056-.087-.056-.14 0-.053.02-.104.056-.142l48.127-48.08c.308-.308.727-.482 1.164-.482.44 0 .86.175 1.173.484l39.69 39.595c.063.068.097.156.097.247 0 .09-.034.176-.097.24l-5.99 6.067zM651.73 583.75c-.565.565-.57 1.13-.016 1.694l27.192 27.412c1.16 1.17 2.314 1.17 3.465 0 16.875-17.03 33.37-33.554 49.492-49.57 3.188-3.167 6.57-6.293 10.146-9.377.365-.326.726-.31 1.082.046l34.876 34.844c.138.143.214.334.214.533 0 .2-.076.39-.214.534l-107.7 107.92c-.05.05-.118.076-.19.076-.07 0-.14-.027-.187-.077l-112.64-112.53c-.357-.365-.368-.737-.033-1.113 13.518-15.04 32.085-31.943 42.717-42.654 29.544-29.717 60.656-59.84 89.98-90.718.148-.155.23-.362.226-.576-.003-.215-.09-.418-.242-.57l-105.88-105.755c-.07-.065-.15-.118-.236-.152-.088-.036-.182-.054-.276-.052-.093 0-.185.022-.27.06-.084.037-.16.092-.222.16l-10.35 10.994c-.44.47-.885.47-1.333 0-7.945-8.207-16.063-16.403-24.353-24.59-6.54-6.444-13.454-11.9-19.005-19.177-.336-.44-.31-.852.078-1.24l52.972-53.018c.282-.293.574-.298.878-.016 5.686 5.35 11.27 10.772 16.748 16.26 60.09 60.123 120.104 120.132 180.04 180.024 1.243 1.244 1.243 2.49 0 3.732L651.73 583.75zM308.164 264.038c.723 0 1.418.287 1.93.8.51.51.8 1.206.8 1.928v54.51c0 .52-.258.783-.77.783H253.28c-.106 0-.205-.04-.278-.114-.074-.074-.115-.174-.115-.278V264.82c0-.208.082-.407.23-.554.147-.146.346-.23.554-.23h54.494zm456.707 0h-56.42c-.443 0-.8.357-.8.8v56.422c0 .44.357.798.8.798h56.42c.442 0 .8-.357.8-.8v-56.42c0-.444-.358-.8-.798-.8zM378.403 579.8c-2.646-3.294-5.442-6.41-8.39-9.347-43.417-43.406-86.965-86.974-130.642-130.705-.14-.143-.218-.333-.218-.53 0-.196.078-.385.218-.52l42.638-42.764c.417-.42.83-.42 1.24 0l182.515 182.438c.096.096.15.226.15.364 0 .138-.054.273-.15.373L351.07 693.82c-.462.46-.922.46-1.38 0-6.885-6.917-13.173-14.256-20.152-21.234-31.217-31.143-61.502-61.382-90.858-90.717-.482-.482-.482-.967 0-1.46l40.6-40.583c.396-.397.793-.397 1.19 0l69 69.014c.396.41.793.41 1.19 0l27.663-27.645c.44-.44.465-.905.08-1.396zm-146.24-70.415l-40.208-40.07c-.18-.18-.466-.177-.645 0l-40.048 40.19c-.177.176-.177.464 0 .642l40.212 40.07c.177.178.466.176.643 0l40.047-40.19c.177-.177.177-.465 0-.642zm594.383-31.362l-40.365 40.225c-.167.164-.167.432-.002.6l40.115 40.253c.164.167.433.167.6.003l40.364-40.225c.165-.166.167-.434 0-.6l-40.113-40.253c-.166-.167-.434-.167-.6-.002zM501.83 689.773c-.123-.122-.29-.19-.462-.19-.174 0-.34.068-.463.19-25.3 24.286-49.71 48.702-73.232 73.248-.408.42-.815.42-1.223 0l-31.065-31.628c-1.662-1.694-1.653-3.383.03-5.065l112.437-112.42c.408-.398.81-.398 1.208 0l113.518 113.517c.51.513.51 1.02 0 1.52l-40.38 40.428c-.097.094-.226.146-.36.146-.135 0-.266-.052-.36-.146l-79.647-79.6zM253.798 764.23c-.26 0-.507-.105-.69-.287-.18-.182-.282-.43-.282-.687l.094-54.665c-.004-.313.15-.623.458-.913.307-.29.758-.554 1.328-.775.57-.22 1.247-.397 1.992-.516.745-.12 1.545-.18 2.352-.18l45.79.095c1.62.003 3.177.255 4.327.702 1.15.447 1.798 1.053 1.804 1.683l-.093 54.666c0 .258-.103.505-.285.687-.182.182-.43.286-.687.286l-56.108-.094zm510.886-57.976h-56.045c-.546 0-.988.443-.988.988v56.046c0 .546.442.988.988.988h56.045c.546 0 .988-.442.988-.988v-56.046c0-.545-.44-.988-.987-.988zm-251.57 85.148l-39.765 39.76c-.274.277-.274.724 0 1l39.786 39.786c.276.276.723.276 1 0l39.762-39.764c.275-.276.275-.722 0-.997l-39.785-39.785c-.275-.276-.722-.276-.998 0z"/></svg>