<svg viewBox="0 0 841.3608 1024.0001" xmlns="http://www.w3.org/2000/svg"><path d="M146.098 280.492V118.564c0-.65.255-1.27.712-1.73.458-.46 1.076-.718 1.723-.718l162.428.013c.244 0 .45-.087.62-.257L427.34.116c.08-.077.187-.118.3-.116.11.003.217.05.295.128 36.552 36.634 73.185 73.28 109.9 109.937 2.72 2.712 4.79 4.627 6.21 5.747.237.197.537.304.853.304l162.66.013c.712 0 1.07.352 1.07 1.058l-.024 162.793c0 .278.056.553.164.81.108.26.268.492.47.688l115.817 115.806c.027.027.047.057.062.093.014.034.022.07.022.108 0 .038-.01.074-.023.11-.015.034-.035.065-.062.09-37.048 36.772-75.034 74.71-113.955 113.81-1.4 1.412-2.484 3.275-2.484 5.31.007 51.438.007 105.163 0 161.172 0 .454-.228.682-.682.682l-162.805-.013c-.408 0-.768.134-1.085.4-2.58 2.202-5.06 4.494-7.44 6.88-36.228 36.204-72.415 72.4-108.56 108.586-.244.244-.496.247-.755.012-3.467-3.084-6.706-6.132-9.717-9.144-32.753-32.728-66.188-66.163-100.305-100.304-2.103-2.11-4.303-4.124-6.6-6.04-.31-.26-.666-.39-1.07-.39l-162.892.013c-.16 0-.316-.066-.43-.18-.115-.113-.178-.268-.178-.43V514.54c0-.2-.04-.4-.117-.583-.077-.184-.19-.35-.333-.49L30.414 398.283c-.414-.414-.414-.828 0-1.242l115.063-115.038c.414-.423.62-.925.62-1.51zm45.258 19.287c-20.765 21.737-40.62 41.735-59.565 59.99-12.04 11.604-23.487 24.17-35.772 36.163-1.153 1.128-1.162 2.264-.025 3.41l94.23 94.204c.483.48.865 1.05 1.127 1.676.26.627.395 1.3.395 1.977v134.86c0 .244.095.476.263.647.17.17.4.268.638.268l134.277.012c.88 0 1.75.174 2.564.512.813.338 1.552.835 2.173 1.46l94.79 94.826c.803.812 1.61.812 2.423 0l95.557-95.533c.81-.81 1.905-1.266 3.044-1.266l134.824-.012c.095 0 .19-.02.278-.055.088-.037.168-.09.234-.156.067-.067.12-.146.156-.234.035-.086.052-.18.05-.274-.114-45.928-.105-88.746.025-128.456.008-2.418.208-5.154.598-8.207.056-.43.238-.8.548-1.108 30.732-30.724 61.41-61.4 92.038-92.026 1.452-1.454 2.727-3.06 3.823-4.823.21-.332.174-.64-.11-.925-31.852-31.926-63.716-63.782-95.593-95.57-.918-.91-1.376-2.02-1.376-3.336-.024-45.042-.02-90.086.012-135.13 0-.23-.092-.454-.257-.618-.164-.165-.387-.257-.62-.257l-136.43-.012c-.424 0-.785-.15-1.085-.45L428.08 64.795c-.13-.126-.304-.196-.483-.196-.18 0-.352.07-.478.195-31.963 32.047-64.107 64.69-97.104 96.592-.266.265-.625.414-1 .414H192.355c-.165 0-.322.065-.44.18-.116.113-.18.27-.18.43l.01 136.383c0 .38-.13.71-.388.986zm261.4-148.09l-29.688-29.686c-.54-.542-1.42-.542-1.962 0L391.23 151.88c-.542.542-.542 1.42 0 1.962l29.687 29.687c.542.54 1.42.54 1.963 0l29.875-29.877c.543-.542.543-1.42 0-1.963zM403.01 333.7c-.064.065-.115.14-.148.223-.034.083-.05.173-.05.262.002.09.02.178.056.26.037.083.088.157.154.218 7.224 6.738 14.486 14.068 21.783 21.99.283.31.593.333.925.073 6.612-5.224 12.59-12.08 18.398-17.874.35-.35.35-.694 0-1.035-23.33-23.297-46.902-46.902-70.718-70.816-2.314-2.32-4.62-4.358-6.916-6.11-.308-.236-.6-.215-.877.06l-62.487 62.475c-.078.075-.183.116-.29.116-.107 0-.208-.04-.282-.115l-33.703-33.74c-.072-.07-.114-.164-.118-.265-.004-.103.03-.203.093-.283 2.728-3.344 6.064-6.977 10.01-10.897 19.465-19.312 39.173-38.988 59.126-59.03 8.523-8.56 17.24-16.608 25.8-25.265.34-.34.682-.34 1.023 0L510.072 339.24c.1.1.155.23.157.368.003.137-.05.268-.145.364-4.107 4.425-8.113 8.596-12.017 12.517-23.533 23.62-47.264 47.372-71.193 71.252-.105.102-.244.16-.39.16-.145 0-.285-.058-.39-.16l-88.434-88.324c-.027-.03-.043-.068-.043-.11 0-.04.016-.08.044-.11l37.37-37.33c.238-.24.563-.376.903-.376.34 0 .667.135.91.375l30.818 30.745c.05.053.076.12.076.192 0 .07-.026.136-.075.185l-4.65 4.71zm133.132 119.557c-.44.438-.442.877-.012 1.315l21.113 21.284c.9.91 1.798.91 2.69 0 13.102-13.223 25.91-26.053 38.428-38.488 2.478-2.46 5.103-4.887 7.88-7.282.284-.252.564-.24.84.037l27.078 27.055c.108.11.167.26.167.414 0 .154-.06.303-.167.414L550.534 541.8c-.04.04-.09.06-.146.06-.055 0-.107-.02-.146-.06l-87.46-87.374c-.276-.284-.284-.572-.025-.864 10.496-11.677 24.912-24.803 33.168-33.12 22.94-23.073 47.096-46.463 69.865-70.437.116-.12.18-.28.177-.447-.002-.167-.07-.325-.19-.442L483.568 267c-.053-.05-.115-.09-.184-.118-.068-.028-.14-.042-.213-.04-.073 0-.143.017-.21.046-.066.03-.125.072-.173.125l-8.036 8.536c-.34.364-.685.364-1.034 0-6.17-6.373-12.472-12.737-18.91-19.093-5.077-5.005-10.447-9.242-14.757-14.892-.26-.34-.24-.66.06-.96l41.13-41.168c.22-.228.447-.232.682-.013 4.416 4.156 8.75 8.365 13.004 12.627 46.66 46.684 93.256 93.277 139.793 139.78.965.967.965 1.934 0 2.9l-98.578 98.527zM269.378 205.013c.563 0 1.1.223 1.5.62.396.398.62.938.62 1.5v42.322c0 .406-.2.61-.598.61h-44.138c-.08 0-.158-.032-.214-.09-.057-.057-.09-.135-.09-.215v-44.138c0-.162.065-.317.18-.43.113-.114.268-.18.43-.18h42.31zm354.613 0h-43.808c-.342 0-.62.278-.62.62v43.81c0 .344.278.62.62.62h43.81c.343 0 .62-.276.62-.62v-43.81c0-.342-.277-.62-.62-.62zM323.915 450.19c-2.052-2.558-4.225-4.976-6.514-7.258-33.71-33.703-67.523-67.532-101.438-101.487-.107-.11-.168-.258-.168-.41 0-.154.06-.3.168-.406l33.107-33.205c.324-.325.644-.325.96 0L391.748 449.08c.075.075.118.176.118.283 0 .107-.043.212-.118.29l-89.055 89.067c-.357.358-.714.358-1.072 0-5.345-5.37-10.228-11.068-15.646-16.486-24.237-24.182-47.754-47.66-70.547-70.438-.373-.374-.373-.75 0-1.132l31.523-31.512c.31-.308.617-.308.925 0l53.575 53.587c.31.315.617.315.925 0l21.48-21.468c.34-.34.36-.702.06-1.083zm-113.547-54.675l-31.22-31.113c-.14-.138-.363-.137-.5 0L147.55 395.61c-.138.137-.138.36 0 .5l31.22 31.112c.14.138.363.136.5 0l31.097-31.206c.136-.137.136-.362-.003-.5zm461.512-24.35l-31.344 31.232c-.128.128-.13.336 0 .465l31.146 31.256c.13.13.338.13.466 0l31.342-31.232c.13-.13.13-.337 0-.465l-31.146-31.255c-.128-.13-.337-.13-.466 0zM419.75 535.578c-.095-.096-.224-.148-.36-.148-.133 0-.263.052-.36.147-19.642 18.856-38.597 37.814-56.86 56.873-.317.325-.634.325-.95 0l-24.12-24.56c-1.292-1.314-1.283-2.625.023-3.932l87.302-87.29c.317-.307.63-.307.938 0l88.142 88.143c.398.4.398.792 0 1.182l-31.353 31.39c-.075.072-.176.112-.28.112-.104 0-.205-.04-.28-.113L419.75 535.58zm-192.588 57.81c-.2 0-.392-.08-.533-.22-.14-.142-.22-.335-.22-.534l.072-42.446c-.002-.243.12-.485.358-.71.238-.225.588-.43 1.03-.6.442-.173.968-.31 1.548-.402.578-.092 1.2-.14 1.825-.14l35.554.074c1.26.002 2.468.198 3.36.545.893.347 1.396.817 1.4 1.306l-.072 42.446c0 .198-.08.39-.22.532-.143.14-.334.22-.535.22l-43.566-.072zm396.68-45.014H580.33c-.423 0-.767.343-.767.767v43.517c0 .424.345.767.77.767h43.515c.424 0 .767-.343.767-.767v-43.517c0-.424-.343-.767-.767-.767zM428.513 614.49l-30.874 30.872c-.215.215-.215.562 0 .776l30.89 30.892c.216.214.563.214.776 0l30.874-30.875c.215-.214.215-.56 0-.774l-30.89-30.89c-.214-.215-.562-.215-.776 0zM67.27 817.793c6.567 2.28 10.72 6.693 12.455 13.235.115.422.082.83-.097 1.23-1.9 4.276-4.245 7.897-7.038 10.86-.157.168-.347.302-.56.392-.21.09-.44.135-.67.13-5.26-.145-9.9-4.005-13.37-7.645-.29-.308-.36-.658-.206-1.047 2.46-6.137 5.427-11.79 8.9-16.96.063-.095.154-.164.26-.2.106-.035.22-.034.325.004zm672.406 29.295c2.2-5.894 5.146-11.528 8.84-16.9.17-.253.406-.37.706-.354 5.18.243 9.05 3.166 11.615 8.767 2.813 6.173-2.703 13.43-7.5 17.168-.38.293-.804.362-1.266.208-4.707-1.592-8.79-4.295-12.248-8.11-.094-.102-.16-.228-.184-.366-.026-.14-.012-.28.038-.413zm-631.57 75.417c2.217-4.082 4.755-7.683 7.61-10.8.067-.072.15-.128.24-.164.09-.035.188-.05.285-.044.098.006.192.035.277.084.084.05.157.116.21.196 8.378 12.08-.57 27.676-11.055 35.225-1.607 1.145-3.75.767-5.333-.17-19.75-11.665-2.473-74.03 2.958-92.124 1.26-4.187 2.81-8.217 4.65-12.09.237-.502.47-.5.695.013 1.454 3.24 1.872 6.547 1.254 9.923-1.477 8.1-3.555 17.35-6.234 27.75-1.614 6.258-2.795 12.666-3.543 19.225-.962 8.45.316 17.68 7.233 23.135.057.046.123.08.193.096s.145.018.217.003c.072-.016.14-.046.2-.09s.11-.1.144-.166zm419.95-65.92c1.45 5.466-4.382 12.127-8.51 15.05-.373.258-.774.31-1.206.157-3.69-1.35-13.26-5.99-11.506-10.13 2.265-5.358 4.952-10.492 8.06-15.403.083-.13.197-.237.33-.312.136-.074.286-.113.438-.113 3.23.024 5.69.82 7.378 2.387 2.47 2.264 4.14 5.053 5.017 8.365zm-94.605 71.29c.39.35.72.3.987-.146l4.81-8.06c.237-.398.577-.724.983-.946.407-.223.866-.33 1.328-.314.462.016.91.156 1.3.406.387.25.7.598.906 1.012 3.604 7.148 2.033 16.34-2.094 22.855-2.152 3.4-5.144 6.85-8.974 10.35-1.096.998-2.4 1.335-3.91 1.01-13.697-2.97-12.284-28.32-11.176-38.184 2.59-22.867 7.873-45.04 15.853-66.518.397-1.056.8-1.06 1.205-.012 1.596 4.115 1.547 8.9.646 13.174-3.263 15.573-8.402 31.365-9.06 47.158-.316 7.582 2.083 13.652 7.197 18.215zm273.837 5.88c1.084-3.847 3.337-8.644 7.696-9.4.503-.088.848.107 1.035.585 2.167 5.528 2.645 10.865 1.436 16.012-1.412 5.99-7.025 18.106-14.465 18.605-17.096 1.13-13.467-29.297-12.225-38.636 2.898-21.68 7.667-42.798 14.306-63.35.326-1.015.862-1.9 1.61-2.656.348-.356.543-.288.583.207.503 5.6.167 11.035-1.01 16.304-2.28 10.203-4.48 20.65-6.6 31.34-1.45 7.233-1.997 16.742.23 23.853.976 3.133 3.204 5.613 6.686 7.44.065.035.138.055.213.06.075.003.15-.01.218-.04.07-.03.132-.073.182-.13.05-.056.086-.123.105-.195zm-644.28-14.94c2.63 3.256 5.736 6.682 9.315 10.277 3.434 3.458 4.152 8.986 3.823 13.65-1.29 18.458-12.82 35.773-27.59 46.962-8.414 6.38-19.104 10.86-29.466 8.658C2.967 994.93-1.015 979.406.203 964.954c1.567-18.46 7.396-36.038 17.485-52.736 1.647-2.727 3.684-5.085 6.11-7.074.065-.056.143-.093.226-.11.084-.018.17-.01.252.015.082.026.156.074.216.137.058.063.1.14.123.225.212.852.102 1.668-.33 2.447-6.744 12.094-11.35 23.58-13.82 34.458-2.982 13.21-3.043 27.93 12.47 32.972 16.644 5.418 38.354-8.547 45.976-22.184.06-.11.082-.233.062-.355-.02-.12-.08-.23-.172-.314-5.35-5.09-10.746-9.717-16.194-13.88-.132-.102-.237-.233-.306-.384-.07-.15-.104-.316-.096-.48.5-10.412 4.724-19.507 9.91-28.566 3.166-5.528 5.123-11.303 5.87-17.327.13-.983-.077-1.89-.62-2.728l-7.063-10.824c-.268-.4-.32-.825-.16-1.28l6.94-19.042c.025-.062.06-.118.105-.166.046-.047.1-.084.162-.108.06-.024.127-.035.192-.032.066.003.13.02.188.05 6.307 3.312 9.814 8.816 9.643 16.072-.353 16.11-7.55 29.503-14.526 43.676-.244.502-.19.97.158 1.4zm216.623-37.026c-2.18 3.946-5.077 9.023-9.424 10.85-.454.186-.876.13-1.266-.17l-10.386-8.11c-.292-.228-.378-.515-.256-.865 2.557-7.013 6.08-12.934 10.57-17.764.147-.16.35-.26.57-.28.217-.02.433.04.61.17l10.264 7.526c.39.292.727.24 1.01-.16l7.915-10.896c.277-.374.633-.487 1.072-.34 3.846 1.298 6.918 3.47 9.216 6.513 5.43 7.196-2.02 15.83-7.744 20.334-.365.292-.74.3-1.12.024l-9.91-7.085c-.473-.34-.845-.256-1.122.256zm554.823 32.51c1.52-2.394 2.956-5.082 4.31-8.06.3-.65.707-1.193 1.218-1.63.513-.424.768-.306.768.352.042 8.96-3.437 15.727-10.435 20.297-1.233.803-2.41 1.728-3.53 2.775-2.825 2.618-4.895 5.966-8.926 6.685-2.393.43-4.776.694-7.147.79-.305.012-.607.09-.884.225-.277.137-.523.33-.723.568-3.23 3.847-6.457 7.58-9.68 11.202-3.933 4.395-9.108 6.55-14.818 4.188-9.534-3.933-11.713-16.912-11.41-26.215.69-20.918 4.94-41.532 12.75-61.842.26-.674.495-.666.705.025.764 2.598.85 5.398.256 8.402-3.032 15.317-6.15 29.43-5.162 43.542.243 3.49 1.405 6.785 3.482 9.886 6.867 10.228 19.48 6.247 27.518-.23 2.678-2.156 5.515-2.655 8.827-2.62.302 0 .6-.06.875-.177.277-.116.526-.288.733-.504 2.85-2.923 5.285-6.515 9.826-6.795.634-.04 1.117-.33 1.45-.864zm-652.595.208c-3.25 15.512-13.953 33.033-30.476 36.418-1.177.235-1.278 0-.304-.706 7.73-5.625 15.695-11.81 19.116-20.82 3.288-8.683-3.166-17.303-10.18-21.87-.218-.144-.382-.36-.463-.61-.082-.25-.077-.518.014-.765l7.367-19.98c.045-.12.13-.218.243-.276.113-.06.244-.074.367-.043 13.478 3.702 16.9 16.28 14.319 28.65zm404.547-.9c2.793 2.945 5.17 5.86 7.136 8.74.26.382.333.796.22 1.243-1.275 4.83-3.434 8.938-6.478 12.323-.232.257-.53.448-.86.55-.33.104-.68.115-1.015.034l-11.336-2.727c-.5-.122-1.024-.106-1.517.046-.492.152-.935.435-1.282.818-5.953 6.563-11.372 13.504-18.604 18.75-7.123 5.176-13.31 1.998-20.09-1.24-.667-.317-1.324-.305-1.973.036l-15.488 8.146c-.536.284-.74.125-.61-.475 2.534-11.457 10.607-21.368 20.128-27.736 4.103-2.752 8.852-3.714 13.467-1.57 5.516 2.556 10.435 4.358 16.11.365 7.39-5.188 11.822-14.016 16.217-21.955 4.992-9.01 14.477-20.09 25.363-12.115.397.293.83.373 1.303.244 5.247-1.46 7.342-4.797 9.886-9.083.584-.99 1.415-1.624 2.495-1.9.828-.21 1.173.102 1.035.94-1.156 7.036-6.526 18.774-14.233 21.61-4.42 1.62-6.82-1.472-10.326-3.396-.357-.19-.763-.272-1.167-.23-3.102.322-5.82 1.516-8.158 3.578-.35.31-.635.687-.837 1.108-.2.423-.315.88-.336 1.348-.02.466.054.933.218 1.37.163.438.413.84.736 1.18zm99.282-25.693c.43-.86.812-.836 1.145.073 1.778 4.932 2.18 10.52 1.668 15.622-4.152 42.14-19.847 95.97-71.266 97.603-3.57.113-7.553-.852-11.945-2.898-8.183-3.81-12.773-13.747-14.076-22.392-2.68-17.69 1.838-39.28 13.247-53.233.716-.868 1.568-1.55 2.558-2.046.602-.3.812-.125.633.524-1.54 5.398-3.558 10.812-6.05 16.243-3.653 7.976-5.15 17.035-2.094 25.022 9.144 23.914 50.116 10.338 63.923-.414 9.533-7.427 12.456-21.82 13.478-33.703 1.255-14.66 2.594-28.187 8.78-40.4zm-354.72 36.017c28.308-3.263 64.142-11.726 80.372-34.714.356-.503.673-.478.95.073 1.062 2.104 1.273 4.157.632 6.162-2.41 7.5-7.55 13.418-12.943 19.348-6.454 7.12-14.235 12.578-23.342 16.377-16.398 6.842-34.142 11.75-53.234 14.72-23.767 3.693-48.408 5.516-73.92 5.467-11.536-.016-22.595-1.108-33.18-3.275-11.335-2.327-25.667-9-23.864-23.27.835-6.56 3.266-12.427 7.293-17.606 1.273-1.63 2.06-1.424 2.362.62 3.14 21.32 38.866 19.166 53.623 20.31 5.638.44 11.24-.5 16.925-.51 17.662-.025 37.104-1.258 58.323-3.702zM463.864 943c-5.43 5.978-11.104 11.944-18.544 14.854-3.48 1.364-7.89.804-11.627.816-.82 0-1.002-.34-.548-1.023.67-1.035.974-2.12 2.107-2.788 11.494-6.783 22.66-14.856 30.245-25.254 4.566-6.246 7.61-13.76 11.03-20.797.878-1.803 1.94-3.328 3.19-4.58.415-.413.57-.33.464.245-.9 4.91-1.286 10.268-1.156 16.072.122 5.796 1.84 10.97 8.645 11.043.23.004.457-.06.652-.18s.348-.296.443-.5c4.472-9.62 10.256-17.52 17.35-23.696 5.285-4.594 11.102-6.003 17.45-4.225 5.275 1.476 10.08 2.447 14.415 2.91.463.048.662.3.597.754-.962 7.598-7.805 12.115-11.86 18.07-12.845 18.92-40.046 51.978-61.5 18.397-.406-.632-.857-.672-1.352-.12zm60.71-24.438c-5.614-1.51-14.502-5.37-19.53-1.12-5.69 4.813-9.924 9.87-12.7 15.17-.025.05-.038.1-.037.155.002.053.016.104.043.15.028.047.065.086.112.114.045.028.097.044.15.046 6.852.35 13.02-.82 18.508-3.507 3.003-1.478 7.558-4.843 13.662-10.095.51-.438.442-.742-.207-.913zm231.284-4.237c1.354-3.19 2.96-6.36 4.82-9.51 2.126-3.62 2.996-3.34 2.606.84-1.656 17.85-10.203 40.815-26.738 49.423-5.025 2.62-10.456 3.13-16.292 1.522-1.558-.43-1.656-1.08-.292-1.948 3.57-2.273 7.13-4.648 10.678-7.123 10.946-7.623 19.98-20.907 25.217-33.205zm-126.34 17.29c1.497-6.88 4.918-12.82 8.57-18.775.1-.16.248-.287.423-.36.174-.075.367-.093.552-.054 6.146 1.38 10.57 4.934 13.272 10.666.43.91.337 2.536-.28 4.882-1.428 5.39-4.423 9.628-8.986 12.712-.38.26-.774.28-1.18.06-4.277-2.288-8.283-4.988-12.018-8.096-.325-.277-.44-.62-.353-1.035zm-519.62 27.03c-1.195.317-1.31.09-.342-.68 13.844-10.996 26.945-21.82 35.432-37.2.39-.697.932-.855 1.63-.474l.744.415c.576.31.823.788.743 1.437-.967 8.03-3.573 14.282-7.817 18.763-8.256 8.702-18.386 14.616-30.39 17.74zm427.887 54.196c-2.13 4.482-5.126 8.95-9.753 11.02-.374.17-.723.125-1.047-.134l-9.546-7.72c-.352-.284-.608-.67-.73-1.107-.122-.438-.105-.902.05-1.33 2.15-6.022 5.69-11.623 10.616-16.802.293-.308.61-.332.95-.072l9.96 7.658c.357.284.673.244.95-.122 2.37-3.157 4.776-6.347 7.22-9.57 1.023-1.34 2.305-1.68 3.848-1.023 4.98 2.118 10.86 7.524 8.937 13.576-1.43 4.48-4.358 8.657-8.79 12.53-.35.3-.715.327-1.096.084l-10.91-7.172c-.053-.035-.115-.06-.18-.07-.063-.01-.128-.006-.19.01-.063.02-.12.05-.17.09-.05.042-.09.094-.117.153zm39.035 6.32c-5.03-1.437-9.63-3.98-12.432-8.438-.268-.422-.288-.856-.06-1.303l7.865-15.33c.097-.19.24-.353.415-.473.174-.12.375-.19.583-.21 6.44-.608 12.128 4.97 12.76 11.19.56 5.492-3.822 11.105-8.01 14.344-.342.26-.714.333-1.12.22z"/></svg>