<svg viewBox="0 0 1024 1024" xmlns="http://www.w3.org/2000/svg"><path d="M783.53 240.47c149.93 149.973 149.93 393.087 0 543.018-149.973 149.973-393.087 149.973-543.06 0-149.93-149.93-149.93-393.045 0-543.02C315.39 165.55 413.61 128.044 511.786 128h.426c98.176.043 196.395 37.547 271.318 112.47zM643.158 499.924c-7.253 16.854-38.912 29.398-64.256 24.662 9.473-17.366 37.633-69.632 55.127-103.766-11.862.044-29.91.044-48.043 0-18.176-.04-36.395-.04-48.555 0-43.69-2.772-98.09 46.55-109.1 99.67.94 18.305 25.6 33.025 49.28 29.483 7.51 1.323 13.355-3.285 12.203-9.557-7.04-1.323-10.41-11.307-7.253-19.925 8.832-20.437 36.736-62.25 55.808-84.138 14.89-10.197 27.776-8.277 26.368 4.267-13.696 20.607-54.656 90.964-81.408 141.268 16.81-.128 47.488-.853 61.824-1.493 6.272-12.672 18.86-35.584 25.13-45.27 43.52 26.54 106.326 13.696 126.678-26.154 9.43-9.514 36.82-55.765 55.296-91.946 5.547-15.232 26.667-37.12 43.264-44.245-16.47-2.775-44.885-1.28-56.832 3.028-15.957 5.163-39.34 27.008-47.232 43.22-6.528 10.668-15.403 25.644-24.107 40.407-9.217 15.658-18.305 30.976-24.193 40.49zM287.104 370.09c-3.413 6.785 5.632 3.84 16.512-6.442 54.827-40.79 159.488-65.493 234.07-58.88 21.674 1.92 45.226 7.38 64.426 15.787 3.456 1.493 6.784 2.986 10.112 4.437 33.963 14.89 61.227 26.837 99.328 31.616 44.16 5.547 87.85 5.376 94.293-1.877-144.17-118.314-403.54-110.634-518.74 15.36zM411.99 539.18c-68.523 1.32-96.77-56.407-56.45-115.457l-57.044-1.45c-4.352 7.38-9.984 16.852-16.427 27.647-23.723 39.85-58.283 97.835-80.17 135.723 12.372-.384 43.945-.598 63.145-.47 6.06-8.405 23.04-38.314 34.987-59.99 11.35 18.006 66.475 30.08 110.25 24.065 6.657-2.645 7.297-7.85 1.707-10.07zm378.197 162.26c3.285-4.736 4.906-12.843 4.906-24.363 0-11.776-3.242-21.632-9.728-29.568-.64-.81-1.152-1.238-1.536-1.238-.3 0-.726.427-1.366 1.323L770.9 664.363c-.596.938-.596 1.706 0 2.26 4.097 3.628 7.383 7.084 9.985 10.412.683.896 1.067 1.706 1.067 2.39 0 1.364-1.237 2.047-3.67 2.047h-15.19c-4.308 0-7.252-1.323-8.788-4.01-.47-.77-1.152-3.158-2.048-7.21-.555-2.69-1.835-4.012-3.883-4.012s-3.456 1.323-4.266 4.01c-1.195 4.182-2.048 6.614-2.475 7.21-1.75 2.69-4.864 4.012-9.26 4.012h-5.204c-2.73 0-5.248-2.048-7.424-6.144-3.584-6.7-5.803-10.54-6.57-11.477-3.33-4.095-7.766-6.143-13.313-6.143-6.527 0-11.476 2.474-14.76 7.466-2.22 3.243-3.415 7.04-3.67 11.435-.214 3.2-2.86 4.82-7.894 4.864H592.98c-3.497 0-5.76-2.9-6.825-8.704l-5.93-32c-.214-1.11-.513-1.62-.982-1.62-.384 0-.854.255-1.45.852l-14.465 14.592 1.195 5.333c-9.942 8.662-15.02 13.184-15.318 13.568-3.413 4.822-5.12 9.558-5.12 14.25 0 4.31 3.328 7.81 10.027 10.497 5.035 2.048 9.43 3.072 13.312 3.072 2.048 0 3.968-2.09 5.76-6.272 2.517 9.77 8.405 14.677 17.493 14.677h84.736c4.65-.085 8.406-3.2 11.222-9.386 4.266 6.53 10.112 9.814 16.554 9.814 6.485 0 11.306-3.37 14.335-10.112.726 2.26 2.134 4.395 4.182 6.357 2.26 2.218 4.522 3.327 6.656 3.327h6.144c6.57 0 11.477-2.773 14.72-8.277 3.242 5.504 7.85 8.277 13.824 8.277h5.974c10.325 0 17.323-2.773 21.163-8.277zM509.91 640.128l2.175-20.437c.043-.98.043-1.407-.17-1.407-.17 0-.427.042-.81.17l-48.172 15.915c-.725.256-1.152.81-1.28 1.75l-3.498 20.01c5.333 4.78 9.002 8.064 11.008 9.9 4.096 3.583 7.21 7.04 9.43 10.24.468.68.724 1.32.724 1.96 0 1.068-.64 1.836-1.92 2.135-3.03.768-8.746 1.194-17.322 1.194h-9.558c-2.816-14.208-8.746-21.29-17.792-21.29-6.442 0-11.392 4.394-14.677 13.098-2.39 6.358-3.584 13.142-3.584 20.31 0 7.978 2.773 13.013 8.32 15.19 2.56.98 8.02 1.492 16.427 1.492-.17 2.518-5.375 6.955-15.53 13.355-7.552 4.736-13.995 8.32-19.328 10.88-1.493.683-2.26 1.835-2.26 3.328 0 2.816 1.748 4.224 5.16 4.224h29.143c1.578 0 2.816-.47 3.754-1.493 6.27-6.74 9.983-17.066 11.05-30.933h14.336c6.528 0 12.075-1.28 16.683-3.797 8.745-4.78 13.14-13.44 13.14-25.856 0-6.23-1.237-11.86-3.627-16.896-1.75-3.584-4.693-7.893-8.874-12.843l25.556-7.978c.683-.214 1.067-.47 1.237-.726.086-.17.17-.64.256-1.492zM288.3 709.76l3.37-.085h79.103c10.326 0 17.323-2.73 21.163-8.278 3.285-4.693 4.864-12.544 4.864-24.362 0-11.776-3.2-21.632-9.685-29.568-.64-.854-1.152-1.238-1.536-1.238-.3 0-.727.426-1.367 1.322L372.65 664.32c-.597.94-.597 1.707 0 2.26 4.097 3.628 7.382 7.127 9.985 10.412.682.896 1.066 1.707 1.066 2.39 0 1.407-1.236 2.047-3.668 2.047h-90.71c-3.37 0-6.74-1.366-10.197-4.097-1.493-1.194-4.266-3.84-8.192-7.936-.896-.938-1.664-.768-2.304.427l-9.942 20.523c9.344 8.66 13.995 14.293 13.995 16.768 0 3.03-5.163 8.106-15.616 15.232-8.064 5.504-14.848 9.6-20.267 12.202-1.45.682-2.22 1.834-2.22 3.37 0 2.816 1.75 4.18 5.164 4.18h29.184c1.62 0 2.9-.468 3.797-1.492 2.603-2.816 4.992-6.7 7.21-11.605 2.518-5.632 3.798-10.752 3.798-15.275v-5.46c1.323 1.023 2.86 1.492 4.566 1.492zm96.51-335.573h-62.55l-15.103 30.72h62.55zm189.483 0H511.7l-15.06 30.72h62.55zm-99.157 0h-62.592l-15.06 30.72h62.548zm-105.3 263.68c.767.725 1.535.725 2.26 0l8.448-8.62.085-.084 9.173 8.704c.34.34.725.512 1.152.512.384 0 .682-.172 1.11-.513l8.532-8.747c.81-.768.854-1.493.214-2.133l-9.3-8.96c-.598-.598-1.238-.598-1.878 0l-9.045 8.874-8.96-8.873c-.64-.598-1.28-.598-1.92 0l-9.216 9.045c-.682.683-.682 1.323-.085 1.877zm390.612 92.97c.683-.64.725-1.237.085-1.75l-8.405-8.148c-.725-.684-1.493-.684-2.176 0l-7.38 7.55-7.852-7.55c-.725-.684-1.408-.684-2.09 0l-7.638 7.764c-.853.853-.94 1.58-.256 2.22l8.32 8.063c.597.597 1.195.597 1.792 0l7.68-7.595 7.808 7.595c.64.597 1.195.597 1.792 0zm29.995.086c.768-.768.768-1.408 0-1.963v.043l-9.6-9.26c-.81-.767-1.58-.767-2.347 0l-8.832 8.748c-.853.94-.94 1.793-.128 2.518l9.515 9.26c.64.64 1.323.64 2.006 0zM370.475 609.28c-.683.64-.683 1.237-.128 1.792h-.043l9.43 9.13c.853.77 1.62.77 2.346 0l8.405-8.703c.81-.897.94-1.665.3-2.263l-9.345-9.045c-.597-.64-1.237-.64-1.835 0zm339.328 67.328c1.45 3.03 2.218 5.93 2.218 8.576 0 3.755-1.193 5.632-3.497 5.632-2.987 0-5.334-1.877-7.083-5.717-1.365-2.988-2.048-6.017-2.048-9.175 0-1.28.427-2.432 1.237-3.413.853-.98 1.877-1.45 3.114-1.45 2.304 0 4.31 1.834 6.06 5.546zm-142.763-7.125l3.456 12.63c-8.064-.47-12.117-1.665-12.117-3.585 0-1.707 2.943-4.736 8.66-9.045zm-131.627 13.525c1.963 1.195 2.944 2.432 2.944 3.797h.043c0 .768-2.133 1.195-6.4 1.195-4.736 0-7.04-.81-7.04-2.39 0-2.9 1.877-4.266 5.717-4.266 1.408 0 2.987.512 4.736 1.664zM355.54 423.723h.044v-.043l-.043.043z"/></svg>