<svg viewBox="0 0 1024 1024" xmlns="http://www.w3.org/2000/svg"><path d="M338.73 757.632L472.62 861.27l1.407 1.45q16.256 16.213 58.453 16.213h162.133q72.064 0 88.406-65.365l.297-1.11 102.87-312.96.17-.383q10.198-28.63-4.18-48.128-14.764-20.054-46.764-20.054H664.747q-34.262 0-56.534-25.216-22.997-26.112-17.792-62.506l21.548-137.94.213-1.025q9.345-41.984-34.345-56.576l-.555-.17-.555-.215q-35.413-13.27-56.02 17.664L345.684 425.3l-53.077-35.668 174.848-260.18q48.64-72.92 131.157-42.284 97.323 32.725 76.246 129.92l-21.12 135.168q-1.025 7.168 2.473 11.093 3.158 3.583 8.534 3.583h170.666q64.342 0 98.304 46.08 34.475 46.763 13.056 107.222L844.843 830.25q-28.8 112.683-150.23 112.683H532.48q-67.157 0-102.1-33.408l-130.817-101.29zm-269.183 25.3V364.8q0-58.24 30.55-86.443 28.842-26.624 86.783-26.624h42.667q117.333 0 117.333 113.067v418.133Q346.88 896 229.547 896H186.88Q69.547 896 69.547 782.933zm64 0q0 49.068 53.333 49.068h42.667q53.333 0 53.333-49.067V364.8q0-49.067-53.333-49.067H186.88q-32.896 0-43.35 9.643-9.983 9.216-9.983 39.424z"/></svg>