<svg viewBox="0 0 981.3169 1024.0012" xmlns="http://www.w3.org/2000/svg"><path d="M159.912 0h8.192c40.233 1.493 79.017 23.083 100.478 56.575 17.194 26.112 23.51 58.794 17.28 89.26-5.846 30.29-24.106 57.938-49.62 75.857-23.808 16.98-53.93 25.13-83.242 22.57-33.962-2.645-66.388-19.882-87.338-46.206-19.54-24.065-29.14-55.595-26.282-86.23 2.647-32.168 19.16-62.888 44.503-83.41C105.043 10.922 132.308.98 159.913 0zm-8.107 61.354c-7.167 1.365-14.122 3.882-20.394 7.552-25.98 14.378-38.182 47.956-27.174 75.177 10.538 29.823 46.463 47.573 77.183 37.887 32.125-8.49 52.86-44.5 43.22-75.903-7.725-30.42-41.473-51.285-72.833-44.714zM43.007 324.048c5.59-12.373 18.816-20.864 32.683-20.736 57.045-.213 114.088.043 171.177-.085 8.15-.128 16.64.896 23.594 5.504 10.755 6.49 17.11 18.73 16.77 31.107.044 216.017.086 432.078 0 648.14.77 18.26-14.76 34.814-33.32 36.01H74.197c-12.675-.64-24.62-8.02-30.34-19.116-5.205-9.514-3.925-20.607-4.053-30.975 0-207.272.043-414.586 0-621.9.128-9.344-.94-19.2 3.2-27.946zm58.026 39.253v600.61c41.685 0 83.37.045 125.054 0-.042-200.19-.042-400.375 0-600.564-41.684-.086-83.368 0-125.053-.043zm272.636-52.82c6.652-5.373 15.355-7.38 23.803-7.25 58.41.043 116.862-.043 175.27.085 12.8-.34 25.43 6.7 31.233 17.92 5.16 9.045 3.84 19.754 4.01 29.74 18.77-8.32 38.228-15.533 58.578-18.988C714.01 322.64 764.27 329 807.92 349.35c47.273 22.057 84.777 60.5 112.937 103.08 20.904 33.407 36.05 70.57 42.494 109.353 5.848 29.652 5.12 60.074 5.165 90.153-.085 114.003.086 228.006-.085 341.967.596 15.232-12.204 28.8-27.564 30.08H761.16c-15.572-.896-28.756-14.677-28.16-30.08-.127-126.633-.04-253.307-.04-379.94.256-13.098-.384-26.752-6.784-38.528-11.05-22.1-36.65-36.052-61.653-33.364-23.466 1.88-44.415 18.56-52.35 40.19-5.46 13.956-4.01 29.188-4.18 43.82-.086 122.62.127 245.246-.086 367.867.426 15.787-13.61 29.697-29.61 30.038H392.525c-17.577-1.11-32.553-16.64-31.87-34.09-.17-216.658 0-433.315-.085-649.974-.512-11.093 3.925-22.612 13.1-29.44zm48.123 52.82v600.61H546.76V606.03c-.084-14.208 1.88-28.5 6.615-41.983 12.713-37.632 45.524-68.01 84.563-78.164 28.5-7.68 59.775-4.95 86.314 7.808 32.68 15.36 57.77 45.482 66.26 80.083 2.9 11.14 3.755 22.7 3.712 34.18v355.96h112.978V646.05c-.04-25.43.727-51.116-4.436-76.16-9.687-52.95-38.06-102.398-79.06-138.153-29.4-27.477-69.676-43.18-110.21-43.904-40.403-.896-81.02 12.97-111.91 38.528-4.95 4.01-10.113 8.196-16.556 9.647-11.562 3.073-24.745-1.365-31.87-10.794-5.377-6.442-6.23-15.146-6.4-23.167 0-12.927.042-25.812 0-38.74H421.79z"/></svg>