<svg viewBox="0 0 1024.0027 1024" xmlns="http://www.w3.org/2000/svg"><path d="M302.003 94.2c-99.2 11.6-188 65.8-244.2 149.6-31 46-49.4 96.6-55.8 153.2-2.8 25.6-2.6 321.6.2 335.4 4 18.8 13.2 35.4 27.8 49.8 35.6 35.2 84.6 39.2 126.6 10.6 18.2-12.4 34.6-30.8 54.6-61 20.8-31.8 34.2-44.2 61.6-57.6 19.4-9.6 48.2-20 50-18 .4.4 1.8 12 3.2 25.8 7 75 33.2 136.4 81.8 191.4 17.6 19.8 47.6 46 60.8 53 12.2 6.6 36.6 6.4 50.2-.2 21-10.4 34-31.2 33.8-54.2-.2-21.6-5.2-30-32.6-55.8-27-25.4-40.2-42-52.8-66.2-14.6-28.2-23.2-64-23.2-97.2v-14.4l26.6-1.4c14.4-.8 53.8-1 87.4-.6 54.2.6 62.4.2 73.8-3 25.8-7.4 44.8-20.2 57.2-39 4.6-7 6.6-8 24.8-13.2 139.2-38.8 252.4-141.4 293-265.8 12.2-37 16-61.2 16-104.4.2-35-.2-39.2-4.6-51.6-9-26.4-34-51.8-60.4-61.6l-12.8-4.8-314-.2c-172.6-.2-320.8.4-329 1.4zm335.2 45.2c-3 18.4-5.6 59.2-4.6 76.4.8 18.2 1.2 19.2 7.2 24.6 8.4 7.6 18.4 7.6 26 0 5.6-5.4 5.6-5.6 7-41.4.8-19.8 2.4-42.8 3.8-51l2.4-15h260l11.4 5.6c12.8 6.4 22.4 16 28.4 29.2 3 7 4.2 14.6 4.8 31.6 4 112.4-56.8 220-164.6 291.2-22.8 15-64 35.2-90.2 44.2l-20.2 6.8-1.2-38.2c-1.2-43.4-9-101.8-14.4-110.2-8-12.2-28.2-10.2-34 3.4-2.4 6-2.4 9.6 1 29.6 9.6 60 10.4 110.4 2 132.8-6.2 16.4-19.8 29.6-35.4 34.4-10.2 3-21.6 3.4-95.4 3.6h-83.6l1.4-11.6c3.2-28.8 14.8-50.2 33.8-62.4 11.8-7.6 13.2-9.8 13.2-21 0-9.6-8.8-18-18.6-18-16.6 0-43 24.4-55.6 51-11.6 24.8-19 77.2-17.4 122.2l1 24.8-7.2 2c-4 1-12.8 2.6-19.4 3.2l-12.4 1.4-1.4-17.8c-2-22-.2-60 4.2-91.8 5.8-42.8 1.4-72.6-14.8-103.8-10.2-19.8-19.8-29.2-29-29.2-5.2 0-9.2 1.6-13.6 5.6-9 8-8.6 16.4 1.6 32.6 18 28.6 21.4 50.6 15.2 99.6l-3.8 29-20.8 6.2c-36.8 11-62.2 23.4-83.6 40.4-16.2 12.8-22.4 20.2-41.8 49.4-30.2 45.4-51.8 62.2-79.6 62.2-23.8-.2-42-11.6-52.4-32.6l-5.6-11.4V395l4.6-21c13.8-62.2 39.2-109 83.2-153.2 49.2-49 107.6-78 175.2-86.6 7.2-1 85.4-1.8 173.8-2l160.8-.2-1.4 7.4zm-219.4 597c11.6 36 30.2 64.2 65.6 99.2 14.6 14.6 27.6 28.8 28.6 31.6 2.8 7.2.6 14-6.4 19.8-12.2 10.2-20.4 6.4-52.8-25.4-35.4-34.6-59.8-72.6-73-113.2-3.2-10.4-5.6-19.2-5.4-19.4.8-.6 31.4-6.4 35.8-6.8 2-.2 4.4 4.2 7.6 14.2zm234.4-437.6c-11.8 6.6-13.4 20.4-3.4 30.4s24.2 8.4 30.4-3.4c9.2-18.2-9.4-36.8-27-27z"/></svg>