<svg viewBox="0 0 1024 1024" xmlns="http://www.w3.org/2000/svg"><path d="M162.918 854.938c-5.666 0-11.127-.683-15.906-2.048C96.7 840.602 56.662 773.46 46.66 715.674 8.43 514.492 23.893 368.4 93.082 281.26c47.786-60.315 121.514-92.844 218.897-96.7 177.73-7.067 237.123-3.653 239.376-3.653 5.222.24 9.557 4.096 10.48 9.113l53.69 276.002c0 .478.24.683.24 1.16 8.43 92.605-15.702 160.428-73.73 207.975-4.777 3.857-12.048 3.175-15.94-1.604-3.856-4.78-3.173-12.05 1.605-15.906 51.645-42.12 73.047-103.56 65.537-187.733l-51.882-266.718c-22.29-.683-89.225-1.57-228.455 3.89-90.59 3.62-158.378 33.213-202.07 88.27C45.98 377.07 31.847 517.018 69.19 711.578v.204c9.558 55.774 47.548 110.388 83.286 119.262 19.32 4.78 37.546-3.89 54.135-25.497 29.832-39.356 89.667-56.662 153.155-75.094 24.576-7.065 49.835-14.575 74.172-23.21 5.905-2.048 12.527.92 14.575 6.826 2.048 5.904-.922 12.526-6.827 14.574-25.02 9.08-50.756 16.59-75.57 23.655-59.598 17.304-116.02 33.688-141.28 66.9-21.4 27.75-43.69 35.738-61.917 35.738zm527.258-299.69c-6.622 0-12.288-1.162-17.75-3.653-16.622-7.75-21.845-25.703-22.288-35.055v-.888c8.84-222.105-37.547-275.797-38.025-276.275l-2.048-2.73c-9.08-17.272-5.905-30.482-1.604-38.435 11.4-21.162 45.057-34.61 102.64-41.2 60.757-6.825 126.77-3.412 134.04-2.968 68.712-2.253 115.372 11.844 138.583 42.12 23.893 31.164 12.97 67.106 12.493 68.472-.888 2.73-2.492 5.017-4.984 6.383-74.41 44.61-212.787 239.376-214.118 241.22-.683.886-1.366 1.808-2.287 2.49-35.5 27.068-63.284 40.517-84.65 40.517zM672.87 515.65c.24 1.81 1.605 11.81 9.32 15.224 6.382 2.97 26.657 5.46 77.38-33.212 13.652-19.115 139.502-194.32 215.96-243.712 1.605-7.953 3.175-27.307-10-44.373-18.432-23.656-59.87-35.26-119.945-33.008h-1.126c-.684 0-69.633-3.857-130.63 2.97-66.662 7.51-81.68 22.97-85.094 29.115-1.604 2.97-2.97 7.51 1.126 16.18 8.636 10.683 51.44 74.854 43.008 290.815zM135.612 628.975c-5.462 0-10-3.89-11.162-9.353-24.098-126.293-14.336-218.453 29.594-273.51 30.48-38.468 77.38-59.392 139.264-61.884 6.383-.24 11.605 4.54 11.844 10.923.205 6.35-4.574 11.606-10.923 11.81-54.853 2.288-96.052 20.037-122.437 53.25-39.595 49.834-48.026 135.645-25.02 255.112 1.127 6.144-2.97 12.05-9.113 13.414-.444 0-1.127.24-2.048.24zm307.2-425.78c-4.54 0-8.875-2.73-10.684-7.27-8.67-22.084-4.096-43.45 12.493-60.313 26.625-26.83 80.112-36.864 119.263-22.05 28.672 10.683 31.607 9.08 40.96 4.096 7.953-4.335 18.875-10.036 41.847-13.893 17.988-2.97 33.93.24 47.104 9.797 24.576 17.75 29.594 51.2 29.833 52.565.887 6.144-3.414 12.05-9.558 12.97-6.145.888-12.084-3.413-12.97-9.557 0-.478-4.097-25.497-20.96-37.546-8.19-5.94-17.75-7.75-29.798-5.7-19.353 3.174-27.99 7.748-35.054 11.605-15.463 8.19-24.78 10-59.597-2.97-30.958-11.606-74.65-3.858-95.13 16.86-10.24 10.446-12.73 22.53-7.508 35.943 2.287 5.905-.683 12.527-6.383 14.78-1.128.478-2.493.683-3.858.683zM681.745 714.07c-1.126 0-2.492-.24-3.857-.683-5.7-2.048-7.305-6.827-7.987-9.114-.204-.444-.443-1.126-.682-2.048-5.666-13.858-27.99-63.932-81.237-118.545-4.3-4.54-4.3-11.605.24-16.145 4.54-4.574 11.605-4.335 16.145.205 49.152 50.312 73.523 97.416 83.08 118.58l20.002-11.606c-34.338-50.757-49.152-134.725-49.834-138.582-1.127-6.144 3.208-12.083 9.352-13.21 6.144-1.126 12.05 3.175 13.176 9.32.24.92 16.624 94.89 52.805 138.58 2.048 2.526 2.97 5.94 2.492 9.353-.683 3.174-2.492 6.144-5.462 7.714l-37.068 21.4c-1.16.683-2.048 1.127-2.526 1.605-2.047 1.365-4.983 3.174-8.635 3.174zm-131.31 210.5c-22.734 0-40.278-8.67-44.374-23.894-5.665-20.958 16.863-43.93 52.36-53.487 35.5-9.558 66.425-.922 71.886 20.24 5.7 20.958-16.828 43.93-52.326 53.487-9.558 2.287-18.876 3.653-27.546 3.653zm13.89-55.535c-24.575 6.587-37.545 20.48-36.18 25.497 1.365 4.984 19.558 10.684 44.135 4.096 24.576-6.622 37.546-20.48 36.18-25.497-1.57-5.017-19.797-10.683-44.134-4.095zm55.093 12.527c-3.653 0-7.066-1.605-9.353-4.78-59.153-85.094-81.68-173.635-90.317-232.788-9.352-64.41-4.574-108.1-4.335-109.91.683-6.144 6.383-10.683 12.527-10 6.144.648 10.684 6.348 10 12.492-.238 1.604-17.51 171.793 90.557 327.236 3.652 5.223 2.287 12.288-2.73 15.94-1.81 1.127-4.097 1.81-6.35 1.81zm-102.196 27.306c-3.618 0-7.03-1.604-9.318-4.778-59.153-85.095-81.92-174.32-90.795-234.394-9.32-65.092-5.018-109.67-4.78-111.48.683-6.144 6.384-10.717 12.528-10.035 6.144.684 10.683 6.145 10 12.528-.238 1.81-16.827 175.002 91.478 330.65 3.652 5.222 2.287 12.288-2.73 15.906-2.05.922-4.097 1.604-6.384 1.604zM361.37 573.645h-11.845c-6.383 0-11.366-5.223-11.16-11.606 0-6.35 5.255-11.367 11.604-11.128 172.714 2.73 222.105-57.14 222.548-57.822 3.892-4.983 11.162-5.666 15.94-1.81 5.018 3.858 5.7 11.163 1.81 15.94-2.048 2.732-54.614 66.425-228.898 66.425z"/></svg>