<svg viewBox="0 0 1024 1024" xmlns="http://www.w3.org/2000/svg"><path d="M345.03 461.198c0-70.713 57.288-128 127.944-128 70.713 0 128.057 57.287 128.057 128s-57.342 128-128.055 128c-70.656 0-127.943-57.287-127.943-128zm127.944-68.95c-38.002 0-68.892 30.892-68.892 68.95 0 38.06 30.89 68.893 68.892 68.893 38.116 0 68.95-30.832 68.95-68.89 0-38.06-30.834-68.95-68.95-68.95zm-325.29 64.57C147.684 275.628 292.75 128 472.576 128s324.95 147.57 324.95 328.818c0 113.664-48.527 222.322-111.162 302.194-31.402 40.106-67.015 73.784-103.14 97.735C547.614 880.412 509.157 896 472.577 896c-36.523 0-74.98-15.588-110.592-39.253-36.124-23.95-71.737-57.63-103.14-97.735-62.577-79.872-111.16-188.53-111.16-302.194zM472.576 187.05c-146.432 0-265.785 120.434-265.785 269.768 0 97.45 42.043 193.593 98.59 265.785 28.16 35.897 59.22 65.024 89.26 84.935 30.435 20.195 57.457 29.41 77.937 29.41 20.537 0 47.56-9.215 77.995-29.41 30.038-19.91 61.156-49.038 89.316-84.935 56.548-72.192 98.59-168.335 98.59-265.785 0-149.334-119.41-269.767-265.9-269.767z"/></svg>