<svg viewBox="0 0 1024 1024" xmlns="http://www.w3.org/2000/svg"><path d="M650.24 950.187h-5.547c-189.44 0-280.746-74.667-296.533-241.92-1.707-17.494 11.093-33.28 29.013-34.987 17.494-1.707 33.28 11.52 34.987 29.013 12.373 133.974 75.52 183.894 232.96 183.894h5.547c173.653 0 235.093-61.44 235.093-235.094V372.907c0-173.654-61.44-235.094-235.093-235.094h-5.547c-158.293 0-221.44 50.774-232.96 187.307-2.133 17.493-16.64 30.72-34.987 29.013-17.92-1.28-30.72-17.066-29.44-34.56 14.507-169.813 106.24-245.76 296.96-245.76h5.547c209.493 0 299.093 89.6 299.093 299.094v278.186c0 209.494-89.6 299.094-299.093 299.094zM634.88 544H85.333c-17.493 0-32-14.507-32-32 0-17.493 14.507-32 32-32H634.88c17.493 0 32 14.507 32 32 0 17.493-14.08 32-32 32zm-95.147 142.933c-8.106 0-16.213-2.986-22.613-9.386-12.373-12.374-12.373-32.854 0-45.227L637.44 512 517.12 391.68c-12.373-12.373-12.373-32.853 0-45.227 12.373-12.373 32.853-12.373 45.227 0L705.28 489.387c12.373 12.373 12.373 32.853 0 45.226L562.347 677.547c-6.4 6.4-14.507 9.386-22.614 9.386z"/></svg>