<svg viewBox="0 0 1024 1024" xmlns="http://www.w3.org/2000/svg"><path d="M465.92 842.667c-12.373 0-24.32-1.707-34.133-5.547C285.867 787.2 53.333 608.853 53.333 345.173c0-135.253 109.227-244.906 243.627-244.906 64.427 0 124.587 24.746 169.387 68.693 45.226-43.947 104.96-68.693 169.386-68.693 134.4 0 243.627 109.653 243.627 244.906 0 18.347-1.28 37.12-3.84 56.32-1.28 9.814-7.253 18.774-15.787 23.894-8.533 5.12-19.2 5.546-28.586 1.706-52.48-22.613-117.76-5.546-151.894 40.107-5.973 8.107-17.493 12.373-25.6 12.8-10.24 0-19.626-4.693-25.6-12.8-24.32-32.427-61.44-50.773-101.546-50.773-69.547 0-126.294 57.173-126.294 127.573 0 110.933 63.574 189.867 117.334 237.227 7.68 6.826 11.52 16.64 10.666 26.88-.853 10.24-6.4 19.2-15.36 24.746-4.693 2.56-8.533 4.267-10.666 4.694-11.094 3.413-23.467 5.12-36.267 5.12zm-168.96-678.4c-98.987 0-179.627 81.066-179.627 180.906 0 223.147 185.6 360.534 292.267 413.44-40.533-54.186-73.813-125.866-73.813-215.04C335.787 437.76 421.12 352 526.08 352c47.787 0 92.587 17.493 127.147 48.64 43.093-38.4 104.533-55.893 161.706-45.227V345.6c0-99.84-80.64-180.907-179.626-180.907-56.747 0-109.227 26.454-143.787 72.107-5.973 8.107-15.36 12.8-25.6 12.8-10.24 0-19.627-4.693-25.6-12.8-33.707-46.08-86.187-72.533-143.36-72.533zm356.693 759.466c-9.813 0-20.053-1.28-28.16-4.266-36.693-12.374-96-42.667-150.186-90.88C412.16 772.693 336.64 677.973 336.64 543.573 336.64 437.76 421.973 352 526.933 352c47.787 0 92.587 17.493 127.147 48.64 53.76-48.213 135.68-61.867 203.093-32.427 69.12 30.72 113.92 99.84 113.92 175.787 0 202.24-177.493 337.92-289.28 375.893-8.533 2.56-18.346 3.84-28.16 3.84zM526.507 416c-69.547 0-126.294 57.173-126.294 127.573 0 110.934 63.574 189.867 117.334 237.227 47.36 41.813 97.28 67.84 128.426 78.08 3.414 1.28 11.52 1.28 14.507 0 64-21.76 246.187-126.293 246.187-315.307 0-50.773-29.867-96.853-75.52-116.906-51.627-22.614-117.76-5.547-151.894 40.106-5.973 8.107-17.493 12.374-25.6 12.8-10.24 0-19.626-4.693-25.6-12.8C603.733 434.347 566.613 416 526.507 416z"/></svg>