<svg viewBox="0 0 1024 1024" xmlns="http://www.w3.org/2000/svg"><path d="M481 53.4c-7 2-17.2 10-22.6 18L453 79l-1 88.8-1 88.6-22 12.8-22 12.6-2.2-6.4c-4.8-13.6-14.8-31-23.8-40.8-29-32.4-73-29-120.8 9.4-17.6 14.2-20.6 18-20.6 27.2s5 16.4 13 18.4c9.8 2.6 13.4 1.2 29.4-12 17.4-13.8 40-25.6 49.6-25.6 18.8 0 32.8 20.2 42.6 61.2 4.4 19 9.8 54.2 9.8 66 0 7.6-.6 8.6-11.4 16-26.8 18.4-48.8 38.2-73.8 67.2-16 18.4-17.4 19.6-32.8 25.4-20.4 8-36.6 11.6-57.8 13.4-13.2 1.2-17.8 2.4-22.2 6-11 9.4-8.2 26.4 5.4 32 7.6 3.2 24.8 2.8 46.6-1.2 5-1 9.4-1.4 9.6-1 .4.4-3.2 9.6-8.2 20.4-9.8 21.6-23.4 60.6-27.6 79.4-2 9.4-3.6 12-7.6 13.8-34.8 14.2-57 27.8-76.2 46.2-11 10.4-12 12-12 20 0 12 7.2 19.2 19.2 19.2 7.8 0 10-1.2 22.6-12.6 7.6-6.8 20.4-16 28.4-20.2l14.4-7.8-1.2 7.8c-2.6 15.2-5.8 69.6-5 81.4.8 10 1.8 12.8 6.4 16.8 7.8 6.8 19.8 6.4 27-1 5.4-5.4 5.6-6 7-37 1.4-33 5.2-67.6 10.4-93.4 4.8-24 3.6-23.4 16.6-10 17.8 18 26.4 20.2 37.6 9 6.4-6.4 7-8 6-15.2-.8-6.4-3.2-10.4-11.8-18.8-11.6-11.4-25.6-33.4-25.6-40 0-6 13.8-35.6 26.6-57.4 21.2-36 48.6-68.2 79.4-93.6l13-10.6 1 93.8c2 178.6-1.4 255.4-13 304.4-9.6 40-14.2 44.4-57 52.4-32.4 6-42.8 9-79 23.2-68.6 27-98 30.8-128.2 16.6-21.4-10.2-47.6-43-59-74-33-90.4 7.8-251.4 105.6-415.2 9.6-16 10.8-19.4 9.8-25.4C165.6 401 156 392 149 392c-10.2 0-15.2 4.6-28 25.8-7 11.6-19 33.4-26.8 48.2-79 149.4-110 287.2-86 379.6 12.2 46.8 48.2 95.2 83.4 113C132.6 979 174.4 976 247 947c37.6-14.8 45.6-17.2 79.4-24 14-2.8 30.4-6.8 36.4-9 12.8-4.8 29.2-18.8 36.2-30.8 13.6-23 22.2-65.4 27-132.2 2.2-29.4 2.8-318 .8-333.2l-1.2-8.8 43.4-24.8 43.2-24.6 37.4 21.6c20.6 11.8 40 23 43 24.6 5.2 3 5.6 3.8 4.6 12.2-2.2 16.2-1.4 302 .8 333 4 58.4 12.4 102.8 24 126.4 7.8 15.6 24 30.8 39.2 36.4 6 2.4 22.4 6.4 36.4 9.2 33.6 6.8 41.6 9.2 79.8 24.2 72.8 28.8 114 31.8 155 11.4 26.6-13.4 54.8-45.4 71.6-81.2 29-62.2 25.8-152.2-9.2-260C953.6 491.2 872.6 351.6 794 272c-43-43.4-77.2-62.2-108.6-59.4-28.4 2.6-53.6 26.4-66.2 62.8l-2.2 6.4-22-12.8-22-12.8-1-88.6-1-88.6-5.8-8.6C554.6 55 549.4 53 515 52.6c-16.4-.2-31.8.2-34 .8zm51 58.6v20h-40V92h40v20zm0 80v20h-40v-40h40v20zm0 70.8c0 7.6 1.2 12 4 15.8 2.2 2.8 18.4 13.4 36 23.4 17.6 10.2 32.6 19.2 33 20 1 1.4-3 40-4.2 41.6-.2.4-19.2-10.2-42.2-23.4-23-13.4-44-24.2-46.6-24.2-2.6 0-23.6 10.8-46.6 24.2-23 13.2-42 23.8-42.2 23.4-1.2-1.6-5.2-40.2-4.2-41.6.4-.8 15.4-9.8 33-20 17.6-10 33.8-20.6 36-23.4 2.8-3.8 4-8.2 4-15.8V252h40v10.8zm179.8-4.8c19.8 9.4 36.2 23 64.8 54 79 84.8 159 233.4 190.4 353 25.8 97.8 22 166.8-11.8 217.8-13.8 20.8-27.6 33.8-44.8 41.8-12.6 6-14.6 6.4-35.4 6.2-26-.2-39.8-3.8-90-23.6-32.2-12.8-50.8-18.2-83.8-24.2-37.2-6.8-42.8-12.4-52.2-51.4-11.4-48.6-15-128.4-13-305.4l1-93 18.4 15.6c33.8 28.4 66 70.2 87.6 114.2 14.8 30 15.2 32.8 5.6 48.8-4.2 7-12.4 17.4-18 23-15.6 15.2-16.4 29.8-2.4 38 10 6 18.2 3 32.8-12 14.2-14.4 13-15 17.8 9.2 5.2 25.6 9 59.6 10.4 93 1.4 31.4 1.6 32 7 37.4 7.2 7.4 19.2 7.8 27 1 4.6-4 5.6-6.8 6.4-16.8.8-11.6-2.4-66.2-5-81.2l-1.2-7.8 8.8 4.4c13.2 6.8 25.6 15.6 37.2 26.4 9.2 8.4 11.4 9.6 19.2 9.6 12.2 0 19.4-7 19.4-19.2 0-8-1-9.6-12-20-19.2-18.4-41.4-31.8-76-46.2-4.2-1.8-5.8-5-9.8-20.8-6-24.2-18.6-58.4-28.6-78.6-7.6-15.2-7.8-15.8-3.2-14.6 2.6.8 14 2.4 25.6 3.6 18.2 2 22 1.8 28.6-.8 13.6-5.8 16.4-22.8 5.4-32.2-4.4-3.6-9-4.8-22.2-6-21.2-1.8-37.4-5.4-57.8-13.4-15.4-5.8-16.8-7-32.8-25.4-24.4-28.4-55.6-56.4-77.8-70.2-6.6-4-7.4-5.4-7.4-12.8 0-12 5.4-47 9.8-66.2 5-20.8 10.8-35.4 18.4-46.4 11-16.2 22.8-18.6 43.6-8.8zm-521.2 62c-6.4 2.6-11.4 11.4-11.2 19.6.2 9.8 9.6 18.4 19.8 18.4 16 0 25-20.6 14.4-33-5-5.6-15.8-8-23-5z"/></svg>