<svg viewBox="0 0 1024 1024" xmlns="http://www.w3.org/2000/svg"><path d="M533.333 192v216.576q46.336 14.933 69.974 98.048 8.15 28.544 13.098 38.485 3.968 7.934 1.152 16.297-2.773 8.405-10.666 12.33-7.934 3.97-16.297 1.153-8.405-2.773-12.33-10.666-6.785-13.525-15.958-45.91Q542.295 448 512 448q-30.293 0-50.304 70.315-9.173 32.384-15.957 45.91-3.928 7.892-12.333 10.666-8.363 2.818-16.3-1.15-7.892-3.926-10.665-12.33-2.816-8.364 1.152-16.3 4.95-9.94 13.098-38.485 23.638-83.115 69.974-98.048V192q0-8.832 6.23-15.104 6.27-6.23 15.103-6.23 8.83 0 15.103 6.23 6.23 6.272 6.23 15.104zm-88.405 544.3q-37.845 63.145-153.557 63.145-153.684.043-155.902-151.466-2.304-160.47 69.162-267.096 74.623-111.36 168.405-81.706 53.162 16.81 50.858 87.423-3.157 96.555 28.587 196.95 29.013 91.82-7.552 152.747zm-36.565-21.932q26.666-44.46 3.456-117.93-33.965-107.393-30.55-211.243 1.236-38.272-21.08-45.355-63.316-20.01-120.15 64.768Q176 500.224 178.134 647.38q1.623 109.4 113.24 109.4 91.52 0 116.99-42.412zm170.71 21.93q-36.566-60.927-7.553-152.746 31.744-100.395 28.587-196.95-2.304-70.613 50.858-87.423 93.782-29.656 168.406 81.704 71.468 106.624 69.164 267.094-2.218 151.508-155.904 151.465-115.713 0-153.558-63.146zm36.564-21.93q25.472 42.41 116.992 42.41 111.614 0 113.236-109.397 2.134-147.155-61.91-242.77-56.83-84.78-120.15-64.768-22.313 7.083-21.075 45.355 3.415 103.85-30.55 211.242-23.21 73.47 3.458 117.93z"/></svg>