<svg viewBox="0 0 1024 1024" xmlns="http://www.w3.org/2000/svg"><path d="M323.79 849.92q-111.904 0-145.082-16.67-44.974-22.61-67.91-67.052-17-32.932-17-143.606V442.368q0-37.93 2.007-66.765-.082-.368-.163-.778-2.007-9.748 1.802-18.35 4.26-40.06 13.353-57.713 22.978-44.44 67.91-67.05 33.18-16.672 145.082-16.672h348.65q111.902 0 145.04 16.67 44.973 22.61 67.91 67.052 9.34 18.064 13.56 59.597 3.725 8.52 1.72 18.102l-.165.738q1.884 28.263 1.884 65.168v180.224q0 110.674-17 143.606-22.937 44.44-67.91 67.05-33.138 16.672-145.04 16.672zm0-61.44h348.65q97.32 0 117.433-10.117 27.156-13.64 40.96-40.346 10.117-19.66 10.117-115.425V442.368q0-8.15-.04-15.77L663.1 543.62q-84.253 55.256-118.25 63.284-45.63 10.773-91.3 0-33.997-8.028-118.333-63.324L155.32 424.96q-.082 8.356-.082 17.408v180.224q0 95.764 10.16 115.425 13.802 26.706 40.917 40.346 20.153 10.117 117.474 10.117zM159.047 353.812L369.05 492.298q75.16 49.275 98.59 54.805 31.58 7.454 63.12 0 23.43-5.53 98.672-54.846L837.386 355.37q-2.457-20.44-6.553-28.427-13.804-26.706-40.96-40.346Q769.76 276.48 672.44 276.48H323.79q-97.322 0-117.475 10.117-27.115 13.64-40.918 40.346-3.933 7.66-6.35 26.87z"/></svg>