<svg viewBox="0 0 1024 1024" xmlns="http://www.w3.org/2000/svg"><path d="M263.808 224h108.5l-90.367 90.88c-23.764 23.936-47.53 47.66-71.337 71.168-.427.427-.64.94-.64 1.58-.043 66.217-.043 134.57-.043 204.927 0 13.14-.043 26.282-.128 39.424-.043 1.96 0 4.01.085 6.228.086 1.664.81 2.603 1.92 3.712 54.187 52.693 107.094 104.32 160.086 157.184.34.34.256.512-.17.512-37.804.128-73.857.128-108.204 0-.555 0-1.025-.213-1.41-.597-40.148-40.065-81.407-81.836-123.86-125.228-1.58-1.62-3.243-3.413-4.907-5.376-.64-.725-.98-1.92-.98-3.54.34-101.25.34-199.255.042-294.06-.043-3.84 0-7.808.085-11.86.043-2.007 2.26-4.055 3.627-5.505 13.78-14.42 30.037-31.018 48.768-49.877 26.41-26.538 52.693-53.077 78.933-79.573zm133.888 0h229.42c23.167 22.74 38.527 37.973 46.08 45.568 42.964 43.435 84.095 84.907 123.52 124.416.68.725 1.15 1.493 1.28 2.26.425 2.135.596 3.927.596 5.377-.17 63.404-.17 129.367-.043 197.89.042 2.773.042 5.59.085 8.405.085 5.717.128 11.477 0 17.11-.043.298-.043.596-.043.895-.043 2.645-.085 4.565-2.22 6.656-52.308 52.352-104.49 104.747-156.457 157.27-2.518 2.517-4.95 4.863-7.34 6.954-2.09 1.835-4.394 2.645-7.252 2.73-13.142.513-26.112.385-38.23-.042-.384-.043-.725-.213-1.024-.597-.427-.51-.64-.81-.683-.81-22.656-23.38-44.416-46.336-65.366-68.907-.255-.34-.68-.512-1.108-.554l-10.368-.6c-.3-.04-.597.044-.853.13-.298.127-.554.255-.725.47-18.773 19.284-36.224 37.417-52.437 54.356-5.12 5.333-10.07 10.667-14.89 16.043-.13.127-.3.255-.513.34-.17.085-.384.128-.554.128-14.037.213-27.733.256-41.087.17-.94-.042-1.75-.383-2.432-1.023-74.282-74.454-129.237-129.664-164.906-165.76-2.688-2.73-3.968-7.083-3.968-10.88.043-73.856.043-146.86 0-219.008 0-4.608 2.475-8.662 5.547-11.904 3.626-3.798 7.424-7.85 11.22-11.648 36.78-36.864 73.6-73.686 110.465-110.507 14.848-14.89 29.525-29.952 44.288-44.928zM512.98 340.31c.172-.17.343-.17.47 0 19.37 19.797 37.035 37.717 52.993 53.76 52.224 52.565 97.664 98.474 136.32 137.77.042.043.085.085.128.17.043.043.043.13.043.214 0 .043 0 .128-.042.213-.042.043-.085.086-.127.17-16.94 16.556-33.878 33.28-50.774 50.134L522.794 711.937c-2.902 2.9-6.23 4.992-9.558 7.21-.17.13-.298.257-.34.427-.044.214 0 .384.084.555l2.263 4.395c.042.085.085.17.17.213.086.043.214.085.3.128.084 0 .212 0 .298-.043.086-.04.17-.084.257-.17l2.39-2.687c.212-.256.51-.384.81-.384 27.008.297 52.693.297 77.14 0 .64 0 1.196-.257 1.665-.727 40.235-40.832 80.512-80.768 120.96-120.96.896-.896 1.58-1.62 1.62-3.03.044-1.62.087-3.2.087-4.65.127-55.552.17-110.634.04-165.205 0-.725-.255-1.323-.724-1.835q-60.16-61.184-120.448-121.002c-.384-.383-.81-.597-1.365-.597-57.302.043-114.39.043-171.307 0-.384 0-.768.086-1.11.256-.383.127-.682.34-.938.64-39.936 40.96-79.787 80.47-120.49 121.557-.342.34-.513.81-.513 1.28v170.24c0 .213.086.426.256.597 43.35 43.477 82.52 82.475 117.505 117.035 1.878 1.876 3.883 3.753 5.974 5.63.51.47 1.236.77 1.96.81 4.908.087 9.73.172 14.423.13 24.15-.043 46.55-.043 67.242.042.854 0 .982-.3.384-.896-63.318-62.507-125.185-124.928-189.014-188.373-.043-.086-.085-.17-.085-.256s0-.17.086-.256c3.072-3.626 5.845-6.74 8.405-9.3 45.44-45.697 90.88-91.435 136.236-137.174 15.66-15.83 30.848-30.89 45.525-45.227zM654.038 224H762.54c14.08 14.763 28.33 29.355 42.793 43.733 11.904 11.862 23.254 24.192 35.072 35.926 17.195 16.98 33.92 33.407 49.75 51.028.512.597.853 1.28 1.066 2.048 1.367 5.717 1.196 12.032 1.025 18.133-.042 1.92-.085 3.84-.085 5.717-.043 91.434-.043 184.277 0 278.485 0 .853.043 1.75.085 2.645.256 5.206-2.218 9.728-5.802 13.312-40.107 40.106-79.744 80.383-118.998 120.83-3.242 3.372-8.832 4.012-13.354 3.97-33.92-.3-67.413-.043-100.82-.3q-.342-.042-.385-.127-.042-.128.214-.342c53.588-52.052 106.153-103.593 157.737-154.58 2.603-2.56 4.14-5.547 4.694-8.875.13-.81.17-4.053.17-9.77-.212-77.142-.255-149.42-.084-216.918 0-7.296-.17-14.208-.47-20.693-.042-1.11-.51-2.133-1.365-3.072-1.492-1.58-3.113-3.285-4.948-5.12-60.5-60.843-111.66-112.17-153.43-153.984-.34-.34-.682-.64-1.11-.896-.895-.683-1.023-1.067-.255-1.152z"/></svg>