<svg viewBox="0 0 1024 1024" xmlns="http://www.w3.org/2000/svg"><path d="M640 970.667H384C152.32 970.667 53.333 871.68 53.333 640V384C53.333 152.32 152.32 53.333 384 53.333h256c231.68 0 330.667 98.987 330.667 330.667v256c0 231.68-98.987 330.667-330.667 330.667zM384 117.333c-196.693 0-266.667 69.974-266.667 266.667v256c0 196.693 69.974 266.667 266.667 266.667h256c196.693 0 266.667-69.974 266.667-266.667V384c0-196.693-69.974-266.667-266.667-266.667H384zM256 800c-8.107 0-16.213-2.987-22.613-9.387-12.374-12.373-12.374-32.853 0-45.226l512-512c12.373-12.374 32.853-12.374 45.226 0 12.374 12.373 12.374 32.853 0 45.226l-512 512c-6.4 6.4-14.506 9.387-22.613 9.387zm512-341.333c-17.493 0-32-14.507-32-32V288H597.333c-17.493 0-32-14.507-32-32 0-17.493 14.507-32 32-32H768c17.493 0 32 14.507 32 32v170.667c0 17.493-14.507 32-32 32zM426.667 800H256c-17.493 0-32-14.507-32-32V597.333c0-17.493 14.507-32 32-32 17.493 0 32 14.507 32 32V736h138.667c17.493 0 32 14.507 32 32 0 17.493-14.507 32-32 32z"/></svg>