<svg viewBox="0 0 1024 1024" xmlns="http://www.w3.org/2000/svg"><path d="M842.667 384q0 100.78-55.296 183.723-82.09 121.642-225.493 142.72-24.277 4.224-49.877 4.224t-49.877-4.224q-143.403-21.078-225.408-142.55Q181.333 484.78 181.333 384q0-137.088 96.768-233.9Q374.913 53.334 512 53.334q137.088 0 233.9 96.768 96.767 96.812 96.767 233.9zm-64 0q0-110.592-78.038-188.63Q622.59 117.334 512 117.334T323.37 195.37Q245.334 273.41 245.334 384q0 81.408 44.46 148.053 66.303 98.262 182.015 115.115.47.043.94.128 19.028 3.37 39.252 3.37 20.224 0 39.253-3.37.47-.085.94-.128 115.71-16.853 181.93-114.944Q778.667 465.408 778.667 384zm135.38 435.2l-70.4 16.64q-6.442 1.58-7.68 7.168l-15.06 63.403q-10.667 44.8-55.467 55.34-44.757 10.538-74.41-24.662L512.042 731.435 332.63 937.9q-29.27 34.815-74.027 24.276-44.843-10.54-55.51-55.38l-14.933-62.68q-1.536-6.484-7.38-7.764l-70.785-16.725q-42.582-10.112-54.614-52.31-12.073-42.24 18.86-73.13l166.4-166.4q9.344-9.387 22.613-9.387 13.27 0 22.614 9.387 2.176 2.176 3.925 4.693 66.304 98.22 182.016 115.115.47.042.94.128 16.51 2.944 33.96 3.328 3.628-.597 7.51-.298 1.41.085 2.774.3 17.58-.385 34.26-3.33.47-.085.94-.127Q667.947 630.7 734.208 532.48q7.424-10.965 20.437-13.483 13.014-2.56 24.022 4.864 2.517 1.75 4.693 3.927l166.4 166.4q31.02 30.42 18.86 72.79-12.033 42.154-54.572 52.223zM447.276 708.352q-114.048-21.42-187.435-109.27l-140.373 140.33q-4.267 4.31-2.56 10.37 1.75 6.1 7.808 7.55l69.973 16.556q44.672 9.94 55.765 55.38l14.934 62.764q1.493 6.357 7.893 7.85 6.443 1.537 11.05-3.967l162.945-187.563zm452.01 48.555h.043q6.016-1.45 7.765-7.552 1.664-5.76-2.56-9.942L764.16 599.083q-73.387 87.85-187.35 109.27l163.2 187.52q4.31 5.12 10.753 3.583 6.357-1.493 7.85-7.893l14.806-62.08q9.684-44.8 55.508-55.936zm-333.91-516.054l24.15 48.342 43.82 7.338q41.002 6.656 51.37 39.254 10.368 32.426-19.115 61.866l-33.62 33.664 9.727 41.856q10.922 46.507-18.134 67.84-29.14 21.376-70.4-3.242l-40.32-23.807-40.49 23.893q-41.216 24.064-70.102 3.072-29.183-21.205-18.26-67.797l9.728-41.813-33.62-33.664q-29.484-29.44-19.116-61.78 10.283-32.086 51.115-39.297l43.605-7.34 23.936-47.913q17.792-38.656 52.523-38.656 34.134 0 53.206 38.186zm-52.735 37.632l-20.65 41.302q-13.61 27.22-43.393 32.213l-37.376 6.272 29.527 29.568q22.784 22.784 15.786 55.893l-7.85 33.792 33.408-19.712q30.763-18.816 61.1-.256l33.834 19.968-7.765-33.28q-8.15-32.597 15.7-56.405l29.525-29.568-37.077-6.23q-30.38-4.82-44.117-32.255l-20.65-41.302zm2.603 234.07q.128-.086.213-.128l-.213.128zm116.18-83.627q-.042-.128-.042-.213l.044.213zm-120.618 83.84l-.128-.085q.086.042.128.085z"/></svg>