<svg width="24" height="24" viewBox="0 0 24 24" fill="none" xmlns="http://www.w3.org/2000/svg">
<path d="M22.3461 10.6787C22.3487 10.6758 22.3494 10.6718 22.352 10.6685C22.8027 10.1623 23.0343 9.49809 22.9959 8.82145C22.9575 8.14481 22.6524 7.51101 22.1474 7.05904L22.1444 7.05501L22.1408 7.05207C22.2229 6.93363 22.2955 6.80859 22.3579 6.67841C22.39 6.61659 22.4184 6.55291 22.4429 6.48772C22.5644 6.1667 22.6288 5.82691 22.6333 5.4837C22.6325 4.75453 22.3425 4.05544 21.8269 3.53984C21.3113 3.02424 20.6122 2.73423 19.883 2.73345C19.817 2.73345 19.747 2.73749 19.6769 2.74152C19.617 2.74631 19.5573 2.75328 19.498 2.76242C19.3463 2.78237 19.1966 2.8155 19.0506 2.86143L19.0458 2.85557C19.0458 2.85557 19.0422 2.85337 19.0407 2.85153C18.6348 2.39667 18.0792 2.10243 17.4749 2.02223C16.8706 1.94203 16.2575 2.08118 15.747 2.41443C15.7364 2.42029 15.7246 2.42103 15.7144 2.42799C15.7041 2.43496 15.6902 2.44706 15.6777 2.45586C15.6744 2.45806 15.6707 2.45953 15.6678 2.46173C15.3365 2.23061 14.9554 2.08092 14.5554 2.02485C14.1553 1.96878 13.7477 2.0079 13.3657 2.13904C12.9836 2.27018 12.6379 2.48963 12.3567 2.77955C12.0754 3.06947 11.8665 3.42167 11.747 3.80752C11.1591 3.22737 10.4624 2.76909 9.6969 2.45898C8.93138 2.14888 8.11213 1.99307 7.28622 2.0005C6.4603 2.00792 5.64399 2.17845 4.88417 2.50227C4.12435 2.82609 3.43598 3.29683 2.85862 3.88746C0.380461 6.40888 0.380461 10.4514 2.85862 12.9732L11.4302 21.6434C11.4976 21.7096 11.5808 21.7573 11.6719 21.782C11.7631 21.8067 11.859 21.8076 11.9506 21.7844C12.0421 21.7613 12.1262 21.715 12.1946 21.65C12.2631 21.5849 12.3137 21.5034 12.3415 21.4131C12.3451 21.4157 12.3481 21.419 12.3517 21.4219C12.6229 21.6306 12.9471 21.7591 13.2876 21.7929C13.6281 21.8267 13.9713 21.7643 14.2781 21.613C14.585 21.4617 14.8434 21.2273 15.0238 20.9367C15.2043 20.646 15.2997 20.3105 15.2993 19.9683C15.9798 19.9675 16.6322 19.6967 17.1134 19.2155C17.5946 18.7343 17.8653 18.0819 17.8662 17.4014C18.5467 17.4006 19.1991 17.1298 19.6803 16.6486C20.1615 16.1674 20.4322 15.5151 20.4331 14.8345V14.8085C20.4415 14.8085 20.4499 14.8048 20.4584 14.8037C20.4668 14.8026 20.4774 14.8037 20.4877 14.8012C20.498 14.7986 20.4998 14.7957 20.5068 14.7942C21.1016 14.6902 21.6408 14.3799 22.0297 13.9178C22.4186 13.4558 22.6323 12.8715 22.6333 12.2676C22.6328 11.9121 22.559 11.5604 22.4165 11.2346C22.3526 11.095 22.2798 10.9597 22.1983 10.8294C22.2372 10.7928 22.2717 10.7528 22.3084 10.7139C22.3205 10.7015 22.3348 10.6908 22.3461 10.6787ZM11.6323 20.8048L3.38153 12.4576C1.18427 10.2222 1.18427 6.63807 3.38153 4.40267C3.898 3.8742 4.51488 3.45428 5.19593 3.16759C5.87697 2.88089 6.60845 2.73321 7.34738 2.73321C8.08632 2.73321 8.8178 2.88089 9.49884 3.16759C10.1799 3.45428 10.7968 3.8742 11.3132 4.40267L11.633 4.72683V20.8048H11.6323ZM21.7466 11.5342C21.8232 11.7114 21.8716 11.8991 21.8907 12.0913V12.096C21.8966 12.153 21.8997 12.2103 21.8999 12.2676C21.8988 12.5096 21.8501 12.7489 21.7565 12.972C21.6629 13.1951 21.5263 13.3976 21.3544 13.5679C21.1825 13.7381 20.9788 13.8729 20.7548 13.9644C20.5308 14.0559 20.2911 14.1023 20.0491 14.1011C19.6862 14.0988 19.3323 13.988 19.0329 13.7829C18.7335 13.5779 18.5022 13.288 18.3689 12.9504C18.8624 12.8443 19.3041 12.571 19.6193 12.1767C19.6801 12.1007 19.7083 12.0038 19.6975 11.9071C19.6868 11.8104 19.6381 11.7219 19.5621 11.6611C19.4862 11.6003 19.3892 11.5722 19.2925 11.5829C19.1958 11.5937 19.1073 11.6424 19.0466 11.7183C18.8036 12.022 18.4499 12.2167 18.0634 12.2597C17.6769 12.3027 17.2891 12.1904 16.9853 11.9475C16.9477 11.9174 16.9045 11.895 16.8582 11.8816C16.8119 11.8682 16.7635 11.8641 16.7156 11.8694C16.6677 11.8747 16.6213 11.8894 16.5791 11.9127C16.5369 11.9359 16.4997 11.9673 16.4696 12.0049C16.4395 12.0425 16.4171 12.0857 16.4037 12.132C16.3903 12.1783 16.3861 12.2268 16.3915 12.2747C16.3968 12.3226 16.4115 12.3689 16.4347 12.4111C16.458 12.4534 16.4893 12.4906 16.527 12.5207C16.8372 12.7677 17.2089 12.9256 17.6021 12.9772C17.7362 13.4526 18.0057 13.8787 18.3776 14.2036C18.7496 14.5286 19.208 14.7383 19.6971 14.8074C19.6971 14.8173 19.6997 14.8261 19.6997 14.836C19.6991 15.3221 19.5057 15.7881 19.162 16.1318C18.8183 16.4756 18.3523 16.6689 17.8662 16.6695C17.8247 16.6695 17.7928 16.6618 17.7525 16.6596C17.6436 16.305 17.4599 15.9779 17.2138 15.7003C16.9677 15.4227 16.665 15.2012 16.326 15.0505C16.6118 14.6713 16.7663 14.2093 16.7661 13.7344C16.7661 13.6372 16.7274 13.5439 16.6587 13.4751C16.5899 13.4064 16.4966 13.3677 16.3994 13.3677C16.3021 13.3677 16.2088 13.4064 16.1401 13.4751C16.0713 13.5439 16.0327 13.6372 16.0327 13.7344C16.0327 14.1235 15.8781 14.4965 15.603 14.7716C15.328 15.0467 14.9549 15.2012 14.5659 15.2012C14.4686 15.2012 14.3753 15.2399 14.3066 15.3086C14.2378 15.3774 14.1992 15.4707 14.1992 15.5679C14.1992 15.6652 14.2378 15.7585 14.3066 15.8272C14.3753 15.896 14.4686 15.9346 14.5659 15.9346C14.9641 15.9346 15.3543 15.8254 15.6953 15.6193C16.1361 15.716 16.5256 15.9723 16.7888 16.3389C17.0521 16.7054 17.1705 17.1564 17.1214 17.605C17.0722 18.0536 16.859 18.4682 16.5226 18.7691C16.1863 19.07 15.7506 19.2359 15.2993 19.2349C15.1933 19.2336 15.0875 19.2235 14.9832 19.2049C14.7343 19.1624 14.4971 19.0686 14.2864 18.9295C14.2054 18.8756 14.1063 18.8562 14.011 18.8754C13.9156 18.8946 13.8318 18.951 13.778 19.032C13.7242 19.113 13.7047 19.2121 13.724 19.3074C13.7432 19.4028 13.7995 19.4866 13.8805 19.5404C14.0898 19.6797 14.3185 19.7873 14.5593 19.8598C14.5626 19.8965 14.5666 19.9309 14.5666 19.9698C14.5671 20.1755 14.5098 20.3771 14.4012 20.5518C14.2926 20.7265 14.1372 20.8671 13.9525 20.9577C13.7679 21.0483 13.5615 21.0852 13.357 21.0642C13.1524 21.0432 12.9578 20.9651 12.7954 20.8389C12.6605 20.7377 12.5513 20.6062 12.4766 20.4549C12.402 20.3037 12.3639 20.137 12.3657 19.9683V4.56695C12.3655 4.25904 12.4429 3.95604 12.5907 3.68592C12.7385 3.4158 12.952 3.18726 13.2114 3.02138C13.4708 2.8555 13.7679 2.75763 14.0751 2.73679C14.3823 2.71595 14.6898 2.77281 14.9692 2.90214C15.0206 2.92707 15.0704 2.95494 15.1188 2.98501C14.8278 3.3526 14.6436 3.79321 14.5864 4.25856C14.3262 4.31499 14.0872 4.44375 13.897 4.63002C13.862 4.66385 13.834 4.70431 13.8148 4.74905C13.7956 4.79379 13.7855 4.84191 13.7851 4.8906C13.7846 4.93929 13.7939 4.98758 13.8124 5.03264C13.8308 5.07771 13.858 5.11865 13.8925 5.15308C13.9269 5.18751 13.9678 5.21474 14.0129 5.23318C14.058 5.25162 14.1063 5.2609 14.1549 5.26047C14.2036 5.26005 14.2517 5.24993 14.2965 5.23072C14.3412 5.2115 14.3817 5.18356 14.4155 5.14854C14.5552 5.01512 14.7409 4.94067 14.934 4.94067C15.1272 4.94067 15.3129 5.01512 15.4525 5.14854C15.4864 5.18356 15.5268 5.2115 15.5716 5.23072C15.6163 5.24993 15.6644 5.26005 15.7131 5.26047C15.7618 5.2609 15.8101 5.25162 15.8552 5.23318C15.9002 5.21474 15.9412 5.18751 15.9756 5.15308C16.01 5.11865 16.0373 5.07771 16.0557 5.03264C16.0741 4.98758 16.0834 4.93929 16.083 4.8906C16.0826 4.84191 16.0725 4.79379 16.0532 4.74905C16.034 4.70431 16.0061 4.66385 15.9711 4.63002C15.7922 4.45541 15.5701 4.33162 15.3275 4.27139C15.3943 3.86015 15.5998 3.48413 15.9098 3.20576L15.9138 3.2032C16.2477 2.90065 16.6822 2.7332 17.1328 2.73345C17.6186 2.73491 18.0841 2.92854 18.4276 3.27208C18.7712 3.61561 18.9648 4.08112 18.9663 4.56695C18.9663 4.66421 19.0049 4.75748 19.0737 4.82625C19.1424 4.89502 19.2357 4.93365 19.333 4.93365C19.4302 4.93365 19.5235 4.89502 19.5923 4.82625C19.661 4.75748 19.6997 4.66421 19.6997 4.56695C19.6991 4.20366 19.6212 3.84465 19.4712 3.51379C19.5137 3.50536 19.5555 3.49436 19.5992 3.48886C19.6428 3.48336 19.6843 3.47602 19.7253 3.47345C20.0025 3.4521 20.2811 3.4882 20.5437 3.57951C20.8062 3.67081 21.0471 3.81534 21.2513 4.00405C21.4554 4.19276 21.6184 4.42158 21.73 4.67619C21.8416 4.9308 21.8994 5.20571 21.8999 5.4837C21.8957 5.74264 21.8461 5.99883 21.7532 6.24057C21.7367 6.28165 21.7179 6.32181 21.6971 6.36085C21.6484 6.46066 21.5912 6.55611 21.5262 6.64614C21.167 6.47526 20.7727 6.39136 20.3751 6.40124C19.9775 6.41111 19.5878 6.51448 19.2376 6.70298C18.9396 6.50579 18.5902 6.40059 18.2329 6.40045C18.1356 6.40045 18.0423 6.43908 17.9736 6.50785C17.9048 6.57662 17.8662 6.66989 17.8662 6.76715C17.8662 6.8644 17.9048 6.95768 17.9736 7.02644C18.0423 7.09521 18.1356 7.13385 18.2329 7.13385C18.5246 7.13385 18.8044 7.24975 19.0107 7.45606C19.2171 7.66237 19.333 7.94218 19.333 8.23395C19.333 8.3312 19.3716 8.42447 19.4404 8.49324C19.5091 8.56201 19.6024 8.60065 19.6997 8.60065C19.7969 8.60065 19.8902 8.56201 19.959 8.49324C20.0277 8.42447 20.0664 8.3312 20.0664 8.23395C20.0654 7.88986 19.9667 7.55313 19.7818 7.26293C20.0912 7.14877 20.4252 7.11836 20.7502 7.17477C21.0751 7.23118 21.3793 7.3724 21.6322 7.58416C21.8399 7.76273 22.0048 7.98582 22.1145 8.23686C22.2242 8.4879 22.276 8.76044 22.2659 9.03422C22.2558 9.308 22.1842 9.576 22.0563 9.81829C21.9284 10.0606 21.7476 10.271 21.5273 10.4338C21.2954 10.6085 21.0253 10.7256 20.7392 10.7755C20.645 10.7933 20.5614 10.8474 20.5065 10.9261C20.4516 11.0048 20.4298 11.1019 20.4457 11.1966C20.4615 11.2912 20.5139 11.3759 20.5915 11.4323C20.6691 11.4888 20.7657 11.5126 20.8606 11.4987C21.1139 11.454 21.3589 11.3713 21.5874 11.2534C21.656 11.3678 21.7268 11.4928 21.7466 11.5342Z" fill="black"/>
<path d="M16.0328 7.86719C15.3523 7.86807 14.6999 8.13879 14.2187 8.61999C13.7375 9.10118 13.4667 9.75358 13.4659 10.4341C13.4659 10.5313 13.5045 10.6246 13.5733 10.6934C13.642 10.7622 13.7353 10.8008 13.8326 10.8008C13.9298 10.8008 14.0231 10.7622 14.0919 10.6934C14.1606 10.6246 14.1993 10.5313 14.1993 10.4341C14.1999 9.948 14.3932 9.48198 14.7369 9.13826C15.0807 8.79453 15.5467 8.60118 16.0328 8.60059C16.13 8.60059 16.2233 8.56196 16.2921 8.49319C16.3608 8.42442 16.3995 8.33115 16.3995 8.23389C16.3995 8.13664 16.3608 8.04337 16.2921 7.9746C16.2233 7.90583 16.13 7.86719 16.0328 7.86719ZM7.34639 3.4668C6.70388 3.46597 6.06774 3.5941 5.47565 3.84359C4.88356 4.09309 4.34756 4.45888 3.89941 4.9193C3.02702 5.80222 2.51615 6.97934 2.46709 8.21959C2.46517 8.26779 2.47278 8.31589 2.48949 8.36113C2.50619 8.40638 2.53165 8.44789 2.56442 8.48328C2.59719 8.51867 2.63662 8.54725 2.68045 8.56738C2.72428 8.58751 2.77165 8.5988 2.81985 8.60059H2.83562C2.93026 8.60068 3.02127 8.56416 3.08962 8.49869C3.15796 8.43322 3.19834 8.34386 3.20232 8.2493C3.24413 7.19134 3.67994 6.18724 4.42416 5.43414C4.80403 5.04356 5.25836 4.73312 5.76029 4.52117C6.26221 4.30923 6.80155 4.20008 7.34639 4.2002C7.44364 4.2002 7.53692 4.16157 7.60568 4.0928C7.67445 4.02403 7.71309 3.93076 7.71309 3.8335C7.71309 3.73625 7.67445 3.64297 7.60568 3.5742C7.53692 3.50544 7.44364 3.4668 7.34639 3.4668ZM3.35963 9.60132C3.34788 9.55355 3.32665 9.50864 3.29718 9.46926C3.26772 9.42987 3.23064 9.39681 3.18814 9.37205C3.14564 9.3473 3.09859 9.33134 3.0498 9.32514C3.001 9.31893 2.95146 9.32261 2.90412 9.33594C2.85677 9.34928 2.8126 9.37201 2.77422 9.40277C2.73583 9.43353 2.70403 9.4717 2.68071 9.515C2.65738 9.5583 2.64301 9.60586 2.63843 9.65483C2.63386 9.7038 2.63919 9.7532 2.6541 9.80007C2.69187 9.93391 2.73478 10.0659 2.78391 10.1965C2.81815 10.2875 2.88714 10.3612 2.97572 10.4014C3.06429 10.4415 3.16519 10.4449 3.25622 10.4106C3.34725 10.3764 3.42096 10.3074 3.46112 10.2188C3.50128 10.1302 3.50461 10.0293 3.47038 9.93831C3.42857 9.82757 3.3919 9.71463 3.35963 9.60132Z" fill="black"/>
</svg>
