<svg viewBox="0 0 1024 1024" xmlns="http://www.w3.org/2000/svg"><path d="M267.636 465.454h698.182q14.476 0 24.67 10.24 10.24 10.194 10.24 24.67 0 14.475-10.24 24.67-10.194 10.24-24.67 10.24H267.636q-14.475 0-24.67-10.24-10.24-10.195-10.24-24.67 0-14.476 10.24-24.67 10.195-10.24 24.67-10.24zM34.91 698.183h930.908q14.476 0 24.67 10.24 10.24 10.193 10.24 24.67 0 14.475-10.24 24.668Q980.293 768 965.817 768H34.908q-14.475 0-24.668-10.24Q0 747.567 0 733.09q0-14.475 10.24-24.668 10.193-10.24 24.67-10.24zM616.726 930.91h349.09q14.477 0 24.67 10.24 10.24 10.192 10.24 24.668 0 14.476-10.24 24.67-10.193 10.24-24.67 10.24h-349.09q-14.475 0-24.67-10.24-10.24-10.194-10.24-24.67t10.24-24.67q10.195-10.24 24.67-10.24z"/></svg>