<svg viewBox="0 0 1024 1024" xmlns="http://www.w3.org/2000/svg"><path d="M762.453 933.12c-13.226 0-26.453-3.413-38.4-10.667L552.96 820.907c-17.92-.427-35.84-1.707-52.907-4.267-11.52-1.707-21.333-9.387-25.6-20.48-4.266-11.093-2.133-23.04 5.547-32 28.16-32.853 42.667-72.107 42.667-113.92 0-103.253-90.88-187.307-202.667-187.307-41.813 0-81.92 11.52-115.627 33.707-9.386 5.973-20.906 6.827-31.146 2.133-9.814-4.693-17.067-14.08-18.347-25.173-1.28-11.947-2.133-23.893-2.133-36.267 0-211.626 183.466-383.573 408.746-383.573 225.28 0 408.747 171.947 408.747 383.573 0 116.054-53.76 222.72-148.48 295.68l14.507 116.054c3.413 29.013-9.387 56.32-33.707 72.106-11.947 7.68-26.027 11.947-40.107 11.947zM561.067 756.48c5.973-.427 11.946 1.28 17.066 4.693l178.774 106.24c4.693 2.987 8.533 1.707 11.093 0 2.133-1.28 5.547-4.693 4.693-10.666l-16.64-134.827c-1.28-11.947 3.84-23.467 13.227-30.293C856.32 630.613 906.24 537.6 906.24 436.48c0-176.213-154.453-319.573-344.747-319.573-183.04 0-333.226 133.12-344.32 300.373 32-12.373 66.56-19.2 102.4-19.2 147.2 0 266.667 112.64 266.667 251.307.427 37.546-8.533 73.813-25.173 107.093zM195.413 970.667c-11.093 0-21.76-2.987-31.573-9.387-19.2-12.373-29.44-33.707-26.88-56.32l8.533-65.707c-57.6-46.933-91.733-116.48-91.733-189.44 0-83.2 43.52-160.853 116.48-207.36 43.947-28.586 96-43.946 150.187-43.946 147.2 0 266.666 112.64 266.666 251.306 0 56.32-20.48 111.787-58.026 155.734-48.214 58.453-120.32 92.586-199.68 95.146L225.28 962.56c-9.387 5.547-19.627 8.107-29.867 8.107zM320 462.507c-41.813 0-81.92 11.52-115.627 33.706-54.613 34.987-87.04 92.16-87.04 153.6 0 59.307 29.014 113.494 80.214 148.48 9.813 6.827 14.933 18.347 13.653 30.294l-9.387 72.96 101.974-60.587c5.12-2.987 10.666-4.693 16.213-4.693 62.72 0 122.027-26.88 159.573-72.534 28.16-33.28 43.094-72.533 43.094-114.346 0-102.827-90.88-186.88-202.667-186.88z"/></svg>