<svg viewBox="0 0 1024 1024" xmlns="http://www.w3.org/2000/svg"><path d="M426.24 971.947c-25.6 0-49.92-12.8-66.56-35.414l-51.2-68.266c0 .426-2.133-.854-2.987-.854h-15.786c-145.92 0-236.374-39.68-236.374-236.373V460.373c0-179.626 109.654-226.56 201.814-234.666 10.24-1.28 22.186-1.707 34.56-1.707h273.066c154.454 0 236.374 81.92 236.374 236.373V631.04c0 12.373-.427 24.32-2.134 35.84-7.68 90.88-54.613 200.533-234.24 200.533h-17.066l-52.907 69.12c-16.64 22.614-40.96 35.414-66.56 35.414zM289.707 288c-9.814 0-19.2.427-28.16 1.28-98.987 8.533-144.214 62.72-144.214 171.093V631.04c0 146.347 45.227 172.373 172.374 172.373h17.066c19.2 0 40.96 10.667 52.907 26.027l51.2 68.693c9.387 12.8 21.333 12.8 30.72 0l51.2-68.266c12.373-16.64 32-26.454 52.907-26.454h17.066c108.374 0 162.56-45.653 170.667-142.933 1.28-10.24 1.707-19.627 1.707-29.44V460.373c0-119.04-53.334-172.373-172.374-172.373H289.707zM426.24 605.44c-23.893 0-42.667-19.2-42.667-42.667 0-23.466 19.2-42.666 42.667-42.666 23.467 0 42.667 19.2 42.667 42.666 0 23.467-18.774 42.667-42.667 42.667zm136.533 0c-23.893 0-42.666-19.2-42.666-42.667 0-23.466 19.2-42.666 42.666-42.666 23.467 0 42.667 19.2 42.667 42.666 0 23.467-19.2 42.667-42.667 42.667zm-272.64 0c-23.893 0-42.666-19.2-42.666-42.667 0-23.466 19.2-42.666 42.666-42.666 23.467 0 42.667 19.2 42.667 42.666 0 23.467-19.2 42.667-42.667 42.667zm475.307 89.6c-8.533 0-17.067-3.413-23.04-9.813-6.827-6.827-9.813-16.64-8.533-26.027 1.28-8.96 1.706-18.347 1.706-28.16V460.373C735.573 341.333 682.24 288 563.2 288H290.133c-9.813 0-19.2.427-28.16 1.28-9.386 1.28-19.2-2.133-26.026-8.533-6.827-6.827-10.667-16.214-9.814-25.6 7.68-92.16 55.04-201.814 234.667-201.814h273.067c154.453 0 236.373 81.92 236.373 236.374v170.666c0 179.627-109.653 226.56-201.813 234.667h-2.987zM295.253 224h267.52c154.454 0 236.374 81.92 236.374 236.373v165.12c72.533-17.92 106.666-71.253 106.666-165.12V289.707c0-119.04-53.333-172.374-172.373-172.374H460.373c-93.866 0-146.773 34.134-165.12 106.667z"/></svg>