<svg viewBox="0 0 1024 1024" xmlns="http://www.w3.org/2000/svg"><path d="M725.333 818.347h-160.98L382.506 939.264q-37.035 24.704-76.374 3.755-39.466-21.036-39.466-65.793v-59.99Q53.333 801.792 53.333 573.013v-256q0-245.333 245.334-245.333h426.666q245.334 0 245.334 245.333v256q0 245.334-245.334 245.334zm0-64q82.73 0 132.054-49.28 49.28-49.323 49.28-132.054v-256q0-82.73-49.28-132.053-49.323-49.28-132.054-49.28H298.667q-181.334 0-181.334 181.333v256q0 181.334 181.334 181.334 13.27 0 22.613 9.386 9.387 9.344 9.387 22.614v90.88q0 6.357 5.546 9.3 5.59 2.988 10.88-.51L536.96 759.722q8.02-5.376 17.707-5.376zM480 484.693v-8.96q0-48.81 49.664-83.072 21.163-14.463 21.163-29.14 0-16.17-11.307-27.52-11.35-11.307-27.52-11.307T484.48 336q-11.307 11.35-11.307 27.52 0 13.27-9.386 22.613-9.344 9.387-22.614 9.387-13.27 0-22.613-9.387-9.387-9.344-9.387-22.613 0-51.413 25.728-77.14 25.687-25.687 77.1-25.687 42.71 0 72.747 30.08 30.08 30.038 30.08 72.747 0 48.47-48.81 81.792Q544 460.544 544 475.732v8.96q0 13.27-9.387 22.615-9.344 9.386-22.613 9.386-13.27 0-22.613-9.386Q480 497.963 480 484.693zm31.787 69.974h.426q13.227 0 22.614 9.386 9.344 9.344 9.386 22.614-.042 13.27-9.386 22.613-9.387 9.387-22.614 9.387h-.426q-13.227 0-22.614-9.387-9.386-9.344-9.386-22.613 0-13.27 9.386-22.614 9.387-9.386 22.614-9.386z"/></svg>