<svg viewBox="0 0 1024 1024" xmlns="http://www.w3.org/2000/svg"><path d="M512 973.227c-29.44 0-57.173-14.934-76.8-40.96l-64-85.334c-1.28-1.706-6.4-3.84-8.533-4.266h-21.334c-177.92 0-288-48.214-288-288V341.333c0-188.586 99.414-288 288-288h341.334c188.586 0 288 99.414 288 288v213.334c0 188.586-99.414 288-288 288h-21.334c-3.413 0-6.4 1.706-8.533 4.266l-64 85.334c-19.627 26.026-47.36 40.96-76.8 40.96zM341.333 117.333c-152.746 0-224 71.254-224 224v213.334c0 192.853 66.134 224 224 224h21.334c21.76 0 46.506 12.373 59.733 29.866l64 85.334c14.933 19.626 36.267 19.626 51.2 0l64-85.334c14.08-18.773 36.267-29.866 59.733-29.866h21.334c152.746 0 224-71.254 224-224V341.333c0-152.746-71.254-224-224-224H341.333zm384 256H298.667c-17.494 0-32-14.506-32-32 0-17.493 14.506-32 32-32h426.666c17.494 0 32 14.507 32 32 0 17.494-14.506 32-32 32zM554.667 586.667h-256c-17.494 0-32-14.507-32-32 0-17.494 14.506-32 32-32h256c17.493 0 32 14.506 32 32 0 17.493-14.507 32-32 32z"/></svg>