<svg viewBox="0 0 1024 1024" xmlns="http://www.w3.org/2000/svg"><path d="M682.667 970.667H128c-40.96 0-74.667-33.707-74.667-74.667V341.333c0-188.586 99.414-288 288-288h341.334c188.586 0 288 99.414 288 288v341.334c0 188.586-99.414 288-288 288zM341.333 117.333c-152.746 0-224 71.254-224 224V896c0 5.973 4.694 10.667 10.667 10.667h554.667c152.746 0 224-71.254 224-224V341.333c0-152.746-71.254-224-224-224H341.333zm-2.133 640c-20.053 0-38.4-7.253-52.053-20.48-16.214-16.213-23.467-39.253-19.627-64l11.947-84.48c2.56-18.346 14.08-41.813 27.306-55.04l221.44-221.44c75.947-75.946 142.08-41.813 183.894 0 32.853 32.854 47.786 67.414 44.373 101.974-2.56 28.16-17.493 54.613-44.373 81.92l-221.44 221.44c-13.227 13.226-36.267 24.746-55.04 27.733l-84.48 11.947c-3.84 0-8.107.426-11.947.426zm280.747-426.666c-15.787 0-29.867 10.24-46.08 26.026l-221.44 221.44c-3.414 3.414-8.534 14.08-9.387 18.774l-11.947 84.48c-.426 4.266 0 8.106 1.707 9.813 1.707 1.707 5.547 2.133 9.813 1.707l84.48-11.947c5.12-.853 15.36-5.973 18.774-9.387l221.44-221.44c16.213-16.213 24.746-30.293 26.026-43.093 1.28-14.507-7.253-31.573-26.026-50.347-18.774-17.92-33.707-26.026-47.36-26.026zm37.973 206.08c-2.987 0-5.973-.427-8.533-1.28-77.227-21.76-139.094-83.2-160.854-160.854-4.693-17.066 5.12-34.56 22.187-39.68 17.067-4.693 34.56 5.12 39.253 22.187 15.787 55.893 60.587 100.693 116.48 116.48 17.067 4.693 26.88 22.613 22.187 39.68-3.84 14.08-16.64 23.467-30.72 23.467z"/></svg>