<svg viewBox="0 0 1024 1024" xmlns="http://www.w3.org/2000/svg"><path d="M788.053 718.08l16.64 134.827c4.267 35.413-33.706 60.16-64 41.813l-147.626-87.893c-10.24-5.974-12.8-18.774-7.254-29.014 21.334-39.253 32.854-83.626 32.854-128 0-156.16-133.974-283.306-298.667-283.306-33.707 0-66.56 5.12-97.28 15.36-15.787 5.12-31.147-9.387-27.307-25.6C234.24 200.96 383.573 85.333 561.92 85.333c208.213 0 376.747 157.44 376.747 351.574 0 115.2-59.307 217.173-150.614 281.173zm-233.386-68.267c0 50.774-18.774 97.707-50.347 134.827-42.24 51.2-109.227 84.053-184.32 84.053l-111.36 66.134c-18.773 11.52-42.667-4.267-40.107-26.027l10.667-84.053c-57.173-39.68-93.867-103.254-93.867-174.934 0-75.093 40.107-141.226 101.547-180.48 37.973-24.746 83.627-38.826 133.12-38.826 129.707 0 234.667 98.133 234.667 219.306z"/></svg>