<svg viewBox="0 0 1023.9829 1024" xmlns="http://www.w3.org/2000/svg"><path d="M865.736 865.266l-134.91-67.455q-13.313-6.7-16.555-7.764-4.35-1.452-8.917-2.092-3.328-.47-18.26-.47H344.4q-109.95 0-142.846-16.767-44.5-22.697-67.2-67.2-16.724-32.893-16.724-142.843V382.117q0-109.95 16.725-142.804 22.7-44.543 67.2-67.2 32.894-16.767 142.844-16.767h340.86q109.947 0 142.843 16.767 44.5 22.656 67.2 67.2 16.767 32.853 16.767 142.803v454.52q0 13.27-9.386 22.614-9.388 9.386-22.615 9.386-7.553 0-14.337-3.37zM848.07 784.84V382.117q0-94.59-9.812-113.75-13.227-25.982-39.21-39.25-19.2-9.77-113.79-9.77h-340.86q-94.59 0-113.79 9.77-25.983 13.27-39.21 39.25-9.77 19.16-9.77 113.75v178.557q0 94.59 9.77 113.79 13.227 25.983 39.21 39.21 19.2 9.813 113.79 9.813h342.694q19.37 0 27.178 1.065 10.453 1.494 20.394 4.822 7.467 2.517 24.79 11.178l88.616 44.287zM352.507 439.416h.427q13.225 0 22.612 9.387 9.387 9.345 9.387 22.614 0 13.27-9.388 22.613-9.387 9.387-22.613 9.387h-.427q-13.27 0-22.613-9.387-9.387-9.344-9.387-22.613 0-13.27 9.387-22.612 9.342-9.386 22.61-9.386zm324.645 0h.386q13.27 0 22.655 9.387 9.387 9.345 9.387 22.614 0 13.27-9.387 22.613-9.387 9.387-22.655 9.387h-.384q-13.27 0-22.613-9.387-9.387-9.344-9.387-22.613 0-13.27 9.386-22.612 9.343-9.386 22.613-9.386zm-162.3 0h.383q13.27 0 22.613 9.387 9.387 9.345 9.387 22.614 0 13.27-9.387 22.613-9.344 9.387-22.613 9.387h-.384q-13.27 0-22.657-9.387-9.344-9.344-9.344-22.613 0-13.27 9.342-22.612 9.386-9.386 22.655-9.386z"/></svg>