<svg viewBox="0 0 1024 1024" xmlns="http://www.w3.org/2000/svg"><path d="M512 693.333q-83.968 0-143.317-59.35-59.35-59.348-59.35-143.316V256q0-83.968 59.35-143.317 59.35-59.35 143.317-59.35 83.968 0 143.317 59.35 59.35 59.35 59.35 143.317v234.667q0 83.968-59.35 143.317-59.35 59.35-143.317 59.35zm0-64q57.472 0 98.048-40.618 40.62-40.576 40.62-98.048V256q0-138.667-138.668-138.667-138.667 0-138.667 138.667v234.667q0 138.666 138.667 138.666zm-294.4-217.6v72.534q0 121.77 86.315 208.085Q390.23 778.667 512 778.667q121.77 0 208.085-86.315Q806.4 606.037 806.4 484.267v-72.534q0-13.27 9.387-22.613 9.344-9.387 22.613-9.387 13.27 0 22.613 9.387 9.387 9.344 9.387 22.613v72.534q0 148.31-105.045 253.354Q660.31 842.668 512 842.668q-148.31 0-253.355-105.046Q153.6 632.577 153.6 484.268v-72.534q0-13.27 9.387-22.613 9.344-9.387 22.613-9.387 13.27 0 22.613 9.387 9.387 9.344 9.387 22.613zM441.685 244.31q70.315-25.77 140.63 0 12.458 4.565 18.048 16.597 5.546 12.032.98 24.448-4.564 12.458-16.596 18.048-11.99 5.546-24.448.98-48.3-17.706-96.6 0-12.415 4.566-24.447-.98-12.032-5.59-16.597-18.048-4.565-12.416 1.024-24.448 5.547-12.032 18.005-16.598zm27.99 89.557q42.538-11.222 85.077 0 12.8 3.37 19.456 14.848 6.656 11.434 3.285 24.277-3.37 12.8-14.848 19.456-11.434 6.7-24.277 3.285-26.155-6.912-52.31 0-12.842 3.414-24.277-3.285-11.476-6.656-14.847-19.456-3.37-12.843 3.286-24.277 6.655-11.478 19.455-14.848zM544 810.667v128q0 13.27-9.387 22.613-9.344 9.387-22.613 9.387-13.27 0-22.613-9.387Q480 951.936 480 938.667v-128q0-13.27 9.387-22.614 9.344-9.386 22.613-9.386 13.27 0 22.613 9.386Q544 797.397 544 810.667z"/></svg>