<svg viewBox="0 0 1023.9992 1024" xmlns="http://www.w3.org/2000/svg"><path d="M638.693 0h4.686c4.22.794 8.14 2.612 11.825 4.788 59.622 34.38 119.142 68.864 178.815 103.22 5.658 3.404 12.365 6.296 15.514 12.517 3.533 6.247 2.995 14.26-.742 20.327-9.984 17.356-19.968 34.79-30.132 52.096-7.014 11.955-20.53 18.662-34.124 19.302-8.09 13.952-16.154 27.878-24.167 41.882 11.34 13.772 16.69 32.384 13.26 49.996-1.714 10.804-7.55 20.224-13.004 29.492 22.887 20.556 36.02 51.712 33.33 82.508-.075 1.92-.434 3.892-.767 5.837-.794 4.634-1.588 9.267.82 13.594 29.874 74.24 21.963 162.276-20.405 230.116-12.98 21.094-29.107 40.217-47.36 56.934 23.655 26.777 38.144 61.593 39.552 97.356.282 9.14.23 18.304.205 27.47-.025 5.53-.05 11.033 0 16.562 8.986.052 17.97.026 26.93 0h.027c13.72-.025 27.417-.05 41.113.128 24.396.384 47.13 17.536 54.707 40.602 3.38 9.395 3.303 19.405 3.226 29.26 0 1.998-.025 3.994 0 5.99-.05 8.32-.025 16.64 0 24.987v.05c.026 13.057.052 26.14-.102 39.22.18 9.728-7.654 17.843-16.87 19.763H149.248c-9.472-1.715-17.434-10.086-17.178-19.968-.102-15.948-.102-31.897-.076-47.872.025-10.086.025-20.147 0-30.233-1.69-31.872 25.83-61.543 57.804-61.8 18.304-.178 36.583-.152 54.887-.127h.05c12.596 0 25.217.026 37.838-.025v-73.96c-7.86-.05-15.72-.024-23.552-.024h-.024c-9.01.025-17.997.05-27.008-.026-11.417-.05-22.784-3.302-32.333-9.574-19.584-12.16-30.617-36.402-26.982-59.16 3.558-27.137 27.827-49.74 55.22-50.995 15.257-.333 30.514-.283 45.798-.23 8.833.024 17.665.05 26.497 0 8.268-.538 16.665 4.07 19.993 11.8 5.836 11.675-3.047 27.213-16.103 27.955-13.363.36-26.752.308-40.115.23-7.348-.025-14.695-.076-22.016-.025-1.178.026-2.407 0-3.61 0h-.026c-6.374-.05-13.107-.128-18.278 4.07-7.757 5.58-10.317 17-5.632 25.345 3.635 7.116 11.7 11.084 19.558 10.624h316.11c9.522.742 19.02-5.658 21.247-15.053 3.277-11.29-5.58-24.037-17.305-24.73-13.133-.33-26.266-.28-39.4-.23-10.904.053-21.836.104-32.74-.1-10.6.28-20.123-9.268-19.816-19.865-.332-10.65 9.216-20.25 19.892-19.943 11.75-.154 23.5-.13 35.25-.077 13.594.025 27.188.077 40.782-.18 45.286-1.46 88.448-27.16 112.41-65.433 18.046-28.16 25.112-62.923 19.89-95.947-9.37-.614-18.663-2.304-27.65-5.043-5.12 8.96-10.136 18.277-18.047 25.112-13.59 12.34-32.918 17.178-50.917 14.362-7.885 13.184-15.13 26.752-23.244 39.782-10.96 17.203-35.79 22.81-53.173 12.212-40.627-23.45-81.306-46.848-121.882-70.4-17.433-10.01-24.473-34.15-15.027-51.917 7.32-13.44 15.385-26.444 22.732-39.858-15.77-18.612-18.995-46.925-6.656-68.148 36.813-63.948 73.728-127.795 110.643-191.692 12.21-21.58 38.502-33.076 62.77-28.8 8.115-13.978 16.18-27.956 24.217-41.984-6.22-11.88-7.22-26.7-.613-38.655 9.524-17.05 19.533-33.844 29.21-50.842 3.123-6.45 8.986-11.162 16.05-12.57zm-466.61 923.852c-.13 12.826-.102 25.65-.077 38.503v21.657h679.987c-.026-7.86 0-15.718 0-23.577.025-12.212.025-24.397-.077-36.583.28-11.443-10.624-20.94-21.863-19.865h-624.1c-1.64.025-3.25 0-4.89 0h-.026c-3.763-.052-7.527-.077-11.29.23-9.753.794-17.843 9.856-17.664 19.635zM549.53 185.55c-6.247 3.07-9.19 9.676-12.52 15.36-33.663 58.342-67.352 116.684-101.042 175.026-.563 1-1.152 1.997-1.74 2.996-2.766 4.66-5.607 9.472-5.377 15.078 0 7.475 4.66 14.362 11.215 17.74 51.174 29.518 102.35 59.11 153.522 88.68 6.323 4.018 14.77 4.35 21.224.434 6.657-3.89 9.524-11.417 13.185-17.817-23.835-20.813-36.635-53.48-33.077-84.967 2.817-28.85 19.125-55.884 43.086-72.115 25.19-17.485 58.674-22.272 87.705-12.313 2.942-4.48 5.86-9.063 7.83-14.08 3.253-8.884-1.023-19.482-9.29-23.91-51.098-29.67-102.35-59.06-153.498-88.654-6.246-4.096-14.54-5.068-21.222-1.46zm180.274 316.466c5.606 36.352.128 74.393-16.36 107.367-21.63 43.8-61.617 78.104-108.286 92.57 6.12 12.34 8.27 26.494 5.71 40.037 60.03-16.64 111.82-60.057 139.006-116.07 22.17-45.285 28.186-98.61 15.667-147.506-10.034 10.317-22.424 18.202-35.736 23.603zm-42.957-153.062c-18.918 2.227-36.274 14.208-45.26 30.976-9.524 17.23-9.625 39.245-.256 56.602 12.7 24.883 44.034 38.067 70.657 29.21 28.263-8.116 47.283-39.17 41.32-68.07-4.89-30.388-35.944-53.275-66.46-48.718zM322.56 790.04q.026 36.967 0 73.908c32.614.076 65.23.05 97.87.05h.127c14.003-.025 28.006-.025 42.01-.025v-73.96H442.24c-39.91-.024-79.795-.05-119.68.027zm179.994.027c.05 24.627.025 49.254 0 73.88 30.694.078 61.388.078 92.082.052h51.354c-.05-5.146-.025-10.29.025-15.437.027-8.244.077-16.487-.204-24.73-1.1-18.15-17.534-33.69-35.71-33.766-35.865-.128-71.705-.103-107.545 0zM648.78 47.335c-6.63 11.57-13.362 23.065-19.993 34.637 52.12 29.824 103.86 60.34 156.185 89.83 6.297-11.57 13.03-22.912 19.66-34.253-51.737-30.44-103.883-60.213-155.85-90.216zm-42.57 114.073c40.524 23.04 80.74 46.695 121.24 69.76 6.477-11.648 13.517-22.963 19.79-34.74-40.45-23.116-80.69-46.616-121.14-69.81-6.63 11.597-13.517 23.066-19.89 34.79zM416.13 490.343c40.448 23.27 80.768 46.797 121.318 69.888 6.605-11.52 13.287-23.013 19.892-34.533-40.448-23.27-80.743-46.873-121.344-69.888-6.554 11.545-13.26 22.99-19.866 34.534zm241.74 277.144c10.394 8.91 18.79 20.25 23.4 33.204 5.323 14.36 5.017 29.594 4.71 44.775-.104 6.195-.23 12.416.024 18.534h39.987c0-4.84 0-9.65.027-14.465v-.025c.026-8.55.05-17.1-.128-25.65-.718-28.212-12.084-56.04-31.54-76.52-11.57 7.707-23.86 14.312-36.48 20.148zm-273-96.152c13.824-5.99 30.285 7.832 26.7 22.45-2.124 14.62-21.99 21.48-32.664 11.264-11.392-9.037-7.757-29.16 5.964-33.715z"/></svg>