<svg viewBox="0 0 1024 1024" xmlns="http://www.w3.org/2000/svg"><path d="M277.333 857.6q0-89.6 89.6-89.6h290.134q37.12 0 63.36 26.24 26.24 26.24 26.24 63.36 0 15.915-11.264 27.136Q724.18 896 708.267 896H315.733q-15.914 0-27.136-11.264-11.264-11.22-11.264-27.136zm42.838-4.267h383.746q-2.09-42.666-46.848-42.666H366.933q-19.456 0-33.194 13.738-12.205 12.203-13.57 28.928zm74.41-230.4q54.36 40.704 84.91 47.02 42.324 8.703 83.327-4.908 41.003-13.653 69.717-45.952 28.672-32.298 37.42-74.58 8.703-42.326-4.95-83.33-6.187-18.73-16.726-35.327-25.685-3.37-43.946-20.437l-107.69 82.472q-28.8 22.06-52.565 6.06l-29.184 22.356h-.042q-18.43 14.165-27.476 16.853-21.973 6.53-41.514-5.503-8.02-4.95-22.187-23.425-14.166-18.475-16.854-27.52-6.53-21.974 5.503-41.515 4.95-8.02 23.424-22.144l28.075-21.547q-14.68-32.257 9.94-59.307 3.328-3.67 13.44-11.393l213.035-163.2q35.712-27.39 53.59-27.903 9.044-.3 17.706 2.346 7.04 2.134 15.745 9.344 3.54-4.053 8.192-7.466 43.776-31.83 77.312 11.947l10.28 13.398q33.537 43.818-8.575 77.78-5.29 4.225-11.008 6.742 4.266 20.01-5.718 38.144-4.437 8.064-20.01 20.992 8.917 17.494 8.917 38.4 0 9.942-2.22 19.414 19.456 29.91 30.72 63.83 23.424 70.527 8.45 143.316-14.978 72.79-64.343 128.342-49.323 55.552-119.85 78.976-70.53 23.425-143.318 8.45-72.79-14.977-128.343-64.343-22.528-20.01-55.04-67.2l35.115-24.234q29.61 42.965 48.256 59.52 47.02 41.77 108.587 54.442 61.61 12.672 121.258-7.125 59.692-19.84 101.463-66.86 41.77-46.975 54.442-108.585 12.672-61.568-7.168-121.26-5.76-17.364-14.08-33.492-11.093 11.136-26.026 16.64 6.4 12.842 10.923 26.538 17.238 51.885 6.23 105.39-11.008 53.503-47.318 94.38-36.267 40.83-88.15 58.067-51.84 17.195-105.344 6.187-39.936-8.192-101.888-54.656zM682.157 198.87h-.043q-18.987-24.79-22.912-25.985-2.004-.597-4.095-.554-4.14.13-28.928 19.116L413.14 354.688q-7.04 5.42-7.85 6.272-5.973 6.528-1.877 14.464.512 1.024 5.93 8.064l-16.938 12.97 16.94-12.97 53.204 69.46q1.45 1.92 3.84 2.22 2.39.34 4.31-1.152l110.08-84.31q-4.78-13.48-4.78-28.372Q576 256 661.333 256q27.478 0 48.427 14.805 9.643-7.637 10.624-9.43 2.39-4.35 1.237-9.172-.64-2.646-13.224-19.072l3.413-2.6-3.414 2.602zM661.333 384q28.928 0 39.638-26.88 3.03-7.552 3.03-15.787 0-16.426-11.007-28.586-12.715-14.08-31.66-14.08-42.665 0-42.665 42.666 0 12.63 6.784 23.126Q638.124 384 661.334 384zM415.7 461.952l-27.263-35.54-26.71 20.48-.042.04q-12.245 9.345-13.056 10.668-2.007 3.285-.898 6.912.427 1.536 9.814 13.78 9.386 12.247 10.71 13.057 3.242 2.004 6.91.894 1.537-.426 13.74-9.77l.042-.043 26.75-20.48zm329.943-257.408l.042.17q.81.086 2.006-.895 9.73-7.853 1.495-18.605l-10.24-13.355q-8.277-10.793-18.347-3.412-1.152.81-1.322 1.707l.085.042 13.14 17.195zm-468.31 414.123H448q8.832 0 15.104 6.23 6.23 6.27 6.23 15.103 0 8.832-6.23 15.104-6.272 6.23-15.104 6.23H277.333q-8.832 0-15.104-6.23Q256 648.832 256 640q0-8.832 6.23-15.104 6.27-6.23 15.103-6.23z"/></svg>