<svg viewBox="0 0 1024 1024" xmlns="http://www.w3.org/2000/svg"><path d="M893.44 386.517c7.34 45.27-1.75 91.734-18.816 133.803-21.12 51.2-54.187 96.768-93.184 135.808-37.333 37.248-80.3 68.78-126.464 94.25-70.016 38.53-147.84 63.787-227.67 69.718-33.322 1.835-67.03 1.45-99.967-4.565-29.783-5.077-58.967-14.207-85.975-27.903-29.994-15.446-57.173-37.12-76.8-64.726-20.437-28.03-32.47-61.823-35.584-96.297-.596-5.93-.937-11.82-.98-17.75v-3.498c.213-24.79 4.992-49.45 11.86-73.174 17.153-55.04 49.11-104.49 87.81-146.772 51.67-56.064 115.583-100.267 184.917-131.584 57.472-26.027 119.21-42.752 182.144-47.957 3.5-.128 6.998-.256 10.54-.384 15.573-.598 31.19-1.238 46.762.085 8.02-.17 15.957.81 23.85 1.835 3.2.426 6.4.853 9.6 1.152 52.865 7.466 105.558 26.794 145.75 62.933 33.195 29.61 55.765 70.997 62.208 115.03zm-12.33 45.952c-.043-3.67 0-7.382.042-11.094.128-9.77.256-19.584-1.493-29.27-3.2-25.258-12.076-49.79-25.516-71.423-13.78-22.144-32.512-41.088-54.1-55.68-27.692-18.987-59.65-31.275-92.375-38.358-30.422-6.57-61.654-8.746-92.715-7.722-41.942 1.408-83.456 8.746-123.648 20.522-86.742 26.07-168.022 71.723-233.472 134.528-48.512 46.934-89.216 104.15-107.82 169.686-10.11 36.564-12.458 75.903-2.73 112.852 8.96 33.707 27.947 64.683 54.06 87.85 41.727 37.462 97.45 55.595 152.447 60.97 80.085 7.68 161.11-8.703 235.05-39.295 53.035-22.186 102.998-51.84 147.286-88.533 38.912-32.47 73.685-70.315 100.18-113.62 24.28-39.81 41.644-84.652 44.8-131.415zm-48.683-118.145c27.392 35.115 38.954 81.11 34.858 125.142-3.413 44.33-20.565 86.57-43.648 124.202-27.776 44.842-64.554 83.67-105.856 116.31-40.19 31.615-84.905 57.47-132.137 77.183-54.656 22.613-113.024 36.864-172.203 39.424-4.992-.043-9.984-.043-14.933-.043H380.16c-50.09-2.56-100.95-14.208-143.36-41.9-31.488-20.095-56.96-49.96-70.357-84.948-10.966-29.056-14.806-60.885-10.368-91.648 6.186-50.688 29.056-97.963 58.58-139.093 35.244-48.512 80.556-89.174 130.732-121.814 39.253-25.343 81.536-46.207 125.952-60.97-11.223 22.145-21.08 45.185-26.412 69.505-3.2 15.06-4.907 30.378-6.613 45.696-.982 20.822-2.944 41.6-3.286 62.465-1.58 13.738-2.262 28.202-9.13 40.533-8.96 14.507-18.092 28.843-27.137 43.264-1.45 2.39-2.176 5.12-3.627 7.51-13.78 21.333-27.69 42.623-41.472 63.957-1.408 2.217-2.987 4.393-5.248 5.8-25.003 16.727-51.285 32.428-71.893 54.7-20.907 21.803-36.182 48.597-45.91 77.14 1.963 1.153 3.926 2.263 5.846 3.372 1.492-.768 3.07-1.493 4.223-2.73 30.592-33.92 71.04-58.667 114.858-71.297 15.96-4.394 31.83-9.173 47.276-15.104 10.71-4.308 21.504-9.044 30.123-16.895 13.737-12.458 22.996-28.97 30.505-45.78l.086-.13c2.39-5.588 5.078-11.86 2.69-17.876-2.433-8.663-10.113-14.337-17.665-18.263-10.71-5.845-21.76-11.136-33.195-15.402 10.24-16.726 20.65-33.323 31.232-49.878 6.74 11.82 16.043 23.126 29.355 27.69 21.504 7.724 45.994 1.068 63.616-12.714 13.61-12.672 25.984-26.666 39.51-39.466 5.076-1.58 10.196-.683 15.316.213 4.35.768 8.703 1.536 13.013.81 12.672-1.493 23.637-9.13 32.17-18.175 6.187-7.254 12.715-14.25 18.944-21.462 9.515-11.605 16.726-25.685 29.568-34.09 7.98-5.29 17.664-2.944 26.454-.854 1.108.255 2.175.51 3.24.725 10.07 2.645 20.823-1.878 27.564-9.472 10.283-11.222 17.024-27.008 13.995-42.326-5.548-16.554-18.22-29.397-30.124-41.685-5.632 10.155-11.733 20.267-19.755 28.757-14.548 12.03-26.068 27.22-35.967 43.22-11.264 16.257-20.096 34.86-35.84 47.446-9.344 7.85-21.973 11.18-33.962 8.62 5.974-11.265 12.46-22.53 15.83-34.945 2.39-7.167.17-15.786-5.59-20.778-4.693-4.31-10.965-6.4-17.11-7.637l-.895-.128c-8.96-1.28-18.048-2.603-27.05-1.238-18.09 2.133-34.518 12.287-46.678 25.514-5.034 5.76-9.514 12.288-11.648 19.755.98 1.577 2.39 2.132 4.18 1.748 1.665-.17 3.33-.427 4.993-.683 4.736-.725 9.514-1.45 14.25-.512 7.85 2.987 14.422 9.9 16.342 18.176 1.28 7.125-3.627 13.994-10.155 16.47-17.963 6.27-40.192 5.033-54.87-8.065-8.533-8.107-13.183-19.542-15.146-30.976-2.773-12.76-2.603-25.943-1.75-38.87.64-14.422 1.41-28.886 4.054-43.094 2.9-18.517 7.296-36.864 7.723-55.68 49.238-15.66 100.865-24.405 152.577-23.765 46.506 1.323 93.653 9.985 135.21 31.745 24.875 12.97 47.403 30.89 64.47 53.29zm-85.42 106.368c.3-1.024.726-2.09 1.11-3.157 1.707-4.608 3.584-9.685-.47-13.397-8.404 4.65-10.367 15.487-18.303 20.777-3.84 3.712-9.643 3.37-14.208 1.323-8.917-4.14-19.584-3.712-28.373.597-10.54 5.035-18.774 13.696-25.77 22.827-8.022 11.093-15.49 22.784-19.84 35.84-1.366 3.797-4.268 6.656-6.614 9.856-7.297 9.685-13.868 20.267-23.596 27.733-10.027 8.192-23.467 13.44-36.437 10.41-1.963-.596-3.926-1.322-5.93-2.047-6.188-2.304-12.502-4.65-19.158-3.413-11.777 2.133-22.273 8.49-31.745 15.488-16.256 12.246-30.635 26.923-43.307 42.838-3.5 4.437-7.04 9.728-5.845 15.66 5.29 2.175 10.666-.855 14.848-3.97 10.07-7.338 21.29-14.207 34.05-15.103 6.527-.94 12.5 1.365 18.516 3.67 2.56 1.023 5.12 2.004 7.723 2.73 10.75 2.133 22.313.81 32.04-4.395 10.113-4.95 18.305-13.013 25.516-21.547 8.15-9.514 16.384-18.944 24.576-28.416 3.413-3.84 8.704-4.778 13.568-5.333 4.608-.555 9.045.725 13.483 2.005 5.46 1.62 10.88 3.2 16.554 1.28 7.296-3.926 12.715-10.923 16.256-18.305 1.92-5.376 4.182-12.33-.298-17.024-6.23-6.655-14.208-11.86-18.944-19.84-2.09-2.815-.383-6.44 1.238-9.044 3.925-5.632 9.94-9.856 16.512-11.776 4.693-1.365 8.917.725 13.013 2.773 1.366.683 2.688 1.323 4.01 1.878 7.638 3.33 16.684.854 22.785-4.522 11.093-9.557 17.323-23.253 23.04-36.395zM463.83 710.74c2.602-8.447 5.12-17.79 1.493-26.324-5.547-16.64-20.054-27.605-34.176-36.78-.555-.255-1.11-.724-1.707-1.193-1.408-1.152-2.944-2.39-4.31-1.024-6.357 8.66-11.007 18.473-16.554 27.69-6.74 14.165-13.013 28.543-19.712 42.75-.896 2.05.597 3.713 2.005 5.292.51.555.98 1.067 1.322 1.62 9.515 9.687 21.163 16.94 31.573 25.687 2.518 1.705 4.608 4.48 7.723 5.076 5.205-.896 9.813-4.053 13.14-8.064 8.663-10.155 14.55-22.357 19.2-34.73zm73.173 28.332c8.533-13.355 16.128-28.117 17.45-44.16.214-10.197-5.333-19.37-11.306-27.18-7.98-10.11-19.883-15.785-29.44-24.063-4.224 5.674-7.68 11.903-11.264 17.962-9.984 16.3-16.555 34.347-24.96 51.456-1.11 1.792-1.238 3.883-1.28 5.93 6.912 8.107 15.488 14.465 23.936 20.822 6.015 4.352 11.56 9.387 17.663 13.61 8.704-.255 14.55-7.935 19.2-14.378zm105.557-54.955c.47-9.472-4.907-17.834-10.155-25.216-7.978-10.708-20.31-16.64-30.25-25.13-16.427 22.145-25.942 48.257-38.102 72.747 1.707 4.78 5.632 8.15 9.302 11.435 10.453 8.747 21.76 16.384 32.042 25.43.555-.043 1.152-.086 1.75-.086 1.664-.043 3.328-.128 4.778-1.067 8.918-4.993 14.464-14.038 19.158-22.785 5.717-11.008 11.392-22.698 11.477-35.328zM618.112 291.84c1.877-6.485 3.883-14.25.34-20.523-2.303 4.822-3.71 10.454-8.19 13.824-2.305 1.836-5.25 1.025-7.85.3-.343-.085-.684-.213-1.025-.3-1.92-2.9-3.456-6.015-4.78-9.215-5.204 3.883-9.087 9.216-14.72 12.587-1.28.043-3.754.085-4.99.128-5.505-4.18-4.353-12.117-6.06-18.133-3.072 1.493-5.248 4.352-5.546 7.765-.042.47-.085.94-.17 1.408-1.024 8.704-2.176 18.432 3.243 25.94.34.13.64.257.938.428 3.33 1.536 6.87 3.2 10.625 2.005 6.742-1.322 10.54-7.552 14.464-12.63 1.92 4.14 3.925 9.473 9.3 9.73 7.34.084 11.905-7.212 14.422-13.313z"/></svg>