<svg viewBox="0 0 1024 1024" xmlns="http://www.w3.org/2000/svg"><path d="M640 970.667H384c-188.16 0-245.333-57.174-245.333-245.334V298.667c0-188.16 57.173-245.334 245.333-245.334h256c188.16 0 245.333 57.174 245.333 245.334v426.666c0 188.16-57.173 245.334-245.333 245.334zM384 117.333c-152.747 0-181.333 29.014-181.333 181.334v426.666c0 152.32 28.586 181.334 181.333 181.334h256c152.747 0 181.333-29.014 181.333-181.334V298.667c0-152.32-28.586-181.334-181.333-181.334H384zm213.333 149.334H426.667c-17.494 0-32-14.507-32-32 0-17.494 14.506-32 32-32h170.666c17.494 0 32 14.506 32 32 0 17.493-14.506 32-32 32zM512 847.36c-54.187 0-98.133-43.947-98.133-98.133 0-54.187 43.946-98.134 98.133-98.134s98.133 43.947 98.133 98.134c0 54.186-43.946 98.133-98.133 98.133zm0-132.693c-18.773 0-34.133 15.36-34.133 34.133 0 18.773 15.36 34.133 34.133 34.133 18.773 0 34.133-15.36 34.133-34.133 0-18.773-15.36-34.133-34.133-34.133z"/></svg>