<svg viewBox="0 0 1024 1024" xmlns="http://www.w3.org/2000/svg"><path d="M749.227 766.72H274.773c-169.813 0-221.44-51.627-221.44-221.44V274.773c0-169.813 51.627-221.44 221.44-221.44H748.8c169.813 0 221.44 51.627 221.44 221.44v270.08c.427 170.24-51.2 221.867-221.013 221.867zM274.773 117.333c-133.973 0-157.44 23.467-157.44 157.44v270.08c0 133.974 23.467 157.44 157.44 157.44H748.8c133.973 0 157.44-23.466 157.44-157.44v-270.08c0-133.973-23.467-157.44-157.44-157.44H274.773zM512 970.667c-17.493 0-32-14.507-32-32V734.72c0-17.493 14.507-32 32-32 17.493 0 32 14.507 32 32v203.947c0 17.493-14.507 32-32 32zm426.667-384H85.333c-17.493 0-32-14.507-32-32 0-17.494 14.507-32 32-32h853.334c17.493 0 32 14.506 32 32 0 17.493-14.507 32-32 32zM704 970.667H320c-17.493 0-32-14.507-32-32 0-17.494 14.507-32 32-32h384c17.493 0 32 14.506 32 32 0 17.493-14.507 32-32 32z"/></svg>