<svg viewBox="0 0 1024 1024" xmlns="http://www.w3.org/2000/svg"><path d="M512 970.667c-194.133 0-352-157.867-352-352V405.333c0-194.133 157.867-352 352-352s352 157.867 352 352v213.334c0 194.133-157.867 352-352 352zm0-853.334c-158.72 0-288 129.28-288 288v213.334c0 158.72 129.28 288 288 288s288-129.28 288-288V405.333c0-158.72-129.28-288-288-288zm0 384c-52.907 0-96-43.093-96-96V320c0-52.907 43.093-96 96-96s96 43.093 96 96v85.333c0 52.907-43.093 96-96 96zM512 288c-17.493 0-32 14.507-32 32v85.333c0 17.494 14.507 32 32 32 17.493 0 32-14.506 32-32V320c0-17.493-14.507-32-32-32zm0 0c-17.493 0-32-14.507-32-32V85.333c0-17.493 14.507-32 32-32 17.493 0 32 14.507 32 32V256c0 17.493-14.507 32-32 32z"/></svg>