<svg viewBox="0 0 1024 1024" xmlns="http://www.w3.org/2000/svg"><path d="M474.726 505.378q18.842 13.858 42.394 12.152 56.422-3.994 59.153-60.485 1.16-23.62-13.175-42.223-3.345-4.3-6.452-9.113-18.09-27.956 4.3-52.874 22.188-24.678 52.09-10.41 133.22 63.556 133.22 211.08 0 67.857-36.146 124.928-8.056 12.664-20.72 4.642-12.663-8.02-4.64-20.685 31.504-49.73 31.504-108.884 0-128.614-116.156-184.013-9.625-4.608-16.828 3.414-7.03 7.816-1.4 16.554 2.39 3.688 4.984 7.033 21.095 27.375 19.388 62.02-4.028 83.08-86.972 88.952-34.542 2.457-62.293-17.886-12.083-8.876-3.243-20.96 8.875-12.082 20.992-3.242zM315.12 678.4q-36.83-57.856-36.42-126.396.92-146.773 133.562-209.75 29.97-14.233 52.122 10.685 22.323 25.087 3.925 52.974-2.902 4.37-6.145 8.465-14.063 17.92-13.585 40.686.342 14.984-14.677 15.326-14.985.307-15.326-14.678-.717-33.485 19.968-59.8 2.492-3.21 4.71-6.555 5.7-8.603-1.297-16.522-7.202-8.055-16.827-3.515-115.61 54.954-116.428 182.886-.376 59.664 31.744 110.08 4.028 6.314 2.867 11.502-1.126 5.188-7.475 9.216-12.63 8.055-20.72-4.608zM54.442 426.496Q162.133 860.092 512 860.092q252.04 0 382.464-236.34 78.984-143.086 99.328-333.277 2.492-23.313-18.364-34.953-178.858-99.67-462.984-91.477-.444.034-.888 0-284.91-8.26-463.77 91.92-20.07 11.23-17.578 34.51 3.584 33.587 9.9 68.71 1.296 7.373-1.708 11.742-3.038 4.335-10.41 5.666-14.78 2.628-17.443-12.117Q4.062 328.294.376 293.65q-4.574-42.94 32.733-63.864 185.958-104.14 478.89-95.71 292.08-8.397 478.037 95.266 38.196 21.265 33.587 64.34-20.99 196.2-102.877 344.577Q781.757 890.094 512 890.094q-373.316 0-486.673-456.363-3.618-14.54 10.957-18.16 7.27-1.808 11.81.923 4.54 2.73 6.35 10zM50.38 464.76l73.012-15.565q26.658-5.7 29.764-32.803l12.186-107.212q.853-7.44 5.017-10.752 4.13-3.31 11.605-2.458 14.882 1.707 13.21 16.623l-12.22 107.213q-5.564 48.538-53.317 58.71l-73.01 15.598q-7.34 1.536-11.777-1.33-4.47-2.902-6.006-10.24-3.14-14.644 11.537-17.784zm60.758-147.627Q273.954 256.82 495.82 256.82q10.24 0 16.18.136 90.214-2.594 201.694 12.766 14.882 2.048 12.834 16.93-1.024 7.407-5.257 10.615-4.23 3.21-11.638 2.185Q600.337 284.4 512.444 286.96h-.854q-5.563-.138-15.77-.138-216.473 0-374.27 58.437-14.064 5.22-19.252-8.876-2.63-7.03-.41-11.844 2.22-4.813 9.25-7.407zM902.45 345.26q-55.91-20.72-124.756-34.408-14.712-2.935-11.776-17.647 1.468-7.373 5.87-10.308 4.404-2.935 11.777-1.468 71.168 14.165 129.297 35.703 14.063 5.188 8.875 19.25-2.63 7.033-7.442 9.25-4.812 2.22-11.844-.374zm-87.926 407.244q-7.236-9.763-15.838-18.33-49.767-49.766-120.15-49.766-71.03 0-120.934 50.517-9.01 9.182-20.89 14.13-11.912 4.95-24.814 4.848-26.693-.17-45.67-19.15l-.718-.716q-49.118-49.05-118.715-49.63-84.31-.614-136.397 69.086-9.01 12.015-21.026 3.038-6.008-4.47-6.76-9.727-.75-5.256 3.722-11.264 61.2-81.852 160.7-81.102 81.68.615 139.673 58.368.34.308.65.615 10.307 10.377 24.745 10.48 6.827.034 13.074-2.56 6.314-2.594 11.093-7.476 58.674-59.426 142.267-59.426 82.773 0 141.346 58.505 10.137 10.138 18.705 21.64 8.977 12.015-3.072 20.993-12.015 8.942-20.992-3.072zm44.134-443.324l12.22 107.212q3.106 27.102 29.764 32.803l73.01 15.565q7.34 1.57 10.207 6.007 2.9 4.437 1.33 11.776-3.14 14.677-17.817 11.537l-73.01-15.565q-47.72-10.17-53.284-58.71l-12.22-107.212q-1.707-14.916 13.21-16.623 7.44-.853 11.605 2.458 4.13 3.31 4.983 10.752zM486.74 712.84q.104.137.24.24l-.24-.24z"/></svg>