<svg viewBox="0 0 1024 1024" xmlns="http://www.w3.org/2000/svg"><path d="M825.173 618.155l-42.666-70.827c-8.99-15.758-17.124-45.625-17.124-63.147V376.264c0-100.295-58.88-186.88-143.758-227.442-22.187-39.252-63.147-63.544-110.08-63.544-46.535 0-88.35 25.145-110.535 64.854-83.172 41.358-140.8 127.146-140.8 226.133V484.18c0 17.523-8.078 47.39-17.067 62.75l-43.065 71.225c-17.066 28.558-20.935 60.188-10.24 89.2 10.24 28.56 34.532 50.746 66.105 61.44 82.773 28.105 169.813 41.758 256.853 41.758 87.04 0 174.137-13.653 256.91-41.358 29.867-9.842 52.907-32.427 64-61.84 11.094-29.467 8.08-61.894-8.533-89.2zm-192.455 235.52c-17.92 49.493-65.25 84.878-120.718 84.878-33.735 0-67.015-13.597-90.453-37.945-13.654-12.8-23.894-29.867-29.867-47.388 5.518.91 11.093 1.308 17.067 2.16 9.785 1.31 20.025 2.56 30.265 3.415 24.348 2.105 49.095 3.413 73.84 3.413 24.293 0 48.64-1.308 72.535-3.413 8.93-.854 17.92-1.31 26.453-2.56 6.827-.854 13.653-1.707 20.878-2.56z"/></svg>