<svg viewBox="0 0 1024 1024" xmlns="http://www.w3.org/2000/svg"><path d="M512.853 875.947c-99.413 0-198.826-15.787-293.12-47.36-35.84-12.374-63.146-37.547-75.093-70.4-12.373-32.854-8.107-69.12 11.52-101.547l49.067-81.493c10.24-17.067 19.626-51.2 19.626-71.254V380.587c0-158.72 129.28-288 288-288s288 129.28 288 288v123.306c0 19.627 9.387 54.187 19.627 71.68l48.64 81.067c18.347 30.72 21.76 67.84 9.387 101.547-12.374 33.706-39.254 59.306-72.96 70.4-93.867 31.573-193.28 47.36-292.694 47.36zm0-719.36c-123.306 0-224 100.266-224 224v123.306c0 31.147-12.8 77.227-28.586 104.107L211.2 689.493c-9.387 15.787-11.947 32.427-6.4 46.507 5.12 14.507 17.92 25.6 35.413 31.573 178.347 59.734 367.36 59.734 545.707 0 15.36-5.12 27.307-16.64 32.853-32 5.547-15.36 4.267-32-4.266-46.08L765.44 608c-16.213-27.733-28.587-73.387-28.587-104.533v-122.88c0-123.734-100.266-224-224-224zm79.36 11.52c-2.986 0-5.973-.427-8.96-1.28-12.373-3.414-24.32-5.974-35.84-7.68-36.266-4.694-71.253-2.134-104.106 7.68-11.947 3.84-24.747 0-32.854-8.96-8.106-8.96-10.666-21.76-5.973-33.28 17.493-44.8 60.16-74.24 108.8-74.24s91.307 29.013 108.8 74.24c4.267 11.52 2.133 24.32-5.973 33.28-6.4 6.826-15.36 10.24-23.894 10.24zm-79.36 805.12c-42.24 0-83.2-17.067-113.066-46.934-29.867-29.866-46.934-70.826-46.934-113.066h64c0 25.173 10.24 49.92 28.16 67.84s42.667 28.16 67.84 28.16c52.907 0 96-43.094 96-96h64c0 88.32-71.68 160-160 160z"/></svg>