<svg viewBox="0 0 1024 1024" xmlns="http://www.w3.org/2000/svg"><path d="M505.472 394.155c68.82-7.638 123.776 46.464 129.45 106.453 6.57 68.608-45.14 123.008-105.386 128.98-70.187 7-124.715-44.628-130.944-106.025-6.528-64.3 39.765-121.9 106.88-129.408zM238.55 497.28v-.043c1.023-6.656 55.55-182.442 57.727-189.525 10.966-36.65 17.024-60.63 38.06-85.717 47.786-56.918 101.674-56.235 167.295-55.424 7.98.086 16.085.17 24.363.17 3.456 0 15.104 0 32.298-.04 89.856-.172 330.624-.64 337.707.297L794.88 497.28c-14.037.3-123.264.94-128.512-.47-7.723-74.325-69.29-134.954-150.144-134.74-77.397.255-143.787 61.14-148.992 135.21zM128 856.832L229.632 526.55l137.3.17c2.52 10.837 3.03 19.456 6.273 29.91 8.363 26.71 22.315 47.103 41.302 64.938 57.13 53.803 146.474 53.93 205.013-.3 18.603-17.236 33.11-39.252 41.088-65.108 3.072-10.112 3.712-18.56 6.016-29.483H785.28c-.384 4.694-5.12 17.878-6.784 23.382l-50.688 165.16c-11.563 36.44-15.488 60.93-37.632 86.06-50.176 56.875-96.94 56.49-165.803 55.85-8.277-.085-16.853-.127-25.856-.127h-309.29c-5.846 0-12.203.128-18.73.256-14.465.297-29.825.64-42.497-.428z"/></svg>