<svg viewBox="0 0 1024 1024" xmlns="http://www.w3.org/2000/svg"><path d="M548.693 541.013L443.307 646.4q-82.944 82.987 0 165.973 34.474 34.432 82.986 34.432 48.512 0 82.987-34.432L775.253 646.4q77.952-77.995 77.952-188.587 0-110.592-77.952-188.586-77.994-77.995-188.586-77.995-110.592 0-188.587 77.995L217.173 450.133Q151.68 515.67 151.68 608.47q0 92.885 65.536 158.72 9.387 9.386 9.344 22.613-.043 13.27-9.43 22.613-9.386 9.387-22.655 9.344-13.227-.043-22.614-9.43-84.18-84.565-84.18-203.86 0-119.34 84.267-203.563L352.853 224q96.726-96.768 233.814-96.768T820.48 224q96.725 96.725 96.725 233.813T820.48 691.627L654.507 857.6q-53.206 53.205-128.214 53.205T398.08 857.6q-53.248-53.205-53.248-128.213t53.248-128.214l105.387-105.386q9.344-9.387 22.613-9.387 13.27 0 22.613 9.387 9.387 9.344 9.387 22.613 0 13.27-9.387 22.613z"/></svg>