<svg viewBox="0 0 1024 1024" xmlns="http://www.w3.org/2000/svg"><path d="M462.677 335.36c-3.54-22.187-11.05-42.837-23.765-61.483-2.688-3.882-2.39-4.778 1.11-7.808 18.815-16.342 41.002-23.81 65.62-24.833.81 0 1.665-.085 2.475-.128 9.942-.726 10.326-.043 11.435 9.813 2.517 22.4-2.86 42.58-16.17 60.672-9.046 12.288-20.95 21.077-34.945 27.05-3.84 1.664-5.077.982-5.76-3.285zm-26.112 6.997c3.03 26.24.512 52.438-2.602 78.55-1.664 13.994-4.096 27.904-5.888 41.856-1.11 8.15-1.664 16.34-2.39 24.533-88.66-11.392-157.14-87.168-157.14-178.9C268.544 208.767 349.31 128 448.938 128c87.935 0 161.193 62.933 177.15 146.176h-.298c-13.397.085-26.752.683-39.936 3.072-15.104 2.816-29.78 6.912-44.032 12.5-2.56 1.025-2.9.215-2.603-2.047.556-4.735.983-9.47 1.495-14.25.042-.51.085-1.023.17-1.535 1.494-13.952 3.03-27.904.555-41.984-1.28-7.295-3.243-9.087-10.58-9.343-13.996-.512-27.905-.384-41.857 1.024-25.216 2.56-48.896 8.705-67.627 27.35-1.536 1.58-3.03 1.75-4.992.256-4.48-3.328-9.344-6.187-14.507-8.448-33.62-14.55-68.778-17.835-104.917-14.08-4.01.427-6.144 2.73-7.253 6.357-7.85 25.814-8.79 51.5 0 77.398 8.618 25.258 22.528 45.994 45.866 60.117 20.907 12.63 43.478 20.523 66.902 26.496 5.546 1.408 7.253.17 8.405-5.46.81-4.012 1.75-7.937 2.816-11.863 1.62-5.632 1.408-6.186-4.437-7.338-15.617-3.03-30.423-8.235-44.503-15.488-16-8.192-30.506-18.304-41.13-33.195-15.872-22.187-19.84-46.805-14.806-73.26.727-3.753 2.817-5.076 6.4-5.332 15.916-1.11 31.532.384 46.85 4.565 20.394 5.504 37.76 15.83 51.2 32.342 14.293 17.62 20.735 38.314 23.295 60.33zM628.31 304.94c-1.707 47.273-17.793 88.532-52.65 121.172-24.79 23.125-54.273 37.845-87.767 44.117-3.285.597-6.57 1.28-9.856 1.877-.853.128-1.45.426-1.877.853-.17.213-.683.853-.725 2.304-.043 2.603 1.536 8.576 2.26 11.22-9.386 1.537-18.986 2.305-28.756 2.305 0-3.67.04-8.45.255-14.038.298-6.57.768-25.43 4.736-43.35 8.363-37.674 25.77-70.186 55.21-95.658 21.975-19.03 47.404-31.147 75.692-37.077 11.69-2.432 23.595-3.627 35.584-1.835.47.085.98.128 1.45.213 6.102 1.152 6.657 1.707 6.443 7.894zM312.66 842.367c2.817 4.736 1.324 9.173-1.79 13.27-3.5 4.693-7.553 8.917-11.734 13.055-3.54 3.542-7.253 3.755-11.093.683-6.955-5.504-9.302-5.42-15.616.768-2.902 2.816-5.632 5.845-8.576 8.62-1.15 1.065-2.602 1.79-4.394 1.705-1.92-.043-3.37-1.153-4.01-1.75l-10.24-7.04c-1.28-.896-1.963-2.304-2.006-3.712v-.34c.043-.897.34-1.793.896-2.604 7.808-10.58 13.525-18.26 15.616-21.163.427-.596 1.536-2.175 3.54-2.772 1.836-.512 3.543.085 4.524.47 3.67 1.407 7.68 3.413 10.54 4.906 1.92.98 4.223.597 5.63-1.024 2.475-2.73 6.23-6.74 9.814-10.027.085-.128.213-.213.34-.34.897-.897 2.263-2.262 4.225-2.134 6.57.34 11.136 4.052 14.336 9.428zm482.52-145.152c.04.3.084.555.084.853v.554c-.043 1.11-.384 2.133-.725 3.243-.812 2.474-2.135 3.882-5.207 7.722-2.005 2.517-4.01 5.077-6.272 7.38-4.137 4.225-5.887 6.358-7.764 6.486-1.707.128-3.5-1.365-7.168-4.48-.3-.256-.597-.47-.896-.768-.213-.128-.384-.3-.555-.427-3.968-3.156-5.76-3.156-9.13.6-3.03 3.37-5.803 6.996-8.747 10.495-1.365 1.62-2.9 2.858-5.205 1.45-3.755-2.26-7.68-4.352-11.35-6.784-3.456-2.26-3.882-4.393-1.536-7.85 4.99-7.466 10.24-14.72 15.36-22.058.298-.47 1.11-1.62 2.517-2.005 1.493-.427 2.9.213 3.67.64 3.242 2.688 6.442 5.418 9.642 8.106.553.427 1.535 1.024 2.644.896 1.365-.17 2.26-1.323 2.688-1.92 3.5-4.566 7.253-8.918 10.624-13.526 1.707-2.39 3.03-2.773 5.42-.896.212.17.425.3.64.47.212.17.383.34.553.47 2.56 2.09 5.034 4.308 5.034 4.308 3.54 3.37 5.29 5.077 5.675 7.04zm-396.033 73.9c-20.608-.3-36.438-1.324-51.926-5.292-9.47-2.432-18.26-6.272-26.153-12.117-1.238-.94-2.39-1.963-3.67-2.86-4.266-2.943-7.722-2.602-11.008 1.366-1.963 2.39-3.627 5.035-5.334 7.638-3.755 5.718-7.808 11.094-13.824 14.763-7.04 4.267-14.25 3.328-19.584-2.944-5.077-5.89-7.083-12.93-7.34-20.48-.767-22.017 3.67-43.265 10.113-64.13 2.348-7.636 5.335-15.06 8.108-22.57.043-.085.085-.213.128-.34.597-1.537 1.237-3.414 3.54-2.518 1.88.725 1.41 2.22.94 3.627-.085.255-.128.51-.213.724-3.328 12.843-7.382 25.472-9.302 38.656-.04.34-.084.683-.127 1.067-1.11 7.552-2.218 15.146-.34 22.784 1.578 6.443 5.162 11.563 10.75 15.062 5.932 3.67 13.228 2.73 18.86-2.304 4.82-4.31 9.088-9.173 13.994-13.397 5.12-4.394 10.496-5.717 16.896-3.07 31.403 13.097 64.3 14.932 97.792 13.44 21.846-1.025 43.264-4.268 64.384-9.644 24.19-6.1 47.018-15.7 69.375-26.667 27.776-13.61 53.29-30.806 78.038-49.238 13.397-9.984 28.245-17.365 43.306-24.363 1.28-.598 2.9-1.195 4.01.085.853.938.384 1.877-.128 2.816-.128.257-.256.513-.34.77-5.08 12.457-14.04 20.777-26.455 25.684-13.098 5.205-23.722 14.123-34.432 22.955-29.952 24.788-61.994 46.25-97.578 62.12-28.416 12.63-57.814 21.804-88.832 25.388-16.043 1.877-32.128 2.86-43.606 2.987zm8.106-95.745c-25.13-.597-53.632-4.266-80.298-17.066-5.206-2.517-9.856-5.803-13.995-9.813-6.315-6.143-7.467-13.994-6.23-22.23.726-4.948 4.95-6.953 10.198-4.863 8.79 3.5 17.62 6.656 26.71 9.216 14.55 4.096 29.354 6.486 44.33 8.235 25.13 2.944 50.304 2.26 75.392-.94 20.907-2.687 41.3-7.508 61.397-13.865 43.307-13.696 82.22-35.115 115.798-65.792 10.282-9.43 19.626-19.882 26.624-32.17 3.967-6.955 6.57-14.42 6.655-22.4.256-15.317 6.23-28.8 12.885-42.07.043-.127.085-.255.17-.383.385-.896.854-1.92 2.006-1.58 1.408.385 1.365 1.75 1.365 2.902v.426c.044 18.005-1.62 35.755-7.508 52.95-8.405 24.618-22.57 45.567-39.85 64.81-27.478 30.42-61.185 51.413-98.86 66.688-23.167 9.387-47.103 16.427-71.594 21.248-20.18 3.925-40.576 6.528-65.195 6.74zm310.7 20.737c-.3 9.685-.94 18.73-4.438 27.264-4.054 9.985-11.35 13.185-21.035 8.62-9.77-4.61-19.755 4.437-20.608 12.543-.256 2.475.555 4.78 2.517 6.443 1.407 1.237 2.986 2.347 4.65 3.328 6.144 3.755 7.424 6.144 6.315 13.27-.81 4.863-2.774 9.386-6.102 13.098-3.242 3.627-7.125 4.48-11.69 2.603-1.195-.47-2.432-.94-3.627-1.536-7.125-3.415-13.952-2.476-19.712 2.56-9.9 8.703-19.67 17.492-30.507 24.96-21.46 14.76-43.477 28.628-67.456 39.04-23.892 10.367-48.64 17.663-74.367 21.76-28.8 4.607-57.557 5.12-86.314 0-9.985-1.793-19.97-3.67-29.484-7.425-4.608-1.835-8.875-4.054-12.5-7.467-2.56-2.39-5.292-2.475-8.236-.81-3.115 1.79-5.93 3.925-8.277 6.698-8.79 10.41-17.622 20.78-26.454 31.147-.982 1.152-2.05 2.26-3.5 3.797-.34-3.285.94-5.42 2.262-7.38 13.013-19.2 27.264-37.505 42.283-55.127 6.314-7.38 13.44-8.576 22.23-4.352 15.828 7.596 32.724 11.095 50.047 12.8 31.573 3.116 62.42-1.364 92.928-9.172 23.637-6.016 46.848-13.184 68.907-23.893 20.48-9.942 39.466-22.315 58.112-35.243 5.12-3.54 9.855-7.552 14.463-11.733 2.645-2.433 5.546-4.524 8.874-5.932 2.603-1.067 3.798-2.86 4.523-5.46 3.157-11.35 8.363-21.59 16.597-30.124 3.158-3.243 6.912-5.504 11.094-7.04 3.67-1.323 7.17-.98 10.54 1.323 4.18 2.816 6.826 2.09 9.6-2.09 2.133-3.158 3.114-6.7 3.626-10.412.427-2.73 1.664-4.693 4.65-6.144zm20.82-53.42c.81-19.967 5.334-38.612 10.624-57.13 2.262-7.808 4.694-15.53 7.04-23.296.043-.17.128-.383.17-.553.3-1.152.64-2.347 1.964-2.304 1.494.085 1.75 1.792 2.134 2.986 1.237 4.01.3 7.85-.64 11.647-.3 1.28-.597 2.56-.853 3.84-2.218 12.118-4.863 24.107-6.1 36.352-.64 6.442.34 12.63 4.48 18.005 5.887 7.68 15.103 6.87 19.797-1.622.213-.384.34-.81.512-1.28.468-1.365 1.023-2.858 2.687-2.304 2.048.64 1.408 2.303.896 3.797-.17.426-.3.81-.384 1.194-2.135 10.327-4.61 20.524-11.308 29.1-1.835 2.347-3.883 4.523-6.357 6.23-8.32 5.59-18.09 2.645-21.888-6.614-2.475-5.973-2.774-12.288-2.73-18.048zm-84.266 60.46c-1.238-.086-2.86-.17-3.286-1.792-.34-1.58.94-2.347 2.092-3.03.085-.042.213-.128.3-.17 11.775-7.296 22.825-15.66 34.09-23.723 13.31-9.557 22.613-22.016 27.86-37.547 1.622-4.736 3.713-9.3 5.633-13.91.384-1.023 1.024-2.132 2.346-1.748 1.41.426 1.537 1.706 1.11 2.944-5.29 16.3-9.3 33.025-17.45 48.342-7.38 13.867-19.03 22.016-33.664 26.41-6.144 1.878-12.373 3.457-19.072 4.267zM548.82 552.66c-.084.428-.17 1.793-.596 2.988-2.688 7.637-7.34 13.91-14.037 18.517-3.67 2.518-6.614 2.09-9.344-1.322-3.542-4.395-8.192-7.254-13.014-9.942-4.054-2.303-4.267-3.2-1.707-6.868 4.906-6.912 9.813-13.78 14.762-20.693 2.56-3.543 3.627-3.884 7.424-1.836 4.223 2.26 8.362 4.693 11.69 8.235 2.645 2.815 4.864 5.887 4.82 10.92zm228.012 185.73c-.085.34-.128 1.407-.47 2.43-2.218 6.23-6.015 11.308-11.477 15.063-2.986 2.048-5.376 1.706-7.594-1.067-2.9-3.584-6.655-5.888-10.58-8.107-3.33-1.835-3.5-2.56-1.366-5.59 3.968-5.632 7.98-11.22 12.032-16.853 2.048-2.902 2.944-3.158 6.06-1.494 3.412 1.835 6.783 3.798 9.47 6.656 2.177 2.303 4.01 4.82 3.926 8.917z"/></svg>