<svg viewBox="0 0 1024 1024" xmlns="http://www.w3.org/2000/svg"><path d="M128.256 147.285c85.29 0 170.58 0 255.915-.042 170.625-.043 341.206-.086 511.787.17-.128 88.406-.085 176.81-.042 265.216v.17c0 31.744 0 63.445.042 95.147-15.7-.086-31.402-.043-47.104 0-9.258 0-18.517.042-27.776.042-.554-71.68-30.805-142.038-80.128-193.323-50.902-53.632-121.302-87.21-194.305-94.848-59.946-6.53-121.642 4.095-175.914 30.676-60.33 29.312-111.103 79.06-140.245 140.117-17.365 36.395-26.922 76.63-27.946 117.035h-2.135c-24.106-.085-48.17-.128-72.277-.043-.128-120.106-.213-240.256.128-360.32zm-.128 368.94c14.763-.086 29.525-.086 44.288-.086h30.507c-.3 96.425-.214 192.81-.086 289.236 116.352.213 232.704.213 349.056.17h.384c63.19-.042 126.38-.042 189.568-.042 16.384-.128 32.81.17 49.195.427 9.984.17 19.968.342 29.995.427-.043-36.053-.043-72.15 0-108.202 0-60.587 0-121.13-.128-181.675h75.05c0 13.696 0 27.392-.042 41.045-.043 106.454-.086 212.822.085 319.232-256 .043-511.957 0-767.915.043 0-42.197-.042-84.437-.042-126.635v-.042c0-23.723-.043-47.446-.043-71.126V601.77c0-28.5.043-57.002.085-85.546zm388.82-109.1c0-1.322.6-91.008 10.412-102.997 14.89-18.26 30.25-14.293 44.117-10.71 2.518.64 4.992 1.28 7.382 1.75 15.615 3.157 28.116 11.05 31.23 26.283 3.115 15.233-7.807 33.665-7.807 33.665l-36.438 64.128zm-56.49 12.246s-46.165-78.122-43.903-93.61c4.053-27.648 24.533-29.14 39.51-34.603 14.975-5.46 29.695-5.248 40.19 6.187 10.497 11.392 10.54 32.853 10.54 32.853l1.706 73.942zm-40.533 39.297s-79.914-41.9-86.058-56.32c-9.302-21.718 1.194-33.75 10.666-44.587 1.707-1.963 3.37-3.883 4.907-5.803 9.9-12.63 22.528-20.266 37.376-16.128 14.89 4.138 26.112 22.357 26.112 22.357l39.936 61.994zm-19.114 51.54s-90.026.812-102.143-8.96c-18.304-14.804-14.592-30.42-11.264-44.458.597-2.56 1.194-5.035 1.62-7.467 2.902-15.83 10.497-28.587 25.558-31.958 15.063-3.37 33.452 7.382 33.452 7.382l64 35.84zm11.777 55.68s-79.36 43.01-94.592 40.022c-27.136-5.334-27.648-26.07-32.384-41.473-4.735-15.36-3.84-30.208 7.937-40.234 11.733-10.07 32.98-9.174 32.98-9.174l73.174 1.663zm37.973 38.145s-44.97 78.763-59.477 84.352c-21.888 8.405-33.323-2.73-43.648-12.757-1.835-1.792-3.67-3.584-5.547-5.206-12.032-10.58-18.987-23.68-14.25-38.484 4.735-14.805 23.253-25.344 23.253-25.344l63.062-37.547zm57.216 15.147s.085 90.964-9.728 103.124c-14.805 18.304-30.208 14.464-44.075 11.008-2.517-.64-4.992-1.28-7.424-1.75-15.617-3.03-28.16-10.837-31.36-26.07-3.243-15.23 7.55-33.705 7.55-33.705l36.012-64.384zm56.235-14.807s47.915 77.014 46.038 92.587c-3.456 27.733-23.893 29.696-38.74 35.5-14.807 5.8-29.57 5.93-40.28-5.25-10.75-11.178-11.348-32.64-11.348-32.64l-3.328-73.855zm44.8-37.12s79.53 42.624 85.547 57.088c9.088 21.804-1.493 33.75-11.05 44.46-1.75 1.963-3.414 3.883-4.95 5.803-10.026 12.5-22.74 20.053-37.546 15.786-14.847-4.31-25.898-22.614-25.898-22.614l-39.38-62.336zm13.398-51.072c1.58-.084 90.07-4.735 102.443 4.44 18.945 13.993 15.915 29.737 13.185 43.903-.47 2.56-.982 5.077-1.28 7.552-2.176 15.914-9.26 28.97-24.15 33.024-14.89 4.052-33.706-5.89-33.706-5.89l-65.537-32.98zM610.9 463.148v-.043s77.783-45.78 93.143-43.307c27.306 4.395 28.586 25.088 33.792 40.278 5.248 15.19 4.864 30.08-6.528 40.533-11.435 10.496-32.683 10.325-32.683 10.325l-73.173.896zm-36.48-43.776c.727-1.15 47.063-77.653 61.612-82.815 22.1-7.85 33.28 3.584 43.307 13.866 1.833 1.88 3.583 3.67 5.417 5.335 11.734 10.88 18.39 24.15 13.27 38.826-5.12 14.68-23.894 24.748-23.894 24.748l-64 35.925zm59.01 92.587q0 50.86-35.627 86.87-35.67 36.053-86.187 36.053-121.856 0-121.856-122.923 0-50.858 35.627-86.826 35.712-36.053 86.23-36.053 121.812 0 121.812 122.88zm-31.318 0q0-37.973-26.54-64.81-26.495-26.795-63.956-26.795-90.54 0-90.54 91.605 0 91.606 90.54 91.606 37.46 0 63.957-26.752 26.54-26.837 26.54-64.853zM512 594.86c-47.957 0-86.827-37.08-86.827-82.86 0-45.74 38.87-82.86 86.827-82.86 48 0 86.87 37.12 86.87 82.86 0 45.78-38.87 82.86-86.87 82.86zm0-20.055c35.925 0 65.067-28.117 65.067-62.805 0-34.645-29.142-62.763-65.067-62.763S446.933 477.355 446.933 512c0 34.688 29.142 62.805 65.067 62.805zm0-17.706c-26.624 0-48.17-20.183-48.17-45.1s21.546-45.1 48.17-45.1c26.624 0 48.213 20.183 48.213 45.1s-21.59 45.1-48.213 45.1z"/></svg>