<svg viewBox="0 0 1024 1024" xmlns="http://www.w3.org/2000/svg"><path d="M763.95 337.222q-2.606.326-5.213.233Q622.08 332.52 622.08 195.398q0-59.02 41.565-100.538 41.52-41.52 100.538-41.52 58.973 0 100.585 41.706 41.472 41.61 41.472 100.352-.977 137.123-137.076 142.056-2.607.094-5.213-.232zm5.307-63.814q72.47-3.863 72.983-78.01 0-78.057-78.057-78.057-32.535 0-55.296 22.762-22.807 22.807-22.807 55.296 0 74.147 72.564 78.01 5.307-.512 10.613 0zm-39.89 311.11q85.225 14.336 144.99-25.74 30.952-20.62 30.952-46.36t-30.86-46.312q-60.836-40.355-146.153-25.414-13.033 2.28-23.878-5.352-10.846-7.587-13.127-20.666-2.327-13.033 5.306-23.878 7.633-10.846 20.665-13.173 110.453-19.316 192.652 35.19 59.392 39.61 59.392 99.606 0 59.996-59.3 99.56-80.942 54.178-191.255 35.7-13.033-2.234-20.76-13.033-7.68-10.752-5.492-23.83 2.188-13.08 12.986-20.76 10.798-7.727 23.877-5.54zM258.793 337.222q-2.607.326-5.213.233-136.146-4.934-137.123-142.057 0-58.74 41.518-100.352Q199.587 53.34 258.56 53.34q142.057 0 142.057 142.058 0 137.123-136.61 142.056-2.654.094-5.214-.232zm-5.353-63.814q5.353-.512 10.66 0 72.517-3.863 72.517-78.01 0-32.49-22.76-55.296-22.808-22.76-55.297-22.76-32.396 0-55.25 22.9-22.853 22.9-22.853 55.156.558 74.147 72.983 78.01zm50.502 374.272q-110.266 18.48-191.21-35.7-59.298-39.564-59.298-99.56 0-59.998 59.346-99.608 82.2-54.505 192.698-35.19 13.032 2.328 20.666 13.174 7.587 10.845 5.306 23.877-2.28 13.08-13.126 20.667-10.845 7.633-23.924 5.352-85.318-14.94-146.106 25.414-30.86 20.573-30.86 46.313 0 25.74 30.906 46.358 59.81 40.076 145.036 25.74 13.08-2.188 23.83 5.54 10.8 7.68 13.034 20.758 2.188 13.08-5.54 23.83-7.68 10.8-20.758 13.034zm204.008 8.285q-2.606.326-5.212.233Q366.08 651.264 366.08 514.14q0-59.018 41.565-100.537 41.52-41.565 100.538-41.565 142.057 0 142.057 142.103-.977 138.1-137.31 142.058-2.512.093-4.98-.233zm5.493-63.814q72.285-3.303 72.797-78.01 0-78.102-78.057-78.102-78.103 0-78.103 78.103 0 74.148 72.564 78.01 5.4-.557 10.8 0zM370.176 731.928q142.29-94.254 283.74.047 59.393 39.61 59.393 99.607 0 59.998-59.346 99.562-141.964 94.906-283.88 0-59.346-39.564-59.346-99.56 0-59.998 59.345-99.608zm35.42 53.295l-.092.046q-30.767 20.573-30.767 46.313 0 25.74 30.86 46.314 106.403 71.168 212.806.046 30.906-20.62 30.906-46.36t-30.907-46.358q-106.03-70.656-212.806 0z"/></svg>