<svg viewBox="0 0 1024 1024" xmlns="http://www.w3.org/2000/svg"><path d="M725.333 928H298.667c-188.16 0-245.334-57.173-245.334-245.333V341.333C53.333 153.173 110.507 96 298.667 96h426.666c188.16 0 245.334 57.173 245.334 245.333v341.334c0 188.16-57.174 245.333-245.334 245.333zM298.667 160c-152.747 0-181.334 29.013-181.334 181.333v341.334C117.333 834.987 145.92 864 298.667 864h426.666c152.747 0 181.334-29.013 181.334-181.333V341.333C906.667 189.013 878.08 160 725.333 160H298.667zm512 213.333H597.333c-17.493 0-32-14.506-32-32 0-17.493 14.507-32 32-32h213.334c17.493 0 32 14.507 32 32 0 17.494-14.507 32-32 32zm0 170.667H640c-17.493 0-32-14.507-32-32 0-17.493 14.507-32 32-32h170.667c17.493 0 32 14.507 32 32 0 17.493-14.507 32-32 32zm0 170.667h-85.334c-17.493 0-32-14.507-32-32 0-17.494 14.507-32 32-32h85.334c17.493 0 32 14.506 32 32 0 17.493-14.507 32-32 32zm-448-200.96c-60.16 0-109.227-49.067-109.227-109.227 0-60.16 49.067-109.227 109.227-109.227 60.16 0 109.226 49.067 109.226 109.227 0 60.16-49.066 109.227-109.226 109.227zm0-154.454c-24.747 0-45.227 20.48-45.227 45.227 0 24.747 20.48 45.227 45.227 45.227 24.746 0 45.226-20.48 45.226-45.227 0-24.747-20.48-45.227-45.226-45.227zM512 728.747c-16.213 0-30.293-12.374-32-29.014-4.693-46.08-41.813-83.2-88.32-87.466-19.627-1.707-39.253-1.707-58.88 0-46.507 4.266-83.627 40.96-88.32 87.466-1.707 17.494-17.493 30.72-34.987 28.587-17.493-1.707-30.293-17.493-28.586-34.987 7.68-76.8 68.693-137.813 145.92-144.64 23.466-2.133 47.36-2.133 70.826 0 76.8 7.254 138.24 68.267 145.92 144.64 1.707 17.494-11.093 33.28-28.586 34.987-.854.427-2.134.427-2.987.427z"/></svg>