<svg viewBox="0 0 1024 1024" xmlns="http://www.w3.org/2000/svg"><path d="M768 128H256c-94.293 0-170.667 75.947-170.667 169.387v429.226C85.333 820.053 161.707 896 256 896h512c94.293 0 170.667-75.947 170.667-169.387V297.387C938.667 203.947 862.293 128 768 128zM362.667 305.92c54.186 0 98.56 44.373 98.56 98.56 0 54.187-44.374 98.56-98.56 98.56-54.187 0-98.56-44.373-98.56-98.56 0-54.187 44.373-98.56 98.56-98.56zm165.12 404.907c-3.84 4.266-9.814 6.826-15.787 6.826H213.333c-5.973 0-11.946-2.56-15.786-6.826-3.84-4.267-5.974-10.24-5.547-16.214 7.253-71.68 64.427-128.426 136.107-135.253 22.613-2.133 46.08-2.133 68.693 0 71.68 6.827 129.28 63.573 136.107 135.253.853 5.974-1.28 11.947-5.12 16.214zm282.88 3.84h-85.334c-17.493 0-32-14.507-32-32 0-17.494 14.507-32 32-32h85.334c17.493 0 32 14.506 32 32 0 17.493-14.507 32-32 32zm0-170.667H640c-17.493 0-32-14.507-32-32 0-17.493 14.507-32 32-32h170.667c17.493 0 32 14.507 32 32 0 17.493-14.507 32-32 32zm0-170.667H597.333c-17.493 0-32-14.506-32-32 0-17.493 14.507-32 32-32h213.334c17.493 0 32 14.507 32 32 0 17.494-14.507 32-32 32z"/></svg>