<svg viewBox="0 0 1024.0002 1024.0002" xmlns="http://www.w3.org/2000/svg"><path d="M554.112 0h3.098c22.45.512 44.722 10.292 59.365 27.47 14.746 16.895 21.66 40.242 18.433 62.412-2.202 17.97-11.495 34.406-24.192 47.053-23.63 23.705-47.386 47.334-71.014 71.014-7.732 7.6-15.053 15.69-23.552 22.475-15.616 12.8-36.404 18.867-56.448 16.947-21.53-1.817-41.96-13.158-55.092-30.26-12.544-16.025-18.406-37.068-15.948-57.292 1.868-18.56 11.29-35.71 24.396-48.74 27.93-28.06 55.988-55.988 83.917-83.995C511.872 11.29 532.352 1.1 554.112 0zM438.426 142.567c-9.293 9.88-12.672 24.704-8.653 37.683 4.377 14.9 18.457 26.47 34.048 27.443 11.29 1.075 22.76-3.25 30.773-11.213 10.394-10.112 20.557-20.505 30.822-30.745-18.38-18.407-36.76-36.813-55.168-55.22-10.598 10.7-21.452 21.146-31.82 32.052zM528.41 52.43c-9.984 9.88-19.892 19.89-29.824 29.823 18.38 18.407 36.76 36.787 55.168 55.168 11.852-12.567 25.37-23.73 35.992-37.425 7.86-11.955 8.192-28.416.77-40.704-6.938-11.903-20.583-19.66-34.407-19.173-10.473.076-20.457 4.94-27.7 12.313zM22.99 121.01c11.468-9.293 26.34-13.39 40.96-13.005 31.052.025 62.08 0 93.106-.026 50.406-.025 100.787-.05 151.194.13 11.57-.565 22.144 10.11 20.582 21.81-.742 11.212-11.904 19.02-22.707 18.047-46.157.026-92.288.026-138.445.026H63.846c-6.81-.128-14.156 1.51-18.713 6.963-4.84 5.07-5.17 12.442-5.17 19.047.05 21.12.05 42.265.05 63.385-.026 16.895-.026 33.817 0 50.713 314.675.026 629.3.026 943.973 0 .026-16.946.026-33.894 0-50.84v-.153c0-21.044 0-42.087.05-63.156.027-6.58-.408-13.9-5.17-18.97-4.557-5.477-11.904-7.115-18.713-6.987H902.68c-33.535 0-67.07 0-100.633.05-6.502 0-13.722-.716-18.56-5.656-7.86-6.964-8.346-20.378-.947-27.904 4.814-5.58 12.494-6.605 19.43-6.503 49.998.027 99.995.027 149.966 0 13.338-.255 27.315.155 39.296 6.76 19.61 9.702 32.256 30.745 32.768 52.505v214.99c-.845 31.436-17.97 61.413-44.21 78.642.306 107.674.255 215.373.204 323.046v.23c-.026 66.61-.052 133.222 0 199.834 3.2.102 6.425.05 9.65-.026 6.76-.127 13.518-.28 20.148 1.153 8.14 2.15 13.414 10.086 14.208 18.227v1.128c-.614 10.368-9.19 18.995-19.61 19.532H19.763C9.37 1023.564.717 1014.99 0 1004.62v-1.1c.69-8.705 6.707-17.153 15.642-18.74 6.246-1.05 12.57-.92 18.892-.82 3.175.05 6.324.13 9.472.027.026-69.504 0-139.008 0-208.512-.025-101.172-.05-202.316.052-303.462-.18-1.33-.077-2.84.05-4.377.257-3.508.538-7.117-2.815-8.935C16.59 441.55 1.023 412.546 0 382.49V167.348c.59-17.792 8.73-35.43 22.99-46.336zm113.074 350.95c-16.768 5.402-34.688 5.07-52.045 3.686-.027 127.08-.027 254.156-.027 381.26v127.08h68.02c0-52.07 0-104.14-.027-156.213 0-84.66-.025-169.292.077-253.95-.896-12.007 9.65-22.63 21.683-21.76 102.784-.103 205.568-.103 308.352 0 12.134-1 22.706 9.753 21.836 21.81.102 84.172.077 168.37.077 252.57-.025 52.505-.025 105.036 0 157.542h435.993V880H607.87c-5.963.025-12.39-.92-16.92-5.17-5.48-4.56-7.117-11.957-6.964-18.767v-.05c0-93.338.027-186.676 0-280.013.077-5.58.615-11.596 4.327-16.076 4.404-6.17 12.365-8.167 19.585-7.936h332.107c0-25.447 0-50.893-.025-76.34-12.697 1-25.548 1.434-38.194-.46-24.372-3.66-46.644-17.408-61.8-36.71-19.2 24.934-50.56 39.5-81.996 38.04-31.436 1.41-62.796-13.08-81.995-38.04-19.2 24.934-50.535 39.474-81.998 38.04-31.436 1.41-62.822-13.08-81.996-38.04-19.2 24.96-50.585 39.474-82.047 38.04-31.437 1.41-62.77-13.106-81.946-38.04-19.2 24.96-50.585 39.474-82.073 38.04-31.41 1.41-62.746-13.106-81.92-38.04-12.314 15.487-28.98 27.622-47.95 33.484zM192 592v391.987h272V592zm432 0v247.987h316.005V592zm236.005-263.884c.077 6.912.026 13.85-.025 20.76-.076 11.803-.153 23.604.436 35.406 1.613 25.293 22.374 47.718 47.462 51.302 16.23 1.92 33.895 1.69 48.205-7.244 16.845-9.83 27.597-28.8 27.802-48.256.18-10.804.153-21.58.128-32.36-.026-6.552-.05-13.08 0-19.608zm-656 0c.053 6.86.027 13.72 0 20.556-.05 11.162-.1 22.298.23 33.434.744 26.035 21.634 49.664 47.413 53.478 16.358 1.92 34.176 1.716 48.563-7.32 16.745-9.832 27.445-28.75 27.65-48.155.205-11.19.18-22.376.128-33.563 0-6.144-.025-12.288 0-18.432zm328.014 0c.075 6.835.024 13.67-.027 20.505-.077 11.88-.18 23.76.435 35.61 1.586 25.295 22.245 47.695 47.308 51.355 16.332 1.92 34.1 1.69 48.46-7.32 16.793-9.857 27.495-28.8 27.673-48.257.204-11.008.154-22.042.127-33.075-.025-6.272-.05-12.544-.025-18.816zm-164.02 0c.076 6.937.05 13.875 0 20.812-.078 11.776-.18 23.552.41 35.303 1.637 25.27 22.245 47.643 47.256 51.355 16.307 1.92 34.1 1.716 48.46-7.27 16.795-9.83 27.52-28.75 27.726-48.18.205-11.16.18-22.297.153-33.458-.025-6.17-.05-12.365-.025-18.56zm-328.014 0c.103 6.912.05 13.85 0 20.787-.077 11.776-.153 23.577.435 35.328 1.614 25.295 22.273 47.695 47.36 51.355 15.797 1.844 32.95 1.767 47.054-6.528 17.485-9.625 28.85-28.953 29.03-48.87.205-11.213.18-22.4.13-33.613-.027-6.144-.027-12.313-.027-18.457zm656.025 0c.078 6.886.052 13.798 0 20.684-.1 11.776-.178 23.552.385 35.328 1.56 25.293 22.22 47.744 47.31 51.456 15.82 1.844 32.997 1.767 47.128-6.528 16.896-9.318 28.186-27.724 28.928-46.976.36-11.264.283-22.528.23-33.792v-.025c-.024-6.707-.075-13.44-.024-20.147zm66.05 313.78c.18-9.704 8.397-18.33 18.1-18.894 10.93-1.255 21.17 8.115 21.426 19.02.333 10.675.282 21.35.23 32.05-.025 7.246-.076 14.49.026 21.736 6.963.025 13.927.025 20.915 0 10.47-.05 20.94-.077 31.412.128 10.136-.36 19.736 7.808 20.427 18.047 1.408 10.983-7.96 21.402-18.944 21.607-10.726.334-21.452.282-32.18.23-7.218-.024-14.412-.05-21.63.027-.052 8.422-.026 16.845-.026 25.267v.026c0 8.345.025 16.69-.026 25.01.13 7.194-2.482 14.874-8.677 19.022-8.064 5.99-20.557 4.224-26.7-3.738-4.123-4.813-4.61-11.418-4.635-17.46.05-16.05.05-32.102.025-48.127-7.347-.077-14.67-.05-22.016-.026-10.574.053-21.147.105-31.72-.203-8.832-.307-17.202-6.86-18.74-15.692-2.942-11.495 6.735-23.73 18.484-23.86 10.958-.384 21.915-.332 32.846-.256 7.065.026 14.105.077 21.145 0 .078-7.04.026-14.08 0-21.094-.05-10.93-.127-21.89.257-32.82zm-503.167 7.167c8.115-4.352 19.072-2.048 24.627 5.35 3.61 4.3 4.43 10.087 4.48 15.54.026 21.452 0 42.93 0 64.41v.075c0 30.463-.026 60.952.05 91.442 0 .282-.024.538-.024.82-.026 6.502-.052 13.67-4.532 18.84-6.374 8.628-20.07 10.087-28.108 2.97-5.632-4.326-7.552-11.622-7.373-18.432v-160.15c-.46-8.297 3.2-17.025 10.88-20.865zm134.093 120.42c13.414-5.76 29.312 7.17 26.52 21.403-1.458 14.36-20.402 22.093-31.46 12.8-12.29-8.5-9.166-29.543 4.94-34.202zm-132.3 121.473c10.47-4.582 23.704 2.176 26.34 13.235 3.252 10.523-4.3 22.58-15.077 24.45-9.91 2.38-20.66-4.506-23.017-14.285-2.764-9.32 2.79-19.917 11.75-23.4z"/></svg>