<svg viewBox="0 0 1024 1024" xmlns="http://www.w3.org/2000/svg"><path d="M379.733 817.066c-26.88 0-52.053-6.4-74.24-19.2C253.013 767.573 224 706.56 224 626.346V398.08c0-80.214 29.012-141.227 81.493-171.52 52.48-30.294 119.467-24.747 189.44 15.36L692.48 355.84c69.547 40.107 107.947 95.573 107.947 156.16s-38.4 116.053-107.948 156.16L494.93 782.08c-40.106 23.467-79.36 34.986-115.2 34.986zm0-545.706c-15.788 0-30.294 3.413-42.666 10.666C305.493 300.373 288 341.333 288 398.08v227.84c0 56.32 17.493 97.707 49.492 116.052 32 18.348 76.375 12.8 125.442-15.36l197.546-113.92c49.065-28.16 75.947-64 75.947-100.692 0-36.693-26.882-72.533-75.947-100.693L462.934 297.385c-30.294-17.492-58.454-26.025-83.2-26.025z"/></svg>