<svg viewBox="0 0 1024 1024" xmlns="http://www.w3.org/2000/svg"><path d="M536.154 404.36v215.28q0 9.367-6.595 15.993-6.628 6.596-15.995 6.596-9.336 0-15.962-6.598-6.626-6.626-6.626-15.993V404.36q0-9.367 6.626-15.993 6.626-6.596 15.962-6.596 9.367 0 15.993 6.598 6.594 6.626 6.594 15.993zm85.173 130.228H405.805q-9.336 0-15.962-6.626-6.626-6.595-6.626-15.962t6.626-15.962q6.626-6.626 15.962-6.626h215.522q9.367 0 15.962 6.626 6.624 6.595 6.624 15.962t-6.626 15.962q-6.596 6.626-15.963 6.626zM290.244 735.322Q167.002 612.082 167.002 512q0-100.08 123.242-223.322 123.24-123.272 223.322-123.272 100.08 0 223.353 123.272Q860.16 411.918 860.16 512q0 100.08-123.24 223.322-123.273 123.242-223.354 123.272-100.08 0-223.322-123.272zm31.955-31.924q109.987 110.02 191.365 110.02 81.378 0 191.398-110.02T814.983 512q0-81.378-110.02-191.398t-191.397-110.02q-81.378 0-191.367 110.02Q212.18 430.622 212.18 512T322.2 703.398z"/></svg>