<svg viewBox="0 0 1024 1024" xmlns="http://www.w3.org/2000/svg"><path d="M515.627 495.616q-3.627-.34-7.98.043-1.962.17-3.967.127-89.173-3.03-151.125-67.158-61.995-64.214-61.995-153.857 0-91.733 64.725-156.544Q420.095 53.332 512 53.332q91.648 0 156.544 64.896 64.896 64.895 64.896 156.543-.384 89.77-62.38 153.856-62.036 64.127-151.167 67.157-2.133.042-4.266-.17zm4.01-63.872Q668.8 425.77 669.44 274.774q0-65.153-46.123-111.275Q577.152 117.332 512 117.332q-65.365 0-111.445 46.123-45.995 46.08-45.995 111.317 0 151.04 149.504 156.97 7.98-.596 15.573 0zM287.83 594.56q96.34-63.872 231.51-63.872 135.252 0 230.953 63.915 91.734 61.013 91.734 151.68 0 90.624-91.648 151.978-96.087 64.3-231.34 64.3t-231.253-64.256q-91.734-61.013-91.734-151.68 0-90.624 91.648-151.98zm35.455 53.248l-.128.085q-63.104 42.326-63.104 98.73 0 56.406 63.147 98.433 80 53.504 195.84 53.504t195.755-53.46q63.232-42.327 63.232-98.817 0-56.406-63.147-98.432-79.66-53.162-195.54-53.162-115.8 0-196.055 53.12z"/></svg>