<svg viewBox="0 0 1024 1024" xmlns="http://www.w3.org/2000/svg"><path d="M387.63 495.616q-3.63-.326-7.96.047-2 .186-4.002.093-89.18-2.98-151.086-67.12-62-64.185-62-153.832 0-91.74 64.7-156.532 64.79-64.93 156.718-64.93 91.648 0 156.58 64.883 64.883 64.885 64.883 156.58-.372 89.74-62.417 153.832-62 64.14-151.133 67.12-2.14.092-4.283-.14zm4.004-63.86q149.178-5.958 149.83-156.952 0-65.163-46.174-111.336Q449.164 117.34 384 117.34q-65.35 0-111.43 46.128-45.987 46.08-45.987 111.336 0 151.04 149.458 156.952 8.006-.605 15.594 0zM700.137 138.66q75.31 0 128.372 53.2 52.968 53.062 52.968 128.14 0 174.778-174.592 181.295-2.56.093-5.167-.233-1.444-.186-3.585.046-13.172 1.49-23.505-6.795-10.333-8.285-11.823-21.458-1.49-13.172 6.796-23.505 8.285-10.38 21.457-11.823 8.006-.884 15.593-.28Q817.478 432.036 817.478 320q0-117.34-117.34-117.34-13.22 0-22.622-9.357-9.356-9.402-9.356-22.62 0-13.266 9.356-22.668 9.402-9.356 22.62-9.356zM159.79 594.57q96.35-63.907 231.564-63.907 135.26 0 230.96 63.907 91.693 61.02 91.693 151.69 0 90.672-91.648 152.02-96.07 64.278-231.332 64.278-135.26 0-231.284-64.233Q68.05 837.307 68.05 746.59q0-90.625 91.647-151.972zm35.515 53.248l-.14.046q-63.115 42.31-63.115 98.723 0 56.412 63.162 98.443 80.01 53.527 195.816 53.527 115.852 0 195.77-53.48 63.21-42.357 63.21-98.817 0-56.366-63.163-98.397-79.64-53.2-195.49-53.2-115.806 0-196.05 53.154zM775.96 821.993q41.285-8.565 70.655-31.14 37.423-28.066 37.423-65.72 0-37.657-37.097-65.49-28.345-21.644-70.19-31.093-12.94-2.886-20.014-14.103-7.075-11.218-4.19-24.158 2.933-12.894 14.15-20.015 11.172-7.075 24.11-4.143 55.483 12.475 94.535 42.31 62.698 47.01 62.698 116.69 0 69.632-62.418 116.456-41.006 31.512-96.582 43.1-12.986 2.7-24.063-4.56-11.078-7.26-13.825-20.247-2.7-12.986 4.562-24.063 7.26-11.078 20.247-13.824z"/></svg>