<svg viewBox="0 0 1024 1024" xmlns="http://www.w3.org/2000/svg"><path d="M372.87 299.587l-139.13 270.29h211.477c12.288 0 22.26 9.974 22.26 22.262v409.6c0 12.287-9.972 22.26-22.26 22.26H22.26C9.974 1024 0 1014.027 0 1001.74V569.877L155.826 267.13H353.08c16.65 0 27.403 17.63 19.79 32.457zm565.893-.802l-126.24 271.093h189.216c12.287 0 22.26 9.973 22.26 22.26v409.6c0 12.29-9.973 22.262-22.26 22.262H623.303c-12.288 0-22.26-9.973-22.26-22.26V569.877L742.022 267.13h176.55c16.295 0 27.07 16.896 20.19 31.655z"/></svg>