<svg viewBox="0 0 1024 1024" xmlns="http://www.w3.org/2000/svg"><path d="M95.302 989.975L232.727 726.11H23.273C10.426 726.11 0 715.682 0 702.835v-400.29c0-12.847 10.426-23.273 23.273-23.273h418.91c12.845 0 23.272 10.426 23.272 23.272V726.11L310.294 1024h-194.35c-17.478 0-28.72-18.525-20.643-34.025zm576.838.42l130.77-264.286H605.09c-12.846 0-23.272-10.427-23.272-23.274v-400.29c0-12.847 10.426-23.273 23.273-23.273h395.637c12.847 0 23.273 10.426 23.273 23.272V726.11L876.614 1024H692.992c-17.245 0-28.51-18.13-20.852-33.606z"/></svg>