<svg viewBox="0 0 1024 1024" xmlns="http://www.w3.org/2000/svg"><path d="M201.045 128.256c121.643-.3 243.328-.256 365.014-.213h.04c76.076.042 152.15.085 228.183.042 3.797.043 7.594 0 11.392-.042 13.696-.128 27.562-.3 40.448 4.95 29.14 10.58 50.09 40.19 49.792 71.295.085 120.96.042 241.877.042 362.837v.384c0 75.647-.042 151.295 0 226.943-.085 3.67-.042 7.382 0 11.094 0 2.048.043 4.096.043 6.144v1.067c0 10.54-.64 21.035-4.523 31.02-10.112 29.226-39.253 50.56-70.23 51.07-117.162.044-234.324.044-351.444.044H206.208c-25.43.17-50.304-13.27-64.17-34.56-8.49-12.16-11.65-26.88-14.038-41.173.043-91.35.043-182.74.043-274.09-.043-114.304-.043-228.608.042-342.912 2.39-12.63 5.163-25.643 12.118-36.694 12.586-21.332 36.053-35.753 60.842-37.204zM224 205.013c-7.168.256-13.867 5.248-16.512 11.904-1.75 5.035-1.664 10.41-1.62 15.744.04 1.495.04 2.988.04 4.48V423.853c-.04 124.16-.04 248.276 0 372.393-1.023 11.094 8.065 22.144 19.5 21.718 63.83 0 127.7.042 191.53.042 127.702 0 255.403 0 383.105-.042 10.325.213 19.754-9.344 18.9-19.755v-564.95c-.042-1.578 0-3.157 0-4.778.13-4.78.257-9.6-2.346-13.78-3.54-6.615-11.136-10.24-18.474-9.815-71.083.043-142.208.043-213.29 0h-.086c-120.278 0-240.512-.042-360.747.128zm422.187 76.63c13.354-.128 26.71-.086 40.064-.043 18.774.043 37.59.085 56.363-.256-120.917 153.643-242.602 306.73-363.733 460.16h-34.347c-20.693.043-41.344.085-61.994-.085.17-37.59.127-75.18.127-112.77-.043-26.325-.043-52.65 0-79.018 21.93.128 43.904.085 65.834.043h10.924c.043 12.373.043 24.746 0 37.12 0 19.157 0 38.314.128 57.43C454.827 523.178 550.742 402.56 646.187 281.6z"/></svg>