<svg viewBox="0 0 1024 1024.002" xmlns="http://www.w3.org/2000/svg"><path d="M310 862q-72 77-132.5 51T117 781V300q0-141 49.5-194T351 53h322q135 0 184.5 53T906 300v481q0 106-60.5 132.5T713 862q-16-17-36-16t-34 20l-43 58q-36 47-88.5 47T424 924l-43-58q-14-19-34-20t-36 16h-1zm-46-43q36-39 86-36.5t82 45.5l43 57q16 22 36.5 22t37.5-22l43-57q32-43 81.5-45.5T760 819q41 44 61.5 35t20.5-73V300q1-116-30.5-149.5T673 117H351q-107 0-138.5 33.5T181 300v481q0 64 20.5 73t62.5-35zm81-392h1q17 0 29.5 12.5t12.5 30q0 17.5-12.5 30T346 512h-1q-17 0-29.5-12.5t-12.5-30q0-17.5 12.5-30T345 427zm120 10h235q13 0 22.5 9.5t9.5 23q0 13.5-9.5 22.5t-22.5 9H465q-13 0-22.5-9t-9.5-22.5q0-13.5 9.5-23T465 437zM345 256h1q17 0 29.5 12.5t12.5 30q0 17.5-12.5 30T346 341h-1q-17 0-29.5-12.5t-12.5-30q0-17.5 12.5-30T345 256zm120 11h235q13 0 22.5 9t9.5 22.5q0 13.5-9.5 23T700 331H465q-13 0-22.5-9.5t-9.5-23q0-13.5 9.5-22.5t22.5-9z"/></svg>