<svg viewBox="0 0 983.04 1024" xmlns="http://www.w3.org/2000/svg"><path d="M690.995 801.178h-327.68c-129.843 0-235.52-105.677-235.52-235.52 0-129.844 105.677-235.52 235.52-235.52h450.56c16.794 0 30.72 13.926 30.72 30.72 0 16.793-13.926 30.72-30.72 30.72h-450.56c-95.846 0-174.08 78.233-174.08 174.08 0 95.846 78.234 174.08 174.08 174.08h327.68c16.794 0 30.72 13.926 30.72 30.72 0 16.793-13.517 30.72-30.72 30.72zm28.672-307.2c-7.782 0-15.565-2.868-21.71-9.012-11.877-11.878-11.877-31.54 0-43.417l83.15-83.15-83.15-83.15c-11.877-11.877-11.877-31.538 0-43.416 11.88-11.88 31.54-11.88 43.42 0L846.233 336.69c11.878 11.88 11.878 31.54 0 43.42L741.376 484.965c-6.144 6.144-13.926 9.012-21.71 9.012z"/></svg>