<svg viewBox="0 0 1024 1024" xmlns="http://www.w3.org/2000/svg"><path d="M233.387 458.667c-30.294 0-61.014-11.094-84.48-33.707C70.4 350.293 38.827 268.8 57.173 189.013c21.76-93.866 104.107-135.68 176.214-135.68 72.106 0 154.88 42.24 176.213 135.68 18.347 79.787-13.653 161.28-91.733 235.947-23.467 22.613-53.76 33.707-84.48 33.707zM119.467 203.52c-16.214 71.253 31.146 134.4 73.813 174.933 22.613 21.76 58.027 21.334 80.64 0 42.667-40.533 90.027-103.68 73.387-175.36-14.507-63.146-70.4-85.76-113.494-85.76-43.52 0-99.413 22.614-114.346 86.187zm115.626 61.013c-23.466 0-42.666-19.2-42.666-42.666 0-23.467 18.773-42.667 42.666-42.667h.427c23.467 0 42.667 19.2 42.667 42.667 0 23.466-19.2 42.666-43.094 42.666zm553.814 706.134c-30.294 0-61.014-11.094-84.907-33.707-78.933-74.667-110.933-156.16-92.16-236.373 21.76-93.44 104.533-135.68 177.067-135.68 72.533 0 155.306 42.24 177.066 135.68 18.347 79.786-13.653 161.706-92.586 235.946-23.467 23.04-53.76 34.134-84.48 34.134zm0-341.334c-43.52 0-99.84 22.614-114.774 86.187-16.64 71.253 31.147 134.827 73.814 175.36 22.613 21.76 58.453 21.76 81.493 0 42.667-40.533 90.453-103.68 73.813-174.933-14.08-64-70.4-86.614-114.346-86.614zm1.706 147.2c-23.466 0-42.666-19.2-42.666-42.666 0-23.467 18.773-42.667 42.666-42.667h.427c23.467 0 42.667 19.2 42.667 42.667 0 23.466-19.627 42.666-43.094 42.666zM512 842.667H397.653c-49.493 0-92.586-29.867-109.653-75.947-17.493-46.08-4.693-96.853 32.427-129.707l340.906-298.24c20.48-17.92 20.907-42.24 14.934-58.88-6.4-16.64-22.614-34.56-49.92-34.56H512c-17.493 0-32-14.506-32-32 0-17.493 14.507-32 32-32h114.347c49.493 0 92.586 29.867 109.653 75.947 17.493 46.08 4.693 96.853-32.427 129.707l-340.906 298.24c-20.48 17.92-20.907 42.24-14.934 58.88 6.4 16.64 22.614 34.56 49.92 34.56H512c17.493 0 32 14.506 32 32 0 17.493-14.507 32-32 32zm0 0H397.653c-49.493 0-92.586-29.867-109.653-75.947-17.493-46.08-4.693-96.853 32.427-129.707l340.906-298.24c20.48-17.92 20.907-42.24 14.934-58.88-6.4-16.64-22.614-34.56-49.92-34.56H512c-17.493 0-32-14.506-32-32 0-17.493 14.507-32 32-32h114.347c49.493 0 92.586 29.867 109.653 75.947 17.493 46.08 4.693 96.853-32.427 129.707l-340.906 298.24c-20.48 17.92-20.907 42.24-14.934 58.88 6.4 16.64 22.614 34.56 49.92 34.56H512c17.493 0 32 14.506 32 32 0 17.493-14.507 32-32 32z"/></svg>