<svg viewBox="0 0 1024 1024" xmlns="http://www.w3.org/2000/svg"><path d="M128 895.915V258.86l130.22.084V765.61l507.007.043L764.885 896zM625.237 128C781.14 128 895.915 244.267 896 398.592l-.128 364.97-130.645.17v-345.6c0-60.073-31.36-96.04-66.603-124.244-36.437-29.184-73.173-35.03-116.437-35.03h-324.01V128.086h367.018zM501.76 367.7c22.06-1.364 44.33 2.263 64.768 10.753 47.7 19.158 83.115 65.366 89.045 116.48 5.803 42.71-8.917 87.467-38.74 118.528-17.878 18.903-40.833 32.983-65.92 40.023-23.68 6.826-49.11 7.466-73.132 1.834-25.6-5.845-49.492-18.986-68.35-37.248-22.4-21.42-37.462-50.177-42.497-80.726-4.522-28.245-1.066-57.9 10.88-83.925 13.74-30.807 38.614-56.28 68.907-71.127 17.152-8.49 35.968-13.354 55.04-14.55z"/></svg>