<svg viewBox="0 0 1024 1024" xmlns="http://www.w3.org/2000/svg"><path d="M597.248 446.42L446.42 597.25c-12.372 12.373-32.895 12.373-45.268 0-12.373-12.373-12.373-32.896 0-45.27L551.98 401.153c12.372-12.373 32.895-12.373 45.268 0 12.373 12.373 12.373 32.896 0 45.27zm0 150.828c-12.373 12.373-32.896 12.373-45.27 0L401.153 446.42c-12.373-12.372-12.373-32.895 0-45.268 12.373-12.373 32.896-12.373 45.27 0L597.247 551.98c12.373 12.372 12.373 32.895 0 45.268zM490.668 928C249.6 928 53.332 731.733 53.332 490.667 53.332 249.6 249.6 53.333 490.667 53.333 731.733 53.333 928 249.6 928 490.667 928 731.733 731.733 928 490.667 928zm0-810.667c-206.08 0-373.335 167.68-373.335 373.334C117.333 696.32 284.587 864 490.667 864S864 696.32 864 490.667c0-205.654-167.253-373.334-373.333-373.334zm448 853.334c-8.108 0-16.215-2.987-22.615-9.387l-85.333-85.333c-12.373-12.374-12.373-32.854 0-45.227 12.373-12.373 32.853-12.373 45.227 0l85.333 85.333c12.373 12.374 12.373 32.854 0 45.227-6.4 6.4-14.507 9.387-22.613 9.387z"/></svg>