<svg viewBox="0 0 1024 1024" xmlns="http://www.w3.org/2000/svg"><path d="M490.667 928q-181.163 0-309.248-128.085Q53.33 671.83 53.33 490.667q0-181.163 128.086-309.248Q309.503 53.33 490.666 53.33q86.997 0 167.38 33.28 80.342 33.323 141.868 94.806 61.482 61.524 94.805 141.908Q928 403.668 928 490.668q0 86.996-33.28 167.38-33.323 80.384-94.805 141.867-61.483 61.482-141.867 94.805Q577.664 928 490.668 928zm0-64q74.282 0 142.848-28.416 68.65-28.416 121.13-80.94 52.523-52.48 80.94-121.13Q864 564.95 864 490.668q0-74.283-28.416-142.848-28.416-68.652-80.94-121.132-52.48-52.523-121.13-80.94-68.607-28.415-142.847-28.415-154.624 0-263.98 109.355-109.354 109.355-109.354 263.98 0 154.623 109.355 263.977Q336.043 864 490.668 864zm425.386 97.28l-85.333-85.333q-9.387-9.344-9.387-22.614 0-13.27 9.387-22.613 9.344-9.387 22.613-9.387 13.27 0 22.614 9.387l85.333 85.333q9.387 9.344 9.387 22.614 0 13.27-9.387 22.613-9.344 9.387-22.613 9.387-13.27 0-22.614-9.387z"/></svg>