<svg viewBox="0 0 1024 1024" xmlns="http://www.w3.org/2000/svg"><path d="M928 490.667q0 181.248-128.043 309.29Q671.915 928 490.667 928q-181.248 0-309.29-128.043Q53.332 671.915 53.332 490.667q0-181.248 128.043-309.29Q309.42 53.332 490.666 53.332q13.27 0 22.614 9.387 9.387 9.344 9.387 22.613 0 13.27-9.387 22.614-9.344 9.386-22.613 9.386-154.752 0-264.022 109.312-109.312 109.27-109.312 264.022t109.312 264.02Q335.915 864 490.667 864t264.02-109.312Q864 645.418 864 490.668q0-13.27 9.387-22.615 9.344-9.386 22.613-9.386 13.27 0 22.613 9.386Q928 477.397 928 490.667zM916.053 961.28l-85.333-85.333q-9.387-9.344-9.387-22.614 0-13.27 9.387-22.613 9.344-9.387 22.613-9.387 13.27 0 22.614 9.387l85.333 85.333q9.387 9.344 9.387 22.614 0 13.27-9.387 22.613-9.344 9.387-22.613 9.387-13.27 0-22.614-9.387zM588.16 271.232q-39.893-125.397 72.832-161.365 49.536-16.214 85.376 8.79 34.773-25.132 86.315-8.79 112.81 35.968 72.917 161.365-18.645 59.307-76.032 100.95-48.043 34.858-82.475 34.858-34.773 0-82.474-34.517-57.132-41.26-76.417-101.163zm60.97-19.5q0 .044.043.13 29.398 91.178 97.92 91.178 68.864 0 97.494-91.18 20.522-64.468-31.19-80.98-26.794-8.49-39.552 10.923-3.2 4.906-7.893 8.32-10.71 7.808-23.808 5.76-13.1-2.048-20.907-12.758-15.06-20.693-40.79-12.288-51.754 16.512-31.316 80.896z"/></svg>