<svg viewBox="0 0 986.0741 1024" xmlns="http://www.w3.org/2000/svg"><path d="M481.963 936.543q-188.265 0-321.423-133.158Q27.42 670.265 27.42 481.963q0-188.265 133.12-321.423Q293.698 27.42 481.963 27.42q188.302 0 321.422 133.12 133.158 133.158 133.158 321.423 0 188.302-133.158 321.422-133.12 133.158-321.422 133.158zm0-56.89q164.75 0 281.22-116.47 116.47-116.47 116.47-281.22 0-164.713-116.47-281.183T481.963 84.31q-164.713 0-281.183 116.47T84.31 481.963q0 164.75 116.47 281.22 116.47 116.47 281.183 116.47zm316.492-99.327l167.063 166.646q8.306 8.306 8.344 20.1 0 11.796-8.306 20.14-8.306 8.344-20.1 8.344-11.796 0-20.14-8.306L758.254 820.603q-8.344-8.305-8.344-20.1-.04-11.758 8.305-20.1 8.306-8.345 20.1-8.383 11.796 0 20.14 8.306z"/></svg>