<svg viewBox="0 0 1024 1024" xmlns="http://www.w3.org/2000/svg"><path d="M420.053 151.85L785.28 334.465Q925.867 404.736 925.867 512T785.28 689.536L420.053 872.15Q215.168 974.59 133.29 892.63q-81.79-81.92 20.694-286.593l37.163-73.856q9.984-19.967-.043-40.02l-37.12-74.24Q51.5 213.333 133.46 131.328q82.007-81.963 286.593 20.523zm-28.63 57.26q-163.37-81.835-212.692-32.513-49.322 49.323 32.513 212.736l37.12 74.24q24.32 48.64-.043 97.366l-37.077 73.77q-81.878 163.413-32.64 212.693 49.237 49.322 212.864-32.512l365.226-182.613Q861.867 579.67 861.867 512q0-67.67-105.174-120.277L391.467 209.11zM232.108 480h230.4q13.27 0 22.613 9.387 9.387 9.344 9.387 22.613 0 13.27-9.387 22.613Q475.776 544 462.507 544h-230.4q-13.27 0-22.614-9.387-9.386-9.344-9.386-22.613 0-13.27 9.386-22.613Q218.837 480 232.107 480z"/></svg>