<svg viewBox="0 0 1024 1024.001" xmlns="http://www.w3.org/2000/svg"><path d="M512 672c-88.32 0-160-71.68-160-160s71.68-160 160-160 160 71.68 160 160-71.68 160-160 160zm0-256c-52.907 0-96 43.093-96 96s43.093 96 96 96 96-43.093 96-96-43.093-96-96-96zm136.96 530.773c-8.96 0-17.92-1.28-26.88-3.413-26.453-7.253-48.64-23.893-62.72-47.36l-5.12-8.533c-25.173-43.52-59.733-43.52-84.907 0l-4.693 8.106c-14.08 23.894-36.267 40.96-62.72 47.787-26.88 7.253-54.613 3.413-78.08-10.667l-73.387-42.24c-26.026-14.933-44.8-39.253-52.906-68.693-7.68-29.44-3.84-59.733 11.093-85.76 12.373-21.76 15.787-41.387 8.533-53.76-7.253-12.373-25.6-19.627-50.773-19.627-62.293 0-113.067-50.773-113.067-113.066v-75.094c0-62.293 50.774-113.066 113.067-113.066 25.173 0 43.52-7.254 50.773-19.627 7.254-12.373 4.267-32-8.533-53.76-14.933-26.027-18.773-56.747-11.093-85.76 7.68-29.44 26.453-53.76 52.906-68.693l73.814-42.24c48.213-28.587 111.786-11.947 140.8 37.12l5.12 8.533c25.173 43.52 59.733 43.52 84.906 0l4.694-8.107C588.8 79.36 652.373 62.72 701.013 91.733l73.387 42.24c26.027 14.934 44.8 39.254 52.907 68.694 7.68 29.44 3.84 59.733-11.094 85.76-12.373 21.76-15.786 41.386-8.533 53.76 7.253 12.373 25.6 19.626 50.773 19.626 62.294 0 113.067 50.774 113.067 113.067v75.093c0 62.294-50.773 113.067-113.067 113.067-25.173 0-43.52 7.253-50.773 19.627-7.253 12.373-4.267 32 8.533 53.76 14.934 26.026 19.2 56.746 11.094 85.76-7.68 29.44-26.454 53.76-52.907 68.693l-73.813 42.24c-16.214 8.96-33.707 13.653-51.627 13.653zM512 788.907c37.973 0 73.387 23.893 97.707 66.133l4.693 8.107c5.12 8.96 13.653 15.36 23.893 17.92 10.24 2.56 20.48 1.28 29.014-3.84l73.813-42.667c11.093-6.4 19.627-17.067 23.04-29.867 3.413-12.8 1.707-26.026-4.693-37.12-24.32-41.813-27.307-84.906-8.534-117.76 18.774-32.853 57.6-51.626 106.24-51.626 27.307 0 49.067-21.76 49.067-49.067v-75.093c0-26.88-21.76-49.067-49.067-49.067-48.64 0-87.466-18.773-106.24-51.627-18.773-32.853-15.786-75.946 8.534-117.76 6.4-11.093 8.106-24.32 4.693-37.12-3.413-12.8-11.52-23.04-22.613-29.866l-73.814-42.24c-18.346-11.094-42.666-4.694-53.76 14.08l-4.693 8.106c-24.32 42.24-59.733 66.134-97.707 66.134-37.973 0-73.386-23.894-97.706-66.134L409.173 160c-10.666-17.92-34.56-24.32-52.906-13.653l-73.814 42.666c-11.093 6.4-19.626 17.067-23.04 29.867-3.413 12.8-1.706 26.027 4.694 37.12 24.32 41.813 27.306 84.907 8.533 117.76-18.773 32.853-57.6 51.627-106.24 51.627-27.307 0-49.067 21.76-49.067 49.066v75.094c0 26.88 21.76 49.066 49.067 49.066 48.64 0 87.467 18.774 106.24 51.627 18.773 32.853 15.787 75.947-8.533 117.76-6.4 11.093-8.107 24.32-4.694 37.12 3.414 12.8 11.52 23.04 22.614 29.867l73.813 42.24c8.96 5.546 19.627 6.826 29.44 4.266 10.24-2.56 18.773-9.386 24.32-18.346l4.693-8.107c24.32-41.813 59.734-66.133 97.707-66.133z"/></svg>