<svg viewBox="0 0 977.441 1024" xmlns="http://www.w3.org/2000/svg"><path d="M802.897 651.625c-55.67 0-104.68 26.578-136.656 67.165L340.57 556.953c5.912-16.383 8.52-29.23 8.52-44.962 0-15.73-2.608-30.53-8.52-44.96L664.336 305.2c33.84 40.54 82.943 67.163 138.565 67.163 96.438 0 174.54-78.103 174.54-174.543 0-96.44-78.103-174.542-174.54-174.542-96.443 0-174.544 78.148-174.544 174.542 0 15.64 2.7 30.533 6.562 44.962l-323.81 161.88c-33.795-40.586-80.945-67.21-136.566-67.21C78.15 337.447 0 415.55 0 511.99c0 96.442 78.15 174.543 174.543 174.543 55.667 0 104.725-26.576 136.655-67.163l323.81 161.837c-4.048 14.428-6.654 29.275-6.654 44.96 0 96.395 78.148 174.543 174.542 174.543 96.393 0 174.542-78.148 174.542-174.542s-78.103-174.543-174.543-174.543zm0-558.536c57.807 0 104.724 46.96 104.724 104.723 0 57.762-46.913 104.727-104.72 104.727-57.81 0-104.727-46.916-104.727-104.725 0-57.81 46.92-104.728 104.728-104.728zM174.542 616.714c-57.762 0-104.726-46.917-104.726-104.725 0-57.81 46.964-104.725 104.726-104.725 57.76 0 104.725 46.916 104.725 104.726S232.35 616.72 174.54 616.72zm628.355 314.177c-57.763 0-104.727-46.965-104.727-104.727S745.134 721.44 802.896 721.44c57.76 0 104.724 46.964 104.724 104.726s-46.917 104.726-104.725 104.726z"/></svg>