<svg viewBox="0 0 1024 1024" xmlns="http://www.w3.org/2000/svg"><path d="M512 971.093c-46.507 0-92.587-13.653-128.853-40.533L199.68 793.6c-48.64-36.267-86.613-112.213-86.613-172.373v-317.44c0-65.707 48.213-135.68 110.08-158.72L436.053 65.28c42.24-15.787 108.8-15.787 151.04 0L800 145.067c61.867 23.04 110.08 93.013 110.08 158.72V620.8c0 60.587-37.973 136.107-86.613 172.373L640 930.133c-35.413 27.307-81.493 40.96-128 40.96zM458.667 125.44L245.76 205.227c-36.267 13.653-68.267 59.733-68.267 98.986v317.014c0 40.533 28.587 97.28 60.587 121.173l183.467 136.96c49.066 36.693 131.84 36.693 181.333 0L786.347 742.4c32.426-24.32 60.586-80.64 60.586-121.173v-317.44c0-38.827-32-84.907-68.266-98.987L565.76 125.013c-29.013-10.24-78.507-10.24-107.093.427zm-3.84 481.707c-8.107 0-16.214-2.987-22.614-9.387l-68.693-68.693c-12.373-12.374-12.373-32.854 0-45.227 12.373-12.373 32.853-12.373 45.227 0l46.08 46.08L615.68 369.067c12.373-12.374 32.853-12.374 45.227 0 12.373 12.373 12.373 32.853 0 45.226L477.44 597.76c-6.4 6.4-14.507 9.387-22.613 9.387z"/></svg>