<svg viewBox="0 0 1024 1024" xmlns="http://www.w3.org/2000/svg"><path d="M776.107 757.333h-454.4c-42.24 0-82.774-17.92-111.36-49.066-28.587-31.147-43.094-72.96-39.68-115.2l35.413-424.96c1.28-13.227-3.413-26.027-12.373-35.84-8.96-9.814-21.334-14.934-34.56-14.934H85.333c-17.493 0-32-14.506-32-32 0-17.493 14.507-32 32-32h74.24c31.147 0 60.587 13.227 81.494 35.84 11.52 12.8 20.053 27.734 24.746 44.374H798.72c43.093 0 82.773 17.066 111.787 47.786 28.586 31.147 43.093 71.68 39.68 114.774l-23.04 320c-4.694 78.08-72.96 141.226-151.04 141.226zM267.947 197.12l-33.28 401.067c-2.134 24.746 5.973 48.213 22.613 66.56 16.64 18.346 39.68 28.16 64.427 28.16h454.4c44.373 0 84.48-37.547 87.893-81.92l23.04-320c1.707-25.174-6.4-49.067-23.04-66.56-16.64-17.92-39.68-27.734-64.853-27.734h-531.2v.427zm425.386 773.547c-46.933 0-85.333-38.4-85.333-85.334C608 838.4 646.4 800 693.333 800c46.934 0 85.334 38.4 85.334 85.333 0 46.934-38.4 85.334-85.334 85.334zm0-106.667C681.387 864 672 873.387 672 885.333c0 11.947 9.387 21.334 21.333 21.334 11.947 0 21.334-9.387 21.334-21.334 0-11.946-9.387-21.333-21.334-21.333zM352 970.667c-46.933 0-85.333-38.4-85.333-85.334C266.667 838.4 305.067 800 352 800s85.333 38.4 85.333 85.333c0 46.934-38.4 85.334-85.333 85.334zM352 864c-11.947 0-21.333 9.387-21.333 21.333 0 11.947 9.386 21.334 21.333 21.334s21.333-9.387 21.333-21.334c0-11.946-9.386-21.333-21.333-21.333zm544-490.667H384c-17.493 0-32-14.506-32-32 0-17.493 14.507-32 32-32h512c17.493 0 32 14.507 32 32 0 17.494-14.507 32-32 32z"/></svg>