<svg viewBox="0 0 1024 1024" xmlns="http://www.w3.org/2000/svg"><path d="M703.573 970.667H320c-73.387 0-128.427-19.627-162.56-58.454-34.133-38.826-47.36-95.146-38.4-168.106l38.4-320c11.093-94.294 34.987-178.774 201.387-178.774h307.2c165.973 0 189.866 84.48 201.386 178.774l38.4 320c8.534 72.96-4.266 129.706-38.4 168.106-35.413 38.827-90.026 58.454-163.84 58.454zM358.4 309.333c-122.88 0-128.853 48.64-137.813 122.027l-38.4 320c-6.4 54.187 1.28 93.867 23.04 118.187 21.76 24.32 60.16 36.693 114.773 36.693h383.573c54.614 0 93.014-12.373 114.774-36.693 21.76-24.32 29.44-64 23.04-118.187l-38.4-320c-8.96-73.813-14.507-122.027-137.814-122.027H358.4zm324.267 64c-17.494 0-32-14.506-32-32V192c0-46.08-28.587-74.667-74.667-74.667H448c-46.08 0-74.667 28.587-74.667 74.667v149.333c0 17.494-14.506 32-32 32-17.493 0-32-14.506-32-32V192c0-81.493 57.174-138.667 138.667-138.667h128c81.493 0 138.667 57.174 138.667 138.667v149.333c0 17.494-14.507 32-32 32zm188.16 385.28H341.333c-17.493 0-32-14.506-32-32 0-17.493 14.507-32 32-32h529.494c17.493 0 32 14.507 32 32 0 17.494-14.507 32-32 32z"/></svg>