<svg viewBox="0 0 1024.1553 1024" xmlns="http://www.w3.org/2000/svg"><path d="M409.55 57.4c-19.6 14.8-50.2 57.8-70.6 99.6-15.8 32.6-35.2 81.8-35.4 90.4-.4 15 16 24.8 28.8 17.4 5.8-3.4 8.2-7.8 20.6-39.2 7.6-19.6 14.2-35.2 14.6-34.8.4.4-1.6 13.6-4.4 29.4-18.4 106.2-28.2 239.4-30.6 411.8-1.4 89-1.6 93.4-5.6 100-7.6 13-23 20-37.8 17.2-8-1.6-19.8-11-24.2-19.4-9-17.6 4.4-162.8 25.4-273.8 7.2-38.8 7.2-40.8 0-48.2-9.2-9.2-26.4-6.6-31.6 4.6-1 2.6-5 21.4-8.8 42l-6.6 37.6h-113.8c-123.2 0-122-.2-127 11-3.4 7.6-3.4 450.4 0 458 5.4 11.8-30.4 11 509.6 11s504.2.8 509.6-11c1.8-4 2.4-59.8 2.4-229.2 0-243.4.6-232.2-11-237.4-3.8-1.8-40-2.4-141.2-2.4h-136.2l1.4-19.6c5.4-83 9-123.6 15.2-173.4 9.6-78.2 22.2-140 39-190.8 11.2-34 12.2-39.8 8.8-46.4-2.6-4.6-12.2-9.8-18.2-9.8-7.2 0-19 9.4-32.6 25.8-46 55.2-83.8 141.8-115.2 265.2-9.6 37.6-23.6 103.4-28.2 133.4l-2.4 15.6h-227.8l1.4-19.6c5.4-83 9-123.6 15.2-173.4 9.6-78.2 22.2-140 39-190.8 6-18.2 10.8-35.2 10.8-37.8 0-6.8-3.4-12-10-15.4-8.4-4.4-14.4-3.8-22.6 2.4zm313.6 162.8c-18.4 106.2-28.2 239.4-30.6 411.8-1.4 89-1.6 93.4-5.6 100-7.6 13-23 20-37.8 17.2-8-1.6-19.8-11-24.2-19.4-7.2-14-.2-112 15.4-214.8 15.2-100.4 42.6-211.8 68.4-279 11.6-30 18.2-45.8 18.8-45.2.4.4-1.6 13.6-4.4 29.4zm-487.8 322.2c-2.6 22-9.2 83.2-10.6 100l-1.6 17.2-17-11.4c-23.2-15.4-35.4-19.2-63-19.2-31.4 0-39.6 3-78.4 29.2-7.6 5-16 10-19 11.4l-5.6 2.4V532H236.75l-1.4 10.4zm360.2 0c-.6 5.8-3 26.4-5.4 45.6-2.2 19.2-4 38.2-4 42.2 0 7-.8 7.8-22.8 22.6-42.2 28.6-60.6 28.6-102.8.4-29.2-19.6-39.8-23.4-66.8-24.8l-21.6-1v-13.2c0-7.2.6-28.8 1.4-47.8l1.2-34.4h222l-1.2 10.4zm388.6 59.6v70l-6.6-2.6c-3.6-1.6-16.4-9.6-28.4-17.6-25-17-37.2-21.6-60.4-23.2-29-2-52 5.2-78.4 24.6-23 16.8-30.8 19.8-51.2 19.8-28 0-27 1.4-27-38.6 0-18.4.6-49 1.4-68l1.2-34.4H984.15v70zm-819.8 69c4.8 1.8 17.4 8.8 27.8 15.8 10.4 7 21.4 14.2 24.6 16 4.8 3 5.4 4.4 5.4 14 0 53.4 58.6 89.2 107.2 65.2 15.8-7.8 31-23.8 37-39.6 3.8-9.4 4.6-16.4 5.4-41.4.6-19.4 1.6-30.6 3.2-31.4 3.8-2.6 26-1.8 35.8 1.2 5 1.4 17.8 8.8 28.4 16.2 10.4 7.2 24 15.4 30 18 31.4 14 72.2 10.6 100.4-8 5.8-3.8 11-7 11.6-7 .6 0 1 8.4 1 18.6 0 10.4 1.2 23 2.8 28.2 4.2 13.8 14.6 28.6 26 37.2 47.6 35.8 113.4 6.8 120.4-52.8l1.2-10.6 7.4 1.6c11 2.6 29.8 2 43.8-1.2 15.4-3.6 29.4-10.6 46.6-23 20.4-14.8 29-18.6 45.2-19.6 20-1.2 30.2 2 52.4 17.2 20.4 14 39.4 23.6 49.8 25.6l6.4 1.2V932h-944V712.4l9.2-2.2c12.4-3.2 27-10.8 43-22.2 14-10.2 23.6-15.6 31.8-18.2 8.6-2.6 31.2-2 40.2 1.2zm710 99.8c-6 3.4-10 10.4-10.2 17.8 0 8.2 11.4 19.4 20 19.4 8.2 0 20-11.2 20-18.8 0-16-16-26-29.8-18.4zm-730 18c-6 3.4-10 10.4-10.2 17.8 0 8.2 11.4 19.4 20 19.4 8.2 0 20-11.2 20-18.8 0-16-16-26-29.8-18.4zm264 28c-6 3.4-10 10.4-10.2 17.8 0 8.2 11.4 19.4 20 19.4 8.2 0 20-11.2 20-18.8 0-16-16-26-29.8-18.4zm284 20c-6 3.4-10 10.4-10.2 17.8 0 8.2 11.4 19.4 20 19.4 8.2 0 20-11.2 20-18.8 0-16-16-26-29.8-18.4zm-408.2-517.4c-5.6 5-6.6 7.2-6.6 14.6 0 7.4 1 9.6 6.6 14.6s7.6 5.6 14.8 4.8c23.2-3.2 23.2-35.6 0-38.8-7.2-.8-9.2-.2-14.8 4.8z"/></svg>