<svg viewBox="0 0 1024 1024" xmlns="http://www.w3.org/2000/svg"><path d="M725.333 149.333H298.667c-128 0-213.334 64-213.334 213.334v298.666c0 149.334 85.334 213.334 213.334 213.334h426.666c128 0 213.334-64 213.334-213.334V362.667c0-149.334-85.334-213.334-213.334-213.334zm20.054 259.84L611.84 515.84c-28.16 22.613-64 33.707-99.84 33.707s-72.107-11.094-99.84-33.707L278.613 409.173c-13.653-11.093-15.786-31.573-5.12-45.226 11.094-13.654 31.147-16.214 44.8-5.12L451.84 465.493c32.427 26.027 87.467 26.027 119.893 0L705.28 358.827c13.653-11.094 34.133-8.96 44.8 5.12 11.093 13.653 8.96 34.133-4.693 45.226z"/></svg>