<svg viewBox="0 0 1024 1024" xmlns="http://www.w3.org/2000/svg"><path d="M725.333 906.667H298.667c-155.734 0-245.334-89.6-245.334-245.334V362.667c0-155.734 89.6-245.334 245.334-245.334h426.666c155.734 0 245.334 89.6 245.334 245.334v298.666c0 155.734-89.6 245.334-245.334 245.334zM298.667 181.333c-122.027 0-181.334 59.307-181.334 181.334v298.666c0 122.027 59.307 181.334 181.334 181.334h426.666c122.027 0 181.334-59.307 181.334-181.334V362.667c0-122.027-59.307-181.334-181.334-181.334H298.667zM512 549.12c-35.84 0-72.107-11.093-99.84-33.707L278.613 408.747c-13.653-11.094-16.213-31.147-5.12-44.8 11.094-13.654 31.147-16.214 44.8-5.12L451.84 465.493c32.427 26.027 87.467 26.027 119.893 0L705.28 358.827c13.653-11.094 34.133-8.96 44.8 5.12 11.093 13.653 8.96 34.133-5.12 44.8L611.413 515.413C584.107 538.027 547.84 549.12 512 549.12z"/></svg>