<svg viewBox="0 0 1024 1024" xmlns="http://www.w3.org/2000/svg"><path d="M369.2 4c-11.6 4.6-23.8 15.6-29.8 27-3.2 6.2-4.4 12.6-5 28.2l-.8 20.4-22.4.6c-19.8.8-23.2 1.4-31.2 6.2-22.2 13.2-33 31.4-33 56.6 0 25.2 10.8 43.4 33 56.6 8 4.8 11.4 5.4 31.2 6.2l22.4.6.8 20.4c.6 17.4 1.4 21.6 6 29.8l5.4 9.4-5.4 9.6c-4.6 8-5.4 12.2-6 29.6l-.8 20.4-22.4.6c-19.8.8-23.2 1.4-31.2 6.2-12.4 7.2-23 18.6-28.4 30.6-3.6 7.8-4.6 13.6-4.6 26 .2 20.8 5.4 33.4 20.2 46.8 13.8 12.6 24.4 16.2 48 16.2h18.4l.8 20.4c.6 17.8 1.4 22 6 30l5.4 9.6-5.4 9.4c-4.6 8.2-5.4 12.4-6 29.8l-.8 20.4-22.4.6c-19.8.8-23.2 1.4-31.2 6.2-22.2 13.2-33 31.4-33 56.6 0 25.2 10.8 43.4 33 56.6 8 4.8 11.4 5.4 31.2 6.2l22.4.6.8 20.4c.6 17.4 1.4 21.6 6 29.6l5.4 9.6-5.4 9.4c-4.6 8.2-5.4 12.4-6 29.8l-.8 20.4-22.4.6c-19.8.8-23.2 1.4-31.2 6.2-22.2 13.2-33 31.4-33 56.6 0 25.2 10.8 43.4 33 56.6 8 4.8 11.4 5.4 31.2 6.2l22.4.6.8 20.4c.6 14.2 1.8 22.2 4.4 27.2 6 11.8 19.2 23.8 30.8 28 10.2 3.8 15.6 4 142.4 4 126.6 0 132.4-.2 142.4-4 23.2-8.8 35.6-29.2 35.6-58.8v-16.8l22.6-.6c20-.8 23.4-1.4 31.6-6.2 11.6-6.8 23-19.4 28.4-31.4 6-13 6-37.4 0-50.4-5.4-12-16.8-24.6-28.4-31.4-8.2-4.8-11.6-5.4-31.6-6.2l-22.2-.6-.8-19.4c-.4-15.8-1.6-21-5.8-29.8l-5.2-10.4 5.2-10.4c4.2-8.8 5.4-14 5.8-29.8l.8-19.4 22.2-.6c20-.8 23.4-1.4 31.6-6.2 11.6-6.8 23-19.4 28.4-31.4 6-13 6-37.4 0-50.4-5.4-12-16.8-24.6-28.4-31.4-8.2-4.8-11.6-5.4-31.6-6.2l-22.2-.6-.8-19.4c-.4-15.8-1.6-21-5.8-29.8l-5.2-10.4 5.2-10.4c4.2-8.8 5.4-14 5.8-30l.8-19.6h18.4c11.6 0 22-1.2 27.8-3.2 12.8-4.4 28-18.4 34.8-32.4 7.4-15 8-38.2 1.2-52.6-5.4-12-16.8-24.6-28.4-31.4-8.2-4.8-11.6-5.4-31.6-6.2l-22.2-.6-.8-19.4c-.4-15.8-1.6-21-5.8-29.8l-5.2-10.4 5.2-10.4c4.2-8.8 5.4-14 5.8-29.8l.8-19.4 22.2-.6c20-.8 23.4-1.4 31.6-6.2 11.6-6.8 23-19.4 28.4-31.4 6-13 6-37.4 0-50.4-5.4-12-16.8-24.6-28.4-31.4-8.2-4.8-11.6-5.4-31.6-6.2l-22.6-.6V62.8c0-29.4-12.6-50.2-35.6-58.8-10.2-3.8-15.6-4-143-4-125.8.2-132.8.4-142.2 4zM492 60.2c0 19.6.2 20.2 5.8 26 4.6 4.6 7.6 5.8 14.2 5.8s9.6-1.2 14.2-5.8c5.6-5.8 5.8-6.4 5.8-26V40h53.8c50 0 54 .2 58.4 3.8 4.6 3.6 4.8 5.2 5.8 35.2 1 31.4 1 31.4 6.6 36.2 5.4 4.6 6.8 4.8 36 4.8 33.4 0 36.6 1 42.4 12 3.8 7.4 3.8 14.6 0 22-5.8 11-9 12-42.4 12-29.2 0-30.6.2-36 4.8-5.6 4.8-5.6 4.8-6.6 36.2-1.4 42 3 39-55 39-41.8 0-44.8.2-49.6 4-6 4.8-9.4 15-9.4 28.6 0 12.4-4 20-12.8 24.2-8.6 4-13.8 4-22.4 0-8.8-4.2-12.8-11.8-12.8-24.2 0-13.6-3.4-23.8-9.4-28.6-4.8-3.8-7.8-4-49.6-4-58 0-53.6 3-55-39-1-31.4-1-31.4-6.6-36.2-5.4-4.6-6.8-4.8-36-4.8-33.4 0-36.6-1-42.4-12-5.6-10.6-2.2-24 7.4-30.8 3.6-2.6 10.6-3.2 35-3.2 29.2 0 30.6-.2 36-4.8 5.6-4.8 5.6-4.8 6.6-36.2 1-30 1.2-31.6 5.8-35.2 4.4-3.6 8.4-3.8 58.4-3.8H492v20.2zm-43.2 234.2c3 18 18.2 37.4 35.6 45l7.6 3.4v53.6l5.8 5.8c4.6 4.6 7.6 5.8 14.2 5.8s9.6-1.2 14.2-5.8l5.8-5.8v-53.6l7.6-3.4c17.4-7.6 32.6-27 35.6-45l1.4-8.4H608c43 0 40.6-2 42 39 1 31.4 1 31.4 6.6 36.2 5.4 4.6 6.8 4.8 36 4.8 33.4 0 36.6 1 42.4 12 3.8 7.4 3.8 14.6 0 22-5.8 11-9 12-42.4 12-29.2 0-30.6.2-36 4.8-5.6 4.8-5.6 4.8-6.6 36.2-1.4 42 3 39-55 39-41.8 0-44.8.2-49.6 4-6 4.8-9.4 15-9.4 28.6 0 12.4-4 20-12.8 24.2-8.6 4-13.8 4-22.4 0-8.8-4.2-12.8-11.8-12.8-24.2 0-13.6-3.4-23.8-9.4-28.6-4.8-3.8-7.8-4-49.6-4-58 0-53.6 3-55-39-1-31.4-1-31.4-6.6-36.2-5.4-4.6-6.8-4.8-36-4.8-33.4 0-36.6-1-42.4-12-5.6-10.6-2.2-24 7.4-30.8 3.6-2.6 10.6-3.2 35-3.2 29.2 0 30.6-.2 36-4.8 5.6-4.8 5.6-4.8 6.6-36.2 1.4-41-1-39 42-39h31.4l1.4 8.4zm0 246c3 18 18.2 37.4 35.6 45l7.6 3.4v53.6l5.8 5.8c8.2 8.2 20.2 8.2 28.4 0l5.8-5.8v-53.6l7.6-3.4c17.4-7.6 32.6-27 35.6-45l1.4-8.4H608c43 0 40.6-2 42 39 1 31.4 1 31.4 6.6 36.2 5.4 4.6 6.8 4.8 36 4.8 33.4 0 36.6 1 42.4 12 3.8 7.4 3.8 14.6 0 22-5.8 11-9 12-42.4 12-29.2 0-30.6.2-36 4.8-5.6 4.8-5.6 4.8-6.6 36.2-1.4 42 3 39-55 39-41.8 0-44.8.2-49.6 4-6 4.8-9.4 15-9.4 28.6 0 12.4-4 20-12.8 24.2-8.6 4-13.8 4-22.4 0-8.8-4.2-12.8-11.8-12.8-24.2 0-13.6-3.4-23.8-9.4-28.6-4.8-3.8-7.8-4-49.6-4-58 0-53.6 3-55-39-1-31.4-1-31.4-6.6-36.2-5.4-4.6-6.8-4.8-36-4.8-33.4 0-36.6-1-42.4-12-5.6-10.6-2.2-24 7.4-30.8 3.6-2.6 10.6-3.2 35-3.2 29.2 0 30.6-.2 36-4.8 5.6-4.8 5.6-4.8 6.6-36.2 1.4-41-1-39 42-39h31.4l1.4 8.4zm0 246c3 18 18.2 37.4 35.6 45l7.6 3.4v53.6l5.8 5.8c8.2 8.2 20.2 8.2 28.4 0l5.8-5.8v-53.6l7.6-3.4c17.4-7.6 32.6-27 35.6-45l1.4-8.4H608c43 0 40.6-2 42 39 1 31.4 1 31.4 6.6 36.2 5.4 4.6 6.8 4.8 36 4.8 33.4 0 36.6 1 42.4 12 3.8 7.4 3.8 14.6 0 22-5.8 11-9 12-42.4 12-29.2 0-30.6.2-36 4.8-5.6 4.8-5.6 4.8-6.6 36.2-1 30-1.2 31.6-5.8 35.2-4.4 3.6-9.6 3.8-132.2 3.8s-127.8-.2-132.2-3.8c-4.6-3.6-4.8-5.2-5.8-35.2-1-31.4-1-31.4-6.6-36.2-5.4-4.6-6.8-4.8-36-4.8-33.4 0-36.6-1-42.4-12-5.6-10.6-2.2-24 7.4-30.8 3.6-2.6 10.6-3.2 35-3.2 29.2 0 30.6-.2 36-4.8 5.6-4.8 5.6-4.8 6.6-36.2 1.4-41-1-39 42-39h31.4l1.4 8.4zm49-636.6C485.4 162.2 494 182 512 182c6.6 0 9.6-1.2 14.2-5.8C538.6 163.8 530 144 512 144c-6.6 0-9.6 1.2-14.2 5.8z"/></svg>