<svg viewBox="0 0 1024 1024" xmlns="http://www.w3.org/2000/svg"><path d="M686.336 544H337.664q-13.27 0-22.613-9.387-9.386-9.344-9.386-22.613 0-13.27 9.387-22.613Q324.396 480 337.665 480h348.672q13.27 0 22.613 9.387 9.386 9.344 9.386 22.613 0 13.27-9.387 22.613Q699.604 544 686.335 544zM543.573 325.333Q718.336 442.71 718.336 512q0 69.29-174.763 186.496-11.008 7.38-24.02 4.82-13.014-2.56-20.396-13.567-7.38-11.01-4.82-24.022 2.602-13.013 13.61-20.395Q654.337 547.157 654.337 512T507.903 378.496q-11.008-7.424-13.568-20.395-2.56-13.012 4.864-24.02 7.38-11.008 20.395-13.568 13.013-2.56 23.978 4.82zM512 938.667q-235.22 0-330.965-95.702Q85.333 747.22 85.333 512q0-235.22 95.702-330.965Q276.78 85.333 512 85.333q235.22 0 330.965 95.702Q938.667 276.78 938.667 512q0 235.22-95.702 330.965Q747.22 938.667 512 938.667zm0-64q208.725 0 285.696-76.97 76.97-76.972 76.97-285.697 0-208.725-76.97-285.696-76.97-76.97-285.696-76.97-208.725 0-285.696 76.97-76.97 76.97-76.97 285.696 0 208.725 76.97 285.696 76.97 76.97 285.696 76.97z"/></svg>