<svg viewBox="0 0 960.1226 1024" xmlns="http://www.w3.org/2000/svg"><path d="M764.108 623.36c-12.416 12.032-18.176 29.44-15.296 46.528l42.624 236.224c3.648 19.968-4.8 40.256-21.568 51.776-16.448 12.032-38.272 13.504-56.192 3.84L501.132 850.88c-7.424-3.968-15.616-6.08-24-6.272h-13.056c-4.48.64-8.896 2.112-12.928 4.288L238.476 960.32c-10.496 5.312-22.4 7.168-34.048 5.312-28.416-5.376-47.36-32.448-42.752-61.056l42.752-236.16c2.816-17.216-2.88-34.752-15.296-46.976l-173.376-168c-14.464-14.08-19.52-35.2-12.864-54.272 6.4-18.944 22.848-32.832 42.624-35.968l238.592-34.624c18.112-1.856 34.048-12.864 42.24-29.184L431.436 83.84c2.496-4.8 5.76-9.216 9.6-12.992l4.352-3.328c2.24-2.496 4.864-4.544 7.744-6.208l5.184-1.984L466.508 56h20.224c18.048 1.856 33.92 12.672 42.24 28.8l106.496 214.592c7.68 15.68 22.592 26.56 39.808 29.184L913.868 363.2c20.16 2.88 36.992 16.832 43.648 35.968 6.336 19.264.896 40.384-13.888 54.272l-179.52 169.92z"/></svg>