<svg viewBox="0 0 1024 1024" xmlns="http://www.w3.org/2000/svg"><path d="M597.276 159.118l77.938 155.762q2.276 4.494 7.396 5.234l174.478 25.088q58.482 8.476 76.857 64.227 18.432 56.15-24.35 97.166L783.476 627.77q-3.415 3.298-2.618 7.793l29.753 171.12q10.07 58.142-38.116 92.673-47.73 34.19-99.84 7.055L516.836 825.63q-4.836-2.503-9.672 0l-155.875 80.84q-52.11 27.08-99.784-7.112-48.242-34.53-38.06-92.672l29.697-171.12q.797-4.496-2.617-7.795L114.404 506.595q-42.78-41.017-24.35-97.167 18.376-55.752 76.858-64.228l174.42-25.088q5.235-.74 7.454-5.177l77.938-155.82q26.282-52.45 85.276-52.45t85.276 52.45zm-76.288 38.23Q518.315 192 512 192q-6.315 0-8.932 5.29L425.13 353.053q-22.186 44.43-71.622 51.485l-174.422 25.145q-6.144.853-7.964 6.37-1.65 5.12 2.39 8.99l126.122 121.23q36.18 34.76 27.59 83.91l-29.752 171.123q-.91 5.347 3.698 8.704 5.177 3.64 10.81.682l155.93-80.84q44.147-22.812 88.18 0l155.93 80.896q5.633 2.902 10.81-.796 4.665-3.3 3.698-8.647l-29.753-171.122q-8.533-49.152 27.59-83.968L850.49 445.042q4.038-3.87 2.388-8.99-1.82-5.517-7.964-6.37L670.55 404.594q-49.437-7.11-71.624-51.485z"/></svg>