<svg viewBox="0 0 1024 1024.0057" xmlns="http://www.w3.org/2000/svg"><path d="M896.614 518.35c0-77.87-63.367-141.227-141.25-141.227-77.884 0-141.25 63.356-141.25 141.228 0 63.08 41.558 116.613 98.72 134.708v141.454c0 79.636-64.79 144.432-144.43 144.432-79.624 0-144.41-64.79-144.41-144.432v-289.97c119.908-20.304 211.548-124.84 211.548-250.433V42.527C635.542 19.04 616.506 0 593.012 0H487.25c-23.494 0-42.53 19.04-42.53 42.528 0 23.487 19.036 42.528 42.53 42.528h63.235V254.11c0 93.192-75.82 169.006-169.018 169.006-93.205 0-169.03-75.814-169.03-169.007V85.055h63.248c23.493 0 42.528-19.04 42.528-42.528C318.213 19.04 299.183 0 275.69 0H169.915c-23.492 0-42.528 19.04-42.528 42.528v211.58c0 125.595 91.634 230.135 211.558 250.435v289.975c0 126.535 102.935 229.488 229.465 229.488 126.535 0 229.487-102.947 229.487-229.488V653.063c57.158-18.094 98.717-71.634 98.717-134.712zm-141.25 56.206c-30.99 0-56.195-25.216-56.195-56.205 0-30.97 25.205-56.17 56.194-56.17 30.988 0 56.193 25.2 56.193 56.17 0 30.99-25.205 56.206-56.193 56.206z"/></svg>