<svg viewBox="0 0 1024 1024" xmlns="http://www.w3.org/2000/svg"><path d="M512 618.795c-58.795 0-106.752-48-106.752-106.795S453.205 405.248 512 405.248c58.795 0 106.795 47.957 106.795 106.752 0 58.795-48 106.795-106.795 106.795zM512 896c-211.712 0-384-172.245-384-384 0-211.712 172.288-384 384-384 210.26 0 381.61 169.856 384 379.52v8.96C893.61 724.693 724.693 893.61 516.48 896zm0-748.885c-201.216 0-364.885 163.67-364.885 364.885 0 201.216 163.67 364.928 364.885 364.928 201.216 0 364.928-163.712 364.928-364.928S713.216 147.115 512 147.115zM385.92 292.82c-20.523 17.28-3.925 42.497 12.117 66.903 7.126 10.837 14.166 21.504 17.835 31.274-7.168-4.394-15.104-11.264-23.51-18.474-23.125-19.968-49.535-42.752-70.698-23.766l-11.605-74.88zm74.155 71.425c-6.827-7.893-12.758-19.2-18.816-30.634-13.655-25.898-27.735-52.565-52.78-42.965l18.005-72.832 62.038 43.563c-26.88 9.387-19.67 43.477-13.312 73.387 2.305 10.837 4.48 21.12 4.865 29.482zm107.99 296.235h.042c6.784 7.893 12.757 19.2 18.773 30.635 13.653 25.898 27.733 52.565 52.78 42.965l-18.007 72.832-61.994-43.563c26.836-9.387 19.625-43.478 13.31-73.387-2.303-10.838-4.48-21.12-4.906-29.483zm-293.89-58.197h.044c12.97 23.38 40.49 11.904 67.284.682 12.032-5.034 23.936-9.984 34.347-11.733-5.63 6.06-13.695 12.5-22.186 19.285-24.02 19.115-51.54 41.003-36.864 65.622l-75.18-5.59zM643.5 731.52c20.777-16.94 4.65-42.41-11.01-67.115-6.954-10.965-13.78-21.76-17.28-31.573 7.04 4.523 14.89 11.52 23.126 18.9 22.827 20.353 48.853 43.607 70.357 24.92l6.955 75.476zm108.884-308.053v-.043c-12.885-23.38-40.448-12.032-67.285-.94-12.076 4.993-24.023 9.9-34.39 11.607 5.59-6.058 13.695-12.415 22.23-19.157 24.105-18.986 51.753-40.832 37.204-65.45l75.093 5.888zM514.816 670.123c3.712 9.898 5.333 22.698 6.955 35.626 3.67 28.842 7.425 58.367 34.134 57.983l-42.965 62.25-42.24-62.335c28.628.47 33.876-34.347 38.484-64.683 1.62-10.752 3.2-20.95 5.632-28.842zm-1.493-315.52c-3.67-9.9-5.29-22.7-6.955-35.627-3.627-28.843-7.38-58.368-34.09-57.984l42.922-62.25 42.283 62.335c-28.63-.47-33.92 34.347-38.528 64.683-1.622 10.752-3.158 20.95-5.632 28.843zM258.133 514.9c4.182 26.497 34.304 25.388 63.53 24.32 12.972-.468 25.73-.937 35.97 1.025-7.468 3.798-17.452 7.04-27.99 10.454-29.1 9.428-62.25 20.18-57.003 48.127l-68.65-32.043zm61.014-164.48c-14.507 21.89 7.808 39.596 29.994 57.217 10.54 8.32 21.036 16.64 27.564 25.43-7.424-2.048-16.256-5.718-25.557-9.643-28.758-11.99-62.55-26.155-77.995-1.28l-31.403-66.86zm503.338 107.99l-53.973 52.097c-4.267-26.454-34.39-25.26-63.616-24.107-12.928.512-25.685 1.024-35.968-.853 7.467-3.883 17.45-7.126 27.99-10.582 29.055-9.514 62.165-20.394 56.79-48.34zM710.06 673.153l-.044.043c14.293-22.06-8.192-39.51-30.592-56.875-10.624-8.235-21.205-16.427-27.86-25.13 7.465 1.962 16.297 5.546 25.64 9.343 28.887 11.69 62.85 25.43 77.996.427l30.38 68.907zm-249.73-11.477h.043c-.042 10.325-2.816 22.656-5.59 35.114-6.4 28.458-12.97 57.813 12.374 66.9l-61.184 43.435-18.602-73.472c26.454 10.41 42.88-19.754 57.43-46.378 5.29-9.728 10.368-18.987 15.53-25.6zm107.478-299.35c0-10.325 2.773-22.656 5.547-35.114 6.4-28.458 12.97-57.813-12.33-66.9l61.183-43.435 18.56 73.472c-26.453-10.41-42.88 19.754-57.43 46.378-5.29 9.728-10.325 18.987-15.53 25.6zm140.203-16c-20.18-17.792-42.71 2.176-64.554 21.504-9.557 8.49-18.987 16.853-28.032 21.887 3.328-7.765 8.96-16.64 14.933-25.984 16.256-25.6 34.688-54.613 12.843-72.704l73.26-19.286zm-388.565 332.8h.043c20.48 17.45 42.624-2.9 64.128-22.613 9.43-8.66 18.688-17.152 27.648-22.357-3.157 7.808-8.66 16.768-14.42 26.24-15.873 25.856-33.793 55.168-11.607 72.874l-72.96 20.522zM204.16 457.472l68.352-30.848c-4.95 26.453 23.723 35.584 51.5 44.416 12.16 3.883 24.19 7.723 33.15 12.928-8.362 1.152-18.9.81-29.95.47-30.337-.897-64.64-1.92-69.036 26.154zM823.083 566.7l-68.352 30.847c4.95-26.454-23.722-35.584-51.498-44.46-12.16-3.882-24.192-7.722-33.152-12.927 8.363-1.11 18.9-.81 29.952-.47 30.336.897 64.64 1.92 69.035-26.11zm29.013-118.273c3.67 6.613 1.28 14.89-5.29 18.517-6.614 3.67-14.89 1.28-18.518-5.333-3.67-6.57-1.28-14.847 5.333-18.474 6.572-3.67 14.85-1.28 18.476 5.29zm2.09 120.192c.342 7.508-5.418 13.908-12.927 14.25-7.51.383-13.91-5.42-14.295-12.93-.34-7.508 5.462-13.865 12.928-14.25 7.51-.34 13.91 5.42 14.294 12.93zm-679.55-113.196c-.385-7.51 5.417-13.91 12.927-14.25 7.51-.385 13.91 5.418 14.25 12.927.342 7.51-5.418 13.91-12.928 14.252-7.51.384-13.91-5.42-14.25-12.928zm42.196 233.173c-5.59-4.992-6.1-13.568-1.11-19.2 4.993-5.632 13.61-6.144 19.2-1.152 5.633 4.992 6.145 13.61 1.153 19.243-4.992 5.59-13.61 6.1-19.243 1.11zm593.92-351.274h.043c5.504 5.077 5.888 13.696.768 19.242-5.035 5.504-13.654 5.888-19.2.81-5.547-5.076-5.93-13.695-.854-19.242 5.077-5.546 13.695-5.93 19.242-.81zm-399.147 494.42c-4.522 6.017-13.056 7.212-19.072 2.732-6.016-4.523-7.21-13.056-2.73-19.072 4.522-6.016 13.056-7.21 19.072-2.73 6.016 4.522 7.21 13.055 2.73 19.07zm204.97-638.762c4.524-6.015 13.057-7.252 19.073-2.73 6.016 4.523 7.253 13.057 2.73 19.073-4.522 6.016-13.055 7.21-19.07 2.688-6.017-4.48-7.212-13.013-2.732-19.03zM174.85 576.854c-3.712-6.528-1.493-14.848 5.035-18.602 6.485-3.71 14.848-1.493 18.56 5.035 3.754 6.486 1.493 14.848-4.992 18.56-6.527 3.755-14.847 1.494-18.602-4.992zm326.4-400.042c2.39-7.082 10.112-10.965 17.237-8.575 7.126 2.39 10.966 10.112 8.62 17.237-2.39 7.125-10.156 10.965-17.238 8.576-7.126-2.39-10.966-10.112-8.62-17.237zm25.643 671.062c-2.39 7.125-10.11 10.965-17.237 8.62-7.125-2.39-10.965-10.113-8.576-17.24 2.39-7.124 10.112-10.964 17.238-8.575 7.082 2.347 10.965 10.112 8.576 17.195zm-232.533-68.736c-6.87-2.944-10.112-10.965-7.125-17.835 2.944-6.91 10.965-10.11 17.877-7.167 6.87 2.987 10.11 10.966 7.125 17.878-2.944 6.87-10.966 10.113-17.878 7.126zm520.32-97.11c-2.048 7.21-9.557 11.435-16.768 9.43-7.254-2.005-11.478-9.515-9.473-16.768 2.048-7.21 9.558-11.435 16.768-9.43 7.254 2.006 11.478 9.515 9.472 16.77zM214.272 342.614c2.005-7.21 9.515-11.477 16.768-9.43 7.21 2.006 11.477 9.516 9.43 16.77-2.006 7.21-9.515 11.434-16.77 9.428-7.21-2.004-11.433-9.513-9.428-16.767zm519.38-96.768c6.87 3.072 9.943 11.094 6.87 17.963-3.07 6.87-11.135 9.94-18.005 6.87-6.826-3.073-9.898-11.137-6.826-18.006 3.073-6.827 11.094-9.9 17.963-6.827zm5.292 529.28c-4.224 6.23-12.672 7.85-18.9 3.627-6.188-4.224-7.852-12.672-3.628-18.9 4.224-6.188 12.672-7.81 18.9-3.628 6.188 4.224 7.81 12.672 3.628 18.9zm-448.64-525.14c4.224-6.188 12.672-7.81 18.9-3.628 6.188 4.224 7.81 12.672 3.628 18.902-4.224 6.228-12.672 7.85-18.9 3.625-6.188-4.224-7.852-12.63-3.628-18.9zm110.38-35.2c-7.468 0-13.57-6.145-13.57-13.612 0-7.466 6.102-13.61 13.57-13.61 7.508 0 13.61 6.144 13.61 13.61 0 7.467-6.102 13.61-13.61 13.61zm226.815 622.378c-7.51 0-13.612-6.102-13.612-13.61 0-7.468 6.1-13.57 13.61-13.57 7.467 0 13.57 6.102 13.57 13.57 0 7.508-6.103 13.61-13.57 13.61z"/></svg>