<svg viewBox="0 0 1024 1024" xmlns="http://www.w3.org/2000/svg"><path d="M690.688 85.333H333.14c-155.305 0-247.864 92.56-247.864 247.865v357.604c0 155.306 92.56 247.865 247.865 247.865H690.69c155.307 0 247.865-92.56 247.865-247.865V333.198c0-155.306-92.558-247.865-247.865-247.865zM425.3 635.733l-95.97 96.03c-6.43 6.37-14.507 9.33-22.642 9.33-8.078 0-16.612-2.96-22.585-9.33l-32.028-32.03c-12.8-12.4-12.8-32.825 0-45.226 12.4-12.402 32.426-12.402 45.226 0l9.388 9.386 73.387-73.386c12.4-12.402 32.426-12.402 45.226 0 12.403 12.4 12.403 32.825 0 45.226zm0-298.666l-95.97 95.97c-6.43 6.43-14.507 9.388-22.642 9.388-8.078 0-16.612-2.958-22.585-9.387l-32.028-31.97c-12.8-12.403-12.8-32.826 0-45.228 12.4-12.402 32.426-12.402 45.226 0l9.388 9.387 73.387-73.387c12.4-12.402 32.426-12.402 45.226 0 12.403 12.402 12.403 32.825 0 45.227zM749.114 709.12H525.14c-17.464 0-31.97-14.507-31.97-32.028 0-17.465 14.506-31.972 31.97-31.972h223.973c17.92 0 32.028 14.507 32.028 31.972 0 17.52-14.107 32.028-32.027 32.028zm0-298.667H525.14c-17.464 0-31.97-14.506-31.97-32.028 0-17.465 14.506-31.972 31.97-31.972h223.973c17.92 0 32.028 14.507 32.028 31.972 0 17.522-14.107 32.028-32.027 32.028z"/></svg>