<svg viewBox="0 0 1024.0029 1024.0246" xmlns="http://www.w3.org/2000/svg"><path d="M889.902 1024.006h-736V908.25l14.378-16.895a514.86 514.86 0 0 1-97.834-120.192l190.293 108.97h21.034L51.714 736.348a508.587 508.587 0 0 1-19.882-46.378l273.366 190.164h14.506L20.74 656.56a508.544 508.544 0 0 1-13.313-57.173L341.08 880.134h15.062L1.582 552.88a516.18 516.18 0 0 1-1.494-49.92l370.56 377.174h10.496L2.264 463.58c1.792-19.03 4.65-37.803 8.448-56.193l384.342 472.747h9.557L21.04 366.257c4.778-16 10.325-31.66 16.554-46.976L415.15 880.135h8.96L56.323 278.406c8.277-16.043 17.365-31.616 27.22-46.635L434.18 880.135h8.19l-90.026-186.027a56.79 56.79 0 0 1-15.83-10.453 52.096 52.096 0 0 1-9.044-11.947c-3.158-5.546-5.547-11.52-8.363-17.237-.853-1.707-1.707-3.413-2.688-5.035a8.79 8.79 0 0 0-1.793-2.304c-1.28-1.023-2.56-1.92-3.84-2.9a14.933 14.933 0 0 1-3.157-3.5 17.45 17.45 0 0 1-1.536-3.54 6.016 6.016 0 0 1-2.262-1.877 5.333 5.333 0 0 1-.896-2.774c0-.854.128-.854.17-1.707 0-.17-.084-.427-.042-.598 0-.938.128-1.024.427-1.92.13-1.28.342-2.602.598-3.925a12.544 12.544 0 0 1 1.195-3.54c1.75-3.2 5.12-5.12 8.363-6.657l-55.168-114.048a164.608 164.608 0 0 1-1.792-.598c-5.632-1.92-11.52-4.437-15.275-9.3a21.717 21.717 0 0 1-4.138-9.174 37.12 37.12 0 0 1-.682-6.443c-.043-2.133.085-4.267-.17-6.357 0-.17 0-.17-.13-.3-.34-.51-.767-.938-1.15-1.407-1.793-1.963-3.628-3.84-5.377-5.845a34.133 34.133 0 0 1-3.84-5.29 18.773 18.773 0 0 1-2.475-9.728 17.664 17.664 0 0 1 .81-4.48c.77-2.26 1.622-4.48 2.433-6.74L110.51 194.394c10.496-13.226 21.59-25.898 33.28-38.058l33.28 78.464a43.947 43.947 0 0 1 .725-7.38 23.723 23.723 0 0 1 15.02-17.41 16.47 16.47 0 0 1 8.96-.98c2.132.427 4.137 1.28 6.1 2.26a39.51 39.51 0 0 1 5.12 3.073l-33.792-91.35c12.075-10.367 24.66-20.138 37.675-29.354l45.056 142.08c1.45-1.238 2.858-2.56 4.266-3.84 4.95-4.694 9.643-9.558 14.55-14.25 3.413-3.16 6.997-6.53 11.136-8.705L254.34 69.553c15.316-8.96 31.146-17.067 47.402-24.448l44.288 206.208a31.317 31.317 0 0 0 4.266-5.035 19.925 19.925 0 0 0 2.09-3.84 25.216 25.216 0 0 0 1.196-9.643c-.17-3.84-.64-7.68-.854-11.52a23.21 23.21 0 0 1 1.28-10.325c2.09-4.864 7.254-7.38 12.075-8.79a41.685 41.685 0 0 1 7.552-1.578l.384-.043-28.93-172.673c14.764-5.12 29.868-9.557 45.228-13.27l22.272 184.748 8.192-.342c5.59-.17 11.178-.34 16.81-.426 3.883 0 7.85.042 11.734-.086.725 0 1.408-.084 2.133-.17L437.293 5.426c16.384-2.39 33.024-4.01 49.877-4.822l5.846 241.323a12.8 12.8 0 0 1 3.414 6.1 75.648 75.648 0 0 1 2.517 17.58l.34 8.576.47 5.42c.513 4.692 1.067 9.385 1.494 14.08l.3 3.412.085-.043a29.74 29.74 0 0 0 2.645-1.32c3.627-2.135 6.827-4.823 9.984-7.553l8.62-7.51 3.156-2.56c1.622-1.194 3.286-2.39 5.035-3.498L538.03.69c16.426.81 32.682 2.388 48.64 4.735l-19.072 260.608c7.765-.726 15.616-1.238 23.424-.768 4.096.256 8.234.768 12.245 1.834l30.42-252.502c15.36 3.712 30.465 8.192 45.228 13.27l-43.776 261.29 10.154-.597 7.424-.255a136.96 136.96 0 0 1 12.458.213c1.58.128 3.115.256 4.694.512l52.394-243.925c16.256 7.338 32.086 15.53 47.446 24.49l-64.982 240.64 1.536.683c2.432 1.195 4.78 2.475 7.083 3.883a46.635 46.635 0 0 1 17.58 18.987l76.16-240.128c13.012 9.215 25.6 18.986 37.673 29.354l-121.173 327.98a17.067 17.067 0 0 1 2.133 6.996c.128 1.62-.085 3.157-.298 4.78a117.547 117.547 0 0 0-.427 3.668l-.34 5.333c-.6 15.36.51 30.68 2.175 45.953l153.344-361.386c11.733 12.16 22.826 24.832 33.322 38.058L752.77 526.513a26.54 26.54 0 0 1 11.948 9.386 21.632 21.632 0 0 1 3.626 11.22 19.072 19.072 0 0 1-.256 3.37l172.374-318.72c9.813 15.02 18.944 30.593 27.178 46.636L755.46 625.67c1.492 1.237 3.07 2.347 4.692 3.413 3.755 2.475 7.68 4.694 11.435 7.083a110.933 110.933 0 0 1 1.024.725l213.804-317.61c6.272 15.318 11.776 30.977 16.512 46.977L787.8 654.513a32.853 32.853 0 0 1 1.024 3.498c1.152 4.865 1.152 9.815 1.58 14.764 1.663.853 3.412 1.408 5.12 2.133l.212.086 217.558-267.606c3.84 18.39 6.656 37.12 8.448 56.192L759.896 751.45a99.5 99.5 0 0 0 .128 10.2l.683-.087 4.224-.298 4.268-.086h1.024l253.696-258.22v2.262a512.64 512.64 0 0 1-1.536 47.616l-235.734 217.6-.256 1.877c-.213 1.707-.256 5.547-.298 7.168l-.427 10.24a12.416 12.416 0 0 1-.853 4.267 4.65 4.65 0 0 1-.427.768l232.192-195.37-.684 3.67c-3.242 18.175-7.466 36.01-12.63 53.46L704.345 880.134h14.464L992.174 689.97l-1.11 2.985c-5.59 14.806-11.86 29.27-18.773 43.392L742.233 880.134h21.035l190.293-108.97-1.024 1.75a514.645 514.645 0 0 1-85.802 108.16l23.168 27.177zm-12.8-102.955h-710.4v90.156h710.4zm-216.62 61.91a27.435 27.435 0 0 1-3.583 11.265 41.088 41.088 0 0 1-7.126 10.538 17.92 17.92 0 0 1-6.4-1.62 18.347 18.347 0 0 1-5.675-3.372c4.138-1.876 7.85-4.095 11.092-6.612 3.84-2.987 6.102-5.632 6.827-8.02a15.616 15.616 0 0 0-6.4-7.553l4.778-9.174a18.347 18.347 0 0 1 4.522 6.657c1.28 2.987 1.963 5.632 1.963 7.894zm204.63 12.545l-5.546 5.248-5.42-5.42 5.633-5.162zm-157.866-.47l-5.547 5.248-5.462-5.46 5.632-5.12zM265.22 940.85h7.466v32c0 4.223-.256 7.423-.81 9.684a13.995 13.995 0 0 1-3.926 7.083 10.624 10.624 0 0 1-7.552 2.645 9.728 9.728 0 0 1-8.448-4.18 21.333 21.333 0 0 1-2.987-12.29l7.04-1.11a18.347 18.347 0 0 0 .94 6.145c.81 1.835 2.047 2.73 3.71 2.73 1.665 0 2.86-.64 3.542-1.962a20.18 20.18 0 0 0 1.024-8.064zm48.938 50.56h-8.15l-3.242-11.48h-14.848l-3.072 11.52h-7.936l14.464-50.56h7.893zm-69.376-41.985h-20.054v11.22h18.646v8.534h-18.646v13.738h20.736v8.533H217.22v-50.56h27.562zm80.853 41.984h-7.467v-50.52h15.787c3.925 0 6.827.428 8.62 1.367a9.643 9.643 0 0 1 4.308 4.82 18.688 18.688 0 0 1 1.62 7.98 16.64 16.64 0 0 1-2.43 9.386 10.923 10.923 0 0 1-7.382 4.694c1.622 1.28 2.988 2.688 4.054 4.224 1.024 1.537 2.475 4.267 4.267 8.193l4.524 9.856h-8.96l-5.42-11.01a74.112 74.112 0 0 0-3.967-7.423 6.016 6.016 0 0 0-2.26-2.09 9.26 9.26 0 0 0-3.756-.556h-1.535zm63.403 0h-8.107l-3.284-11.48h-14.848l-3.03 11.52h-7.978l14.506-50.56h7.894zm27.008-41.985h-11.008v41.984h-7.51v-41.985h-10.965v-8.534h29.525zm31.872 41.984h-12.63v-50.52h14.848c2.944 0 5.12.172 6.57.513a8.405 8.405 0 0 1 3.84 2.09 12.33 12.33 0 0 1 2.902 4.182 14.763 14.763 0 0 1 1.11 5.93c0 2.348-.427 4.524-1.408 6.53a10.155 10.155 0 0 1-3.798 4.436 10.112 10.112 0 0 1 5.206 4.567c1.237 2.133 1.834 4.693 1.834 7.637 0 2.304-.426 4.523-1.194 6.7a13.312 13.312 0 0 1-3.2 5.204 9.003 9.003 0 0 1-5.035 2.39c-1.28.17-4.267.298-9.045.34zm58.282 0h-8.15l-3.242-11.48H479.96l-3.072 11.52h-7.936l14.464-50.56h7.936zm11.008 0h-6.954v-50.52h7.253L532.74 974.6V940.89h6.954v50.52h-7.51l-14.933-32.94zm38.016 0h-7.51v-50.52h7.51v22.444l15.147-22.443h10.07l-13.952 19.67 14.72 30.85h-9.685l-10.24-23.724-6.06 8.448zm-342.826-41.985H201.39v41.984h-7.467v-41.985h-11.008v-8.534h29.483zm603.946 35.072h-2.218a11.648 11.648 0 0 1-7.254-2.688 32.213 32.213 0 0 1-4.906-5.335 32.555 32.555 0 0 0-4.78-5.29 15.787 15.787 0 0 1-.17 6.314 15.787 15.787 0 0 1-9.94 5.973c-2.902.682-6.828 1.024-11.905 1.024-6.826 0-11.476-.512-13.866-1.45-3.456-1.41-5.205-4.353-5.205-8.876 0-4.095 1.407-8.32 4.223-12.756 1.067-.085 1.75.3 2.048 1.152a12.117 12.117 0 0 0-2.004 6.272c0 2.9 1.664 4.736 4.95 5.547 1.834.47 5.716.682 11.604.682 5.376 0 9.387-.17 11.862-.597a13.525 13.525 0 0 0 5.717-2.26 29.867 29.867 0 0 0-13.868-11.18 76.8 76.8 0 0 1 1.067-11.733c9.94-5.547 19.498-9.387 28.586-11.35l-4.096 8.875a91.99 91.99 0 0 0-12.46 4.31c-4.052 1.663-6.996 2.986-8.83 3.967a57.003 57.003 0 0 1 18.815 13.397c2.304 2.346 3.968 3.882 5.035 4.693a9.387 9.387 0 0 0 5.46 1.877h3.542c4.95 0 7.467-.768 7.467-2.26 0-1.025-1.28-3.286-3.884-6.828l5.29-7.21a17.963 17.963 0 0 1 3.926 10.964 22.827 22.827 0 0 1-3.328 9.9 13.14 13.14 0 0 1-10.88 4.863zm34.902 0h-2.22c-4.394 0-7.252-1.835-8.575-5.462-.895-2.432-1.492-7.936-1.79-16.426a110.72 110.72 0 0 0-.513-8.705 30.037 30.037 0 0 0-2.22-8.448l6.316-6.614c1.067 1.707 1.707 4.267 1.963 7.766.085 1.28.128 3.924.128 8.02v10.112c0 3.03.213 5.248.64 6.613.81 2.475 2.346 3.712 4.693 3.712h2.987c4.95 0 7.424-.768 7.424-2.26 0-1.025-1.28-3.286-3.84-6.828l5.248-7.21a17.963 17.963 0 0 1 3.925 10.964 22.827 22.827 0 0 1-3.284 9.9 13.14 13.14 0 0 1-10.88 4.863zm-216.192-16.214a17.067 17.067 0 0 1-1.963 5.803 16.512 16.512 0 0 1-3.156 5.205 32.597 32.597 0 0 1-9.472 2.988 76.203 76.203 0 0 1-17.494 2.176c-7.253 0-12.202-1.408-14.933-4.224-1.707-1.792-2.56-4.437-2.56-7.936 0-4.78 1.365-9.26 4.096-13.483H590c.98 0 1.706.343 2.09 1.153a21.547 21.547 0 0 0-2.133 7.552c0 5.078 5.46 7.595 16.384 7.595 9.898 0 17.663-1.195 23.295-3.54a28.672 28.672 0 0 0-3.797-6.87l5.248-7.083a18.347 18.347 0 0 1 2.858 5.674c.768 2.177 1.11 3.84 1.11 4.993zm48.597 16.214h-4.692c-4.395 0-7.254-1.835-8.576-5.462-.896-2.432-1.494-7.936-1.792-16.426a111.787 111.787 0 0 0-.512-8.705 29.995 29.995 0 0 0-2.22-8.448l6.316-6.614c1.024 1.707 1.706 4.267 1.962 7.766.086 1.28.128 3.924.128 8.02v10.112c0 3.03.214 5.248.64 6.613.768 2.475 2.347 3.712 4.694 3.712h5.546c3.755 0 6.827-.426 9.216-1.152a76.8 76.8 0 0 0 9.174-4.138c-8.747-3.414-13.654-5.12-14.806-5.12a3.243 3.243 0 0 0-2.432.938 16.683 16.683 0 0 0-2.26 3.584 2.56 2.56 0 0 1-1.025.213 1.62 1.62 0 0 1-1.45-.896c1.536-4.096 2.73-6.87 3.584-8.406 1.536-2.9 2.987-4.35 4.438-4.35.896 0 4.053 1.194 9.43 3.626a33.62 33.62 0 0 0 11.732 3.627c2.73 0 6.955-.555 12.672-1.707l-3.626 8.363c-2.987.34-5.504.68-7.467 1.108 1.408 2.86 4.053 4.267 8.02 4.267h7.255c4.992 0 7.466-.726 7.466-2.22 0-1.023-1.28-3.284-3.84-6.826l5.29-7.21a18.005 18.005 0 0 1 3.884 10.964 22.784 22.784 0 0 1-3.286 9.9 13.14 13.14 0 0 1-10.88 4.863h-2.858a12.416 12.416 0 0 1-9.26-3.5 23.04 23.04 0 0 1-4.778-8.96 253.483 253.483 0 0 1-13.098 8.96 25.6 25.6 0 0 1-12.587 3.5zm-234.794-15.104h-6.058v13.525h6.912a25.045 25.045 0 0 0 5.162-.34 4.48 4.48 0 0 0 2.73-2.007 7.723 7.723 0 0 0 1.025-4.265 8.405 8.405 0 0 0-.81-3.84 4.992 4.992 0 0 0-2.347-2.347 18.987 18.987 0 0 0-6.614-.725zm43.52 2.048l-5.12-18.773-4.992 18.774zm-192 0l-5.12-18.773-5.034 18.774zm74.88 0l-5.12-18.773-4.992 18.774zm-43.776-22.015h-5.845v12.8h5.547a21.333 21.333 0 0 0 6.74-.598 4.437 4.437 0 0 0 2.134-2.133 8.405 8.405 0 0 0 .726-3.797 7.552 7.552 0 0 0-.982-4.096 4.352 4.352 0 0 0-2.816-2.005 46.336 46.336 0 0 0-5.504-.17zm115.627-.128h-4.31v11.69h4.907c2.902 0 4.694-.042 5.462-.17a4.48 4.48 0 0 0 2.986-1.835 6.528 6.528 0 0 0 1.11-3.925 6.912 6.912 0 0 0-.94-3.84 3.968 3.968 0 0 0-2.815-1.707 64.384 64.384 0 0 0-6.4-.213zm162.517 4.693l-5.12 4.78-4.992-5.036 5.206-4.693zm12.587-.683l-5.12 4.78-4.948-5.036 5.205-4.692zm208.854-4.693l-5.546 5.205-5.462-5.42 5.675-5.162zm-85.76.256l-4.736 4.736-4.82-4.224-4.396 4.437-5.077-4.438 4.736-4.864 4.822 4.31 4.395-4.523zm-286.42-68.693l-26.71-72.32-.598-.086-1.92-.34a6.06 6.06 0 0 1-2.474-1.195 5.376 5.376 0 0 1-1.536-5.93 6.06 6.06 0 0 1 1.578-2.22l1.024-.852-8.79-23.808a14.293 14.293 0 0 1-2.73 1.408 21.845 21.845 0 0 1-9.856 1.365l44.075 103.936zm7.466 0h6.826l-18.944-70.06a228.693 228.693 0 0 1-10.325-.724zm14.762 0h6.784l-11.648-69.59h-3.157l-6.954-.085zm13.568 0h6.784l-5.12-69.504h-1.11l-8.96-.043zm20.992 0l1.792-70.187c-2.517 1.58-5.29 1.11-8.106.683-.598-.086-1.195-.043-1.835-.043h-.683l1.707 69.547zm13.654 0l11.605-96.256a21.504 21.504 0 0 1-2.218 4.61 35.67 35.67 0 0 1-10.112 9.385l-6.058 82.22zm13.568 0l26.026-121.13-1.834 3.882-1.536 2.985c-2.646 4.566-5.974 9.387-11.307 10.795a11.22 11.22 0 0 1-.853.17l-17.28 103.254zm7.936 0h6.826l29.654-93.654a6.656 6.656 0 0 1-1.28-1.194 9.3 9.3 0 0 1-1.536-3.2 18.432 18.432 0 0 1-.3-7.852l.385-2.09.852-4.14a196.693 196.693 0 0 0 1.024-8.66 105.43 105.43 0 0 0 .555-13.185zm14.293 0h7.936l34.474-81.323a8.533 8.533 0 0 1-6.7-5.845 13.61 13.61 0 0 1-.51-3.67v-.385a29.61 29.61 0 0 0-1.452-.17zm16.512 0h8.192l40.66-75.264a51.072 51.072 0 0 1-11.647-1.664zm27.22 0l51.03-75.82-13.738.172-46.208 75.604zm20.097 0l62.763-77.227h-.384l-14.932.853-57.003 76.374zm24.406 0l78.464-79.915-8.918.597-8.448.554-71.594 78.72zm29.61 0l99.2-83.5a13.653 13.653 0 0 1-6.144 1.196 34.133 34.133 0 0 1-2.218 0l-3.115-.214a41.3 41.3 0 0 0-3.967-.257c-2.133 0-4.267.214-6.4.384l-3.584.3-88.876 82.047zM420.184 759.9h.427l1.708.085.768.085h.085a25.6 25.6 0 0 1 .684.17h.128l.64.214.256.043.256.085.34.085.257.086.214.085.256.085.342.128.426.172.384.128.342.17.426.17.3.172.51.213c1.75.854 3.414 1.878 5.036 2.987a34.987 34.987 0 0 1 8.02 6.827 22.443 22.443 0 0 1 3.798 20.436 19.712 19.712 0 0 1-2.944 6.23v.042c2.816.3 5.675.512 8.49.683h.385l2.475.17h.682l2.56.13 1.024.042 2.048.085h1.024l2.048.086h2.304l8.534.128 10.58.043 10.284.128 3.03-.04 3.156-.044h2.56l3.627-.043a26.027 26.027 0 0 1 3.158.128l.384.044a9.94 9.94 0 0 1 3.2-5.29l3.5-2.56 3.028-2.05 1.536-1.023 1.494-1.065 2.56-2.048.853-.81.427-.385.426-.427.427-.426.213-.215.214-.213.17-.213.17-.257.3-.342.128-.255a12.5 12.5 0 0 0 1.28-2.73l1.237-3.414.853-2.004a13.568 13.568 0 0 1 9.77-7.467l.47-.086a11.22 11.22 0 0 1 .555-.085c2.39-.3 4.78 0 7.125-.3a2.56 2.56 0 0 0 .982-.3l.34-.297.342-.342.128-.084.342-.34.298-.343.3-.34.298-.428.128-.085.256-.427.256-.34.426-.64.3-.513.298-.512.17-.34.854-1.58c1.62-3.2 3.03-6.485 4.608-9.685.896-1.75 1.92-3.414 2.858-5.206 1.11-2.09 2.134-4.18 3.286-6.23.682-1.108 1.322-2.218 2.048-3.242a31.445 31.445 0 0 1 5.248-5.674l.426-.34.3-.214.34-.256.427-.3.256-.17.555-.383h.042a27.563 27.563 0 0 1 .768-.512c3.456-2.134 7.723-4.267 11.82-2.646a9.088 9.088 0 0 1 2.56 1.62 11.18 11.18 0 0 1 1.962 2.305c.853 1.28 1.45 2.73 1.877 4.266.768 2.775.896 5.676 1.152 8.535a89.856 89.856 0 0 1-.044 16.384v.17a145.75 145.75 0 0 1-.426 3.754v.64l-.128 1.024-.086.512v.3l-.085.425-.084.598-.086.896-.085.425v.214l-.043.255-.256 1.834c-.298 2.346-.896 4.607-1.28 6.954a20.18 20.18 0 0 0-.17 1.92v.128c1.578.128 3.2.17 4.778.256l.854.085.554.043.683.128h.384l.298.085.512.085a13.824 13.824 0 0 1 2.218.597 8.96 8.96 0 0 1 5.547 5.547c.427 1.236.512 2.473.512 3.753h2.432a10.71 10.71 0 0 1 7.423 3.328c.427.47.853 1.025 1.45 1.367l.3.128.34.085.683.128c.427.128.94.17 1.408.256 3.84.597 7.766.683 11.648.555l.854-.044 1.365-.043 5.377-.256 1.408-.042 1.365-.043 12.288-.17c2.86-.043 5.675-.13 8.534-.257l3.114-.128h.94l3.967-.17h.427l3.67-.214h.852l3.84-.256h.854l15.402-.98 11.563-.77 10.028-.682 2.304-.17 10.07-.683 8.703-.768 8.747-.853 1.024-.085 1.237-.085.853-.085.982-.086.298-.043a404.352 404.352 0 0 1 9.174-.64h2.304l.768.085c2.005.128 4.053.34 6.1.427h.044c.085-3.97.34-7.895.47-11.82l.17-3.755-2.987.17-1.025.044h-5.845l-.683.084-1.792.128h-.256l-1.025.085-1.195.086-1.11.128-10.24 1.025-4.138.34a106.368 106.368 0 0 1-5.333.086h-.94l-.768-.04a18.987 18.987 0 0 1-5.802-1.623c-2.134-.938-4.14-2.176-6.315-3.157a14.848 14.848 0 0 0-1.75-.555l-.554-.085h-.17l-.34-.085h-.214l-.342-.086h-.213l-.34-.086h-.384l-.683-.128h-.34l-.77-.085-4.266-.34-2.39-.427a23.467 23.467 0 0 1-7.55-3.03l-.087-.042a45.013 45.013 0 0 1-.98-.597l-.044-.042-.682-.426-.3-.17-.084-.043-.128-.085-.256-.17-.3-.214-.426-.255-.64-.426-.17-.087-.17-.128-.044-.042-1.664-1.067-.853-.597-.556-.343-.256-.17-1.024-.64a32.597 32.597 0 0 0-2.986-1.536l-.47-.17-.128-.043-.256-.085-.512-.17-.17-.043a31.872 31.872 0 0 0-4.438-.94 93.653 93.653 0 0 0-11.52-1.067h-1.365l-.257-.042h-5.42l-.852.043h-.426l-.853.086h-.34l-1.238.127-1.365.128-.427.042-1.024.128-.426.043-1.323.17-2.09.342-5.59.81-3.328.342a49.195 49.195 0 0 1-9.772-.128 18.347 18.347 0 0 1-7.125-2.22l-.384-.212-.086-.085h-.043l-.084-.086-.128-.084-.128-.043-.17-.128-.342-.256h-.086v-.043a23.552 23.552 0 0 1-.64-.427l-.042-.085-.086-.086-.256-.17-.256-.172-.085-.085-.043-.043-.085-.085-.172-.128-.34-.3-.3-.255-.128-.085-.128-.086-.128-.127-.256-.213-.426-.34-.598-.556a28.544 28.544 0 0 0-2.133-1.835c-2.815-2.22-5.844-4.097-8.746-6.23a52.053 52.053 0 0 1-.938-.768l-.256-.17-.214-.214-.085-.043a47.53 47.53 0 0 1-.596-.512l-.128-.128-.427-.426h-.086l-.043-.087-.17-.128-.256-.256-.128-.13-.128-.084-.128-.128-.17-.17-.214-.214-.128-.128-.085-.085-.128-.127-.256-.3-.172-.127v-.043a26.965 26.965 0 0 1-1.152-1.28v-.042l-.128-.17-.256-.3-.128-.127-.085-.128-.086-.128-.128-.17-.214-.256-.085-.127-.085-.086-.086-.128-.256-.427-.085-.086v-.042a47.06 47.06 0 0 1-.47-.683l-.127-.17-.256-.427-.043-.086-.086-.086-.086-.17-.17-.257-.086-.213-.085-.17-.085-.086-.086-.17-.17-.342-.086-.17-.042-.086v-.043l-.342-.597v-.085h-.042l-.3-.64v-.086l-.042-.043-.128-.214-.128-.34-.042-.13-.086-.17-.042-.17-.086-.17-.128-.257-.085-.213v-.128l-.085-.086-.128-.427-.086-.214v-.043a31.147 31.147 0 0 1-.768-2.518c-1.024-3.97-1.365-8.065-2.005-12.075a43.69 43.69 0 0 0-.597-2.73 9.94 9.94 0 0 0-1.707-3.542 6.613 6.613 0 0 0-2.858-1.92l-.512-.17-.554-.172h-.086l-.426-.127-.683-.128a17.493 17.493 0 0 0-2.687-.298h-.512l-1.066.042a27.82 27.82 0 0 0-10.24 3.413l-1.536.81c-3.285 1.792-6.528 3.755-9.813 5.547-2.133 1.11-4.31 2.133-6.57 2.987h-.086l-.257.128-.555.213-.17.043-.128.086-.3.085-.298.13-.298.085-.256.128-.17.042-.214.086-.47.13-.298.127h-.086a93.525 93.525 0 0 1-1.024.34l-.298.13-.598.17-.128.042-.17.042-.3.085-.34.128-.256.086-.256.043-.214.086-.213.04-.427.13-.298.085h-.128l-.086.042-.81.214-.17.043-.342.128-.555.13h-.128l-.172.085-.34.085-.3.085h-.128a105.643 105.643 0 0 1-1.792.427h-.085l-.94.213-.937.214-.256.04c-4.694.983-9.472 1.708-14.25 2.305l-1.324.17a884.14 884.14 0 0 1-6.912.854h-.34l-.598.042h-.17l-.385.085h-.596l-.128.043h-.342l-.426.043h-.342l-.34.042h-.556l-.213.043h-1.707a23.04 23.04 0 0 1-9.13-1.707 24.363 24.363 0 0 1-5.888-3.71l-.128-.043-.256-.214-.256-.256-.086-.042v-.043a38.57 38.57 0 0 1-1.28-1.152l-.042-.043-.086-.085-.213-.213-.3-.3-.04-.043-.044-.042-.084-.086-.128-.13-.427-.425-.255-.3-.128-.127-.085-.085a100.693 100.693 0 0 1-.854-.854v-.043l-.128-.17-.426-.428-.128-.214-.214-.213-.768-.854-.085-.086v-.043h-.044l-1.408-1.62-.725-.853-.427-.47-.256-.256-.81-.852a41.472 41.472 0 0 0-2.134-2.048l-.426-.427-.17-.085-.3-.213-.213-.17-.256-.172-.212-.17-.3-.17-.212-.172-.256-.127-.3-.17-.212-.128-.3-.17-.212-.13-.342-.17c-4.18-2.176-9.045-3.072-13.653-3.968l-2.132-.426-.982-.127-.298-.086a108.46 108.46 0 0 1-9.046-2.133h-.042l-.256-.043-.427-.17-.213-.042-.128-.043-.214-.085-.298-.085-.3-.128-.212-.043-.128-.085-.17-.044-.428-.17-.256-.086h-.085l-.085-.043-.683-.298h-.128l-.172-.087-.64-.298h-.085l-.085-.043-.3-.128-.34-.17a59.05 59.05 0 0 1-8.704-4.694 100.437 100.437 0 0 1-9.387-7.125l-.043-.043-.17-.128-.683-.597-.255-.214-.085-.085-.128-.085-.726-.598-.256-.256h-.042l-.128-.13-1.664-1.45-.512-.426-.086-.085-2.26-1.964-2.348-2.048-1.92-1.58-.682-.596-1.238-.98-2.304-1.92-1.706-1.41-1.067-.853-2.304-1.878-.342-.3-.256-.212-.64-.512-.598-.555-.298-.213-.427-.34-.598-.513-.555-.47-.81-.682a191.66 191.66 0 0 1-10.283-9.43 49.237 49.237 0 0 1-5.632-6.314 43.392 43.392 0 0 1-5.888-13.098 102.144 102.144 0 0 1-3.286-18.773c-.17-2.135-.17-4.353-.34-6.572a26.027 26.027 0 0 0-.385-2.73c-.213-.854-.427-1.793-1.11-2.433a1.92 1.92 0 0 0-.767-.384 7.38 7.38 0 0 0-2.73.172l-4.097.725a36.78 36.78 0 0 1-1.494.128h-.512a14.123 14.123 0 0 1-3.67-.213 32.17 32.17 0 0 1-3.925-1.237 17.92 17.92 0 0 1-8.79-5.632c-1.366-1.792-1.963-3.968-2.902-5.974l-.128-.3a7.21 7.21 0 0 0-1.792-.47l-.213-.04h-.853l-.043.04-.3.044h-.085l-.213.128h-.086l-.298.128h-.043l-.256.128-.086.043-.214.13h-.085l-.256.17-.428.298v.043l-.426.3-1.11 1.023c-1.62 1.58-3.072 3.286-4.608 4.95-2.176 2.218-4.48 4.31-6.613 6.613a34.517 34.517 0 0 0-3.5 4.864l-.34.512-.384.597-.596 1.023-.342.47-.17.298-.086.13-.085.17-.34.555-.256.34-.043.086v.044l-.084.085-.256.426-.427.555a49.92 49.92 0 0 1-1.792 2.347 18.9 18.9 0 0 1-2.687 2.646 28.075 28.075 0 0 1-5.333 2.986l-2.688 1.237-.555.213-1.28.64-.17.043a14.848 14.848 0 0 0-3.37 1.92l-.257.298a45.867 45.867 0 0 0-.427 2.22l-.128.768c.427.683.725 1.323 1.067 2.048.554 1.323.938 2.73 1.536 4.096.384.427.853.853 1.322 1.195 1.152.853 2.347 1.706 3.456 2.645.726.64.726.597 1.408 1.28l1.408 1.664c.683 1.024 1.323 2.133 1.963 3.243 3.157 5.63 5.632 11.604 8.448 17.407.853 1.664 1.664 3.242 2.56 4.82a42.24 42.24 0 0 0 6.4 8.364l.512.47.128.128.512.47c3.84 3.498 8.533 6.058 13.227 8.19l1.834.855.555.213 1.068.47 2.688 1.194 3.157 1.323.085.042 2.902 1.28h.085a188.928 188.928 0 0 1 7.808 3.712 41.9 41.9 0 0 1 6.06 3.712 57.685 57.685 0 0 1 12.03 13.013l.3.426.213.255.213.342.298.384.213.3.257.426.64.94.427.596.298.512.555.94.34.553.385.726.214.426.298.554.214.427.298.683a41.728 41.728 0 0 1 3.115 9.814l.172.853.085.34.085.64.086.513.085.427.085.683v.298l.17.94.086 1.067.128.938c.3 3.542.427 7.083.512 10.667.086 3.157.3 6.4.427 9.6.086 2.347 0 4.736.086 7.125.043.726.086 1.494.256 2.22a10.667 10.667 0 0 0 5.462-.428l.512-.17.17-.044a9.813 9.813 0 0 1 .512-1.067 5.973 5.973 0 0 1 1.28-1.665 6.7 6.7 0 0 1 .342-.298l.298-.214.3-.213.34-.213.342-.17.34-.172.385-.17.34-.128.385-.128.384-.087.342-.128.512-.085.34-.085h.428zm14.422 20.053l1.408 4.522a11.18 11.18 0 0 0-1.408-4.522zm-105.814-508.46a20.907 20.907 0 0 0-4.693-1.28l-1.068-.127-.34-.043-.726-.085-.427-.043-.64-.085h-.428l-.64-.043-.426-.042h-1.067l-1.068-.043h-2.133l-.47.043h-.64l-.512.042-.512.043h-.598l-.426.085-2.56.214-.982.127a121.088 121.088 0 0 0-2.688.34l-.896.172.94-8.023.17-1.706.17-1.706.086-1.067.128-1.237.128-1.536.085-.853.17-2.474a263.552 263.552 0 0 0 .513-12.117 126.677 126.677 0 0 0-.3-9.26 30.42 30.42 0 0 0-2.047-9.813c-.684-1.58-1.708-3.115-3.5-3.542a6.57 6.57 0 0 0-1.578 0h-.384l-.128.086-.214.043-.17.043-.214.043-.042.084-.214.043-.17.042-.214.085-.128.085-.213.085-.127.043-.3.128-.596.3-.085.04-.47.3-.426.256-.214.128-.554.384h-.128l-.64.512c-2.134 1.58-4.096 3.413-6.06 5.205-4.266 4.097-8.362 8.32-12.586 12.46a213.504 213.504 0 0 1-6.058 5.547 94.165 94.165 0 0 1-9.686 7.424 55.467 55.467 0 0 1-3.328 2.006 35.072 35.072 0 0 1-13.866 4.395h-.81a13.653 13.653 0 0 1-7.894-2.43 33.45 33.45 0 0 1-8.022-8.45l-1.024-1.407-.085-.17-.042-.086-.213-.3c-2.133-3.07-4.18-6.228-6.357-9.258a118.315 118.315 0 0 0-3.67-4.78 38.187 38.187 0 0 0-10.496-9.087 27.307 27.307 0 0 0-2.773-1.28 6.187 6.187 0 0 0-1.494-.512 7.083 7.083 0 0 0-3.2.555 13.696 13.696 0 0 0-5.632 3.968 11.947 11.947 0 0 0-2.475 4.694 19.285 19.285 0 0 0-.47 3.2 62.89 62.89 0 0 0-.214 5.93c.086 6.443.854 12.886 1.92 19.243.854 4.82 1.835 9.643 3.072 14.42l.128.385.512 1.878.043.256.556 1.876.085.256.428 1.536.17.47.555 1.79c1.237 3.713 2.56 7.383 4.224 10.924l.555 1.152.213.384.384.768.468.94.086.127.554.98.3.513.127.213.853 1.28.427.64.34.51.385.47.384.427.683.854.597 6.53.17 1.96.13 1.11.298 3.03c.938 8.107 2.048 16.512 5.845 23.85a38.016 38.016 0 0 0 3.243 5.12c1.664 2.177 3.328 4.353 5.12 6.53l2.133 2.644.427.555 1.152 1.364 2.346 2.816 1.152 1.365.427.555 1.195 1.408.768.94a329.3 329.3 0 0 1 8.192 10.452c1.322 1.792 2.645 3.627 3.84 5.504 1.28 1.835 2.56 3.627 3.242 5.803a29.013 29.013 0 0 1 1.195 7.978c.084 3.2-.13 6.4-.428 9.558l-.042.17v.086l-.17 1.407a173.653 173.653 0 0 1-6.998 30.42 309.333 309.333 0 0 1-2.987 8.876c-.597 1.62-1.408 3.285-1.835 4.992a8.576 8.576 0 0 0-.085.896c0 3.03 1.835 5.462 3.712 7.68 2.048 2.347 4.267 4.523 6.272 6.913.724.853 1.407 1.792 1.92 2.816.852 1.705 1.023 3.583 1.15 5.417l.172 6.998.085.768v.128l.085.726c.128 1.237.427 2.432.854 3.584a10.07 10.07 0 0 0 2.773 3.925c.426.427.938.768 1.45 1.11l.554.384.555.34.596.3.512.255.128.085.64.3.214.084.768.3.768.34.213.085.426.127.768.3.298.084 1.024.343 3.072.98c4.65 1.28 9.344 2.518 13.995 3.84l1.58.47 1.407.427.384.128.426.17.683.214.555.17.426.13.512.212.384.128.342.085.34.128.428.17.426.172.427.128.3.128.297.128.555.17.512.215.427.17a68.95 68.95 0 0 1 11.008 5.632 43.648 43.648 0 0 1 7.338 6.06c2.944 3.754 3.456 8.83 3.584 13.44v3.327l-.17 4.95c-.128 2.39-.128 2.39-.17 4.82 0 1.494 0 2.987.084 4.48.256 3.115.854 6.657 3.414 8.79.938.768 2.048 1.11 3.03 1.707l1.023.854c1.877 1.877 2.987 4.31 3.883 6.827.853 2.56 1.493 5.29 1.92 7.98 1.024 6.23 1.493 12.543 1.62 18.858l.044 1.835v7.765l-.043.3v1.535l-.044.554v.128l-.085 2.22-.084 2.047 2.688 1.835 1.28-1.963 1.28-2.005.426-.684.512-.64.427-.512a28.46 28.46 0 0 1 .64-.768c2.56-2.86 5.418-5.376 8.063-8.192 1.11-1.237 2.176-2.475 3.328-3.67a33.195 33.195 0 0 1 3.33-2.986 18.816 18.816 0 0 1 2.43-1.58l.342-.212.384-.17.342-.17.384-.172.384-.17.34-.13.556-.17.256-.085.34-.086.513-.17.342-.043.3-.085.51-.085.385-.043h.3a11.093 11.093 0 0 1 1.236-.085h.725a15.19 15.19 0 0 1 5.248 1.11 11.35 11.35 0 0 1 3.67 2.047 13.696 13.696 0 0 1 3.2 5.034c.426.94.725 2.005 1.28 2.9a4.01 4.01 0 0 0 .853.684 16.98 16.98 0 0 0 2.9 1.28l1.11.384.426.128.555.17.598.17h1.195c1.877-.212 3.755-.64 5.632-.937a14.805 14.805 0 0 1 6.443.34 12.33 12.33 0 0 1 4.82 2.646c3.158 2.815 4.268 6.826 4.865 10.88.256 2.602.3 5.247.47 7.85.64 5.973 1.45 11.947 3.2 17.75 1.11 3.583 2.56 7.125 4.95 10.11l1.876 2.007 1.706 1.706 1.45 1.408 1.494 1.41.597.554.94.853.64.555.852.853.682.555.853.768.64.555.94.81.596.512.982.854.555.425.896.81 1.28 1.068 2.176 1.792.554.426 9.258 7.68c3.414 2.903 6.742 5.847 10.155 8.705 2.645 2.134 5.333 4.267 8.192 6.06l1.066.682 1.11.682 1.15.597.556.298.554.3.598.298.554.298.598.257.554.256.598.256.597.213.597.256.64.212.982.34 1.024.3.426.128.598.17.426.13.598.127.426.128.555.128.512.128.51.13.556.127 1.11.213c3.2.683 6.4 1.195 9.6 1.835a121.557 121.557 0 0 1 7.04 1.92l.468.128.81.298.812.3.768.34.554.215.64.298.384.17.256.13.512.212.128.086.64.3.683.426.556.3.213.127.383.213.34.256.257.128.427.34.128.087.597.426.427.342.426.298.682.598.214.17.256.215.34.34.214.172.256.256.3.298.255.257.213.17.256.257.342.34.384.428.384.427.34.297.684.768.47.555c1.706 1.877 3.284 3.797 4.99 5.59a36.78 36.78 0 0 0 2.134 1.962 13.867 13.867 0 0 0 3.968 2.432 13.74 13.74 0 0 0 4.395.64h1.067l.853-.043.853-.04.854-.087.853-.085.853-.085 1.707-.214 4.693-.555 1.878-.256 1.578-.215a158.507 158.507 0 0 0 15.062-2.773l.98-.213.812-.215.938-.256.94-.257.938-.298.896-.256.98-.3.982-.34.427-.172.512-.17.426-.17.512-.172.426-.17.512-.214.427-.17.555-.214.384-.17.554-.257.342-.127.938-.426.896-.427c4.14-2.176 8.107-4.693 12.246-6.87a54.187 54.187 0 0 1 6.826-2.986l.427-.128.77-.213.767-.256.725-.17.768-.214.854-.17a27.99 27.99 0 0 1 .725-.13l.64-.084.64-.087.64-.085h.426l.256-.043h.597a28.587 28.587 0 0 1 1.45-.085h1.28l.426.043h.256l.555.085a25.515 25.515 0 0 1 1.536.17l.555.086.682.128.64.128.555.128a18.133 18.133 0 0 1 8.747 4.736 16.81 16.81 0 0 1 2.73 3.584 22.1 22.1 0 0 1 2.006 4.992l.128.427.128.47a28.587 28.587 0 0 1 .426 1.748l.128.854.043.34.086.512.128.768.17 1.024.214 1.707.128.726.214 1.664.128.853.085.64.043.3.17 1.023c.214 1.024.427 2.005.726 2.987l.17.512.214.512.213.554.212.513.214.47.256.512.256.512.256.426.256.512.298.47.3.426.34.47.3.427.383.47.342.426.384.427a28.587 28.587 0 0 0 3.414 2.987c2.688 2.048 5.546 3.882 8.234 5.888l.81.64.726.64.427.298 1.62 1.494.257.17.726.64.768.598.725.597a7.253 7.253 0 0 0 1.75 1.024c.725.256 1.535.34 2.303.427l.555.085h.556l.554.085h.555l.555.043h1.92c5.546-.085 11.093-1.28 16.64-1.963l3.456-.298 1.792-.086h.34l1.75-.043h6.06l.255.042 3.755.213h.17a117.035 117.035 0 0 1 5.206.426c3.84.426 7.765.938 11.434 2.346l.683.3.214.084.854.384.34.17.257.086.256.17.556.257.298.17.47.256.384.214.426.256.384.213.427.256.384.256.34.213.768.47.854.555.426.3 1.622 1.066 1.664 1.067.768.512.81.47.768.425.81.427a14.677 14.677 0 0 0 4.865 1.493c2.347.3 4.736.427 7.125.683a30.336 30.336 0 0 1 3.968.853l.512.172.256.085.427.17h.085a15.787 15.787 0 0 1 .683.257c2.22.94 4.31 2.26 6.53 3.285a15.7 15.7 0 0 0 2.346.682l1.877.043H743c2.134-.086 4.267-.256 6.4-.427a112.3 112.3 0 0 1 2.22-30.763l.212-1.066.256-1.11.128-.513 1.323-5.12a41.77 41.77 0 0 1 2.9-7.68c2.688-5.376 6.656-9.94 10.667-14.378l3.925-4.268 1.707-1.877a5.59 5.59 0 0 1 .98-.64c1.92-.854 4.096-.555 6.102-.128h.128c2.346.554 4.608 1.28 6.912 1.792.81.17 1.706.34 2.56.34h.256a3.584 3.584 0 0 0 1.62-.427 6.485 6.485 0 0 0 1.964-1.962 9.43 9.43 0 0 0 1.62-6.015 4.864 4.864 0 0 0-.938-2.603 3.67 3.67 0 0 0-1.28-.98c-1.28-.64-2.56-1.153-3.925-1.708a28.587 28.587 0 0 1-5.25-2.517 8.192 8.192 0 0 1-2.218-2.006 10.325 10.325 0 0 1-1.365-4.48c-.34-2.644-.427-5.332-.597-8.02l-.086-.64-.042-.853-.128-1.152a26.24 26.24 0 0 0-2.09-7.766l-.214-.427-.086-.17-.128-.3-.128-.17-.128-.3-.128-.17-.17-.256-.086-.17-.17-.256-.128-.17-.214-.34-.042-.044-.3-.427-.127-.13-.213-.255-.128-.17-.17-.214-.13-.17-.212-.213-.128-.17-.128-.128-.555-.6-.042-.04-.597-.6-.084-.04-.598-.6-.085-.084-.384-.3-.428-.425-.384-.255-.426-.342-.384-.298-.427-.342-.383-.256-.427-.298a57.856 57.856 0 0 0-1.92-1.367l-.213-.128a126.933 126.933 0 0 0-1.792-1.152c-3.413-2.133-6.955-4.224-10.368-6.4a75.86 75.86 0 0 1-5.29-3.84l-.086-.085-.127-.128-.384-.3-.214-.17-.128-.127-.128-.086-.214-.17-.34-.342-.172-.128-.085-.042a60.16 60.16 0 0 1-.77-.726l-.64-.598-.084-.085-.086-.086-.17-.17-.3-.298-.212-.213-.128-.13-.128-.127-.17-.17-.342-.342-.128-.17-.086-.085a39.34 39.34 0 0 1-6.912-10.368l-.042-.043a33.963 33.963 0 0 1-.384-.853v-.127a32.64 32.64 0 0 1-.384-.854v-.13l-.086-.17-.128-.383-.128-.384-.042-.128-.086-.17-.085-.385-.13-.3v-.127l-.084-.256-.128-.384-.043-.213-.043-.128-.085-.34-.128-.428v-.085l-.044-.13-.128-.426-.085-.427-.128-.64c-1.75-8.66-.64-17.877.81-26.538.342-2.263.555-3.16 1.025-5.76a25.13 25.13 0 0 1 .426-1.964 29.227 29.227 0 0 1 6.144-9.9c2.816-3.2 5.974-6.1 8.875-9.215l1.707-1.96c2.474-3.116 4.95-6.87 3.84-11.095a11.05 11.05 0 0 0-3.414-5.418 18.048 18.048 0 0 0-5.248-3.286l-.64-.255-.597-.256-.17-.043-.555-.214-.214-.085-.512-.17-.256-.086-.512-.128-.298-.085-.427-.172-.342-.085-.427-.128-.426-.086-.384-.086-.298-.085-.47-.087-.384-.085-.426-.085-.342-.086-.47-.085-.383-.043-.427-.086-.34-.043-.47-.084-.342-.043-.512-.085h-.298l-.256-.085-1.366-.17-1.066-.086h-.342l-.682-.086-.427-.04-.64-.044h-.428l-.64-.085h-.426l-.64-.042h-.427l-.598-.043h-1.067l-.47-.042h-4.18l-.683.042h-.3l-.767.043h-.256l-.812.043h-.128l-.938.086h-.683l-1.11.128h-.427a422.74 422.74 0 0 1-2.987-26.112 311.552 311.552 0 0 1-1.28-31.02l.043-1.407.084-1.877v-.555l.043-.768v-.512l.043-.426.042-.555.043-.853.043-.64.042-.812.043-.555a147.37 147.37 0 0 1 .597-5.802l.256-2.175-.128-1.28c-.938-3.627-4.437-5.974-7.424-7.85l-1.877-1.153-3.712-2.432-1.707-1.237-.554-.47-.043-.042-.127-.127-.256-.214-.128-.13-.13-.084-.17-.17-.042-.043a14.848 14.848 0 0 1-.427-.427l-.084-.085a12.288 12.288 0 0 1-.512-.554l-.086-.128-.042-.043-.086-.128-.042-.042-.043-.043-.085-.128-.086-.085v-.087a7.424 7.424 0 0 1-1.066-1.962 9.045 9.045 0 0 1 .213-5.247 36.992 36.992 0 0 1 6.06-11.392c1.11-1.535 2.26-2.986 3.413-4.48l3.67-4.565a163.328 163.328 0 0 0 9.642-12.373 40.533 40.533 0 0 0 6.272-12.416c1.28-4.78 1.877-9.685 2.09-14.592v-1.62l.043-.513v-4.394l-.042-.64-.086-1.024v-.597l-.085-1.152v-.512l-.17-1.578-.043-.427-.128-1.194-.086-.682-.085-.94-.128-.724-.128-.853-.086-.767-.128-.854-.128-.77-.17-.81-.13-.81-.127-.725a93.056 93.056 0 0 0-1.364-5.846 42.667 42.667 0 0 0-5.547-13.355 39.34 39.34 0 0 0-12.8-11.478 60.46 60.46 0 0 0-4.524-2.346 22.1 22.1 0 0 0-2.56-1.11 24.107 24.107 0 0 0-3.968-.852c-3.413-.47-6.87-.64-10.282-1.024-2.39-.34-5.334-.64-7.04-2.56a10.667 10.667 0 0 1-1.792-3.584c-.64-2.133-1.195-4.267-1.835-6.315a9.813 9.813 0 0 0-2.305-4.053l-.213-.213-.086-.044-.17-.128-.086-.085-.17-.086-.128-.042-.128-.086-.128-.086-.17-.085h-.13l-.17-.13h-.085l-.212-.085-.086-.042-.298-.086h-.086l-.213-.085-.427-.085-.426-.086h-.214l-.384-.084-.256-.043-.597-.085a66.09 66.09 0 0 0-7.167-.427 259.968 259.968 0 0 0-22.912.727l-3.626.256-3.968.34-1.493.13a55.893 55.893 0 0 0-4.267-6.06 62.293 62.293 0 0 0-12.714-11.86 39.765 39.765 0 0 0-6.528-3.84l-.555-.214-.172-.044-.384-.17-.17-.043-.427-.17h-.128l-.556-.214h-.085a37.845 37.845 0 0 0-5.718-1.28 77.184 77.184 0 0 0-11.904-.77c-5.974 0-11.904.47-17.835 1.11l-.768.085-2.39.256-3.242.428-8.96 1.067c-1.195.128-2.432.213-3.67.426a31.02 31.02 0 0 0-2.303.513 41.856 41.856 0 0 0-13.91 8.064c-4.394 3.5-8.448 7.34-12.8 10.966l-2.858 2.304a43.307 43.307 0 0 1-12.118 6.784l-.768.214-.81.213v.17c-.086 3.073-.427 6.23-1.067 9.302l-.47 3.84c-.256 1.962-.512 3.84-.854 5.76a58.027 58.027 0 0 1-1.792 7.167 17.067 17.067 0 0 1-2.26 4.395l-.172.213-.128.17-.085.086-.13.215-.127.085v.085l-.128.086-.128.17-.085.044-.043.085-.13.085-.17.17-.085.086h-.043a6.656 6.656 0 0 1-.384.342h-.042a6.57 6.57 0 0 1-.427.34l-.086.044-.086.085-.17.087-.086.042-.17.127h-.086v.043l-.256.128a8.832 8.832 0 0 1-3.413.94h-.3a3.968 3.968 0 0 1-2.56-.855 9.813 9.813 0 0 1-2.132-2.56 41.643 41.643 0 0 1-.81-1.322c-2.134.854-4.353 1.494-6.57 2.05a80.683 80.683 0 0 1-16.3 1.705c-3.84.086-7.723 0-11.605 0-3.286 0-6.614.043-9.942-.042a110.933 110.933 0 0 1-13.653-1.536 54.272 54.272 0 0 1-3.5.17h-.852a24.107 24.107 0 0 1-11.69-2.602 46.293 46.293 0 0 0-3.414-.256c-2.69-.087-5.377.127-8.022.127a31.445 31.445 0 0 1-3.5-.214 14.208 14.208 0 0 1-4.18-1.066 14.165 14.165 0 0 1-3.2-2.22 39.467 39.467 0 0 1-3.84-3.967c-2.688-3.072-5.206-6.315-7.936-9.387a73.3 73.3 0 0 0-2.475-2.517c-2.56-2.432-5.504-4.693-9.13-4.95h-.47l-2.39-.767a128.94 128.94 0 0 1-1.834.17h-.256l-1.067.085-2.133.042h-.683a24.79 24.79 0 0 1-2.816-.17 14.55 14.55 0 0 1-4.352-1.152 10.795 10.795 0 0 1-4.608-4.31l-7.082-2.133c-1.28-2.9-2.688-5.717-3.968-8.62a36.907 36.907 0 0 1-2.73-10.92 35.883 35.883 0 0 1 .127-13.868zm48.128 434.134l18.603 43.904-.085-2.772a38.357 38.357 0 0 0-3.2-22.06 46.677 46.677 0 0 0-6.912-10.665 39.04 39.04 0 0 0-8.278-8.32zM364.504 386.48c26.112 11.265 47.104 31.403 52.566 69.163a22.827 22.827 0 0 1 13.14 5.078 95.275 95.275 0 0 0-5.972 15.787h-16.47a106.923 106.923 0 0 0 0 47.574h16.512c2.048 7.51 5.035 14.72 8.875 21.462l-11.69 11.69c8.533 13.57 20.053 25.09 33.62 33.622l11.69-11.69c6.743 3.84 13.953 6.826 21.463 8.874v16.512c15.658 3.584 31.872 3.584 47.53 0v-16.512a92.587 92.587 0 0 0 21.462-8.875l26.282 26.283a127.232 127.232 0 0 1-198.698-105.13c0-9.73.853-19.84 1.365-30.507.426-9.303-2.69-25.047-11.18-33.537-14.933-14.89-29.994-24.747-29.994-24.747zm294.998 227.713c-26.112-11.307-47.104-31.403-52.566-69.206a22.87 22.87 0 0 1-13.14-5.077c2.474-5.077 4.436-10.368 5.93-15.787h16.512a106.923 106.923 0 0 0 0-47.573h-16.512a90.88 90.88 0 0 0-8.875-21.46l11.692-11.692c-8.534-13.568-20.054-25.045-33.622-33.62l-11.69 11.69a90.88 90.88 0 0 0-21.462-8.875V396.08a106.923 106.923 0 0 0-47.53 0v16.513a90.88 90.88 0 0 0-21.462 8.874l-26.282-26.282a127.232 127.232 0 0 1 198.698 105.13c0 9.728-.853 19.84-1.365 30.507-.427 9.3 2.688 25.045 11.18 33.536C663.896 579.29 679 589.105 679 589.105zM760.408 564.7c-2.773 3.07-5.802 5.93-8.533 8.83-.81.855-1.536 1.708-2.26 2.604a15.53 15.53 0 0 0-2.56 4.352c-.428 1.45-.6 3.115-.855 4.48l-.554 3.54a196.267 196.267 0 0 0-.683 4.695zM529.326 413.232a88.747 88.747 0 0 0-34.646 0l.427 13.525a75.093 75.093 0 0 0-23.168 9.6l-9.26-9.9a88.832 88.832 0 0 0-24.533 24.535l9.9 9.258a75.52 75.52 0 0 0-9.6 23.17l-13.57-.427a88.875 88.875 0 0 0 0 34.645l13.57-.427c1.876 8.236 5.12 16.044 9.6 23.17l-9.9 9.3c6.485 9.686 14.805 18.006 24.533 24.49l9.26-9.855c7.124 4.438 14.932 7.68 23.167 9.6l-.427 13.526c11.435 2.262 23.21 2.262 34.646 0l-.427-13.567a75.52 75.52 0 0 0 23.167-9.558l9.26 9.814c9.727-6.444 18.047-14.764 24.532-24.45l-9.9-9.3a74.667 74.667 0 0 0 9.6-23.17l13.568.428a88.875 88.875 0 0 0 0-34.645l-13.568.426a75.52 75.52 0 0 0-9.6-23.17l9.9-9.257a88.832 88.832 0 0 0-24.534-24.534l-9.26 9.898a75.563 75.563 0 0 0-23.167-9.6zm-21.163 38.698v-8.02h7.68v7.98c8.875-1.665 12.885-8.535 12.757-7.937-1.45 6.826-4.82 14.293-12.757 16.17v16.47c15.83-1.792 22.955-13.824 22.74-12.886-2.473 11.52-8.404 23.98-22.74 25.9v15.018c19.456-1.75 28.16-15.574 27.947-14.507-2.987 13.056-10.24 27.22-27.947 29.1v18.09c24.875-1.793 36.01-19.97 35.712-18.603-3.968 17.877-13.995 37.418-39.552 37.546-25.6 0-35.627-19.625-39.424-37.588-.257-1.28 10.708 16.98 35.583 18.688v-18.09c-17.835-1.707-25.088-16.043-27.947-29.185-.213-.98 8.406 12.97 27.947 14.55V489.69c-14.464-1.833-20.395-14.463-22.74-26.025-.172-.854 6.825 11.264 22.74 12.928v-16.47c-7.98-1.75-11.35-9.258-12.757-16.213-.086-.512 3.84 6.4 12.757 8.02zm-212.31 62.72l2.86 6.7a21.76 21.76 0 0 0-.3-2.688 6.997 6.997 0 0 0-.853-2.56c-.47-.555-1.11-1.024-1.706-1.493zm98.987-188.03l.94.127c2.858.128 5.716-.085 8.532-.085 1.45 0 1.408 0 2.816.085 7.68.683 15.19 2.134 22.784 3.286a78.763 78.763 0 0 0 10.923.896c6.315 0 12.63.127 18.944 0 4.308-.087 8.618-.3 12.842-1.153a34.347 34.347 0 0 0 7.68-2.432 19.03 19.03 0 0 0 6.997-4.992 16 16 0 0 0 2.73-5.93 42.368 42.368 0 0 0 1.194-10.24 88.49 88.49 0 0 0-.597-11.52c-.555-5.974-1.323-11.948-1.835-17.92-.34-4.694-.426-9.388-.64-14.08a111.957 111.957 0 0 0-.426-4.694 35.5 35.5 0 0 0-1.408-6.487c-.214-.682-.427-1.578-.94-2.133a7.168 7.168 0 0 0-1.15-.853 30.336 30.336 0 0 0-1.452-.854c-2.517-1.28-5.034-2.39-7.51-3.67a33.62 33.62 0 0 1-8.66-6.27 60.032 60.032 0 0 1-12.46-28.16l-.084-.726-1.11.085-.725.085h-.17l-.513.043h-.213l-.426.043h-.17l-.854.085c-2.218.085-4.437 0-6.613.043l-11.093.17h-1.792l-.3.044h-.596l-.94.043h-.938l-.34.042h-.513l-1.024.042h-.596l-2.09.085h-.214l-1.58.086h-.98l-.854.042h-.682l-.342.043h-.682l-1.366.085h-.213l-2.218.086-10.71.468c-6.484.17-13.012-.085-19.498.085a94.165 94.165 0 0 0-9.514.768h-.3l-.17.044h-.042l-.214.043h-.17v.042h-.086l-.17.042h-.128l-.086.043h-.213l-.127.085h-.3l-.127.043-.085.042h-.127l-.085.043h-.128l-.086.043h-.128l-.085.043h-.127l-.17.043-.13.043h-.127l-.17.084h-.128l-.043.043h-.085l-.214.085h-.213l-.256.128h-.128l-.428.128a17.493 17.493 0 0 0-4.053 1.707c-.428.256-.982.554-1.28.98a4.864 4.864 0 0 0-.385 1.28 26.496 26.496 0 0 0 0 5.462v.427l.384 4.01a192.94 192.94 0 0 1 .426 6.06 34.816 34.816 0 0 1-2.304 14.847 32.427 32.427 0 0 1-3.542 6.23 46.592 46.592 0 0 1-5.418 6.102l-.3.256-.084.085-.17.128-.47.428-.086.085-.256.214-.298.298-.3.256-.298.257-.298.256-.256.214-.342.298-.17.128-1.024.896c-1.707 1.45-3.414 2.858-4.992 4.35a17.11 17.11 0 0 0-4.096 5.335 17.877 17.877 0 0 0-.555 8.448c.128 1.62.427 3.285.683 4.906.256 1.322.512 2.687.938 4.01.555 1.664 1.28 3.285 2.048 4.864l.427.896 21.248 6.4h-.682l2.048.213c.982.17.982.17 1.92.427 1.494.427 2.944.94 4.31 1.62a39.125 39.125 0 0 1 11.562 9.73l.555.554.555.597.47.6.51.596.428.512 1.706 2.048.854 1.067.81.938.47.6.512.596.512.555.426.555a34.773 34.773 0 0 0 2.22 2.176c.212.172.554.556.852.64l.47.087zM487.17.602a516.267 516.267 0 0 1 50.774.043z"/></svg>