<svg viewBox="0 0 860.2996 1024.0246" xmlns="http://www.w3.org/2000/svg"><path d="M438.5.006l4.736 310.822c0 .464-.22.707-.662.732h-.035c-.28.024-.443-.2-.49-.662L398.654 2.792c-.028-.226-.01-.456.052-.675.067-.216.175-.422.324-.592.146-.174.33-.317.532-.415.206-.1.432-.157.66-.164l19.608-.94h18.67zm-60.153 388.946c-.184.045-.16.22.07.522-34.527-124.248-68.336-247.41-101.425-369.476-.3-1.114.105-1.81 1.22-2.09 6.13-1.67 12.32-3.193 18.564-4.562 6.27-1.348 12.538-2.532 18.808-3.553 1.114-.21 1.766.255 1.95 1.394 20.53 124.806 40.845 250.9 60.953 378.287.07-.372.024-.546-.14-.522zM521.22 250.747c-.014.06-.042.11-.08.156-.04.046-.084.08-.14.105-.052.02-.11.035-.17.03-.06-.002-.115-.02-.168-.047-.397-.278-.43-.637-.104-1.08 4.55-156.43 6.848-235.345 6.896-236.738.046-1.44.58-2.066 1.603-1.88l36.64 6.2c1.484.253 2.076 1.124 1.777 2.61L521.22 250.748zM670.466 55.002l-75.163 135.872c-1.557 2.832-1.94 2.682-1.15-.453l35.84-141.304c.42-1.672 1.474-2.344 3.17-2.02l37.094 7.454c.05.01.09.03.13.062.037.028.065.067.086.112.02.045.03.09.03.14-.002.048-.013.097-.037.14zm8.882 137.892c-.79 1.09-1.28 1.717-1.463 1.88-1.975 1.58-2.473 1.15-1.498-1.288L719.61 84.643c.395-1 1.035-1.184 1.917-.558l25.112 17.276c.95.673 1.068 1.475.347 2.404-37.686 48.877-60.23 78.587-67.64 89.13zm-344.33 271.57c-59.21-116.775-118.515-234.37-177.91-352.793-.154-.302-.185-.65-.087-.974.098-.324.317-.6.61-.767l33.54-20.306c1.3-.767 2.23-.443 2.788.975 71.147 187.314 118.272 311.89 141.374 373.724.697 1.88.593 1.926-.313.14zM744.9 215.115l36.64-75.06c.582-1.16 1.404-1.368 2.474-.626l24.764 17.137c1 .675 1.045 1.417.14 2.23l-62.695 57.33c-2.158 1.95-2.6 1.615-1.322-1.01zM99.22 207.87l207.204 343.04c.278.443.362.708.243.802-.045.025-.094.06-.14.105-.114.094-.183.14-.208.14L58.817 218.528c-.12-.168-.195-.363-.223-.565-.028-.206-.004-.415.07-.606.07-.193.19-.367.344-.503.152-.136.34-.23.54-.278l39.113-8.953c.105-.02.213-.01.31.035.1.042.188.115.247.21zm575.39 73.562c-.187.393-.337.8-.452 1.22-.094.278-.223.372-.383.278-.05-.025-.105-.035-.174-.035-.257.024-.372.01-.348-.035l7.907-54.648c.09-.575.36-1.104.776-1.512.414-.407.947-.672 1.522-.752l20.69-2.926c1.507-.21 1.89.348 1.148 1.672-18.39 33.62-28.62 52.534-30.685 56.738zm-39.253 43.363l-26.26-72.237c-.33-.88-.036-1.487.87-1.81l24.868-9.057c.195-.072.404-.097.61-.065.208.028.404.104.578.23.17.122.31.285.407.477.094.188.147.4.147.613v81.64c0 2.394-.408 2.464-1.22.21zm-34.098 54.37c-.42.21-22.815-30.466-67.188-92.02-.11-.154-.188-.328-.226-.517-.04-.184-.035-.38.007-.564.04-.184.125-.358.24-.508.118-.15.265-.272.432-.362 3.458-1.906 7.14-3.936 11.04-6.096 3.877-2.184 7.535-4.238 10.972-6.165.168-.097.352-.16.544-.18.192-.022.387.003.568.065.185.063.352.164.488.3.14.132.247.296.317.477 28.933 70.148 43.2 105.336 42.806 105.57zm75.824-91.5l.383-.347c.056-.052.132-.08.21-.08.075 0 .15.028.208.08l166.14 136.777c.047.04.082.087.103.147.02.055.02.118.007.177-.014.058-.045.114-.09.156-.046.038-.1.066-.16.077l-40.752 8.254c-.052.007-.104.004-.153-.017-.05-.017-.09-.05-.125-.087L677.05 288.12c-.03-.032-.053-.067-.064-.11-.014-.04-.02-.082-.017-.124.002-.042.013-.084.034-.122.02-.035.045-.07.08-.098zm-130.82 175.3c-.07.046-.14.08-.21.105-.164.024-.29-.035-.384-.174-16.903-22.152-48.946-64.48-96.13-126.99-.12-.157-.202-.334-.25-.522-.046-.192-.053-.387-.022-.582.035-.192.105-.376.213-.54.105-.164.244-.303.408-.41 4.413-2.812 8.126-5.156 11.146-7.037 3.02-1.905 6.757-4.224 11.215-6.966.166-.098.354-.157.546-.182.19-.02.386-.003.574.053.185.053.356.147.505.272.15.122.272.275.36.45 35.595 69.774 59.663 117.098 72.202 141.966.07.164.06.314-.035.453-.046.046-.094.08-.14.106zM59.026 329.846L259.3 635.793c.138.23.337.334.59.313.304-.024.245.21-.173.697-.234.23-.453.22-.662-.035L18.24 339.807c-.152-.195-.253-.425-.295-.67-.04-.246-.014-.497.07-.73.083-.234.222-.44.41-.603.185-.163.408-.278.652-.33l39.044-8.012c.374-.07.673.056.907.384zm580.928 2.473l.244-.278c.016-.025.037-.046.065-.06.024-.017.052-.027.084-.027.026-.004.058 0 .086.007.027.01.055.024.076.045l219.464 235.52c.024.028.042.06.052.097.007.035.007.074-.004.11-.01.033-.03.065-.055.09-.03.027-.064.044-.1.05l-40.994 8.395c-.038.01-.076.007-.115-.003-.033-.014-.068-.035-.093-.066l-178.712-243.6c-.035-.04-.052-.088-.052-.14 0-.053.017-.1.052-.14zM378.07 399.366l22.185-22.187c.098-.095.216-.168.345-.213.13-.045.265-.063.4-.05.137.015.27.057.387.127.115.07.216.163.296.275L513.73 542.1c.21.302.245.532.106.696-.05.024-.084.06-.105.104-.093.094-.138.13-.138.105L378.034 400.968c-.512-.533-.502-1.07.035-1.602zm229.145-10.03c-3.528-5.873-3.24-6.072.87-.593l229.112 306.26c.81 1.09.557 1.765-.766 2.02l-37.51 7.697c-1.325.28-2.335-.174-3.03-1.358L607.214 389.335zM.477 467.283l38.662-8.846c.23-.05.47-.04.688.035.223.073.418.205.565.383l187.35 242.137c.254.303.22.467-.105.488h-.174c-.164.025-.303-.02-.418-.138C76.442 547.324.956 470.06.582 469.548c-.512-.717-.686-1.344-.522-1.88.03-.098.087-.182.16-.25.073-.067.163-.113.257-.134zM456.192 634.92l-116.82-162.69c-.024-.03-.034-.066-.034-.104 0-.038.01-.073.035-.105l.243-.277c.014-.018.032-.035.05-.046.02-.01.04-.02.065-.024.022-.003.047 0 .068.003.024.007.045.018.062.032l139.564 138.797c.03.032.05.077.05.122s-.02.09-.05.122l-22.953 24.206c-.02.02-.04.035-.07.045-.023.008-.05.01-.08.008-.027-.004-.05-.014-.075-.028-.02-.014-.04-.035-.053-.06zM792.79 817.29l-38.35 7.837c-.365.08-.744.042-1.086-.11-.338-.15-.616-.405-.794-.726-114.845-201.295-181.627-318.334-200.342-351.12-.14-.257-.184-.487-.14-.696.14-.397.374-.348.698.14l240.78 342.726c.72 1.045.462 1.693-.767 1.95zM518.4 551.26c40.332 85.566 99.81 212.612 178.432 381.143.373.767.14 1.244-.696 1.428l-38.94 7.977c-.31.06-.627.01-.9-.146-.267-.152-.47-.396-.563-.688-45.742-129.36-91.578-258.762-137.51-388.215-.253-.742-.267-1.428-.033-2.055-.025 0-.035-.01-.035-.035.024.07.104.27.244.592zM400.185 694.13c-3.877 2.532-7.722 5.026-11.53 7.488-.083.053-.173.087-.267.1-.1.02-.193.015-.287-.01-.09-.02-.174-.062-.247-.12-.073-.06-.132-.13-.174-.214-50.807-94.552-76.138-141.872-76-141.966.14-.094 33.507 41.96 100.102 126.154.056.07.098.153.118.24.02.09.025.18.007.275-.018.09-.053.177-.102.257-.052.08-.12.146-.198.202-3.762 2.53-7.57 5.06-11.424 7.592zm-210.13 60.36L18.764 611.237c-.052-.053-.087-.115-.108-.185-.02-.07-.02-.143-.003-.212.017-.07.052-.136.104-.19.05-.05.112-.09.18-.11l40.195-9.37c.074-.02.15-.024.224-.006.073.02.143.06.195.11l131.064 152.66c.052.07.077.158.077.245 0 .086-.024.173-.076.242-.066.08-.164.13-.265.143-.105.014-.21-.014-.293-.073zm360.386 259.83c-11.515 2.16-17.82 3.32-18.913 3.484-1.136.16-1.787-.338-1.95-1.497-20.084-146.357-37.42-275.774-52.002-388.25 0 .02.014.034.035.034.024 0 .034-.014.034-.035 27.377 110.062 58.365 236.9 92.962 380.516.277 1.136-.15 1.832-1.29 2.09-1.066.254-7.36 1.473-18.878 3.657zM264.522 644.5c.513-.28 23.048 31.51 67.606 95.364.648.95.488 1.74-.488 2.368-.397.28-4.005 2.264-10.832 5.956-6.826 3.716-10.463 5.667-10.9 5.85-1.07.465-1.823.165-2.265-.904-29.237-72.144-43.607-108.356-43.12-108.635zM230.81 787.162V708.83c0-2.717.477-2.8 1.428-.244l25.6 67.64c.463 1.254.06 2.11-1.22 2.577l-24.868 9.056c-.104.037-.22.048-.33.034-.112-.018-.217-.063-.31-.13-.09-.07-.168-.16-.22-.264-.052-.104-.08-.22-.08-.337zm217.652 236.843H408.3l4.494-314.654c0-.115-.045-.174-.14-.174-.024.025-.044.035-.07.035-.07 0-.093.024-.07.07l35.946 314.723zM185.11 804.334l-21.35 4.388c-1.835.373-2.264-.243-1.288-1.846l27.968-45.766c1.856-3.02 2.53-2.776 2.02.73l-5.956 41.03c-.052.36-.212.694-.463.955-.25.26-.574.44-.93.51zm94.878 196.162l52.105-228.17c.672-2.882.93-2.847.767.103l-13.027 236.74c-.07 1.09-.627 1.52-1.672 1.287l-36.466-7.314c-.285-.052-.56-.164-.804-.327-.24-.164-.45-.373-.61-.624-.16-.247-.268-.522-.317-.815-.052-.292-.042-.592.025-.88zM108.172 799.04c.65.512-12.295 25.753-38.836 75.72-.975 1.81-2.264 2.07-3.866.766-3.23-2.692-6.816-5.583-10.762-8.673-3.922-3.11-7.57-5.92-10.937-8.428-1.646-1.254-1.706-2.578-.173-3.97C86 817 107.52 798.53 108.172 799.038zm19.713 133.747l-25.356-18.495c-.603-.443-.663-.965-.175-1.568l71.993-88.99c2.275-2.81 2.707-2.553 1.29.766l-46.15 107.87c-.35.81-.885.95-1.603.417zM256.2 829.83c1.904-3.254 2.343-3.055 1.322.59L218.27 969.986c-.35 1.275-1.175 1.787-2.474 1.532l-36.084-7.244c-1.487-.303-1.846-1.104-1.08-2.404L256.2 829.83z"/></svg>