<svg viewBox="0 0 1024 1024.0246" xmlns="http://www.w3.org/2000/svg"><path d="M126.25 730.006l1.36 89.24q0 .2-.19.21h-.01q-.12.01-.14-.19l-12.46-88.46a.47.47 0 0 1 .45-.53l5.63-.27h5.36zm-17.27 111.67q-.08.02.02.15-14.87-53.51-29.12-106.08-.13-.48.35-.6 2.64-.72 5.33-1.31 2.7-.58 5.4-1.02.48-.09.56.4 8.84 53.75 17.5 108.61.03-.16-.04-.15zm41.02-39.68a.11.11 0 0 1-.16.07q-.17-.12-.03-.31 1.96-67.37 1.98-67.97.02-.62.46-.54l10.52 1.78q.64.11.51.75L150 801.996zm42.85-56.2l-21.58 39.01q-.67 1.22-.33-.13l10.29-40.57q.18-.72.91-.58l10.65 2.14a.09.09 0 0 1 .06.13zm2.55 39.59q-.34.47-.42.54-.85.68-.43-.37l12.41-31.25q.17-.43.55-.16l7.21 4.96q.41.29.1.69-16.23 21.05-19.42 25.59zm-98.86 77.97q-25.5-50.29-51.08-101.29a.38.38 0 0 1 .15-.5l9.63-5.83q.56-.33.8.28 30.64 80.67 40.59 107.3.3.81-.09.04zm117.68-71.59l10.52-21.55q.25-.5.71-.18l7.11 4.92q.43.29.04.64l-18 16.46q-.93.84-.38-.29zm-185.38-2.08l59.49 98.49q.12.19.07.23-.02.01-.04.03-.05.04-.06.04l-71.06-95.73a.36.36 0 0 1 .21-.56l11.23-2.57a.16.15 66.8 0 1 .16.07zm165.2 21.12q-.08.17-.13.35-.04.12-.11.08-.02-.01-.05-.01-.11.01-.1-.01l2.27-15.69a.78.78 0 0 1 .66-.65l5.94-.84q.65-.09.33.48-7.92 14.48-8.81 16.29zm196.36-15.8h13.2a.3.3 0 0 1 .3.3v9.84a.3.3 0 0 1-.3.3h-13.2a.3.3 0 0 1-.3-.3v-9.84a.3.3 0 0 1 .3-.3zm97.79.13l13.04-.02c.21-.002.38.168.38.378l.018 9.74c0 .21-.17.38-.38.38l-13.04.023c-.21 0-.38-.17-.38-.38l-.016-9.74c0-.21.17-.38.38-.38zm17.3.01l12.98-.02c.227-.002.41.182.412.408l.016 9.66c0 .226-.182.41-.41.41l-12.98.023c-.225 0-.41-.183-.41-.41l-.016-9.66c0-.225.182-.41.41-.41zm221.61-.02h13.08a.35.35 0 0 1 .35.35v9.8a.35.35 0 0 1-.35.35H727.1a.35.35 0 0 1-.35-.35v-9.8a.35.35 0 0 1 .35-.35zm17.33 0h12.98a.41.41 0 0 1 .41.41v9.68a.41.41 0 0 1-.41.41h-12.98a.41.41 0 0 1-.41-.41v-9.68a.41.41 0 0 1 .41-.41zm-561.66 28.13l-7.54-20.74q-.14-.38.25-.52l7.14-2.6a.38.37 80.3 0 1 .5.36v23.44q0 1.03-.35.06zm-9.79 15.61q-.18.09-19.29-26.42a.38.38 0 0 1 .13-.56q1.49-.82 3.17-1.75 1.67-.94 3.15-1.77a.38.38 0 0 1 .55.19q12.46 30.21 12.29 30.31zm21.77-26.27l.11-.1a.09.09 0 0 1 .12 0l47.7 39.27a.09.09 0 0 1-.04.16l-11.7 2.37a.09.09 0 0 1-.08-.03l-36.12-41.54a.09.09 0 0 1 .01-.13zm189.5 51.69q15.38.24 17.29-.02 8.84-1.19 8.81-10.7-.05-15.15-.02-33.19a.58.57 0 0 1 .58-.57h13.18q.56 0 .57.57.14 29.93-.09 35.87-.47 12.57-12.71 16.88-3.32 1.17-10.86 1.2-8.17.04-16.95.07-.59 0-.59.58v20.28q0 .45-.45.45h-13.12q-.56 0-.56-.56v-62.19a.37.37 0 0 0-.37-.37q-9.18-.07-23.64.04c-9.66.08-18.27 3.39-19.03 14.48q-.65 9.62 8.49 12.72 4.99 1.69 9.73 1.87 8.78.34 13.1.41.54.01.54.55v11.33a.48.49 88.8 0 1-.47.48q-8.42.32-17.91-.47c-9.54-.8-19.79-4.15-25.07-12.51q-2.56-4.05-2.94-9.62c-1.11-16.33 8.5-26.13 23.05-30.65q5.24-1.63 12.34-1.47 6.61.15 36.04.06.49 0 .49.49v43.41q0 .57.57.58zm332.54-34.29q-14.82-.23-17.05.04-9.41 1.16-8.95 10.86.03.64-.61.64h-13.31q-.52 0-.52-.53c-.01-14.46 8.16-20.86 21.91-21.03q9.13-.11 33.12-.04a.33.33 0 0 1 .33.33v43.95a.28.27 0 0 0 .28.27q8.1.15 16.25-.01 6.75-.14 9-5 1.07-2.32 1.09-9.05.05-15.09.02-30.1a.42.42 0 0 1 .42-.42h13.48q.44 0 .44.44.04 32.17.05 32.66c.06 13.94-7.4 21.36-21.5 21.41q-31.29.1-92.24.06c-9.57-.01-18.21-2.07-21.88-10.98q-1.68-4.1-1.73-15.19-.07-14.41.04-27.85.01-.55.55-.55h13.39a.37.37 0 0 1 .37.37q-.06 23.53.07 34.24.11 9.76 10.33 9.91 12.25.18 56.63.07.55 0 .55-.55v-33.42q0-.53-.53-.53zm118.88-.02q-10.15-.33-17.48.19-5.36.38-7.47 4.57-1.13 2.24-1.17 6.17 0 .51-.51.51h-13.33q-.54 0-.53-.55.17-5.04.82-7.33c3.2-11.21 12.42-13.56 22.75-13.59q15.77-.05 31.44-.03a.37.37 0 0 1 .37.37v43.76q0 .48.48.48h25.98a.41.4 90 0 0 .4-.41q-.11-11.29-.14-14.95-.05-7.14 1.29-10.95 3.47-9.79 12.26-14.51c7.61-4.1 17.18-4.5 26.15-2.93 10.38 1.81 19 7.83 23 17.62q1.22 2.99 1.22 7.89-.01 10.08-.03 17.89a.31.3 90 0 0 .3.31q8.15.14 16.27-.03 6.88-.15 9.07-5.17.99-2.28 1-9.17.02-6.6.04-29.8 0-.62.62-.62h13.57q.35 0 .35.35v43.63q0 .54.55.55 13.34.23 17.55-.14 5.3-.46 7.35-4.5 1.52-2.98 1.34-8.08-.18-5.08-.14-31.31 0-.5.5-.5h13.24q.56 0 .56.55.14 31.37.14 33.67.01 7.27-3.48 12.39c-4.35 6.36-11.77 7.9-19 7.93q-73.32.31-96.62.25a.22.22 0 0 1-.22-.22v-9.47q0-.24.25-.24h21.76q.49 0 .49-.5.14-15.31-.12-20.03c-.37-6.66-4.79-11.26-11.59-12.41-9.36-1.57-18.1-.25-22.21 8.88q-1.57 3.5-1.54 7.78.09 12.85.14 25.65.01.55-.55.55h-54.36q-.27 0-.27-.27v-43.72q0-.49-.49-.51zm-287.92 34.28a.29.28 0 0 0 .29-.28v-43.68a.38.38 0 0 1 .38-.38h13.54q.42 0 .42.42v53.62q0 .51-.5.51-85.01.04-91.87.04c-15.69 0-23.58-6.75-23.33-22.72.17-10.54.02-21.04.1-31.38q0-.5.5-.5h13.24q.57 0 .57.57.07 13.45 0 32.27c-.03 9.19 4.14 11.88 12.69 11.83q46.54-.26 73.97-.32zm57.23-.24c4.98-.08 8.04-2.69 8.1-7.77q.05-4.07.08-35.77 0-.57.57-.57h11.97q.49 0 .49.49.19 30.7-.13 37.48c-.44 9.71-6.63 15.18-16.07 16.21q-2.32.25-4.98.26-14.18.05-33.04.01-.57 0-.57-.57v-9.09q0-.59.59-.59 22.69.07 32.99-.09zm-447.79-1.09q-.03.02-.06.03-.07.01-.11-.05-7.28-9.54-27.6-36.46a.41.41 0 0 1 .1-.59q1.9-1.21 3.2-2.02 1.3-.82 3.22-2a.41.41 0 0 1 .57.17q15.33 30.05 20.73 40.76.03.07-.01.13-.02.02-.04.03zM17.3 824.706l57.5 87.84q.06.1.17.09.13-.01-.05.2-.1.1-.19-.01l-69.14-85.26a.42.42 0 0 1 .24-.67l11.21-2.3q.16-.03.26.11zm166.79.71l.07-.08a.06.06 0 0 1 .09-.01l63.01 67.62a.06.06 0 0 1-.03.1l-11.77 2.41a.06.06 0 0 1-.06-.02l-51.31-69.94a.06.06 0 0 1 0-.08zm-75.19 19.25l6.37-6.37a.27.27 0 0 1 .41.04l32.17 47.31q.09.13.03.2-.02.01-.03.03-.04.04-.04.03l-38.92-40.78q-.22-.23.01-.46zm65.79-2.88q-1.52-2.53.25-.17l65.78 87.93q.35.47-.22.58l-10.77 2.21q-.57.12-.87-.39l-54.17-90.16zM.49 864.166l11.1-2.54a.36.37 64.2 0 1 .36.12l53.79 69.52q.11.13-.03.14h-.05q-.07.01-.12-.04Q.68 865.036.52 864.816q-.22-.31-.15-.54a.16.17 3.4 0 1 .12-.11zm130.84 48.13l-33.54-46.71a.05.05 0 0 1 0-.06l.07-.08a.05.05 0 0 1 .07-.01l40.07 39.85a.05.05 0 0 1 0 .07l-6.59 6.95a.05.05 0 0 1-.08-.01zm96.64 52.36l-11.01 2.25a.49.5 69.1 0 1-.54-.24q-49.46-86.69-57.52-100.81-.06-.11-.04-.2.06-.17.2.04l69.13 98.4q.31.45-.22.56zm474.68-79.51h13.08a.36.36 0 0 1 .36.36v10.12a.36.36 0 0 1-.36.36h-13.08a.36.36 0 0 1-.36-.36v-10.12a.36.36 0 0 1 .36-.36zm237.41-.01l13.08.02c.193.002.35.16.35.352l-.02 10.14c0 .193-.156.35-.35.35l-13.08-.023c-.193 0-.35-.158-.35-.35l.02-10.14c0-.194.156-.35.35-.35zm17.28.01l13.06.02c.215.002.39.177.39.392l-.02 10.04c0 .215-.174.39-.39.39l-13.06-.023c-.215 0-.39-.176-.39-.39l.02-10.04c0-.216.174-.39.39-.39zm31.2 0l13.04.02c.21.002.38.172.38.382l-.02 10.06c0 .21-.17.38-.38.38l-13.04-.023c-.21 0-.38-.17-.38-.38l.02-10.06c0-.21.17-.38.38-.38zm-839.35 3.13q17.37 36.85 51.23 109.43.16.33-.2.41l-11.18 2.29a.36.37 75.6 0 1-.42-.24q-19.7-55.71-39.48-111.46-.11-.32-.01-.59-.01 0-.01-.01.01.03.07.17zm-33.94 41.02q-1.67 1.09-3.31 2.15a.19.2 59.7 0 1-.28-.07q-21.88-40.72-21.82-40.76.06-.04 28.74 36.22a.19.2 53.7 0 1-.05.28q-1.62 1.09-3.28 2.18zm-60.33 17.33l-49.18-41.13a.12.12 0 0 1 .05-.2l11.54-2.69a.12.12 0 0 1 .12.03l37.63 43.83a.12.12 0 0 1 0 .14.12.12 0 0 1-.16.02zm272.76-36.92q11.02.01 17.33.04.47 0 .47.47v5.52a.46.45 0 0 1-.46.45h-12.23q-.56 0-.56.56v35.43q0 .47-.47.49-1.13.04-4.17.03-3.05 0-4.18-.05-.47-.02-.47-.49l.15-35.43q0-.56-.56-.56l-12.23-.05a.46.45.2 0 1-.45-.45l.02-5.52q0-.47.47-.47 6.31-.01 17.34.03zm54.264-.013l7.84-.014c.182 0 .33.146.33.33l.012 6.6c0 .18-.147.33-.33.33l-7.84.013c-.182 0-.33-.147-.33-.33l-.012-6.6c0-.182.147-.33.33-.33zm151.806 11.633h15.09q.53 0 .53.53v4.91q0 .33-.33.33h-15.25q-.6 0-.6.6v15.62a3.62 3.62 0 0 0 3.62 3.62h16.82q.47 0 .47.46v4.94a.36.36 0 0 1-.36.36q-11.27-.01-18.74.01c-5.22.01-9.86-1.69-10.21-7.96q-.24-4.17-.12-34.74a.31.3 0 0 1 .31-.3h7.96q.24 0 .24.23v10.82q0 .57.57.57zm138.05-11.62q6.12-.01 11.89.01.44 0 .44.43v5.01q0 .31-.31.31l-6.78-.02q-.52 0-.58.56-.06.63-.06 15.19 0 14.57.06 15.2.06.56.58.56l6.78-.02q.31 0 .31.31v5.01q0 .43-.44.43-5.77.02-11.89.01-6.12.01-11.89-.01-.44 0-.44-.43v-5.01q0-.31.31-.31l6.78.02q.52 0 .58-.56.06-.63.07-15.2-.01-14.56-.07-15.19-.06-.56-.58-.56l-6.78.02q-.31 0-.31-.31v-5.01q0-.43.44-.43 5.77-.02 11.89-.01zm-513.41 111.52q-4.96.93-5.43 1-.49.07-.56-.43-8.65-63.03-14.93-111.47 0 .01.01.01t.01-.01q11.79 47.4 26.69 109.25.12.49-.37.6-.46.11-5.42 1.05zM76.3 915.046q.22-.12 19.41 27.38.28.41-.14.68-.17.12-3.11 1.71-2.94 1.6-3.13 1.68-.46.2-.65-.26-12.59-31.07-12.38-31.19zm561.882 22.817a14.55 14.55 0 0 1-14.112 14.976l-6.097.18a14.55 14.55 0 0 1-14.975-14.113l-.08-2.698a14.55 14.55 0 0 1 14.112-14.977l6.097-.18a14.55 14.55 0 0 1 14.975 14.112l.08 2.698zm-8.238-2.66a8.46 8.46 0 0 0-8.533-8.385l-1.92.017a8.46 8.46 0 0 0-8.385 8.533l.03 3.5a8.46 8.46 0 0 0 8.534 8.386l1.92-.017a8.46 8.46 0 0 0 8.385-8.533l-.03-3.5zM378.7 957.697c1.98-.17 2.82-1.86 2.85-3.7q.11-7.75.05-32.27 0-.41.41-.41h7.72a.4.39 90 0 1 .39.4q.02 25.52.01 28.31c-.01 5.69-.14 11.71-7.2 12.97q-5.86 1.05-13.66.48-.2-.02-.2-.23v-5.14q0-.29.28-.27 4.87.25 9.35-.14zm45.43-11.3q.06-6.53-.01-13.7c-.05-5.13-2.93-5.47-7.31-5.56q-4.45-.09-19.31 0a.44.43 90 0 1-.43-.44v-4.95a.42.42 0 0 1 .41-.42q13.84-.05 23.33.05c6.31.07 11.63 2.87 11.76 9.9q.16 8.83.06 21.04a.35.35 0 0 1-.35.35q-17.79.14-25.22-.09c-6.9-.21-11.83-5.69-9.39-12.65q1.79-5.11 7.62-5.98 4.32-.65 14.24-.28.15 0 .15.16v5.19q0 .32-.32.3-2.53-.17-10.24.19a3.32 3.32 0 0 0-3.14 2.9q-.06.46-.06.81.04 3.37 3.4 3.52 8.66.4 14.3.18.5-.02.51-.52zm23.62 6.3h-7.76a.41.41 0 0 1-.41-.41q.01-1.99.01-18.53-.01-12.34 12.73-12.4 16.21-.08 22.62-.01.23.01.23.24v5.19q0 .34-.34.34-18.76-.06-21.58.04-3.06.11-4.39 2.62-.69 1.28-.69 4.56-.04 11.83 0 17.94a.42.42 0 0 1-.42.42zm61.42-6.27q.06-5.94.01-12.52-.03-3.3-.75-4.54-1.28-2.2-4.67-2.21-14.04-.09-21.22-.03-.42 0-.42-.43v-4.93q0-.4.4-.41 11.85-.16 23.94.09 11.34.23 11.31 11.55l-.1 19.17q0 .49-.49.49-13.39.11-22.59 0-3.38-.03-4.62-.32-6.64-1.55-7.6-7.06c-1.17-6.65 2.99-11.19 9.67-11.54q5.98-.32 12.36-.11.36.01.36.37v4.97a.39.39 0 0 1-.39.39h-9.93q-2.27 0-3.05 2.13-.43 1.18-.42 1.78.1 3.32 3.42 3.48 6.26.31 14.27.2.51-.01.51-.52zm59.88-18.84v24.74a.37.37 0 0 1-.37.37h-7.94q-.45 0-.45-.45v-30.29q0-.58.58-.58 19.28-.15 23.38.04 11.47.51 11.56 11.91.07 9.82.05 18.95 0 .42-.42.42h-7.66q-.46 0-.45-.46.03-9.51-.03-19.22c-.02-4.89-2.9-5.82-7.3-5.87q-3.84-.05-10.41-.09-.54-.01-.54.53zm130.81.13v24.58a.4.39 90 0 1-.39.4h-7.95q-.44 0-.44-.44v-30.43q0-.49.49-.49 11.53-.06 22.4.02c6.73.05 12.44 3.18 12.63 10.64q.15 6.55.04 20.25 0 .44-.45.44h-7.62q-.46 0-.45-.45.09-16.53 0-19.75c-.13-4.56-3.45-5.34-7.57-5.37q-2.5-.02-10.07-.02-.62 0-.62.62zm60.8 15.83q-.03-3.18-3.13-3.28-1.47-.05-8.5-.12-6.19-.06-8.38-.91c-4.96-1.93-7.39-8.45-4.57-13.19 3.49-5.87 10.19-4.62 16.1-4.67q7.02-.07 16.64-.04.36 0 .36.36v5.02q0 .39-.38.39l-21.54.02q-3.33 0-3.49 3.33v.13q-.11 3.31 3.15 3.38 7.48.16 13.31.31 6.69.18 8.44 5.19 1.5 4.31-.54 8.46-2.32 4.73-9.14 4.75-10.86.03-24.99.02-.39 0-.39-.4v-4.99q0-.34.34-.34l23.3-.08q3.39-.01 3.41-3.21v-.13zm42.25 2.91v-24.75q0-.39.39-.39h7.96a.45.45 0 0 1 .45.45v30.43q0 .46-.47.47-15.38.15-23.48-.1-7.86-.24-10.42-5.86-1.34-2.97-1.26-10.52.09-7.27.05-14.52a.35.35 0 0 1 .35-.35h7.76a.42.42 0 0 1 .42.42v19.04q.01 6.18 6.57 6.17 6.79-.01 11.2 0 .48 0 .48-.49zm50.99-19.35q-14.72-.04-18.3-.01c-5.26.06-8.4.52-8.41 6.67q-.02 9.43.01 18.5a.42.42 0 0 1-.42.43h-7.74q-.38 0-.38-.38 0-15.9.07-19.07.25-11.45 11.76-11.83 5.89-.18 23.39-.06.35 0 .35.35v5.07q0 .33-.33.33zm34.24 19.28q.11-6.61.05-12.93c-.05-3.98-1.14-6.25-5.42-6.3q-10.8-.11-21.26-.04a.39.38 0 0 1-.39-.38v-5q0-.36.36-.36 21.06-.2 24.99.16 10.2.93 10.21 10.23.01 12.89.01 20.53a.37.36 0 0 1-.37.36q-19.47.17-25.74-.16c-7.34-.4-11.56-6.84-8.47-13.51q2.25-4.86 8.92-5.25 5.53-.32 12.37-.11.36.01.36.37v5a.36.36 0 0 1-.37.36q-6.1-.17-10.05.12-3.19.24-3.37 3.64v.14q.07 3.34 3.36 3.49 9.22.41 14.3.16.5-.02.51-.52zm24.69-19.31a.42.42 0 0 0-.42.42v24.78a.43.42 0 0 1-.43.42h-7.93q-.4 0-.4-.4v-30.67a.29.29 0 0 1 .29-.29q12.25-.04 21.06.02 4.42.03 6.52.65c5.15 1.51 7.6 5.38 7.65 10.77q.08 9.44.02 19.53a.39.39 0 0 1-.39.39h-7.77q-.34 0-.34-.34.01-3.09 0-18.01c0-4.06-1.04-7.12-5.44-7.18q-6.97-.1-12.42-.09zm42.1 9.96c.01 5.47 2.42 9.55 8.35 9.79q5.84.22 18.07.07.42 0 .42.42v4.93q0 .4-.4.4-10.95.2-20.07-.07c-9.17-.27-15.12-6.38-15.13-15.53-.01-9.15 5.92-15.27 15.09-15.56q9.12-.29 20.07-.12.4 0 .4.4l.02 4.93q0 .42-.42.42-12.23-.12-18.07.11c-5.93.26-8.33 4.34-8.33 9.81zm-607.39-8.9q-.09 5.36-.05 13.89c.02 4.63 3.2 5.32 7.51 5.3q5.12-.03 16.74.05.86 0 .86.86v4.02q0 .82-.82.82-17.52-.01-17.81 0-6.85.09-9.95-1.48-4.99-2.53-5.12-10.04-.01-.39.12-15.11a4.76 4.76 0 0 1 4.71-4.72q9.32-.11 17.52-.01c3.35.04 7.1.08 9.6 2.05 6.27 4.91 4.33 14.65-3.56 16.6q-2.58.64-14.69.38-.67-.01-.67-.69v-4.28a.71.71 0 0 1 .71-.71h9.84a2.82 2.82 0 0 0 2.5-1.52q.9-1.73.88-2.15-.16-3.43-3.47-3.72-5.34-.48-14.26-.15a.62.61 89.5 0 0-.59.61zm676.46 1.29v3.29q-1.71 7.31-9.18 7.91-4.9.38-12.64.18a.8.8 0 0 1-.78-.8v-4.18q0-.82.82-.77 3.68.22 9.54-.14 3.15-.19 3.48-3.46.02-.11.01-.13-.07-3.36-3.34-3.63-6.59-.53-14.37-.15-.56.03-.57.59-.15 8.14.06 14.85c.11 3.82 4.2 4.5 7.48 4.34q.21-.01 16.71.04.85 0 .85.85v4.05q0 .81-.81.81-10.25.09-20.76-.04c-5.87-.07-11.65-2.49-11.91-9.07q-.32-8.37-.13-17.63a4.71 4.71 0 0 1 4.61-4.6q6.15-.11 15.43-.05c6.56.04 13.47-.19 15.5 7.74zm-957.38 26.58v-22.49q0-1.17.41-.07l7.35 19.42q.2.54-.35.74l-7.14 2.6a.21.2 80.3 0 1-.27-.2zm62.49 68h-11.53l1.29-90.34q0-.05-.04-.05-.01.01-.02.01-.03 0-.02.02l10.32 90.36zm-75.61-63.07l-6.13 1.26q-.79.16-.37-.53l8.03-13.14q.8-1.3.58.21l-1.71 11.78a.5.5 0 0 1-.4.42zm27.24 56.32l14.96-65.51q.29-1.24.22.03l-3.74 67.97q-.03.47-.48.37l-10.47-2.1a.62.63 11.9 0 1-.49-.76zm-49.33-57.84q.28.22-11.15 21.74-.42.78-1.11.22-1.39-1.16-3.09-2.49-1.69-1.34-3.14-2.42-.71-.54-.05-1.14 18.26-16.13 18.54-15.91zm5.66 38.4l-7.28-5.31q-.26-.19-.05-.45l20.67-25.55q.98-1.21.37.22l-13.25 30.97q-.15.35-.46.12zm36.84-29.56q.82-1.4.38.17l-11.27 40.07q-.15.55-.71.44l-10.36-2.08q-.64-.13-.31-.69l22.27-37.91z"/></svg>