<svg viewBox="0 0 1024 1024" xmlns="http://www.w3.org/2000/svg"><path d="M337.29 674.317l-204.93-41.144q-46.685-9.583-51.044-57.08-4.385-47.788 40.172-65.248L860.003 220.79q16.515-6.406 33.975-3.413 17.46 3.02 30.904 14.572 13.417 11.552 19.01 28.33 5.592 16.83 1.68 34.29L795.175 951.376q-3.807 16.515-15.255 28.987-11.447 12.472-27.595 17.644-16.122 5.173-32.716 1.68-16.568-3.465-29.17-14.65zm35.84-53.72l359.66 316.468L883.134 280.47l-738.25 289.95.34.053 213.045 42.772q8.4 1.706 14.86 7.35zm-39.857-1.917l544.4-393.19q10.74-7.772 23.815-5.67 13.1 2.125 20.847 12.864 7.772 10.74 5.645 23.84-2.1 13.077-12.84 20.85L370.74 670.56q-10.738 7.772-23.84 5.646-13.076-2.1-20.848-12.84-7.745-10.765-5.645-23.84 2.1-13.076 12.866-20.848zM554.22 825.265L429.424 950.062q-13.496 13.706-32.558 17.618-19.063 3.912-37.074-3.466-18.04-7.378-28.882-23.526-10.87-16.12-10.923-35.603V644.62q0-13.258 9.373-22.606 9.374-9.373 22.633-9.373 13.26 0 22.634 9.374Q384 631.362 384 644.62v260.36l.184-.184L508.98 780q9.374-9.374 22.607-9.374 13.26 0 22.633 9.373 9.374 9.373 9.374 22.632 0 13.26-9.374 22.633z"/></svg>