<svg viewBox="0 0 1024 1024" xmlns="http://www.w3.org/2000/svg"><path d="M606.72 922.88c-50.347 0-121.6-35.413-177.92-204.8l-30.72-92.16-92.16-30.72c-168.96-56.32-204.373-127.573-204.373-177.92 0-49.92 35.413-121.6 204.373-178.347l362.24-120.746c90.453-30.294 165.973-21.334 212.48 24.746 46.507 46.08 55.467 122.027 25.173 212.48l-120.746 362.24c-56.747 169.814-128 205.227-178.347 205.227zM325.973 299.947C207.36 339.627 165.12 386.56 165.12 417.28s42.24 77.653 160.853 116.907l107.52 35.84c9.387 2.986 17.067 10.666 20.054 20.053l35.84 107.52C528.64 816.213 576 858.453 606.72 858.453s77.653-42.24 117.333-160.853L844.8 335.36c21.76-65.707 17.92-119.467-9.813-147.2-27.734-27.733-81.494-31.147-146.774-9.387l-362.24 121.174zM431.36 614.4c-8.107 0-16.213-2.987-22.613-9.387-12.374-12.373-12.374-32.853 0-45.226l152.746-153.174c12.374-12.373 32.854-12.373 45.227 0 12.373 12.374 12.373 32.854 0 45.227L453.973 605.013c-5.973 6.4-14.506 9.387-22.613 9.387z"/></svg>