<svg viewBox="0 0 1024 1024.001" xmlns="http://www.w3.org/2000/svg"><path d="M512 85.333C276.907 85.333 85.333 276.907 85.333 512c0 235.093 191.574 426.667 426.667 426.667 235.093 0 426.667-191.574 426.667-426.667 0-235.093-191.574-426.667-426.667-426.667zm203.947 328.534l-241.92 241.92c-5.974 5.973-14.08 9.386-22.614 9.386-8.533 0-16.64-3.413-22.613-9.386L308.053 535.04c-12.373-12.373-12.373-32.853 0-45.227 12.374-12.373 32.854-12.373 45.227 0l98.133 98.134L670.72 368.64c12.373-12.373 32.853-12.373 45.227 0 12.373 12.373 12.373 32.427 0 45.227z"/></svg>