<svg viewBox="0 0 1024 1024.001" xmlns="http://www.w3.org/2000/svg"><path d="M512 970.667C258.987 970.667 53.333 765.013 53.333 512 53.333 258.987 258.987 53.333 512 53.333c253.013 0 458.667 205.654 458.667 458.667 0 253.013-205.654 458.667-458.667 458.667zm0-853.334C294.4 117.333 117.333 294.4 117.333 512c0 217.6 177.067 394.667 394.667 394.667 217.6 0 394.667-177.067 394.667-394.667 0-217.6-177.067-394.667-394.667-394.667zm-60.587 547.414c-8.533 0-16.64-3.414-22.613-9.387L308.053 534.613c-12.373-12.373-12.373-32.853 0-45.226 12.374-12.374 32.854-12.374 45.227 0l98.133 98.133L670.72 368.213c12.373-12.373 32.853-12.373 45.227 0 12.373 12.374 12.373 32.854 0 45.227l-241.92 241.92c-5.974 5.973-14.08 9.387-22.614 9.387z"/></svg>