<svg viewBox="0 0 1024 1024" xmlns="http://www.w3.org/2000/svg"><path d="M158.822 596.48L354.51 808.346l510.668-553.268q10.342-11.16 24.268-17.612 13.824-6.35 29.082-6.964 15.258-.614 29.594 4.608 14.336 5.325 25.6 15.668 11.16 10.342 17.612 24.268 6.35 13.824 6.964 29.082.614 15.258-4.608 29.594-5.325 14.336-15.668 25.6l-567.09 614.4q-2.15 2.252-4.404 4.3-11.162 10.343-25.498 15.668-14.336 5.222-29.593 4.608-15.36-.615-29.184-6.964-13.824-6.45-24.27-17.612L45.98 700.622q-10.343-11.265-15.668-25.6-5.222-14.337-4.608-29.595.615-15.257 6.964-29.08 6.45-13.928 17.612-24.27 11.264-10.343 25.6-15.565 14.336-5.325 29.594-4.71 15.258.614 29.082 6.963 13.926 6.45 24.268 17.715z"/></svg>