<svg viewBox="0 0 1024 1024" xmlns="http://www.w3.org/2000/svg"><path d="M1024 512q0 212.122-149.965 362.086T512 1024q-212.122 0-362.035-149.914Q0 724.122 0 512.05q0-212.12 149.965-362.085Q299.878 0 512 0q212.07 0 362.035 149.965Q1024 299.93 1024 512zm-76.8 0q0-180.275-127.488-307.712Q692.275 76.8 512 76.8q-180.275 0-307.763 127.488Q76.8 331.725 76.8 512.05q0 180.276 127.437 307.713Q331.725 947.25 512 947.2q180.275 0 307.712-127.437Q947.2 692.326 947.2 512zM668.006 695.654L474.982 580.506q-18.74-11.162-18.74-32.973V299.366q0-15.923 11.265-27.136 11.264-11.264 27.136-11.264 15.923 0 27.187 11.264 11.213 11.213 11.213 27.136v226.356L707.38 629.71q13.618 8.14 17.56 23.55 3.892 15.412-4.3 29.082-8.14 13.67-23.552 17.562-15.41 3.89-29.082-4.25z"/></svg>