<svg viewBox="0 0 1024.6 1024" xmlns="http://www.w3.org/2000/svg"><path d="M324 28.6c-69.2 34.8-129 86.8-182.4 158.6C85.4 263 35 369.4 5 476 0 493.6-.4 496.8.8 520.6 11.8 749.4 172.8 943 395 995c44.4 10.4 60.4 12 119 11.8 50.2 0 57.4-.6 84-5.4 239.4-43.2 413.2-239.8 425.2-480.8l1.4-25.6-9.6-32C960.2 277.4 861.4 128.8 742 52c-24.8-15.8-65.8-36-73.4-36-3.6 0-13 2.6-21 5.8-82 32.4-191.2 31.8-275.2-1.6-16-6.4-20.8-5.6-48.4 8.4zm54.4 36.2c29.2 9.8 65.4 16.8 102 19.6 55 4.2 115.8-3 166.4-19.8l22-7.4 19 10C727.6 87.8 762 113.6 798 150c70.6 71.4 127.2 169.4 168 291 19.2 57.4 19 56.8 16.4 91.8-6.8 86.6-36.4 167.4-88.2 240.8l-8.8 12.4-17-18.2c-19.6-20.8-35.4-32.6-57.2-43-8.6-4.2-15-8.4-14.4-9.6 28.2-63.8 34-89.4 34-149.2 0-31.6-.8-43.4-4.4-62.2-16.6-88.2-63.6-157.4-131.2-192.8-28.4-15-40.4-18-70.2-18-24.4 0-26.8.4-38.6 5.8-36.6 17-49.4 57.4-33.4 106.2 2.8 8.8 11.8 28.6 20 44 16.6 31.6 22 46.6 25 67 5.6 39.4-13 76.4-46.8 93.2C486.6 641 415.8 588.4 426 516c3-20.6 7.8-33.4 26.6-70.4 13.4-25.8 18-37 21.4-52.2 10.4-45.2-2.8-79-37-94.8-10.2-4.6-15.2-5.6-33.4-6.2-18.6-.8-23.8-.2-39.4 4.4-21.4 6-44.6 17.2-49 23.6-4.8 6.8-4 18 1.6 24.2 7.2 7.8 14 8.8 26 3.4 32.6-14.4 33.8-14.8 53.2-15.4 15.4-.6 20.2-.2 25.8 2.8 23.8 12.4 21 47-8 98.6-19.8 35.4-28.2 63.6-28.4 95 0 24.6 2.6 37.2 13 59 6.6 13.6 11.4 20.2 24.4 33.2 25.2 25.4 54 37.4 89.2 37.4 21 0 36.2-3.6 56-13 24-11.6 46.2-33.6 57.6-57.6 10.2-21.6 13-34.2 13-58-.2-32.4-8.6-60.8-28.6-96.2-17.8-31.4-25.2-54.4-23.6-73 1-12.6 5.8-20.2 15.8-25.4 10.6-5.6 40.4-4 58.8 3.6 63.4 25.4 111.2 91 126.4 173.6 4.8 26 4.8 84.2 0 107.4-5 23.6-12.4 45.6-22.8 68l-8.8 19-32.4.2c-26.8.2-36.6 1-57.4 5.4-42.4 9-88.4 26-132.4 49l-21.4 11.2-21.6-11.2c-45.2-23.4-90.6-40.2-132.4-49-20.8-4.4-30.8-5.2-57.6-5.4l-32.4-.2-9-19c-28.4-59.8-34.6-126.4-18.2-195.6 4.4-18.6 4.6-21.2 2.2-27.4-3.4-7.8-8.4-11-17.8-11-13.8 0-19.6 9.2-26.4 42.4-5.4 27-7.6 55.6-6.4 83.6 2.2 50.6 9 77.2 34.6 135.2.6 1.2-5.8 5.4-14.4 9.6-25.2 12-47.6 30-69.2 56l-4.8 5.6-8.8-12.6c-52.2-73.8-81.2-153-88.4-241-2.8-33.4-2.4-35.4 14.8-87.8C110.8 280.6 199.2 152.6 305 84.8c15-9.6 47.2-26.8 50.4-26.8 1.2 0 11.6 3.2 23 6.8zM350 752c37.2 7.6 82.6 24.4 123 45.6l18 9.4 1 39c1 40.2 2.2 45.8 10 50 4.8 2.6 15.2 2.6 20 0 7.8-4.2 9-9.8 10-50l1-39 30.2-15c51.2-25.6 96-39.8 139.8-44.4 41-4.2 79.8 4 108.6 23.2 14 9.2 37 32 42.2 41.8 2.4 4.6 2.2 5.6-1.6 10.8-13.4 17-63.4 57.4-94.8 76.4-22.8 13.8-66.2 34.4-88.4 42.2-22.4 7.8-57.8 16.8-84 21.4-28.6 5-117.4 5-146 0-84.4-14.8-160.8-49-224-100.4-21.4-17.6-47-42-47-45.2 0-4 13.8-21.2 26-32.6 21.2-19.6 48.4-32.4 78-37 18.4-2.8 54-1 78 3.8zm-94.4-376.8c-17.2 9.2-10 36.8 9.4 36.8 19.8 0 26.6-28 9-37-7.2-3.8-11.4-3.6-18.4.2z"/></svg>