<svg viewBox="0 0 1024 1024" xmlns="http://www.w3.org/2000/svg"><path d="M279.526 107.597c34.56-7.808 71.527-7.22 104.884 5.3 29.286 10.47 54.45 29.132 80.384 45.746 13.875 8.525 29.004 16.794 45.67 17.28 40.91-7.808 71.834-37.965 108.75-54.99 27.416-13.515 58.29-19.967 88.83-18.277 52.89 2.176 104.346 25.984 140.494 64.614 34.227 36.045 54.732 84.788 56.192 134.477.742 35.712-3.56 71.552-13.03 106.01-12.494 47.155-36.327 89.984-58.113 133.273 19.405.052 39.09-.82 58.163 3.584 42.855 8.807 81.46 35.56 105.216 72.244 16.256 24.6 25.242 53.606 27.034 82.97v256.69c-1.33 15.232-7.296 30.106-17.613 41.472-13.03 14.797-32.614 23.245-52.275 23.015-294.042.077-588.11.025-882.176.05-16.026.385-32.23-4.453-44.928-14.386C11.468 995.02 1.843 976.485 0 957.26V702.72c1.203-39.936 17.23-79.206 44.57-108.365 25.472-27.597 60.492-46.182 97.664-51.558 15.948-2.51 32.102-1.562 48.18-1.767-16.206-32.614-34.1-64.537-46.85-98.74-12.722-33.484-20.786-68.76-23.346-104.498-1.306-19.277-1.87-38.758.947-57.933 4.53-32.59 17.152-64 36.326-90.727 28.98-40.807 73.192-70.528 122.036-81.536zm-65.536 77.85c-26.675 24.012-45.26 56.83-51.942 92.108-3.814 19.2-3.25 38.86-1.87 58.24 2.715 36.89 12.084 73.165 26.753 107.085 20.02 48.717 51.688 92.774 63.31 144.768 5.12 22.272 3.61 45.26 4.352 67.89 2.125 66.638 11.238 133.736 34.637 196.43 7.73 23.373 28.16 41.472 51.43 48.666 8.55 2.304 19.814 3.584 26.137-4.02 6.758-8.755 6.246-20.454 6.63-30.924.307-34.996 3.917-69.965 10.343-104.372 8.14-42.598 20.403-84.812 40.32-123.494 11.34-21.478 25.37-42.266 44.876-57.165 14.95-11.444 34.33-18.1 53.223-14.72 22.066 3.583 40.268 18.636 54.066 35.455 21.376 26.42 35.098 57.984 45.952 89.907 17.485 53.044 26.42 108.698 28.262 164.455.46 10.598-.537 21.453 2.253 31.82 1.587 5.89 5.248 11.853 11.367 13.748 9.318 2.61 19.148-.103 27.8-3.79 18.92-8.575 35.38-24.114 42.292-43.98 27.085-71.936 35.354-149.453 35.66-225.87-.152-18.456 2.203-36.965 7.656-54.63 14.182-46.412 41.907-86.937 60.185-131.61 13.184-30.95 22.042-63.845 25.37-97.355 2.457-25.42 3.277-51.508-3.354-76.39-11.982-47.95-46.67-89.473-91.598-109.978-36.25-16.64-79.206-20.84-117.017-6.964-23.68 8.68-44.416 23.296-65.767 36.404-17.868 11.264-37.248 20.352-57.728 25.753-32.435 8.602-66.2 10.957-99.635 11.008-11.75.615-22.118-10.83-20.224-22.477 1.076-10.828 11.828-18.432 22.376-17.664-25.19-16.768-51.277-34.304-81.74-39.372-47.95-7.808-98.638 8.448-134.376 41.036zM96.614 602.316c-28.467 18.84-48.896 49.56-54.68 83.25-2.51 13.287-1.844 26.83-1.947 40.27.05 75.34-.077 150.656.077 225.997-.256 11.75 7.475 23.04 18.483 27.16 6.784 2.792 14.285 1.92 21.453 2.05h864.026c7.168-.13 14.643.767 21.452-2.05 11.034-4.12 18.688-15.538 18.51-27.288 0-82.663.127-165.325-.078-248.013-.87-51.66-37.17-99.994-86.144-116.07-25.958-9.37-53.94-6.017-80.947-6.503-4.455 14.413-7.066 29.44-6.913 44.595-.256 81.33-9.088 163.815-37.734 240.435-12.877 36.84-46.003 65.588-83.866 74.317-18.918 4.327-40.525 1.485-55.398-11.75-15.694-13.517-21.812-34.893-22.145-54.963-.128-36.404-3.43-72.832-10.394-108.57-8.063-40.192-19.94-80.077-39.73-116.147-8.115-13.978-17.408-27.88-30.67-37.48-7.602-5.58-17.842-8.523-26.904-4.81-12.647 4.965-21.786 15.69-29.62 26.367-15 21.35-25.113 45.67-33.638 70.195-17.997 54.194-26.266 111.41-26.522 168.447-.153 12.8-2.227 25.728-7.654 37.4-6.042 13.416-17.357 24.5-31.31 29.44-19.07 7.016-40.344 3.38-58.495-4.632-28.595-12.877-52.94-36.71-63.513-66.56-28.8-76.34-37.888-158.592-38.196-239.72.23-15.82-2.227-31.59-7.014-46.616-13.722-.052-27.47-.027-41.19-.027-24.525.05-48.973 7.5-69.3 21.274zm148.07-387.687c14.465-5.12 30.03 10.47 24.807 24.935-3.634 14.182-23.858 19.02-33.458 7.936-10.394-9.88-5.222-29.362 8.653-32.87zm-29.798 84.07c11.725-2.97 24.295 6.836 24.32 18.894.922 37.862 11.623 74.828 27.904 108.8 4.71 8.422 3.2 19.942-4.608 25.984-8.908 7.705-24.217 5.043-29.772-5.376-19.866-40.14-32.794-84.224-33.383-129.23-.077-8.96 6.81-17.28 15.54-19.07z"/></svg>