<svg viewBox="0 0 1024 1024" xmlns="http://www.w3.org/2000/svg"><path d="M586.41 208.11c-51.336 0-91.34-23.96-117.008-42.05-38.196-27.035-84.856-39.357-131.414-34.647-2.116.273-4.266.103-6.314-.478-2.082-.58-3.994-1.57-5.666-2.9-1.673-1.332-3.038-3.005-4.062-4.882-1.024-1.877-1.64-3.925-1.844-6.076-.204-2.116 0-4.266.65-6.314.647-2.048 1.67-3.926 3.07-5.564 1.366-1.64 3.073-2.97 4.984-3.926 1.912-.956 3.994-1.536 6.11-1.673 54.136-5.29 108.408 9.012 152.884 40.313 22.46 15.837 56.83 37.717 100.317 36.18h.24c4.232-.033 8.328 1.64 11.366 4.61 3.003 2.97 4.71 7.03 4.744 11.297.034 4.232-1.638 8.294-4.608 11.332-2.97 3.038-7.032 4.745-11.265 4.78h-2.184zm80.487 786.4c-39.083 0-49.8-60.52-64.65-144.25-15.836-89.326-35.53-200.498-90.247-200.498-54.716 0-74.41 111.172-90.248 200.5-14.85 83.728-25.566 144.247-64.615 144.247-55.194 0-70.69-89.362-94.208-224.564-7.75-44.715-15.84-90.966-26.113-138.514-10.684-49.083-31.13-85.333-50.86-120.32-21.707-38.468-44.133-78.233-52.87-133.46-10.89-68.643 6.86-138.923 48.57-192.718 38.23-49.288 92.673-79.633 153.26-85.367 54.17-5.495 108.475 8.806 152.883 40.31 7.133 4.882 15.564 7.51 24.2 7.51s17.067-2.627 24.2-7.51c44.408-31.47 98.714-45.806 152.884-40.31 60.62 5.734 115.03 36.08 153.258 85.367 41.71 53.794 59.427 124.04 48.606 192.683-8.738 55.228-31.198 95.027-52.872 133.495-19.73 34.987-40.175 71.203-50.825 120.252-10.307 47.548-18.397 93.833-26.11 138.548-23.587 135.236-39.118 224.597-94.243 224.597zM357.17 130.49c-6.314 0-12.73.34-19.216.92-51.746 4.95-98.27 30.892-130.97 73.15-36.352 46.83-51.746 108.1-42.29 168.072 7.816 49.493 27.886 85.094 49.117 122.71 20.925 37.102 42.565 75.434 54.24 129.262 10.444 48.196 18.943 96.87 26.384 139.844 16.145 92.843 34.44 198.008 62.703 198.008 12.97-4.3 25.6-75.367 33.11-117.83C409.086 738.27 430.454 617.746 512 617.746c81.544 0 102.912 120.525 121.754 226.884 7.51 42.427 20.104 113.322 33.143 117.828 28.228-.103 46.558-105.268 62.67-198.042 7.474-42.974 15.94-91.648 26.418-139.844 11.64-53.794 33.246-92.126 54.204-129.23 21.23-37.648 41.3-73.215 49.117-122.743 9.455-59.973-5.974-121.242-42.292-168.073-32.7-42.257-79.257-68.198-131.003-73.182-46.524-4.676-93.218 7.612-131.38 34.645-12.56 8.636-27.41 13.244-42.632 13.244-15.224 0-30.072-4.608-42.632-13.244-32.803-23.142-72.022-35.532-112.197-35.498zm578.118 90.93c-3.926-.033-7.75-1.5-10.684-4.13-2.936-2.662-4.78-6.314-5.19-10.24-.408-3.924.65-7.85 2.97-11.058 2.322-3.175 5.77-5.393 9.627-6.247l40.654-8.67c4.164-.887 8.5-.068 12.048 2.22 3.55 2.32 6.076 5.938 6.964 10.102.887 4.13.068 8.464-2.22 12.048-2.32 3.55-5.938 6.042-10.102 6.93l-40.653 8.67c-1.126.238-2.252.375-3.413.375zM905.83 158.14c-3.345 0-6.587-1.024-9.284-2.97-2.73-1.945-4.78-4.676-5.837-7.816-1.093-3.14-1.16-6.554-.24-9.763.956-3.173 2.868-6.006 5.496-8.054l32.768-25.634c3.345-2.458 7.543-3.516 11.673-2.97 4.13.58 7.85 2.73 10.41 6.008 2.56 3.31 3.756 7.44 3.312 11.57-.445 4.165-2.493 7.954-5.7 10.616l-32.77 25.635c-2.798 2.185-6.28 3.38-9.83 3.38zm-54.306-43.93c-2.73 0-5.393-.682-7.782-1.98-2.39-1.297-4.37-3.208-5.837-5.53-1.433-2.286-2.253-4.914-2.39-7.645-.136-2.73.445-5.427 1.64-7.85l18.226-37.41c.923-1.878 2.22-3.585 3.79-4.984 1.57-1.4 3.413-2.457 5.393-3.14 1.98-.682 4.096-.955 6.212-.82 2.083.104 4.13.65 6.042 1.57 7.92 3.892 11.23 13.45 7.305 21.403l-18.228 37.41c-1.297 2.697-3.345 4.95-5.905 6.554-2.527 1.57-5.462 2.423-8.466 2.423zM88.712 221.423c-1.126 0-2.252-.137-3.38-.375l-40.65-8.636c-4.098-.922-7.647-3.448-9.934-6.998-2.253-3.515-3.038-7.816-2.15-11.912.887-4.13 3.344-7.714 6.826-10.035 3.516-2.32 7.782-3.14 11.913-2.356l40.686 8.637c3.892.853 7.305 3.072 9.626 6.247 2.32 3.208 3.378 7.168 2.97 11.093-.41 3.925-2.288 7.578-5.224 10.206-2.935 2.662-6.724 4.13-10.683 4.13zm29.458-63.283c-3.55 0-7.032-1.195-9.865-3.38l-32.768-25.634c-1.638-1.297-3.038-2.9-4.062-4.744-1.024-1.81-1.706-3.823-1.945-5.905-.273-2.082-.103-4.2.443-6.247.58-2.014 1.536-3.89 2.8-5.563 1.296-1.64 2.9-3.038 4.744-4.062 1.81-1.058 3.823-1.707 5.905-1.98 2.082-.24 4.198-.102 6.246.478 2.014.546 3.926 1.502 5.564 2.8L128 129.535c2.628 2.048 4.574 4.847 5.53 8.055.955 3.21.887 6.623-.17 9.764-1.093 3.174-3.14 5.905-5.872 7.85-2.73 1.912-5.973 2.97-9.318 2.936zm54.306-43.93c-3.004 0-5.94-.853-8.465-2.423-2.56-1.605-4.573-3.857-5.904-6.554l-18.262-37.41c-.92-1.91-1.468-3.96-1.604-6.042-.102-2.115.17-4.197.853-6.21.683-1.98 1.775-3.79 3.14-5.394 1.4-1.57 3.107-2.833 4.984-3.755 1.877-.92 3.925-1.466 6.042-1.603 2.08-.102 4.197.17 6.177.853 1.98.683 3.823 1.74 5.393 3.14 1.57 1.4 2.867 3.107 3.79 4.984l18.226 37.41c1.195 2.424 1.74 5.12 1.604 7.85-.136 2.697-.99 5.326-2.423 7.613-1.434 2.32-3.414 4.198-5.803 5.53-2.355 1.33-5.018 2.013-7.748 2.013z"/></svg>