<svg viewBox="0 0 1024 1024" xmlns="http://www.w3.org/2000/svg"><path d="M427.776 712.448q-9.43 20.437-21.547 65.664-9.815 36.693-16.855 55.34-10.752 38.356-46.763 37.204-24.96-.768-48.128-22.357l-.682-.64-.64-.728q-107.69-119.978-141.27-316.245-37.845-221.184 70.998-336.555 54.145-59.946 163.84-9.173 76.843 35.583 125.27 35.583 48.512 0 125.74-35.413 110.207-50.517 164.01 9.174 108.714 115.84 69.46 336.896-34.687 195.413-143.06 315.776-22.187 23.936-49.963 24.02-36.224.087-46.72-37.588-7.04-18.773-16.768-55.68-11.82-44.97-21.12-65.28l-.173-.384-.17-.34q-24.363-58.668-81.878-58.028-57.73.683-83.5 58.496zm83.072-101.42q86.187-.98 121.643 83.97 10.84 23.68 23.51 71.893 9.345 35.714 15.7 52.31l.43 1.068.255 1.11q1.877 6.954 5.675 6.954 9.215-.042 18.388-9.94 100.224-111.275 132.736-294.657 35.5-200.02-59.136-300.842-32.81-36.437-114.517 1.025Q569.858 263.21 512 263.21q-57.856 0-143.232-39.51-81.237-37.673-114.347-.852l-.17.213-.17.173q-94.42 99.883-60.116 300.245 31.402 183.51 130.26 294.23 11.052 10.026 19.756 10.325 2.687.085 4.48-6.7l.297-1.108.384-1.024q6.36-16.596 15.874-52.14 13.014-48.51 23.85-72.19.044-.085.086-.13 36.906-82.73 121.898-83.71zm224.043-374.1q54.444 27.22 54.444 104.405 0 8.832-6.23 15.104-6.27 6.23-15.103 6.23-8.83 0-15.103-6.23-6.23-6.272-6.23-15.104 0-50.816-30.89-66.26-7.893-3.926-10.667-12.332-2.817-8.36 1.15-16.296 3.927-7.894 12.332-10.667 8.363-2.816 16.3 1.152z"/></svg>