<svg viewBox="0 0 1024 1024" xmlns="http://www.w3.org/2000/svg"><path d="M128 869.803V443.776h107.22l.172 330.837c132.65.555 265.3.598 397.91.64 46.42 0 92.8 0 139.178.043l.555-331.563h114.26v426.07zm107.093-568.406L503.595 166.4 772.31 301.397v132.78L503.594 302.378 235.093 434.175zM483.5 492.032c46.12-6.187 94.505 9.643 127.87 41.685 34.945 32.81 52.822 82.262 46.635 129.494-5.29 45.782-32.896 88.32-72.704 112.3-41.983 26.197-97.023 30.335-142.633 10.922-39.382-16.128-71.04-49.11-85.675-88.576-17.067-45.14-11.05-98.176 16.34-138.155 24.535-36.863 65.75-62.42 110.167-67.668zm-1.836-15.275c25.387-3.328 51.285-.682 75.392 7.168 24.15 7.894 46.635 21.035 65.024 38.7 19.285 18.09 33.877 40.746 42.752 65.364 8.79 24.447 11.99 50.986 8.62 76.97h.04c-2.9 25.173-11.945 49.493-25.77 70.784-13.823 21.333-32.383 39.68-54.314 52.907-23.125 14.38-49.75 22.7-76.843 24.79-27.136 2.048-54.87-2.176-80.042-12.885-21.547-8.875-41.046-22.315-57.174-38.955-16.13-16.683-28.93-36.65-36.993-58.496-9.386-24.96-12.416-51.968-9.344-78.165 3.115-26.284 12.33-51.84 27.392-73.857h.043c13.568-20.31 31.66-37.462 52.437-50.22 20.78-12.756 44.33-21.204 68.78-24.106zm1.835 15.318c-44.417 5.248-85.633 30.805-110.167 67.67-27.392 39.978-33.408 93.012-16.34 138.154 14.634 39.465 46.292 72.447 85.674 88.575 45.61 19.413 100.65 15.274 142.634-10.923 39.81-23.98 67.415-66.517 72.705-112.3 6.187-47.23-11.69-96.724-46.634-129.492-33.365-32.043-81.75-47.872-127.87-41.685z"/></svg>