<svg viewBox="0 0 1024 1024" xmlns="http://www.w3.org/2000/svg"><path d="M969.515 362.667q0 127.658-90.24 217.94-90.283 90.24-217.942 90.24-8.576 0-23.978-.895-11.563-.683-19.798-8.79-8.277-8.063-9.173-19.583-16.512-209.452-225.963-225.964-11.52-.896-19.583-9.173-8.106-8.235-8.79-19.798-.895-15.402-.895-23.978 0-127.66 90.24-217.942 90.283-90.24 217.94-90.24 127.66 0 217.943 90.24 90.24 90.283 90.24 217.942zm-61.696 0q0-102.102-72.193-174.294-72.192-72.192-174.294-72.192-102.1 0-174.293 72.193-70.315 70.315-72.15 169.046 95.19 15.615 165.633 86.057 70.442 70.443 86.058 165.632 98.732-1.835 169.047-72.15 72.192-72.192 72.192-174.293zM670.847 661.333q0 127.66-90.24 217.942-90.283 90.24-217.94 90.24-127.66 0-217.943-90.24-90.24-90.283-90.24-217.942 0-127.658 90.24-217.94 90.283-90.24 217.942-90.24 8.576 0 23.978.895 113.408 8.917 193.878 89.43 80.512 80.47 89.386 193.237.938 16.042.938 24.618zm-61.696 0q0-6.784-.768-19.754-16.512-209.452-225.323-225.92-13.61-.812-20.393-.812-102.102 0-174.294 72.192-72.192 72.192-72.192 174.293 0 102.102 72.193 174.294 72.192 72.192 174.294 72.192 102.1 0 174.293-72.193 72.192-72.192 72.192-174.294zM238.507 54.485q49.066 0 67.84 45.483 18.645 45.227-15.744 80.128L180.096 290.603q-34.73 34.773-80.213 15.872-45.398-18.902-45.398-67.968V128q0-30.38 21.547-51.968Q97.622 54.485 128 54.485zm0 61.696H128q-11.82 0-11.82 11.82v110.507q0 7.893 7.383 10.965 7.338 3.072 12.928-2.475L246.998 136.49q5.376-5.503 2.304-13.013-3.028-7.296-10.793-7.296zm546.986 853.377q-49.066 0-67.84-45.525-18.645-45.227 15.744-80.128l110.507-110.507q34.73-34.773 80.213-15.83 45.398 18.86 45.398 67.926V896q0 73.557-73.515 73.557zm0-61.738H896q11.82 0 11.82-11.82V785.493q0-7.893-7.383-10.965-7.338-3.03-12.885 2.517L777.045 887.552q-5.418 5.46-2.304 12.97 2.988 7.297 10.753 7.297z"/></svg>