<svg viewBox="0 0 1024 1024" xmlns="http://www.w3.org/2000/svg"><path d="M128 213.333h170.667v-42.666q0-53.035 37.504-90.496 37.462-37.503 90.497-37.503h170.666q53.035 0 90.496 37.504 37.503 37.462 37.503 90.497v42.666H896q17.664 0 30.165 12.502 12.502 12.5 12.502 30.165 0 17.664-12.502 30.165-12.5 12.502-30.165 12.502h-42.667v554.666q0 53.035-37.504 90.496-37.462 37.503-90.497 37.503H298.667q-53.035 0-90.496-37.504-37.503-37.462-37.503-90.497V298.667H128q-17.664 0-30.165-12.502-12.502-12.5-12.502-30.165 0-17.664 12.502-30.165 12.5-12.502 30.165-12.502zm213.333 85.334H256v554.666q0 17.664 12.5 30.166 12.503 12.5 30.167 12.5h426.666q17.664 0 30.166-12.5 12.5-12.503 12.5-30.167V298.667H341.333zm128 170.666v256q0 17.664-12.5 30.166Q444.33 768 426.666 768T396.5 755.5Q384 742.996 384 725.332v-256q0-17.664 12.5-30.165 12.503-12.5 30.167-12.5t30.165 12.5q12.5 12.5 12.5 30.165zm170.667 0v256q0 17.664-12.5 30.166-12.503 12.5-30.167 12.5t-30.165-12.5q-12.5-12.503-12.5-30.167v-256q0-17.664 12.5-30.165 12.5-12.5 30.165-12.5 17.664 0 30.166 12.5 12.5 12.5 12.5 30.165zm-256-256h256v-42.666q0-17.664-12.5-30.166-12.503-12.5-30.167-12.5H426.667q-17.664 0-30.166 12.5-12.5 12.503-12.5 30.167v42.666z"/></svg>