<svg viewBox="0 0 1024 1024" xmlns="http://www.w3.org/2000/svg"><path d="M128 268.075c-17.664 0-32 14.293-32 32 0 17.664 14.336 32 32 32v-64zm768 64c17.664 0 32-14.336 32-32 0-17.707-14.336-32-32-32v64zm-682.667-32v-32h-32v32h32zm597.334 0h32v-32h-32v32zm-682.667 32h768v-64H128v64zM586.965 857.13l-6.74 1.153 10.666 63.104 6.742-1.152-10.667-63.104zm-143.19 1.153l-6.74-1.152-10.667 63.105 6.74 1.152 10.668-63.104zm334.892-558.208V519.51h64V300.074h-64zM245.333 519.51V300.074h-64V519.51h64zm533.334 0c0 64.213-9.046 128.085-26.838 189.695l61.482 17.75c19.456-67.414 29.355-137.26 29.355-207.446h-64zM580.224 858.282c-45.184 7.637-91.264 7.637-136.448 0l-10.667 63.104c52.223 8.832 105.557 8.832 157.78 0l-10.666-63.104zm-143.19-1.152c-78.42-13.226-142.55-70.655-164.863-147.925l-61.482 17.75c29.056 100.693 112.81 175.914 215.68 193.28l10.667-63.104zM272.172 709.206c-17.79-61.61-26.837-125.482-26.837-189.696h-64c0 70.186 9.856 140.03 29.355 207.445l61.483-17.75zm325.462 211.03c102.87-17.366 186.624-92.587 215.68-193.28l-61.483-17.75c-22.315 77.27-86.443 134.7-164.865 147.926l10.667 63.105zM352 300.075c0-17.878 3.925-35.712 11.648-52.438l-58.07-26.837C294.017 245.803 288 272.725 288 300.075h64zm11.648-52.438c7.765-16.768 19.243-32.213 33.963-45.397l-42.75-47.66c-20.908 18.732-37.72 41.217-49.28 66.22l58.068 26.837zm33.963-45.397c14.72-13.227 32.385-23.85 52.054-31.147l-22.272-59.99c-26.923 9.985-51.584 24.705-72.533 43.478l42.75 47.66zm52.054-31.147C469.334 163.797 490.54 160 512 160V96c-28.97 0-57.685 5.12-84.608 15.104l22.272 59.99zM512 160c21.46 0 42.667 3.797 62.336 11.093l22.272-59.99C569.685 101.12 540.97 96 512 96v64zm62.336 11.093c19.67 7.296 37.333 17.92 52.053 31.147l42.71-47.66c-20.908-18.772-45.57-33.492-72.492-43.476l-22.272 59.99zm52.053 31.147c14.72 13.184 26.197 28.63 33.962 45.397l58.07-26.837c-11.563-25.003-28.374-47.488-49.323-66.22l-42.71 47.66zm33.962 45.397c7.723 16.726 11.648 34.56 11.648 52.438h64c0-27.35-6.016-54.272-17.58-79.275l-58.068 26.837zm-447.02 84.438h597.335v-64H213.333v64zM458.668 512v170.667q0 13.27-9.387 22.613-9.344 9.387-22.613 9.387-13.27 0-22.614-9.387-9.386-9.344-9.386-22.613V512q0-13.27 9.386-22.613Q413.397 480 426.667 480q13.27 0 22.613 9.387 9.387 9.344 9.387 22.613zm170.666 0v170.667q0 13.27-9.386 22.613-9.344 9.387-22.614 9.387-13.27 0-22.613-9.387-9.387-9.344-9.387-22.613V512q0-13.27 9.387-22.613Q584.064 480 597.333 480q13.27 0 22.614 9.387 9.386 9.344 9.386 22.613z"/></svg>