<svg viewBox="0 0 1024 1024" xmlns="http://www.w3.org/2000/svg"><path d="M554.71 629.333h-42.667c-17.494 0-32-14.506-32-32 0-17.493 14.506-32 32-32h42.666c29.44 0 53.332-23.893 53.332-53.333V117.333h-352c-50.347 0-96.427 27.307-121.174 71.254-8.534 15.36-28.16 20.906-43.52 12.373-15.36-8.533-20.907-28.16-12.374-43.52 35.84-64 103.68-104.107 177.067-104.107h384c17.494 0 32 14.507 32 32V512c0 64.853-52.48 117.333-117.333 117.333zm256 256h-42.667c-17.494 0-32-14.506-32-32 0-29.44-23.894-53.333-53.334-53.333-29.44 0-53.335 23.893-53.335 53.333 0 17.494-14.507 32-32 32H426.71c-17.494 0-32-14.506-32-32 0-29.44-23.894-53.333-53.334-53.333-29.44 0-53.333 23.893-53.333 53.333 0 17.494-14.507 32-32 32h-42.667c-88.32 0-160-71.68-160-160 0-17.493 14.507-32 32-32 17.493 0 32 14.507 32 32 0 52.907 43.093 96 96 96h14.933C242.39 772.267 287.614 736 341.374 736s98.987 36.267 113.067 85.333H570.07C584.15 772.267 629.375 736 683.135 736s98.987 36.267 113.067 85.333h14.506c52.906 0 96-43.093 96-96v-96h-96c-40.96 0-74.667-33.706-74.667-74.666v-128c0-40.96 33.28-74.667 74.667-74.667l-45.654-79.787c-9.387-16.64-27.307-26.88-46.507-26.88H672.04V512c0 64.853-52.48 117.333-117.335 117.333h-42.667c-17.494 0-32-14.506-32-32 0-17.493 14.506-32 32-32h42.666c29.44 0 53.333-23.893 53.333-53.333V213.333c0-17.493 14.506-32 32-32h78.506c42.24 0 81.066 22.614 101.973 59.307l72.96 127.573c5.546 9.814 5.546 22.187 0 32C887.936 410.027 877.27 416 865.75 416h-55.04c-5.974 0-10.667 4.693-10.667 10.667v128c0 5.973 4.693 10.666 10.666 10.666h128c17.492 0 32 14.507 32 32v128c0 88.32-71.68 160-160 160zm-469.334 85.334c-64.853 0-117.333-52.48-117.333-117.334 0-64.853 52.48-117.333 117.333-117.333 64.853 0 117.333 52.48 117.333 117.333 0 64.854-52.48 117.334-117.335 117.334zm0-170.667c-29.44 0-53.333 23.893-53.333 53.333 0 29.44 23.893 53.334 53.333 53.334 29.44 0 53.333-23.894 53.333-53.334 0-29.44-23.895-53.333-53.335-53.333zM682.71 970.667c-64.854 0-117.334-52.48-117.334-117.334C565.376 788.48 617.856 736 682.71 736c64.853 0 117.333 52.48 117.333 117.333 0 64.854-52.48 117.334-117.334 117.334zm0-170.667c-29.44 0-53.334 23.893-53.334 53.333 0 29.44 23.893 53.334 53.333 53.334 29.44 0 53.332-23.894 53.332-53.334 0-29.44-23.894-53.333-53.334-53.333zm256-170.667h-128c-40.96 0-74.667-33.706-74.667-74.666v-128c0-40.96 33.706-74.667 74.666-74.667h55.04c11.52 0 22.185 5.973 27.732 16.213l72.96 128c2.56 4.694 4.266 10.24 4.266 15.787v85.333c0 17.494-14.507 32-32 32zM810.71 416c-5.974 0-10.667 4.693-10.667 10.667v128c0 5.973 4.693 10.666 10.666 10.666h96v-44.8L846.974 416H810.71zm-469.334-42.667h-256c-17.493 0-32-14.506-32-32 0-17.493 14.507-32 32-32h256c17.493 0 32 14.507 32 32 0 17.494-14.507 32-32 32zm-85.333 128H85.376c-17.493 0-32-14.506-32-32 0-17.493 14.507-32 32-32h170.667c17.493 0 32 14.507 32 32 0 17.494-14.507 32-32 32zm-85.334 128H85.374c-17.493 0-32-14.506-32-32 0-17.493 14.507-32 32-32h85.333c17.493 0 32 14.507 32 32 0 17.494-14.507 32-32 32z"/></svg>