<svg viewBox="0 0 1023.9829 1024" xmlns="http://www.w3.org/2000/svg"><path d="M597.514 142.58c36.62-13.763 77.455-19.784 115.874-10.28 34.12 8.068 66.07 23.1 97.238 38.91 11.06-4.178 22.2-8.315 33.34-12.41 24.167-8.685 47.432-19.825 71.352-29 24.534-9.093 54.64 8.028 58.613 33.996 2.748 14.294-2.904 27.647-8.393 40.55-1.024 2.333-2.007 4.67-2.908 7.004 16.014 7.617 26.09 24.534 26.95 42.064v1.597c-.697 13.316-5.98 25.726-11.183 37.768-14.212 32.03-37.15 60.333-66.476 79.625-1.966 96.91-26.173 193.616-72.293 279.016-33.014 61.725-77.25 117.51-130.334 163.18-55.09 47.35-119.928 83.64-189.682 104.12-51.16 15.236-104.815 21.67-158.103 19.823-64.306-.78-128.735-6.227-191.772-19.17-44.113-9.993-88.512-22.486-127.218-46.61-9.75-6.472-20.276-12.78-26.83-22.815-5.242-7.33-8.07-16.096-9.133-24.944v-5.486c.696-19.292 13.68-37.07 31.456-44.236 9.42-4.135 19.864-3.97 29.94-4.463 33.995-.9 67.95-5.735 100.72-14.91-15.24-7.74-30.147-16.3-43.255-27.32-33.71-27.32-56.647-66.067-70.123-106.903-6.84-23.427 8.724-48.66 31.293-56.07-26.005-31.055-47.675-66.2-60.33-104.865-7.496-16.425-5.9-36.74 5.16-51.2 8.232-11.346 22.282-16.753 35.84-18.063-14.54-32.89-23.47-68.65-21.914-104.776 1.07-42.597 15.937-83.638 36.95-120.298 10.32-16.423 35.387-19.864 49.805-6.88 14.213 13.188 27.606 27.28 41.492 40.836 35.183 33.013 74.012 62.67 117.306 84.253 49.234 25.6 102.97 40.88 156.794 53.29 4.26-34.202 15.277-67.666 33.3-97.115 26.745-44.276 68.074-79.91 116.527-98.22zM560.2 233.55c-33.71 32.113-54.188 77.577-56.113 124.066-.41 8.765-.287 18.104-5.038 25.845-6.8 12.33-21.836 19.378-35.72 16.51-18.47-3.77-36.865-8.07-55.297-12.123-16.957-4.587-33.873-9.42-50.75-14.254-15.195-5.16-30.226-10.69-45.3-16.055-51.854-20.398-100.718-48.783-143.194-84.91-18.554-14.128-34.65-31.046-51.854-46.734-10.075 26.05-16.015 54.068-13.27 82.043 2.908 40.304 22.282 77.7 47.553 108.5 6.35 7.99 12.903 16.877 12.657 27.567.697 18.388-15.85 35.224-34.282 34.364-14.13-1.065-27.156-7.373-39.895-13.066 21.057 44.85 54.726 83.27 95.15 111.737 8.81 6.143 16.51 15.114 17.45 26.255 2.87 18.35-12.164 36.904-30.76 37.723-17.162.41-33.995-4.096-50.22-9.34 10.08 19.826 23.23 38.463 40.76 52.39 19.003 15.81 42.187 25.68 66.024 31.537 7.414 1.72 14.992 2.95 22.2 5.407 10.28 3.358 18.39 12.123 21.3 22.486 3.685 12.082-.41 26.05-9.872 34.405-5.733 4.998-12.86 7.988-19.66 11.388-50.3 24.616-106.167 35.88-161.87 38.95 16.383 8.604 33.42 15.608 50.953 21.424 64.716 20.03 132.544 27.403 199.964 30.556 2.455.082 4.872.164 7.33.205 32.07.86 64.265 1.763 96.173-2.62 49.56-6.144 97.934-21.053 142.498-43.58 76.636-38.625 141.35-99.12 188.29-170.678 57.22-86.836 87.49-190.545 88.76-294.295.04-.532.04-1.106.04-1.638.124-9.053.288-18.638 5.408-26.46 4.463-7.784 12.613-12.043 19.822-16.876 20.603-12.574 35.553-32.563 45.998-54.026-18.39 2.785-37.028-11.222-38.707-29.86-1.64-12.737 5.326-23.223 12.166-33.463 2.335-3.523 4.67-7.004 6.636-10.568-29.122 11.96-58.366 23.674-88.43 32.972-10.69 3.07-21.83-.288-31.17-5.613-20.52-11.06-41.573-21.05-63.57-28.75-14.334-4.138-28.63-9.34-43.702-9.75-43.827-.37-87.08 17.9-118.454 48.332z"/></svg>