<svg viewBox="0 0 1024 1024" xmlns="http://www.w3.org/2000/svg"><path d="M719.787 210.773H378.453c-135.253 0-245.333 110.08-245.333 245.334 0 135.253 110.08 245.333 245.333 245.333h469.334c17.493 0 32-14.507 32-32 0-17.493-14.507-32-32-32H378.453c-99.84 0-181.333-81.493-181.333-181.333s81.493-181.334 181.333-181.334h341.334c17.493 0 32-14.506 32-32 0-17.493-14.08-32-32-32zm29.866 320c-8.106 0-16.213 2.987-22.613 9.387-12.373 12.373-12.373 32.853 0 45.227L813.653 672l-86.613 86.613c-12.373 12.374-12.373 32.854 0 45.227 12.373 12.373 32.853 12.373 45.227 0l109.226-109.227c12.374-12.373 12.374-32.853 0-45.226L772.267 540.16c-6.4-6.4-14.507-9.387-22.614-9.387z"/></svg>