<svg viewBox="0 0 1024 1024" xmlns="http://www.w3.org/2000/svg"><path d="M768 337.493h-5.547c-80.64-2.56-140.8-64.853-140.8-141.653 0-78.507 64-142.08 142.08-142.08 78.08 0 142.08 64 142.08 142.08-.426 77.227-60.586 139.52-137.386 142.08 0-.427 0-.427-.427-.427zm-4.267-220.16c-43.093 0-78.08 34.987-78.08 78.08 0 42.24 32.854 76.374 75.094 78.08.426-.426 3.84-.426 7.68 0 41.386-2.133 73.386-36.266 73.813-78.08 0-43.093-34.987-78.08-78.507-78.08zm4.694 534.614c-16.64 0-33.28-1.28-49.92-4.267-17.494-2.987-29.014-19.627-26.027-37.12 2.987-17.493 19.627-29.013 37.12-26.027 52.48 8.96 107.947-.853 145.067-25.6 20.053-13.226 30.72-29.866 30.72-46.506s-11.094-32.854-30.72-46.08c-37.12-24.747-93.44-34.56-146.347-25.174-17.493 3.414-34.133-8.533-37.12-26.026-2.987-17.494 8.533-34.134 26.027-37.12 69.546-12.374 141.653.853 192.853 34.986 37.547 25.174 59.307 61.014 59.307 99.414 0 37.973-21.334 74.24-59.307 99.84-38.827 25.6-89.173 39.68-141.653 39.68zM254.72 337.493h-.853c-76.8-2.56-136.96-64.853-137.387-141.653 0-78.507 64-142.507 142.08-142.507 78.08 0 142.08 64 142.08 142.08 0 77.227-60.16 139.52-136.96 142.08l-8.96-32 2.987 32h-2.987zm4.267-64c2.56 0 4.693 0 7.253.427 37.973-1.707 71.253-35.84 71.253-78.08 0-43.093-34.986-78.08-78.08-78.08-43.093 0-78.08 34.987-78.08 78.08 0 41.813 32.427 75.52 73.814 78.08.426-.427 2.133-.427 3.84-.427zm-4.694 378.454c-52.48 0-102.826-14.08-141.653-39.68-37.547-25.174-59.307-61.44-59.307-99.84 0-37.974 21.76-74.24 59.307-99.414 51.2-34.133 123.307-47.36 192.853-34.986 17.494 2.986 29.014 19.626 26.027 37.12-2.987 17.493-19.627 29.44-37.12 26.026-52.907-9.386-108.8.427-146.347 25.174-20.053 13.226-30.72 29.44-30.72 46.08 0 16.64 11.094 33.28 30.72 46.506 37.12 24.747 92.587 34.56 145.067 25.6 17.493-2.986 34.133 8.96 37.12 26.027 2.987 17.493-8.533 34.133-26.027 37.12-16.64 2.987-33.28 4.267-49.92 4.267zM512 656.213h-5.547c-80.64-2.56-140.8-64.853-140.8-141.653 0-78.507 64-142.08 142.08-142.08 78.08 0 142.08 64 142.08 142.08-.426 77.227-60.586 139.52-137.386 142.08 0-.427 0-.427-.427-.427zm-4.267-220.16c-43.093 0-78.08 34.987-78.08 78.08 0 42.24 32.854 76.374 75.094 78.08.426-.426 3.84-.426 7.68 0 41.386-2.133 73.386-36.266 73.813-78.08 0-42.666-34.987-78.08-78.507-78.08zM512 971.093c-51.2 0-102.4-13.226-142.08-40.106-37.547-25.174-59.307-61.014-59.307-99.414 0-37.973 21.334-74.666 59.307-99.84 79.787-52.906 204.8-52.906 284.16 0 37.547 25.174 59.307 61.014 59.307 99.414 0 37.973-21.334 74.666-59.307 99.84C614.4 957.44 563.2 971.093 512 971.093zm-106.667-185.6c-20.053 13.227-30.72 29.867-30.72 46.507 0 16.64 11.094 32.853 30.72 46.08 57.6 38.827 155.307 38.827 212.907 0 20.053-13.227 30.72-29.867 30.72-46.507 0-16.64-11.093-32.853-30.72-46.08-57.173-38.826-154.88-38.4-212.907 0z"/></svg>