<svg viewBox="0 0 1024 1024" xmlns="http://www.w3.org/2000/svg"><path d="M714.667 298.667q0 83.968-59.35 143.317-59.392 59.35-143.317 59.35-83.968 0-143.317-59.35-59.35-59.35-59.35-143.317 0-83.968 59.35-143.318Q428.033 96 512 96q83.925 0 143.317 59.35 59.35 59.35 59.35 143.317zM181.333 896q0-136.96 96.854-233.813Q375.04 565.333 512 565.333q136.96 0 233.813 96.854Q842.667 759.04 842.667 896q0 13.27-9.387 22.613Q823.936 928 810.667 928q-13.27 0-22.614-9.387-9.386-9.344-9.386-22.613 0-110.464-78.123-188.544-78.08-78.123-188.544-78.123-110.464 0-188.544 78.123-78.123 78.08-78.123 188.544 0 13.27-9.386 22.613Q226.603 928 213.333 928q-13.27 0-22.613-9.387-9.387-9.344-9.387-22.613zm469.334-597.333q0-57.43-40.62-98.048Q569.43 160 512 160q-138.667 0-138.667 138.667 0 138.666 138.667 138.666 57.43 0 98.048-40.618 40.62-40.62 40.62-98.048z"/></svg>