<svg viewBox="0 0 1024 1024" xmlns="http://www.w3.org/2000/svg"><path d="M694.613 525.028c132.722 0 244.907 72.93 244.907 159.573 0 72.535-75.093 98.533-145.067 107.92-2.105-108.77-97.28-202.24-232.106-241.493 38.4-16.214 84.08-25.998 132.266-25.998zm-1.25-61.44c-19.23 0-38.003-3.414-55.07-9.842 32.427-44.772 51.655-99.783 51.655-159.118 0-56.32-17.066-108.772-46.535-152.292 16.214-5.12 33.28-8.135 51.2-8.135 90.91 0 164.694 73.844 164.694 164.695 0 90.91-73.785 164.694-164.694 164.694zm-274.83 131.356c169.015 0 311.807 91.99 311.807 200.875 0 140.8-234.667 140.8-311.808 140.8-133.917 0-311.865-14.51-311.865-139.95 0-109.34 142.79-201.727 311.865-201.727zm-1.367-92.615c-55.353-.23-107.235-21.904-146.147-61.158-38.97-39.196-60.248-91.193-60.077-146.432 0-114.402 93.127-207.53 207.53-207.53 114.46 0 207.588 93.128 207.588 207.588s-93.126 207.53-207.586 207.53z"/></svg>