<svg viewBox="0 0 983.04 1024" xmlns="http://www.w3.org/2000/svg"><path d="M542.72 307.2q0 80.61-56.975 137.585-57.017 56.975-137.585 56.975-80.61 0-137.585-56.975Q153.6 387.81 153.6 307.2q0-80.61 56.975-137.585Q267.55 112.64 348.16 112.64q80.568 0 137.585 56.975Q542.72 226.59 542.72 307.2zm81.92 573.44v-81.92q0-55.132-38.994-94.126Q546.652 665.6 491.52 665.6H204.8q-55.132 0-94.126 38.994Q71.68 743.588 71.68 798.72v81.92q0 12.74-9.01 21.71-8.97 9.01-21.71 9.01t-21.71-9.01q-9.01-8.97-9.01-21.71v-81.92q0-80.61 56.975-137.585Q124.19 604.16 204.8 604.16h286.72q80.61 0 137.585 56.975Q686.08 718.11 686.08 798.72v81.92q0 12.74-9.01 21.71-8.97 9.01-21.71 9.01t-21.71-9.01q-9.01-8.97-9.01-21.71zM481.28 307.2q0-55.132-38.994-94.126-38.994-38.994-94.126-38.994-133.12 0-133.12 133.12t133.12 133.12q133.12 0 133.12-133.12zm236.75 142.13l60.21 60.17 142.13-142.09q8.97-9.01 21.71-9.01t21.71 9.01q9.01 8.97 9.01 21.71t-9.01 21.71L799.95 574.67q-8.97 9.01-21.71 9.01t-21.71-9.01l-81.92-81.92q-9.01-8.97-9.01-21.71t9.01-21.71q8.97-9.01 21.71-9.01t21.71 9.01z"/></svg>