<svg viewBox="0 0 1024 1024" xmlns="http://www.w3.org/2000/svg"><path d="M512 544c-135.253 0-245.333-110.08-245.333-245.333 0-135.254 110.08-245.334 245.333-245.334s245.333 110.08 245.333 245.334C757.333 433.92 647.253 544 512 544zm0-426.667c-99.84 0-181.333 81.494-181.333 181.334S412.16 480 512 480s181.333-81.493 181.333-181.333S611.84 117.333 512 117.333zM145.493 970.667c-17.493 0-32-14.507-32-32C113.493 756.48 292.267 608 512 608c43.093 0 85.333 5.547 126.293 17.067 17.067 4.693 26.88 22.186 22.187 39.253-4.693 17.067-22.187 26.88-39.253 22.187C586.24 676.693 549.547 672 512 672c-184.32 0-334.507 119.467-334.507 266.667 0 17.493-14.506 32-32 32zm622.507 0c-50.347 0-98.133-18.774-135.253-52.48-14.934-12.8-28.16-28.587-38.4-46.08-18.774-30.72-29.014-66.987-29.014-104.107 0-53.333 20.48-103.253 57.174-141.227 38.4-39.68 90.026-61.44 145.493-61.44 58.027 0 113.067 24.747 150.613 67.414 33.28 37.12 52.054 84.906 52.054 135.253 0 16.213-2.134 32.427-6.4 47.787-4.267 19.2-12.374 39.253-23.467 56.746-35.413 60.587-101.973 98.134-172.8 98.134zm0-341.334c-37.973 0-72.96 14.934-99.413 41.814-25.174 26.026-39.254 60.16-39.254 96.853 0 25.173 6.827 49.92 20.054 71.253 6.826 11.947 15.786 22.614 26.026 31.574 25.6 23.466 58.454 36.266 92.587 36.266 48.213 0 93.867-25.6 118.613-66.986 7.254-11.947 12.8-25.6 15.787-38.827 2.987-11.093 4.267-21.76 4.267-32.853 0-34.134-12.8-66.987-35.84-92.587-25.6-29.867-63.147-46.507-102.827-46.507zm64 169.814H704.427c-17.494 0-32-14.507-32-32 0-17.494 14.506-32 32-32H832c17.493 0 32 14.506 32 32 0 17.493-14.507 32-32 32zm-64 65.28c-17.493 0-32-14.507-32-32V704.853c0-17.493 14.507-32 32-32 17.493 0 32 14.507 32 32v127.574c0 17.92-14.507 32-32 32z"/></svg>