<svg viewBox="0 0 983.04 1024" xmlns="http://www.w3.org/2000/svg"><path d="M563.2 307.2q0 80.61-56.975 137.585-57.017 56.975-137.585 56.975-80.61 0-137.585-56.975Q174.08 387.81 174.08 307.2q0-80.61 56.975-137.585Q288.03 112.64 368.64 112.64q80.568 0 137.585 56.975Q563.2 226.59 563.2 307.2zm102.4 573.44v-81.92q0-55.132-38.994-94.126Q587.612 665.6 532.48 665.6H204.8q-55.132 0-94.126 38.994Q71.68 743.588 71.68 798.72v81.92q0 12.74-9.01 21.71-8.97 9.01-21.71 9.01t-21.71-9.01q-9.01-8.97-9.01-21.71v-81.92q0-80.61 56.975-137.585Q124.19 604.16 204.8 604.16h327.68q80.61 0 137.585 56.975Q727.04 718.11 727.04 798.72v81.92q0 12.74-9.01 21.71-8.97 9.01-21.71 9.01t-21.71-9.01q-9.01-8.97-9.01-21.71zM501.76 307.2q0-133.12-133.12-133.12T235.52 307.2q0 55.132 38.994 94.126 38.994 38.994 94.126 38.994 133.12 0 133.12-133.12zm161.22-188.293q64.552 16.548 105.43 69.18 40.878 52.676 40.878 119.318T768.41 426.72q-40.878 52.635-105.43 69.183-12.33 3.154-23.267-3.36-10.977-6.47-14.13-18.8-3.155-12.33 3.358-23.265 6.473-10.977 18.8-14.13 44.157-11.306 72.133-47.31 27.976-36.045 27.976-81.633 0-45.59-27.977-81.633-27.976-36.004-72.13-47.31-12.33-3.153-18.8-14.13-6.514-10.937-3.36-23.266 3.154-12.33 14.13-18.8 10.938-6.513 23.267-3.36zM911.36 880.64v-81.92q-.04-45.466-27.894-81.428-27.894-35.963-71.966-47.35-12.288-3.195-18.76-14.13-6.472-10.98-3.277-23.308 3.154-12.288 14.13-18.76 10.98-6.47 23.308-3.276 64.35 16.63 105.105 69.18Q972.76 732.202 972.8 798.72v81.92q0 12.74-9.01 21.71-8.97 9.01-21.71 9.01t-21.71-9.01q-9.01-8.97-9.01-21.71z"/></svg>