<svg viewBox="0 0 1024 1024" xmlns="http://www.w3.org/2000/svg"><path d="M512 544q-101.632 0-173.483-71.85-71.85-71.85-71.85-173.483 0-101.632 71.85-173.483 71.85-71.85 173.483-71.85 101.632 0 173.483 71.85 71.85 71.85 71.85 173.483 0 101.632-71.85 173.482T512 544zm0-64q75.093 0 128.213-53.12 53.12-53.12 53.12-128.213 0-75.094-53.12-128.214-53.12-53.12-128.213-53.12-75.093 0-128.213 53.12-53.12 53.12-53.12 128.214 0 75.093 53.12 128.213Q436.907 480 512 480zm285.013 168.96q69.974-70.016 139.52-.427 70.016 69.974 0 139.947l-150.656 150.7q-17.024 18.004-43.69 22.228l-57.558 8.064q-31.53 4.523-52.31-16.3-20.82-20.777-16.34-52.265l8.19-58.112q3.97-24.96 21.803-42.795zm45.227 45.227L691.2 845.227q-3.115 3.157-3.797 7.552l-7.424 52.735 53.247-7.51q4.138-.64 6.186-2.858.427-.47.854-.854l151.04-151.04Q905.344 729.216 906.24 720q1.024-10.283-14.933-26.24-24.32-24.277-49.067.427zm-13.525-9.43q15.744 56.704 72.448 72.448 12.757 3.584 19.285 15.104 6.528 11.52 2.987 24.32-3.584 12.757-15.104 19.285-11.52 6.528-24.32 2.986-91.562-25.428-116.99-116.99-3.543-12.8 2.985-24.32 6.528-11.52 19.286-15.105 12.8-3.54 24.32 2.987 11.52 6.528 15.105 19.285zm-715.222 253.91q0-139.008 119.21-236.075Q348.886 608 512 608q70.485 0 135.936 19.712 12.715 3.797 18.987 15.488 6.272 11.69 2.432 24.363-3.798 12.714-15.488 18.986-11.69 6.27-24.363 2.43Q573.056 672 512 672q-140.373 0-238.89 80.213-95.617 77.867-95.617 186.454 0 13.27-9.386 22.613-9.344 9.387-22.614 9.387-13.27 0-22.613-9.387-9.387-9.344-9.387-22.613z"/></svg>