<svg viewBox="0 0 1024 1024" xmlns="http://www.w3.org/2000/svg"><path d="M12.63 356.157h213.82v637.66H12.63v-637.66zM120.977 48.762C47.788 48.762 0 96.352 0 158.866c0 61.196 46.42 110.202 118.2 110.202h1.315c74.606 0 121.027-49.005 121.027-110.202-1.414-62.513-46.42-110.104-119.564-110.104zm630.345 292.376c-113.468 0-164.327 61.88-192.658 105.277v-90.258h-213.87c2.83 59.782 0 637.66 0 637.66h213.87v-356.11c0-19.114 1.414-38.082 7.022-51.735 15.457-38.083 50.663-77.532 109.665-77.532 77.434 0 108.398 58.515 108.398 144.19v341.186h213.772V628.15c0-195.876-105.423-287.012-246.2-287.012z"/></svg>