<svg viewBox="0 0 1024 1024" xmlns="http://www.w3.org/2000/svg"><path d="M460.373 647.253c-8.533 0-16.64-3.413-22.613-9.386L334.507 534.613c-12.374-12.373-12.374-32.853 0-45.226 12.373-12.374 32.853-12.374 45.226 0l80.64 80.64L643.84 386.56c12.373-12.373 32.853-12.373 45.227 0 12.373 12.373 12.373 32.853 0 45.227l-206.08 206.08c-5.974 5.973-14.08 9.386-22.614 9.386zM512 970.667c-26.88 0-53.76-8.96-74.667-26.88L369.92 885.76c-6.827-5.973-23.893-11.947-32.853-11.947H263.68c-63.147 0-114.347-51.2-114.347-114.346v-72.96c0-8.96-5.973-25.6-11.946-32.427l-57.6-67.84c-34.987-41.387-34.987-106.667 0-148.053l57.6-67.84c5.973-6.827 11.946-23.467 11.946-32.427v-73.387c0-63.146 51.2-114.346 114.347-114.346h73.813c8.96 0 26.027-6.4 32.854-11.947l67.413-58.027c41.813-35.84 107.093-35.84 148.907 0l67.413 58.027c6.827 5.973 23.893 11.947 32.853 11.947h72.534c63.146 0 114.346 51.2 114.346 114.346v72.534c0 8.96 6.4 26.026 12.374 32.853l58.026 67.413c35.84 41.814 35.84 107.094 0 148.907l-58.026 67.413c-5.974 6.827-12.374 23.894-12.374 32.854v72.533c0 63.147-51.2 114.347-114.346 114.347h-72.534c-8.96 0-26.026 6.4-32.853 11.946l-67.413 58.027C565.76 961.707 538.88 970.667 512 970.667zm-248.32-756.48c-27.733 0-50.347 22.613-50.347 50.346v72.96c0 24.32-11.52 55.467-27.306 73.814l-57.6 67.84c-14.934 17.493-14.934 47.786 0 65.28l57.6 67.84c15.786 18.773 27.306 49.493 27.306 73.813v72.96c0 27.733 22.614 50.347 50.347 50.347h73.813c24.747 0 55.894 11.52 74.667 27.733l67.413 58.027c17.494 14.933 48.214 14.933 65.707 0l67.413-58.027c18.774-15.787 49.92-27.733 74.667-27.733h72.533c27.734 0 50.347-22.614 50.347-50.347v-72.533c0-24.747 11.52-55.894 27.733-74.667L896 544.427c14.933-17.494 14.933-48.214 0-65.707l-58.027-67.413c-16.213-18.774-27.733-49.92-27.733-74.667v-72.107c0-27.733-22.613-50.346-50.347-50.346H687.36c-24.747 0-55.893-11.52-74.667-27.734l-67.413-58.026c-17.493-14.934-48.213-14.934-65.707 0L412.16 186.88c-18.773 15.787-50.347 27.307-74.667 27.307H263.68z"/></svg>