<svg viewBox="0 0 1024 1024" xmlns="http://www.w3.org/2000/svg"><path d="M1024 512c-.94 35.2-11.69 69.46-31.02 98.944-19.327 29.483-46.463 52.992-78.377 67.883 12.97 32.98 16.042 68.992 8.832 103.637-7.254 34.688-24.406 66.475-49.45 91.52-25.046 25.045-56.833 42.197-91.52 49.45-34.646 7.21-70.657 4.14-103.638-8.83-14.848 31.956-38.358 59.135-67.84 78.463-29.483 19.328-63.744 30.037-98.987 30.933-34.773-1.408-68.523-12.373-97.493-31.66-29.014-19.284-52.14-46.164-66.86-77.737-33.108 11.99-68.906 14.55-103.38 7.424-34.475-7.168-66.304-23.723-91.904-47.872-24.192-25.643-40.704-57.472-47.787-91.99-7.04-34.474-4.352-70.272 7.808-103.338C79.957 664.32 52.224 640.98 32.34 611.5 12.5 582.015 1.28 547.54 0 512c1.28-35.54 12.5-70.016 32.34-99.5 19.884-29.48 47.617-52.82 80.044-67.327-12.46-32.853-15.573-68.48-8.96-102.997 6.613-34.475 22.7-66.432 46.42-92.33 25.644-24.278 57.56-40.96 92.16-48.086 34.604-7.168 70.487-4.523 103.64 7.637 14.76-31.957 38.143-59.136 67.54-78.464C442.58 11.563 476.8.853 512 0c35.243.896 69.504 11.605 98.987 30.933 29.482 19.328 52.992 46.507 67.84 78.464 33.11-12.117 68.906-14.72 103.424-7.594 34.52 7.168 66.348 23.808 91.906 48.042 24.234 25.558 40.874 57.387 48.042 91.904 7.126 34.516 4.523 70.313-7.594 103.422 31.914 14.89 59.05 38.4 78.378 67.883C1012.31 442.54 1023.06 476.8 1024 512zM439.083 721.792l309.674-340.18-73.43-67.927-239.743 261.248-112.896-112.896-70.443 72.918z"/></svg>