<svg viewBox="0 0 1024 1024" xmlns="http://www.w3.org/2000/svg"><path d="M549.547 890.027H290.56c-151.467 0-205.227-106.24-205.227-205.227V339.2c0-147.627 57.6-205.227 205.227-205.227h258.987c147.626 0 205.226 57.6 205.226 205.227v345.6c0 147.627-57.6 205.227-205.226 205.227zm-258.987-691.2c-111.36 0-140.373 29.013-140.373 140.373v345.6c0 52.48 18.346 140.373 140.373 140.373h258.987c111.36 0 140.373-29.013 140.373-140.373V339.2c0-111.36-29.013-140.373-140.373-140.373H290.56zm596.053 573.866c-18.346 0-41.813-5.973-68.693-24.746L704 668.16c-8.533-5.973-13.653-15.787-13.653-26.453V382.293c0-10.666 5.12-20.48 13.653-26.453l113.92-79.787c50.773-35.413 87.893-25.173 105.387-16.213 17.493 9.387 47.36 33.707 47.36 95.573V668.16c0 61.867-29.867 86.613-47.36 95.573-8.107 4.694-20.907 8.96-36.694 8.96zM754.773 624.64l100.267 69.973c19.2 13.227 32.853 14.507 38.4 11.52 5.973-2.986 12.373-14.933 12.373-37.973V355.84c0-23.467-6.826-34.987-12.373-37.973-5.547-2.987-19.2-1.707-38.4 11.52L754.773 399.36v225.28zM490.667 501.333c-52.907 0-96-43.093-96-96 0-52.906 43.093-96 96-96 52.906 0 96 43.094 96 96 0 52.907-43.094 96-96 96zm0-128c-17.494 0-32 14.507-32 32 0 17.494 14.506 32 32 32 17.493 0 32-14.506 32-32 0-17.493-14.507-32-32-32z"/></svg>