<svg viewBox="0 0 1024 1024" xmlns="http://www.w3.org/2000/svg"><path d="M253.952 493.568q0 114.524 80.978 195.502 80.978 80.978 195.502 80.978 114.524 0 195.502-80.978 80.978-80.978 80.978-195.502 0-114.524-80.978-195.502-80.978-80.978-195.502-80.978-114.524 0-195.502 80.978-80.978 80.978-80.978 195.502zm40.96 0q0-97.526 68.977-166.543 68.974-68.977 166.54-68.977 97.568 0 166.544 68.977 68.977 69.017 68.977 166.543 0 97.567-68.976 166.543Q628 729.09 530.432 729.09q-97.567 0-166.543-68.977-68.98-68.975-68.98-166.542zm256-286.72v20.48q0 8.48-6.02 14.5-5.98 5.98-14.46 5.98t-14.5-5.98q-5.98-6.02-5.98-14.5v-20.48q0-8.48 5.98-14.46 6.02-6.02 14.5-6.02t14.46 6.02q6.02 5.98 6.02 14.46zm0 512v81.92q0 8.48-6.02 14.5-5.98 5.98-14.46 5.98t-14.5-5.98q-5.98-6.02-5.98-14.5v-81.92q0-8.48 5.98-14.46 6.02-6.02 14.5-6.02t14.46 6.02q6.02 5.98 6.02 14.46zm178.3-395.1c-7.988 7.987-20.973 7.987-28.96 0-7.987-7.987-7.987-20.972 0-28.96l28.96 28.96zm20.48-20.48l-20.48 20.48-28.96-28.96 20.48-20.48 28.96 28.96zm-358.4 22.24c8.027 7.988 8.027 20.973 0 28.96-7.988 7.987-20.932 7.987-28.96 0l28.96-28.96zm-51.2-51.2l51.2 51.2-28.96 28.96-51.2-51.2 28.96-28.96zm-8.48 389.12c8.028-7.986 20.972-7.986 28.96 0 8.027 7.988 8.027 20.973 0 28.96l-28.96-28.96zm-20.48 20.48l20.48-20.48 28.96 28.96-20.48 20.48-28.96-28.96zm526.5-169.86h-40.96q-8.48 0-14.5-5.98-5.98-6.02-5.98-14.5t5.98-14.46q6.02-6.02 14.5-6.02h40.96q8.48 0 14.46 6.02 6.02 5.98 6.02 14.46t-6.02 14.5q-5.98 5.98-14.46 5.98zm-532.48 0h-81.92q-8.48 0-14.5-5.98-5.98-6.02-5.98-14.5t5.98-14.46q6.02-6.02 14.5-6.02h81.92q8.48 0 14.46 6.02 6.02 5.98 6.02 14.46t-6.02 14.5q-5.98 5.98-14.46 5.98zm364.38 147.62c-7.987-7.987-7.987-20.972 0-28.96 7.987-7.986 20.972-7.986 28.96 0l-28.96 28.96zm51.2 51.2l-51.2-51.2 28.96-28.96 51.2 51.2-28.96 28.96zm-231.26-342.18q0-61.44 61.44-61.44 25.436 0 43.418 18.022 18.022 17.982 18.022 43.418 0 61.44-61.44 61.44t-61.44-61.44zm40.96 0q0 20.48 20.48 20.48t20.48-20.48q0-20.48-20.48-20.48t-20.48 20.48zm40.96 163.84q0-25.436 17.98-43.418 17.983-18.022 43.46-18.022 25.436 0 43.418 18.022 18.022 17.982 18.022 43.418 0 25.477-18.022 43.46-17.982 17.98-43.418 17.98-61.44 0-61.44-61.44zm40.96 0q0 20.48 20.48 20.48t20.48-20.48q0-20.48-20.48-20.48t-20.48 20.48zm-266.24 40.96q0-25.436 17.98-43.418 18.024-18.022 43.46-18.022t43.418 18.022q18.022 17.982 18.022 43.418 0 61.44-61.44 61.44t-61.44-61.44zm40.96 0q0 20.48 20.48 20.48t20.48-20.48q0-20.48-20.48-20.48t-20.48 20.48zm81.92-430.08q0-25.436 17.98-43.418 17.983-18.022 43.46-18.022 61.44 0 61.44 61.44t-61.44 61.44q-25.477 0-43.46-17.98-17.98-17.983-17.98-43.46zm40.96 0q0 20.48 20.48 20.48t20.48-20.48q0-20.48-20.48-20.48t-20.48 20.48zm-40.96 696.32q0-61.44 61.44-61.44 25.436 0 43.418 18.022 18.022 17.982 18.022 43.418 0 25.477-18.022 43.46-17.982 17.98-43.418 17.98-61.44 0-61.44-61.44zm40.96 0q0 20.48 20.48 20.48t20.48-20.48q0-20.48-20.48-20.48t-20.48 20.48zm204.8-593.92q0-25.436 17.98-43.418 17.983-18.022 43.46-18.022 61.44 0 61.44 61.44t-61.44 61.44q-25.477 0-43.46-17.98-17.98-17.983-17.98-43.46zm40.96 0q0 20.48 20.48 20.48t20.48-20.48q0-20.48-20.48-20.48t-20.48 20.48zm-532.48 0q0-25.436 17.98-43.418 18.024-18.022 43.46-18.022t43.418 18.022q18.022 17.982 18.022 43.418 0 61.44-61.44 61.44-25.436 0-43.46-17.98-17.98-17.983-17.98-43.46zm40.96 0q0 20.48 20.48 20.48t20.48-20.48q0-20.48-20.48-20.48t-20.48 20.48zm-40.96 491.52q0-25.436 17.98-43.418 18.024-18.022 43.46-18.022 61.44 0 61.44 61.44t-61.44 61.44q-25.436 0-43.46-17.98-17.98-17.983-17.98-43.46zm40.96 0q0 20.48 20.48 20.48t20.48-20.48q0-20.48-20.48-20.48t-20.48 20.48zm552.96-245.76q0-61.44 61.44-61.44 25.436 0 43.418 18.022 18.022 17.982 18.022 43.418 0 25.477-18.022 43.46-17.982 17.98-43.418 17.98-61.44 0-61.44-61.44zm40.96 0q0 20.48 20.48 20.48t20.48-20.48q0-20.48-20.48-20.48t-20.48 20.48zm-737.28 0q0-25.436 17.98-43.418 18.024-18.022 43.46-18.022t43.418 18.022q18.022 17.982 18.022 43.418 0 25.477-18.022 43.46-17.982 17.98-43.418 17.98-61.44 0-61.44-61.44zm40.96 0q0 20.48 20.48 20.48t20.48-20.48q0-20.48-20.48-20.48t-20.48 20.48zm552.96 245.76q0-25.436 17.98-43.418 17.983-18.022 43.46-18.022 61.44 0 61.44 61.44t-61.44 61.44q-25.477 0-43.46-17.98-17.98-17.983-17.98-43.46zm40.96 0q0 20.48 20.48 20.48t20.48-20.48q0-20.48-20.48-20.48t-20.48 20.48z"/></svg>