<svg viewBox="0 0 1024 1024" xmlns="http://www.w3.org/2000/svg"><path d="M288 420.693v183.04q0 13.27-9.387 22.614-9.344 9.386-22.613 9.386-13.27 0-22.613-9.386Q224 617.003 224 603.733v-183.04q0-13.27 9.387-22.613 9.344-9.387 22.613-9.387 13.27 0 22.613 9.387Q288 407.424 288 420.693zm128-61.013v304.64q0 13.27-9.387 22.613-9.344 9.387-22.613 9.387-13.27 0-22.613-9.387Q352 677.59 352 664.32V359.68q0-13.27 9.387-22.613 9.344-9.387 22.613-9.387 13.27 0 22.613 9.387Q416 346.41 416 359.68zm128-61.013v426.666q0 13.27-9.387 22.614-9.344 9.386-22.613 9.386-13.27 0-22.613-9.386Q480 738.603 480 725.333V298.667q0-13.27 9.387-22.614 9.344-9.386 22.613-9.386 13.27 0 22.613 9.386Q544 285.397 544 298.667zm128 61.013v304.64q0 13.27-9.387 22.613-9.344 9.387-22.613 9.387-13.27 0-22.613-9.387Q608 677.59 608 664.32V359.68q0-13.27 9.387-22.613 9.344-9.387 22.613-9.387 13.27 0 22.613 9.387Q672 346.41 672 359.68zm128 61.013v183.04q0 13.27-9.387 22.614-9.344 9.386-22.613 9.386-13.27 0-22.613-9.386Q736 617.003 736 603.733v-183.04q0-13.27 9.387-22.613 9.344-9.387 22.613-9.387 13.27 0 22.613 9.387Q800 407.424 800 420.693zM384 970.667Q53.333 970.667 53.333 640V384Q53.333 53.333 384 53.333h256q330.667 0 330.667 330.667v256q0 330.667-330.667 330.667zm0-64h256q146.73 0 206.72-59.947 59.947-59.99 59.947-206.72V384q0-266.667-266.667-266.667H384q-266.667 0-266.667 266.667v256q0 146.73 59.947 206.72 59.99 59.947 206.72 59.947z"/></svg>