<svg viewBox="0 0 1024 1024.002" xmlns="http://www.w3.org/2000/svg"><path d="M570 120l-2 3-123 287q-9 20-30 20H294q-37 0-70 14-12 5-24.5 0T182 426.5q-5-12.5 0-24.5l79-189q2-5 4-9Q353 2 552 78q12 4 17.5 16t.5 25v1zm-73 7q-117-27-174 103l-2 4-1 4-54 129q14-1 28-1h100l103-239zm264 310q-23-7-51-7H415q-13 0-22.5-9.5T383 398q0-7 3-13L511 95q5-12 16-17t23-1q6 2 15 6l101 42q87 37 123 81 9 10 14 20 7 12 11 23 3 7 4 13 20 62-18 156-5 12-16 17t-23 2zm-11-68q18-55 7-88l-4-13q-1-3-5-9l-1-2q-2-4-7-10-26-33-99-63l-84-35-93 217h246q21 0 40 3zm200 237v83q0 9-1 27-13 255-281 255H335q-15 0-33-3Q72 953 56 722q-2-17-2-33v-83q0-158 145-221 47-19 95-19h416q36 0 70 9 170 53 170 231zm-64 0q0-131-124-169-25-7-52-7H294q-36 0-69 14-107 46-107 162v83q0 12 2 26v2q11 176 187 188h2q15 2 26 2h333q207 0 217-194l1-24v-83zM316 248l-75 179q-5 11-17 17-107 46-107 162 0 13-9 22.5T85.5 638q-13.5 0-23-9.5T53 606V481q0-232 227-277 13-2 24 5.5t14 20.5q2 9-2 18zM121 435q27-26 66-45l43-104q-94 42-109 149zm829 46v125q0 13-9.5 22.5T918 638q-13 0-22.5-9.5T886 606q0-131-125-169-12-4-18.5-15.5T740 397l1-2q29-73 17-115l-2-6q-6-11-2-24t16-18q15-8 29 0 151 78 151 249zM824 326q-2 29-13 61 41 17 70 43-12-62-57-104z"/></svg>