<svg viewBox="0 0 1024 1024.002" xmlns="http://www.w3.org/2000/svg"><path d="M752 332q-10-1-27-1H299q-16 0-29.5 2t-24-6q-10.5-8-12.5-21-2-10 3-19 10-22 30-42l139-139q53-53 128.5-53T662 106l75 76q49 49 52 117 1 13-8 23t-22 11q-4 0-7-1zm-34-65q-9-22-27-40l-74-75q-84-83-167-1L335 267h383zM416 811q0 56-30 104-58 98-173 98T40 915q-29-47-29-104 0-84 59-143.5T213 608q84 0 143.5 59.5T416 811zm-64 0q0-58-40.5-98.5T213 672Q75 672 75 811q0 38 20 71 40 67 118.5 67T332 882q20-33 20-71zm-75 31H150q-13 0-22.5-9.5T118 810q0-13 9.5-22.5T150 778h127q13 0 22.5 9.5T309 810q0 13-9.5 22.5T277 842zm-32-94v127q0 13-9 22.5t-22.5 9.5q-13.5 0-23-9.5T181 875V748q0-14 9.5-23t23-9q13.5 0 22.5 9t9 23zm726-236v213q0 246-246 246H326q-14 0-23-9.5t-9-23.5q0-14 11-24 16-13 27-32 20-33 20-71 0-139-139-139-62 0-104 47-8 10-21.5 11t-24-8.5Q53 712 53 698V512q0-216 207-242 19-3 39-3h426q22 0 37 2 209 25 209 243zm-64 0q0-162-153-179l-2-1q-10-1-27-1H299q-16 0-30 2h-1q-151 19-151 179v119q43-23 96-23 84 0 143.5 59.5T416 811q0 51-24 96h333q182 0 182-182V512zm32 53H811q-22 0-38 16t-16 38q0 53 54 53h128q13 0 22.5 9.5T971 704q0 13-9.5 22.5T939 736H811q-118 0-118-117.5T811 501h128q13 0 22.5 9.5t9.5 23q0 13.5-9.5 22.5t-22.5 9z"/></svg>