<svg viewBox="0 0 1024 1024.001" xmlns="http://www.w3.org/2000/svg"><path d="M512 586.667c-17.493 0-32-14.507-32-32v-224c0-17.494 14.507-32 32-32 17.493 0 32 14.506 32 32v224c0 17.493-14.507 32-32 32zM512 736c-11.52 0-22.187-4.267-30.293-12.373-3.84-4.267-6.827-8.96-9.387-14.08-2.133-5.12-2.987-10.667-2.987-16.214 0-11.093 4.694-22.186 12.374-30.293 15.786-15.787 44.8-15.787 60.586 0 7.68 8.107 12.374 19.2 12.374 30.293 0 5.547-1.28 11.094-3.414 16.214-2.133 5.12-5.12 9.813-8.96 14.08C534.187 731.733 523.52 736 512 736zm0 234.667c-28.587 0-57.6-7.254-83.2-22.187L175.36 802.133c-51.2-29.866-83.2-84.906-83.2-144.213V366.08c0-59.307 32-114.347 83.2-144.213L428.8 75.52c51.2-29.867 114.773-29.867 166.4 0l253.44 146.347c51.2 29.866 83.2 84.906 83.2 144.213v291.84c0 59.307-32 114.347-83.2 144.213L595.2 948.48c-25.6 14.933-54.613 22.187-83.2 22.187zm0-853.334c-17.493 0-35.413 4.694-51.2 13.654L207.36 277.333c-31.573 18.347-51.2 52.054-51.2 88.747v291.84c0 36.267 19.627 70.4 51.2 88.747L460.8 893.013c31.573 18.347 70.827 18.347 101.973 0l253.44-146.346c31.574-18.347 51.2-52.054 51.2-88.747V366.08c0-36.267-19.626-70.4-51.2-88.747l-253.44-146.346c-15.36-8.96-33.28-13.654-50.773-13.654z"/></svg>