<svg viewBox="0 0 983.0236 1024" xmlns="http://www.w3.org/2000/svg"><path d="M81.92 947.184c-8.193 0-15.975-3.277-21.71-9.01-7.78-7.784-11.06-19.25-8.19-29.9l51.608-192.92c-34.41-63.895-52.43-135.984-52.43-208.893 0-242.883 197.425-440.31 440.314-440.31 242.89 0 440.312 197.427 440.312 440.315 0 242.89-197.423 440.312-440.312 440.312-74.137 0-146.635-18.432-211.35-53.656L90.11 945.954c-2.868.82-5.326 1.23-8.193 1.23zM284.256 829.63c5.325 0 10.65 1.64 15.565 4.097 57.756 33.998 124.11 52.02 191.69 52.02 208.895 0 378.876-169.982 378.876-378.874 0-208.893-169.98-378.875-378.873-378.875-208.892 0-378.873 169.98-378.873 378.874 0 66.763 17.612 131.887 50.79 189.23 4.094 6.964 5.323 15.566 3.275 23.348l-40.96 153.187 150.73-41.777c2.46-.82 5.326-1.23 7.783-1.23zM603.74 742.8c-25.395 0-51.61-5.735-79.05-17.613-25.805-11.06-51.61-25.805-76.596-44.236-24.575-18.02-48.74-38.5-70.858-60.62-22.12-22.53-42.6-46.283-60.62-70.86-18.432-25.802-33.18-51.2-43.827-76.182-11.47-27.034-17.207-53.657-17.207-79.052 0-18.02 3.277-35.225 9.42-51.2 6.555-16.792 17.203-31.948 31.13-45.054 26.214-25.804 63.896-35.225 93.797-20.89 10.24 4.506 18.84 11.88 25.395 21.71l47.513 66.763c4.914 6.554 8.6 13.517 11.47 20.48 3.275 8.19 5.323 16.383 5.323 24.165 0 10.65-2.866 21.3-8.6 30.72-3.685 6.143-9.01 13.516-15.973 20.48l-5.325 5.734c2.46 3.278 5.327 7.374 9.83 12.29 8.604 9.83 18.025 20.48 28.265 30.72 10.24 9.83 20.48 19.66 30.72 28.26 4.914 4.095 9.01 7.372 12.287 9.42l5.734-5.734c7.373-7.373 14.746-13.108 22.118-16.794 13.516-8.6 34.406-10.65 52.84-2.866 6.55 2.457 13.105 6.144 20.07 11.06l68.4 48.33c9.42 6.554 16.793 15.566 21.71 25.806 4.094 10.24 5.733 19.25 5.733 28.67 0 12.29-2.87 24.167-8.194 35.636-5.325 10.648-11.47 20.07-18.842 28.67-13.106 14.336-28.26 24.985-44.645 31.95-16.385 6.962-33.997 10.24-52.02 10.24zM360.032 332.384c-2.457 0-10.65 0-20.89 10.24-7.78 7.373-13.105 15.156-16.792 23.757-3.686 8.606-5.325 18.436-5.325 28.266 0 17.203 4.096 35.635 12.288 55.296 8.6 20.48 21.3 42.187 36.863 63.895 15.975 21.71 33.996 43.418 54.067 63.487 20.07 19.664 41.37 38.096 63.487 54.48 21.3 15.564 43.007 27.852 64.715 37.273 31.13 13.516 59.8 16.793 83.148 6.963 8.19-3.277 15.564-9.01 22.937-16.384 3.687-4.094 6.554-8.19 9.012-13.515 1.23-2.867 2.048-6.144 2.048-9.01 0-.82 0-2.05-1.23-4.507l-68.4-47.512c-2.868-2.047-5.735-3.686-8.193-4.505-1.638.82-4.096 2.048-8.602 6.554l-15.563 15.563c-11.88 11.88-30.72 15.156-45.876 9.83l-7.372-3.276c-9.42-4.915-20.07-12.288-31.95-22.528-11.467-9.83-22.526-20.07-34.404-31.54-11.468-11.878-21.708-22.937-31.54-34.406-10.648-12.696-18.02-22.936-22.935-31.54l-4.506-10.647c-1.23-4.096-1.64-8.602-1.64-12.698 0-11.47 4.093-21.71 11.875-29.9l15.565-15.975c4.505-4.505 6.144-6.962 6.963-8.6-1.23-2.868-2.867-5.326-4.915-8.193l-47.923-67.58-4.916-3.278z"/></svg>