<svg viewBox="0 0 992 1024" xmlns="http://www.w3.org/2000/svg"><path d="M847.456 174.464C940.64 267.744 991.936 391.68 992 523.52v.384c-.096 272.352-221.696 493.92-493.92 493.92h-.192c-82.688-.032-163.904-20.768-236.064-60.128L9.12 1024H.64l69.44-253.568C26.848 695.552 4.096 610.56 4.128 523.52 4.256 251.2 225.824 29.632 498.08 29.632c132.128.032 256.128 51.488 349.376 144.832zM498.08 934.4c226.272 0 410.432-184.16 410.528-410.528.032-109.696-42.624-212.832-120.128-290.432-77.504-77.6-180.576-120.352-290.24-120.384-226.464 0-410.624 184.128-410.72 410.496-.032 77.568 21.696 153.12 62.784 218.464l9.76 15.552-41.472 151.488 155.36-40.768 15.008 8.896C352 914.592 424.224 934.368 497.92 934.4zm225.184-307.456c12.32 6.176 20.576 9.28 23.648 14.4 3.072 5.152 3.072 29.888-7.2 58.72-10.272 28.8-59.584 55.136-83.296 58.656-21.28 3.2-48.192 4.512-77.728-4.864-17.92-5.696-40.928-13.312-70.368-26.016-123.808-53.472-204.672-178.112-210.816-186.336-6.176-8.256-50.4-66.944-50.4-127.68 0-60.736 31.872-90.592 43.2-102.976 11.296-12.352 24.672-15.424 32.896-15.424s16.48.064 23.648.416c.896.064 1.824.064 2.784.064 7.168-.064 16.16-.096 24.992 21.12 10.272 24.736 34.976 85.472 38.048 91.648 3.104 6.176 5.152 13.376 1.024 21.632-4.096 8.224-6.144 13.376-12.32 20.576-6.176 7.232-12.96 16.096-18.528 21.632-6.176 6.144-12.608 12.832-5.408 25.184s31.968 52.768 68.672 85.504c47.136 42.048 86.88 55.072 99.232 61.248 12.352 6.176 19.552 5.152 26.752-3.104 7.2-8.224 30.848-36.032 39.072-48.384 8.224-12.352 16.448-10.304 27.744-6.176 11.328 4.128 72 33.984 84.352 40.16z"/></svg>