<svg viewBox="0 0 1024 1024" xmlns="http://www.w3.org/2000/svg"><path d="M6.06 8.747L0 0h147.84l147.883.043 126.25 185.642c69.462 102.144 127.062 186.667 128 187.904 1.664 2.09 2.646 1.11 22.315-21.89 44.8-52.397 54.528-63.87 64.128-75.35 5.504-6.53 10.283-12.16 10.667-12.46.384-.3 18.986-22.145 41.344-48.51 22.4-26.328 44.245-52.01 48.597-57.005 4.31-4.993 10.368-12.076 13.483-15.745 3.072-3.67 10.368-12.245 16.213-19.114 13.27-15.488 59.947-70.272 85.76-100.693L871.893 0h43.648c41.09 0 43.52.128 42.07 1.92-.85 1.067-16.89 19.968-35.67 42.027-18.73 22.058-48.34 56.832-65.79 77.27-17.41 20.48-34.26 40.276-37.46 43.988-3.24 3.712-17.065 19.968-30.803 36.096-13.696 16.13-41.302 48.56-61.312 72.07C609.797 410.5 592.048 431.45 591.578 432.73c-.512 1.322 16.854 27.05 147.2 218.54 181.12 266.025 251.69 369.96 252.203 371.24.427 1.237-25.643 1.493-146.773 1.45h-147.33l-2.902-4.224c-1.578-2.304-62.336-91.605-135.04-198.442-72.66-106.837-132.48-194.26-132.906-194.26-.47 0-10.327 11.263-21.975 25.002-11.648 13.74-21.717 25.557-22.357 26.24-.64.64-16.683 19.456-35.67 41.813-18.986 22.314-36.31 42.623-38.485 45.14-2.216 2.517-6.312 7.338-9.17 10.71-7.38 8.83-95.49 112.298-107.05 125.695-5.335 6.23-30.935 36.267-56.92 66.816L87.17 1024H44.245c-27.733 0-42.965-.384-42.965-1.11 0-.64 3.413-5.077 7.595-9.898 4.18-4.78 27.434-32.085 51.712-60.587 45.44-53.46 54.058-63.573 113.792-133.632 19.28-22.656 48.293-56.66 64.38-75.562 16.13-18.94 40.79-47.87 54.783-64.294 14.037-16.427 36.31-42.58 49.536-58.07 13.184-15.53 28.46-33.365 33.834-39.68 5.42-6.27 9.856-11.818 9.856-12.245 0-.426-9.726-15.06-21.63-32.512-11.86-17.45-96.17-141.354-187.305-275.328C86.7 127.102 9.387 13.523 6.06 8.746zm115.41 60.885c1.11 1.707 28.715 41.685 61.397 88.832 61.91 89.387 305.28 440.917 461.78 667.05 50.006 72.278 91.52 132.01 92.29 132.822 1.065 1.11 15.615 1.323 68.052 1.11l66.684-.3-174.507-252.03c-96-138.625-234.966-339.372-308.82-446.04L254.08 67.116l-67.328-.3-67.285-.3z"/></svg>